<?xml version="1.0" encoding="UTF-8" standalone="no"?>
<!-- Created with Inkscape (http://www.inkscape.org/) -->

<svg
   xmlns:dc="http://purl.org/dc/elements/1.1/"
   xmlns:cc="http://creativecommons.org/ns#"
   xmlns:rdf="http://www.w3.org/1999/02/22-rdf-syntax-ns#"
   xmlns:svg="http://www.w3.org/2000/svg"
   xmlns="http://www.w3.org/2000/svg"
   xmlns:sodipodi="http://sodipodi.sourceforge.net/DTD/sodipodi-0.dtd"
   xmlns:inkscape="http://www.inkscape.org/namespaces/inkscape"
   id="svg2"
   version="1.1"
   inkscape:version="0.48.5 r10040"
   width="120"
   height="90"
   sodipodi:docname="trunk4.svg">
  <metadata
     id="metadata8">
    <rdf:RDF>
      <cc:Work
         rdf:about="">
        <dc:format>image/svg+xml</dc:format>
        <dc:type
           rdf:resource="http://purl.org/dc/dcmitype/StillImage" />
        <dc:title />
      </cc:Work>
    </rdf:RDF>
  </metadata>
  <defs
     id="defs6" />
  <sodipodi:namedview
     pagecolor="#ffffff"
     bordercolor="#666666"
     borderopacity="1"
     objecttolerance="10"
     gridtolerance="10"
     guidetolerance="10"
     inkscape:pageopacity="0"
     inkscape:pageshadow="2"
     inkscape:window-width="1366"
     inkscape:window-height="740"
     id="namedview4"
     showgrid="false"
     inkscape:zoom="5.3400704"
     inkscape:cx="43.576911"
     inkscape:cy="57.182608"
     inkscape:window-x="0"
     inkscape:window-y="36"
     inkscape:window-maximized="1"
     inkscape:current-layer="svg2" />
  <path
     style="fill:#464646;stroke-width:1;stroke-miterlimit:4;stroke-dasharray:none;fill-opacity:1"
     d="m 23.012317,89.724783 c -1.784748,-0.58776 -5.173596,-2.37936 -7.77389,-4.10985 -5.4248984,-3.61028 -12.8387034,-10.02532 -13.8889094,-12.01784 -2.23528696,-4.24093 -1.68557996,-11.78838 1.588314,-21.8076 1.141188,-3.4924 1.440798,-4.78867 1.640563,-7.09795 0.395012,-4.56631 2.077642,-9.27093 3.985597,-11.14371 1.424646,-1.39839 7.9901704,-3.46963 13.7812494,-4.3476 2.136302,-0.32388 2.869091,-0.54221 3.373507,-1.00509 0.759394,-0.6969 1.823233,-1.12873 2.787648,-1.13161 0.905584,-0.002 4.19649,-2.40291 8.038069,-5.86254 4.58001,-4.12464 6.23129,-5.94121 7.82991,-8.61363 0.80953,-1.35331 1.78577,-2.8257505 2.16941,-3.2720905 0.38364,-0.44634 1.0455,-1.50227 1.47079,-2.34651 0.6209,-1.23253 0.94182,-1.58845 1.6287,-1.80638 0.63302,-0.20084 1.11468,-0.67386 1.85257,-1.81937 0.81397,-1.26363 1.17766,-1.59783 1.97987,-1.8194 1.19492,-0.33003 11.00134,-1.22499998 15.83581,-1.44524998 3.25416,-0.14824 3.59585,-0.12007 4.65659,0.38396 1.22295,0.58110998 1.97095,1.61286998 2.54009,3.50367998 0.2695,0.89532 0.48612,1.12756 1.37837,1.47775 3.8337,1.50463 8.33186,6.0212005 11.37482,11.4214005 0.53457,0.94865 0.9865,1.74636 1.00431,1.77269 0.0178,0.0264 0.89314,0.22405 1.9452,0.43937 2.80729,0.57455 5.2741,1.57874 7.47188,3.04166 1.069675,0.71202 2.426705,1.43451 3.015605,1.60551 1.53369,0.44537 3.41685,1.76803 4.39692,3.08821 0.46487,0.62618 1.37446,1.81083 2.02131,2.63257 6.07231,7.71399 11.86305,24.48573 10.74362,31.11673 -0.3649,2.16155 -1.2798,4.07566 -2.53859,5.31114 -1.28695,1.26313 -3.79587,2.42534 -5.63869,2.61204 -1.22164,0.12376 -1.49982,0.24881 -1.79345,0.80616 -0.19115,0.36281 -0.58131,0.86734 -0.86703,1.12115 -1.27259,1.13044 -29.011515,8.34935 -42.521475,11.06599 -6.61814,1.3308 -16.97658,3.84267 -24.40794,5.9188 -5.850607,1.6345 -7.855766,1.94956 -8.903858,1.39897 -0.362208,-0.19028 -0.99501,-0.0876 -2.48347,0.40282 -2.423488,0.79855 -6.101893,1.04996 -7.69342,0.52582 z m 7.217147,-1.85469 c 0.992358,-0.35415 2.295293,-0.66925 2.89541,-0.70021 2.008943,-0.10365 2.130817,-0.3894 2.130817,-4.99593 0,-3.9124 -0.01902,-4.05341 -0.737124,-5.46361 -1.864196,-3.66089 -3.798639,-11.28059 -5.313289,-20.92884 -1.14591,-7.2994 -2.387024,-11.28143 -4.530989,-14.53742 -2.600348,-3.94908 -6.201611,-5.82937 -11.164819,-5.82937 -2.178024,0 -4.2651264,0.53891 -5.1773914,1.33684 -0.954125,0.83456 -1.88898,4.02004 -2.332744,7.94877 -0.29031,2.57016 -0.627891,4.10148 -1.401142,6.3558 -2.376245,6.92767 -3.214543,11.43243 -3.057632,16.43084 0.147804,4.70824 0.431266,5.32188 4.005898,8.67186 6.0495994,5.66942 13.6916364,10.89641 17.9813684,12.29886 1.446897,0.47303 4.473183,0.2077 6.701637,-0.58759 z m 7.921261,-1.16388 c 0.75707,-0.95707 1.96574,-4.05888 2.75132,-7.06072 1.76521,-6.74529 3.07257,-18.11509 3.5342,-30.73611 l 0.17465,-4.77456 -1.64898,-0.97705 c -1.16263,-0.68888 -3.43547,-2.74697 -7.706224,-6.97811 -3.331486,-3.30059 -6.310601,-6.13224 -6.620252,-6.29256 -0.670845,-0.34731 -1.941844,-0.38294 -2.285191,-0.0641 -0.134678,0.12508 -1.28706,0.36059 -2.560853,0.52336 -1.273793,0.16276 -2.360384,0.33951 -2.414651,0.39278 -0.05426,0.0532 0.233993,0.16798 0.640575,0.25492 5.142887,1.09978 8.027628,3.10765 10.027399,6.9794 1.226989,2.37558 1.822615,4.96485 2.408669,10.47091 0.718212,6.74767 0.765352,7.32394 1.19005,14.5477 0.208617,3.54838 0.49863,8.2163 0.644474,10.37315 0.416394,6.15801 0.449904,13.06401 0.06524,13.4446 -0.555478,0.54959 -0.354231,0.79309 0.51551,0.62374 0.46074,-0.0897 1.03857,-0.41704 1.28406,-0.72739 z m 4.14145,-0.7728 c 2.28411,-0.65446 2.51334,-0.88971 3.79142,-3.89112 4.1453,-9.73476 6.14371,-28.73762 5.80759,-55.22459 -0.14383,-11.33429 -0.39205,-14.1271 -1.41951,-15.97132 l -0.70791,-1.2706505 -0.71723,0.8366705 c -0.89811,1.04767 -1.48446,2.37866 -2.04435,4.64062 -0.36139,1.46001 -0.47686,3.93547 -0.66649,14.28961 -0.36785,20.08353 -0.90251,30.2446 -2.07678,39.46856 -0.91331,7.17405 -2.26495,13.11521 -3.71697,16.33795 -0.34006,0.75477 -0.53768,1.36959 -0.43916,1.36628 0.0985,-0.004 1.08375,-0.26521 2.18939,-0.58201 z m 11.90853,-3.07121 c 3.6859,-0.89512 9.54339,-2.20954 13.01663,-2.92096 12.26513,-2.51222 32.58701,-7.71316 33.163905,-8.48758 0.46993,-0.63082 0.69256,-2.96417 0.51589,-5.40709 -0.30025,-4.15205 -1.807735,-9.97411 -4.319925,-16.68395 -1.30701,-3.49094 -4.29824,-10.63339 -4.59288,-10.96689 -0.0882,-0.0999 -0.91228,0.0512 -1.83128,0.3357 -1.31041,0.40564 -2.83868,0.56744 -7.08376,0.74999 -6.97375,0.29989 -12.97608,0.90877 -14.79812,1.50115 -0.79225,0.25757 -2.54236,0.88971 -3.88913,1.40474 -2.23715,0.85553 -2.7604,0.95339 -6.05725,1.13291 -1.98472,0.10813 -3.98554,0.33209 -4.44628,0.49781 l -0.83771,0.30131 0,2.06684 c 0,4.32546 -0.86799,14.7415 -1.68952,20.27447 -0.96867,6.5239 -2.59916,12.85987 -4.22351,16.41229 -0.78436,1.7154 -0.78713,1.73597 -0.21172,1.5774 0.32067,-0.0883 3.59875,-0.89304 7.28466,-1.78814 z M 34.643989,68.861333 c -0.223193,-3.29765 -0.528161,-7.98813 -0.677711,-10.42329 -0.376694,-6.13392 -1.219817,-13.63809 -1.811689,-16.12485 -1.655036,-6.95369 -6.147532,-10.17029 -14.222424,-10.18313 -2.506203,-0.004 -2.991847,0.0768 -5.27461,0.87766 -1.526842,0.53566 -2.7710034,1.1444 -3.1680164,1.55005 l -0.65376,0.66798 0.644388,-0.1674 c 5.2664654,-1.36801 10.4471504,-0.18728 13.8549584,3.15772 3.688002,3.62001 5.294511,8.05908 7.153854,19.76737 0.369108,2.32429 1.070391,5.9106 1.558404,7.96962 1.025136,4.32522 2.708114,9.71538 2.882946,9.23336 0.06571,-0.18114 -0.06314,-3.02742 -0.28634,-6.32509 z m 71.472401,1.07661 c 0.51086,-0.48004 0.46217,-4.90485 -0.0862,-7.83135 -1.68283,-8.98092 -7.028035,-22.74816 -15.225685,-39.21556 -3.7671,-7.56734 -6.15687,-11.02938 -9.46977,-13.7188105 -1.28292,-1.04148 -3.78723,-2.59993 -4.17789,-2.59993 -0.0985,0 -0.14236,0.31309 -0.0976,0.69576 0.058,0.49454 0.24675,0.71882 0.65271,0.77548 1.1282,0.15747 2.07391,1.6474 4.4459,7.0043905 0.73937,1.66982 2.83055,5.93926 4.64706,9.48764 8.72146,17.03645 13.794995,30.03806 15.223225,39.0114 0.17287,1.08611 0.25996,3.22405 0.19706,4.83718 l -0.11268,2.8908 1.81957,-0.49718 c 1.00078,-0.27344 1.98367,-0.65137 2.18423,-0.83982 z m 2.57421,-1.46538 c 0.90579,-2.81524 2.16698,-9.3476 2.18157,-11.29954 0.0203,-2.71173 -0.50919,-11.11549 -0.86873,-13.78869 -1.37543,-10.2265 -1.85976,-12.90952 -2.4434,-13.5357 -0.32426,-0.34788 -0.7684,-0.98098 -0.987,-1.4069 -0.80502,-1.56847 -3.691,-3.64197 -5.08119,-3.65069 -0.21647,-9.8e-4 -1.0284,-0.47506 -1.804285,-1.05265 -1.76043,-1.3105 -4.60427,-2.62621 -6.72702,-3.1123 -0.89152,-0.20414 -1.66023,-0.33259 -1.70825,-0.28547 -0.23826,0.23388 1.1274,2.41429 1.66185,2.65331 1.06178,0.47486 3.19784,2.62092 3.83267,3.85062 0.75916,1.47049 1.17031,4.01201 0.90694,5.60604 -0.16608,1.00513 -0.0978,1.42699 0.40262,2.48717 1.34428,2.84799 4.779685,11.49563 6.121565,15.40927 2.56533,7.48181 3.92692,13.87404 3.72021,17.46508 -0.0731,1.2691 -0.0178,1.66858 0.21865,1.57953 0.17404,-0.0655 0.43225,-0.47914 0.5738,-0.91908 z m 5.62233,-2.21922 c 1.8677,-0.87921 2.95609,-2.05699 3.71515,-4.02024 0.47844,-1.23745 0.52264,-1.7557 0.39911,-4.68057 -0.2056,-4.86827 -1.78861,-10.65501 -4.74102,-17.33074 -1.3912,-3.14568 -3.33306,-6.83111 -3.59933,-6.83111 -0.0767,0 -0.0713,0.37002 0.012,0.82227 0.59993,3.2545 1.5214,11.19675 1.73922,14.99046 0.14381,2.50474 0.32238,5.63566 0.39682,6.9576 0.11904,2.11307 0.0235,2.91116 -0.78969,6.60412 -0.50876,2.31031 -0.92503,4.28426 -0.92503,4.38655 0,0.36733 2.22221,-0.15901 3.79271,-0.89834 z M 55.589095,42.756103 c 0.76362,-0.14151 2.38747,-0.25881 3.60858,-0.26066 2.28469,-0.004 2.72076,-0.11783 8.06323,-2.11412 2.12853,-0.79535 6.46388,-1.30202 15.29288,-1.78728 7.23278,-0.39754 9.04186,-0.75958 8.75074,-1.75126 -0.38744,-1.31982 -8.9185,-17.87331 -9.21124,-17.87331 -0.90905,0 -4.88376,0.56169 -6.24114,0.88197 -0.8506,0.2007 -4.79424,0.93353 -8.76368,1.62852 -6.72938,1.17822 -13.73469,2.60937 -13.86295,2.83211 -0.0307,0.0534 -0.0215,4.34396 0.0205,9.5347 0.0708,8.75536 0.10812,9.42792 0.51551,9.30216 0.24153,-0.0746 1.06393,-0.25134 1.82755,-0.39283 z m -10.74313,-8.16364 c 0.0626,-4.62682 0.069,-8.46691 0.0142,-8.53355 -0.0548,-0.0666 -2.32524,0.32668 -5.04539,0.8741 -2.7907,0.56159 -6.461957,1.11271 -8.425424,1.26478 l -3.479697,0.26951 0.902143,0.4725 c 0.49618,0.25989 3.627905,3.17362 6.959392,6.47497 5.189466,5.14251 8.019956,7.59005 8.777596,7.59005 0.1008,0 0.23453,-3.78557 0.29717,-8.41236 z m 51.93233,-4.35382 c -0.0854,-0.89871 -0.40438,-2.12262 -0.70863,-2.71979 -0.52804,-1.03648 -2.46638,-3.23629 -2.8516,-3.23629 -0.10068,0 0.64418,1.70776 1.65514,3.79505 1.01098,2.08727 1.88817,3.79505 1.94933,3.79505 0.0612,0 0.0413,-0.73531 -0.0443,-1.63402 z m -62.863011,-4.33033 c 0.494717,-0.74948 0.516034,-0.85565 0.128878,-0.64188 -0.255135,0.14087 -0.811849,0.5423 -1.237146,0.89204 l -0.773266,0.63592 0.644388,0.006 c 0.458571,0.005 0.815316,-0.25299 1.237146,-0.89204 z m 9.653011,-1.12643 1.4821,-0.28221 0,-3.02114 0,-3.02115 -1.96617,1.53364 c -1.0814,0.8435 -2.67626,2.0056 -3.54414,2.58246 -1.58708,1.05488 -4.284394,3.40239 -4.284394,3.72876 0,0.0964 1.536864,-0.14276 3.415254,-0.53146 1.87839,-0.38868 4.0822,-0.83368 4.89735,-0.9889 z m 15.272,-3.13438 c 2.41002,-0.4924 5.54054,-1.09792 6.95672,-1.34561 l 2.57489,-0.45033 0.44551,-2.27532 c 0.24504,-1.25142 0.52343,-3.36708 0.61866,-4.70146 0.14441,-2.02364 0.10944,-2.45013 -0.21059,-2.57068 -0.55365,-0.20854 -16.0485,1.36326 -16.34925,1.65847 -0.21093,0.20704 -0.19184,0.7791 0.14941,4.47687 0.14768,1.60024 0.26949,3.69038 0.27071,4.64474 0.002,1.67134 0.0235,1.73011 0.58215,1.5969 0.31897,-0.0761 2.55178,-0.54118 4.96179,-1.03358 z m -17.52736,-2.05661 c 3.83195,-2.93397 3.98044,-3.10024 4.39553,-4.92247 0.20603,-0.90449 0.48774,-1.90069 0.626,-2.21379 0.47235,-1.06955 0.0848,-0.56987 -1.27549,1.64453 -0.99857,1.62555 -2.15634,2.98402 -4.35726,5.11256 -3.09934,2.99741 -2.93859,3.09713 0.61122,0.37917 z m 31.42954,-0.4498 c 1.3701,-0.27969 1.55136,-0.39084 1.73521,-1.06422 0.28303,-1.03663 1.11562,-7.92283 0.97385,-8.05453 -0.0632,-0.0587 -1.10082,-0.0336 -2.30583,0.0559 l -2.19091,0.16262 -0.16347,2.53004 c -0.14804,2.29105 -0.55226,5.10881 -0.8983,6.26183 -0.16261,0.54186 0.58638,0.57033 2.84945,0.10837 z m 6.47555,-1.22419 c 1.33849,-0.16145 2.43361,-0.39005 2.43361,-0.50798 0,-0.33308 -2.53344,-5.77464 -3.24892,-6.97832 -0.55855,-0.9396905 -1.39068,-1.4604005 -1.39068,-0.8702405 0,0.11273 -0.2306,2.0197705 -0.51247,4.2378005 -0.28186,2.21805 -0.51384,4.11819 -0.51551,4.22255 -0.004,0.25327 0.37441,0.24113 3.23397,-0.10377 z M 62.159275,9.4872425 c 3.38485,-0.35084 7.21252,-0.64635 8.50591,-0.65666 3.62822,-0.029 4.60034,-0.23243 4.81088,-1.00705 0.27171,-0.99969 -0.20705,-3.74096 -0.8547,-4.89372 -0.95871,-1.70645 -1.569,-1.8018 -8.36007,-1.30626 -9.53008,0.69543 -12.46008,1.05177 -12.97969,1.57854 -0.24993,0.25337 -0.80878,1.11148 -1.24191,1.90692 l -0.78751,1.44625 0.63403,1.33679 c 0.34872,0.73523 0.63518,1.51704 0.63656,1.73738 10e-4,0.22032 0.0895,0.4888505 0.19584,0.5967105 0.21027,0.21335 0.38739,0.19949 9.44066,-0.7389005 z m -12.85592,-1.39692 c 0.0876,-0.13915 0.0365,-0.25301 -0.11364,-0.25301 -0.15014,0 -0.27297,0.1139 -0.27297,0.25301 0,0.13916 0.0511,0.25301 0.11364,0.25301 0.0625,0 0.18535,-0.1139 0.27297,-0.25301 z"
     id="path2987"
     inkscape:connector-curvature="0" />
  <path
     style="color:#000000;fill:#ffaaaa;fill-opacity:1;fill-rule:nonzero;stroke:#000000;stroke-width:0.18726344;stroke-linecap:round;stroke-linejoin:round;stroke-miterlimit:4;stroke-opacity:1;stroke-dasharray:none;stroke-dashoffset:0;marker:none;visibility:visible;display:inline;overflow:visible;enable-background:accumulate"
     d="M 52.605258,10.041814 C 52.551599,9.8615732 52.250111,9.0820891 51.935283,8.3096274 51.620455,7.5371656 51.354005,6.7726239 51.343171,6.6106455 51.3146,6.1834717 52.926786,3.4347124 53.380963,3.1362325 54.12576,2.6467605 57.35499,2.2410032 65.073961,1.666991 c 7.393942,-0.5498418 8.645374,-0.4024455 9.495206,1.1183646 0.747056,1.3368899 1.270429,4.6084994 0.844421,5.2784771 -0.29791,0.4685179 -1.370637,0.6595336 -4.628092,0.8241033 -3.423636,0.1729654 -6.897408,0.4654239 -13.287577,1.118687 -4.433234,0.453207 -4.7675,0.455612 -4.892661,0.03519 z"
     id="path2986"
     inkscape:connector-curvature="0" />
  <path
     style="color:#000000;fill:#b3b3b3;fill-opacity:1;fill-rule:nonzero;stroke:#000000;stroke-width:0.18726344000000000;stroke-linecap:round;stroke-linejoin:round;stroke-miterlimit:4;stroke-opacity:1;stroke-dasharray:none;stroke-dashoffset:0;marker:none;visibility:visible;display:inline;overflow:visible;enable-background:accumulate"
     d="m 40.167922,86.225048 c 0,-0.185264 0.258459,-0.959379 0.574352,-1.720257 1.101054,-2.652055 2.376748,-8.139276 3.151456,-13.55554 1.30953,-9.155409 1.838827,-18.161375 2.360748,-40.16801 0.34599,-14.588546 0.450037,-15.783117 1.61051,-18.490392 0.384734,-0.897549 1.632918,-2.6703775 1.880116,-2.6703775 0.324416,0 1.323203,2.4845265 1.572232,3.9109985 0.981446,5.62186 0.763325,31.968532 -0.368383,44.496603 -1.015175,11.238047 -3.002601,20.494316 -5.448128,25.374197 -0.885536,1.767026 -1.266427,2.032739 -3.999531,2.790123 -1.271543,0.352362 -1.333372,0.353875 -1.333372,0.03266 z"
     id="path2992"
     inkscape:connector-curvature="0" />
  <path
     style="color:#000000;fill:#b3b3b3;fill-opacity:1;fill-rule:nonzero;stroke:#000000;stroke-width:0.18726344000000000;stroke-linecap:round;stroke-linejoin:round;stroke-miterlimit:4;stroke-opacity:1;stroke-dasharray:none;stroke-dashoffset:0;marker:none;visibility:visible;display:inline;overflow:visible;enable-background:accumulate"
     d="m 102.10531,67.354607 c -0.0698,-3.03249 -0.17933,-4.310905 -0.49436,-5.768529 C 99.614895,52.350384 96.028541,43.368109 86.99367,24.976074 84.23624,19.362852 81.419059,13.610054 80.733267,12.192079 79.488161,9.6176405 78.419081,8.1223639 77.823537,8.1223639 c -0.465778,0 -0.764716,-0.3806597 -0.764716,-0.9737699 0,-0.6524673 0.210365,-0.6559614 1.294392,-0.0215 5.26521,3.081633 7.676054,6.205216 12.985578,16.824622 8.13205,16.26465 13.844069,31.430706 14.940259,39.668117 0.11663,0.876428 0.18381,2.617179 0.14928,3.868331 -0.0555,2.01173 -0.10579,2.306228 -0.43464,2.546357 -0.36512,0.266609 -2.0543,0.839529 -3.21155,1.089263 l -0.5872,0.126716 -0.0896,-3.895893 0,0 z"
     id="path2994"
     inkscape:connector-curvature="0" />
  <path
     style="color:#000000;fill:#b3b3b3;fill-opacity:1;fill-rule:nonzero;stroke:#000000;stroke-width:0.13241525000000001;stroke-linecap:round;stroke-linejoin:round;stroke-miterlimit:4;stroke-opacity:1;stroke-dasharray:none;stroke-dashoffset:0;marker:none;visibility:visible;display:inline;overflow:visible;enable-background:accumulate"
     d="m 38.557411,21.39152 c 0,-0.05556 0.870364,-0.964263 1.934142,-2.019333 2.441075,-2.421093 3.556772,-3.749215 4.865144,-5.791454 0.976558,-1.524311 1.293252,-1.930395 1.084305,-1.39036 -0.04931,0.127449 -0.297878,1.006355 -0.55237,1.953125 -0.259262,0.964517 -0.603166,1.922593 -0.782151,2.178982 -0.430187,0.616225 -1.695926,1.698814 -4.199904,3.592183 -1.9557,1.478792 -2.349166,1.726153 -2.349166,1.476857 z"
     id="path2996"
     inkscape:connector-curvature="0" />
  <path
     style="color:#000000;fill:#b3b3b3;fill-opacity:1;fill-rule:nonzero;stroke:#000000;stroke-width:0.04681586000000000;stroke-linecap:round;stroke-linejoin:round;stroke-miterlimit:4;stroke-opacity:1;stroke-dasharray:none;stroke-dashoffset:0;marker:none;visibility:visible;display:inline;overflow:visible;enable-background:accumulate"
     d="m 70.144442,19.433997 c -0.3072,-0.09985 -0.317146,-0.156143 -0.150734,-0.853142 0.364927,-1.528464 0.700986,-4.284488 0.866728,-7.108055 0.02796,-0.476351 0.06143,-0.952059 0.07438,-1.057128 l 0.02355,-0.191035 1.133605,-0.08057 c 2.583644,-0.183638 3.198641,-0.2038783 3.327686,-0.109519 0.07536,0.05511 0.07779,0.107998 0.03059,0.667127 -0.171129,2.027137 -0.686642,6.058098 -0.911415,7.126628 -0.174356,0.828863 -0.346212,0.985447 -1.340327,1.221216 -1.245481,0.295383 -2.746724,0.484377 -3.054063,0.384481 l 0,0 z"
     id="path2998"
     inkscape:connector-curvature="0" />
  <path
     style="color:#000000;fill:#b3b3b3;fill-opacity:1;fill-rule:nonzero;stroke:#000000;stroke-width:0.04681586000000000;stroke-linecap:round;stroke-linejoin:round;stroke-miterlimit:4;stroke-opacity:1;stroke-dasharray:none;stroke-dashoffset:0;marker:none;visibility:visible;display:inline;overflow:visible;enable-background:accumulate"
     d="m 32.056646,26.790913 c 0.04928,-0.140152 1.790153,-1.450345 2.112799,-1.590106 0.112311,-0.04865 0.128728,-0.04544 0.128623,0.02516 -2.3e-4,0.15494 -0.439905,0.819216 -0.792124,1.196768 -0.269972,0.28939 -0.475088,0.370281 -1.004547,0.396164 -0.32,0.01564 -0.457058,0.007 -0.444751,-0.02798 z"
     id="path3000"
     inkscape:connector-curvature="0" />
  <path
     style="color:#000000;fill:#ffaaaa;fill-opacity:1;fill-rule:nonzero;stroke:#000000;stroke-width:0.18726344000000000;stroke-linecap:round;stroke-linejoin:round;stroke-miterlimit:4;stroke-opacity:1;stroke-dasharray:none;stroke-dashoffset:0;marker:none;visibility:visible;display:inline;overflow:visible;enable-background:accumulate"
     d="M 22.995613,88.299247 C 18.479124,86.617282 10.724754,81.151397 4.9393954,75.571819 2.2148903,72.944221 1.8529455,72.215641 1.5868238,68.823217 1.2177222,64.118043 1.8837111,59.559158 3.8627742,53.243681 c 1.4400473,-4.595399 1.572278,-5.13464 2.060999,-8.404823 0.7487849,-5.01035 1.4707636,-7.354647 2.5088836,-8.14646 1.3119393,-1.000665 3.8676102,-1.454271 6.7161372,-1.192048 3.016697,0.277705 5.222009,1.225305 7.274871,3.125941 2.61526,2.42133 4.295756,5.676458 5.579677,10.807854 0.207172,0.827993 0.843062,4.114466 1.41309,7.303275 1.902262,10.641466 3.163579,15.57616 5.023936,19.655329 l 0.768636,1.685371 0.07855,2.848646 c 0.145701,5.283803 -0.106734,6.064871 -2.034456,6.294862 -0.562098,0.06706 -1.906816,0.382394 -2.988262,0.700736 -2.641952,0.777704 -5.758973,0.93931 -7.269226,0.376883 z"
     id="path3026"
     inkscape:connector-curvature="0" />
  <path
     style="color:#000000;fill:#ffaaaa;fill-opacity:1;fill-rule:nonzero;stroke:#000000;stroke-width:0.18726344000000000;stroke-linecap:round;stroke-linejoin:round;stroke-miterlimit:4;stroke-opacity:1;stroke-dasharray:none;stroke-dashoffset:0;marker:none;visibility:visible;display:inline;overflow:visible;enable-background:accumulate"
     d="m 110.54727,67.170024 c -0.0416,-0.07725 0.20849,-1.44661 0.55584,-3.043031 1.17451,-5.398126 1.20861,-5.82577 0.89442,-11.218944 -0.3902,-6.697966 -0.95038,-12.325356 -1.68871,-16.964205 -0.14754,-0.926954 -0.26858,-1.885294 -0.269,-2.129644 -0.001,-0.846052 0.52016,-0.05723 2.13444,3.227967 2.85334,5.806808 4.65274,10.77044 5.66866,15.636935 0.41776,2.001139 0.49658,2.870524 0.51161,5.642724 0.0172,3.167701 0.001,3.312246 -0.47571,4.329533 -0.97712,2.083901 -2.57778,3.404601 -5.08728,4.197506 -1.50971,0.477007 -2.11369,0.56344 -2.24427,0.321159 z"
     id="path3028"
     inkscape:connector-curvature="0" />
  <path
     style="color:#000000;fill:#ffaaaa;fill-opacity:1;fill-rule:nonzero;stroke:#000000;stroke-width:0.18726344000000000;stroke-linecap:round;stroke-linejoin:round;stroke-miterlimit:4;stroke-opacity:1;stroke-dasharray:none;stroke-dashoffset:0;marker:none;visibility:visible;display:inline;overflow:visible;enable-background:accumulate"
     d="m 107.91675,69.245526 c -0.0687,-0.06866 -0.12484,-1.071512 -0.12484,-2.228551 0,-3.696648 -1.06913,-8.667494 -3.34478,-15.551366 -1.35073,-4.086006 -4.13994,-11.302347 -5.854587,-15.147238 l -1.002133,-2.247162 0.05272,-1.79901 c 0.05836,-1.991402 -0.281188,-4.01208 -0.866364,-5.155772 -0.596327,-1.165489 -1.867354,-2.602863 -3.105344,-3.511763 -0.633632,-0.465196 -1.326229,-1.081393 -1.539104,-1.369326 -0.409038,-0.553264 -1.006861,-1.643705 -1.006861,-1.836535 0,-0.195234 1.713329,0.126072 3.13929,0.588721 1.677758,0.544343 3.50954,1.456829 5.393713,2.686831 0.78986,0.515627 1.78432,1.030289 2.20991,1.143693 2.6416,0.703895 5.7294,4.042602 6.37109,6.888776 1.27395,5.650538 2.53611,17.428739 2.5912,24.180577 0.0255,3.124564 -0.222,4.872546 -1.39007,9.817503 -0.76218,3.226651 -1.08583,3.978637 -1.52384,3.540622 z"
     id="path3030"
     inkscape:connector-curvature="0" />
  <path
     style="color:#000000;fill:#ffaaaa;fill-opacity:1;fill-rule:nonzero;stroke:#000000;stroke-width:0.18726344000000000;stroke-linecap:round;stroke-linejoin:round;stroke-miterlimit:4;stroke-opacity:1;stroke-dasharray:none;stroke-dashoffset:0;marker:none;visibility:visible;display:inline;overflow:visible;enable-background:accumulate"
     d="m 46.556759,84.542473 c 0,-0.100926 0.338018,-1.031944 0.751152,-2.068928 2.322591,-5.82982 3.903325,-13.437117 4.871375,-23.443543 0.442885,-4.577961 0.741835,-9.396079 0.743092,-11.976276 l 0.0013,-2.747614 0.608606,-0.184967 c 1.045475,-0.317741 1.46959,-0.376723 4.260244,-0.592478 3.776211,-0.291952 4.556761,-0.453344 7.685483,-1.589104 4.45155,-1.615962 5.481708,-1.758387 18.999558,-2.626796 2.929656,-0.188206 4.756213,-0.395822 5.711535,-0.649202 0.772462,-0.20488 1.498529,-0.373954 1.613483,-0.375719 0.251315,-0.0039 0.885529,1.389231 3.110272,6.831907 4.274516,10.457296 6.450221,19.024202 6.038981,23.778682 -0.19067,2.204342 -0.40437,2.600093 -1.657153,3.06882 -3.135474,1.17313 -17.268887,4.735196 -29.465842,7.426317 -10.030298,2.213074 -13.802129,3.077772 -19.24596,4.412163 -4.141929,1.015268 -4.026164,0.994084 -4.026164,0.736738 z"
     id="path3032"
     inkscape:connector-curvature="0" />
  <path
     style="color:#000000;fill:#ffaaaa;fill-opacity:1;fill-rule:nonzero;stroke:#000000;stroke-width:0.18726344000000000;stroke-linecap:round;stroke-linejoin:round;stroke-miterlimit:4;stroke-opacity:1;stroke-dasharray:none;stroke-dashoffset:0;marker:none;visibility:visible;display:inline;overflow:visible;enable-background:accumulate"
     d="M 36.162784,87.113581 C 36.752176,85.293738 36.626941,79.324448 35.69052,64.603239 34.99117,53.608961 34.27478,46.130474 33.610287,42.887441 32.287628,36.43225 29.021838,32.844765 23.066743,31.305312 c -0.881808,-0.227956 -1.603286,-0.468327 -1.603286,-0.534158 0,-0.06583 0.91371,-0.260397 2.030466,-0.43237 1.116757,-0.171973 2.41372,-0.42802 2.882139,-0.568994 1.107093,-0.333186 1.996193,-0.131187 2.90515,0.660035 0.386503,0.33644 3.020117,2.844555 5.852476,5.573589 5.607219,5.402666 7.065497,6.687152 8.577442,7.555208 l 0.993269,0.570269 -0.108476,2.180802 C 43.587158,66.58967 42.360618,76.155503 39.89001,83.0113 c -1.147804,3.185093 -2.154266,4.523624 -3.40138,4.523624 -0.395019,0 -0.442445,-0.06133 -0.325846,-0.421343 z"
     id="path3034"
     inkscape:connector-curvature="0" />
  <path
     style="color:#000000;fill:#ffaaaa;fill-opacity:1;fill-rule:nonzero;stroke:#000000;stroke-width:0.18726344000000000;stroke-linecap:round;stroke-linejoin:round;stroke-miterlimit:4;stroke-opacity:1;stroke-dasharray:none;stroke-dashoffset:0;marker:none;visibility:visible;display:inline;overflow:visible;enable-background:accumulate"
     d="M 34.667142,74.941457 C 34.622997,74.812713 34.41314,74.243901 34.200793,73.677429 33.028007,70.548816 31.654015,64.756498 30.365871,57.510606 28.801781,48.71249 28.026878,45.745901 26.503807,42.725353 24.462071,38.676187 21.587862,36.2057 17.588848,35.062621 c -1.784481,-0.510076 -5.387096,-0.561225 -7.408014,-0.105178 -0.6952156,0.156885 -1.2640283,0.215556 -1.2640283,0.130379 0,-0.304094 1.2673493,-1.113644 2.6353813,-1.683413 2.289379,-0.953498 3.933268,-1.299901 6.14914,-1.295757 4.897599,0.0092 8.321095,1.09051 10.803056,3.412262 3.587456,3.355889 4.491779,7.583062 5.77921,27.014339 0.577957,8.723146 0.761539,12.640283 0.592406,12.640283 -0.07073,0 -0.164711,-0.105336 -0.208857,-0.234079 z"
     id="path3036"
     inkscape:connector-curvature="0" />
  <path
     style="color:#000000;fill:#ffaaaa;fill-opacity:1;fill-rule:nonzero;stroke:#000000;stroke-width:0.18726344000000000;stroke-linecap:round;stroke-linejoin:round;stroke-miterlimit:4;stroke-opacity:1;stroke-dasharray:none;stroke-dashoffset:0;marker:none;visibility:visible;display:inline;overflow:visible;enable-background:accumulate"
     d="m 53.504904,42.987895 c -0.08887,-0.137718 -0.18704,-4.401036 -0.218155,-9.474044 l -0.05657,-9.22365 0.431101,-0.16138 c 0.843601,-0.315798 7.376769,-1.597452 19.719236,-3.868449 4.686331,-0.862278 8.500603,-1.420121 8.743354,-1.278727 0.506658,0.295109 9.140305,17.259265 9.140305,17.959681 0,0.957988 -1.368156,1.204552 -9.831331,1.771758 -10.935708,0.732915 -11.602623,0.843199 -17.509133,2.895361 -1.602679,0.556837 -2.399107,0.716423 -4.307059,0.863041 -2.545975,0.195647 -4.917432,0.474973 -5.549953,0.65371 -0.238812,0.06748 -0.465372,0.01212 -0.561791,-0.137301 l 0,0 z"
     id="path3040"
     inkscape:connector-curvature="0" />
  <path
     style="color:#000000;fill:#ff8080;fill-opacity:1;fill-rule:nonzero;stroke:#000000;stroke-width:0.18726344000000000;stroke-linecap:round;stroke-linejoin:round;stroke-miterlimit:4;stroke-opacity:1;stroke-dasharray:none;stroke-dashoffset:0;marker:none;visibility:visible;display:inline;overflow:visible;enable-background:accumulate"
     d="m 95.161217,28.645204 c -1.713346,-3.430426 -2.104028,-4.353153 -1.843119,-4.353153 0.320016,0 2.270927,2.339867 2.723622,3.266634 0.519621,1.063779 0.895496,2.815107 0.797984,3.71808 -0.05671,0.525119 -0.264852,0.198788 -1.678487,-2.631561 z"
     id="path3042"
     inkscape:connector-curvature="0" />
  <path
     style="color:#000000;fill:#ffaaaa;fill-opacity:1;fill-rule:nonzero;stroke:#000000;stroke-width:0.18726344000000000;stroke-linecap:round;stroke-linejoin:round;stroke-miterlimit:4;stroke-opacity:1;stroke-dasharray:none;stroke-dashoffset:0;marker:none;visibility:visible;display:inline;overflow:visible;enable-background:accumulate"
     d="m 42.656841,41.831831 c -0.825318,-0.65261 -3.646066,-3.25015 -6.268329,-5.772309 -5.809395,-5.587627 -6.811937,-6.511773 -7.735752,-7.130834 l -0.720842,-0.483046 1.282632,-0.115209 c 0.705447,-0.06337 2.420257,-0.246568 3.810688,-0.407119 2.120121,-0.244806 4.054205,-0.561088 11.282623,-1.845055 l 0.514975,-0.09147 -0.0011,6.970882 c -0.0012,7.533638 -0.114991,10.060729 -0.452971,10.060729 -0.116227,0 -0.886581,-0.533954 -1.7119,-1.186565 z"
     id="path3044"
     inkscape:connector-curvature="0" />
</svg>
