<?xml version="1.0" encoding="UTF-8" standalone="no"?>
<!-- Created with Inkscape (http://www.inkscape.org/) -->

<svg
   xmlns:dc="http://purl.org/dc/elements/1.1/"
   xmlns:cc="http://creativecommons.org/ns#"
   xmlns:rdf="http://www.w3.org/1999/02/22-rdf-syntax-ns#"
   xmlns:svg="http://www.w3.org/2000/svg"
   xmlns="http://www.w3.org/2000/svg"
   xmlns:sodipodi="http://sodipodi.sourceforge.net/DTD/sodipodi-0.dtd"
   xmlns:inkscape="http://www.inkscape.org/namespaces/inkscape"
   id="svg2"
   version="1.1"
   inkscape:version="0.48.5 r10040"
   width="100"
   height="100"
   sodipodi:docname="trunk1.svg">
  <metadata
     id="metadata8">
    <rdf:RDF>
      <cc:Work
         rdf:about="">
        <dc:format>image/svg+xml</dc:format>
        <dc:type
           rdf:resource="http://purl.org/dc/dcmitype/StillImage" />
        <dc:title />
      </cc:Work>
    </rdf:RDF>
  </metadata>
  <defs
     id="defs6" />
  <sodipodi:namedview
     pagecolor="#aaaaaa"
     bordercolor="#666666"
     borderopacity="1"
     objecttolerance="10"
     gridtolerance="10"
     guidetolerance="10"
     inkscape:pageopacity="0.92941176"
     inkscape:pageshadow="2"
     inkscape:window-width="1680"
     inkscape:window-height="974"
     id="namedview4"
     showgrid="false"
     inkscape:zoom="7.2198855"
     inkscape:cx="64.705294"
     inkscape:cy="49.204772"
     inkscape:window-x="1366"
     inkscape:window-y="24"
     inkscape:window-maximized="1"
     inkscape:current-layer="svg2" />
  <path
     style="fill:#464646;fill-opacity:1"
     d="M 12.361894,93.273117 2.1509564,86.553516 2.0348564,83.672347 C 1.9178849,80.769562 1.7639534,76.511423 0.92845748,53.066836 0.67736454,46.021035 0.34565443,36.920327 0.19132009,32.843003 0.03698718,28.76571 -0.03980427,25.345587 0.02067289,25.242725 0.08114434,25.139802 0.24380011,25.05571 0.3821173,25.05571 c 0.13831433,0 8.4793013,-2.021969 18.5355237,-4.493277 10.056221,-2.471278 18.326563,-4.493247 18.378537,-4.493247 0.05197,0 0.116386,-2.120631 0.143149,-4.712493 L 37.487984,6.6441847 51.39583,3.322092 65.303673,-6.3654569e-7 66.492869,0.49859942 c 1.798151,0.75392318 1.822814,0.79315398 1.843871,2.93306188 0.01,1.0090462 0.07131,2.530031 0.136414,3.3800003 l 0.118371,1.5454002 4.837438,-1.1931078 4.837436,-1.1931232 10.25908,3.7864311 10.259089,3.7864461 0.121572,0.736939 c 0.06686,0.405323 0.212671,6.802816 0.323943,14.216694 0.221371,14.751986 0.481571,29.70788 0.6572,37.777635 l 0.112714,5.177631 -5.518287,2.026262 c -4.883616,1.793216 -42.114398,15.449771 -63.541883,23.307664 -4.301747,1.577554 -7.848641,2.947493 -7.881988,3.044369 -0.03334,0.09692 -0.156124,0.172888 -0.272837,0.168954 -0.116715,-0.0046 -4.80713,-3.030954 -10.423144,-6.726739 z m 9.937779,4.965278 C 22.29931,97.837425 22.193302,94.802733 21.482597,74.8639 21.332663,70.657438 21.006154,61.451068 20.757023,54.405252 20.50789,47.359451 20.25038,40.249912 20.184781,38.606265 l -0.119272,-2.988446 -5.17291,-2.524847 c -2.845099,-1.388677 -5.2062658,-2.4898 -5.2470358,-2.446938 -0.063786,0.06708 0.2418601,8.902985 1.0136558,29.304095 0.352039,9.305524 0.711982,19.29831 0.912549,25.334295 0.110072,3.312585 0.23684,6.194955 0.281704,6.405278 0.05476,0.256707 1.740218,1.465477 5.127631,3.677431 2.775329,1.812262 5.107444,3.296462 5.182474,3.298231 0.07503,0.0015 0.136272,-0.190369 0.1361,-0.426969 z m 9.910663,-2.775908 8.728049,-3.203124 -0.04754,-1.432046 C 39.34304,44.211312 38.865211,30.741741 38.755227,30.626141 c -0.0879,-0.09231 -17.431119,4.561293 -17.735274,4.758909 -0.128558,0.08354 -0.127858,1.707507 0.0023,5.173323 0.169283,4.509293 0.431799,11.864032 1.371209,38.416389 0.150683,4.259031 0.354182,9.851678 0.452222,12.42814 0.09804,2.576461 0.17908,5.265246 0.180089,5.975077 0.0013,0.904785 0.0698,1.29017 0.229197,1.289123 0.125057,-7.69e-4 4.154985,-1.442877 8.955411,-3.204615 z m 11.749729,-4.263155 c 1.142261,-0.427461 2.134346,-0.836369 2.204633,-0.908707 0.07029,-0.07246 0.05101,-2.970647 -0.04283,-6.440709 C 45.912324,76.101254 45.489701,59.252129 45.133929,44.462727 44.868626,33.434219 44.72194,29.250157 44.595952,29.117726 c -0.07246,-0.07615 -4.866293,1.261508 -4.991125,1.392738 -0.08171,0.08585 0.140229,6.932355 1.522457,46.964728 0.249293,7.220094 0.45326,13.436571 0.45326,13.814371 0,0.377831 0.0681,0.686939 0.151338,0.686939 0.08324,0 1.085916,-0.349723 2.228178,-0.77717 z M 11.105238,90.016686 C 11.053152,89.254255 10.891165,85.188824 10.745264,80.982377 10.487958,73.564054 9.6278617,50.00062 9.1344244,36.851465 8.9739815,32.575942 8.8214301,30.313372 8.6838457,30.168757 8.5694457,30.048449 6.7775008,29.122018 4.7017573,28.109941 l -3.77407982,-1.840169 -0.0565857,1.2572 c -0.0311286,0.691431 0.11481433,5.989431 0.32430436,11.773293 0.2094944,5.783878 0.5805845,16.065787 0.8246474,22.84868 0.244063,6.782908 0.5372216,14.913786 0.6514645,18.068617 0.1142429,3.154846 0.2636858,5.800462 0.3320973,5.879154 0.1890958,0.217554 7.9086457,5.291739 8.0622367,5.299463 0.07376,0.0031 0.09149,-0.617062 0.0394,-1.379493 z m 54.091554,-6.662308 15.340155,-5.62037 -0.111986,-2.295462 C 80.363375,74.176054 80.193264,69.271238 80.046941,64.538976 79.679405,52.652328 79.274183,39.867142 78.95612,30.122557 78.808526,25.600618 78.687486,21.44914 78.687145,20.897048 c -3.65e-4,-0.686492 -0.07404,-1.003815 -0.232865,-1.003815 -0.297484,0 -32.900056,8.760954 -33.002219,8.868354 -0.0421,0.04431 0.01257,3.423031 0.121543,7.508401 0.388418,14.565125 0.722454,27.882126 1.016024,40.505943 0.163853,7.045801 0.328669,12.917078 0.366257,13.047278 0.04959,0.171754 0.457108,0.08769 1.484547,-0.305877 0.778911,-0.298431 8.319271,-3.071769 16.756357,-6.162954 z M 85.520007,71.709069 c -0.0645,-2.26097 -0.233822,-9.273309 -0.376262,-15.583002 -0.637804,-28.252618 -0.859876,-37.669435 -0.889197,-37.704588 -0.01729,-0.02077 -1.133971,0.239523 -2.481447,0.578384 l -2.449952,0.616154 0.05004,1.907231 c 0.05494,2.094046 0.478439,15.635156 0.771242,24.66031 0.102357,3.154847 0.304773,9.392801 0.449823,13.862171 0.145051,4.469354 0.313753,10.105047 0.374891,12.523755 0.06114,2.418693 0.140843,4.499416 0.177114,4.623801 0.04502,0.154338 0.768448,-0.02785 2.278474,-0.573616 L 85.637271,75.819915 85.52,71.709069 z m 7.093231,1.596769 c 3.347258,-1.225015 6.196016,-2.322046 6.330559,-2.437846 0.204929,-0.176354 0.204943,-2.461185 1e-4,-14.072709 C 98.809468,49.171097 98.590025,36.588496 98.456411,28.833957 98.32284,21.079433 98.17594,14.695401 98.130125,14.647216 c -0.04586,-0.04815 -3.021986,0.70397 -6.613716,1.671385 l -6.53042,1.75897 0.03486,3.154462 c 0.01917,1.734954 0.07908,4.488092 0.133157,6.118093 0.105728,3.187954 0.498439,20.612786 0.81011,35.94605 0.187713,9.234216 0.305016,12.236939 0.478049,12.236939 0.04684,0 2.823816,-1.002292 6.171075,-2.227277 z M 29.075471,32.295542 c 4.776939,-1.284047 8.682579,-2.384308 8.679197,-2.445001 -0.0073,-0.130769 -9.238214,-4.710985 -9.419109,-4.6736 -1.141876,0.235908 -17.803338,4.55477 -17.892223,4.637893 -0.139171,0.130153 9.244179,4.792031 9.673952,4.806277 0.15006,0.0046 4.181243,-1.041539 8.958183,-2.325569 z m 15.013298,-3.887693 c 0.02897,-0.02923 -4.03525,-2.001323 -9.031605,-4.382462 l -9.084281,-4.329339 -2.200514,0.518938 c -1.210282,0.285416 -2.138996,0.583554 -2.063809,0.662508 0.07519,0.07892 4.06557,2.112754 8.86752,4.519524 l 8.730819,4.375985 2.364596,-0.656016 c 1.300528,-0.360815 2.388301,-0.679923 2.417274,-0.709138 z M 18.136043,27.057926 c 4.741167,-1.212308 8.765049,-2.266308 8.941956,-2.342216 0.23347,-0.100154 -0.651373,-0.620877 -3.227501,-1.899262 l -3.549157,-1.761246 -8.959263,2.192723 c -4.9275959,1.206 -9.1031844,2.256677 -9.2790873,2.334862 -0.2334358,0.103846 0.6509059,0.617846 3.2740568,1.903354 1.9766335,0.968662 3.7254626,1.764554 3.8862855,1.768616 0.1608244,0.0046 4.171543,-0.984508 8.91271,-2.196831 z M 61.28381,23.591002 C 70.105,21.207987 77.378671,19.20754 77.447528,19.14554 c 0.132529,-0.119384 -8.451051,-4.308124 -8.70654,-4.248816 -0.08221,0.01908 -0.14947,0.414846 -0.14947,0.879477 0,0.464616 -0.08186,0.929677 -0.181893,1.033477 -0.319673,0.331662 -3.926288,1.204631 -4.155674,1.005847 -0.115357,-0.1 -0.759914,-0.412893 -1.432356,-0.6954 l -1.22262,-0.513662 -8.235766,2.121846 c -4.529671,1.167016 -8.297154,2.121647 -8.372184,2.121385 -0.07503,-1.69e-4 -0.136414,0.508293 -0.136414,1.130093 l 0,1.130538 -1.96812,0.494677 c -1.082466,0.272077 -2.098355,0.494693 -2.257532,0.494693 -0.159177,0 -0.943266,-0.294201 -1.742422,-0.653754 -1.326722,-0.596924 -1.521779,-0.63617 -2.244295,-0.451585 -0.435209,0.111077 -0.856982,0.263631 -0.937276,0.338754 -0.144341,0.135077 8.83453,4.555985 9.29951,4.578816 0.132443,0.0062 7.458151,-1.937924 16.279339,-4.320924 z M 40.004123,15.908186 39.884366,8.6073387 38.911441,8.0534156 37.938517,7.4994925 l 0.04757,7.4564625 0.04757,7.456462 1.000407,0.444785 c 0.550223,0.244646 1.020525,0.423892 1.045113,0.398323 0.02459,-0.02554 -0.0091,-3.331877 -0.07504,-7.347339 z m 2.247234,7.13097 c 0.681483,-0.162631 1.382299,-0.340523 1.557369,-0.395277 0.292934,-0.09154 0.318533,-0.513939 0.321096,-5.296954 0.0014,-2.85857 0.06291,-5.293571 0.136414,-5.411124 0.175139,-0.280123 19.784642,-5.3104317 20.141055,-5.1666624 0.233953,0.094308 0.273543,0.8445539 0.273543,5.1832004 0,5.805478 -0.207926,5.291463 1.909867,4.721416 l 1.273244,-0.342723 -0.07026,-6.5454931 C 67.755045,6.1855385 67.673202,3.0018305 67.611795,2.7106766 L 67.500152,2.1812765 54.131088,5.4568153 40.762021,8.7323695 l -0.0549,6.1062315 c -0.04853,5.397616 0.039,8.496278 0.239985,8.496278 0.03586,0 0.622758,-0.133077 1.304241,-0.295723 z m -4.854326,-3.580323 c 0,-2.435755 -0.0258,-2.642339 -0.31831,-2.548647 -0.175072,0.056 -2.443467,0.625169 -5.04088,1.264662 -2.597413,0.639492 -4.758581,1.200584 -4.802595,1.246846 -0.04401,0.04631 0.19856,0.207369 0.539052,0.357985 0.340493,0.150615 1.956222,0.912754 3.590509,1.6936 l 2.971433,1.419723 1.530396,-0.3918 1.530395,-0.391769 0,-2.6506 z m 16.022894,-1.477631 c 4.502844,-1.15677 8.223811,-2.103201 8.268815,-2.103201 0.045,0 0.08183,-0.986462 0.08183,-2.192108 0,-2.043046 -0.02643,-2.206969 -0.388582,-2.410708 -0.319967,-0.180015 -1.813423,0.130769 -8.45798,1.760154 l -8.069399,1.978739 0,2.535185 c 0,1.627616 0.06771,2.53517 0.189164,2.53517 0.104043,0 3.87331,-0.946447 8.376156,-2.103231 z m 27.963688,0.395184 c 1.133247,-0.303846 2.091963,-0.585569 2.130452,-0.626031 0.05251,-0.05523 -13.946435,-6.658139 -14.847032,-7.002954 -0.09227,-0.03523 -0.16646,0.6508 -0.16646,1.539492 l 0,1.603231 5.229396,2.520585 c 2.876168,1.386323 5.311247,2.520031 5.411287,2.519354 0.100043,-7.54e-4 1.109102,-0.249815 2.242357,-0.553677 z m 9.515581,-2.817277 c 3.393573,-0.911508 6.106131,-1.716031 6.027859,-1.787831 -0.07828,-0.07169 -2.333186,-0.931646 -5.010958,-1.9108 l -4.868668,-1.780262 -5.499169,1.397415 c -3.024541,0.76857 -5.616569,1.46157 -5.760059,1.539985 -0.18328,0.100154 0.0061,0.264231 0.636622,0.551508 0.493633,0.224908 2.411766,1.129415 4.262518,2.00997 1.850748,0.880584 3.517262,1.6092 3.703336,1.619169 0.186094,0.01077 3.11492,-0.727646 6.508519,-1.639154 z m -26.863529,-3.36177 c -0.07093,-2.550154 -0.154924,-4.6678004 -0.186673,-4.7058773 -0.03176,-0.038154 -0.41007,0.047846 -0.840713,0.1912154 -0.543377,0.1807231 -0.778344,0.3628154 -0.767826,0.5950155 0.0083,0.1840308 0.0288,2.0398154 0.04547,4.1239694 l 0.03031,3.789339 0.591149,0.309277 c 0.325133,0.170108 0.741016,0.31477 0.924184,0.321493 0.317368,0.01231 0.326971,-0.205939 0.204091,-4.624432 z m -10.883387,-0.04769 c 4.483924,-1.1042 8.216445,-2.007631 8.294494,-2.007631 0.07804,0 0.1419,-0.4790002 0.1419,-1.0644926 0,-0.9257232 -0.04149,-1.0510155 -0.318312,-0.9610616 -0.175071,0.056923 -3.869327,1.0111693 -8.209457,2.1206152 -4.340131,1.109462 -7.962058,2.063262 -8.048724,2.11957 -0.152033,0.09877 -0.232401,1.800631 -0.08503,1.800631 0.0399,0 3.741206,-0.903431 8.225129,-2.007631 z M 80.292615,11.07997 c 2.934188,-0.751462 5.266953,-1.4296773 5.18392,-1.507185 -0.211977,-0.1978769 -6.954089,-2.6812003 -7.279348,-2.6812003 -0.230441,0 -6.691381,1.5463233 -8.923574,2.1357079 -1.384819,0.3656462 -1.059163,0.709477 2.091759,2.2084314 1.575639,0.749554 3.028503,1.328554 3.228584,1.286677 0.20008,-0.04185 2.764478,-0.690985 5.698659,-1.442431 z M 53.585423,4.8735845 C 60.738329,3.1305997 66.713482,1.6566149 66.863543,1.5980919 67.040902,1.5288611 66.816529,1.3403841 66.222379,1.0593687 l -0.914,-0.43229234 -13.319052,3.17810804 c -7.325477,1.747954 -13.319051,3.2414465 -13.319051,3.3188773 0,0.1830154 1.282883,0.8947385 1.637029,0.9082155 0.15006,0.00615 6.125215,-1.4157079 13.278118,-3.1586927 z"
     id="path2987"
     inkscape:connector-curvature="0" />
  <path
     style="color:#000000;fill:#ffffff;fill-opacity:1;fill-rule:nonzero;stroke:#000000;stroke-width:0.03629854;stroke-linecap:round;stroke-linejoin:round;stroke-miterlimit:4;stroke-opacity:1;stroke-dasharray:none;stroke-dashoffset:0;marker:none;visibility:visible;display:inline;overflow:visible;enable-background:accumulate"
     d="m 35.366969,27.812749 c -9.278259,-4.650993 -13.676458,-6.883961 -13.676458,-6.94355 0,-0.05343 0.352219,-0.190545 0.917686,-0.357223 0.773681,-0.22805 3.276213,-0.819323 3.384627,-0.799687 0.1288,0.02334 14.109631,6.702649 16.597131,7.929254 1.381097,0.681027 1.486572,0.735009 1.486572,0.760807 0,0.04394 -1.371993,0.445703 -3.900064,1.142077 l -0.874453,0.240874 -3.935041,-1.972552 z"
     id="path3975"
     inkscape:connector-curvature="0" />
  <path
     style="color:#000000;fill:#ffffff;fill-opacity:1;fill-rule:nonzero;stroke:#000000;stroke-width:0.07259707;stroke-linecap:round;stroke-linejoin:round;stroke-miterlimit:4;stroke-opacity:1;stroke-dasharray:none;stroke-dashoffset:0;marker:none;visibility:visible;display:inline;overflow:visible;enable-background:accumulate"
     d="m 19.937487,34.596025 c -1.567425,-0.61472 -9.334771,-4.517096 -9.474088,-4.759856 -0.01711,-0.02981 0.321053,-0.148471 0.751471,-0.263689 3.881391,-1.039 12.964508,-3.391271 15.889703,-4.114984 l 1.255781,-0.310689 0.458148,0.206409 c 1.456627,0.656248 6.64963,3.230428 8.153343,4.041625 0.76836,0.414502 0.824659,0.45882 0.664585,0.523154 -0.865462,0.347832 -17.278866,4.765958 -17.553936,4.725131 -0.02204,-0.0032 -0.0873,-0.02446 -0.145007,-0.04711 z"
     id="path3977"
     inkscape:connector-curvature="0" />
  <path
     style="color:#000000;fill:#ffffff;fill-opacity:1;fill-rule:nonzero;stroke:#000000;stroke-width:0.07259707;stroke-linecap:round;stroke-linejoin:round;stroke-miterlimit:4;stroke-opacity:1;stroke-dasharray:none;stroke-dashoffset:0;marker:none;visibility:visible;display:inline;overflow:visible;enable-background:accumulate"
     d="M 8.5346095,29.008449 C 8.169088,28.850898 7.2089377,28.406626 6.4009425,28.02118 3.6116556,26.690573 2.028674,25.830833 2.028674,25.646536 c 0,-0.118169 3.2071643,-0.934461 15.20572,-3.870171 l 3.068303,-0.750726 2.423266,1.205415 c 3.622613,1.802013 4.643139,2.391678 4.339099,2.507151 -0.561679,0.213327 -13.404322,3.505367 -16.359111,4.193441 -0.7132886,0.166101 -1.3441082,0.315786 -1.4018222,0.332632 -0.057714,0.01685 -0.4039976,-0.09828 -0.7695193,-0.255829 l 0,0 z"
     id="path3979"
     inkscape:connector-curvature="0" />
  <path
     style="color:#000000;fill:#ffffff;fill-opacity:1;fill-rule:nonzero;stroke:#000000;stroke-width:0.10266776;stroke-linecap:round;stroke-linejoin:round;stroke-miterlimit:4;stroke-opacity:1;stroke-dasharray:none;stroke-dashoffset:0;marker:none;visibility:visible;display:inline;overflow:visible;enable-background:accumulate"
     d="m 21.86048,98.533305 c -0.108829,-0.076 -1.088265,-0.703629 -2.176529,-1.394724 -2.980463,-1.892722 -7.000857,-4.613552 -7.459802,-5.048472 L 11.817535,91.70478 11.718203,89.733728 C 11.66357,88.649649 11.39602,81.52989 11.123647,73.912038 10.851273,66.294188 10.428607,54.643672 10.184388,48.022002 9.9401691,41.400332 9.7110746,34.769288 9.675289,33.286348 l -0.065064,-2.696254 0.436472,0.183395 c 1.067866,0.448691 9.877668,4.698887 9.997894,4.823378 0.06899,0.07145 0.153603,2.227014 0.82645,21.055148 0.982243,27.485847 1.441326,40.939355 1.413983,41.436993 -0.03119,0.567505 -0.118014,0.658374 -0.424544,0.444297 l 0,0 z"
     id="path3981"
     inkscape:connector-curvature="0" />
  <path
     style="color:#000000;fill:#ffffff;fill-opacity:1;fill-rule:nonzero;stroke:#000000;stroke-width:0.10266776;stroke-linecap:round;stroke-linejoin:round;stroke-miterlimit:4;stroke-opacity:1;stroke-dasharray:none;stroke-dashoffset:0;marker:none;visibility:visible;display:inline;overflow:visible;enable-background:accumulate"
     d="M 9.7411699,90.605232 C 8.5416064,89.848731 5.2528712,87.68466 3.6310383,86.58461 3.2904002,86.353563 2.9923913,86.092609 2.9687963,86.00471 2.8329032,85.498469 2.7339065,83.041905 1.7773269,56.438927 0.85266288,30.723535 0.72693591,26.426113 0.89598604,26.314173 c 0.13511746,-0.08948 7.47370726,3.542838 7.78198956,3.851773 0.2443885,0.244906 0.3575001,2.753806 1.3117857,29.09638 0.4065167,11.22168 0.8311327,22.704392 0.9435927,25.517136 0.112459,2.812745 0.190733,5.463727 0.173942,5.891072 l -0.03053,0.776989 -1.3355971,-0.842291 z"
     id="path3983"
     inkscape:connector-curvature="0" />
  <path
     style="color:#000000;fill:#ffffff;fill-opacity:1;fill-rule:nonzero;stroke:#000000;stroke-width:0.10266776;stroke-linecap:round;stroke-linejoin:round;stroke-miterlimit:4;stroke-opacity:1;stroke-dasharray:none;stroke-dashoffset:0;marker:none;visibility:visible;display:inline;overflow:visible;enable-background:accumulate"
     d="m 44.924792,19.814646 c -0.08819,-0.354358 -0.07523,-4.874358 0.014,-4.874358 0.04197,0 1.544523,-0.361944 3.338994,-0.80432 5.00247,-1.233217 11.219955,-2.696734 12.039508,-2.833948 0.886899,-0.148489 1.238276,-0.07343 1.367313,0.292064 0.148379,0.420287 0.123743,4.149442 -0.02823,4.273022 -0.06801,0.05531 -0.746946,0.256757 -1.508731,0.447662 -0.761786,0.190904 -4.406978,1.110412 -8.100428,2.043351 -3.693451,0.932938 -6.793522,1.69625 -6.889048,1.69625 -0.09649,0 -0.200199,-0.106553 -0.233339,-0.239723 z"
     id="path3985"
     inkscape:connector-curvature="0" />
  <path
     style="color:#000000;fill:#ffffff;fill-opacity:1;fill-rule:nonzero;stroke:#000000;stroke-width:0.10266776;stroke-linecap:round;stroke-linejoin:round;stroke-miterlimit:4;stroke-opacity:1;stroke-dasharray:none;stroke-dashoffset:0;marker:none;visibility:visible;display:inline;overflow:visible;enable-background:accumulate"
     d="M 39.414986,7.6986383 C 38.408643,7.1388614 38.4161,7.1298734 40.292485,6.6410172 42.555943,6.051316 51.063353,3.9861866 58.762542,2.1575064 c 3.482447,-0.8271366 6.379694,-1.52096172 6.438327,-1.5418337 0.148888,-0.0530014 1.723659,0.756896 1.723659,0.8864702 0,0.139119 0.566741,-0.010455 -7.073721,1.8668925 -13.690803,3.3639861 -19.118898,4.6493525 -19.598108,4.6408093 -0.1581,-0.00282 -0.53507,-0.1428616 -0.837713,-0.3112064 z"
     id="path3987"
     inkscape:connector-curvature="0" />
  <path
     style="color:#000000;fill:#ffffff;fill-opacity:1;fill-rule:nonzero;stroke:#000000;stroke-width:0.10266776;stroke-linecap:round;stroke-linejoin:round;stroke-miterlimit:4;stroke-opacity:1;stroke-dasharray:none;stroke-dashoffset:0;marker:none;visibility:visible;display:inline;overflow:visible;enable-background:accumulate"
     d="m 40.841703,23.232668 c -0.04674,-0.078 -0.09873,-3.378068 -0.115514,-7.33349 l -0.03053,-7.1916768 13.37863,-3.2758076 c 7.358248,-1.801694 13.400761,-3.2519761 13.427807,-3.2228489 0.02704,0.029128 0.08484,0.3285999 0.128429,0.6654951 0.110942,0.8575072 0.309295,13.3614322 0.213391,13.4521002 -0.04314,0.04078 -0.626844,0.222614 -1.297106,0.404049 -1.424599,0.385632 -1.632008,0.354748 -1.792301,-0.266885 -0.06324,-0.245284 -0.1091,-1.935941 -0.116443,-4.293443 -0.0067,-2.138858 -0.0403,-4.2004725 -0.07476,-4.5813651 l -0.06264,-0.6925318 -0.4452,0.015643 c -1.082126,0.038022 -19.67288,4.8048539 -19.796845,5.0760839 -0.0056,0.01229 -0.04077,2.323691 -0.0781,5.136435 -0.0471,3.548322 -0.102943,5.182104 -0.182408,5.336255 -0.0916,0.177698 -0.368086,0.281069 -1.381165,0.516384 -0.696652,0.161817 -1.361952,0.317434 -1.478445,0.345814 -0.1165,0.02839 -0.250054,-0.01215 -0.2968,-0.09022 l 0,0 z"
     id="path3989"
     inkscape:connector-curvature="0" />
  <path
     style="color:#000000;fill:#ffffff;fill-opacity:1;fill-rule:nonzero;stroke:#000000;stroke-width:0.10266776;stroke-linecap:round;stroke-linejoin:round;stroke-miterlimit:4;stroke-opacity:1;stroke-dasharray:none;stroke-dashoffset:0;marker:none;visibility:visible;display:inline;overflow:visible;enable-background:accumulate"
     d="m 38.966166,22.865321 -0.900148,-0.376324 -0.06446,-1.447246 c -0.03544,-0.795985 -0.06446,-4.17565 -0.06446,-7.510366 l 0,-6.0631188 0.976616,0.5500105 0.976616,0.5500107 0.06137,2.5733756 c 0.03376,1.415357 0.08994,4.718894 0.124872,7.341192 0.05359,4.022984 0.04211,4.76711 -0.0734,4.763301 -0.07529,-0.0025 -0.541957,-0.173859 -1.037038,-0.380835 l 0,0 z"
     id="path3991"
     inkscape:connector-curvature="0" />
  <path
     style="color:#000000;fill:#ffffff;fill-opacity:1;fill-rule:nonzero;stroke:#000000;stroke-width:0.10266776;stroke-linecap:round;stroke-linejoin:round;stroke-miterlimit:4;stroke-opacity:1;stroke-dasharray:none;stroke-dashoffset:0;marker:none;visibility:visible;display:inline;overflow:visible;enable-background:accumulate"
     d="M 73.732927,12.274627 C 72.150468,11.698866 69.107129,10.206473 68.71673,9.8147832 68.4622,9.5594115 68.448931,9.3344397 68.680591,9.202027 68.888261,9.0833254 73.286374,7.9748984 76.148749,7.319876 l 2.051571,-0.4694785 0.97792,0.3128657 c 1.000834,0.3201954 5.255118,1.8999553 5.909385,2.1943542 0.246326,0.1108385 0.331019,0.1984482 0.26283,0.2718822 -0.175777,0.1892993 -4.015861,1.2415344 -10.210123,2.7977134 -0.561902,0.141166 -0.616226,0.135277 -1.407405,-0.152586 l 0,0 z"
     id="path3993"
     inkscape:connector-curvature="0" />
  <path
     style="color:#000000;fill:#ffffff;fill-opacity:1;fill-rule:nonzero;stroke:#000000;stroke-width:0.10266776;stroke-linecap:round;stroke-linejoin:round;stroke-miterlimit:4;stroke-opacity:1;stroke-dasharray:none;stroke-dashoffset:0;marker:none;visibility:visible;display:inline;overflow:visible;enable-background:accumulate"
     d="m 83.693695,16.969551 c -0.576335,-0.224373 -3.931537,-1.772468 -6.282254,-2.898642 -0.985691,-0.472222 -1.632397,-0.841044 -1.632397,-0.930972 0,-0.194819 0.30997,-0.284659 6.282255,-1.820818 l 4.996123,-1.285076 4.155192,1.537749 c 4.817192,1.782742 5.688657,2.12001 5.688657,2.201587 0,0.248716 -11.677634,3.424684 -12.48863,3.396535 -0.123357,-0.0043 -0.446879,-0.09445 -0.718946,-0.200363 z"
     id="path3995"
     inkscape:connector-curvature="0" />
  <path
     style="color:#000000;fill:#ffffff;fill-opacity:1;fill-rule:nonzero;stroke:#000000;stroke-width:0.10266776;stroke-linecap:round;stroke-linejoin:round;stroke-miterlimit:4;stroke-opacity:1;stroke-dasharray:none;stroke-dashoffset:0;marker:none;visibility:visible;display:inline;overflow:visible;enable-background:accumulate"
     d="m 77.014,17.997566 c -1.168945,-0.544492 -3.561121,-1.680725 -5.315949,-2.524959 l -3.190594,-1.534971 0,-1.526342 c 0,-1.22883 0.02771,-1.537795 0.142186,-1.585101 0.209277,-0.08648 15.002815,6.81163 14.877252,6.937149 -0.05617,0.05615 -2.188188,0.666013 -3.147463,0.90033 -0.516926,0.126262 -1.007413,0.250796 -1.089972,0.27673 -0.08256,0.02594 -1.106517,-0.398342 -2.275463,-0.942836 l 0,0 z"
     id="path3997"
     inkscape:connector-curvature="0" />
  <path
     style="color:#000000;fill:#ffffff;fill-opacity:1;fill-rule:nonzero;stroke:#000000;stroke-width:0.10266776;stroke-linecap:round;stroke-linejoin:round;stroke-miterlimit:4;stroke-opacity:1;stroke-dasharray:none;stroke-dashoffset:0;marker:none;visibility:visible;display:inline;overflow:visible;enable-background:accumulate"
     d="M 81.13114,77.148309 C 81.078745,76.97 81.028074,75.561657 80.773198,67.199807 80.664244,63.625277 80.420692,55.858266 80.231971,49.939782 79.429418,24.770901 79.283485,19.700645 79.35939,19.623246 c 0.0441,-0.04497 0.992838,-0.30278 2.10831,-0.572923 1.11547,-0.270141 2.198008,-0.534001 2.405636,-0.586357 0.268229,-0.06763 0.38681,-0.0594 0.409646,0.02843 0.01767,0.068 0.195834,7.291335 0.395906,16.051862 0.200073,8.760528 0.493572,21.226102 0.65222,27.701273 0.15865,6.475173 0.289202,12.190863 0.290119,12.701532 l 0.0017,0.928488 -1.849739,0.64512 c -2.103521,0.733631 -2.577759,0.84629 -2.642012,0.62763 z"
     id="path3999"
     inkscape:connector-curvature="0" />
  <path
     style="color:#000000;fill:#ffffff;fill-opacity:1;fill-rule:nonzero;stroke:#000000;stroke-width:0.10266776;stroke-linecap:round;stroke-linejoin:round;stroke-miterlimit:4;stroke-opacity:1;stroke-dasharray:none;stroke-dashoffset:0;marker:none;visibility:visible;display:inline;overflow:visible;enable-background:accumulate"
     d="M 86.370189,75.430281 C 86.213253,74.879657 86.066326,69.94603 85.722115,53.668801 85.553858,45.712174 85.294634,34.340082 84.972564,20.786283 l -0.06489,-2.730746 5.427932,-1.448263 c 5.197832,-1.386869 7.747957,-2.028252 7.806664,-1.963459 0.07361,0.08124 0.26621,9.174456 0.589619,27.837932 0.416995,24.064297 0.44989,28.120505 0.22985,28.342342 -0.162199,0.163523 -1.223839,0.602138 -3.7918,1.566577 -1.952128,0.733154 -8.663634,3.172795 -8.728427,3.172795 -0.01836,0 -0.05044,-0.05994 -0.07133,-0.133184 z"
     id="path4001"
     inkscape:connector-curvature="0" />
  <path
     style="color:#000000;fill:#ffffff;fill-opacity:1;fill-rule:nonzero;stroke:#000000;stroke-width:0.10266776;stroke-linecap:round;stroke-linejoin:round;stroke-miterlimit:4;stroke-opacity:1;stroke-dasharray:none;stroke-dashoffset:0;marker:none;visibility:visible;display:inline;overflow:visible;enable-background:accumulate"
     d="M 47.005543,89.866908 C 46.980743,89.822954 46.9318,89.427417 46.8968,88.987924 46.8146,87.95581 45.568328,38.360427 45.486974,32.883629 l -0.06186,-4.164406 1.425259,-0.390825 C 51.57565,27.032663 71.082535,21.7821 74.44345,20.90132 c 3.160341,-0.828215 4.032572,-1.022532 4.128822,-0.91982 0.08883,0.0948 0.163454,1.506597 0.274287,5.188992 0.65142,21.643396 1.57984,50.079993 1.687085,51.673807 l 0.0611,0.907935 -5.771571,2.112985 c -3.174365,1.162143 -10.334863,3.791683 -15.912219,5.843424 -12.27213,4.514545 -11.797817,4.348878 -11.9054,4.158265 z"
     id="path4003"
     inkscape:connector-curvature="0" />
  <path
     style="color:#000000;fill:#ffffff;fill-opacity:1;fill-rule:nonzero;stroke:#000000;stroke-width:0.10266776;stroke-linecap:round;stroke-linejoin:round;stroke-miterlimit:4;stroke-opacity:1;stroke-dasharray:none;stroke-dashoffset:0;marker:none;visibility:visible;display:inline;overflow:visible;enable-background:accumulate"
     d="M 41.558862,91.305243 C 41.528871,90.939 41.434751,88.385955 41.349707,85.631809 41.264661,82.877662 40.908182,72.162064 40.557531,61.819368 39.662033,35.40611 39.625692,34.274045 39.610149,32.306855 l -0.01386,-1.757964 0.251243,-0.135154 c 0.304127,-0.163594 3.758772,-1.156474 4.363867,-1.254193 l 0.431194,-0.06963 0.05853,0.729487 c 0.09056,1.128894 0.154983,2.942019 0.313608,8.826783 0.240699,8.929538 1.123227,44.481967 1.196054,48.182756 l 0.06758,3.434543 -0.554513,0.264095 c -0.616786,0.293756 -3.792094,1.443559 -3.986544,1.443559 -0.0802,0 -0.143117,-0.234838 -0.178416,-0.665895 z"
     id="path4005"
     inkscape:connector-curvature="0" />
  <path
     style="color:#000000;fill:#ffffff;fill-opacity:1;fill-rule:nonzero;stroke:#000000;stroke-width:0.10266776;stroke-linecap:round;stroke-linejoin:round;stroke-miterlimit:4;stroke-opacity:1;stroke-dasharray:none;stroke-dashoffset:0;marker:none;visibility:visible;display:inline;overflow:visible;enable-background:accumulate"
     d="m 23.112052,98.496919 c -0.05004,-0.102554 -0.1424,-1.864508 -0.205249,-3.915468 -0.06284,-2.05096 -0.179415,-5.478993 -0.259046,-7.61785 -0.64102,-17.217822 -1.644239,-45.998989 -1.687902,-48.423959 -0.02954,-1.640768 -0.01707,-3.035031 0.02773,-3.098365 0.106372,-0.150415 2.682544,-0.885311 9.480086,-2.704377 5.733806,-1.534403 8.25755,-2.177582 8.30585,-2.116751 0.04374,0.05509 0.234673,4.202885 0.406239,8.825112 0.264337,7.121613 1.799586,52.790405 1.775706,52.821624 -0.06897,0.09017 -17.479284,6.416485 -17.65846,6.416485 -0.05167,0 -0.1349,-0.08391 -0.184946,-0.186451 z"
     id="path4007"
     inkscape:connector-curvature="0" />
  <path
     style="color:#000000;fill:#ffffff;fill-opacity:1;fill-rule:nonzero;stroke:#000000;stroke-width:0.10266776;stroke-linecap:round;stroke-linejoin:round;stroke-miterlimit:4;stroke-opacity:1;stroke-dasharray:none;stroke-dashoffset:0;marker:none;visibility:visible;display:inline;overflow:visible;enable-background:accumulate"
     d="m 43.972037,27.52117 c -2.16166,-0.951417 -7.697958,-3.716069 -8.097855,-4.043816 l -0.232672,-0.190692 0.578938,-0.196969 c 0.8957,-0.304742 1.309744,-0.249566 2.804932,0.373786 0.780095,0.325225 1.479618,0.552245 1.681863,0.545825 0.190448,-0.006 1.192145,-0.21517 2.225997,-0.46472 l 1.879729,-0.45373 0.0286,-1.06427 c 0.01573,-0.58535 0.06093,-1.099088 0.100443,-1.141642 0.03951,-0.04255 2.519759,-0.699686 5.511655,-1.460297 2.991896,-0.760611 6.723818,-1.715428 8.293158,-2.121816 l 2.853345,-0.738889 1.103981,0.477814 c 0.607188,0.262798 1.233727,0.550034 1.392309,0.638301 0.336787,0.187462 1.121029,0.08514 2.729131,-0.356095 1.641896,-0.450503 1.622379,-0.432659 1.733322,-1.584597 0.0395,-0.410192 0.09054,-0.780564 0.113428,-0.823048 0.05977,-0.110974 0.961249,0.274303 3.512647,1.501239 2.972765,1.429566 5.084219,2.516285 5.166033,2.658845 0.04041,0.07043 -0.07991,0.156567 -0.307598,0.220203 -0.205691,0.05749 -1.242122,0.351229 -2.30318,0.652757 -5.075183,1.442244 -29.490211,7.994854 -29.760865,7.987347 -0.03712,-0.001 -0.490418,-0.18802 -1.007343,-0.415536 z"
     id="path4009"
     inkscape:connector-curvature="0" />
  <path
     style="color:#000000;fill:#ffffff;fill-opacity:1;fill-rule:nonzero;stroke:#000000;stroke-width:0.10266776;stroke-linecap:round;stroke-linejoin:round;stroke-miterlimit:4;stroke-opacity:1;stroke-dasharray:none;stroke-dashoffset:0;marker:none;visibility:visible;display:inline;overflow:visible;enable-background:accumulate"
     d="M 30.764463,21.242288 C 28.86,20.325239 27.310012,19.52698 27.320046,19.46838 c 0.01931,-0.112815 1.450058,-0.503109 6.649431,-1.813882 2.335639,-0.58882 3.234647,-0.77613 3.31426,-0.69054 0.07173,0.07712 0.1199,0.986139 0.140271,2.647107 l 0.03103,2.529655 -1.564491,0.395762 c -0.86047,0.217668 -1.586752,0.390679 -1.613958,0.384466 -0.0272,-0.0062 -1.607663,-0.761609 -3.512126,-1.67866 z"
     id="path4011"
     inkscape:connector-curvature="0" />
  <path
     style="color:#000000;fill:#b3b3b3;fill-opacity:1;fill-rule:nonzero;stroke:#000000;stroke-width:0.10266776;stroke-linecap:round;stroke-linejoin:round;stroke-miterlimit:4;stroke-opacity:1;stroke-dasharray:none;stroke-dashoffset:0;marker:none;visibility:visible;display:inline;overflow:visible;enable-background:accumulate"
     d="m 62.877439,16.499249 -0.615957,-0.313811 -0.02711,-3.974475 c -0.02687,-3.9406086 -0.0253,-3.9764637 0.185254,-4.2080154 0.273173,-0.3004162 1.31513,-0.6417851 1.417018,-0.4642474 0.128785,0.2244045 0.365548,8.2777938 0.261007,8.8779178 -0.05953,0.341719 -0.106129,0.3966 -0.336675,0.396528 -0.14717,-4.6e-5 -0.544763,-0.141308 -0.883538,-0.313897 l 0,0 z"
     id="path4013"
     inkscape:connector-curvature="0" />
  <path
     style="color:#000000;fill:#b3b3b3;fill-opacity:1;fill-rule:nonzero;stroke:#000000;stroke-width:0.05133388000000000;stroke-linecap:round;stroke-linejoin:round;stroke-miterlimit:4;stroke-opacity:1;stroke-dasharray:none;stroke-dashoffset:0;marker:none;visibility:visible;display:inline;overflow:visible;enable-background:accumulate"
     d="m 40.917918,23.200378 c -0.06142,-0.107016 -0.109043,-3.533993 -0.126443,-9.09842 L 40.774732,8.7501058 45.943989,7.4839759 C 58.978204,4.2914457 67.413705,2.2588556 67.453907,2.3010178 c 0.155338,0.1629109 0.265891,3.6753331 0.33727,10.7154362 l 0.03303,3.25809 -0.332398,0.11057 c -0.488741,0.162567 -1.696818,0.475063 -1.99548,0.516174 -0.35808,0.04929 -0.527943,-0.03537 -0.633387,-0.3157 -0.100371,-0.26683 -0.163939,-2.181309 -0.170093,-5.122526 -0.0041,-1.946989 -0.06821,-4.2135188 -0.1263,-4.4627342 -0.03187,-0.1367277 -0.05026,-0.1452554 -0.312924,-0.1450954 -0.153489,9.59e-5 -0.479411,0.037782 -0.724271,0.083752 C 61.177884,7.3804435 46.56447,11.12821 44.551909,11.805948 l -0.32855,0.11064 -0.02916,0.971848 c -0.01603,0.534516 -0.05326,2.530044 -0.0827,4.434507 -0.05144,3.326371 -0.104372,4.910181 -0.170205,5.093548 -0.06074,0.169182 -0.246128,0.232783 -1.694709,0.581411 -1.180203,0.284039 -1.273687,0.298285 -1.32867,0.202476 l 0,0 z"
     id="path4045"
     inkscape:connector-curvature="0" />
  <path
     style="color:#000000;fill:#b3b3b3;fill-opacity:1;fill-rule:nonzero;stroke:#000000;stroke-width:0.05133388000000000;stroke-linecap:round;stroke-linejoin:round;stroke-miterlimit:4;stroke-opacity:1;stroke-dasharray:none;stroke-dashoffset:0;marker:none;visibility:visible;display:inline;overflow:visible;enable-background:accumulate"
     d="m 39.463869,22.994668 c -0.231257,-0.08768 -0.623529,-0.245861 -0.871716,-0.351514 l -0.451249,-0.192092 -0.0321,-0.300014 C 38.024161,21.35982 37.932307,7.600861 38.011661,7.600861 c 0.01749,0 0.429956,0.2217434 0.916589,0.4927629 0.631832,0.3518844 0.89082,0.5232233 0.905887,0.5993064 0.02433,0.1228831 0.102958,4.4765917 0.177482,9.8286247 0.05161,3.706125 0.03743,4.635595 -0.07071,4.633586 -0.03111,-5.79e-4 -0.245792,-0.07278 -0.477048,-0.160473 z"
     id="path4047"
     inkscape:connector-curvature="0" />
  <path
     style="color:#000000;fill:#b3b3b3;fill-opacity:1;fill-rule:nonzero;stroke:#000000;stroke-width:0.05133388000000000;stroke-linecap:round;stroke-linejoin:round;stroke-miterlimit:4;stroke-opacity:1;stroke-dasharray:none;stroke-dashoffset:0;marker:none;visibility:visible;display:inline;overflow:visible;enable-background:accumulate"
     d="m 39.710923,7.7665688 c -0.416043,-0.1940554 -0.89012,-0.4826287 -0.89012,-0.5418203 0,-0.077108 0.161067,-0.1463154 0.723873,-0.3110358 1.1248,-0.3292025 9.910856,-2.4680708 23.335476,-5.6807651 l 2.368258,-0.5667563 0.228737,0.0918092 c 0.401356,0.16109376 1.400649,0.7278776 1.358054,0.7702666 -0.0572,0.056929 -0.825204,0.2559377 -4.295178,1.1129963 -10.720129,2.647795 -19.266492,4.7048406 -21.394291,5.149446 -0.802613,0.1677068 -1.031766,0.1638514 -1.434809,-0.02414 z"
     id="path4049"
     inkscape:connector-curvature="0" />
  <path
     style="color:#000000;fill:#b3b3b3;fill-opacity:1;fill-rule:nonzero;stroke:#000000;stroke-width:0.05133388000000000;stroke-linecap:round;stroke-linejoin:round;stroke-miterlimit:4;stroke-opacity:1;stroke-dasharray:none;stroke-dashoffset:0;marker:none;visibility:visible;display:inline;overflow:visible;enable-background:accumulate"
     d="m 63.351901,16.638641 c -0.17922,-0.06878 -0.48267,-0.202903 -0.674333,-0.298043 l -0.34848,-0.17298 -0.03673,-2.84822 c -0.0202,-1.566522 -0.02716,-3.338243 -0.01546,-3.9371587 0.02499,-1.2790351 0.0254,-1.2802166 0.550362,-1.5584168 0.31224,-0.1654714 0.89239,-0.3287814 0.949497,-0.2672805 0.09064,0.097614 0.220527,3.407919 0.252562,6.436921 0.02837,2.68188 0.02443,2.729195 -0.229043,2.756866 -0.06739,0.0074 -0.269155,-0.04291 -0.448375,-0.111692 l 0,0 z"
     id="path4051"
     inkscape:connector-curvature="0" />
  <path
     style="color:#000000;fill:#e9c6af;fill-opacity:1;fill-rule:nonzero;stroke:#000000;stroke-width:0.13850635;stroke-linecap:round;stroke-linejoin:round;stroke-miterlimit:4;stroke-opacity:1;stroke-dasharray:none;stroke-dashoffset:0;marker:none;visibility:visible;display:inline;overflow:visible;enable-background:accumulate"
     d="M 23.188969,98.306197 C 23.065128,97.722951 21.0352,40.023226 21.0352,37.086364 l 0,-1.610401 1.073424,-0.33874 c 3.07847,-0.971472 16.464734,-4.495982 16.572825,-4.363509 0.150672,0.184664 2.266583,61.279043 2.127135,61.418491 -0.124536,0.124537 -9.762705,3.663734 -15.651429,5.747306 -1.883522,0.666434 -1.903741,0.670202 -1.968186,0.366686 l 0,0 z"
     id="path4088"
     inkscape:connector-curvature="0" />
  <path
     style="color:#000000;fill:#e9c6af;fill-opacity:1;fill-rule:nonzero;stroke:#000000;stroke-width:0.13850635;stroke-linecap:round;stroke-linejoin:round;stroke-miterlimit:4;stroke-opacity:1;stroke-dasharray:none;stroke-dashoffset:0;marker:none;visibility:visible;display:inline;overflow:visible;enable-background:accumulate"
     d="M 47.014057,89.156299 C 46.881023,87.921766 45.552595,34.890272 45.552843,30.823949 l 1.27e-4,-2.077596 13.607177,-3.660362 c 16.026559,-4.311182 18.630319,-4.994564 19.033585,-4.995548 0.466021,-0.0011 0.367272,-1.993997 1.152986,23.268331 0.226271,7.275046 0.575285,17.953943 0.775587,23.730881 0.204603,5.900941 0.311642,10.551569 0.244276,10.613166 -0.06595,0.0603 -3.734929,1.433239 -8.153282,3.050969 -4.418353,1.617733 -11.664625,4.271657 -16.102826,5.897612 -4.438202,1.625954 -8.283218,3.015303 -8.544482,3.087443 l -0.475025,0.13116 -0.07691,-0.713706 z"
     id="path4090"
     inkscape:connector-curvature="0" />
  <path
     style="color:#000000;fill:#e9c6af;fill-opacity:1;fill-rule:nonzero;stroke:#000000;stroke-width:0.13850635;stroke-linecap:round;stroke-linejoin:round;stroke-miterlimit:4;stroke-opacity:1;stroke-dasharray:none;stroke-dashoffset:0;marker:none;visibility:visible;display:inline;overflow:visible;enable-background:accumulate"
     d="m 86.355294,74.408613 c -0.209059,-2.500437 -1.395847,-56.110618 -1.245303,-56.253454 0.119126,-0.113026 6.481632,-1.831641 10.760717,-2.906643 l 2.104773,-0.528766 0.08535,0.919022 c 0.175143,1.885768 0.950225,44.135447 0.95256,51.923988 8.31e-4,2.696265 -0.02096,2.965103 -0.259415,3.203557 -0.338632,0.338633 -2.486424,1.166044 -10.837843,4.17515 l -1.47195,0.530359 -0.08889,-1.063213 0,0 z"
     id="path4092"
     inkscape:connector-curvature="0" />
  <path
     style="color:#000000;fill:#e9c6af;fill-opacity:1;fill-rule:nonzero;stroke:#000000;stroke-width:0.13850635;stroke-linecap:round;stroke-linejoin:round;stroke-miterlimit:4;stroke-opacity:1;stroke-dasharray:none;stroke-dashoffset:0;marker:none;visibility:visible;display:inline;overflow:visible;enable-background:accumulate"
     d="m 80.13335,15.24667 c -2.119144,-0.982858 -3.947713,-1.865629 -4.063487,-1.961713 -0.183775,-0.15252 -0.169388,-0.190203 0.113317,-0.296816 0.329104,-0.124112 5.37353,-1.468891 8.925113,-2.379321 l 1.952992,-0.500639 4.118361,1.529287 c 5.085938,1.88858 5.56625,2.090932 5.307225,2.23589 -0.698162,0.390711 -11.273287,3.171989 -12.033249,3.164768 -0.300637,-0.0029 -1.841368,-0.641741 -4.320272,-1.791456 l 0,0 z"
     id="path4094"
     inkscape:connector-curvature="0" />
  <path
     style="color:#000000;fill:#e9c6af;fill-opacity:1;fill-rule:nonzero;stroke:#000000;stroke-width:0.13850635;stroke-linecap:round;stroke-linejoin:round;stroke-miterlimit:4;stroke-opacity:1;stroke-dasharray:none;stroke-dashoffset:0;marker:none;visibility:visible;display:inline;overflow:visible;enable-background:accumulate"
     d="M 73.072115,11.919688 C 71.350163,11.220961 69.067009,10.051314 68.757541,9.7093547 68.532642,9.4608441 68.533512,9.4395828 68.773775,9.3128739 69.132574,9.1236522 71.141685,8.5938372 74.903018,7.696555 l 3.243744,-0.7738093 0.911446,0.2941068 c 0.712855,0.230025 4.407581,1.5809708 5.863049,2.1437748 0.439325,0.1698798 0.256514,0.2940562 -0.969545,0.6585707 -1.281215,0.380913 -8.400259,2.234325 -9.106792,2.370914 -0.299294,0.05786 -0.795167,-0.07372 -1.772805,-0.470424 z"
     id="path4096"
     inkscape:connector-curvature="0" />
  <path
     style="color:#000000;fill:#e9c6af;fill-opacity:1;fill-rule:nonzero;stroke:#000000;stroke-width:0.13850635;stroke-linecap:round;stroke-linejoin:round;stroke-miterlimit:4;stroke-opacity:1;stroke-dasharray:none;stroke-dashoffset:0;marker:none;visibility:visible;display:inline;overflow:visible;enable-background:accumulate"
     d="m 41.257128,26.138849 c -1.942552,-0.935397 -3.964996,-1.943465 -4.494321,-2.240151 l -0.962409,-0.539429 0.408383,-0.174218 c 0.596817,-0.254603 1.213275,-0.224216 2.108547,0.103937 0.436124,0.159857 1.15126,0.407416 1.589193,0.550132 l 0.796242,0.259483 2.043139,-0.454537 2.043138,-0.454538 0.116902,-1.099765 c 0.0643,-0.604871 0.128606,-1.112135 0.14291,-1.127253 0.05378,-0.05684 3.827883,-1.052436 10.092491,-2.662359 l 6.474124,-1.663765 1.367833,0.618609 c 0.752307,0.340235 1.485132,0.618382 1.628497,0.618105 0.566484,-0.0011 3.392418,-0.801501 3.648713,-1.033445 0.183463,-0.166031 0.302671,-0.513625 0.364956,-1.064156 0.08474,-0.749019 0.117102,-0.8105 0.38585,-0.733096 0.571325,0.16455 8.118958,3.932917 8.118958,4.053616 0,0.161407 -31.684791,8.761768 -32.224286,8.746798 -0.06432,-0.0018 -1.706308,-0.76857 -3.64886,-1.703968 z"
     id="path4098"
     inkscape:connector-curvature="0" />
  <path
     style="color:#000000;fill:#e9c6af;fill-opacity:1;fill-rule:nonzero;stroke:#000000;stroke-width:0.13850635;stroke-linecap:round;stroke-linejoin:round;stroke-miterlimit:4;stroke-opacity:1;stroke-dasharray:none;stroke-dashoffset:0;marker:none;visibility:visible;display:inline;overflow:visible;enable-background:accumulate"
     d="m 44.9968,17.458085 c 0,-1.371213 0.03678,-2.493114 0.08172,-2.493114 0.04495,0 2.522481,-0.587929 5.505627,-1.306509 9.460455,-2.278832 10.731924,-2.531911 10.949735,-2.179486 0.161707,0.261648 0.250811,2.012061 0.158709,3.117751 l -0.0987,1.18488 -0.646072,0.211943 c -0.763552,0.250481 -15.553597,3.95765 -15.789361,3.95765 -0.117225,0 -0.161662,-0.685304 -0.161662,-2.493115 z"
     id="path4100"
     inkscape:connector-curvature="0" />
  <path
     style="color:#000000;fill:#e9c6af;fill-opacity:1;fill-rule:nonzero;stroke:#000000;stroke-width:0.13850635;stroke-linecap:round;stroke-linejoin:round;stroke-miterlimit:4;stroke-opacity:1;stroke-dasharray:none;stroke-dashoffset:0;marker:none;visibility:visible;display:inline;overflow:visible;enable-background:accumulate"
     d="m 18.658681,33.94661 c -1.728262,-0.792594 -5.937493,-2.89371 -7.169807,-3.578943 -0.75141,-0.417825 -0.848276,-0.512326 -0.623279,-0.608055 0.244309,-0.103947 16.211981,-4.254103 17.164176,-4.46114 0.351515,-0.07643 1.130227,0.264999 5.055482,2.216594 l 4.639963,2.306941 -0.623279,0.190848 c -1.835886,0.562149 -10.320593,2.854201 -16.57342,4.477131 -0.366625,0.09516 -0.669286,0.0072 -1.869836,-0.543376 z"
     id="path4102"
     inkscape:connector-curvature="0" />
  <path
     style="color:#000000;fill:#e9c6af;fill-opacity:1;fill-rule:nonzero;stroke:#000000;stroke-width:0.13850635;stroke-linecap:round;stroke-linejoin:round;stroke-miterlimit:4;stroke-opacity:1;stroke-dasharray:none;stroke-dashoffset:0;marker:none;visibility:visible;display:inline;overflow:visible;enable-background:accumulate"
     d="M 8.0156027,28.691009 C 6.6144776,28.063901 2.9755541,26.24586 2.5070517,25.938886 2.2073432,25.742509 2.1987907,25.709971 2.4150702,25.588934 2.5462182,25.51554 6.6145391,24.47212 11.455783,23.270223 l 8.802262,-2.185267 2.847066,1.433553 c 3.356465,1.690047 4.041704,2.09184 3.747356,2.197278 -0.669716,0.239898 -15.411396,4.006234 -17.3825476,4.441048 -0.152357,0.03361 -0.8067995,-0.176013 -1.4543167,-0.465826 z"
     id="path4104"
     inkscape:connector-curvature="0" />
  <path
     style="color:#000000;fill:#e9c6af;fill-opacity:1;fill-rule:nonzero;stroke:#000000;stroke-width:0.13850635;stroke-linecap:round;stroke-linejoin:round;stroke-miterlimit:4;stroke-opacity:1;stroke-dasharray:none;stroke-dashoffset:0;marker:none;visibility:visible;display:inline;overflow:visible;enable-background:accumulate"
     d="m 30.869151,21.18807 c -2.384579,-1.174442 -3.33164,-1.704626 -3.185646,-1.783389 0.209402,-0.112971 5.5662,-1.505474 8.06463,-2.096405 0.740889,-0.175236 1.392214,-0.273468 1.447388,-0.218293 0.05517,0.05517 0.126477,1.208592 0.158448,2.563149 l 0.05813,2.462831 -1.436266,0.323098 c -0.789946,0.177704 -1.498594,0.344972 -1.574772,0.371706 -0.07618,0.02673 -1.665539,-0.703479 -3.531913,-1.622697 z"
     id="path4106"
     inkscape:connector-curvature="0" />
  <path
     style="color:#000000;fill:#e9c6af;fill-opacity:1;fill-rule:nonzero;stroke:#000000;stroke-width:0.13850635;stroke-linecap:round;stroke-linejoin:round;stroke-miterlimit:4;stroke-opacity:1;stroke-dasharray:none;stroke-dashoffset:0;marker:none;visibility:visible;display:inline;overflow:visible;enable-background:accumulate"
     d="M 19.492203,96.918887 C 15.810659,94.522 13.995153,93.29822 12.932578,92.497232 l -0.969544,-0.730861 -0.09797,-1.03861 C 11.811181,90.156524 11.670955,87.009052 11.553452,83.733377 11.435948,80.457701 11.061519,70.080113 10.721387,60.672068 9.7482587,33.755303 9.6517818,30.87293 9.7216331,30.803079 c 0.066724,-0.06673 2.5458699,1.08266 7.4555489,3.456549 l 2.721034,1.315653 0.08427,0.532967 c 0.135326,0.855823 2.160761,58.160786 2.160761,61.133681 0,0.683306 -0.05549,1.242375 -0.123307,1.242375 -0.06782,0 -1.205302,-0.704438 -2.527741,-1.565417 z"
     id="path4108"
     inkscape:connector-curvature="0" />
  <path
     style="color:#000000;fill:#e9c6af;fill-opacity:1;fill-rule:nonzero;stroke:#000000;stroke-width:0.13850635;stroke-linecap:round;stroke-linejoin:round;stroke-miterlimit:4;stroke-opacity:1;stroke-dasharray:none;stroke-dashoffset:0;marker:none;visibility:visible;display:inline;overflow:visible;enable-background:accumulate"
     d="M 7.1845645,88.846954 C 5.1658344,87.514572 3.4007047,86.311477 3.262054,86.173407 2.9425961,85.855288 2.8935746,84.98423 2.3374495,69.744235 1.0444167,34.310094 0.81183602,26.456913 1.0556583,26.464031 c 0.3026586,0.0088 6.8895082,3.313881 7.3461977,3.68606 0.2920626,0.238016 0.3274396,0.421778 0.4497023,2.335934 0.1308484,2.048573 0.8460132,20.618825 1.6482257,42.798464 0.225933,6.246637 0.448776,12.401513 0.495205,13.677503 0.04643,1.275989 0.03392,2.317167 -0.0278,2.313727 -0.06172,-0.0034 -1.7638993,-1.096384 -3.7826295,-2.428765 z"
     id="path4110"
     inkscape:connector-curvature="0" />
  <path
     style="color:#000000;fill:#ac9d93;fill-opacity:1;fill-rule:nonzero;stroke:#000000;stroke-width:0.09793878;stroke-linecap:round;stroke-linejoin:round;stroke-miterlimit:4;stroke-opacity:1;stroke-dasharray:none;stroke-dashoffset:0;marker:none;visibility:visible;display:inline;overflow:visible;enable-background:accumulate"
     d="m 41.633251,91.136967 c -0.06496,-0.85218 -0.01441,0.601081 -0.796296,-22.893191 -0.348674,-10.477001 -0.725417,-21.69344 -0.837206,-24.92542 -0.111789,-3.23198 -0.211272,-7.436292 -0.221074,-9.342916 l -0.01782,-3.466589 0.881449,-0.281288 c 0.807975,-0.257842 3.740082,-1.059734 3.879066,-1.060874 0.08413,-6.9e-4 0.172023,1.465797 0.284671,4.749544 0.128542,3.747087 1.369805,53.784913 1.369805,55.219629 l 0,1.112699 -0.269332,0.123027 c -0.838212,0.382882 -3.873473,1.475435 -4.09896,1.475435 -0.07892,0 -0.138761,-0.243777 -0.174302,-0.710056 l 0,0 z"
     id="path4114"
     inkscape:connector-curvature="0" />
  <path
     style="color:#000000;fill:#ac9d93;fill-opacity:1;fill-rule:nonzero;stroke:#000000;stroke-width:0.09793878;stroke-linecap:round;stroke-linejoin:round;stroke-miterlimit:4;stroke-opacity:1;stroke-dasharray:none;stroke-dashoffset:0;marker:none;visibility:visible;display:inline;overflow:visible;enable-background:accumulate"
     d="m 31.627241,25.894834 c -4.204156,-2.120482 -8.146857,-4.122553 -8.761559,-4.449047 -1.113432,-0.591392 -1.116547,-0.594046 -0.827785,-0.705374 0.409338,-0.157814 2.295853,-0.649289 3.200651,-0.833833 l 0.761732,-0.155364 3.697277,1.752594 c 6.02316,2.855116 13.776016,6.594306 13.976265,6.740732 0.102389,0.07487 0.163843,0.158445 0.136563,0.185724 -0.03966,0.03966 -4.445212,1.328276 -4.518925,1.321779 -0.01116,-9.79e-4 -3.460063,-1.736729 -7.664219,-3.857211 l 0,0 z"
     id="path4116"
     inkscape:connector-curvature="0" />
  <path
     style="color:#000000;fill:#ac9d93;fill-opacity:1;fill-rule:nonzero;stroke:#000000;stroke-width:0.09793878;stroke-linecap:round;stroke-linejoin:round;stroke-miterlimit:4;stroke-opacity:1;stroke-dasharray:none;stroke-dashoffset:0;marker:none;visibility:visible;display:inline;overflow:visible;enable-background:accumulate"
     d="M 79.083276,18.814376 C 78.346174,18.549509 71.674292,15.429365 69.4018,14.286778 l -0.797974,-0.401213 0,-1.467989 c 0,-1.024818 0.03337,-1.467988 0.110526,-1.467988 0.369318,0 12.124449,5.441602 14.380786,6.657051 l 0.241218,0.12994 -0.241218,0.09065 C 82.82504,17.928728 79.322981,18.887 79.266364,18.8749 c -0.0199,-0.0043 -0.102288,-0.03149 -0.183088,-0.06052 z"
     id="path4118"
     inkscape:connector-curvature="0" />
  <path
     style="color:#000000;fill:#ac9d93;fill-opacity:1;fill-rule:nonzero;stroke:#000000;stroke-width:0.09793878;stroke-linecap:round;stroke-linejoin:round;stroke-miterlimit:4;stroke-opacity:1;stroke-dasharray:none;stroke-dashoffset:0;marker:none;visibility:visible;display:inline;overflow:visible;enable-background:accumulate"
     d="M 81.197486,76.984813 C 81.149311,76.830891 80.353959,52.122001 79.72446,31.222916 79.592226,26.83281 79.458024,22.457185 79.426232,21.499304 l -0.0578,-1.741601 0.322633,-0.133609 c 0.512338,-0.212171 4.394568,-1.15839 4.464758,-1.0882 0.06942,0.06942 0.200666,5.117582 0.798373,30.707758 0.218289,9.345809 0.441011,18.777314 0.494938,20.9589 0.05393,2.181586 0.09806,4.345798 0.09808,4.809359 l 2.8e-5,0.842839 -1.983261,0.651919 c -1.090793,0.358555 -2.057417,0.651382 -2.148053,0.650727 -0.09064,-6.86e-4 -0.188932,-0.07832 -0.218436,-0.172583 l 0,0 z"
     id="path4120"
     inkscape:connector-curvature="0" />
</svg>
