<?xml version="1.0" encoding="UTF-8" standalone="no"?>
<!-- Created with Inkscape (http://www.inkscape.org/) -->

<svg
   xmlns:dc="http://purl.org/dc/elements/1.1/"
   xmlns:cc="http://creativecommons.org/ns#"
   xmlns:rdf="http://www.w3.org/1999/02/22-rdf-syntax-ns#"
   xmlns:svg="http://www.w3.org/2000/svg"
   xmlns="http://www.w3.org/2000/svg"
   xmlns:sodipodi="http://sodipodi.sourceforge.net/DTD/sodipodi-0.dtd"
   xmlns:inkscape="http://www.inkscape.org/namespaces/inkscape"
   id="svg2"
   version="1.1"
   inkscape:version="0.48.5 r10040"
   width="50"
   height="50"
   sodipodi:docname="trunk5.svg">
  <metadata
     id="metadata8">
    <rdf:RDF>
      <cc:Work
         rdf:about="">
        <dc:format>image/svg+xml</dc:format>
        <dc:type
           rdf:resource="http://purl.org/dc/dcmitype/StillImage" />
        <dc:title />
      </cc:Work>
    </rdf:RDF>
  </metadata>
  <defs
     id="defs6" />
  <sodipodi:namedview
     pagecolor="#ffffff"
     bordercolor="#666666"
     borderopacity="1"
     objecttolerance="10"
     gridtolerance="10"
     guidetolerance="10"
     inkscape:pageopacity="0"
     inkscape:pageshadow="2"
     inkscape:window-width="1366"
     inkscape:window-height="740"
     id="namedview4"
     showgrid="false"
     inkscape:zoom="6.8113143"
     inkscape:cx="26.488326"
     inkscape:cy="12.21324"
     inkscape:window-x="0"
     inkscape:window-y="36"
     inkscape:window-maximized="1"
     inkscape:current-layer="svg2" />
  <path
     style="fill:#464646;fill-opacity:1"
     d="M 12.579795,49.793265 C 10.392581,49.399395 7.858301,48.514715 5.836186,47.439165 3.642188,46.272185 1.41,44.531955 0.545651,43.314625 L 0,42.546145 0.01164,41.028715 c 0.01366,-1.77949 0.213294,-2.65473 1.937433,-8.49393 1.915734,-6.48809 2.512143,-9.05693 2.548555,-10.97708 0.01232,-0.64994 -0.136847,-1.73287 -0.462523,-3.35773 -0.897016,-4.47539 -1.12403,-6.93286 -0.715917,-7.74995 0.343163,-0.6870504 1.662389,-1.3385104 4.873804,-2.4067404 1.713359,-0.56992 6.428993,-1.8576496 8.257503,-2.2549296 1.28634,-0.27947 1.58041,-0.40328 1.21449,-0.51133 -0.13575,-0.0401 -0.46668,-0.11233 -0.73542,-0.16053 -0.67872,-0.12177 -1.56637,-1.0449 -1.76557,-1.83616 -0.39775,-1.5799 0.57636,-3.09879 2.09405,-3.26518 1.23531,-0.13543 2.34518,0.65109 2.63986,1.87075 0.0997,0.41277 0.31537,0.61209 1.65598,1.53056 l 1.54133,1.05597 1.0967,-0.18718 c 4.61553,-0.78781 10.57116,-0.91198 12.18524,-0.25407 0.12672,0.0516 0.18342,-0.15528 0.22288,-0.81343 0.0891,-1.48705 0.92808,-2.34059 2.30057,-2.34059 1.30257,0 2.19139,0.84487 2.2958,2.18231 0.0317,0.40566 0.0208,0.89347 -0.0243,1.08401 -0.11819,0.50016 -0.81588,1.29099 -1.34688,1.52666 l -0.45719,0.2029 0.67751,0.72872 0.67751,0.7287096 2.28209,0.086 c 4.23607,0.15973 4.82148,0.44479 5.19154,2.52807 0.28567,1.6081404 -0.11153,5.9521404 -0.83635,9.1469804 -0.37052,1.63317 -0.62361,2.34135 -0.98127,2.74576 -0.24888,0.28139 -0.24741,0.29136 0.21256,1.4409 1.3425,3.35507 2.7145,7.43434 3.15501,9.38055 0.37348,1.65009 0.33693,2.61019 -0.12907,3.39072 -0.669,1.12053 -2.41893,2.3947 -5.298,3.8576 -2.08076,1.05728 -3.60701,1.68962 -5.02791,2.08315 -1.40456,0.389 -1.40437,0.38888 -2.77802,1.70213 -0.5677,0.54273 -1.2849,1.14413 -1.59377,1.33643 -1.21085,0.75386 -2.91854,0.89006 -5.68018,0.45301 l -1.59692,-0.25272 -1.04807,0.85077 c -1.68955,1.3715 -3.20505,2.22444 -5.23761,2.94777 -2.52997,0.90035 -6.23469,1.22351 -8.77732,0.76563 z m 6.15163,-1.22798 c 1.66955,-0.35476 2.79051,-0.7684 4.49282,-1.65789 1.47977,-0.7732 3.68054,-2.35433 3.67547,-2.64063 -9e-4,-0.0527 -0.34622,-0.27148 -0.76731,-0.48623 -0.73788,-0.37632 -2.33197,-1.76518 -2.19745,-1.91455 0.0361,-0.04 0.40565,0.22498 0.82127,0.58898 1.27956,1.12059 1.86564,1.38426 3.88079,1.74593 1.1211,0.20121 2.36725,0.32854 3.26662,0.33377 1.30862,0.007 1.52158,-0.0267 2.12889,-0.34313 0.37115,-0.19336 1.16833,-0.82209 1.77152,-1.39714 0.60318,-0.57508 1.387,-1.24595 1.74181,-1.49085 1.03989,-0.71776 2.1992,-2.30368 3.16356,-4.32769 0.23344,-0.48996 0.4489,-0.81514 0.4788,-0.72263 0.11578,0.35822 -1.3776,3.05702 -2.29382,4.14535 -0.22361,0.26563 -0.33734,0.49862 -0.25723,0.52698 0.32343,0.11452 3.7966,-1.29779 5.74511,-2.33614 2.14019,-1.1405 3.90053,-2.42632 4.34446,-3.17334 0.32602,-0.54862 0.2593,-1.41713 -0.25393,-3.30551 -0.85259,-3.137 -3.5241,-10.33344 -3.88231,-10.45806 -0.15023,-0.0523 -0.16878,0.18507 -0.11003,1.40778 0.0532,1.10639 0.034,1.43162 -0.0774,1.31303 -0.29225,-0.31119 -0.16755,-3.33198 0.20959,-5.07694 0.74832,-3.46233 1.05827,-7.10567 0.69955,-8.22301 -0.21904,-0.68229 -0.67112,-0.80532 -2.99251,-0.81443 -7.26058,-0.0285 -21.43092,2.18698 -24.6526,3.85429 -2.37092,1.22702 -4.69836,4.9491 -6.42484,10.27471 l -0.473216,1.45972 0.209476,1.28128 c 0.21977,1.34426 0.19554,2.8911 -0.0524,3.34776 -0.1093,0.20128 -0.12491,0.003 -0.0662,-0.83918 0.0744,-1.06785 -0.152581,-3.49551 -0.325526,-3.48221 -0.04589,0.003 -0.489865,0.14946 -0.986605,0.32429 l -0.903165,0.31788 -0.219049,2.86213 c -0.467356,6.10651 -0.717719,7.79881 -1.639968,11.08513 -0.393712,1.40295 -0.46681,1.81901 -0.343893,1.9574 0.08585,0.0967 1.284228,1.05643 2.663055,2.13283 2.354231,1.83783 2.926971,2.42521 2.355581,2.41577 -0.12939,-0.002 -1.251316,-0.80656 -2.493168,-1.7876 -3.370702,-2.6628 -2.924799,-2.41771 -4.828407,-2.65388 -1.671511,-0.20737 -2.064797,-0.34784 -1.790291,-0.63941 0.103496,-0.10994 0.587352,-0.0983 1.779947,0.043 l 1.637813,0.19399 0.115051,-0.32144 c 0.277857,-0.77628 1.165972,-4.43267 1.337547,-5.50671 0.286484,-1.79333 0.840166,-7.84127 0.843591,-9.21464 0.0014,-0.54802 -0.03819,-0.64417 -0.288719,-0.70189 -0.159666,-0.0368 -0.384401,-0.10918 -0.49941,-0.16089 -0.165345,-0.0744 -0.280107,0.0943 -0.54835,0.80612 -0.186584,0.49507 -0.340132,1.00741 -0.341218,1.13853 -0.001,0.13111 -0.06384,0.33091 -0.139446,0.44397 -0.242553,0.36272 -0.0082,-0.91098 0.330558,-1.79651 l 0.311779,-0.81502 -0.294223,-0.67456 c -0.161821,-0.37101 -0.434195,-1.17074 -0.605273,-1.77718 -0.303535,-1.07598 -0.504585,-1.39957 -0.504585,-0.81213 0,0.92234 -0.881108,4.4022 -2.573771,10.16486 -1.295775,4.41147 -1.801225,6.46745 -1.893014,7.70009 -0.0671,0.90106 -0.04698,1.00223 0.319031,1.60453 0.684823,1.12691 3.226894,3.05019 5.517272,4.17424 2.090801,1.02611 4.505636,1.79213 6.629946,2.10313 1.10829,0.16226 4.08557,0.051 5.24846,-0.19606 z m 26.17238,-17.20849 c -0.48705,-1.57895 -1.12364,-2.52684 -1.96486,-2.92571 -0.2696,-0.12785 -1.18692,-0.31215 -2.03847,-0.40957 l -1.54829,-0.17712 0.92864,-0.23104 c 0.51075,-0.12706 1.15359,-0.23102 1.42853,-0.23102 0.7352,0 1.64033,0.37312 2.10465,0.86758 0.50455,0.5373 1.09541,1.82116 1.2853,2.79276 0.20052,1.02595 0.0825,1.21549 -0.1955,0.31412 z m -21.48537,-1.3077 c -3.8e-4,-0.0785 0.28602,-0.6376 0.63641,-1.24238 1.02342,-1.76647 1.96965,-2.51767 3.17428,-2.52001 0.59662,-0.001 1.80083,0.36752 2.48192,0.75987 0.33522,0.19311 0.49337,0.31029 0.35145,0.2604 -0.14193,-0.0499 -0.80713,-0.17979 -1.47823,-0.28864 -0.97014,-0.15736 -1.349,-0.16509 -1.84876,-0.0377 -0.95149,0.24246 -2.28899,1.44095 -3.02676,2.7122 -0.15931,0.27449 -0.28994,0.43483 -0.29031,0.3563 z m 5.52074,-4.53028 c 0.45696,-0.70746 1.89144,-2.05011 2.55912,-2.39528 1.3243,-0.68466 2.82704,-0.28202 4.10736,1.10052 0.35215,0.38026 0.57887,0.69138 0.50384,0.69138 -0.075,0 -0.24704,-0.13008 -0.38222,-0.28909 -0.13519,-0.15899 -0.59416,-0.47883 -1.01993,-0.71074 -0.6496,-0.35383 -0.91944,-0.42121 -1.67731,-0.41886 -1.30352,0.004 -2.40621,0.57305 -3.92434,2.02506 l -0.44071,0.4215 0.27419,-0.42449 z m -20.662419,-0.039 c 0.167676,-0.69596 0.147241,-0.86826 -0.52745,-4.44735 -1.17385,-6.22702 -1.396021,-8.42277 -0.911057,-9.00412 0.354524,-0.42498 1.289437,-0.84582 3.494451,-1.57299 7.931195,-2.6155604 20.154575,-4.74525 24.117005,-4.20193 0.828,0.11354 1.18557,0.11507 1.30973,0.005 0.28044,-0.24721 0.093,-0.36013 -0.89127,-0.53697 -0.91122,-0.16372 -3.51683,-0.11566 -4.87018,0.0899 -0.39817,0.0604 -0.54007,0.0437 -0.45159,-0.0534 0.071,-0.0779 0.88052,-0.21578 1.79902,-0.30651 1.64591,-0.1626 2.88834,-0.11307 4.11777,0.16412 0.52035,0.11732 0.66113,0.10495 0.82875,-0.0732 0.18321,-0.1946 0.17149,-0.22677 -0.12647,-0.3471 -1.31472,-0.53095 -6.19223,-0.54285 -10.03819,-0.0245 -1.17089,0.15781 -2.20762,0.31744 -2.30386,0.35472 -0.11425,0.0443 -0.14765,0.18336 -0.0963,0.40087 0.13653,0.5778 -0.38812,1.06505 -1.22629,1.1388796 -0.78014,0.0687 -1.94505,-0.2341296 -2.33224,-0.6063396 -0.27831,-0.26754 -0.5983,-0.22077 -4.04068,0.59059 -5.841325,1.3767696 -10.805233,3.01103 -11.708888,3.85488 -0.29922,0.27941 -0.29084,0.98827 0.04007,3.38905 0.507682,3.68331 1.756488,9.21251 2.453413,10.86272 0.335482,0.79436 0.716501,1.17719 1.073841,1.07895 0.06377,-0.0175 0.194437,-0.35768 0.290377,-0.75588 z m -2.077117,-7.43156 c -0.149168,-0.44446 -0.974185,-5.5277 -0.974185,-6.0023 0,-0.59702 0.165155,-0.79009 1.0967,-1.28207 0.728146,-0.38456 2.120834,-0.8411904 2.225736,-0.72975 0.03801,0.0404 -0.01178,0.0991 -0.110636,0.13039 -1.543452,0.48926 -2.869863,1.16418 -3.000915,1.52693 -0.07786,0.21552 0.140084,1.77045 0.640429,4.56925 0.179898,1.0063 0.295555,1.86312 0.257018,1.90406 -0.03854,0.0409 -0.09891,-0.0115 -0.134147,-0.11651 z m 2.95782,7.9293 c 0.797373,-2.56774 2.714606,-7.28789 3.678536,-9.05641 0.56169,-1.03052 0.60608,-1.21388 0.3488,-1.4407 -0.35714,-0.31483 -3.164043,5.85764 -4.08154,8.97546 -0.216791,0.73669 -0.394165,1.41899 -0.394165,1.5162 0,0.22695 0.378158,0.23154 0.448369,0.005 z m 0.926322,-0.23038 c 0.270628,-0.17529 0.438142,-0.41622 0.499908,-0.719 0.328466,-1.61019 2.159296,-5.82197 3.375916,-7.7662 1.56654,-2.50345 2.94843,-3.56609 5.71649,-4.39588 4.90797,-1.47127 16.21056,-3.0260204 22.32108,-3.0704004 3.70224,-0.0269 3.85091,0.0908 3.86206,3.0593004 0.006,1.61476 -0.2751,3.95085 -0.75884,6.3052 -0.28957,1.40927 -0.3282,1.91782 -0.14569,1.91782 0.0655,0 0.18007,-0.20044 0.25469,-0.44542 0.29084,-0.95489 0.91197,-3.86882 1.05274,-4.93874 0.0815,-0.61915 0.19404,-1.37243 0.25018,-1.67393 l 0.10207,-0.5482 0.0138,0.63303 c 0.0184,0.84461 -0.28206,2.65018 -0.82795,4.97489 -0.24636,1.04916 -0.4273,1.92948 -0.40208,1.95627 0.46467,0.49358 1.75923,-6.50266 1.75978,-9.51042 1.3e-4,-1.01929 -0.21286,-2.1605404 -0.44085,-2.3615304 -0.22662,-0.19979 -1.19061,-0.37644 -2.68781,-0.49255 -1.10041,-0.0854 -1.25798,-0.0704 -1.25798,0.11948 0,0.11938 -0.10574,0.27716 -0.23498,0.35063 -0.12923,0.0735 -1.71139,0.23155 -3.51589,0.3513 -1.8045,0.11974 -3.43512,0.2529 -3.62359,0.29591 -0.26663,0.0609 -0.43694,-0.0175 -0.7674,-0.35295 -0.39037,-0.39627 -0.47746,-0.42527 -1.07659,-0.35848 -0.35852,0.0399 -1.58082,0.16958 -2.71623,0.28803 -2.97304,0.31016 -5.90684,0.7077004 -8.12849,1.1014304 -2.82705,0.50101 -2.8323,0.50255 -2.87941,0.84876 -0.0623,0.45795 -0.60042,0.82327 -1.77155,1.20272 -1.08098,0.35023 -1.33071,0.50292 -2.51204,1.53594 -0.69812,0.61048 -1.13747,0.72283 -1.46522,0.37469 -0.17479,-0.18567 -0.23069,-0.16759 -0.52531,0.16991 -0.36068,0.41318 -0.39548,0.52671 -0.20068,0.6546 0.29499,0.19365 0.0697,0.91074 -1.00572,3.20174 -1.1211,2.38822 -2.653894,6.26427 -2.814468,7.11709 -0.09589,0.50927 -0.0089,0.53695 0.550034,0.17496 z m -0.595822,-3.98392 c 1.196638,-3.22448 2.828656,-6.49654 3.830886,-7.68061 1.03947,-1.22807 2.42004,-2.16124 4.32312,-2.92211 2.25085,-0.89993 7.52227,-1.7994504 14.52938,-2.4793204 1.0889,-0.10569 1.99411,-0.21195 2.01157,-0.23622 0.0175,-0.0243 0.27939,-0.38171 0.58206,-0.79431 l 0.5503,-0.7501896 -0.43299,-0.1226 c -0.61099,-0.17301 -5.43299,-0.005 -7.20673,0.25068 -7.53598,1.0874896 -16.58327,3.31021 -19.837374,4.87361 l -0.806397,0.38742 3.87e-4,0.86516 c 5.16e-4,1.26971 1.19613,8.81715 1.635117,10.32162 0.07998,0.27411 0.07998,0.27411 0.183333,0 0.05684,-0.15075 0.34367,-0.92165 0.637391,-1.71313 z m 5.930356,-7.87445 c 0.88014,-0.86529 1.40956,-1.18879 2.65562,-1.62269 1.15902,-0.4036 1.66726,-0.75815 1.43714,-1.00259 -0.29604,-0.31446 -3.9286,1.36103 -4.86447,2.2437 -0.50912,0.48017 -0.55703,0.57238 -0.40111,0.77194 0.23208,0.29704 0.59725,0.1755 1.17282,-0.39036 z m 24.70499,-4.7401004 c 2.07372,-0.13102 2.72845,-0.27584 2.20736,-0.48825 -0.392,-0.15978 -5.58732,0.15466 -5.81082,0.35169 -0.36338,0.32035 -0.20897,0.40703 0.60669,0.34061 0.44352,-0.0361 1.79206,-0.12793 2.99677,-0.20405 z m -4.36935,-0.0545 c 0.24698,-0.18375 2.56874,-3.5439596 2.6558,-3.8436596 0.0216,-0.0744 -0.0584,-0.15515 -0.17771,-0.17956 -0.14616,-0.0299 -0.43372,0.2826 -0.88105,0.95748 -0.36524,0.55102 -0.71322,1.0938496 -0.77328,1.2062896 -0.0601,0.11243 -0.14893,0.16223 -0.19749,0.11065 -0.0486,-0.0516 0.2338,-0.5792696 0.62746,-1.1726296 0.74636,-1.12499 0.89879,-1.47231 0.64612,-1.47231 -0.14116,0 -2.69044,3.3548696 -2.84448,3.7433596 -0.11093,0.27975 0.18867,0.84782 0.44715,0.84782 0.12766,0 0.35152,-0.0889 0.49748,-0.19744 z m 1.76646,-0.9656 c 0.014,-0.0744 -0.0762,-0.15597 -0.20035,-0.18136 -0.14123,-0.0289 -0.22579,0.0383 -0.22579,0.17948 0,0.23843 0.38131,0.24011 0.42614,0.002 z m 2.28336,-0.0405 c 0,-0.0589 -0.34116,-0.46568 -0.75814,-0.90398 l -0.75813,-0.7968896 -0.35779,0.49828 -0.3578,0.4982696 0.36593,0.4057 c 0.32331,0.35846 0.45325,0.4057 1.11592,0.4057 0.41251,0 0.75001,-0.0482 0.75001,-0.10708 z m -16.76209,-1.7934996 0.2976,-0.25598 -1.15422,-0.79285 c -2.96872,-2.03922 -2.92765,-2.01459 -3.04111,-1.82446 -0.21012,0.35208 -0.10343,0.49374 1.11275,1.47756 0.67414,0.54535 1.22572,1.05513 1.22572,1.13283 0,0.0939 -0.0541,0.0958 -0.16128,0.006 -2.08961,-1.7548 -2.93063,-2.29483 -2.77608,-1.78257 0.0958,0.31772 2.20249,2.004 2.66871,2.1362 0.78171,0.22168 1.50215,0.18361 1.82791,-0.0965 z m 16.72983,-2.10886 c 0.58272,-0.57588 0.23894,-1.83744 -0.56764,-2.08308 -0.37054,-0.11285 -0.81936,0.489 -0.81936,1.09874 0,0.34574 0.0981,0.53334 0.41932,0.8023 0.23063,0.19306 0.36445,0.35171 0.29737,0.35255 -0.0671,8.4e-4 -0.28481,-0.16419 -0.48384,-0.36675 -0.38598,-0.39279 -0.47096,-0.94078 -0.2224,-1.43413 0.22386,-0.4443 -0.004,-0.49364 -0.34399,-0.0744 -0.47108,0.58137 -0.4304,1.33508 0.0975,1.80694 0.34033,0.30419 0.48676,0.35046 0.87091,0.27519 0.25398,-0.0498 0.59242,-0.21958 0.75209,-0.37737 z m -21.99852,-0.82353 c 0.28148,-0.72728 0.28122,-0.73653 -0.0322,-1.15984 -0.14193,-0.19166 -0.25805,-0.49432 -0.25805,-0.67261 0,-0.43953 -0.28917,-0.41319 -0.80143,0.073 -0.34627,0.32864 -0.41843,0.4965 -0.41843,0.97337 0,0.47688 0.0722,0.64474 0.41843,0.97337 0.5817,0.55209 0.82149,0.51095 1.09173,-0.18729 z m 0.73252,0.0863 c 0.40753,-0.55032 0.3604,-1.34287 -0.10956,-1.84206 -0.23417,-0.24874 -0.45411,-0.36898 -0.5806,-0.31742 -0.28546,0.11636 -0.25545,0.29827 0.14002,0.84902 0.35717,0.49741 0.3575,0.47292 -0.019,1.43173 -0.15013,0.38228 0.26117,0.29465 0.56917,-0.12127 z"
     id="path2987"
     inkscape:connector-curvature="0" />
  <path
     style="color:#000000;fill:#ffb380;fill-opacity:1;fill-rule:nonzero;stroke:#000000;stroke-width:0.05190678000000000;stroke-linecap:round;stroke-linejoin:round;stroke-miterlimit:4;stroke-opacity:1;stroke-dasharray:none;stroke-dashoffset:0;marker:none;visibility:visible;display:inline;overflow:visible;enable-background:accumulate"
     d="m 17.907737,3.724055 c 0,-0.048697 0.07503,-0.3082795 0.166729,-0.5768505 L 18.241195,2.6588936 18.133903,2.4701192 C 18.074893,2.3662931 17.926927,2.1122697 17.805089,1.9056225 17.590463,1.541596 17.586226,1.5258423 17.668989,1.3995315 c 0.04923,-0.075135 0.134787,-0.1303691 0.201942,-0.1303691 0.287646,0 0.75256,0.5093172 0.873753,0.9572042 0.07235,0.2673669 0.03135,0.7383377 -0.08426,0.9679067 -0.21212,0.4212292 -0.752689,0.8017096 -0.752689,0.5297817 z"
     id="path3754"
     inkscape:connector-curvature="0" />
  <path
     style="color:#000000;fill:#ffb380;fill-opacity:1;fill-rule:nonzero;stroke:#000000;stroke-width:0.05190678000000000;stroke-linecap:round;stroke-linejoin:round;stroke-miterlimit:4;stroke-opacity:1;stroke-dasharray:none;stroke-dashoffset:0;marker:none;visibility:visible;display:inline;overflow:visible;enable-background:accumulate"
     d="M 16.999368,3.820129 C 16.751319,3.6673824 16.371116,3.2276858 16.299532,3.0107817 c -0.09648,-0.2923486 -0.0439,-0.8552401 0.101933,-1.0912071 0.154561,-0.2500845 0.701729,-0.702319 0.84975,-0.702319 0.154904,0 0.241268,0.093846 0.241268,0.2621696 0,0.2039852 0.09819,0.4556294 0.302785,0.775966 0.219804,0.3441541 0.224814,0.4884666 0.03427,0.9871177 C 17.58475,3.8831098 17.35793,4.040928 16.999368,3.820129 z"
     id="path3756"
     inkscape:connector-curvature="0" />
  <path
     style="color:#000000;fill:#ffb380;fill-opacity:1;fill-rule:nonzero;stroke:#000000;stroke-width:0.05190678000000000;stroke-linecap:round;stroke-linejoin:round;stroke-miterlimit:4;stroke-opacity:1;stroke-dasharray:none;stroke-dashoffset:0;marker:none;visibility:visible;display:inline;overflow:visible;enable-background:accumulate"
     d="M 21.748838,6.5068823 C 21.116568,6.4317691 20.533276,6.0807052 19.328111,5.0499294 18.761125,4.5649868 18.530618,4.3118484 18.530618,4.1741359 c 0,-0.3002916 0.664538,0.1126571 2.206038,1.3708474 0.371134,0.3029235 0.683131,0.5259087 0.693327,0.4955227 0.0282,-0.084047 -0.144066,-0.2486317 -1.174307,-1.1219142 -1.204617,-1.0210933 -1.288807,-1.1269752 -1.145751,-1.4409489 0.0702,-0.1540644 0.143616,-0.1636681 0.367225,-0.048035 0.399518,0.2065985 3.828892,2.547616 3.828892,2.6137429 0,0.067168 -0.318084,0.3204421 -0.493115,0.3926431 -0.233447,0.096298 -0.628606,0.1226233 -1.064089,0.070888 z"
     id="path3758"
     inkscape:connector-curvature="0" />
  <path
     style="color:#000000;fill:#ffb380;fill-opacity:1;fill-rule:nonzero;stroke:#000000;stroke-width:0.05190678000000000;stroke-linecap:round;stroke-linejoin:round;stroke-miterlimit:4;stroke-opacity:1;stroke-dasharray:none;stroke-dashoffset:0;marker:none;visibility:visible;display:inline;overflow:visible;enable-background:accumulate"
     d="M 35.057712,9.1844496 C 34.907769,9.0345068 34.77744,8.7503597 34.77744,8.5733925 c 0,-0.1949782 0.87357,-1.4363642 2.053488,-2.9181072 0.688624,-0.8647755 0.828996,-1.0053339 0.916557,-0.9177728 0.0783,0.078297 -0.102126,0.462479 -0.528518,1.1253999 -0.347341,0.5400171 -0.832417,1.3781228 -0.832417,1.438235 0,0.1373571 0.147463,-0.024047 0.448533,-0.4909362 0.664526,-1.0305287 0.825423,-1.2588012 1.060198,-1.5041571 0.130358,-0.1362332 0.273486,-0.2476967 0.318062,-0.2476967 0.118598,0 0.211088,0.1351753 0.173507,0.2535829 -0.07605,0.2395964 -2.081218,3.1656361 -2.482795,3.6230066 -0.154911,0.1764345 -0.496988,0.3760521 -0.648836,0.3786264 -0.03698,6.271e-4 -0.125862,-0.057479 -0.197507,-0.1291237 l 0,0 z"
     id="path3760"
     inkscape:connector-curvature="0" />
  <path
     style="color:#000000;fill:#ffb380;fill-opacity:1;fill-rule:nonzero;stroke:#000000;stroke-width:0.05190678000000000;stroke-linecap:round;stroke-linejoin:round;stroke-miterlimit:4;stroke-opacity:1;stroke-dasharray:none;stroke-dashoffset:0;marker:none;visibility:visible;display:inline;overflow:visible;enable-background:accumulate"
     d="m 38.29948,4.4208652 c -0.357578,-0.2727334 -0.526884,-0.554473 -0.553388,-0.9208817 -0.01246,-0.172232 0.0073,-0.4200168 0.04384,-0.5506329 0.08299,-0.2964118 0.506019,-0.7811702 0.637625,-0.7306685 0.07966,0.030568 0.07737,0.058578 -0.02721,0.3335041 -0.223132,0.586562 -0.12703,1.0728719 0.292269,1.4789772 0.360583,0.3492372 0.436611,0.3335498 0.09909,-0.020445 -0.472113,-0.4951469 -0.536784,-0.8760873 -0.246459,-1.4517428 0.28475,-0.5646011 0.726535,-0.6114765 1.155748,-0.1226301 0.249007,0.2836037 0.332473,0.5221333 0.339098,0.9690836 0.0054,0.3618111 -0.0081,0.4175785 -0.149905,0.6228814 -0.211959,0.3067802 -0.709708,0.5628855 -1.093986,0.5628855 -0.229013,0 -0.309653,-0.027653 -0.496717,-0.1703311 z"
     id="path3762"
     inkscape:connector-curvature="0" />
  <path
     style="color:#000000;fill:#ffb380;fill-opacity:1;fill-rule:nonzero;stroke:#000000;stroke-width:0.05190678000000000;stroke-linecap:round;stroke-linejoin:round;stroke-miterlimit:4;stroke-opacity:1;stroke-dasharray:none;stroke-dashoffset:0;marker:none;visibility:visible;display:inline;overflow:visible;enable-background:accumulate"
     d="m 9.4983961,25.930795 c -0.1587329,-0.256836 1.1258399,-3.669631 2.6689449,-7.090732 1.258729,-2.790634 1.447705,-3.376038 1.165448,-3.610291 -0.12804,-0.106264 -0.08263,-0.278212 0.14608,-0.55314 0.306295,-0.368191 0.421212,-0.426529 0.571163,-0.289957 0.160285,0.145984 0.320923,0.22308 0.46356,0.222478 0.225169,-9.5e-4 0.638397,-0.244528 1.163844,-0.68603 1.049936,-0.882199 1.286262,-1.021843 2.448911,-1.447053 1.17774,-0.430729 1.48838,-0.63843 1.668274,-1.115444 0.06211,-0.164691 0.14854,-0.285259 0.244622,-0.341239 0.34985,-0.203833 4.497393,-0.907905 7.726967,-1.311702 1.390138,-0.1738104 5.234347,-0.5950017 5.793919,-0.6348115 0.246137,-0.017511 0.50895,-0.01642 0.58403,0.00242 0.07508,0.018844 0.290879,0.1741582 0.479554,0.3451428 0.188675,0.1709846 0.399046,0.3249363 0.46749,0.3421148 0.06844,0.017179 0.50383,-0.00574 0.967523,-0.050926 0.463693,-0.045188 1.205128,-0.1072663 1.647633,-0.1379516 1.502886,-0.1042167 4.016645,-0.3142188 4.409801,-0.3683994 0.415484,-0.057258 0.605812,-0.1699538 0.635368,-0.3762108 0.03019,-0.2106721 0.226638,-0.2474288 1.011,-0.1891635 1.555162,0.1155229 2.648228,0.306052 2.920031,0.508982 0.161613,0.1206614 0.289699,0.5138506 0.40081,1.2303732 0.09647,0.622115 0.06887,2.223338 -0.05815,3.37394 -0.387673,3.511612 -1.200213,7.292903 -1.567129,7.292903 -0.102574,0 -0.09387,-0.0515 0.346646,-2.050318 0.547841,-2.48582 0.735099,-3.576691 0.80181,-4.670927 0.04214,-0.691152 -0.04271,-0.590706 -0.152885,0.180991 -0.317153,2.221476 -1.017953,5.626795 -1.293871,6.28716 -0.210876,0.504695 -0.388339,0.281217 -0.293647,-0.369787 0.03114,-0.214116 0.161101,-0.949895 0.288795,-1.635064 0.482051,-2.586573 0.659556,-4.174914 0.667098,-5.96928 0.009,-2.149687 -0.15452,-2.582508 -1.082308,-2.8641458 -0.282872,-0.085868 -0.532855,-0.094224 -2.725106,-0.091086 -1.996714,0.00286 -2.664734,0.023318 -3.867056,0.1184414 -5.297881,0.4191484 -10.719333,1.1675474 -15.130826,2.0887194 -4.147589,0.866065 -5.786773,1.528018 -7.263334,2.933158 -1.113431,1.059574 -2.18571,2.749986 -3.355281,5.28949 -0.812628,1.76447 -1.353815,3.156874 -1.710211,4.400151 -0.202337,0.705843 -0.299884,0.865002 -0.678663,1.107304 -0.2720542,0.17403 -0.4548486,0.220507 -0.5108549,0.129887 l 0,0 z"
     id="path3764"
     inkscape:connector-curvature="0" />
  <path
     style="color:#000000;fill:#ffb380;fill-opacity:1;fill-rule:nonzero;stroke:#000000;stroke-width:0.05190678000000000;stroke-linecap:round;stroke-linejoin:round;stroke-miterlimit:4;stroke-opacity:1;stroke-dasharray:none;stroke-dashoffset:0;marker:none;visibility:visible;display:inline;overflow:visible;enable-background:accumulate"
     d="m 36.361651,9.295081 c -0.08174,-0.098487 0.193309,-0.3291108 0.437867,-0.3671479 0.09908,-0.01541 0.25606,-0.039213 0.348843,-0.052895 0.369064,-0.054423 2.209314,-0.1832073 3.386358,-0.2369842 1.552206,-0.070917 2.010248,-0.029571 1.931978,0.1743956 -0.05962,0.1553702 -0.703155,0.2350113 -3.433343,0.4248961 -2.170428,0.1509536 -2.58687,0.1599528 -2.671703,0.057735 z"
     id="path3766"
     inkscape:connector-curvature="0" />
  <path
     style="color:#000000;fill:#ffb380;fill-opacity:1;fill-rule:nonzero;stroke:#000000;stroke-width:0.05190678000000000;stroke-linecap:round;stroke-linejoin:round;stroke-miterlimit:4;stroke-opacity:1;stroke-dasharray:none;stroke-dashoffset:0;marker:none;visibility:visible;display:inline;overflow:visible;enable-background:accumulate"
     d="M 7.4891709,26.08279 C 7.1254391,25.782971 6.7274198,24.836779 6.2796495,23.207451 5.3490066,19.821069 4.4395959,14.990102 4.2234125,12.28432 4.1512154,11.380691 4.2015235,11.109619 4.489751,10.849223 5.1701738,10.234502 8.5835793,9.0082488 12.661337,7.9136119 c 2.042521,-0.5482961 4.965507,-1.248851 6.176907,-1.4804254 0.872763,-0.1668397 1.112235,-0.1552823 1.421287,0.068594 0.648841,0.4700178 2.064628,0.6900562 2.761759,0.4292263 0.31019,-0.1160572 0.578182,-0.3551869 0.669548,-0.5974389 0.03206,-0.084997 0.04422,-0.2690804 0.02743,-0.4152543 -0.01659,-0.1444153 -0.01074,-0.2913666 0.01299,-0.3265586 0.05154,-0.076424 0.54336,-0.1710648 1.802963,-0.3469412 2.492068,-0.3479633 3.597515,-0.4199421 6.410487,-0.4174048 2.235931,0.00202 2.468217,0.010716 3.154488,0.1181346 0.805933,0.126149 1.188764,0.2426469 1.27807,0.3889245 0.04724,0.077369 0.03163,0.1163651 -0.08826,0.2206039 C 36.10632,5.7139039 35.896241,5.7179646 35.162825,5.57684 34.241946,5.3996441 33.174006,5.3410319 32.143416,5.4111245 c -1.309318,0.089049 -2.586421,0.2757263 -2.586421,0.3780626 0,0.059667 -0.09001,0.063952 0.843012,-0.040125 1.04193,-0.1162251 4.031537,-0.1302018 4.581247,-0.021418 0.483208,0.095624 0.908369,0.2563105 0.908369,0.3433122 0,0.1230325 -0.262558,0.2855308 -0.461185,0.2854297 C 35.325229,6.356334 34.913774,6.321547 34.514092,6.2790821 31.56162,5.9653918 25.753475,6.6667414 18.993965,8.1531803 13.550641,9.3501854 8.3570718,10.946837 7.1052569,11.808108 c -0.3191361,0.219571 -0.4373332,0.487768 -0.4751507,1.078146 -0.07323,1.143212 0.2385298,3.303267 1.3312876,9.223936 0.4535945,2.45762 0.4779044,2.718476 0.3144253,3.373941 -0.1612852,0.646668 -0.2220188,0.752648 -0.4313185,0.752648 -0.1102311,0 -0.233127,-0.05326 -0.3553297,-0.153989 l 0,0 z M 6.1751787,16.968285 C 6.1022095,16.513229 5.94895,15.591996 5.8346021,14.921101 5.5886628,13.478142 5.4203416,12.254836 5.4203416,11.910387 c 0,-0.217541 0.023613,-0.270733 0.1946504,-0.438486 0.2382481,-0.233672 1.5211045,-0.868553 2.3103986,-1.143406 0.3071997,-0.106976 0.5713563,-0.215231 0.5870147,-0.240566 0.1181263,-0.1911328 -1.3193347,0.266375 -2.1319943,0.678561 -0.9654113,0.489662 -1.1157897,0.658699 -1.1157897,1.254236 0,0.656319 0.8060567,5.673859 0.9746,6.066688 0.088767,0.206891 0.055572,-0.373182 -0.064043,-1.119129 l 0,0 z"
     id="path3768"
     inkscape:connector-curvature="0" />
  <path
     style="color:#000000;fill:#ffb380;fill-opacity:1;fill-rule:nonzero;stroke:#000000;stroke-width:0.05190678000000000;stroke-linecap:round;stroke-linejoin:round;stroke-miterlimit:4;stroke-opacity:1;stroke-dasharray:none;stroke-dashoffset:0;marker:none;visibility:visible;display:inline;overflow:visible;enable-background:accumulate"
     d="M 38.560121,8.1798089 C 38.300362,8.1343708 38.092018,7.9893254 37.789083,7.643025 L 37.555416,7.375909 37.712771,7.1646595 c 0.08655,-0.1161872 0.243137,-0.3336025 0.347982,-0.4831451 0.104845,-0.1495427 0.206203,-0.2721725 0.22524,-0.2725106 0.05346,-9.496e-4 1.223568,1.2460674 1.377197,1.4677138 0.0806,0.1162831 0.116933,0.2148865 0.08893,0.2413392 -0.06533,0.061716 -0.934726,0.1067549 -1.191998,0.061752 l 0,0 z"
     id="path3770"
     inkscape:connector-curvature="0" />
  <path
     style="color:#000000;fill:#ffb380;fill-opacity:1;fill-rule:nonzero;stroke:#000000;stroke-width:0.05190678000000000;stroke-linecap:round;stroke-linejoin:round;stroke-miterlimit:4;stroke-opacity:1;stroke-dasharray:none;stroke-dashoffset:0;marker:none;visibility:visible;display:inline;overflow:visible;enable-background:accumulate"
     d="m 14.285448,14.328647 c -0.0571,-0.0571 -0.103813,-0.158005 -0.103813,-0.224238 0,-0.246327 0.568897,-0.757935 1.427436,-1.28369 0.950053,-0.581796 2.838809,-1.426003 3.491343,-1.560506 0.290739,-0.05993 0.33419,-0.05784 0.411868,0.01984 0.217775,0.217775 -0.201852,0.514112 -1.381805,0.97582 -1.330779,0.520726 -1.695595,0.733023 -2.495452,1.452175 -0.242665,0.21818 -0.543984,0.470427 -0.6696,0.560549 -0.269897,0.193637 -0.523951,0.216071 -0.679977,0.06005 z"
     id="path3778"
     inkscape:connector-curvature="0" />
  <path
     style="color:#000000;fill:#ffb380;fill-opacity:1;fill-rule:nonzero;stroke:#000000;stroke-width:0.05190678000000000;stroke-linecap:round;stroke-linejoin:round;stroke-miterlimit:4;stroke-opacity:1;stroke-dasharray:none;stroke-dashoffset:0;marker:none;visibility:visible;display:inline;overflow:visible;enable-background:accumulate"
     d="m 8.759322,26.080063 c -0.045831,-0.04583 -0.072444,-0.121745 -0.059139,-0.168697 0.013305,-0.04695 0.097577,-0.365664 0.1872717,-0.708249 0.5216952,-1.992592 1.7642073,-5.156038 3.0377403,-7.73411 0.562844,-1.13939 0.891083,-1.712087 1.08432,-1.891874 l 0.136549,-0.127042 0.109217,0.109217 c 0.166039,0.166039 0.107019,0.346772 -0.526131,1.611132 -0.95406,1.905197 -2.366821,5.329475 -3.228395,7.82505 -0.3996099,1.157482 -0.5088001,1.317206 -0.7414328,1.084573 z"
     id="path3780"
     inkscape:connector-curvature="0" />
  <path
     style="color:#000000;fill:#afdde9;fill-opacity:1;fill-rule:nonzero;stroke:#000000;stroke-width:0.01297669000000000;stroke-linecap:round;stroke-linejoin:round;stroke-miterlimit:4;stroke-opacity:1;stroke-dasharray:none;stroke-dashoffset:0;marker:none;visibility:visible;display:inline;overflow:visible;enable-background:accumulate"
     d="m 37.236391,8.3001027 c -0.100832,-0.023875 -0.15441,-0.1011954 -0.142618,-0.2058173 0.0084,-0.074086 0.04415,-0.1208715 0.110376,-0.1442726 0.04551,-0.01608 0.0634,-0.016284 0.122103,-0.00139 0.07401,0.018778 0.17093,0.0776 0.184007,0.1116788 0.01541,0.040161 0.0078,0.1034743 -0.01744,0.1448539 -0.04312,0.070725 -0.166224,0.1163059 -0.256425,0.094948 l 0,0 z"
     id="path3786"
     inkscape:connector-curvature="0" />
  <path
     style="color:#000000;fill:#c8b7b7;fill-opacity:1;fill-rule:nonzero;stroke:#000000;stroke-width:0.03670364000000000;stroke-linecap:round;stroke-linejoin:round;stroke-miterlimit:4;stroke-opacity:1;stroke-dasharray:none;stroke-dashoffset:0;marker:none;visibility:visible;display:inline;overflow:visible;enable-background:accumulate"
     d="M 8.684622,23.565072 C 8.4414494,22.798086 7.8555159,19.523464 7.3957616,16.361983 7.1378611,14.588542 7.0612332,13.878488 7.0391968,13.057967 L 7.0184778,12.286502 7.4914011,12.060017 C 9.2633668,11.211418 11.390117,10.507082 14.938015,9.5938505 19.535351,8.4104936 25.902651,7.166508 28.665175,6.9119623 c 1.608989,-0.1482562 4.671303,-0.2536489 5.597305,-0.192637 0.578287,0.038102 1.027702,0.1247427 1.027702,0.1981265 0,0.033715 -0.95268,1.352781 -1.062687,1.4713794 -0.0816,0.087968 -0.227094,0.1086141 -2.258992,0.3205488 -5.236275,0.5461633 -8.533946,1.0180139 -11.286369,1.614921 -1.995992,0.432864 -3.157172,0.821131 -4.399264,1.470996 -1.617569,0.846316 -2.744716,1.850567 -3.601312,3.208652 -0.714811,1.133295 -1.693454,3.096506 -2.460868,4.936639 -0.2770843,0.664403 -0.6710563,1.67817 -1.0804854,2.7803 -0.1968552,0.529909 -0.3713835,0.963471 -0.3878406,0.963471 -0.016457,0 -0.046941,-0.05368 -0.067742,-0.119287 l 0,0 z"
     id="path3788"
     inkscape:connector-curvature="0" />
  <path
     style="color:#000000;fill:#cccccc;fill-opacity:1;fill-rule:nonzero;stroke:#000000;stroke-width:0.07340727000000000;stroke-linecap:round;stroke-linejoin:round;stroke-miterlimit:4;stroke-opacity:1;stroke-dasharray:none;stroke-dashoffset:0;marker:none;visibility:visible;display:inline;overflow:visible;enable-background:accumulate"
     d="M 13.626658,48.785265 C 11.546025,48.528685 8.8206246,47.652275 6.5345429,46.504648 4.7012179,45.584308 2.2689059,43.772852 1.5380492,42.783529 0.94323373,41.978356 0.87990411,41.647895 1.0701804,40.342135 c 0.2017023,-1.384171 0.5596854,-2.774931 2.0595672,-8.001393 1.4708307,-5.12523 2.1781175,-7.880442 2.2801588,-8.88228 0.022617,-0.222057 0.058243,-0.486283 0.079168,-0.587169 0.036976,-0.178278 0.040998,-0.179391 0.1431831,-0.03965 0.057826,0.07908 0.2547557,0.616589 0.4376218,1.194461 0.1828662,0.577872 0.4464708,1.32095 0.585788,1.651283 L 6.9089712,26.278 6.695418,26.831876 c -0.2673317,0.693356 -0.535923,1.73325 -0.5009305,1.939431 0.018738,0.110404 0.052642,0.05945 0.1160055,-0.174336 0.2811899,-1.037487 0.6546106,-1.990125 0.820222,-2.092478 0.1431166,-0.08845 0.8123501,0.188987 0.8953641,0.371183 0.096888,0.212646 -0.00743,2.131943 -0.2730887,5.024622 -0.3718434,4.048834 -0.5281129,5.03923 -1.2567082,7.96469 -0.5042522,2.024676 -0.6710549,2.53255 -0.8317729,2.53255 -0.074464,0 -0.5597062,-0.0477 -1.078315,-0.106 -1.7651634,-0.198433 -2.0299788,-0.209055 -2.1908488,-0.08788 -0.3129612,0.235739 -0.028145,0.32712 1.8570023,0.595805 1.5249037,0.21734 1.7816758,0.331975 3.1346923,1.399478 2.5217468,1.989608 3.9507319,3.042789 4.1291589,3.043243 0.05047,1.47e-4 0.09176,-0.06233 0.09176,-0.138804 0,-0.188962 -0.748306,-0.845619 -3.1748643,-2.786022 C 6.5784896,42.83432 6.3960429,42.66865 6.3960429,42.467624 c 0,-0.12144 0.2289099,-1.136597 0.5086888,-2.255903 0.6291273,-2.516938 0.7595324,-3.192163 0.9926377,-5.139787 0.160322,-1.339509 0.5132061,-5.299151 0.6709114,-7.528162 L 8.6194248,26.820906 8.920824,26.69174 c 0.6497447,-0.278453 1.585559,-0.54704 1.657021,-0.475578 0.132551,0.132551 0.230535,1.085772 0.27393,2.664902 0.03287,1.196223 0.06241,1.536125 0.12437,1.431442 0.14361,-0.242614 0.08999,-2.651324 -0.08065,-3.622839 l -0.148048,-0.842897 0.494905,-1.480218 c 1.850047,-5.533333 4.132028,-9.141105 6.51765,-10.304288 3.264968,-1.591936 15.954691,-3.627516 23.651312,-3.793947 3.819893,-0.0826 3.977162,0.0014 4.025492,2.151194 0.03996,1.777335 -0.169854,3.565139 -0.825984,7.038254 -0.332814,1.761693 -0.448853,4.586461 -0.198164,4.823935 0.08376,0.07934 0.09175,-0.104574 0.05022,-1.156125 -0.06563,-1.661779 0.0045,-1.842597 0.405928,-1.047292 0.326562,0.646917 1.36788,3.314618 2.100385,5.380875 1.892729,5.339024 2.294738,7.267102 1.682267,8.068335 -0.916257,1.198647 -3.627834,2.899167 -6.836404,4.287337 -1.49681,0.647585 -2.774664,1.111973 -3.064754,1.113768 -0.208169,0.0013 -0.14961,-0.150304 0.283261,-0.733279 0.794771,-1.070369 2.005853,-3.203635 2.100843,-3.70054 0.06531,-0.341662 -0.09994,-0.09614 -0.712043,1.057878 -1.006357,1.897335 -1.736054,2.849948 -2.901633,3.788054 -0.383553,0.3087 -1.061878,0.886123 -1.507389,1.283162 -1.1664,1.039495 -1.656542,1.418848 -2.139844,1.656165 l -0.42687,0.209607 -1.504849,-0.0018 c -1.59605,-0.0019 -2.597795,-0.109741 -4.127442,-0.444273 -1.22873,-0.268721 -1.71791,-0.508298 -2.835007,-1.388449 -0.53851,-0.424287 -0.993333,-0.771431 -1.010719,-0.771431 -0.01739,0 0.02331,0.08382 0.09043,0.186262 0.191876,0.29284 1.35322,1.233499 2.044175,1.655729 0.830398,0.507441 0.84717,0.530857 0.582778,0.81363 -0.356941,0.381757 -1.687288,1.338562 -2.688881,1.933885 -2.033596,1.20872 -3.932278,1.910145 -5.966016,2.204011 -0.883663,0.127686 -3.687472,0.196476 -4.404437,0.10806 z M 45.016676,30.860602 c -0.163617,-0.681464 -0.364323,-1.194507 -0.735122,-1.879115 -0.40954,-0.756136 -0.981882,-1.212549 -1.829553,-1.458974 -0.516473,-0.150142 -1.303755,-0.101436 -2.288614,0.141588 l -0.697369,0.172084 0.513851,0.05503 c 0.914994,0.09799 2.339163,0.332182 2.732783,0.44939 0.48364,0.144014 1.126424,0.72207 1.493121,1.342768 0.144051,0.243831 0.408317,0.834131 0.587258,1.311777 0.368038,0.982402 0.476197,0.917333 0.223645,-0.134545 l 0,0 z M 23.821982,29.481667 c 0.60793,-0.984923 1.97988,-2.203486 2.780098,-2.469275 0.464859,-0.154402 1.656442,-0.105195 2.660153,0.109851 0.363271,0.07783 0.674036,0.127966 0.690591,0.111412 0.06689,-0.06689 -1.280657,-0.635784 -1.842542,-0.777873 -1.166942,-0.295095 -2.022198,-0.06818 -2.845295,0.75492 -0.447528,0.447528 -1.062273,1.320167 -1.441996,2.046935 -0.40865,0.782132 -0.409115,0.885214 -10e-4,0.22403 l -3e-6,0 z m 6.431423,-4.954178 c 0.580275,-0.42661 1.14784,-0.71978 1.728909,-0.89305 0.583173,-0.173898 1.706696,-0.175536 2.161677,-0.0032 0.436565,0.165405 1.133084,0.593161 1.534546,0.942415 0.17783,0.154703 0.338139,0.266465 0.356245,0.24836 0.05989,-0.05989 -0.525519,-0.707523 -0.969233,-1.072243 -1.287341,-1.058158 -2.699288,-1.209921 -3.855629,-0.414421 -0.785021,0.540052 -2.345966,2.104403 -2.350142,2.355272 -5.87e-4,0.03668 0.205347,-0.131102 0.457685,-0.372848 0.252337,-0.241747 0.673511,-0.597395 0.935942,-0.790332 l 0,3e-6 z"
     id="path3790"
     inkscape:connector-curvature="0" />
</svg>
