<?xml version="1.0" encoding="UTF-8" standalone="no"?>
<!-- Created with Inkscape (http://www.inkscape.org/) -->

<svg
   xmlns:dc="http://purl.org/dc/elements/1.1/"
   xmlns:cc="http://creativecommons.org/ns#"
   xmlns:rdf="http://www.w3.org/1999/02/22-rdf-syntax-ns#"
   xmlns:svg="http://www.w3.org/2000/svg"
   xmlns="http://www.w3.org/2000/svg"
   xmlns:sodipodi="http://sodipodi.sourceforge.net/DTD/sodipodi-0.dtd"
   xmlns:inkscape="http://www.inkscape.org/namespaces/inkscape"
   id="svg2"
   version="1.1"
   inkscape:version="0.48.5 r10040"
   width="50"
   height="85"
   sodipodi:docname="trunk11.svg">
  <metadata
     id="metadata8">
    <rdf:RDF>
      <cc:Work
         rdf:about="">
        <dc:format>image/svg+xml</dc:format>
        <dc:type
           rdf:resource="http://purl.org/dc/dcmitype/StillImage" />
        <dc:title />
      </cc:Work>
    </rdf:RDF>
  </metadata>
  <defs
     id="defs6" />
  <sodipodi:namedview
     pagecolor="#ffffff"
     bordercolor="#666666"
     borderopacity="1"
     objecttolerance="10"
     gridtolerance="10"
     guidetolerance="10"
     inkscape:pageopacity="0"
     inkscape:pageshadow="2"
     inkscape:window-width="1680"
     inkscape:window-height="974"
     id="namedview4"
     showgrid="false"
     inkscape:zoom="6.3355704"
     inkscape:cx="19.805985"
     inkscape:cy="35.37795"
     inkscape:window-x="1366"
     inkscape:window-y="24"
     inkscape:window-maximized="1"
     inkscape:current-layer="svg2" />
  <path
     style="fill:#464646;fill-opacity:1"
     d="M 10.73505,77.755034 C 3.4192496,71.866767 1.72942,70.381196 1.5857637,69.711677 1.4888542,69.260024 1.2737907,64.265299 1.1078444,58.61229 0.94189918,52.95928 0.62474684,43.181568 0.40306312,36.884044 L 0,25.433998 2.5517223,19.610959 C 3.9551689,16.408287 5.1913693,13.595203 5.2988342,13.35966 5.9090515,12.022182 7.6320131,11.371853 25.387558,5.7772033 35.194465,2.6871149 43.413134,0.09856275 43.651262,0.02486529 c 0.775212,-0.23991282 2.576125,1.30709411 2.853883,2.45151251 0.137936,0.5683375 0.602618,2.5507334 1.032641,4.4053235 l 0.781842,3.3719827 -0.573161,0.235524 c -0.315243,0.129539 -2.057393,0.713552 -3.871467,1.297806 -1.814063,0.584254 -3.336968,1.101143 -3.384238,1.148641 -0.04723,0.04749 2.07297,6.612512 4.711643,14.588917 L 50,42.027127 49.716769,46.322632 c -0.155779,2.362527 -0.407366,6.672336 -0.559092,9.577355 -0.151715,2.905018 -0.338189,5.822103 -0.414386,6.482412 l -0.138545,1.20056 -14.052071,10.324559 c -7.728635,5.678509 -14.184035,10.50219 -14.345346,10.719297 -0.161301,0.217104 -0.339607,0.384759 -0.396233,0.372559 -0.05662,-0.01219 -4.140848,-3.27215 -9.076046,-7.24434 z m 23.069114,-4.1859 c 7.50237,-5.513692 13.778735,-10.171001 13.947476,-10.349576 0.198725,-0.210306 0.513309,-4.004526 0.893017,-10.77058 L 49.230879,42.003082 44.507554,27.683978 C 41.909721,19.80847 39.665354,13.358395 39.520069,13.350476 38.861914,13.314602 6.6322625,24.071575 6.6322625,24.327109 c 0,0.158385 2.9820131,7.081516 6.6266955,15.384733 l 6.626697,15.09676 -0.03345,14.392712 c -0.01837,7.915992 0.04413,14.392711 0.138914,14.392711 0.09476,0 6.310625,-4.511202 13.812995,-10.024891 z M 12.499994,39.728356 C 5.3099337,23.31166 5.4072187,23.588159 5.0832694,18.648995 L 4.9152282,16.086928 2.8329977,20.790287 0.75076822,25.493646 1.4683366,47.477573 c 0.3946636,12.09116 0.7496668,22.018696 0.7888978,22.061193 0.039232,0.0425 1.9014801,-0.08598 4.1383317,-0.285505 L 10.462568,68.890489 10.533084,61.71443 10.6036,54.538374 7.8453192,40.874843 C 6.3282697,33.359901 5.137541,27.156738 5.1992566,27.090036 c 0.061719,-0.0667 0.1673242,-0.06171 0.2346865,0.01109 0.06736,0.07281 1.3749489,6.336132 2.90575,13.918509 l 2.7832729,13.786132 0,7.1286 0,7.128599 3.896346,7.114839 3.89635,7.114841 0.221981,-13.951028 0.221981,-13.951029 -6.85963,-15.662238 z M 17.692603,82.09512 C 17.378019,81.457781 10.851171,69.515015 10.75634,69.403197 c -0.108396,-0.127812 -7.8066401,0.659967 -7.9485999,0.8134 -0.1185284,0.128106 14.8166739,12.483319 15.1266149,12.513559 0.04144,0.0041 -0.0673,-0.281723 -0.241752,-0.635036 z m 6.691201,-64.992155 c 8.237821,-2.68693 15.177315,-4.885326 15.421084,-4.885326 0.493609,0 7.26581,-2.212757 7.479683,-2.4439202 0.07459,-0.080656 -0.25669,-1.8736161 -0.73626,-3.984356 C 45.720577,2.1461926 45.63108,1.9213984 44.782866,1.3548086 L 43.889349,0.75796394 25.591006,6.5149276 C 10.123426,11.381286 7.1823539,12.389157 6.5796295,13.029906 l -0.7130301,0.758013 0.5234908,4.139831 c 0.2879196,2.276906 0.5717183,4.290243 0.630664,4.47408 0.080711,0.251706 0.3884548,0.241916 1.2461766,-0.03965 0.6264513,-0.205642 7.8790422,-2.572291 16.1168732,-5.25922 z M 5.8663528,19.622979 C 5.6222572,18.962577 5.608258,18.958646 5.5923695,19.546056 c -0.00919,0.340469 0.068898,0.85438 0.1735709,1.142021 0.1565682,0.430249 0.2051512,0.443889 0.2739833,0.07692 0.046022,-0.245334 -0.032093,-0.759244 -0.1735709,-1.142021 z"
     id="path3008"
     inkscape:connector-curvature="0" />
  <path
     style="color:#000000;fill:#ffccaa;fill-opacity:1;fill-rule:nonzero;stroke:#ffccaa;stroke-width:0.05580451;stroke-linecap:round;stroke-linejoin:round;stroke-miterlimit:4;stroke-opacity:1;stroke-dasharray:none;stroke-dashoffset:0;marker:none;visibility:visible;display:inline;overflow:visible;enable-background:accumulate"
     d="m 20.006653,82.789433 c -0.03871,-0.322271 -0.07082,-6.763664 -0.07135,-14.314206 l -9.7e-4,-13.728258 -2.965994,-6.751996 C 11.045396,34.51157 6.7644687,24.616135 6.7644687,24.408553 c 0,-0.146545 3.5430113,-1.390034 13.4488863,-4.720149 6.492744,-2.182704 16.204989,-5.365675 17.989063,-5.895515 l 1.26868,-0.376776 0.175879,0.408741 c 0.504809,1.173175 1.89107,5.221468 5.524419,16.132929 l 4.009497,12.041091 -0.28341,5.035088 c -0.490656,8.717039 -0.937517,15.0635 -1.117981,15.877901 -0.03482,0.157113 -1.315304,1.181851 -3.709043,2.968237 -8.434713,6.294611 -23.764328,17.49528 -23.944632,17.49528 -0.02684,0 -0.08047,-0.263676 -0.119174,-0.585947 z"
     id="path2982"
     inkscape:connector-curvature="0" />
  <path
     style="color:#000000;fill:#ffccaa;fill-opacity:1;fill-rule:nonzero;stroke:#ffccaa;stroke-width:0.05580451;stroke-linecap:round;stroke-linejoin:round;stroke-miterlimit:4;stroke-opacity:1;stroke-dasharray:none;stroke-dashoffset:0;marker:none;visibility:visible;display:inline;overflow:visible;enable-background:accumulate"
     d="M 7.1518174,22.431546 C 7.0653728,22.291675 6.4684603,18.172847 6.1466764,15.495851 L 5.9495936,13.856274 6.2733244,13.470208 C 6.4513763,13.257873 6.8291077,12.953943 7.1127274,12.794809 8.3429819,12.104537 12.688293,10.651312 27.133114,6.0992892 31.123136,4.8419063 36.522223,3.1396603 39.131083,2.3165205 l 4.743384,-1.49661777 0.659774,0.45674107 c 0.76371,0.528693 0.977608,0.8374466 1.287911,1.8590519 0.501408,1.6507746 1.490168,6.4540824 1.357371,6.5939819 -0.21564,0.227172 -3.733817,1.3717044 -9.052921,2.9450944 -2.58249,0.763899 -11.392815,3.591642 -23.408457,7.513128 -3.758986,1.226802 -6.9811,2.262742 -7.1602544,2.302091 -0.2002017,0.04397 -0.3566964,0.02145 -0.4060732,-0.05844 l 0,0 z"
     id="path2984"
     inkscape:connector-curvature="0" />
  <path
     style="color:#000000;fill:#ffccaa;fill-opacity:1;fill-rule:nonzero;stroke:#ffccaa;stroke-width:0.05580451;stroke-linecap:round;stroke-linejoin:round;stroke-miterlimit:4;stroke-opacity:1;stroke-dasharray:none;stroke-dashoffset:0;marker:none;visibility:visible;display:inline;overflow:visible;enable-background:accumulate"
     d="m 14.990436,75.979155 -3.761607,-6.869369 0,-7.04154 0,-7.04154 -1.5025453,-7.44991 C 6.3254504,30.714811 5.5365961,27.012827 5.3443162,27.012827 c -0.078306,0 -0.1423738,0.105867 -0.1423738,0.235259 0,0.487655 0.8598686,4.96926 3.0723658,16.013067 l 2.2825208,11.393334 -0.07293,7.105861 c -0.06551,6.382368 -0.09096,7.10589 -0.249947,7.106154 -0.09736,1.11e-4 -1.5832879,0.125366 -3.3020668,0.278233 -1.7187789,0.152867 -3.4572874,0.278294 -3.8633524,0.278729 l -0.7382997,7.89e-4 -0.072307,-1.478819 C 2.1042267,64.802057 1.5754704,49.406921 1.0034798,31.421383 L 0.81535736,25.506105 2.8049166,21.014726 C 3.8991743,18.544467 4.8141295,16.543 4.8381504,16.567021 c 0.024021,0.02402 0.1155488,1.04066 0.203395,2.259199 0.3603584,4.998629 0.032854,4.127214 10.7105576,28.4984 l 3.544722,8.090606 -0.194696,13.449934 c -0.107083,7.397465 -0.229659,13.569956 -0.272392,13.716649 -0.06432,0.220795 -0.725309,-0.915945 -3.839301,-6.602654 l 0,0 z"
     id="path2986"
     inkscape:connector-curvature="0" />
  <path
     style="color:#000000;fill:#ffccaa;fill-opacity:1;fill-rule:nonzero;stroke:#ffccaa;stroke-width:0.05580451;stroke-linecap:round;stroke-linejoin:round;stroke-miterlimit:4;stroke-opacity:1;stroke-dasharray:none;stroke-dashoffset:0;marker:none;visibility:visible;display:inline;overflow:visible;enable-background:accumulate"
     d="M 16.865085,81.844042 C 11.902323,77.826111 6.508683,73.36181 4.0932284,71.27281 L 2.9287099,70.265679 3.7025968,70.136482 C 4.6260955,69.982308 8.8421294,69.56136 9.9398825,69.513724 l 0.7758205,-0.03367 3.052671,5.580451 c 1.67897,3.069248 3.278663,5.994799 3.554875,6.501225 0.276211,0.506426 0.461904,0.919437 0.41265,0.917803 -0.04925,-0.0016 -0.44112,-0.287607 -0.870814,-0.635495 l 0,0 z"
     id="path2988"
     inkscape:connector-curvature="0" />
  <path
     style="color:#000000;fill:#ffb380;fill-opacity:1;fill-rule:nonzero;stroke:#ffb380;stroke-width:0.01972987000000000;stroke-linecap:round;stroke-linejoin:round;stroke-miterlimit:4;stroke-opacity:1;stroke-dasharray:none;stroke-dashoffset:0;marker:none;visibility:visible;display:inline;overflow:visible;enable-background:accumulate"
     d="M 5.8225802,20.764315 C 5.6991903,20.434526 5.6196088,19.93819 5.6233255,19.521599 l 0.00339,-0.380373 0.1101484,0.236758 c 0.2154309,0.463058 0.3376392,1.192725 0.2527909,1.509335 -0.037183,0.13875 -0.081294,0.106276 -0.1670782,-0.123004 z"
     id="path2990"
     inkscape:connector-curvature="0" />
  <path
     style="color:#000000;fill:#ffb380;fill-opacity:1;fill-rule:nonzero;stroke:#464646;stroke-width:0.6;stroke-linecap:round;stroke-linejoin:round;stroke-miterlimit:4;stroke-opacity:1;stroke-dasharray:none;stroke-dashoffset:0;marker:none;visibility:visible;display:inline;overflow:visible;enable-background:accumulate"
     d="M 20.088992,74.092994 C 20.007856,69.113839 19.941471,62.665135 19.941471,59.762537 l 0,-5.277452 -3.810589,-8.692898 C 9.205307,29.993236 6.9629315,24.653294 7.1680115,24.448214 7.551994,24.064232 25.694206,17.927678 39.079013,13.654405 c 0.15159,-0.0484 0.381007,0.108927 0.509815,0.349609 0.12881,0.240682 2.289975,6.582928 4.802594,14.093878 4.009569,11.985788 4.568393,13.827915 4.568393,15.05944 0,1.645689 -0.813042,14.683405 -1.097679,17.602041 -0.195675,2.00644 -0.196561,2.008599 -1.190942,2.901835 C 45.682204,64.5496 31.995278,74.68046 24.274331,80.239037 l -4.037817,2.906962 -0.147522,-9.053005 z"
     id="path2992"
     inkscape:connector-curvature="0" />
  <path
     style="color:#000000;fill:#ffb380;fill-opacity:1;fill-rule:nonzero;stroke:#464646;stroke-width:0.40000000000000002;stroke-linecap:round;stroke-linejoin:round;stroke-miterlimit:4;stroke-opacity:1;stroke-dasharray:none;stroke-dashoffset:0;marker:none;visibility:visible;display:inline;overflow:visible;enable-background:accumulate"
     d="M 18.019503,81.18485 C 17.637654,80.509616 15.955148,77.470864 14.2806,74.432067 l -3.044632,-5.525084 0,-7.247932 0,-7.247934 L 8.6676328,41.848886 C 6.1586231,29.576828 5.5606709,26.942868 5.2837213,26.942868 c -0.2824659,0 0.2305537,2.919057 2.6098606,14.849984 l 2.4495141,12.282976 0,7.165464 c 0,5.466143 -0.06617,7.217677 -0.279023,7.385624 C 9.7181422,68.899867 2.7223647,69.420007 2.5185392,69.187932 2.4371629,69.095277 2.0443866,59.225776 1.6457029,47.255709 L 0.92082347,25.491951 2.7850051,21.362768 c 2.1116461,-4.67732 1.9051217,-4.63959 2.3933834,-0.437249 0.3548772,3.054335 1.1745265,5.152612 9.2826045,23.763183 l 4.765228,10.937683 -0.197913,11.38412 c -0.108852,6.261266 -0.224153,12.288153 -0.256224,13.393082 l -0.05831,2.008962 -0.694269,-1.227699 z"
     id="path2994"
     inkscape:connector-curvature="0" />
  <path
     style="color:#000000;fill:#ffb380;fill-opacity:1;fill-rule:nonzero;stroke:#464646;stroke-width:0.6;stroke-linecap:round;stroke-linejoin:round;stroke-miterlimit:4;stroke-opacity:1;stroke-dasharray:none;stroke-dashoffset:0;marker:none;visibility:visible;display:inline;overflow:visible;enable-background:accumulate"
     d="m 10.151206,76.131115 c -3.8171733,-3.16025 -6.9176269,-5.767578 -6.8898968,-5.794062 0.093565,-0.08936 7.3424348,-0.796688 7.3988258,-0.72196 0.341532,0.452589 6.583599,12.10972 6.519004,12.174314 -0.04819,0.04819 -3.210759,-2.498041 -7.027933,-5.658292 z"
     id="path2996"
     inkscape:connector-curvature="0" />
  <path
     style="color:#000000;fill:#ffb380;fill-opacity:1;fill-rule:nonzero;stroke:#464646;stroke-width:0.6;stroke-linecap:round;stroke-linejoin:round;stroke-miterlimit:4;stroke-opacity:1;stroke-dasharray:none;stroke-dashoffset:0;marker:none;visibility:visible;display:inline;overflow:visible;enable-background:accumulate"
     d="M 7.3427144,22.276425 C 7.2715473,22.161274 6.9509774,20.24556 6.6303368,18.019282 L 6.0473539,13.971505 6.558203,13.427731 C 7.251395,12.689861 8.9736844,12.056955 19.495035,8.673709 36.941875,3.0635019 43.61154,1.0223354 44.045954,1.1602125 c 0.880867,0.2795763 1.491674,1.3768005 2.085338,3.7459891 0.322294,1.2862147 0.650288,2.8856498 0.728874,3.5542998 L 47.003052,9.6762288 45.693448,10.1505 c -0.72028,0.260849 -2.966996,0.989931 -4.9927,1.62018 -5.145392,1.600868 -32.8914436,10.512554 -33.0766494,10.623809 -0.083594,0.05022 -0.2102171,-0.0029 -0.2813842,-0.118064 z"
     id="path2998"
     inkscape:connector-curvature="0" />
</svg>
