<?xml version="1.0" encoding="UTF-8" standalone="no"?>
<!-- Created with Inkscape (http://www.inkscape.org/) -->

<svg
   xmlns:dc="http://purl.org/dc/elements/1.1/"
   xmlns:cc="http://creativecommons.org/ns#"
   xmlns:rdf="http://www.w3.org/1999/02/22-rdf-syntax-ns#"
   xmlns:svg="http://www.w3.org/2000/svg"
   xmlns="http://www.w3.org/2000/svg"
   xmlns:sodipodi="http://sodipodi.sourceforge.net/DTD/sodipodi-0.dtd"
   xmlns:inkscape="http://www.inkscape.org/namespaces/inkscape"
   id="svg2"
   version="1.1"
   inkscape:version="0.48.5 r10040"
   width="90"
   height="90"
   sodipodi:docname="trunk6.svg">
  <metadata
     id="metadata8">
    <rdf:RDF>
      <cc:Work
         rdf:about="">
        <dc:format>image/svg+xml</dc:format>
        <dc:type
           rdf:resource="http://purl.org/dc/dcmitype/StillImage" />
        <dc:title />
      </cc:Work>
    </rdf:RDF>
  </metadata>
  <defs
     id="defs6" />
  <sodipodi:namedview
     pagecolor="#ffffff"
     bordercolor="#666666"
     borderopacity="1"
     objecttolerance="10"
     gridtolerance="10"
     guidetolerance="10"
     inkscape:pageopacity="0"
     inkscape:pageshadow="2"
     inkscape:window-width="1366"
     inkscape:window-height="740"
     id="namedview4"
     showgrid="false"
     inkscape:zoom="2.8284271"
     inkscape:cx="20.689566"
     inkscape:cy="69.320939"
     inkscape:window-x="0"
     inkscape:window-y="36"
     inkscape:window-maximized="1"
     inkscape:current-layer="svg2" />
  <path
     style="color:#000000;fill:#abc837;fill-opacity:1;fill-rule:nonzero;stroke:#464646;stroke-width:0.17003521;stroke-linecap:round;stroke-linejoin:round;stroke-miterlimit:4;stroke-opacity:1;stroke-dasharray:none;stroke-dashoffset:0;marker:none;visibility:visible;display:inline;overflow:visible;enable-background:accumulate"
     d="m 30.150405,87.296034 c 4.892329,-1.70435 6.289004,-2.32666 6.730154,-2.998724 0.453509,-0.690892 0.563734,-3.161492 0.160907,-3.60661 -0.161488,-0.178442 -2.350079,-1.338398 -4.863535,-2.577679 -2.513456,-1.239282 -4.541429,-2.281733 -4.506604,-2.316557 0.03482,-0.03482 2.070089,0.824006 4.522812,1.90851 2.452723,1.084505 4.618874,1.988383 4.813668,2.008619 0.28862,0.02998 0.37734,-0.08909 0.479359,-0.643349 0.06885,-0.374077 0.129599,-1.109427 0.134989,-1.634111 0.01375,-1.338774 0.197765,-2.54074 0.372444,-2.432783 0.0811,0.05013 0.147461,2.078434 0.147461,4.507353 0,3.800928 0.03613,4.430082 0.259314,4.515726 0.556909,0.213705 5.15565,-1.657854 6.505953,-2.647741 0.900942,-0.66047 1.146428,-1.215951 0.818025,-1.851014 -0.23322,-0.450996 -0.228305,-0.458639 0.294553,-0.458039 0.712367,8.17e-4 0.749408,-0.215244 0.772378,-4.505324 0.02227,-4.159471 -0.199534,-6.960406 -0.678567,-8.568911 -0.256838,-0.862415 -0.323055,-1.415007 -0.245061,-2.045093 0.07124,-0.575533 -0.004,-1.401908 -0.225762,-2.478707 -0.182947,-0.888434 -0.460769,-2.571782 -0.617381,-3.740774 -0.156612,-1.168993 -0.43043,-2.460359 -0.608484,-2.869705 -0.178055,-0.409345 -0.323736,-1.112054 -0.323736,-1.561574 0,-1.564657 -1.951521,-10.183015 -2.70256,-11.935119 -0.185307,-0.432304 -0.494713,-0.943797 -0.687568,-1.136653 -0.192856,-0.192855 -0.350647,-0.526956 -0.350647,-0.742445 0,-1.075893 -1.669429,-2.668835 -2.796983,-2.668835 -1.097925,0 -3.547523,1.338848 -4.071013,2.225047 -0.387236,0.655539 -0.340518,1.770878 0.169467,4.045783 0.4557,2.032754 0.79,2.911071 1.107994,2.911071 0.100061,0 0.405154,-0.158949 0.677983,-0.353221 l 0.496054,-0.353222 -0.444126,0.820819 c -0.416414,0.7696 -0.437938,0.920751 -0.344949,2.422352 0.07734,1.24886 0.171045,1.679459 0.425537,1.955404 0.207045,0.224499 0.39652,0.820098 0.518271,1.629136 0.105551,0.701395 0.372091,1.88739 0.592309,2.635545 0.31025,1.05402 0.40211,1.781393 0.408002,3.230669 0.0071,1.755609 0.509355,5.846457 0.892372,7.268873 0.175203,0.650657 0.442378,0.796103 0.801924,0.436557 0.272234,-0.272233 0.385073,-0.121783 0.261907,0.349204 -0.05583,0.21351 -0.282347,0.456951 -0.503361,0.540981 -0.360683,0.137132 -0.400574,0.253363 -0.389432,1.134693 0.01447,1.144286 0.218754,2.715055 0.373195,2.869497 0.05893,0.05893 0.321462,0.0296 0.583414,-0.06517 1.186738,-0.429327 1.181286,-0.429254 0.712062,-0.0095 -0.244395,0.218636 -0.687492,0.529663 -0.984659,0.691167 -0.532763,0.289548 -0.539748,0.309798 -0.500535,1.450955 0.03819,1.111452 -0.06401,1.571086 -0.349352,1.571086 -0.07337,0 -0.183061,-1.243382 -0.243767,-2.763072 -0.110398,-2.763674 -0.626913,-7.015649 -0.983479,-8.096055 -0.202833,-0.61459 -0.802074,-0.94604 -4.984191,-2.75684 -0.928911,-0.402206 -1.605294,-0.759161 -1.503072,-0.793236 0.102221,-0.03407 1.419195,0.40123 2.926608,0.96734 1.507413,0.566115 2.929825,1.029297 3.160916,1.029297 0.393737,0 0.420052,-0.05615 0.418364,-0.892685 -0.0045,-2.250899 -1.687045,-11.097129 -2.402571,-12.632183 -0.176179,-0.377966 -0.533284,-0.813008 -0.793568,-0.966761 -0.260283,-0.153754 -2.15312,-0.929592 -4.206304,-1.724086 -4.531595,-1.753532 -5.547591,-2.175606 -5.456435,-2.266763 0.0385,-0.0385 1.97233,0.616178 4.297393,1.454849 4.400308,1.587228 5.512021,1.941805 5.65135,1.802475 0.165465,-0.165465 -0.538731,-3.438831 -1.125474,-5.231624 -0.48018,-1.467186 -0.744783,-1.996168 -1.311774,-2.622429 -0.694571,-0.767178 -0.738177,-0.786903 -1.973928,-0.89294 -1.098506,-0.09426 -1.208107,-0.132184 -0.838578,-0.290159 0.233798,-0.09995 0.57812,-0.21087 0.765158,-0.246491 0.203992,-0.03885 0.363092,-0.226925 0.397604,-0.470011 0.05379,-0.378892 0.01496,-0.399535 -0.597113,-0.317439 -1.324928,0.17771 -5.962014,2.267248 -7.792145,3.511253 -2.433235,1.653956 -4.10429,3.958014 -4.762709,6.566842 -0.361058,1.430613 -0.649646,5.602688 -0.538894,7.790692 0.09742,1.924469 0.29824,2.498639 0.744424,2.128339 0.707755,-0.587384 1.030885,-1.958608 1.656256,-7.028432 0.446354,-3.618553 0.843951,-5.843211 1.154785,-6.461338 0.490122,-0.974653 2.111116,-2.255342 4.170357,-3.294843 1.222555,-0.617143 3.138185,-1.401544 3.220868,-1.318861 0.03393,0.03394 -0.785428,0.503624 -1.820807,1.043753 -3.20407,1.671476 -3.909522,2.274901 -3.39057,2.900201 0.177095,0.213385 0.09157,0.244767 -0.596157,0.218754 -0.893566,-0.0338 -1.106028,0.14799 -1.110214,0.949926 -0.0014,0.274412 -0.156242,0.816304 -0.344021,1.204205 -0.244157,0.504359 -0.485955,1.863836 -0.848785,4.772161 -0.645256,5.172151 -0.738966,5.605109 -1.474159,6.810903 -1.439805,2.361432 -1.610609,3.501608 -0.73208,4.886907 0.457176,0.720888 0.471875,0.78131 0.132203,0.543395 -0.473763,-0.331837 -1.051265,-0.34452 -1.313254,-0.02884 -0.154431,0.186078 -0.121609,0.364492 0.148579,0.807667 0.19603,0.321535 0.347016,0.864518 0.347298,1.248971 l 5.1e-4,0.680141 -0.483042,-1.020211 c -0.265675,-0.561116 -0.60755,-1.123244 -0.759723,-1.249174 -0.249685,-0.206627 -0.219136,-0.283233 0.313144,-0.785236 0.54406,-0.513115 0.589617,-0.633866 0.587216,-1.556407 -0.0048,-1.836652 -0.501877,-1.883206 -1.472858,-0.137934 -0.308498,0.554503 -0.562562,1.237735 -0.564583,1.518293 -0.0023,0.323474 -0.222294,0.785129 -0.601202,1.261804 -0.328639,0.413434 -0.643927,0.936576 -0.700639,1.16254 -0.127137,0.50655 0.395857,1.268983 0.978762,1.426862 1.797697,0.486904 1.934574,0.564512 2.504243,1.419886 0.311412,0.467597 0.617476,0.86922 0.68014,0.892496 0.06266,0.02328 0.327226,-0.337433 0.587918,-0.801578 0.482066,-0.858294 0.892997,-1.301482 0.683709,-0.737382 -0.06252,0.168517 -0.296446,0.585902 -0.519831,0.927523 -0.728292,1.113763 -0.971008,2.451422 -1.291096,7.115472 -0.02888,0.420837 -0.06811,0.114774 -0.08718,-0.680141 -0.05823,-2.427543 -0.344935,-5.800863 -0.544402,-6.405256 -0.438987,-1.330142 -2.879004,-1.587359 -3.757991,-0.396152 -0.581887,0.788576 -1.334145,7.703506 -1.33288,12.252152 5.1e-4,1.931655 0.04983,2.36653 0.318114,2.806477 0.315009,0.516586 3.282387,2.625033 3.694399,2.625033 0.280718,0 0.3769,-0.332077 0.754948,-2.60653 l 0.315707,-1.899403 -0.08958,2.720563 -0.08958,2.720563 2.096116,1.203064 c 3.171543,1.820305 5.178909,2.61593 6.612059,2.62071 0.937822,0.0031 1.186089,-0.298333 1.620633,-1.967872 l 0.394538,-1.515831 -0.0993,1.742861 c -0.05461,0.958573 -0.07031,1.733697 -0.03489,1.722495 0.03543,-0.0112 2.015567,-0.700091 4.400311,-1.530869 z m 9.22441,-4.687243 c 0.163659,-0.04277 0.431464,-0.04277 0.595123,0 0.163659,0.04277 0.02976,0.07776 -0.297562,0.07776 -0.327317,0 -0.46122,-0.03499 -0.297561,-0.07776 z M 12.339217,81.428583 c -0.617796,-0.165561 -0.439356,-0.402934 0.302897,-0.402934 0.783747,0 0.99861,-0.292421 0.698629,-0.950808 -0.263046,-0.577324 -0.633182,-0.676249 -1.314542,-0.35133 -0.495544,0.236308 -0.579669,0.240379 -0.579669,0.02804 0,-0.364275 0.772483,-0.813902 1.177485,-0.685359 0.931786,0.295737 1.353623,1.71558 0.655068,2.204867 -0.426578,0.298786 -0.418069,0.297359 -0.939868,0.157522 l 0,0 z m 14.115466,-2.400848 c 0.03503,-0.444217 0.06368,-0.08077 0.06368,0.807668 0,0.888433 -0.02866,1.251884 -0.06368,0.807667 -0.03503,-0.444217 -0.03503,-1.171118 0,-1.615335 z m 17.789864,0.758434 c 0.294211,-0.294212 0.406076,-0.01559 0.167521,0.417249 -0.196429,0.356404 -0.225641,0.364767 -0.284775,0.08152 -0.03624,-0.173592 0.01652,-0.398039 0.117254,-0.498769 l 0,0 z M 15.414766,78.602647 c 0.04717,-0.116899 0.08576,-0.02125 0.08576,0.212544 0,0.233799 -0.03859,0.329443 -0.08576,0.212544 -0.04717,-0.116899 -0.04717,-0.308189 0,-0.425088 z M 44.36049,75.997465 c -0.28715,-0.287151 -0.347141,-0.873913 -0.125113,-1.223716 0.212365,-0.334582 1.208712,-0.566549 1.579985,-0.36785 0.446932,0.239191 0.398529,0.943869 -0.09901,1.441404 -0.479793,0.479794 -0.971749,0.534278 -1.355865,0.150162 l 0,0 z m -5.028184,-0.49796 c 0.116421,-0.140279 0.336209,-0.25262 0.488417,-0.249646 0.232492,0.0045 0.223967,0.04533 -0.05332,0.255053 -0.429601,0.324934 -0.706402,0.321494 -0.435098,-0.0054 z m -13.410497,-1.4453 c 0.0056,-0.619693 0.0317,-0.683709 0.137187,-0.336727 0.07163,0.235638 0.177567,0.809507 0.235413,1.275264 0.102958,0.829002 0.100069,0.836092 -0.137188,0.336728 -0.133297,-0.280559 -0.239232,-0.854427 -0.235412,-1.275265 z M 12.714068,70.236141 c -0.761525,-0.761523 -0.399719,-2.303203 0.540521,-2.303203 l 0.428493,0 -0.523151,0.440202 c -0.569205,0.478956 -0.688335,1.139287 -0.301082,1.668887 0.361021,0.493727 0.98941,0.278996 1.444931,-0.493755 l 0.400929,-0.68014 -0.100792,0.583965 c -0.204737,1.186218 -1.111491,1.562404 -1.889849,0.784044 l 0,0 z m 12.725387,-0.815395 c 0.04053,-0.210419 0.07369,-0.03826 0.07369,0.382579 0,0.420837 -0.03316,0.592998 -0.07369,0.382579 -0.04053,-0.210418 -0.04053,-0.554739 0,-0.765158 z m 19.271911,0.203818 c -0.535128,0.203455 -0.592639,0.09808 -0.09254,-0.169566 0.379162,-0.20292 1.344855,0.06483 1.344855,0.372875 0,0.08433 -0.180961,0.03476 -0.402137,-0.110164 -0.305681,-0.200289 -0.509602,-0.22263 -0.850176,-0.09314 l 0,0 z M 25.099125,63.641532 c 0.04067,-0.211509 0.07549,-0.0785 0.07738,0.295579 0.0019,0.374077 -0.03139,0.54713 -0.07395,0.384561 -0.04256,-0.162569 -0.0441,-0.468632 -0.0034,-0.68014 l 4e-6,0 z m 1.807287,-4.88754 c -0.95571,-0.37245 -2.013198,-0.726749 -2.349973,-0.787329 -0.760891,-0.13687 -1.037407,-0.348272 -1.037407,-0.793116 0,-0.317998 0.02377,-0.324174 0.297561,-0.07731 0.163659,0.147563 0.909689,0.492093 1.657844,0.765624 1.274143,0.465833 3.540933,1.543029 3.285166,1.561134 -0.06354,0.0045 -0.897479,-0.296555 -1.853191,-0.669007 l 0,0 z m -3.786851,-3.823301 c -0.05268,-0.137285 -0.02261,-0.294833 0.06683,-0.350106 0.08943,-0.05528 0.162609,0.05705 0.162609,0.249607 0,0.410561 -0.09456,0.45198 -0.229435,0.100499 l 0,0 z m 14.24733,-0.180889 c 0.367287,-0.277802 0.945204,-0.335141 0.945204,-0.09378 0,0.200973 -0.315188,0.32532 -0.850176,0.335408 -0.410009,0.0077 -0.41338,-8.5e-4 -0.09503,-0.241629 z m 4.856014,-1.099821 c 0,-0.228674 0.113356,-0.340071 0.346052,-0.340071 0.293363,0 0.318342,0.05178 0.164053,0.340071 -0.1001,0.187038 -0.255824,0.34007 -0.346053,0.34007 -0.09023,0 -0.164052,-0.153032 -0.164052,-0.34007 z M 21.75928,50.169704 c -0.05268,-0.137284 -0.02261,-0.294831 0.06682,-0.350105 0.08944,-0.05527 0.16261,0.05705 0.16261,0.249607 0,0.410561 -0.09456,0.45198 -0.229435,0.100498 z m 12.540649,-9.073845 c 0.332965,-0.332965 0.371945,-0.01817 0.06629,0.535309 -0.189268,0.342723 -0.210224,0.346872 -0.271391,0.05374 -0.03646,-0.174712 0.05584,-0.439785 0.205106,-0.58905 z m 4.29256,-0.968401 c 0.115211,-0.300237 0.722285,-0.66461 0.866694,-0.520201 0.138016,0.138016 -0.473526,0.779977 -0.743017,0.779977 -0.130492,0 -0.181915,-0.10801 -0.123677,-0.259776 z"
     id="path3754"
     inkscape:connector-curvature="0" />
  <path
     style="fill:#464646;fill-opacity:1"
     d="m 17.987078,88.375054 c -1.378729,-0.96162 -3.509655,-2.23214 -4.735393,-2.82338 -3.7947339,-1.8304 -7.2522979,-4.27052 -9.4392489,-6.66161 -3.44361199,-3.76505 -3.83094999,-4.71731 -3.8117899898,-9.37123 0.0140399998,-3.40551 0.2954079998,-4.9815 1.7012329898,-9.52815 2.333797,-7.54786 4.155383,-10.63781 9.8287249,-16.67247 4.937561,-5.25201 5.690484,-5.84096 8.883501,-6.9488 1.542768,-0.53527 2.974713,-1.36339 3.418335,-1.9769 0.419881,-0.58067 1.21448,-1.48065 1.765771,-1.99995 0.774303,-0.72936 1.116578,-1.81045 1.504423,-4.75171 0.648686,-4.91946 1.702312,-7.79248 4.929056,-13.44054 5.896913,-10.3218802 9.820045,-13.63498023 16.767925,-14.16056023 6.843416,-0.51768 10.83429,3.95860003 15.200169,17.04892023 1.998892,5.99332 3.318109,8.37673 5.099869,9.21385 0.575652,0.27046 1.5197,1.15328 2.097882,1.96181 0.578182,0.80853 1.820008,1.90208 2.759608,2.43011 3.566741,2.0044 9.923391,12.09115 12.206111,19.36868 0.65182,2.07806 1.57664,5.03402 2.05516,6.5688 0.47852,1.53477 0.87003,3.226 0.87003,3.75828 0,0.53228 0.2051,0.96778 0.45578,0.96778 0.25068,0 0.45578,0.34734 0.45578,0.77187 0,0.82155 -3.12448,3.95283 -3.94424,3.95283 -0.86604,0 -6.58961,2.59452 -9.45235,4.28478 -5.426466,3.204 -14.753685,7.00801 -31.162632,12.70939 -2.322581,0.807 -5.219743,1.94331 -6.438138,2.52515 -3.670225,1.75269 -11.898903,4.06237 -15.319362,4.29994 -3.162835,0.21968 -3.210322,0.20695 -5.696204,-1.52689 z m 7.110123,-0.12918 c 0.134664,-0.33071 0.427807,-1.53872 0.651425,-2.68449 0.39264,-2.01175 0.398793,-1.99265 0.179322,0.55697 l -0.227265,2.64018 4.706765,-1.61013 c 6.435095,-2.20136 6.58326,-2.29238 6.830255,-4.19641 0.115685,-0.89177 0.132399,-1.82464 0.03715,-2.07303 -0.09525,-0.2484 -2.416503,-1.49472 -5.158334,-2.76962 -2.741837,-1.27488 -4.908556,-2.39016 -4.81493,-2.47839 0.09362,-0.0882 2.290544,0.81984 4.882053,2.01795 2.591501,1.1981 4.867087,2.17837 5.056854,2.17837 0.189768,0 0.345033,-1.1597 0.345033,-2.57711 0,-1.41741 0.173046,-2.57711 0.38454,-2.57711 0.211495,0 0.291931,2.12611 0.178743,4.7247 -0.135644,3.11426 -0.04394,4.72471 0.269086,4.72471 0.261184,0 1.770274,-0.51585 3.353538,-1.14633 3.336919,-1.3288 4.702503,-2.57863 3.872062,-3.54385 -0.439908,-0.5113 -0.392653,-0.57368 0.25998,-0.34319 0.707477,0.24987 0.803031,-0.0444 0.84555,-2.60406 0.09918,-5.97034 -0.124445,-9.31393 -0.711474,-10.63794 -0.333201,-0.75153 -0.444962,-1.6117 -0.248353,-1.91149 0.196604,-0.29979 0.170133,-1.14735 -0.05884,-1.88348 -0.228964,-0.73613 -0.519969,-2.30483 -0.646671,-3.486 -0.312349,-2.91184 -0.402302,-3.35027 -0.815155,-3.97305 -0.195752,-0.2953 -0.262063,-0.68187 -0.147357,-0.85904 0.231667,-0.35784 -1.540142,-8.73946 -2.451512,-11.59699 -0.320211,-1.004 -0.754841,-1.82546 -0.965839,-1.82546 -0.210998,0 -0.383633,-0.29672 -0.383633,-0.65939 0,-1.28786 -1.434219,-2.77681 -2.673142,-2.77515 -1.58351,0.002 -4.002745,1.42148 -4.391806,2.57667 -0.170315,0.50571 0.04093,2.2677 0.469437,3.91551 0.770447,2.96275 0.789421,2.98747 1.706864,2.22417 0.91899,-0.76457 0.920849,-0.76172 0.196572,0.30193 -0.402151,0.59059 -0.654693,1.46036 -0.561204,1.93284 0.09349,0.47246 0.185671,1.30532 0.20485,1.85079 0.01919,0.54547 0.196969,0.89736 0.395082,0.78198 0.198117,-0.1154 0.391495,0.52946 0.42973,1.433 0.03824,0.90354 0.366842,2.31341 0.730248,3.13304 0.363401,0.81963 0.517326,1.70891 0.342052,1.97616 -0.17527,0.26726 -0.138876,1.79132 0.08088,3.3868 0.802552,5.82676 0.793997,5.79602 1.466284,5.27021 0.497299,-0.38894 0.572343,-0.31068 0.377033,0.39317 -0.134117,0.48331 -0.447729,0.76 -0.696917,0.61488 -0.28765,-0.16755 -0.360392,0.42228 -0.199234,1.61552 0.13961,1.03367 0.26426,2.03116 0.276999,2.21665 0.01276,0.18549 0.484634,0.10553 1.048659,-0.1777 0.929887,-0.46694 0.967179,-0.44833 0.399972,0.19965 -0.344044,0.39303 -0.866885,0.7146 -1.161869,0.7146 -0.344582,0 -0.469752,0.53748 -0.350106,1.50331 0.118981,0.96046 -0.0061,1.50331 -0.346309,1.50331 -0.292897,0 -0.435172,-0.14846 -0.316169,-0.32992 0.427393,-0.6517 -0.657911,-10.62559 -1.206189,-11.08479 -0.303384,-0.25409 -1.973215,-1.01554 -3.710737,-1.69211 -1.737521,-0.67657 -2.949672,-1.29592 -2.693671,-1.37635 0.256006,-0.0804 1.81906,0.42612 3.473453,1.12562 1.915682,0.80999 3.069375,1.0983 3.177034,0.79393 0.219412,-0.62032 -0.778113,-6.96068 -1.729076,-10.99016 -0.706585,-2.99402 -0.827285,-3.18294 -2.412977,-3.77671 -5.864432,-2.19596 -9.64007,-3.74293 -9.487088,-3.88711 0.09749,-0.0919 2.481083,0.72219 5.296875,1.80901 2.815796,1.08684 5.222194,1.8794 5.347552,1.76126 0.125357,-0.11813 -0.136638,-1.72547 -0.582216,-3.57184 -0.965967,-4.00279 -2.103575,-5.46675 -3.974133,-5.11419 -0.781983,0.14738 -1.170361,0.0767 -1.000606,-0.18217 0.152594,-0.23268 0.57299,-0.42305 0.934213,-0.42305 0.361222,0 0.656767,-0.19329 0.656767,-0.42951 0,-0.75144 -1.093002,-0.47267 -4.837619,1.23386 -5.116327,2.33165 -7.223735,4.46872 -8.3133,8.4303 -0.730134,2.6547 -0.833167,10.09368 -0.139801,10.09368 0.821298,0 1.459898,-2.3961 1.900276,-7.13008 0.252843,-2.71808 0.742047,-5.57873 1.087121,-6.35702 0.62917,-1.41905 2.566359,-2.80467 5.925251,-4.23817 2.864816,-1.22263 2.297459,-0.63556 -0.891679,0.92266 -2.811645,1.37378 -3.58737,2.28922 -2.364531,2.79042 0.313347,0.12843 0.0057,0.12359 -0.683667,-0.0107 -1.19948,-0.23378 -1.525849,0.10009 -1.283302,1.3128 0.04293,0.21459 -0.133306,0.51325 -0.391609,0.66369 -0.258299,0.15044 -0.667018,2.3932 -0.908261,4.9839 -0.47421,5.09251 -0.661735,5.82508 -1.934828,7.55839 -1.055587,1.43717 -1.072026,3.25648 -0.03979,4.40242 0.717678,0.79671 0.719678,0.82868 0.01996,0.31897 -0.925434,-0.67412 -2.088949,-0.23027 -1.313069,0.50091 0.272519,0.25681 0.477861,0.95981 0.456316,1.56221 -0.03829,1.06995 -0.04836,1.06633 -0.436444,-0.15668 -0.2185,-0.68856 -0.656598,-1.40298 -0.973551,-1.58758 -0.433741,-0.25262 -0.382151,-0.40585 0.208555,-0.61946 0.529218,-0.19137 0.784836,-0.75847 0.784836,-1.74117 0,-0.80154 -0.153825,-1.45613 -0.341833,-1.45464 -0.521866,0.005 -1.974763,2.59893 -1.694501,3.02627 0.135558,0.2067 -0.175907,0.77388 -0.692153,1.26037 -1.186997,1.11861 -0.543684,2.58294 1.134746,2.58294 0.739727,0 1.322016,0.38339 1.749194,1.15172 l 0.64034,1.15171 0.723302,-1.25909 c 0.397816,-0.69251 0.731514,-1.06051 0.741551,-0.81778 0.01003,0.24274 -0.340681,0.91923 -0.779367,1.50332 -0.574723,0.76521 -0.870108,2.26224 -1.05705,5.35717 l -0.259442,4.29518 -0.08239,-4.64555 c -0.0453,-2.55506 -0.294711,-5.01943 -0.554208,-5.47636 -0.570912,-1.0053 -2.8072,-1.12104 -3.629059,-0.18781 -0.5645,0.64099 -1.301201,7.50142 -1.345256,12.52754 -0.02297,2.62133 -0.0046,2.66035 1.889696,3.97304 1.052095,0.72914 2.046466,1.32572 2.209712,1.32572 0.163242,0 0.514697,-1.69124 0.781008,-3.75829 l 0.4842,-3.75829 -0.228126,4.16843 -0.228126,4.16843 2.433827,1.45819 c 3.860044,2.31271 6.988787,3.08307 7.49295,1.84494 z m 1.253139,-8.4186 c 0,-2.00799 0.07851,-2.82945 0.174467,-1.82545 0.09596,1.004 0.09596,2.6469 0,3.6509 -0.09596,1.00401 -0.174467,0.18255 -0.174467,-1.82545 z m 12.972844,2.71322 c 0.329012,-0.12407 0.722121,-0.10881 0.873576,0.0339 0.15145,0.14272 -0.117746,0.24424 -0.598209,0.22559 -0.530959,-0.0206 -0.638955,-0.12239 -0.275367,-0.2595 z m -27.462838,-1.3846 c -0.14048,-0.21421 0.155064,-0.28831 0.656767,-0.16467 0.624074,0.1538 0.912185,0.0135 0.912185,-0.44423 0,-0.95523 -0.836317,-1.31327 -1.625619,-0.69595 -0.555767,0.43468 -0.623728,0.40346 -0.387052,-0.17778 0.157896,-0.38776 0.547682,-0.70503 0.866184,-0.70503 0.859365,0 1.742863,1.18279 1.43967,1.92737 -0.290535,0.71351 -1.457897,0.87667 -1.862135,0.26029 z m 32.106076,-0.87375 c 0,-0.2223 0.202753,-0.52226 0.450559,-0.66658 0.258363,-0.15048 0.334769,0.0219 0.179126,0.40416 -0.302997,0.74411 -0.629685,0.88025 -0.629685,0.26242 z m 0.186121,-4.48298 c -0.368893,-0.90593 0.148903,-1.55563 1.239812,-1.55563 0.688558,0 0.880149,0.23916 0.770712,0.96203 -0.169978,1.12275 -1.620651,1.55106 -2.010524,0.5936 z m 1.636991,-0.48183 c 0,-0.35436 -0.30765,-0.64428 -0.683667,-0.64428 -0.376017,0 -0.683667,0.28992 -0.683667,0.64428 0,0.35436 0.30765,0.64428 0.683667,0.64428 0.376017,0 0.683667,-0.28992 0.683667,-0.64428 z M 26.0195,75.300734 c -0.156305,-0.38386 -0.260609,-1.21365 -0.231781,-1.84397 0.03924,-0.85839 0.141596,-0.71481 0.40772,0.57203 0.377562,1.82566 0.294387,2.42698 -0.175939,1.27194 z m 13.2676,0.17807 c 0.309172,-0.29355 0.676939,-0.42551 0.817269,-0.29326 0.140329,0.13224 -0.112627,0.37241 -0.562125,0.53371 -0.649575,0.23309 -0.701925,0.18375 -0.255144,-0.24045 z m -26.734984,-5.27662 c -0.716651,-0.81376 -0.209489,-2.40139 0.76712,-2.40139 0.631371,0 0.615984,0.0855 -0.104769,0.58217 -0.517245,0.35643 -0.733302,0.85607 -0.557194,1.28855 0.405524,0.9959 1.180119,0.87698 1.693726,-0.26002 0.430993,-0.95411 0.435159,-0.9528 0.327149,0.10299 -0.126816,1.2396 -1.304501,1.62054 -2.126032,0.6877 z m 12.816264,-0.46856 c 0.0093,-0.7087 0.111438,-0.94662 0.226996,-0.52871 0.115562,0.4179 0.10796,0.99775 -0.01686,1.28855 -0.124847,0.29079 -0.219398,-0.0511 -0.210109,-0.75984 z m 18.788284,0.21476 c 0.07166,-0.92094 1.831708,-0.81491 1.92207,0.1158 0.0516,0.5315 0.0092,0.56379 -0.141122,0.10739 -0.259224,-0.78726 -1.372635,-0.86588 -1.639826,-0.1158 -0.109956,0.30868 -0.169941,0.26304 -0.141122,-0.10739 z m -19.208776,-6.01325 c 0,-1.06306 0.08888,-1.49794 0.197521,-0.96642 0.108635,0.53154 0.108635,1.40131 0,1.93283 -0.108639,0.53154 -0.197521,0.0966 -0.197521,-0.96641 z m 1.926861,-5.15422 c -1.002711,-0.45644 -2.182037,-0.83645 -2.620723,-0.84447 -0.464119,-0.008 -0.782567,-0.32884 -0.761628,-0.76622 0.02151,-0.44904 0.128538,-0.5355 0.265869,-0.21476 0.126442,0.29529 0.469173,0.54378 0.761632,0.55221 0.681429,0.0196 5.241661,2.07936 4.63374,2.09295 -0.250678,0.006 -1.276178,-0.36327 -2.27889,-0.81971 z m -3.838129,-4.11622 c 0.02188,-0.50036 0.129869,-0.60214 0.275367,-0.2595 0.131661,0.31006 0.115467,0.68052 -0.03601,0.82324 -0.151451,0.14273 -0.259174,-0.11095 -0.239384,-0.56374 z m 14.093132,0.23707 c 0,-0.22882 0.30765,-0.41603 0.683667,-0.41603 0.376017,0 0.683667,0.076 0.683667,0.1688 0,0.0928 -0.30765,0.28006 -0.683667,0.41604 -0.376017,0.13598 -0.683667,0.06 -0.683667,-0.16881 z m 5.013558,-1.27507 c 0,-0.23624 0.217206,-0.42952 0.482678,-0.42952 0.265472,0 0.355917,0.19328 0.200989,0.42952 -0.154928,0.23624 -0.372134,0.42952 -0.482678,0.42952 -0.110544,0 -0.200989,-0.19328 -0.200989,-0.42952 z m -20.474024,-3.6867 c 0.02188,-0.50037 0.129869,-0.60214 0.275367,-0.2595 0.131661,0.31005 0.115467,0.68051 -0.03601,0.82325 -0.151451,0.14272 -0.259174,-0.11097 -0.239384,-0.56375 z m 12.270022,-8.31446 c 0,-0.2223 0.202753,-0.52226 0.45056,-0.66659 0.258362,-0.15048 0.334773,0.022 0.179125,0.40416 -0.302997,0.74411 -0.629685,0.88026 -0.629685,0.26243 z m 4.557778,-1.27163 c 0,-0.44603 0.866985,-1.09171 1.123798,-0.83695 0.08338,0.0827 -0.135366,0.39961 -0.486101,0.70423 -0.350735,0.3046 -0.637697,0.36433 -0.637697,0.13272 z M 9.7870391,77.357574 c 0.0023,-1.83081 0.119008,-4.39182 0.2596249,-5.69111 0.236744,-2.18755 0.203874,-2.29878 -0.4441969,-1.50332 -1.405597,1.72529 -1.663394,1.89832 -2.420464,1.62454 -0.483594,-0.17488 -0.567311,-0.34291 -0.224493,-0.4506 0.35274,-0.1108 0.546674,-1.19572 0.546674,-3.05823 0,-3.32539 1.208686,-6.0814 3.8661869,-8.81556 1.802506,-1.8545 1.859528,-1.97094 0.965219,-1.97094 -0.350867,0 -1.684018,1.07864 -2.9625569,2.39697 -1.278544,1.31833 -2.324627,2.27317 -2.324627,2.12188 0,-0.1513 1.057313,-1.32862 2.349585,-2.61629 2.3363819,-2.32804 2.3466229,-2.3505 1.8231119,-3.99716 -0.872117,-2.74317 -0.711191,-4.07183 1.254958,-10.36143 l 0.469943,-1.50331 -1.82133,1.93283 c -2.1308349,2.26128 -5.4453439,8.45556 -7.3309699,13.70038 -1.7715,4.92738 -2.524782,10.64384 -1.817091,13.78946 0.487017,2.16474 0.805214,2.58823 3.792064,5.04684 1.793235,1.47611 3.430075,2.68382 3.637418,2.68382 0.207338,0 0.378761,-1.49794 0.380944,-3.32877 z m -4.98154,-9.37781 c 0.02188,-0.50037 0.12987,-0.60214 0.275368,-0.2595 0.13166,0.31006 0.115466,0.68052 -0.03601,0.82324 -0.15145,0.14273 -0.259173,-0.11095 -0.239384,-0.56374 z m 1.331351,-4.4488 c 0,-0.22229 0.202752,-0.52226 0.450559,-0.66659 0.258362,-0.15047 0.334773,0.022 0.179125,0.40417 -0.302996,0.74411 -0.629684,0.88025 -0.629684,0.26242 z m 43.2075969,16.56213 c 0.676917,-0.32628 3.780797,-1.40268 6.897517,-2.392 8.022313,-2.54645 8.160117,-2.62713 7.823247,-4.5802 l -0.275345,-1.59634 -6.482489,-2.23654 c -3.565365,-1.2301 -7.26878,-2.42463 -8.229806,-2.65451 l -1.747321,-0.41796 0.0046,7.23541 c 0.0023,3.97946 0.178711,7.23539 0.391723,7.23539 0.213013,0 0.941132,-0.26696 1.618049,-0.59325 z m 20.788587,-7.84075 4.370514,-1.99122 -0.03204,-4.34418 c -0.01759,-2.38929 -0.171441,-4.6674 -0.341834,-5.06246 -0.236749,-0.54894 -1.411343,0.57887 -4.981521,4.78309 -3.98648,4.69446 -4.671724,5.72909 -4.671724,7.0537 0,1.04989 0.208121,1.5523 0.643043,1.5523 0.353675,0 2.609776,-0.89605 5.013562,-1.99123 z M 9.0908881,70.055774 c 0.17429,-0.41342 0.83715,-2.10464 1.4730289,-3.75829 0.635874,-1.65364 1.745817,-4.11249 2.466538,-5.46411 1.453996,-2.72678 1.508293,-2.9115 0.855815,-2.9115 -0.648427,0 -5.9263079,10.5173 -5.9263079,11.80943 0,1.23918 0.66487,1.42993 1.130926,0.32447 z m 54.6439749,-1.32206 c -0.483786,-3.51713 -1.577484,-9.81653 -1.904254,-10.96798 -0.31781,-1.11987 -0.845304,-1.38933 -6.029729,-3.08024 -3.1248,-1.01916 -6.864582,-2.28281 -8.310624,-2.80809 -1.446042,-0.5253 -2.740429,-0.85023 -2.876411,-0.72208 -0.135981,0.12815 0.175151,2.33122 0.691407,4.89571 0.516255,2.56449 0.94011,5.04928 0.941897,5.52175 0.0018,0.47247 0.210451,1.56202 0.463695,2.42123 0.440049,1.49297 0.626731,1.61161 4.213403,2.67761 2.064127,0.61348 5.598859,1.76802 7.85496,2.56566 2.256101,0.79763 4.342885,1.3655 4.6373,1.26193 0.334167,-0.11756 0.453786,-0.78092 0.318356,-1.7655 z m 4.141901,-2.43623 c 1.420523,-1.65364 3.428704,-4.03876 4.462623,-5.30027 l 1.879856,-2.29363 -0.551396,-3.03024 c -0.303265,-1.66663 -0.444397,-3.13107 -0.313625,-3.25431 0.130772,-0.12324 0.23777,0.19839 0.23777,0.71473 0,0.7755 0.189567,0.89398 1.089724,0.68107 1.25066,-0.29582 2.018828,0.49237 1.213605,1.24522 -0.40752,0.38101 -0.456544,0.3073 -0.206704,-0.31079 0.239247,-0.59189 0.154394,-0.75307 -0.314829,-0.59805 -0.353292,0.11672 -0.614234,0.52758 -0.579864,0.91302 0.03496,0.39201 -0.1498,0.57716 -0.419288,0.42021 -0.304779,-0.17751 -0.369595,-0.005 -0.176432,0.46927 0.167941,0.41243 0.305344,1.10253 0.305344,1.53356 0,0.5978 0.243253,0.72652 1.025501,0.54265 l 1.025505,-0.24106 -1.003532,0.81816 c -0.873307,0.71199 -0.955662,1.05254 -0.634662,2.62434 0.202876,0.9934 0.266256,2.81254 0.140844,4.04254 -0.193213,1.89491 -0.120279,2.19739 0.477701,1.98114 0.62412,-0.22569 0.631969,-0.12198 0.06788,0.89693 -0.877938,1.58582 -0.803108,2.06571 0.190037,1.21871 0.458426,-0.39097 1.125002,-0.71157 1.481282,-0.71246 0.93911,-0.002 3.61034,-1.61943 3.61034,-2.18562 0,-0.26499 -0.31831,-0.36668 -0.70734,-0.22599 -0.40561,0.14667 -0.58856,0.0746 -0.42888,-0.16881 0.15315,-0.23352 0.54245,-0.4246 0.86511,-0.4246 0.37968,0 0.58665,-0.60066 0.58665,-1.70258 0,-1.02643 -0.18113,-1.5971 -0.45608,-1.43695 -0.25085,0.1461 -0.3185,0.0558 -0.15034,-0.20057 0.16816,-0.25641 0.1099,-0.58027 -0.12946,-0.71968 -0.23936,-0.1394 -0.64666,0.0889 -0.90513,0.50722 -0.44406,0.71883 -0.47069,0.71933 -0.48379,0.009 -0.0131,-0.71159 0.44903,-0.93197 1.65962,-0.79145 0.29372,0.0341 0.62885,-0.28124 0.74475,-0.70076 0.11588,-0.41952 0.23551,0.0104 0.26584,0.95531 l 0.0551,1.71807 1.12031,-1.28855 c 0.61617,-0.70871 1.48683,-2.10928 1.93479,-3.11239 0.44797,-1.00313 0.96831,-1.82457 1.15632,-1.82546 0.91797,-0.005 -0.79009,-8.5169 -1.92781,-9.60775 -0.21541,-0.20653 -0.73215,0.2703 -1.16372,1.0738 -0.42694,0.7949 -1.24659,2.03808 -1.82145,2.76259 -1.00801,1.27044 -1.02257,1.40798 -0.40909,3.86567 0.57701,2.31161 0.88136,5.92337 0.32972,3.91275 -0.13691,-0.49902 -0.47187,-0.69026 -0.92315,-0.52706 -0.55994,0.20249 -0.59867,0.13168 -0.18491,-0.33815 0.28784,-0.32686 0.43325,-1.24938 0.32311,-2.05005 -0.11013,-0.80067 -0.21408,-1.70878 -0.231,-2.01801 -0.0169,-0.30923 -0.22514,-0.44904 -0.46271,-0.31067 -0.23758,0.13837 -0.35876,-0.10662 -0.26929,-0.54442 0.27849,-1.36275 -0.46475,-3.74776 -1.1235,-3.60527 -0.50317,0.10884 -0.505,0.0141 -0.0106,-0.54728 0.81898,-0.92994 0.29796,-1.29558 -0.6172,-0.43314 -0.40586,0.38247 -0.73793,0.49792 -0.73793,0.25655 0,-0.24137 0.32057,-0.60791 0.71237,-0.81454 0.93066,-0.49083 0.41098,-2.84212 -0.55126,-2.49415 -0.49739,0.17987 -0.53696,0.0529 -0.17956,-0.5765 0.37176,-0.65462 0.30913,-0.78624 -0.33129,-0.69626 -0.434344,0.0611 -0.515728,0.0247 -0.180854,-0.0808 0.412174,-0.12979 0.512334,-0.5608 0.310044,-1.3343 -0.546542,-2.08987 -2.602151,-6.02196 -3.275431,-6.26544 -0.365092,-0.13202 -0.533835,-0.43822 -0.374987,-0.68043 0.158843,-0.24222 -0.146811,-1.10463 -0.679237,-1.91648 -0.850846,-1.29738 -1.103033,-1.42772 -2.083033,-1.07659 -1.304719,0.46747 -1.449921,0.12835 -0.317381,-0.74125 0.728598,-0.55944 0.689164,-0.59656 -0.455778,-0.42905 -1.463325,0.21409 -1.702627,-0.34564 -0.295973,-0.69228 1.398186,-0.34458 0.600346,-1.1583 -1.098261,-1.12013 -2.115015,0.0475 -4.62184,1.00584 -4.792456,1.8321 -0.220031,1.06556 1.014708,1.29664 2.655627,0.49697 0.797958,-0.38885 1.567576,-0.597 1.710271,-0.46253 0.14269,0.13448 -0.389121,0.45756 -1.1818,0.71798 -0.79268,0.26042 -1.441239,0.61564 -1.441239,0.78939 0,0.64842 0.619311,0.86589 1.19149,0.41839 0.745621,-0.58316 1.559764,-0.13646 1.490308,0.8177 -0.04766,0.6548 -0.07339,0.65231 -0.261311,-0.0254 -0.114638,-0.41341 -0.386391,-0.75165 -0.603897,-0.75165 -0.595652,0 -0.977279,0.76626 -0.515558,1.03518 0.222388,0.12952 0.532736,0.84047 0.689661,1.57989 0.256616,1.20916 0.411544,1.31677 1.540146,1.06969 0.833267,-0.18243 1.043814,-0.14217 0.626713,0.11983 -0.364978,0.22926 -0.47868,0.6224 -0.271411,0.93845 0.232242,0.35413 0.173105,0.43697 -0.169495,0.23743 -0.723711,-0.42151 -0.679232,-0.25671 0.54656,2.02505 0.590014,1.09828 1.238199,1.85585 1.440405,1.68348 0.202205,-0.17237 0.230746,-0.088 0.06343,0.18746 -0.586969,0.96635 0.518926,2.72054 1.71512,2.72054 0.618108,0 1.249137,0.19107 1.402287,0.4246 0.154135,0.23502 -0.01062,0.32006 -0.368979,0.19046 -0.798574,-0.28879 -1.168173,0.87097 -0.875814,2.74819 0.176017,1.13015 0.332567,1.29144 0.856092,0.88199 0.5109,-0.39958 0.585629,-0.36588 0.368898,0.16637 -0.149682,0.36759 -9.12e-4,0.75314 0.331396,0.85815 0.331756,0.10488 0.244265,0.13988 -0.194421,0.0777 -0.477747,-0.0677 -0.810342,0.17241 -0.829357,0.59854 -0.01746,0.3913 -0.334883,-0.25496 -0.70538,-1.43614 -0.370502,-1.18117 -0.774303,-2.42438 -0.89734,-2.76266 -0.140307,-0.38579 -1.008619,0.49485 -2.329268,2.36235 -1.158063,1.63758 -3.120465,4.13033 -4.360893,5.53944 -2.172748,2.46821 -2.243726,2.63335 -1.938583,4.50994 0.239616,1.47361 1.37506,8.89668 1.575816,10.30205 0.03851,0.26961 0.481347,-0.19926 3.427943,-3.62942 z m 8.68425,-2.86168 c 0.19253,-0.47679 0.0122,-0.78138 -0.54272,-0.91659 -0.7127,-0.17366 -0.7213,-0.2096 -0.06037,-0.25233 1.01806,-0.0658 1.52154,0.7547 0.84895,1.38353 -0.40719,0.38071 -0.46566,0.32968 -0.24586,-0.21461 z m -1.14591,-3.96466 c 0,-0.0928 0.318302,-0.28391 0.70734,-0.4246 0.40561,-0.14668 0.58856,-0.0746 0.42888,0.1688 -0.267662,0.40814 -1.13622,0.60368 -1.13622,0.2558 z m -5.013558,-17.88445 c 0,-0.22882 0.30765,-0.41603 0.683667,-0.41603 0.376017,0 0.683667,0.076 0.683667,0.1688 0,0.0928 -0.30765,0.28006 -0.683667,0.41604 -0.376017,0.13598 -0.683667,0.06 -0.683667,-0.16881 z m 3.190446,-0.33276 c 0,-0.22419 0.30765,-0.64822 0.683667,-0.94231 0.376017,-0.29409 0.683667,-0.40059 0.683667,-0.23667 0,0.16392 -0.30765,0.58795 -0.683667,0.94231 -0.376017,0.35435 -0.683667,0.46085 -0.683667,0.23667 z m -2.27889,-4.35311 c 0,-0.22229 0.202753,-0.52226 0.450559,-0.66658 0.258363,-0.15048 0.334769,0.022 0.179126,0.40416 -0.302997,0.74411 -0.629685,0.88025 -0.629685,0.26242 z m -59.863453,23.30747 c -0.249721,-0.23533 -2.4636809,2.923 -3.0084359,4.2917 -0.264689,0.66503 -0.469643,1.63144 -0.455459,2.1476 0.01509,0.54853 0.774066,-0.56215 1.826758,-2.67323 0.9905289,-1.98643 1.7272389,-3.68115 1.6371369,-3.76607 z m 73.499935,4.95733 c 2.8709,-1.51987 3.26648,-1.93577 3.00534,-3.15975 -0.10123,-0.47444 -0.31036,-1.7807 -0.46475,-2.90282 -0.15438,-1.12212 -0.42195,-2.03873 -0.5946,-2.03691 -0.17265,0.002 -0.79776,0.82328 -1.38914,1.82546 -0.59138,1.00218 -1.57034,2.51546 -2.17546,3.36284 -1.35432,1.89651 -2.14519,4.2578 -1.42607,4.2578 0.27558,0 1.64569,-0.60598 3.04468,-1.34662 z m -70.836619,-8.10279 c 0.154928,-0.23623 0.06448,-0.42951 -0.200989,-0.42951 -0.265473,0 -0.482678,0.19328 -0.482678,0.42951 0,0.23624 0.09045,0.42952 0.200993,0.42952 0.110544,0 0.327746,-0.19328 0.482674,-0.42952 z m 1.407624,-2.03804 c -0.497892,-0.4692 -0.839301,0.27699 -0.481839,1.05311 0.338953,0.73592 0.363524,0.73525 0.552376,-0.0151 0.108703,-0.4319 0.07696,-0.89901 -0.07054,-1.03801 z m 49.447824,-0.8856 c 2.880024,-3.37419 5.888911,-7.64665 5.888911,-8.36195 0,-0.32712 -1.036877,-2.54011 -2.304167,-4.91777 -2.089241,-3.91977 -2.439981,-4.34439 -3.760169,-4.55222 -1.573377,-0.24768 -1.388373,-0.40192 -5.01081,4.17752 -1.085025,1.37168 -1.656201,2.51 -1.529531,3.04824 0.111191,0.47246 0.32666,1.53552 0.478813,2.36235 0.21845,1.18707 0.193865,1.27215 -0.116866,0.40444 -0.551186,-1.53919 -1.476115,-3.13053 -2.068562,-3.55897 -0.313767,-0.2269 -0.22335,-0.27953 0.241544,-0.14059 0.5311,0.15872 1.482609,-0.75141 3.335953,-3.1909 l 2.592921,-3.41296 -1.171012,-1.31148 c -0.644056,-0.72132 -1.171008,-1.57518 -1.171008,-1.89746 0,-0.32229 -0.160133,-0.67924 -0.355849,-0.79323 -0.581705,-0.3388 -17.810218,2.56653 -18.407305,3.10411 -0.847355,0.76291 -0.725107,3.48669 0.291821,6.50186 0.597561,1.77176 1.325398,4.35137 1.61741,5.73246 l 0.530927,2.51109 2.578217,1.04696 c 1.418021,0.57584 2.988418,1.22095 3.489774,1.4336 1.891137,0.80211 10.738153,3.56673 10.894844,3.40456 0.08998,-0.0931 -0.324819,-1.70477 -0.921783,-3.58141 -0.596965,-1.87665 -1.069196,-3.71284 -1.049406,-4.08043 0.01978,-0.36758 0.102026,-0.47505 0.182744,-0.23882 0.08072,0.23623 0.707755,2.16907 1.393409,4.29519 1.371026,4.25135 1.488111,4.52109 1.947043,4.48554 0.173213,-0.0134 1.254173,-1.1248 2.402137,-2.46973 z M 53.765649,41.799784 c -1.139728,-0.51734 -1.177662,-0.57695 -0.227889,-0.35819 1.291447,0.29747 2.7431,0.99473 2.051001,0.98515 -0.250678,-0.004 -1.071078,-0.2856 -1.823112,-0.62696 z m -4.102002,-1.25793 c -1.760242,-0.75956 -0.941501,-0.77071 1.139445,-0.0156 0.877373,0.31842 1.287573,0.58491 0.911556,0.59224 -0.376017,0.008 -1.298967,-0.25221 -2.051001,-0.57672 z m -36.462649,11.61461 c 0.763274,-7.62795 3.183318,-12.00061 7.693593,-13.90117 0.721756,-0.30414 1.193837,-0.66461 1.049059,-0.80105 -0.427373,-0.40275 -6.098702,2.77276 -7.104854,3.97818 -2.182999,2.61534 -4.162425,11.64518 -3.094145,14.11502 0.577375,1.33489 1.106816,0.10213 1.456347,-3.39098 z m 0.6771,3.08089 c -0.0057,-0.78148 -0.09153,-0.84314 -0.4488,-0.32215 -0.571054,0.83274 -0.571054,1.28856 0,1.28856 0.250677,0 0.452637,-0.43489 0.4488,-0.96641 z m 1.128661,-3.4157 c -0.106324,-0.52028 0.05669,-1.09157 0.362257,-1.26954 0.339564,-0.19777 0.159085,-0.29544 -0.464183,-0.25119 -1.151377,0.0817 -1.265458,0.34527 -0.472824,1.09223 0.425396,0.40089 0.400073,0.51689 -0.113944,0.52201 -0.562061,0.006 -0.558652,0.0688 0.02279,0.42294 0.906228,0.5519 0.88724,0.56663 0.665904,-0.51645 z m 67.410595,-3.40061 c 1.40731,-2.29124 1.43233,-2.18182 -1.68274,-7.35843 -1.93992,-3.22375 -2.36132,-3.68238 -2.95988,-3.22139 -0.60398,0.46517 -0.63109,0.42368 -0.20138,-0.30824 0.37224,-0.63405 0.33839,-1.13399 -0.13523,-1.99711 -0.63898,-1.16445 -4.150856,-4.24418 -4.839728,-4.24418 -0.789093,0 -0.311643,1.85573 1.210136,4.70347 1.506315,2.81881 2.518132,4.04563 2.518132,3.05322 0,-0.25019 0.20683,-0.45487 0.45963,-0.45487 0.27787,0 0.2422,0.32814 -0.0902,0.82973 -0.455748,0.68772 -0.26824,1.62502 1.09555,5.47636 0.90498,2.55564 1.77729,5.20594 1.93846,5.88956 0.33455,1.41892 0.39262,1.36775 2.68726,-2.36812 z m -66.709166,0.64972 c 0,-0.0928 -0.307651,-0.16881 -0.683667,-0.16881 -0.376017,0 -0.683667,0.18722 -0.683667,0.41604 0,0.22881 0.30765,0.30478 0.683667,0.1688 0.376016,-0.13598 0.683667,-0.32319 0.683667,-0.41603 z m 0,-1.67212 c 0,-0.32647 -0.202749,-0.71167 -0.450555,-0.856 -0.258363,-0.15048 -0.334774,0.022 -0.179126,0.40417 0.149669,0.36756 0.03304,0.66659 -0.260007,0.66659 -0.292295,0 -0.402616,0.19643 -0.245163,0.43652 0.368127,0.56132 1.134851,0.1213 1.134851,-0.65128 z m 0.05656,-2.04737 c -0.450131,-0.42105 -0.502486,-0.37172 -0.25514,0.24044 0.171158,0.4236 0.426011,0.66197 0.566341,0.52973 0.140325,-0.13224 2.87e-4,-0.47882 -0.311201,-0.77017 z m 1.172776,-1.51408 c 0.359873,-0.21559 0.401044,-0.5424 0.120923,-0.95984 -0.361414,-0.53857 -0.425779,-0.5262 -0.431718,0.0829 -0.0036,0.39373 -0.263358,0.81336 -0.576705,0.93251 -0.313347,0.11916 -0.364622,0.22895 -0.113944,0.24398 0.250677,0.0151 0.701328,-0.11977 1.001444,-0.29957 z m 16.217712,-5.07747 c 0.153675,-0.14482 -0.148064,-0.80819 -0.670527,-1.47415 -0.798659,-1.018 -0.900184,-1.56426 -0.637528,-3.4302 0.242665,-1.72389 0.180374,-2.17869 -0.279005,-2.03713 -0.922864,0.28439 -1.666046,2.9135 -1.22927,4.3487 0.58496,1.92213 2.073663,3.29266 2.81633,2.59278 z m 3.396287,-2.07745 c 1.821038,-0.62647 2.588655,-1.32482 1.03401,-0.94069 -1.44648,0.3574 -3.14637,0.63833 -2.392835,0.39546 1.266566,-0.40824 0.507846,-1.03564 -0.911553,-0.75379 -1.939878,0.3852 -2.688516,1.0523 -1.230601,1.09657 0.614161,0.0187 0.859005,0.13181 0.544094,0.25145 -0.314906,0.11965 -0.447989,0.40749 -0.295731,0.63964 0.152257,0.23217 0.615013,0.2862 1.02834,0.12007 0.413331,-0.16613 1.414254,-0.53005 2.224276,-0.80871 z m 3.777734,-2.79287 c -0.295973,-0.67336 -1.034388,-1.66365 -1.640928,-2.20063 -1.031471,-0.91319 -1.101857,-0.92288 -1.088298,-0.14981 0.008,0.45459 0.315622,1.20171 0.683667,1.66028 0.368041,0.45856 0.669169,1.338 0.669169,1.95431 0,0.61631 0.253814,1.35975 0.564025,1.65208 0.881211,0.83044 1.493329,-1.36694 0.812365,-2.91623 z m -14.763554,2.29071 c 0.970657,-0.38243 2.254747,-0.87105 2.853539,-1.08582 0.598792,-0.21477 0.979887,-0.49305 0.846877,-0.61839 -0.13301,-0.12534 -1.006905,0.0733 -1.941983,0.44154 -2.147745,0.84568 -2.21567,0.83907 -1.246995,-0.12146 0.438686,-0.43501 0.932494,-0.72455 1.097354,-0.64345 0.619589,0.30481 2.128556,-0.5447 3.289035,-1.85163 1.041922,-1.17342 1.153273,-1.57195 0.838326,-3.00047 l -0.363187,-1.64731 -1.492536,2.45838 c -0.820893,1.3521 -1.364244,2.65399 -1.207447,2.89308 0.156797,0.23908 -0.03469,0.4347 -0.425478,0.4347 -0.390811,0 -0.717048,-0.33824 -0.724969,-0.75165 -0.0114,-0.59391 -0.255396,-0.49339 -1.162749,0.479 -0.631595,0.67687 -1.077218,1.54665 -0.990274,1.93283 0.08694,0.3862 -0.261498,0.93693 -0.774307,1.22385 -1.321219,0.73925 -0.665236,0.67237 1.404794,-0.1432 z m 40.278066,-0.39548 c 0,-0.12747 -0.8204,-0.98959 -1.823112,-1.91583 -1.25622,-1.16039 -1.825281,-2.05663 -1.83009,-2.88223 -0.0036,-0.659 -0.197165,-1.48156 -0.429612,-1.82792 -0.336519,-0.50141 -0.525967,-0.37358 -0.929814,0.62742 -1.008473,2.49966 1.470622,6.15396 4.215017,6.21313 0.438686,0.009 0.797611,-0.0871 0.797611,-0.21457 z m -27.925896,-0.88677 c -0.151451,-0.14272 -0.544559,-0.15799 -0.873576,-0.0339 -0.363588,0.13712 -0.255587,0.2389 0.275367,0.25951 0.480467,0.0187 0.749659,-0.0828 0.598209,-0.22561 z m -4.206451,-1.02906 c 0.154928,-0.23623 -0.03806,-0.42952 -0.428878,-0.42952 -0.390811,0 -0.710567,0.19329 -0.710567,0.42952 0,0.23624 0.192999,0.42952 0.428883,0.42952 0.235883,0 0.555634,-0.19328 0.710562,-0.42952 z m 11.543565,-0.19914 c 1.744198,-0.34576 4.475184,-0.82785 6.068857,-1.07129 1.593674,-0.24345 3.410336,-0.54872 4.037031,-0.67835 0.626695,-0.12966 1.959845,-0.39953 2.962557,-0.59973 l 1.823112,-0.36399 -1.7901,-0.047 c -2.720758,-0.0715 -19.271146,3.2379 -16.812652,3.36187 0.296962,0.015 1.966996,-0.25568 3.711195,-0.60144 z m -8.325091,-2.15295 c 0.163474,-0.82119 0.07022,-2.72153 -0.207233,-4.22299 -0.277455,-1.50146 -0.448972,-3.196813 -0.45807,-3.76853 -0.09471,-5.951679 0.333196,0.57333 0.683739,2.54349 0.665623,3.74098 1.876393,5.51218 3.371869,4.9326 1.539809,-0.59677 6.450275,-1.43835 11.166561,-1.9138 2.757457,-0.27798 5.063416,-0.53869 5.124353,-0.57936 0.06093,-0.0407 -0.306269,-2.86178 -0.816011,-6.26914 -0.509742,-3.40735 -0.808239,-6.67399 -0.792097,-7.26898 0.05199,-1.916425 0.516515,1.82544 0.983173,5.36897 0.466653,3.54353 0.997351,6.70267 1.17933,7.02031 0.212506,0.37094 0.707112,-0.37058 1.382684,-2.07297 l 1.051827,-2.6505 -0.991596,-4.06805 C 58.32506,17.405253 56.141776,13.542904 55.62542,11.646047 54.765814,8.4882431 53.744217,7.4988838 54.481137,9.9203238 c 0.233176,0.7662102 0.399982,1.9742202 0.37068,2.6844902 1.02634,5.958164 -0.465252,0.545268 -0.465632,-1.05264 -7.11e-4,-2.9881494 -2.156942,-6.3497102 -3.728921,-7.7496502 -0.663166,-0.59059 -1.209297,-1.25492 -1.213627,-1.4763 0.07089,-0.5935536 2.778819,2.06037 4.628703,4.60968 0.99341,1.369 2.387192,3.8816902 3.097299,5.5837402 1.181012,2.83078 1.725671,4.79352 3.167516,11.41451 0.612461,2.81245 1.699377,5.05982 2.605624,5.38754 0.647309,0.23408 4.268324,-1.22816 4.268324,-1.72365 0,-0.13202 -0.69538,-1.52939 -1.545292,-3.10527 -0.849912,-1.57588 -2.305403,-5.28128 -3.234424,-8.23422 -2.109865,-6.7063102 -3.74753,-9.9717302 -6.268639,-12.4992902 -2.624392,-2.63111 -4.486897,-3.19261003 -8.458848,-2.55017 -3.431457,0.55503 -5.810572,1.81125 -8.523144,4.50039 -2.918251,2.89306 -4.469863,5.2927802 -5.824335,9.0079102 -0.696611,1.9107 -2.110624,6.619481 -1.016818,2.29281 0.503792,-1.992807 -0.218162,-1.31487 -1.78623,1.93284 -1.618085,3.3513 -3.182347,9.61016 -2.925252,11.70437 0.153155,1.24757 0.207935,1.20657 1.721797,-1.28855 1.131998,-1.86573 1.618915,-3.25885 1.763948,-5.04684 0.319054,-3.93323 0.770725,-2.86178 0.815719,1.93505 0.0227,2.42019 0.274,4.93188 0.558442,5.58152 0.441795,1.00903 0.781509,1.18117 2.330906,1.18117 1.709619,0 1.830801,-0.0857 2.110963,-1.49305 z m -3.126753,0.79204 c -0.175785,-0.16566 -0.306606,-0.70387 -0.290718,-1.19603 0.02721,-0.84255 0.0536,-0.83676 0.451922,0.0992 0.540867,1.27088 1.499357,0.7597 1.213926,-0.64741 -0.136934,-0.67505 -0.05628,-0.90719 0.223559,-0.64347 0.646836,0.60957 0.242747,2.41595 -0.573191,2.5623 -0.388238,0.0696 -0.849714,-0.008 -1.025498,-0.17459 z m 29.483707,-4.63621 c -0.414667,-1.01834 0.172056,-2.04681 1.074264,-1.88307 0.504556,0.0916 0.798988,0.53637 0.798988,1.20704 0,1.2244 -1.438563,1.74355 -1.873252,0.67603 z m 1.417474,-1.10555 c -0.220514,-0.33624 -0.482701,-0.36119 -0.786554,-0.0748 -0.250678,0.23623 -0.306926,0.65649 -0.125002,0.93389 0.220515,0.33624 0.482701,0.36119 0.786554,0.0748 0.250678,-0.23622 0.306926,-0.65647 0.125002,-0.93388 z m -32.92896,-6.65754 c 0.0051,-0.94494 0.608496,-2.981282 0.207411,-0.74664 -0.09633,0.536723 0.104883,1.30742 -0.0092,1.71807 -1.283069,3.768855 -0.203272,-0.0265 -0.198211,-0.97143 z m 4.54858,-0.21475 c 0,-0.82683 0.0938,-1.16507 0.208436,-0.75166 0.114642,0.41341 0.06365,1.079046 0,1.50332 -0.445282,2.968352 -0.208436,0.0752 -0.208436,-0.75166 z m 0.341947,-2.063329 c 0.178779,-0.815382 0.577766,-2.154204 0.915462,-3.00662 1.919295,-4.8447111 0.631503,-1.00084 -0.496374,2.57962 -0.535357,1.69949 -0.946652,2.833137 -0.419088,0.427 z m 1.661163,-5.053915 c 0,-1.14324 4.034972,-7.3108826 5.314729,-7.9772462 4.094408,-2.1319397 0.503863,-0.012 -0.608418,1.07252 -0.8892,0.86695 -2.186663,2.637 -2.883251,3.93346 -1.145019,2.1310502 -1.82306,3.6330762 -1.82306,2.9712662 z m 6.550927,-8.5560962 c 0,-0.2939 4.443562,-1.9100813 4.652062,-1.7135913 0.09889,0.0932 -2.083132,0.8031913 -3.062564,1.1960613 -0.889548,0.3568157 -1.589498,0.62576 -1.589498,0.51753 z M 43.746795,32.592844 c -0.328302,-0.5006 1.630459,-1.02624 3.954179,-1.06111 0.970994,-0.0146 1.514464,-0.18575 1.284054,-0.40442 -0.502012,-0.47644 -7.661733,0.53635 -8.05748,1.1398 -0.18418,0.28083 0.146473,0.33577 0.919897,0.15283 0.7144,-0.16897 1.207424,-0.10685 1.207424,0.15212 0,0.24075 0.217206,0.4377 0.482678,0.4377 0.265472,0 0.359632,-0.18761 0.209248,-0.41692 z m 27.886708,-1.92091 c -0.288466,-1.6752 -2.012624,-4.10494 -2.91289,-4.10494 -0.915221,0 -0.716452,0.81707 0.541491,2.22592 0.626695,0.70188 1.139445,1.61566 1.139445,2.03063 0,0.84032 0.384144,1.32719 1.047155,1.32719 0.246298,0 0.327522,-0.64998 0.184799,-1.4788 z m -17.222164,-0.4944 c 0.104446,-0.0959 -0.562129,-0.17439 -1.481278,-0.17439 -0.919154,0 -1.671188,0.17642 -1.671188,0.39204 0,0.3629 2.72516,0.17474 3.152466,-0.21765 z m 12.457931,-0.44428 c 0.940042,-0.14818 1.709167,-0.438 1.709167,-0.64404 0,-0.59936 -1.435044,-0.39307 -3.646224,0.52413 -1.12805,0.46792 -1.538251,0.74695 -0.911556,0.62005 0.626695,-0.12689 1.90857,-0.35195 2.848613,-0.50014 z m -7.178504,-0.15963 c 0.771938,-0.31261 0.702131,-0.36597 -0.455778,-0.34851 -0.752034,0.0113 -1.982634,0.16818 -2.734668,0.34851 -1.30672,0.31334 -1.28652,0.3288 0.455778,0.34851 1.002712,0.0113 2.233312,-0.14548 2.734668,-0.34851 z m 0.860814,-1.21118 c 0.127021,-0.19368 -0.04426,-1.20842 -0.380634,-2.25497 l -0.611581,-1.90283 -0.50038,1.20011 c -1.166245,2.79712 -1.150803,3.30983 0.09969,3.30983 0.639078,0 1.265883,-0.15846 1.392905,-0.35214 z"
     id="path2987"
     inkscape:connector-curvature="0"
     sodipodi:nodetypes="ssssssssssssssssssssssssssscsscsssscsssssssscssscsccssscsssssccsscssscscsssssssscsssscscsscssssssssssccssscsccsssscsssscscsscsssscsscccsccssssccccccsssssscsccssssssssssscssscsssssssssccccccscscscssscccccscscccsssssssssscscccsscssccscssscsssssssscsssssccscccsccscsscssccsccscccsssscsssscssscsscssscscscssssssscccsccssscsscsccsscccccccccssccsssssccccssssssscccsccssssccsccsssssscsssssssssccsssccsscsssccccscccsscssssssssscssccscscscscscsssscssscssssssssssssccscsssssscsscscsscssscscccccsssssscsscsscsccscsscssssssscccssssssscssscscccscccccsssssssscscccsscscssccssscccsscscscscssssccscscccccsssccscscccccsssssscssscscssscsscssssssssssssssssssssccsssccscssccsccccsccscsssssssscssscssscsccssssssssscssccssccscscssscsss" />
  <path
     style="color:#000000;fill:#abc837;fill-opacity:1;fill-rule:nonzero;stroke:#464646;stroke-width:0.17003521;stroke-linecap:round;stroke-linejoin:round;stroke-miterlimit:4;stroke-opacity:1;stroke-dasharray:none;stroke-dashoffset:0;marker:none;visibility:visible;display:inline;overflow:visible;enable-background:accumulate"
     d="m 9.6467911,80.047947 c 0.0553,-0.350698 0.177513,-2.474013 0.271594,-4.718477 0.09408,-2.244465 0.2170039,-4.328946 0.2731619,-4.63218 0.214068,-1.155895 -0.04087,-1.149164 -1.1698249,0.03089 -1.042788,1.089987 -1.458396,1.289151 -1.989344,0.953313 -0.213014,-0.134738 -0.204446,-0.205501 0.06031,-0.498048 0.248419,-0.2745 0.337167,-0.798761 0.455103,-2.688436 0.260459,-4.173308 0.93298,-5.710834 4.0149629,-9.179073 1.199174,-1.349462 1.40559,-1.661368 1.18221,-1.786378 -0.448281,-0.250871 -1.244525,0.295419 -3.1761929,2.179136 -1.965931,1.917128 -2.741233,2.418662 -1.082399,0.700189 0.564212,-0.584496 1.461063,-1.545305 1.9930019,-2.135132 1.11839,-1.240098 1.155938,-1.450771 0.627092,-3.518539 -0.575341,-2.249559 -0.417964,-3.587884 0.956447,-8.133556 0.419463,-1.387317 0.736011,-2.602344 0.703439,-2.700059 -0.11359,-0.34077 -2.603375,2.572113 -3.6888489,4.31571 -2.260378,3.630843 -4.394988,8.140971 -5.641393,11.919461 -1.067287,3.235493 -1.520873,5.736461 -1.626187,8.966419 -0.143351,4.396557 0.285949,5.699121 2.533878,7.688192 1.994163,1.764526 4.764173,3.874203 5.086838,3.874203 0.06359,0 0.16086,-0.286935 0.216156,-0.637632 z M 4.8151591,68.068966 c 0,-0.274678 0.05028,-0.323796 0.189227,-0.18485 0.104074,0.104073 0.137816,0.272408 0.07498,0.374077 -0.175883,0.284585 -0.264209,0.221325 -0.264209,-0.189227 z m 1.360282,-4.398086 c 0,-0.28409 0.335487,-0.838998 0.507242,-0.838998 0.08856,0 0.07885,0.219041 -0.02262,0.510105 -0.171069,0.490729 -0.484626,0.703524 -0.484626,0.328893 z"
     id="path3756"
     inkscape:connector-curvature="0" />
  <path
     style="color:#000000;fill:#abc837;fill-opacity:1;fill-rule:nonzero;stroke:#464646;stroke-width:0.17003521;stroke-linecap:round;stroke-linejoin:round;stroke-miterlimit:4;stroke-opacity:1;stroke-dasharray:none;stroke-dashoffset:0;marker:none;visibility:visible;display:inline;overflow:visible;enable-background:accumulate"
     d="M 63.706264,70.235101 C 63.906085,69.714376 63.82424,68.922745 63.143028,64.787287 62.236488,59.283914 61.873962,57.6021 61.480061,57.072517 61.292028,56.819714 60.63809,56.41208 59.974491,56.134015 58.51392,55.521998 46.025087,51.328316 45.204773,51.174425 l -0.601376,-0.112819 0,0.669079 c 0,0.367994 0.271628,2.155503 0.603615,3.972242 0.331989,1.816739 0.754151,4.279966 0.938137,5.473836 0.35468,2.301484 0.714017,3.599588 1.124931,4.063813 0.350485,0.395955 1.158813,0.687887 8.385606,3.028513 6.752561,2.18703 7.861815,2.457919 8.050578,1.966012 z"
     id="path3758"
     inkscape:connector-curvature="0" />
  <path
     style="color:#000000;fill:#abc837;fill-opacity:1;fill-rule:nonzero;stroke:#464646;stroke-width:0.17003521;stroke-linecap:round;stroke-linejoin:round;stroke-miterlimit:4;stroke-opacity:1;stroke-dasharray:none;stroke-dashoffset:0;marker:none;visibility:visible;display:inline;overflow:visible;enable-background:accumulate"
     d="m 63.766884,55.463367 c 1.362138,-1.39746 2.806537,-3.163696 4.664403,-5.703707 1.706018,-2.33241 2.400041,-3.496349 2.400041,-4.025082 0,-0.843124 -3.866147,-8.109964 -4.714962,-8.862279 -0.583435,-0.517105 -2.1505,-0.829189 -2.679236,-0.533576 -0.861435,0.481623 -4.203344,4.583729 -4.890211,6.002605 -0.419531,0.866636 -0.426215,0.625259 0.09657,3.487033 0.04271,0.233798 -0.141742,-0.03401 -0.409892,-0.595123 -0.268151,-0.561116 -0.766082,-1.383662 -1.106516,-1.827879 -0.617627,-0.805916 -0.618057,-0.807667 -0.198188,-0.807667 0.552034,0 1.772835,-1.279777 4.054988,-4.25088 l 1.763192,-2.295475 -0.357531,-0.44032 c -0.196643,-0.242175 -0.681057,-0.839935 -1.076477,-1.328355 -0.39542,-0.48842 -0.799208,-1.186107 -0.897306,-1.550415 -0.0981,-0.364309 -0.255441,-0.710018 -0.34965,-0.768243 -0.41456,-0.256212 -13.722975,1.865682 -17.280692,2.755234 -1.543324,0.385884 -1.670749,0.591623 -1.65307,2.669063 0.01282,1.50626 0.10633,2.034648 0.741377,4.18918 0.971507,3.296039 1.639978,5.808088 1.888296,7.09603 0.112381,0.582879 0.290279,1.125578 0.395328,1.205998 0.332771,0.25475 6.914261,2.864881 8.862796,3.514864 2.859699,0.953927 7.372585,2.29603 7.720511,2.29603 0.392504,0 0.338203,-0.303465 -0.715004,-3.995827 -1.430425,-5.014826 -1.293616,-5.210079 0.288281,-0.411433 1.411009,4.280262 1.767094,5.207237 2.040608,5.312194 0.127538,0.04894 0.738876,-0.441034 1.412348,-1.13197 l 0,0 z M 53.700281,41.680311 c -0.551764,-0.318564 -0.462928,-0.304555 0.890685,0.140457 0.489877,0.161051 0.932612,0.360659 0.983855,0.443573 0.127713,0.206643 -1.246791,-0.221596 -1.87454,-0.58403 z M 49.73523,40.519999 c -0.497429,-0.184807 -0.866554,-0.373877 -0.820275,-0.420155 0.102959,-0.10296 1.704887,0.372931 2.404833,0.714415 l 0.510106,0.248866 -0.595123,-0.103557 C 50.907453,40.902608 50.23266,40.704806 49.73523,40.519999 l 0,0 z"
     id="path3760"
     inkscape:connector-curvature="0" />
  <path
     style="color:#000000;fill:#abc837;fill-opacity:1;fill-rule:nonzero;stroke:#464646;stroke-width:0.17003521;stroke-linecap:round;stroke-linejoin:round;stroke-miterlimit:4;stroke-opacity:1;stroke-dasharray:none;stroke-dashoffset:0;marker:none;visibility:visible;display:inline;overflow:visible;enable-background:accumulate"
     d="m 65.915923,68.57057 c 1.122488,-1.235949 5.830009,-6.778232 7.6609,-9.019368 l 0.662564,-0.811024 -0.361467,-2.162519 c -0.198808,-1.189386 -0.391681,-2.583357 -0.428608,-3.097714 -0.03693,-0.514356 -0.03226,-0.705954 0.01036,-0.42577 0.118414,0.778383 0.339579,0.947923 1.081748,0.829245 1.239417,-0.198191 2.053248,0.343643 1.418613,0.944486 -0.260214,0.246359 -0.27402,0.23144 -0.175659,-0.189802 0.05871,-0.251448 0.0306,-0.504242 -0.06248,-0.561769 -0.245823,-0.151926 -1.022261,0.686358 -1.022261,1.103687 0,0.201254 -0.09431,0.333595 -0.217569,0.305291 -0.287115,-0.06593 -0.3232,0.1362 -0.188388,1.055266 0.21377,1.457345 0.314596,1.584842 1.176483,1.487694 l 0.762472,-0.08594 -0.791097,0.736705 -0.791098,0.736703 0.137677,0.900405 c 0.07572,0.49522 0.149231,2.23943 0.163353,3.876018 l 0.02567,2.975617 0.456369,0.0538 c 0.561152,0.06616 0.56371,0.148806 0.03333,1.07658 -0.383986,0.671688 -0.568436,1.505163 -0.333098,1.505163 0.05172,0 0.376914,-0.193093 0.72265,-0.429097 0.345737,-0.236005 1.134574,-0.580433 1.752973,-0.765397 1.143003,-0.341875 2.076402,-0.872919 2.907929,-1.654426 0.54533,-0.512527 0.476509,-0.721818 -0.237353,-0.721818 -0.443735,0 -0.489537,-0.03778 -0.309215,-0.255053 0.116421,-0.140279 0.352645,-0.255053 0.524943,-0.255053 0.473799,0 0.665303,-0.532732 0.665303,-1.85076 0,-0.846155 -0.06939,-1.232507 -0.238694,-1.328951 -0.131282,-0.07479 -0.265185,-0.321271 -0.297562,-0.547744 -0.08787,-0.61464 -0.429015,-0.618203 -0.996777,-0.01041 l -0.507389,0.543157 0,-0.437087 c 0,-0.535614 0.426743,-0.789123 1.328363,-0.789123 0.502986,0 0.737278,-0.09562 0.937454,-0.382579 0.252662,-0.362203 0.267348,-0.312401 0.275792,0.935196 0.005,0.736555 0.08204,1.317773 0.174707,1.317773 0.321302,0 1.871401,-2.147808 2.929546,-4.059164 0.588791,-1.063548 1.166173,-1.970794 1.283072,-2.016105 0.138117,-0.05353 0.212354,-0.448149 0.212001,-1.12691 -0.0015,-2.822083 -1.593099,-8.526078 -2.3791,-8.526078 -0.139812,0 -0.998274,1.10948 -1.907693,2.465511 -1.917087,2.85856 -1.886096,2.711602 -1.23708,5.866215 0.230883,1.122232 0.420592,2.344382 0.421574,2.715889 0.0018,0.66976 -5.27e-4,0.672159 -0.272447,0.283941 -0.20431,-0.291693 -0.377732,-0.365546 -0.680141,-0.289646 -0.482084,0.120995 -0.480634,0.127401 -0.130208,-0.575044 0.224506,-0.450032 0.253356,-0.838284 0.155368,-2.090861 -0.141402,-1.807551 -0.198856,-1.999684 -0.597972,-1.999684 -0.256595,0 -0.312324,-0.205178 -0.381015,-1.402791 -0.08707,-1.518011 -0.486412,-2.605652 -1.018741,-2.774607 -0.303195,-0.09623 -0.302039,-0.121092 0.03067,-0.659425 0.190159,-0.307684 0.345744,-0.607781 0.345744,-0.666882 0,-0.228373 -0.457952,-0.08926 -1.065758,0.323761 -0.776263,0.527485 -0.855681,0.203207 -0.103934,-0.424379 0.44294,-0.369783 0.529045,-0.560072 0.520887,-1.151154 -0.01371,-0.993317 -0.274297,-1.406213 -0.887494,-1.406213 -0.584549,0 -0.59098,-0.01896 -0.237973,-0.701602 0.252178,-0.487658 0.248208,-0.51937 -0.07561,-0.60405 -0.277392,-0.07254 -0.306888,-0.145212 -0.156607,-0.38585 0.425644,-0.681565 -1.7878,-5.786883 -3.060902,-7.059985 -0.416301,-0.416301 -0.598919,-0.761342 -0.624312,-1.179581 -0.04378,-0.721187 -1.014434,-2.373049 -1.568742,-2.669706 -0.304503,-0.162965 -0.612377,-0.173704 -1.247864,-0.04353 -1.006669,0.206214 -1.141233,-0.04331 -0.333522,-0.618446 0.766203,-0.545585 0.645625,-0.721543 -0.404532,-0.590335 -1.196125,0.149446 -1.374172,-0.134055 -0.364644,-0.580616 1.485027,-0.656899 0.604809,-1.335079 -1.492455,-1.149891 -2.662983,0.235142 -4.556169,1.214842 -4.302287,2.226383 0.178962,0.713044 0.821028,0.738386 2.618108,0.103336 0.870074,-0.307466 1.625977,-0.515001 1.679788,-0.461191 0.08443,0.08443 -1.69461,0.962419 -1.950118,0.962419 -0.05114,0 -0.230445,0.124405 -0.398459,0.276455 -0.232348,0.210272 -0.264651,0.352743 -0.134933,0.595123 0.210345,0.393034 0.485605,0.400472 1.254322,0.0339 0.565418,-0.269629 0.615455,-0.268228 0.940963,0.02635 0.189085,0.171119 0.340725,0.471427 0.336981,0.667351 -0.006,0.314456 -0.03655,0.301398 -0.260482,-0.111371 -0.28098,-0.517926 -0.764679,-0.608135 -1.099247,-0.205007 -0.180208,0.217138 -0.156646,0.371651 0.136127,0.892685 0.194731,0.346552 0.444963,0.991232 0.556071,1.432621 0.265107,1.053164 0.493854,1.223841 1.462315,1.091099 0.681703,-0.09344 0.755948,-0.07448 0.572743,0.146271 -0.11577,0.139494 -0.17408,0.444088 -0.12958,0.676877 0.07233,0.378352 0.03624,0.41204 -0.340197,0.317561 -0.408098,-0.102426 -0.396301,-0.05766 0.381916,1.449109 0.441662,0.85514 1.026524,1.79406 1.299692,2.086487 0.326384,0.349395 0.462622,0.638959 0.397364,0.84457 -0.05462,0.172086 0.05152,0.653847 0.235859,1.070579 0.365566,0.826424 0.882949,1.182479 1.983779,1.365208 0.901316,0.149612 1.369234,0.430611 0.723092,0.434239 -0.777537,0.0044 -1.038887,0.618364 -0.946023,2.222524 0.09073,1.567409 0.253919,1.845982 0.907025,1.548407 0.407499,-0.185668 0.43313,-0.174133 0.330634,0.148801 -0.06111,0.19254 -0.0189,0.461173 0.0938,0.596965 0.164148,0.197785 0.152447,0.246893 -0.05882,0.246893 -0.14505,0 -0.38761,0.123883 -0.539023,0.275296 -0.151412,0.151411 -0.302632,0.247056 -0.336044,0.212544 -0.03341,-0.03451 -0.338471,-0.904426 -0.677909,-1.933139 -0.339438,-1.028713 -0.651042,-1.967765 -0.692454,-2.086783 -0.149134,-0.428616 -0.779981,0.203162 -2.593065,2.596888 -0.991683,1.309271 -2.653051,3.413457 -3.691931,4.675969 -2.322968,2.823016 -2.516184,3.125333 -2.516184,3.936966 0,0.914271 1.63445,11.536237 1.775132,11.536237 0.06379,0 0.689294,-0.631255 1.39,-1.40279 l 0,0 z m 10.698439,-5.20976 c 0.09955,-0.380695 -0.0096,-0.575118 -0.469434,-0.83585 -0.32758,-0.18576 -0.328072,-0.193033 -0.01339,-0.198013 0.367182,-0.0058 0.948582,0.455305 0.948582,0.752334 0,0.186338 -0.330874,0.602777 -0.478926,0.602777 -0.03896,0 -0.03304,-0.144562 0.01317,-0.321248 l 1e-6,0 z m -1.064557,-3.91144 c 0,-0.179454 0.421501,-0.360482 0.821574,-0.352856 0.244688,0.0047 0.238313,0.0397 -0.04641,0.255053 -0.368477,0.278703 -0.775169,0.330015 -0.775169,0.0978 z M 70.490183,41.534972 c 0.03837,-0.116899 0.331686,-0.233022 0.651802,-0.258051 0.549313,-0.04295 0.563476,-0.031 0.251968,0.212544 -0.399627,0.31244 -1.001344,0.342738 -0.90377,0.04551 z m 3.189235,-0.452482 c 0,-0.212661 1.040235,-1.071981 1.156693,-0.955523 0.108206,0.108207 -0.811018,1.110443 -1.01847,1.110443 -0.07602,0 -0.138223,-0.06971 -0.138223,-0.15492 z m -2.204935,-4.446349 c 0.161745,-0.302223 0.504583,-0.460912 0.504583,-0.233556 0,0.267648 -0.377935,0.750649 -0.519097,0.663406 -0.101163,-0.06252 -0.09571,-0.223887 0.01451,-0.42985 l 0,0 z"
     id="path3762"
     inkscape:connector-curvature="0" />
  <path
     style="color:#000000;fill:#abc837;fill-opacity:1;fill-rule:nonzero;stroke:#464646;stroke-width:0.17003521;stroke-linecap:round;stroke-linejoin:round;stroke-miterlimit:4;stroke-opacity:1;stroke-dasharray:none;stroke-dashoffset:0;marker:none;visibility:visible;display:inline;overflow:visible;enable-background:accumulate"
     d="m 49.789471,79.991666 c 0.935194,-0.370446 4.148859,-1.481173 7.141479,-2.468283 5.589271,-1.84361 6.771805,-2.351435 7.087123,-3.043482 0.218413,-0.479364 0.03952,-2.484482 -0.254984,-2.858001 -0.325382,-0.412681 -15.29929,-5.389314 -16.215597,-5.389314 -0.224305,0 -0.247047,0.846691 -0.18611,6.928935 0.03818,3.810914 0.130084,7.062837 0.204226,7.226496 0.179711,0.396679 0.256326,0.383024 2.223863,-0.396351 z"
     id="path3764"
     inkscape:connector-curvature="0" />
  <path
     style="color:#000000;fill:#abc837;fill-opacity:1;fill-rule:nonzero;stroke:#464646;stroke-width:0.17003521;stroke-linecap:round;stroke-linejoin:round;stroke-miterlimit:4;stroke-opacity:1;stroke-dasharray:none;stroke-dashoffset:0;marker:none;visibility:visible;display:inline;overflow:visible;enable-background:accumulate"
     d="m 66.282886,73.895083 c 1.119513,-0.400716 3.593265,-1.464359 6.121268,-2.631971 l 2.040422,-0.942412 0.04687,-2.648294 c 0.05519,-3.117986 -0.166425,-6.643425 -0.434458,-6.911458 -0.264862,-0.264862 -2.083484,1.522834 -4.787896,4.706479 -4.221994,4.970147 -4.761525,5.808104 -4.767844,7.405034 -0.0056,1.41198 0.26306,1.566178 1.781635,1.022622 z"
     id="path3766"
     inkscape:connector-curvature="0" />
  <path
     style="color:#000000;fill:#abc837;fill-opacity:1;fill-rule:nonzero;stroke:#464646;stroke-width:0.17003521;stroke-linecap:round;stroke-linejoin:round;stroke-miterlimit:4;stroke-opacity:1;stroke-dasharray:none;stroke-dashoffset:0;marker:none;visibility:visible;display:inline;overflow:visible;enable-background:accumulate"
     d="m 83.843789,65.727201 c 2.328097,-1.119377 3.8981,-2.165884 4.094485,-2.729234 0.173913,-0.498888 -0.493635,-4.986043 -0.837297,-5.628182 l -0.19355,-0.361651 -0.384744,0.403854 c -0.627874,0.659062 -3.845178,5.743317 -4.378087,6.918622 -0.48057,1.059875 -0.581683,2.070607 -0.21847,2.183856 0.09352,0.02916 0.956468,-0.32511 1.917663,-0.787265 l 0,0 z"
     id="path3768"
     inkscape:connector-curvature="0" />
  <path
     style="color:#000000;fill:#abc837;fill-opacity:1;fill-rule:nonzero;stroke:#464646;stroke-width:0.17003521;stroke-linecap:round;stroke-linejoin:round;stroke-miterlimit:4;stroke-opacity:1;stroke-dasharray:none;stroke-dashoffset:0;marker:none;visibility:visible;display:inline;overflow:visible;enable-background:accumulate"
     d="m 80.597793,51.230245 c 0.405842,-0.444336 1.873929,-2.774597 2.409878,-3.825144 0.45255,-0.887071 0.45623,-1.332808 0.01942,-2.351851 -0.495264,-1.155406 -3.432709,-5.989338 -4.124206,-6.786896 -0.539734,-0.622518 -0.620139,-0.659908 -1.023695,-0.476035 l -0.437955,0.199545 0.241488,-0.68445 c 0.284468,-0.806267 0.09217,-1.437444 -0.769361,-2.52521 -0.602864,-0.761178 -3.139959,-2.947959 -3.843963,-3.3132 -1.339301,-0.694838 -1.086398,1.034115 0.633587,4.331475 0.561623,1.07668 1.284173,2.320062 1.605665,2.763072 0.569918,0.785335 1.091333,1.053108 1.091333,0.560454 0,-0.253572 0.304928,-0.526944 0.438633,-0.393239 0.04177,0.04176 -0.04381,0.362523 -0.190159,0.712794 -0.222743,0.5331 -0.233993,0.791496 -0.06905,1.586027 0.265322,1.278049 3.339813,10.479787 3.52178,10.540442 0.0793,0.02643 0.302777,-0.125568 0.496607,-0.337784 l 0,0 z"
     id="path3770"
     inkscape:connector-curvature="0" />
  <path
     style="color:#000000;fill:#5599ff;fill-opacity:1;fill-rule:nonzero;stroke:#5599ff;stroke-width:0.08501761;stroke-linecap:round;stroke-linejoin:round;stroke-miterlimit:4;stroke-opacity:1;stroke-dasharray:none;stroke-dashoffset:0;marker:none;visibility:visible;display:inline;overflow:visible;enable-background:accumulate"
     d="m 33.092758,38.814971 c 0.180225,-0.217157 0.02864,-0.613187 -0.588566,-1.537718 -0.798545,-1.196159 -0.845336,-1.42125 -0.657826,-3.164527 0.214446,-1.993715 0.193247,-2.311496 -0.154204,-2.311496 -0.314048,0 -0.616346,0.310666 -0.934692,0.960567 -0.957929,1.955607 -0.618704,4.157151 0.863218,5.602205 0.573511,0.559244 1.218279,0.756769 1.47207,0.450969 l 0,0 z"
     id="path3772"
     inkscape:connector-curvature="0" />
  <path
     style="color:#000000;fill:#5599ff;fill-opacity:1;fill-rule:nonzero;stroke:#5599ff;stroke-width:0.08501761;stroke-linecap:round;stroke-linejoin:round;stroke-miterlimit:4;stroke-opacity:1;stroke-dasharray:none;stroke-dashoffset:0;marker:none;visibility:visible;display:inline;overflow:visible;enable-background:accumulate"
     d="m 40.262809,36.733101 c 0.435522,-0.517588 0.494302,-1.715874 0.131709,-2.684992 -0.316703,-0.846465 -1.277311,-2.077253 -2.141801,-2.744202 -0.262078,-0.202192 -0.516487,-0.342912 -0.565353,-0.312711 -0.04887,0.0302 -0.08885,0.259055 -0.08885,0.508564 0,0.465827 -0.01634,0.426929 0.952385,2.267204 0.181341,0.344493 0.284791,0.715536 0.370532,1.32898 0.135186,0.967214 0.217085,1.22393 0.515122,1.614676 0.269498,0.353331 0.541632,0.360735 0.826254,0.02248 l 0,0 z"
     id="path3774"
     inkscape:connector-curvature="0" />
  <path
     style="color:#000000;fill:#5599ff;fill-opacity:1;fill-rule:nonzero;stroke:#464646;stroke-width:0.08501761;stroke-linecap:round;stroke-linejoin:round;stroke-miterlimit:4;stroke-opacity:1;stroke-dasharray:none;stroke-dashoffset:0;marker:none;visibility:visible;display:inline;overflow:visible;enable-background:accumulate"
     d="m 65.440958,35.97176 c 0.226439,-0.03149 0.348334,-0.09495 0.366573,-0.190836 0.0176,-0.09255 -0.401725,-0.561336 -1.178759,-1.317772 -1.247166,-1.214108 -2.1255,-2.280524 -2.277698,-2.765436 -0.04818,-0.153486 -0.126966,-0.604258 -0.175092,-1.001715 -0.04813,-0.397457 -0.128332,-0.864929 -0.178234,-1.038825 -0.114758,-0.399904 -0.476535,-0.838793 -0.63978,-0.77615 -0.185656,0.07124 -0.623013,1.028815 -0.725187,1.587762 -0.227711,1.245708 0.412818,2.968521 1.52923,4.113126 0.993358,1.018443 2.217733,1.537419 3.278947,1.389846 z"
     id="path3776"
     inkscape:connector-curvature="0" />
  <path
     style="color:#000000;fill:#5599ff;fill-opacity:1;fill-rule:nonzero;stroke:#464646;stroke-width:0.08501761;stroke-linecap:round;stroke-linejoin:round;stroke-miterlimit:4;stroke-opacity:1;stroke-dasharray:none;stroke-dashoffset:0;marker:none;visibility:visible;display:inline;overflow:visible;enable-background:accumulate"
     d="m 71.638971,32.006821 c 0.02838,-0.07396 0.0516,-0.397316 0.0516,-0.718559 0,-1.204501 -0.822245,-2.936682 -1.920222,-4.045228 -0.635302,-0.641418 -0.93855,-0.785435 -1.335811,-0.634396 -0.534348,0.203158 -0.345829,0.746049 0.725562,2.089449 0.758593,0.951188 1.140707,1.635809 1.218274,2.182742 0.08853,0.624243 0.209504,0.910628 0.460012,1.089006 0.290564,0.2069 0.72763,0.227092 0.800581,0.03699 z"
     id="path3778"
     inkscape:connector-curvature="0" />
  <path
     style="color:#000000;fill:#5599ff;fill-opacity:1;fill-rule:nonzero;stroke:#464646;stroke-width:0.08501761;stroke-linecap:round;stroke-linejoin:round;stroke-miterlimit:4;stroke-opacity:1;stroke-dasharray:none;stroke-dashoffset:0;marker:none;visibility:visible;display:inline;overflow:visible;enable-background:accumulate"
     d="m 64.580012,27.496248 c 0.295875,-0.295875 0.308456,-0.772239 0.02737,-1.036307 -0.257654,-0.242054 -0.411837,-0.233203 -0.684322,0.03928 -0.295875,0.295875 -0.308456,0.772239 -0.02737,1.036307 0.257654,0.242054 0.411837,0.233203 0.684322,-0.03928 l 0,0 z"
     id="path3780"
     inkscape:connector-curvature="0" />
  <path
     style="color:#000000;fill:#5599ff;fill-opacity:1;fill-rule:nonzero;stroke:#5599ff;stroke-width:0.12023305;stroke-linecap:round;stroke-linejoin:round;stroke-miterlimit:4;stroke-opacity:1;stroke-dasharray:none;stroke-dashoffset:0;marker:none;visibility:visible;display:inline;overflow:visible;enable-background:accumulate"
     d="m 26.050287,36.031777 c 2.556901,-0.970238 3.186175,-1.258703 3.186175,-1.460571 0,-0.257303 -0.348244,-0.191926 -2.030818,0.381251 -0.873542,0.297577 -1.623572,0.541049 -1.666733,0.541049 -0.141645,0 0.864926,-0.977927 1.173494,-1.140101 0.165781,-0.08713 0.50273,-0.158416 0.748776,-0.158416 0.246046,0 0.703477,-0.123986 1.016514,-0.275525 0.823451,-0.398625 2.369226,-1.920293 2.758064,-2.715048 l 0.319932,-0.653918 -0.276562,-1.43607 c -0.152109,-0.789839 -0.308728,-1.435131 -0.348041,-1.433983 -0.128776,0.0038 -2.186257,3.589777 -2.493574,4.346088 -0.171285,0.421535 -0.27109,0.853524 -0.232614,1.006826 0.0518,0.206396 0.0057,0.284641 -0.199284,0.338246 -0.367938,0.09622 -0.77641,-0.202632 -0.872034,-0.638007 -0.0439,-0.199866 -0.131319,-0.395225 -0.194269,-0.43413 -0.173726,-0.107369 -1.478695,1.286922 -1.772482,1.893804 -0.142317,0.293988 -0.258758,0.684934 -0.258758,0.868769 0,0.487878 -0.313988,0.941738 -0.914212,1.321468 -1.10579,0.699575 -0.39269,0.577606 2.056426,-0.351732 z"
     id="path3784"
     inkscape:connector-curvature="0" />
  <path
     style="color:#000000;fill:#5599ff;fill-opacity:1;fill-rule:nonzero;stroke:#5599ff;stroke-width:0.12023305;stroke-linecap:round;stroke-linejoin:round;stroke-miterlimit:4;stroke-opacity:1;stroke-dasharray:none;stroke-dashoffset:0;marker:none;visibility:visible;display:inline;overflow:visible;enable-background:accumulate"
     d="m 12.55586,55.66826 c 0.242947,-0.521164 0.377705,-1.245466 0.755214,-4.059142 0.516187,-3.847278 1.023827,-5.77538 2.106246,-7.999881 1.142075,-2.347103 2.715901,-3.92397 5.168533,-5.178523 0.711813,-0.364101 1.327336,-0.74834 1.367829,-0.853864 0.342875,-0.893516 -5.410068,2.173017 -6.905999,3.681156 -1.764229,1.778625 -3.529573,7.74647 -3.540801,11.969874 -0.0042,1.569071 0.02646,1.866009 0.235672,2.284428 0.308972,0.617945 0.574231,0.668809 0.813306,0.155952 z"
     id="path3786"
     inkscape:connector-curvature="0" />
  <path
     style="color:#000000;fill:#5599ff;fill-opacity:1;fill-rule:nonzero;stroke:#464646;stroke-width:0.12023305;stroke-linecap:round;stroke-linejoin:round;stroke-miterlimit:4;stroke-opacity:1;stroke-dasharray:none;stroke-dashoffset:0;marker:none;visibility:visible;display:inline;overflow:visible;enable-background:accumulate"
     d="m 8.5544501,66.256747 c 0.679308,-0.937757 2.8929259,-5.518905 2.8827469,-5.965929 -0.01134,-0.497931 -1.9106599,2.019073 -2.7020219,3.580752 -0.369926,0.730014 -0.606604,1.484262 -0.725308,2.311421 -0.10348,0.721081 0.05966,0.743175 0.544583,0.07376 l 0,0 z"
     id="path3788"
     inkscape:connector-curvature="0" />
  <path
     style="color:#000000;fill:#5599ff;fill-opacity:1;fill-rule:nonzero;stroke:#464646;stroke-width:0.12023305;stroke-linecap:round;stroke-linejoin:round;stroke-miterlimit:4;stroke-opacity:1;stroke-dasharray:none;stroke-dashoffset:0;marker:none;visibility:visible;display:inline;overflow:visible;enable-background:accumulate"
     d="m 8.7685441,70.571498 c 0.139746,-0.148789 0.604642,-1.163255 1.033103,-2.25437 1.2905999,-3.286634 2.0460359,-5.010137 3.3160099,-7.565373 0.665449,-1.33891 1.209907,-2.505157 1.209907,-2.591661 0,-0.232478 -0.363396,-0.330322 -0.575767,-0.155024 -0.513981,0.424254 -2.362744,3.76399 -4.0444789,7.306232 -1.679906,3.538388 -2.005713,4.634206 -1.564938,5.263501 0.233952,0.334014 0.309722,0.333614 0.626164,-0.0033 l 0,2e-6 z"
     id="path3790"
     inkscape:connector-curvature="0" />
  <path
     style="color:#000000;fill:#5599ff;fill-opacity:1;fill-rule:nonzero;stroke:#000000;stroke-width:0.0425088;stroke-linecap:round;stroke-linejoin:round;stroke-miterlimit:4;stroke-opacity:1;stroke-dasharray:none;stroke-dashoffset:0;marker:none;visibility:visible;display:inline;overflow:visible;enable-background:accumulate"
     d="m 34.20234,37.534875 c 0.105209,-0.0301 0.430402,-0.14478 0.72265,-0.254837 0.292248,-0.110056 0.885245,-0.325423 1.317772,-0.478593 0.926872,-0.328231 1.508831,-0.579026 1.854034,-0.798994 0.259006,-0.165043 0.312158,-0.217218 0.313264,-0.307508 0.0012,-0.09562 -0.406674,-0.0589 -1.097697,0.09882 -0.847549,0.193442 -1.620568,0.342854 -1.943528,0.375651 l -0.252556,0.02565 0.19129,-0.08525 c 0.295446,-0.131668 0.396999,-0.197354 0.484707,-0.313516 0.07719,-0.102235 0.07753,-0.112221 0.0073,-0.219367 -0.128115,-0.195528 -0.329117,-0.252973 -0.874607,-0.249957 -0.397599,0.0022 -0.5884,0.02733 -1.022147,0.134609 -0.821168,0.203111 -1.521375,0.499985 -1.587851,0.67322 -0.0834,0.217342 0.06713,0.290678 0.722205,0.351842 0.494352,0.04616 0.720008,0.104644 0.676341,0.175299 -0.01448,0.02342 -0.05308,0.04259 -0.08579,0.04259 -0.0327,0 -0.136785,0.07355 -0.231289,0.163453 -0.219146,0.208469 -0.233442,0.382511 -0.04582,0.557779 0.1903,0.177767 0.481421,0.215064 0.851694,0.109116 l 0,0 z"
     id="path3798"
     inkscape:connector-curvature="0" />
  <path
     style="color:#000000;fill:#5599ff;fill-opacity:1;fill-rule:nonzero;stroke:#000000;stroke-width:0.0425088;stroke-linecap:round;stroke-linejoin:round;stroke-miterlimit:4;stroke-opacity:1;stroke-dasharray:none;stroke-dashoffset:0;marker:none;visibility:visible;display:inline;overflow:visible;enable-background:accumulate"
     d="m 33.192842,34.263481 c 0.191928,-0.06861 0.433568,-0.246925 0.526207,-0.38831 0.166182,-0.253625 -0.100466,-0.474438 -0.520561,-0.431081 -0.421525,0.04351 -0.6656,0.250143 -0.621272,0.525978 0.01703,0.105947 0.207334,0.311457 0.288417,0.311457 0.02997,0 0.07997,0.0088 0.111102,0.01948 0.03114,0.01072 0.128385,-0.0062 0.216107,-0.03753 l 0,0 z"
     id="path3800"
     inkscape:connector-curvature="0" />
  <path
     style="color:#000000;fill:#5599ff;fill-opacity:1;fill-rule:nonzero;stroke:#000000;stroke-width:0.0425088;stroke-linecap:round;stroke-linejoin:round;stroke-miterlimit:4;stroke-opacity:1;stroke-dasharray:none;stroke-dashoffset:0;marker:none;visibility:visible;display:inline;overflow:visible;enable-background:accumulate"
     d="m 37.794334,35.100942 c 0.368735,-0.09064 0.132941,-0.310022 -0.331444,-0.308378 -0.438545,0.0016 -0.79344,0.218259 -0.494326,0.301846 0.118411,0.03309 0.699039,0.03768 0.82577,0.0065 z"
     id="path3802"
     inkscape:connector-curvature="0" />
  <path
     style="color:#000000;fill:#5599ff;fill-opacity:1;fill-rule:nonzero;stroke:#000000;stroke-width:0.0425088;stroke-linecap:round;stroke-linejoin:round;stroke-miterlimit:4;stroke-opacity:1;stroke-dasharray:none;stroke-dashoffset:0;marker:none;visibility:visible;display:inline;overflow:visible;enable-background:accumulate"
     d="m 43.758319,32.955251 c 0.06458,-0.06458 0.06528,-0.211236 0.0017,-0.350823 -0.07771,-0.170545 0.009,-0.299228 0.300859,-0.446563 0.688929,-0.347771 1.669558,-0.510498 3.829317,-0.635443 0.893596,-0.0517 1.245117,-0.171568 1.111394,-0.378995 -0.06034,-0.0936 -0.338284,-0.133026 -0.941359,-0.13354 -1.861743,-0.0016 -5.828179,0.622025 -6.860699,1.078654 -0.284109,0.125646 -0.395161,0.292438 -0.260345,0.391017 0.112494,0.08226 0.24226,0.07508 0.930096,-0.05148 0.840562,-0.154653 1.133427,-0.102615 1.192426,0.211876 0.03972,0.211738 0.236396,0.366304 0.466095,0.366304 0.09874,0 0.202481,-0.02296 0.230537,-0.05101 z"
     id="path3804"
     inkscape:connector-curvature="0" />
  <path
     style="color:#000000;fill:#5599ff;fill-opacity:1;fill-rule:nonzero;stroke:#000000;stroke-width:0.0425088;stroke-linecap:round;stroke-linejoin:round;stroke-miterlimit:4;stroke-opacity:1;stroke-dasharray:none;stroke-dashoffset:0;marker:none;visibility:visible;display:inline;overflow:visible;enable-background:accumulate"
     d="m 41.917688,34.252652 c 0.515153,-0.06518 1.588147,-0.251791 3.874765,-0.673887 1.453105,-0.268235 3.748581,-0.669303 5.101056,-0.891263 1.352475,-0.221959 2.793803,-0.46128 3.20295,-0.531825 1.12669,-0.19426 5.924288,-1.155809 5.970362,-1.196596 0.04098,-0.03628 -1.219179,-0.06289 -1.995789,-0.04213 -0.921137,0.02462 -2.714655,0.264918 -5.3136,0.711934 -5.251511,0.903257 -10.933082,2.150989 -11.393642,2.502163 -0.07238,0.05519 -0.07509,0.06963 -0.01997,0.106513 0.06188,0.04141 0.313583,0.04803 0.573869,0.01509 z"
     id="path3808"
     inkscape:connector-curvature="0" />
  <path
     style="color:#000000;fill:#5599ff;fill-opacity:1;fill-rule:nonzero;stroke:#000000;stroke-width:0.0425088;stroke-linecap:round;stroke-linejoin:round;stroke-miterlimit:4;stroke-opacity:1;stroke-dasharray:none;stroke-dashoffset:0;marker:none;visibility:visible;display:inline;overflow:visible;enable-background:accumulate"
     d="m 52.948722,30.558137 c 0.05845,-0.0097 0.249739,-0.03785 0.425088,-0.06253 0.508643,-0.0716 1.06272,-0.248484 1.06272,-0.339262 0,-0.149305 -1.929169,-0.201731 -2.565904,-0.06973 -0.524467,0.108726 -0.755645,0.291517 -0.529176,0.418415 0.09563,0.05359 1.354084,0.09517 1.607272,0.05311 z"
     id="path3810"
     inkscape:connector-curvature="0" />
  <path
     style="color:#000000;fill:#5599ff;fill-opacity:1;fill-rule:nonzero;stroke:#000000;stroke-width:0.0425088;stroke-linecap:round;stroke-linejoin:round;stroke-miterlimit:4;stroke-opacity:1;stroke-dasharray:none;stroke-dashoffset:0;marker:none;visibility:visible;display:inline;overflow:visible;enable-background:accumulate"
     d="m 57.815979,29.900654 c 1.116968,-0.07386 2.008613,-0.287062 2.350624,-0.562065 0.109734,-0.08823 -0.05279,-0.114308 -0.714035,-0.114551 -1.02457,-3.76e-4 -2.190335,0.15146 -3.294432,0.429086 -0.493647,0.124128 -0.620275,0.174914 -0.545691,0.218856 0.0731,0.04307 1.671308,0.06387 2.203534,0.02867 l 0,0 z"
     id="path3812"
     inkscape:connector-curvature="0" />
  <path
     style="color:#000000;fill:#5599ff;fill-opacity:1;fill-rule:nonzero;stroke:#5599ff;stroke-width:0.12023305;stroke-linecap:round;stroke-linejoin:round;stroke-miterlimit:4;stroke-opacity:1;stroke-dasharray:none;stroke-dashoffset:0;marker:none;visibility:visible;display:inline;overflow:visible;enable-background:accumulate"
     d="m 59.881926,28.658272 c 0.609833,-0.119494 0.717352,-0.216611 0.717012,-0.647641 -3.26e-4,-0.411991 -0.439919,-2.130198 -0.821039,-3.209139 -0.222675,-0.630387 -0.239307,-0.647238 -0.355988,-0.360699 -0.768165,1.886413 -1.13088,2.918143 -1.188079,3.379457 -0.0603,0.486288 -0.03424,0.578109 0.213248,0.751456 0.29212,0.204609 0.705227,0.229532 1.434846,0.08657 l 0,0 z"
     id="path3814"
     inkscape:connector-curvature="0" />
  <path
     style="color:#000000;fill:#5599ff;fill-opacity:1;fill-rule:nonzero;stroke:#000000;stroke-width:0.06011653;stroke-linecap:round;stroke-linejoin:round;stroke-miterlimit:4;stroke-opacity:1;stroke-dasharray:none;stroke-dashoffset:0;marker:none;visibility:visible;display:inline;overflow:visible;enable-background:accumulate"
     d="m 16.422549,44.071536 c 0.297678,-0.09088 0.661411,-0.30891 0.75589,-0.453104 0.152067,-0.232083 -0.03691,-0.781311 -0.361539,-1.050726 -0.08901,-0.07387 -0.110321,-0.07375 -0.157547,8.83e-4 -0.03004,0.04747 -0.05503,0.183719 -0.05553,0.302775 -0.002,0.468793 -0.210542,0.814504 -0.617115,1.022995 -0.123991,0.06358 -0.225437,0.142107 -0.225437,0.174499 0,0.06825 0.440649,0.07004 0.661282,0.0027 l 0,0 z"
     id="path3816"
     inkscape:connector-curvature="0" />
  <path
     style="color:#000000;fill:#5599ff;fill-opacity:1;fill-rule:nonzero;stroke:#000000;stroke-width:0.03005826;stroke-linecap:round;stroke-linejoin:round;stroke-miterlimit:4;stroke-opacity:1;stroke-dasharray:none;stroke-dashoffset:0;marker:none;visibility:visible;display:inline;overflow:visible;enable-background:accumulate"
     d="m 16.072775,46.119038 c 0.112721,-0.124555 0.03349,-0.400488 -0.184507,-0.642576 -0.137478,-0.15267 -0.448699,-0.414611 -0.492615,-0.414611 -0.09502,0 0.09156,0.568782 0.279816,0.853001 0.08309,0.125439 0.247266,0.259155 0.318194,0.259155 0.01615,0 0.05175,-0.02474 0.07911,-0.05497 z"
     id="path3820"
     inkscape:connector-curvature="0" />
  <path
     style="color:#000000;fill:#5599ff;fill-opacity:1;fill-rule:nonzero;stroke:#000000;stroke-width:0.03005826;stroke-linecap:round;stroke-linejoin:round;stroke-miterlimit:4;stroke-opacity:1;stroke-dasharray:none;stroke-dashoffset:0;marker:none;visibility:visible;display:inline;overflow:visible;enable-background:accumulate"
     d="m 15.243918,48.244565 c 0.277188,-0.137206 0.457788,-0.467873 0.457788,-0.838184 0,-0.347519 -0.187254,-0.712551 -0.442153,-0.861932 -0.251327,-0.147287 -0.32087,-0.02438 -0.200965,0.35519 0.143021,0.45274 0.06434,0.662129 -0.265229,0.705848 -0.334131,0.04432 -0.391847,0.304385 -0.123832,0.557967 0.166249,0.157298 0.364047,0.185229 0.574391,0.08111 l 0,0 z"
     id="path3822"
     inkscape:connector-curvature="0" />
  <path
     style="color:#000000;fill:#5599ff;fill-opacity:1;fill-rule:nonzero;stroke:#000000;stroke-width:0.03005826;stroke-linecap:round;stroke-linejoin:round;stroke-miterlimit:4;stroke-opacity:1;stroke-dasharray:none;stroke-dashoffset:0;marker:none;visibility:visible;display:inline;overflow:visible;enable-background:accumulate"
     d="m 14.914103,49.523776 c 0.346863,-0.09336 0.787603,-0.345764 0.787603,-0.451047 0,-0.09024 -0.185148,-0.143951 -0.542404,-0.157363 -0.310369,-0.01165 -0.363625,-0.0059 -0.50417,0.05457 -0.278677,0.119884 -0.396299,0.363936 -0.24385,0.505964 0.10758,0.100226 0.255859,0.114343 0.502821,0.04787 l 0,0 z"
     id="path3824"
     inkscape:connector-curvature="0" />
  <path
     style="color:#000000;fill:#5599ff;fill-opacity:1;fill-rule:nonzero;stroke:#000000;stroke-width:0.03005826;stroke-linecap:round;stroke-linejoin:round;stroke-miterlimit:4;stroke-opacity:1;stroke-dasharray:none;stroke-dashoffset:0;marker:none;visibility:visible;display:inline;overflow:visible;enable-background:accumulate"
     d="m 15.094529,52.690638 c 0.05167,-0.05167 0.04471,-0.217846 -0.02392,-0.571544 -0.08824,-0.454733 -0.102096,-0.652509 -0.06194,-0.883933 0.05487,-0.316193 0.128397,-0.455376 0.347398,-0.657619 0.254393,-0.234927 0.239025,-0.266597 -0.136411,-0.281113 -0.517539,-0.02001 -1.080332,0.08235 -1.219845,0.221864 -0.164885,0.164885 -0.06652,0.373972 0.408616,0.86856 0.418857,0.436006 0.407132,0.494699 -0.104036,0.520787 -0.19951,0.01018 -0.335715,0.03132 -0.368782,0.05723 -0.04852,0.03801 -0.04424,0.0484 0.05735,0.139101 0.142985,0.127664 0.984005,0.622742 1.057891,0.622742 0.0042,0 0.02383,-0.01623 0.04367,-0.03607 z"
     id="path3826"
     inkscape:connector-curvature="0" />
  <path
     style="color:#000000;fill:#5599ff;fill-opacity:1;fill-rule:nonzero;stroke:#000000;stroke-width:0.03005826;stroke-linecap:round;stroke-linejoin:round;stroke-miterlimit:4;stroke-opacity:1;stroke-dasharray:none;stroke-dashoffset:0;marker:none;visibility:visible;display:inline;overflow:visible;enable-background:accumulate"
     d="m 13.526836,56.185233 c 0.08818,-0.03776 0.21015,-0.204049 0.267416,-0.364588 0.07197,-0.20176 0.100119,-0.535964 0.07359,-0.873635 -0.03631,-0.462079 -0.101668,-0.486552 -0.363583,-0.136145 -0.207315,0.277359 -0.355004,0.533537 -0.435604,0.755586 -0.107014,0.294819 -0.08928,0.474807 0.05617,0.57011 0.08836,0.05789 0.316094,0.08546 0.402015,0.04867 l 0,0 z"
     id="path3828"
     inkscape:connector-curvature="0" />
  <path
     style="color:#000000;fill:#5599ff;fill-opacity:1;fill-rule:nonzero;stroke:#000000;stroke-width:0.03005826;stroke-linecap:round;stroke-linejoin:round;stroke-miterlimit:4;stroke-opacity:1;stroke-dasharray:none;stroke-dashoffset:0;marker:none;visibility:visible;display:inline;overflow:visible;enable-background:accumulate"
     d="m 13.687802,57.484202 c 0.174356,-0.06583 0.510991,-0.480388 0.510991,-0.629275 0,-0.0402 -0.0332,-0.106287 -0.07378,-0.146866 -0.08709,-0.08709 -0.296568,-0.101421 -0.435123,-0.02977 -0.106978,0.05532 -0.23665,0.207558 -0.261656,0.30719 -0.02679,0.106756 0.03983,0.378903 0.111615,0.455961 0.06279,0.06739 0.07407,0.07066 0.147953,0.04276 z"
     id="path3830"
     inkscape:connector-curvature="0" />
  <path
     style="color:#000000;fill:#5599ff;fill-opacity:1;fill-rule:nonzero;stroke:#000000;stroke-width:0.03005826;stroke-linecap:round;stroke-linejoin:round;stroke-miterlimit:4;stroke-opacity:1;stroke-dasharray:none;stroke-dashoffset:0;marker:none;visibility:visible;display:inline;overflow:visible;enable-background:accumulate"
     d="m 15.442019,56.551622 c 0.07239,-0.140999 0.170533,-0.53378 0.201529,-0.806571 0.05272,-0.463994 -0.05982,-0.769083 -0.314743,-0.853215 -0.182089,-0.06009 -0.344376,0.06243 -0.412052,0.311088 -0.04527,0.166333 -0.01344,0.535001 0.06342,0.734569 0.08183,0.212474 0.265771,0.578482 0.32374,0.644187 0.06341,0.07188 0.08858,0.0664 0.138103,-0.03006 l 0,0 z"
     id="path3832"
     inkscape:connector-curvature="0" />
  <path
     style="color:#000000;fill:#5599ff;fill-opacity:1;fill-rule:nonzero;stroke:#000000;stroke-width:0.06011653;stroke-linecap:round;stroke-linejoin:round;stroke-miterlimit:4;stroke-opacity:1;stroke-dasharray:none;stroke-dashoffset:0;marker:none;visibility:visible;display:inline;overflow:visible;enable-background:accumulate"
     d="m 28.173076,31.194933 c 0.31997,-0.373815 1.394975,-2.142636 1.847893,-3.040541 0.425451,-0.843452 0.768521,-1.796282 0.927752,-2.576708 0.05394,-0.264383 0.152307,-0.994798 0.218587,-1.623147 0.06628,-0.628348 0.214483,-1.629282 0.329337,-2.224298 0.114854,-0.595016 0.248123,-1.433641 0.296154,-1.863613 0.09459,-0.84673 0.171217,-1.251419 0.452085,-2.387446 0.210965,-0.853294 0.28844,-1.51189 0.185348,-1.575605 -0.151374,-0.09355 -0.66278,0.651749 -1.385033,2.018492 -1.351269,2.557055 -2.628886,6.511273 -3.221286,9.969865 -0.283305,1.654013 -0.26406,3.476496 0.03732,3.534156 0.05576,0.01067 0.190068,-0.08889 0.311843,-0.231155 l 0,0 z"
     id="path3834"
     inkscape:connector-curvature="0" />
  <path
     style="color:#000000;fill:#5599ff;fill-opacity:1;fill-rule:nonzero;stroke:#000000;stroke-width:0.04419417;stroke-linecap:round;stroke-linejoin:round;stroke-miterlimit:4;stroke-opacity:1;stroke-dasharray:none;stroke-dashoffset:0;marker:none;visibility:visible;display:inline;overflow:visible;enable-background:accumulate"
     d="m 57.513404,27.316769 c 0.308226,-0.308226 0.557687,-0.836134 1.491142,-3.155544 l 0.610247,-1.516315 -0.552224,-2.262287 c -0.632514,-2.591212 -0.735479,-2.972394 -1.196037,-4.427801 -0.661002,-2.08883 -1.299037,-3.73211 -1.956359,-5.038666 -0.73391,-1.4587904 -1.34951,-2.3859909 -1.563876,-2.3554688 -0.166828,0.023754 -0.145717,0.2970547 0.09912,1.2831951 0.244889,0.9863487 0.3508,1.6274767 0.385289,2.3323377 0.02144,0.438167 0.231621,1.938205 0.41489,2.96101 0.09264,0.517012 0.366405,2.435887 0.573771,4.021669 0.566159,4.329568 1.118488,7.713953 1.331412,8.158204 0.08592,0.179259 0.18312,0.17917 0.362624,-3.54e-4 l 0,2e-5 z"
     id="path3844"
     inkscape:connector-curvature="0" />
  <path
     style="color:#000000;fill:#5599ff;fill-opacity:1;fill-rule:nonzero;stroke:#464646;stroke-width:0.80000001;stroke-linecap:round;stroke-linejoin:round;stroke-miterlimit:4;stroke-opacity:1;stroke-dasharray:none;stroke-dashoffset:0;marker:none;visibility:visible;display:inline;overflow:visible;enable-background:accumulate"
     d="m 35.964113,32.969446 c 0.330655,-0.07005 0.549958,-0.245957 0.713288,-0.572123 0.433532,-0.865755 0.441699,-2.646972 0.02448,-5.340502 -0.408427,-2.636808 -0.414872,-2.720616 -0.401326,-5.21875 0.0068,-1.254688 0.03991,-2.45 0.07358,-2.65625 0.280832,-1.720564 0.812579,-3.553174 1.568669,-5.40625 0.231424,-0.567188 0.423961,-1.134447 0.42786,-1.260576 0.0274,-0.886362 2.531463,-4.9530542 4.28275,-6.9553541 0.614834,-0.7029575 0.791962,-0.8343836 1.899788,-1.4096014 1.442041,-0.7487529 3.637786,-1.5909005 4.721393,-1.8108245 0.324424,-0.065844 0.380716,-0.061122 0.550131,0.046144 0.654047,0.4141132 2.267968,2.0685584 3.421178,3.5070806 2.103209,2.6235575 4.026695,6.3661225 5.097834,9.9189535 0.370801,1.229901 0.980975,3.682573 1.569283,6.307928 0.589814,2.632082 0.654088,2.885992 0.974341,3.849039 0.497258,1.495329 1.21194,2.789184 1.759913,3.186134 0.30818,0.223245 0.572584,0.235901 1.259268,0.06028 1.131077,-0.289281 2.716562,-0.990698 3.147272,-1.392352 0.242237,-0.225895 0.32684,-0.01462 -1.245115,-3.109348 -1.153149,-2.270218 -2.144852,-4.780031 -3.457392,-8.75 C 61.203811,12.492302 60.650249,11.008959 59.867294,9.3068238 58.786851,6.9579554 57.686099,5.3109299 56.177052,3.785215 54.674937,2.2665084 53.570039,1.5490185 52.144803,1.1667853 51.592916,1.0187749 51.42824,1.0037524 50.31944,1.0002675 47.4919,0.9913805 44.710827,1.7091214 42.542589,3.0073215 41.11645,3.8612015 39.399572,5.358481 37.842385,7.1063429 35.380957,9.8691688 34.201547,12.070491 32.594896,16.900574 l -0.613295,1.84375 -0.01245,1.09375 c -0.01196,1.050241 -0.02001,1.113926 -0.202348,1.600947 -0.183579,0.490331 -0.187025,0.518389 -0.103601,0.84375 0.111371,0.434362 0.203421,1.864106 0.249019,3.867803 0.0406,1.784262 0.114857,2.968952 0.258544,4.125 0.202377,1.628243 0.497913,2.26725 1.190217,2.57349 0.246801,0.109171 0.446958,0.131744 1.327663,0.149725 0.570377,0.01165 1.14434,-0.0016 1.275472,-0.02934 l 0,0 z m -1.98283,-0.593761 C 33.822501,32.309345 33.748618,32.222806 33.674457,32.01631 33.549382,31.668051 33.50064,31.134533 33.561104,30.775571 l 0.04737,-0.28125 0.26155,0.540242 c 0.450904,0.931358 0.942124,1.184706 1.221088,0.62978 0.145677,-0.289787 0.169077,-0.573687 0.09493,-1.151815 -0.08085,-0.630439 -0.02997,-0.785102 0.192165,-0.584077 0.496988,0.449768 0.36467,1.829755 -0.225094,2.347575 -0.185936,0.163253 -0.260709,0.187045 -0.587865,0.187045 -0.206158,0 -0.468947,-0.03932 -0.583975,-0.08739 l 0,0 z m 29.669316,-4.285084 c -0.285877,-0.17431 -0.410547,-0.457851 -0.440803,-1.00253 -0.02249,-0.404923 -0.0057,-0.506598 0.123224,-0.746704 0.372325,-0.693339 1.247236,-0.733273 1.633004,-0.07454 0.147354,0.251622 0.204202,0.859605 0.107712,1.151972 -0.219671,0.66561 -0.903708,0.988512 -1.423137,0.671798 l 0,0 z"
     id="path3842"
     inkscape:connector-curvature="0" />
  <path
     style="color:#000000;fill:#abc837;fill-opacity:1;fill-rule:nonzero;stroke:#464646;stroke-width:0.0265165;stroke-linecap:round;stroke-linejoin:round;stroke-miterlimit:4;stroke-opacity:1;stroke-dasharray:none;stroke-dashoffset:0;marker:none;visibility:visible;display:inline;overflow:visible;enable-background:accumulate"
     d="m 45.440301,75.888198 c 0.10592,-0.05121 0.238783,-0.204644 0.29525,-0.340968 0.134788,-0.325407 -0.04045,-0.709949 -0.377553,-0.828502 -0.766514,-0.269569 -1.31362,0.771077 -0.599524,1.14035 0.29786,0.15403 0.413266,0.158959 0.681827,0.02912 z"
     id="path3846"
     inkscape:connector-curvature="0" />
</svg>
