<?xml version="1.0" encoding="UTF-8" standalone="no"?>
<!-- Created with Inkscape (http://www.inkscape.org/) -->

<svg
   xmlns:dc="http://purl.org/dc/elements/1.1/"
   xmlns:cc="http://creativecommons.org/ns#"
   xmlns:rdf="http://www.w3.org/1999/02/22-rdf-syntax-ns#"
   xmlns:svg="http://www.w3.org/2000/svg"
   xmlns="http://www.w3.org/2000/svg"
   xmlns:sodipodi="http://sodipodi.sourceforge.net/DTD/sodipodi-0.dtd"
   xmlns:inkscape="http://www.inkscape.org/namespaces/inkscape"
   id="svg2"
   version="1.1"
   inkscape:version="0.48.5 r10040"
   width="90"
   height="120"
   sodipodi:docname="trunk10.svg">
  <metadata
     id="metadata8">
    <rdf:RDF>
      <cc:Work
         rdf:about="">
        <dc:format>image/svg+xml</dc:format>
        <dc:type
           rdf:resource="http://purl.org/dc/dcmitype/StillImage" />
        <dc:title />
      </cc:Work>
    </rdf:RDF>
  </metadata>
  <defs
     id="defs6" />
  <sodipodi:namedview
     pagecolor="#ffffff"
     bordercolor="#666666"
     borderopacity="1"
     objecttolerance="10"
     gridtolerance="10"
     guidetolerance="10"
     inkscape:pageopacity="0"
     inkscape:pageshadow="2"
     inkscape:window-width="1680"
     inkscape:window-height="974"
     id="namedview4"
     showgrid="false"
     inkscape:zoom="17.859767"
     inkscape:cx="39.866964"
     inkscape:cy="80.185103"
     inkscape:window-x="1366"
     inkscape:window-y="24"
     inkscape:window-maximized="1"
     inkscape:current-layer="svg2" />
  <path
     style="fill:#464646;fill-opacity:1"
     d="M 44.365173,119.84379 C 33.987589,118.25384 29.372939,117.37799 25.356218,116.23593 11.353038,112.25445 3.3829675,105.47379 0.75646754,95.307303 -2.7782525,81.625353 6.1194575,61.948222 26.504118,38.36685 l 1.437362,-1.66277 -1.011122,-0.251231 c -0.55612,-0.138177 -1.01113,-0.42369 -1.01113,-0.634475 0,-0.543491 2.430793,-6.538188 2.858692,-7.049961 0.226424,-0.270806 -0.825302,-1.581768 -2.897772,-3.612041 -3.72004,-3.644291 -7.25621,-7.812257 -8.22009,-9.688761 -1.24886,-2.431304 -0.49429,-5.367486 1.90587,-7.4161049 3.27005,-2.791108 10.664128,-5.107641 21.556002,-6.753404 10.88027,-1.64400903 15.721532,-1.48599703 18.941396,0.618222 4.23651,2.768608 3.970747,8.00948 -0.996531,19.6517569 -1.328291,3.113246 -2.091369,5.504229 -2.158213,6.76242 -0.09436,1.776133 -4.05e-4,2.004295 1.072679,2.608696 0.911075,0.513087 1.176661,0.9509 1.178647,1.942992 0.0012,0.704364 0.204649,1.404304 0.451638,1.555423 0.275813,0.16875 0.354292,0.861584 0.203404,1.795708 -0.240166,1.486843 -0.197964,1.549963 1.882005,2.814999 7.102326,4.319633 15.545832,12.609667 20.248552,19.880519 3.49306,5.400598 6.38707,12.84439 7.40173,19.038229 0.78598,4.797913 0.79119,8.57843 0.0178,12.968532 -2.56003,14.533011 -12.473,24.541121 -27.744342,28.010611 -3.401432,0.77277 -14.352263,1.3424 -17.255582,0.89758 z m 15.340836,-2.35605 c 14.530877,-2.50855 24.754368,-11.94172 27.635088,-25.49875 0.79339,-3.733814 0.77666,-11.229857 -0.0338,-15.153548 -2.19026,-10.603328 -7.97204,-20.511246 -16.694863,-28.609063 -3.801474,-3.529084 -9.466593,-7.717557 -9.870417,-7.297634 -0.440031,0.457578 -0.528908,1.816576 -0.172115,2.631709 0.436536,0.997312 0.002,3.81482 -0.713587,4.627409 -0.325115,0.369154 -0.713708,1.348446 -0.863538,2.176206 -0.157678,0.871103 -0.505167,1.505016 -0.824995,1.505016 -0.303917,0 -1.593373,-0.839321 -2.865463,-1.865157 -2.291708,-1.848084 -2.311009,-1.881604 -2.108335,-3.661678 0.1125,-0.988085 0.396884,-1.9142 0.631966,-2.058028 0.744341,-0.455414 1.35114,-3.979729 0.846065,-4.913996 -0.245996,-0.455041 -0.355775,-1.173704 -0.243952,-1.59703 0.286974,-1.086381 -1.896536,-2.204153 -3.177244,-1.626479 -0.547633,0.247016 -1.492804,0.278587 -2.383901,0.07963 -1.255549,-0.280331 -1.540905,-0.21052 -1.906918,0.466521 -0.378206,0.699591 -0.78304,0.781632 -3.336936,0.676238 -1.598578,-0.06597 -3.15109,0.02978 -3.450022,0.21278 -0.298932,0.182999 -2.76177,0.208413 -5.472973,0.05647 l -4.929481,-0.276251 -3.85135,4.497256 C 13.108538,56.81852 5.0698875,70.786793 2.6103275,82.361825 c -0.81642,3.842139 -0.79456,10.485271 0.0437,13.280568 1.54937,5.166727 4.61345,9.343907 9.2308205,12.584167 6.13376,4.30439 12.5804,6.52921 25.183054,8.691 7.751485,1.32965 16.903613,1.56016 22.638133,0.57018 z M 58.323163,48.777103 c 0.01569,-0.26581 -0.830651,-1.132716 -1.88072,-1.926458 -1.887993,-1.427129 -1.912905,-1.43329 -2.241308,-0.554444 -0.443384,1.186555 -0.389112,1.278955 1.716778,2.92308 1.593272,1.24391 1.8579,1.336182 2.099883,0.732188 0.152282,-0.380095 0.289699,-0.90856 0.305367,-1.174366 z m 1.436875,-3.229088 c 0.24542,-0.967172 0.03774,-1.31286 -1.679027,-2.794952 l -1.959081,-1.69127 -0.382058,1.25642 c -0.357305,1.175013 -0.265363,1.356044 1.418918,2.793869 0.990536,0.845591 1.918026,1.53793 2.061082,1.538528 0.143059,4.02e-4 0.386132,-0.495572 0.540166,-1.102595 z m -0.192162,-5.283006 c 0,-0.909 -0.378763,-1.445044 -1.701487,-2.408027 -2.090258,-1.521769 -2.352567,-1.535216 -2.352567,-0.120606 0,0.839387 0.422631,1.43969 1.695316,2.408027 2.084574,1.586067 2.358738,1.600086 2.358738,0.120606 z M 39.775142,36.317246 c 0.628589,-0.7319 3.171112,-5.151545 3.171112,-5.512315 0,-0.113712 -0.876632,-0.206749 -1.948066,-0.206749 l -1.94807,0 -1.700581,3.010137 c -0.935319,1.655576 -1.70058,3.100392 -1.70058,3.210703 0,0.11031 0.792671,0.200565 1.761491,0.200565 1.177549,0 1.961456,-0.232829 2.364694,-0.702341 z m 7.719108,-2.70903 c 0.829099,-1.545151 1.51322,-2.944817 1.52027,-3.110369 0.0071,-0.165551 -0.762523,-0.297937 -1.710158,-0.29419 -1.713957,0.0068 -1.730931,0.02141 -3.243243,2.795647 -0.836149,1.53386 -1.52027,2.985994 -1.52027,3.226966 0,0.267249 0.672004,0.389998 1.722973,0.314721 1.68392,-0.120613 1.75714,-0.187087 3.230428,-2.932775 z m 9.94369,0.513649 c -1.967959,-1.706874 -2.329524,-1.823132 -2.329524,-0.749038 0,1.034625 3.270085,3.44204 3.725283,2.742528 0.213782,-0.328526 -0.265715,-1.013368 -1.395759,-1.99349 z M 35.737491,33.206878 c 0.8291,-1.545151 1.513221,-2.955201 1.52027,-3.133445 0.007,-0.178243 -0.762521,-0.268544 -1.710156,-0.200668 -1.68392,0.120613 -1.75714,0.187086 -3.230426,2.932775 -0.829099,1.545151 -1.513221,2.9552 -1.52027,3.133444 -0.007,0.178244 0.762521,0.268545 1.710156,0.200669 1.68392,-0.120613 1.75714,-0.187087 3.230426,-2.932775 z m -5.144944,0.01352 c 0.53903,-1.206612 1.096065,-2.651429 1.237856,-3.210703 0.233023,-0.919119 0.140818,-1.016861 -0.959251,-1.016861 -1.269007,0 -1.220459,-0.07935 -3.621654,5.919733 -0.13508,0.337478 0.21875,0.501672 1.081097,0.501672 1.163063,0 1.372753,-0.203376 2.261952,-2.19384 z m 21.266788,-0.202741 c 1.476482,-2.895547 1.535858,-3.623486 0.295553,-3.623486 -0.737039,0 -1.193003,0.535014 -2.22973,2.616295 -1.567301,3.146435 -1.589647,3.403773 -0.295553,3.403773 0.824372,0 1.229984,-0.435967 2.22973,-2.396582 z m 2.133937,0.580983 c 0.245813,-1.272978 -0.325646,-1.676828 -0.891544,-0.630053 -0.58099,1.074701 -0.534263,1.642976 0.135102,1.642976 0.308469,0 0.648867,-0.455815 0.756442,-1.012923 z m 4.358387,-0.987005 c 0,-0.458011 -4.034902,-2.567527 -4.337663,-2.267804 -0.34586,0.342391 0.29848,1.05703 0.953051,1.05703 0.341875,0 1.085441,0.361204 1.652368,0.802675 1.127351,0.877877 1.732244,1.020384 1.732244,0.408099 z M 47.746895,29.198713 c 1.414001,-0.06537 2.773122,-0.319038 3.02027,-0.563706 0.247147,-0.244669 0.914562,-0.450596 1.483143,-0.457616 1.725101,-0.0213 2.390222,-0.892132 4.658781,-6.099682 5.157406,-11.838969 5.590078,-16.7004929 1.691676,-19.0075869 -4.035219,-2.38806003 -25.716021,0.308707 -34.249917,4.260177 -2.97762,1.378737 -4.28822,2.426418 -5.19543,4.1531879 -1.13291,2.156359 0.0715,4.095993 6.6938,10.780004 3.359707,3.391016 6.191831,5.926664 6.619626,5.926664 0.411224,0 0.74768,0.180602 0.74768,0.401338 0,0.222522 1.073106,0.401338 2.408507,0.401338 1.324679,0 2.493057,0.135451 2.596397,0.301003 0.170918,0.273814 1.923818,0.25631 9.525467,-0.09512 z m 8.172332,-0.406551 c 0,-0.331249 -0.358946,-0.602007 -0.798089,-0.602007 -0.54285,0 -0.723458,0.192526 -0.564734,0.602007 0.128347,0.331103 0.487484,0.602006 0.798089,0.602006 0.310602,0 0.564734,-0.270903 0.564734,-0.602006 z"
     id="path3750"
     inkscape:connector-curvature="0" />
  <path
     style="color:#000000;fill:#de8787;fill-opacity:1;fill-rule:nonzero;stroke:#ac9393;stroke-width:0.4;stroke-linecap:round;stroke-linejoin:round;stroke-miterlimit:4;stroke-opacity:1;stroke-dasharray:none;stroke-dashoffset:0;marker:none;visibility:visible;display:inline;overflow:visible;enable-background:accumulate"
     d="M 47.427565,117.87217 C 38.170434,117.30301 28.17614,115.42664 21.480183,113.00071 11.957985,109.55085 5.5443943,103.76526 3.0695399,96.392795 1.8209212,92.673224 1.8812052,85.829141 3.2080228,80.67076 6.16507,69.174396 13.5245,56.786626 26.571606,41.343978 c 2.760802,-3.267704 3.413967,-3.924541 3.807441,-3.828847 0.74188,0.180426 9.302462,0.206816 12.905127,0.03978 3.094313,-0.143464 3.268654,-0.176619 3.695457,-0.702772 0.417333,-0.514482 0.593284,-0.553218 2.575621,-0.567035 1.170228,-0.0082 2.412338,-0.02813 2.760244,-0.04438 1.07033,-0.05 1.802478,0.695279 2.035807,2.072331 0.410765,2.424249 0.297847,4.008546 -0.384777,5.398639 -0.66572,1.355665 -1.05728,3.182697 -0.880402,4.107977 0.178312,0.93277 4.371468,4.234886 5.186749,4.08457 0.214345,-0.03952 0.539749,-0.636958 0.828279,-1.520709 0.261379,-0.800589 0.714912,-1.858758 1.007852,-2.351486 0.488508,-0.821673 0.532619,-1.140057 0.532619,-3.844337 0,-1.621658 0.06032,-3.008982 0.13404,-3.082941 0.189193,-0.189802 3.244976,1.842779 5.782848,3.846513 2.907233,2.295357 8.707152,8.166269 10.838685,10.971355 5.177113,6.813058 9.029921,15.482938 9.979644,22.45695 1.666786,12.239557 -1.444523,22.406924 -9.136446,29.856784 -7.413198,7.1799 -17.820871,10.4346 -30.812829,9.6358 l 0,0 z"
     id="path3770"
     inkscape:connector-curvature="0" />
  <path
     style="color:#000000;fill:#de8787;fill-opacity:1;fill-rule:nonzero;stroke:#ac9393;stroke-width:0.4;stroke-linecap:round;stroke-linejoin:round;stroke-miterlimit:4;stroke-opacity:1;stroke-dasharray:none;stroke-dashoffset:0;marker:none;visibility:visible;display:inline;overflow:visible;enable-background:accumulate"
     d="M 37.908964,29.10683 C 37.601009,29.008206 36.653595,28.917466 35.8036,28.905188 33.542204,28.87252 32.430269,28.236913 28.89553,24.95637 23.975157,20.389843 20.12327,16.081795 19.303354,14.228239 18.70112,12.86679 18.839853,12.089678 19.945802,10.629545 21.81446,8.1624461 26.824354,6.0476239 34.784952,4.3655088 42.044399,2.8315505 51.518883,1.9532195 55.462507,2.4485985 c 2.257799,0.2836138 3.35399,0.7581781 4.336735,1.8774639 1.029911,1.1730034 1.259871,2.1321326 1.104619,4.6072015 -0.187064,2.9822351 -1.348584,6.6535861 -4.114956,13.0066191 -1.971569,4.527755 -3.01023,6.047111 -4.133913,6.047111 -0.232829,0 -1.000322,0.204816 -1.70554,0.455146 -1.948783,0.691759 -11.44463,1.175774 -13.040488,0.66469 z"
     id="path3772"
     inkscape:connector-curvature="0" />
  <path
     style="color:#000000;fill:#2a7fff;fill-opacity:1;fill-rule:nonzero;stroke:#2a7fff;stroke-width:0.4;stroke-linecap:round;stroke-linejoin:round;stroke-miterlimit:4;stroke-opacity:1;stroke-dasharray:none;stroke-dashoffset:0;marker:none;visibility:visible;display:inline;overflow:visible;enable-background:accumulate"
     d="m 42.794876,36.245955 c -0.172784,-0.450269 1.94116,-4.557781 2.794064,-5.429022 0.445098,-0.454668 0.522516,-0.47487 1.799649,-0.469614 0.733999,0.003 1.380832,0.05178 1.437407,0.108356 0.178601,0.178601 -2.314957,4.822655 -2.887328,5.377419 -0.505943,0.490379 -0.624969,0.528893 -1.799334,0.582224 -0.983095,0.04465 -1.276519,0.0077 -1.344458,-0.169363 l 0,0 z"
     id="path3774"
     inkscape:connector-curvature="0" />
  <path
     style="color:#000000;fill:#2a7fff;fill-opacity:1;fill-rule:nonzero;stroke:#2a7fff;stroke-width:0.00791843;stroke-linecap:round;stroke-linejoin:round;stroke-miterlimit:4;stroke-opacity:1;stroke-dasharray:none;stroke-dashoffset:0;marker:none;visibility:visible;display:inline;overflow:visible;enable-background:accumulate"
     d="m 49.179662,35.383751 c -0.21738,-0.0363 -0.370175,-0.116687 -0.425636,-0.223938 -0.03865,-0.07473 -0.03826,-0.307463 7.73e-4,-0.473073 0.09497,-0.402875 0.415783,-1.131226 1.110021,-2.520076 0.848458,-1.697374 1.240296,-2.296856 1.692198,-2.588934 0.189996,-0.1228 0.358928,-0.168019 0.621751,-0.166428 1.185019,0.0072 1.128675,0.718622 -0.275754,3.4819 -0.922571,1.8152 -1.307149,2.312522 -1.90688,2.465907 -0.11979,0.03064 -0.211467,0.03776 -0.458361,0.0356 -0.169742,-0.0015 -0.330892,-0.0064 -0.358112,-0.01096 z"
     id="path3778"
     inkscape:connector-curvature="0" />
  <path
     style="color:#000000;fill:#2a7fff;fill-opacity:1;fill-rule:nonzero;stroke:#2a7fff;stroke-width:0.00791843;stroke-linecap:round;stroke-linejoin:round;stroke-miterlimit:4;stroke-opacity:1;stroke-dasharray:none;stroke-dashoffset:0;marker:none;visibility:visible;display:inline;overflow:visible;enable-background:accumulate"
     d="m 57.899836,32.950656 c -0.246779,-0.05886 -0.632096,-0.284732 -1.202788,-0.705072 -0.411802,-0.30331 -0.61724,-0.432859 -0.935189,-0.589731 -0.350967,-0.173163 -0.528003,-0.231556 -0.806945,-0.266159 -0.358703,-0.0445 -0.604066,-0.161175 -0.812599,-0.386415 -0.1958,-0.211488 -0.257334,-0.418628 -0.17034,-0.573413 0.05607,-0.09977 0.103069,-0.114119 0.276375,-0.0844 0.557385,0.09558 2.169336,0.865305 3.255564,1.554568 0.460792,0.292394 0.803625,0.578371 0.832823,0.694707 0.01849,0.07369 -0.02602,0.234016 -0.08162,0.293977 -0.04262,0.04596 -0.161054,0.09613 -0.216713,0.09181 -0.01089,-8.48e-4 -0.07325,-0.01429 -0.138572,-0.02987 z"
     id="path3780"
     inkscape:connector-curvature="0" />
  <path
     style="color:#000000;fill:#2a7fff;fill-opacity:1;fill-rule:nonzero;stroke:#2a7fff;stroke-width:0.00791843;stroke-linecap:round;stroke-linejoin:round;stroke-miterlimit:4;stroke-opacity:1;stroke-dasharray:none;stroke-dashoffset:0;marker:none;visibility:visible;display:inline;overflow:visible;enable-background:accumulate"
     d="m 53.099286,34.592048 c -0.145955,-0.02396 -0.279298,-0.111847 -0.33483,-0.2207 -0.117847,-0.230999 -0.04256,-0.59411 0.244908,-1.181205 0.161793,-0.330428 0.259494,-0.484085 0.399705,-0.62862 0.112909,-0.116393 0.216587,-0.173121 0.316399,-0.173121 0.06068,0 0.08761,0.01476 0.154749,0.08483 0.132633,0.138423 0.181461,0.391865 0.148351,0.770007 -0.04521,0.516277 -0.196136,0.912827 -0.444278,1.167284 -0.154408,0.158338 -0.298254,0.212177 -0.485004,0.181525 l 0,0 z"
     id="path3782"
     inkscape:connector-curvature="0" />
  <path
     style="color:#000000;fill:#2a7fff;fill-opacity:1;fill-rule:nonzero;stroke:#2a7fff;stroke-width:0.00791843;stroke-linecap:round;stroke-linejoin:round;stroke-miterlimit:4;stroke-opacity:1;stroke-dasharray:none;stroke-dashoffset:0;marker:none;visibility:visible;display:inline;overflow:visible;enable-background:accumulate"
     d="m 58.414534,36.220786 c -0.01089,-0.004 -0.09106,-0.02718 -0.178165,-0.05143 -0.841631,-0.23428 -2.36908,-1.4101 -2.88941,-2.224247 -0.151734,-0.237415 -0.215349,-0.400435 -0.224531,-0.575391 -0.01032,-0.196594 0.02324,-0.427646 0.07887,-0.543049 0.15802,-0.327787 0.620223,-0.07015 2.010467,1.120675 1.106141,0.947471 1.648632,1.595063 1.654178,1.974654 0.0028,0.194456 -0.09221,0.2888 -0.301739,0.299496 -0.07143,0.0036 -0.138785,0.0033 -0.149673,-7.12e-4 l 0,0 z"
     id="path3784"
     inkscape:connector-curvature="0" />
  <path
     style="color:#000000;fill:#2a7fff;fill-opacity:1;fill-rule:nonzero;stroke:#2a7fff;stroke-width:0.00791843;stroke-linecap:round;stroke-linejoin:round;stroke-miterlimit:4;stroke-opacity:1;stroke-dasharray:none;stroke-dashoffset:0;marker:none;visibility:visible;display:inline;overflow:visible;enable-background:accumulate"
     d="m 58.986486,41.29839 c -0.283584,-0.102119 -0.698627,-0.365807 -1.408243,-0.894696 -0.755742,-0.563267 -1.053925,-0.815203 -1.387343,-1.172172 -0.553103,-0.592171 -0.69123,-0.975044 -0.653854,-1.812405 0.03302,-0.739788 0.223892,-0.862647 0.838175,-0.539513 0.269613,0.141826 0.580654,0.343096 1.069305,0.691932 1.45251,1.03691 1.86868,1.474232 2.052283,2.156593 0.03246,0.120647 0.04324,0.233172 0.05088,0.53099 0.01475,0.575544 -0.03508,0.864626 -0.172788,1.002331 -0.06824,0.06823 -0.08408,0.07472 -0.181039,0.07407 -0.05844,-3.92e-4 -0.15176,-0.0171 -0.207373,-0.03713 z"
     id="path3786"
     inkscape:connector-curvature="0" />
  <path
     style="color:#000000;fill:#2a7fff;fill-opacity:1;fill-rule:nonzero;stroke:#2a7fff;stroke-width:0.00791843;stroke-linecap:round;stroke-linejoin:round;stroke-miterlimit:4;stroke-opacity:1;stroke-dasharray:none;stroke-dashoffset:0;marker:none;visibility:visible;display:inline;overflow:visible;enable-background:accumulate"
     d="m 55.142506,29.340311 c -0.326587,-0.117517 -0.616321,-0.4812 -0.623466,-0.782596 -0.0056,-0.237029 0.182896,-0.348545 0.589428,-0.348675 0.331689,-1.06e-4 0.609334,0.136416 0.732296,0.36008 0.146391,0.266283 0.01666,0.623789 -0.276866,0.76296 -0.122474,0.05807 -0.274626,0.06104 -0.421392,0.0082 z"
     id="path3788"
     inkscape:connector-curvature="0" />
  <path
     style="color:#000000;fill:#2a7fff;fill-opacity:1;fill-rule:nonzero;stroke:#2a7fff;stroke-width:0.02239671;stroke-linecap:round;stroke-linejoin:round;stroke-miterlimit:4;stroke-opacity:1;stroke-dasharray:none;stroke-dashoffset:0;marker:none;visibility:visible;display:inline;overflow:visible;enable-background:accumulate"
     d="m 58.755792,46.328289 c -0.884583,-0.64078 -2.406446,-1.943304 -2.762611,-2.36445 -0.273249,-0.323102 -0.370133,-0.549917 -0.370133,-0.866513 0,-0.227249 0.301901,-1.382796 0.466952,-1.78729 l 0.06884,-0.168718 0.865935,0.745742 c 2.342662,2.017496 2.696303,2.396587 2.775636,2.975385 0.06212,0.45324 -0.370683,1.727457 -0.586757,1.727457 -0.05319,0 -0.259232,-0.117726 -0.457866,-0.261613 z"
     id="path3790"
     inkscape:connector-curvature="0" />
  <path
     style="color:#000000;fill:#2a7fff;fill-opacity:1;fill-rule:nonzero;stroke:#2a7fff;stroke-width:0.02239671;stroke-linecap:round;stroke-linejoin:round;stroke-miterlimit:4;stroke-opacity:1;stroke-dasharray:none;stroke-dashoffset:0;marker:none;visibility:visible;display:inline;overflow:visible;enable-background:accumulate"
     d="m 57.330797,50.170359 c -0.476187,-0.23264 -2.726505,-2.002992 -3.028898,-2.382872 -0.09532,-0.119751 -0.207463,-0.312194 -0.249196,-0.427651 -0.06818,-0.188621 -0.06293,-0.253959 0.05175,-0.643905 0.0702,-0.238691 0.183973,-0.547367 0.252838,-0.685947 0.227385,-0.457574 0.376388,-0.405225 1.729015,0.607462 1.124256,0.841708 1.924721,1.589618 2.134891,1.994721 0.06268,0.12082 0.06276,0.203527 4.87e-4,0.500625 -0.09313,0.444273 -0.267115,0.908157 -0.392645,1.046866 -0.118924,0.131408 -0.213857,0.129636 -0.498242,-0.0093 z"
     id="path3792"
     inkscape:connector-curvature="0" />
  <path
     style="color:#000000;fill:#2a7fff;fill-opacity:1;fill-rule:nonzero;stroke:#2a7fff;stroke-width:0.02239671;stroke-linecap:round;stroke-linejoin:round;stroke-miterlimit:4;stroke-opacity:1;stroke-dasharray:none;stroke-dashoffset:0;marker:none;visibility:visible;display:inline;overflow:visible;enable-background:accumulate"
     d="m 36.641838,36.954269 c -0.597219,-0.03382 -0.95186,-0.08673 -0.95186,-0.142019 0,-0.112018 0.882183,-1.744209 2.394513,-4.43026 l 0.985159,-1.749743 1.377182,0 c 1.195058,0 2.159362,0.05631 2.396478,0.139935 0.05384,0.01899 0.04571,0.08972 -0.03457,0.301002 -0.241637,0.635938 -2.330179,4.234122 -2.885826,4.971762 -0.157927,0.209653 -0.398115,0.448278 -0.537482,0.533984 -0.520402,0.320028 -1.457212,0.448189 -2.743596,0.375339 z"
     id="path3794"
     inkscape:connector-curvature="0" />
  <path
     style="color:#000000;fill:#2a7fff;fill-opacity:1;fill-rule:nonzero;stroke:#2a7fff;stroke-width:0.02239671;stroke-linecap:round;stroke-linejoin:round;stroke-miterlimit:4;stroke-opacity:1;stroke-dasharray:none;stroke-dashoffset:0;marker:none;visibility:visible;display:inline;overflow:visible;enable-background:accumulate"
     d="m 31.121761,36.070608 c -0.29914,-0.07836 -0.309267,-0.09927 -0.192068,-0.396604 0.287397,-0.729133 1.874835,-3.748095 2.423344,-4.608674 0.354099,-0.555561 0.738226,-0.895162 1.153217,-1.019542 0.413983,-0.124078 2.108213,-0.184966 2.462714,-0.08851 0.224703,0.06114 0.240559,0.07757 0.209057,0.216584 -0.04365,0.192631 -0.860954,1.862776 -1.443623,2.950014 -1.243726,2.320749 -1.508112,2.654203 -2.266978,2.859207 -0.366386,0.09898 -2.0606,0.162191 -2.345663,0.08752 l 0,0 z"
     id="path3796"
     inkscape:connector-curvature="0" />
  <path
     style="color:#000000;fill:#2a7fff;fill-opacity:1;fill-rule:nonzero;stroke:#2a7fff;stroke-width:0.02239671;stroke-linecap:round;stroke-linejoin:round;stroke-miterlimit:4;stroke-opacity:1;stroke-dasharray:none;stroke-dashoffset:0;marker:none;visibility:visible;display:inline;overflow:visible;enable-background:accumulate"
     d="m 27.711619,35.329211 c -0.340162,-0.0691 -0.492327,-0.190821 -0.441298,-0.352998 0.123697,-0.393125 1.546569,-3.825369 1.839299,-4.436746 0.424805,-0.887221 0.631323,-1.198437 0.910404,-1.371951 0.191883,-0.1193 0.271645,-0.130707 0.890695,-0.127381 0.854484,0.0046 0.972185,0.06029 0.971097,0.459569 -0.0019,0.699896 -1.665858,4.735919 -2.218851,5.381968 -0.304898,0.356205 -0.571898,0.467657 -1.16793,0.487522 -0.277159,0.0092 -0.629697,-0.0088 -0.783416,-0.03998 l 0,0 z"
     id="path3798"
     inkscape:connector-curvature="0" />
</svg>
