<?xml version="1.0" encoding="UTF-8" standalone="no"?>
<!-- Created with Inkscape (http://www.inkscape.org/) -->

<svg
   xmlns:dc="http://purl.org/dc/elements/1.1/"
   xmlns:cc="http://creativecommons.org/ns#"
   xmlns:rdf="http://www.w3.org/1999/02/22-rdf-syntax-ns#"
   xmlns:svg="http://www.w3.org/2000/svg"
   xmlns="http://www.w3.org/2000/svg"
   xmlns:sodipodi="http://sodipodi.sourceforge.net/DTD/sodipodi-0.dtd"
   xmlns:inkscape="http://www.inkscape.org/namespaces/inkscape"
   id="svg2"
   version="1.1"
   inkscape:version="0.48.5 r10040"
   width="75"
   height="70"
   sodipodi:docname="trunk9.svg">
  <metadata
     id="metadata8">
    <rdf:RDF>
      <cc:Work
         rdf:about="">
        <dc:format>image/svg+xml</dc:format>
        <dc:type
           rdf:resource="http://purl.org/dc/dcmitype/StillImage" />
        <dc:title />
      </cc:Work>
    </rdf:RDF>
  </metadata>
  <defs
     id="defs6" />
  <sodipodi:namedview
     pagecolor="#ffffff"
     bordercolor="#666666"
     borderopacity="1"
     objecttolerance="10"
     gridtolerance="10"
     guidetolerance="10"
     inkscape:pageopacity="0"
     inkscape:pageshadow="2"
     inkscape:window-width="1680"
     inkscape:window-height="974"
     id="namedview4"
     showgrid="false"
     inkscape:zoom="4.0170212"
     inkscape:cx="76.27481"
     inkscape:cy="-8.9143739"
     inkscape:window-x="1366"
     inkscape:window-y="24"
     inkscape:window-maximized="1"
     inkscape:current-layer="svg2" />
  <path
     style="fill:#464646;fill-opacity:1;stroke:#464646;stroke-width:0.98637867;stroke-opacity:1"
     d="m 37.740315,69.397114 c -0.414094,-0.03825 -3.039827,-0.33605 -5.834963,-0.661767 -2.795134,-0.325696 -6.43728,-0.635332 -8.093657,-0.688079 -1.778783,-0.05669 -3.319797,-0.202734 -3.764493,-0.356872 C 19.623534,67.543545 18.100846,67.38776 16.565046,67.334157 13.976089,67.243841 12.063562,66.942294 8.9723291,66.137177 6.8952216,65.596185 1.0413008,63.708642 0.85357874,63.519347 0.64954139,63.313606 0.48449664,59.773423 0.49376106,55.801302 0.50082007,52.774464 0.77653841,50.612512 1.4532812,48.27757 1.7182337,47.36343 1.9995183,46.168482 2.07836,45.622157 2.1734191,44.963437 2.4802441,44.220039 2.9891771,43.415325 4.1201434,41.627083 4.2563523,41.076499 3.83999,39.976189 3.3758864,38.749711 3.4482381,37.012638 4.1447595,32.659006 4.9239584,27.788617 4.9428808,27.984203 3.6240681,27.276909 2.1841554,26.504671 1.8966573,25.888445 1.7575631,23.276234 1.5753505,19.854302 2.2943854,16.832178 4.5426625,11.570322 5.1689611,10.104533 5.9796669,8.1952404 6.3442299,7.3274285 7.1151,5.4924343 6.9864033,5.5584808 10.789194,5.046308 c 4.2801,-0.5764544 8.533911,-0.3935081 17.728115,0.7624275 8.279303,1.0409187 12.273657,1.2632919 16.164968,0.8999527 2.675071,-0.2497914 6.151335,0.2872363 9.433578,1.4573198 1.035236,0.3690476 2.009299,0.7090205 2.164584,0.7554867 0.162624,0.048704 1.240031,-0.7433204 2.541032,-1.8678744 1.242282,-1.0737892 3.021005,-2.5496541 3.952717,-3.2797042 1.787909,-1.4009353 4.70317,-3.2809267 5.087645,-3.2809267 0.125309,0 0.338062,0.4044912 0.472788,0.898878 0.142608,0.5233137 1.046696,2.1191743 2.163757,3.8193742 1.684119,2.5632893 3.423508,5.6722724 3.251973,5.8125774 -0.03253,0.02653 -0.849696,0.590485 -1.815935,1.253049 -2.836844,1.945259 -9.457601,6.799518 -13.902307,10.192987 l -0.60114,0.458963 0.292919,1.013412 c 0.925903,3.203335 2.481175,5.253741 7.591333,10.008078 2.688513,2.501315 4.285172,4.232206 5.294958,5.740133 0.983632,1.468855 2.244502,4.633592 2.450838,6.151496 0.101208,0.744533 0.436835,2.116305 0.745837,3.048379 1.018964,3.073579 0.933245,5.407161 -0.31069,8.458072 -0.701217,1.719831 -1.376692,2.535024 -2.701819,3.260667 -2.360758,1.292781 -5.392318,1.687156 -8.409622,1.09402 -1.127106,-0.221565 -4.783309,-1.389489 -6.785376,-2.167494 -0.115793,-0.04506 -1.124204,0.754619 -2.240914,1.776904 -2.357355,2.158039 -5.049058,4.321954 -7.712684,6.200407 -1.035236,0.730071 -1.992927,1.482974 -2.1282,1.673097 -0.216151,0.303821 -0.535468,0.341768 -2.635144,0.313196 -1.314056,-0.01784 -2.727995,-0.06379 -3.14209,-0.102071 z m 4.899673,-2.717861 c -0.348744,-3.599082 -0.435316,-6.513011 -0.372015,-12.521728 0.0381,-3.616315 0.122241,-7.314816 0.186988,-8.218889 0.06475,-0.904085 0.313909,-4.341515 0.553693,-7.638739 0.239785,-3.297223 0.423018,-6.005777 0.407186,-6.018999 -0.01583,-0.01321 -0.494643,0.04575 -1.064022,0.13092 -0.569379,0.08528 -3.601292,0.161325 -6.737584,0.169074 l -5.702352,0.0141 -0.472362,0.485316 c -0.580306,0.596212 -0.938669,1.450587 -1.113539,2.654763 -0.108739,0.748802 -0.240955,0.982967 -0.723756,1.281827 -0.93375,0.578022 -1.831007,0.643861 -4.195585,0.307891 -1.213041,-0.172338 -2.411493,-0.272911 -2.663226,-0.223458 -0.57783,0.11348 -1.166773,-0.459317 -1.166773,-1.134807 0,-0.791581 -0.338069,-1.282872 -0.782944,-1.137805 -0.308871,0.100682 -0.364357,0.05541 -0.284927,-0.232439 0.05426,-0.19664 0.152118,-0.63132 0.217476,-0.965959 0.150904,-0.772671 0.661568,-1.276277 1.042919,-1.028507 0.443203,0.287946 0.590929,0.218193 0.526409,-0.248559 C 20.240434,31.954321 20.104102,31.906949 18.656177,31.78369 16.813975,31.62687 15.26999,31.174917 12.118952,29.870138 9.6638569,28.853533 8.0410653,28.365594 6.8664873,28.290833 l -0.7386611,-0.04703 -0.4070903,1.577394 c -0.6705258,2.598132 -1.0138399,5.606965 -1.0138399,8.885388 0,2.560873 0.04942,3.099873 0.3115099,3.397412 0.4568963,0.518719 0.6000317,0.438781 0.6653062,-0.371541 0.039394,-0.489014 0.1503688,-0.72519 0.3407562,-0.72519 0.2032882,0 0.2983999,0.257186 0.3397059,0.918587 0.05361,0.858386 0.091216,0.918576 0.5739344,0.918576 0.4821674,0 0.5113028,-0.04634 0.4375338,-0.695523 -0.067879,-0.597386 -0.029345,-0.685437 0.2730762,-0.624025 0.2733021,0.05541 0.3521081,0.24362 0.3521081,0.840551 0,0.695237 0.049698,0.774949 0.5176175,0.830268 0.505786,0.05984 0.7041615,-0.209989 0.3293931,-0.447959 C 8.600994,42.591 8.6045721,42.07089 8.8525073,42.07089 c 0.1060853,0 0.2717078,0.213007 0.3680488,0.473348 0.2323368,0.62785 0.9432779,1.084378 1.8923349,1.215169 l 0.773588,0.106607 -0.128578,-0.70418 c -0.07072,-0.387297 -0.06229,-0.704179 0.01871,-0.704179 0.325657,0 0.835724,0.667454 0.835724,1.093596 0,0.532975 0.459808,0.604129 1.069333,0.165496 0.34224,-0.246291 0.491413,-0.250412 1.030059,-0.02859 0.346426,0.142682 0.799267,0.321645 1.006313,0.397679 0.366786,0.134705 0.367267,0.143549 0.01865,0.344577 -0.19679,0.113488 -1.086152,0.248263 -1.976357,0.299511 C 11.913091,44.836284 9.8435117,44.498412 6.8044165,43.594327 5.7322897,43.275383 4.8319438,43.041435 4.8036441,43.074444 4.2452984,43.72568 2.8142173,47.660515 2.3553107,49.80626 c -0.4920173,2.300572 -0.5855028,7.069204 -0.1800783,9.185825 0.1833552,0.957264 0.3575798,2.262615 0.3871668,2.900797 0.029589,0.638163 0.05835,1.225571 0.063914,1.305341 0.01135,0.162637 0.8345972,0.200427 0.9856287,0.04526 0.05342,-0.05482 -0.017166,-0.552487 -0.1568532,-1.105772 -0.3007492,-1.191202 -0.3285367,-2.628882 -0.064599,-3.342133 0.2206519,-0.596271 0.491076,-0.556933 1.0016974,0.145748 0.3493111,0.480693 0.3521269,0.543121 0.058508,1.29707 -0.4746666,1.218846 -0.4052362,2.376882 0.1857722,3.098522 0.6948386,0.84841 1.6822065,1.311641 3.709043,1.74011 0.9644157,0.203887 1.9590067,0.45777 2.2102007,0.564209 0.251194,0.10644 1.981335,0.288853 3.844758,0.405359 2.987205,0.186772 11.534086,0.799902 14.681521,1.053213 1.69454,0.136382 11.129346,0.751109 13.147769,0.856661 l 0.536712,0.02809 -0.126484,-1.30536 z M 7.3420405,64.031618 c 0,-0.165821 0.084701,-0.301492 0.1882246,-0.301492 0.1035236,0 0.1882246,0.08193 0.1882246,0.18197 0,0.10007 -0.084701,0.235752 -0.1882246,0.301482 -0.1035236,0.06566 -0.1882246,-0.01608 -0.1882246,-0.18196 z m -1.882246,-1.740474 c 0,-0.484912 0.075639,-0.881655 0.1680863,-0.881655 0.2555113,0 0.368909,0.448355 0.2606141,1.03039 -0.1632831,0.877582 -0.4287004,0.785498 -0.4287004,-0.148735 z M 12.800555,46.970139 c -2.1586,-0.3493 -3.2258507,-0.699162 -3.514766,-1.15219 -0.1679773,-0.263397 -0.4199348,-0.433753 -0.5599061,-0.378561 -0.1399713,0.05512 -0.2544948,0.06675 -0.2544948,0.02554 0,-0.04111 -0.051411,-0.212456 -0.1142504,-0.380702 -0.1854746,-0.496585 0.3412061,-0.359859 1.1048012,0.286823 0.3849288,0.325982 0.7824781,0.540251 0.8834401,0.476147 0.100964,-0.06409 0.504103,0.05018 0.895865,0.253932 0.391766,0.203759 1.008752,0.434591 1.371086,0.512961 0.753451,0.162962 1.429287,0.488018 0.941122,0.452654 -0.155285,-0.01124 -0.494089,-0.05472 -0.752897,-0.09662 z M 7.3528559,44.799076 c -0.1713277,-0.328902 -0.1586771,-0.407528 0.065566,-0.407528 0.3728503,0 0.5772396,0.372745 0.3387497,0.617774 -0.1305601,0.134134 -0.2599871,0.06685 -0.4043159,-0.210246 z M 46.02722,66.373866 c 2.293401,-1.870419 6.364057,-6.070454 7.218501,-7.447945 l 0.760835,-1.226576 -0.01606,-2.011887 c -0.0097,-1.215298 0.06673,-2.114373 0.193039,-2.270749 0.153437,-0.189946 0.150473,-0.846526 -0.01114,-2.466423 -0.121128,-1.214154 -0.225755,-4.861782 -0.232501,-8.105815 -0.01222,-5.872443 -0.0097,-5.911831 0.585699,-8.992449 0.789425,-4.08491 1.371212,-8.799051 1.085914,-8.799051 -0.07027,0 -0.622404,0.470508 -1.226963,1.045572 -1.861511,1.770683 -3.908137,2.509734 -6.86494,2.478974 -0.937321,-0.01016 -1.825719,-0.04536 -1.974221,-0.07898 -0.216034,-0.04909 -0.299048,0.383225 -0.415324,2.162653 -0.07993,1.223165 -0.353803,4.181964 -0.608606,6.575124 -0.254805,2.39314 -0.51544,5.308431 -0.579189,6.478415 -0.06375,1.169985 -0.297783,2.866942 -0.520076,3.771015 -0.600441,2.442002 -0.545667,6.861424 0.141407,11.409774 0.281175,1.861327 0.558903,4.580816 0.617173,6.043301 0.05827,1.462466 0.159886,2.659051 0.225811,2.659051 0.06593,0 0.795215,-0.55079 1.620639,-1.223973 z m 23.560702,-5.960634 c 0.567667,-0.176872 1.875013,-1.454273 1.686544,-1.647917 -0.04793,-0.04929 -0.53849,0.04811 -1.090124,0.216478 -3.069697,0.936609 -6.016808,0.480525 -11.759195,-1.819811 -2.191653,-0.877957 -2.350599,-0.914564 -2.524159,-0.581374 -0.101873,0.195576 -0.185223,0.665896 -0.185223,1.045158 0,0.632562 0.04529,0.689549 0.547905,0.689549 0.663575,0 2.198691,0.500756 4.345935,1.417636 1.413806,0.603705 1.884536,0.703027 4.046829,0.853852 2.591808,0.180787 3.947332,0.133089 4.931488,-0.173571 z m 0.445806,-2.596238 c 0.562287,-0.167724 1.128219,-0.445426 1.257623,-0.617123 0.292831,-0.388539 0.309878,-2.747695 0.02995,-4.144796 -0.112932,-0.563637 -0.567673,-1.808009 -1.010534,-2.765263 -0.442862,-0.957254 -0.869639,-1.958026 -0.948392,-2.223927 -0.285946,-0.965487 -1.104034,-2.442516 -1.981552,-3.577639 -1.009098,-1.305351 -1.682585,-1.969078 -4.512521,-4.447204 -3.349639,-2.933205 -4.931217,-4.811815 -5.823407,-6.917059 -0.224781,-0.530402 -0.381376,-0.716819 -0.444349,-0.528962 -0.05349,0.159541 -0.232447,1.856506 -0.397699,3.771014 -0.305351,3.53763 -0.250732,5.437833 0.26915,9.363813 0.476906,3.601408 0.440742,6.2387 -0.122681,8.946623 -0.09968,0.479066 -0.04499,0.535608 0.711531,0.735651 0.450726,0.119177 2.09002,0.645597 3.642872,1.169806 1.552853,0.524211 3.331576,1.077911 3.952717,1.230452 1.542294,0.378739 4.115609,0.380948 5.377294,0.0049 z m 2.43888,-8.546844 c -0.291453,-2.260702 -0.870314,-3.955707 -2.474967,-7.247114 l -1.343726,-2.756203 -4.015037,-4.10317 c -4.015262,-4.103406 -5.970276,-6.392119 -6.67852,-7.818471 -0.207229,-0.417327 -0.449467,-0.712638 -0.538303,-0.656224 -0.08884,0.0564 -0.252891,0.646888 -0.364562,1.312183 -0.536113,3.193901 1.687926,7.469555 4.707582,9.050183 3.468889,1.815779 6.635007,5.699948 9.441366,11.582565 0.732562,1.535582 1.366088,2.686677 1.407839,2.557985 0.04175,-0.128681 -0.022,-0.993466 -0.141672,-1.921734 z M 27.072273,35.906422 c 0.05908,-0.634929 0.04606,-0.648358 -0.470561,-0.485396 -0.683399,0.21559 -2.813643,0.217316 -4.436983,0.0039 -1.270267,-0.16724 -1.270516,-0.167181 -1.270516,0.311529 0,0.42351 0.114108,0.501673 0.98818,0.67695 0.543498,0.108982 1.91989,0.186485 3.058649,0.172229 l 2.07047,-0.02593 0.06076,-0.653011 z m -0.470957,-1.49234 c 0.484175,-0.169508 0.928136,-0.387681 0.986581,-0.484834 0.215874,-0.358862 -0.554117,-0.417199 -1.399269,-0.105995 -1.080258,0.397758 -2.258535,0.409668 -2.967147,0.02997 -0.585951,-0.313975 -2.450118,-0.389131 -2.870315,-0.115717 -0.209033,0.136017 -0.18328,0.212218 0.129926,0.384428 1.159085,0.637345 4.657202,0.804319 6.120224,0.292146 z M 25.40585,33.061999 c 0.462691,-0.165516 1.10777,-0.31642 1.433511,-0.335349 0.56735,-0.03293 0.601712,-0.08331 0.817149,-1.19689 0.29817,-1.541202 0.173204,-1.829395 -0.806304,-1.859475 -1.485058,-0.04565 -2.482368,-0.147739 -3.311228,-0.339076 -0.527973,-0.121868 -0.954512,-0.125181 -1.165778,-0.0089 -0.418405,0.230063 -0.723675,1.332059 -0.725038,2.617317 l -0.0011,0.988291 1.176404,0.193456 c 1.662766,0.273424 1.651568,0.27368 2.582336,-0.05925 z m 14.64277,-1.607987 c 0.179763,-0.09573 0.991324,-0.260657 1.803469,-0.366475 0.812144,-0.105818 1.550066,-0.267843 1.639821,-0.360066 0.08975,-0.09218 0.295928,-1.602505 0.458158,-3.356201 0.382187,-4.131377 0.770583,-6.874605 1.244862,-8.792456 1.001902,-4.051399 2.915289,-7.079231 5.647554,-8.9369411 L 51.63399,9.1037115 50.522115,8.8876581 49.410241,8.6716048 48.343776,9.7915545 c -1.625514,1.7070425 -2.916347,4.2850505 -3.729489,7.4483885 -0.216023,0.840393 -0.686762,3.355491 -1.046088,5.5891 -0.822591,5.113309 -1.334776,7.320475 -1.798902,7.75202 -0.435345,0.404777 -0.436621,0.609246 0.01824,-2.91738 0.820553,-6.362038 1.342348,-9.108294 2.274601,-11.971429 0.671404,-2.062031 1.95602,-4.665191 2.993329,-6.0657218 0.415181,-0.5605517 0.754875,-1.060933 0.754875,-1.1119639 0,-0.050972 -0.614083,-0.092972 -1.364628,-0.093169 C 45.695165,8.4212021 43.852917,8.2869207 42.351825,8.1230517 38.860675,7.7418873 35.905226,7.7409606 33.881719,8.120094 30.544799,8.7457554 29.612008,8.8486061 27.959706,8.7730259 26.528348,8.7075611 26.101934,8.6073133 25.270442,8.1408673 24.184142,7.5314635 24.079278,7.3534665 24.689372,7.1545188 25.414854,6.9179387 24.685228,6.7206967 21.824804,6.3801222 18.553468,5.9906269 13.7519,6.0802563 10.683197,6.5880911 L 8.6599458,6.9229077 7.9268392,8.3007234 C 4.0427172,15.600574 2.914689,19.423349 3.3876202,23.683664 c 0.3300782,2.973449 0.1390076,2.774393 3.4463249,3.590345 4.1751669,1.030054 6.7314079,1.786143 8.2740919,2.447327 0.749591,0.32127 1.858692,0.658758 2.464668,0.749984 0.605973,0.0913 1.255422,0.30871 1.443217,0.483326 0.187796,0.174616 0.539011,0.288725 0.780475,0.253587 0.396004,-0.05758 0.451503,-0.193565 0.566337,-1.387232 0.07003,-0.727841 0.171281,-1.368517 0.22502,-1.423729 0.05374,-0.05531 0.638647,-0.0039 1.299794,0.114682 0.661144,0.118289 2.253908,0.216408 3.539471,0.218035 1.285565,0.002 2.430586,0.06695 2.544493,0.145037 0.380316,0.260913 0.639907,0.979033 0.639907,1.77023 l 0,0.783329 5.505571,0.05433 c 3.028064,0.02987 5.527895,0.07473 5.55518,0.09967 0.02729,0.02495 0.196687,-0.03303 0.376448,-0.128771 z m 8.884972,-3.907999 c 0.383006,-0.117905 1.239843,-0.691776 1.904084,-1.27529 2.827375,-2.483745 4.612009,-3.784847 11.654175,-8.496553 2.846897,-1.904777 5.896137,-4.018992 6.776086,-4.698258 3.342646,-2.580336 3.393731,-2.65075 2.588088,-3.5672361 L 71.43252,9.0269087 68.703263,11.085765 c -1.501092,1.132362 -5.566743,4.233133 -9.034781,6.890577 -3.468038,2.657464 -7.703093,5.862801 -9.411231,7.122976 -1.708138,1.260177 -3.13394,2.374438 -3.168447,2.476145 -0.08513,0.250876 0.989862,0.233711 1.844788,-0.02938 z m -2.293996,-1.453474 c 0.695665,-0.598224 1.375917,-1.194081 1.51167,-1.324123 0.202423,-0.1939 0.170272,-0.398319 -0.178721,-1.136356 -0.316839,-0.670027 -0.371099,-0.955843 -0.212417,-1.118884 0.349174,-0.358736 0.747132,-0.05127 0.880737,0.680419 0.06884,0.377013 0.208576,0.73846 0.310514,0.803185 0.101941,0.06468 0.60696,-0.24499 1.12227,-0.688257 l 0.936923,-0.805936 -0.376661,-0.543486 c -0.207163,-0.298909 -0.37666,-0.629506 -0.37666,-0.734664 0,-0.27088 0.638022,-0.48996 0.717099,-0.246222 0.03602,0.111033 0.21177,0.387474 0.390555,0.614314 l 0.325062,0.412447 0.776669,-0.407094 c 1.039781,-0.545003 1.12694,-0.755338 0.543376,-1.311295 -0.578098,-0.550742 -0.61477,-0.752825 -0.168531,-0.928762 0.228909,-0.09021 0.472539,0.05669 0.820799,0.495116 l 0.495266,0.623463 0.637941,-0.453186 c 0.350869,-0.249248 0.668778,-0.476787 0.706468,-0.505635 0.03769,-0.02888 -0.122772,-0.370468 -0.356578,-0.759145 -0.350359,-0.582439 -0.378957,-0.736083 -0.162639,-0.873856 0.259281,-0.16513 0.95419,0.41095 1.127768,0.934914 0.04913,0.148281 0.389879,0.01873 0.967808,-0.367953 L 57.970301,17.854719 57.626792,17.3444 c -0.576224,-0.85605 -0.598933,-0.941756 -0.313912,-1.184783 0.22744,-0.19393 0.345037,-0.113558 0.675306,0.461546 0.21995,0.383007 0.48089,0.696381 0.579869,0.696381 0.09898,0 0.684773,-0.352218 1.301765,-0.782698 l 1.121808,-0.782688 -0.507166,-0.68316 c -0.407955,-0.549529 -0.456283,-0.715469 -0.247055,-0.848321 0.308446,-0.195862 0.560423,-0.07256 0.560423,0.274223 0,0.136775 0.163716,0.400902 0.363811,0.586954 0.34895,0.324455 0.398936,0.313452 1.22346,-0.269391 0.472808,-0.334225 0.859648,-0.663994 0.859648,-0.73284 0,-0.06882 -0.220341,-0.361456 -0.489644,-0.650261 -0.486512,-0.521726 -0.487142,-0.526477 -0.09844,-0.740204 0.348888,-0.19184 0.422058,-0.139251 0.676383,0.486124 l 0.285174,0.701233 0.53129,-0.35838 c 0.292208,-0.197115 0.729497,-0.506544 0.971754,-0.687636 l 0.440468,-0.329267 -0.491565,-0.66215 c -0.270363,-0.364177 -0.438764,-0.716395 -0.374225,-0.782707 0.247335,-0.25411 0.787161,-0.10429 0.896218,0.248746 0.204714,0.662672 0.536509,0.794933 1.031658,0.411185 0.442495,-0.342921 0.446056,-0.366533 0.130029,-0.862083 -0.17871,-0.280218 -0.265969,-0.607502 -0.193909,-0.72729 0.08,-0.1329998 0.0464,-0.1640758 -0.08629,-0.07976 -0.135911,0.08627 -0.217307,-0.003 -0.217307,-0.2395081 0,-0.2076238 0.124008,-0.4263884 0.275574,-0.4861447 0.236909,-0.093366 0.468592,0.1466943 1.14344,1.1849318 0.07973,0.122648 2.943624,-1.9809001 3.09651,-2.2743871 0.12054,-0.2314046 -0.04017,-0.6538887 -0.586329,-1.5413598 -1.143094,-1.8574336 -2.653115,-3.8770304 -2.898812,-3.8770304 -0.22469,0 -6.674226,4.4804102 -9.876937,6.8613841 -1.821576,1.3541932 -9.952907,7.5830632 -10.212916,7.8234192 -0.398575,0.368457 -2.215978,9.68179 -1.889304,9.68179 0.03695,0 0.636362,-0.489447 1.33203,-1.08767 z m 4.836388,-13.205006 2.253967,-1.833939 -0.790079,-0.353983 c -1.024513,-0.459012 -1.518886,-0.318588 -2.691288,0.7644 -0.670319,0.619194 -1.159616,1.330522 -1.690779,2.457994 -0.411111,0.872642 -0.747473,1.655863 -0.747473,1.740494 0,0.176853 0.542862,-0.234106 3.665652,-2.774966 z"
     id="path2987"
     inkscape:connector-curvature="0" />
  <path
     style="color:#000000;fill:#ffdd55;fill-opacity:1;fill-rule:nonzero;stroke:#ffdd55;stroke-width:0.12277488;stroke-linecap:round;stroke-linejoin:round;stroke-miterlimit:4;stroke-opacity:1;stroke-dasharray:none;stroke-dashoffset:0;marker:none;visibility:visible;display:inline;overflow:visible;enable-background:accumulate"
     d="m 15.419389,6.8090021 c -1.753695,0.0491 -3.537358,0.18346 -5.273443,0.4313376 L 8.2339386,7.5176282 6.4452857,11.091569 c -2.0128416,4.062226 -2.993464,6.835725 -3.3614337,9.427809 -0.2587278,1.822551 -0.147897,4.12163 0.2775495,5.514959 0.2655525,0.869679 0.2791217,0.87065 4.2557603,1.910209 1.3511595,0.353215 3.9736382,1.139837 5.7977022,1.725351 5.247607,1.68445 5.942869,1.88842 6.075252,1.756161 0.0685,-0.06844 0.176132,-0.637616 0.246711,-1.263203 0.07058,-0.625588 0.244457,-1.20322 0.400905,-1.263203 0.56334,-0.215971 7.293236,0.352827 7.648033,0.647006 0.199287,0.165239 0.370066,0.736113 0.370066,1.263203 l 0,0.924295 3.361434,0.09243 c 4.430962,0.118382 8.437059,0.04083 8.974103,-0.18486 0.277268,-0.116522 0.431744,-0.46748 0.431744,-0.955104 0,-1.028209 1.145078,-8.964968 1.603619,-11.09154 C 43.24943,16.243445 44.90785,12.1579 46.381587,10.074848 46.649725,9.6958527 46.805386,9.3274737 46.720814,9.2429788 46.63624,9.1584844 44.294477,8.9235357 41.509049,8.7192116 36.675273,8.3646321 36.295408,8.3555084 33.336756,8.8116411 29.162945,9.4551148 26.122034,9.4531768 24.825236,8.7808313 24.28734,8.5019508 23.838393,8.1074051 23.838393,7.918156 c 0,-0.5551223 -0.327406,-0.6370428 -3.423112,-0.9551048 C 18.891113,6.8064537 17.173082,6.7599024 15.419389,6.8090021 z M 48.97205,9.2429788 48.108562,10.167274 c -1.498277,1.565594 -2.603465,3.475099 -3.392273,5.884678 -0.569366,1.739246 -0.801898,2.843552 -1.603619,7.486789 -0.739076,4.28041 -1.211,6.506424 -1.541943,7.178691 -0.09968,0.202483 -0.344255,0.489578 -0.52426,0.647006 -0.273217,0.238948 -0.266764,0.266395 -0.06168,0.215669 0.135116,-0.03342 0.439061,-0.08021 0.709294,-0.12324 1.199415,-0.190947 1.266273,-0.2251 1.418587,-1.201582 0.07597,-0.487034 0.233781,-1.980512 0.370065,-3.296653 0.521627,-5.03754 0.930495,-7.420555 1.60362,-9.427808 1.070742,-3.192948 2.788953,-5.689491 4.903376,-7.178691 0.479156,-0.337472 0.860527,-0.6675532 0.863487,-0.7086264 0.0029,-0.041073 -0.407292,-0.1271672 -0.925164,-0.2156688 L 48.97205,9.2429788 z m 6.10609,16.5140692 c -0.0629,0 -0.463516,0.290371 -0.863488,0.647008 -2.422036,2.159619 -3.871784,2.688342 -7.308805,2.680455 -1.696219,-0.0039 -1.949321,0.0051 -2.004525,0.184858 -0.03454,0.112473 -0.395818,3.891897 -0.801809,8.380275 -0.511936,5.659604 -0.843383,8.705784 -1.07936,9.982386 -0.320481,1.733535 -0.318277,2.055687 -0.308389,5.176052 0.0093,2.94207 0.03089,3.646359 0.370067,6.316015 0.379963,2.990714 0.564103,4.836436 0.709292,7.178691 0.04183,0.674944 0.122211,1.333432 0.154195,1.448062 0.08643,0.309816 1.70077,-1.005706 3.978211,-3.204222 2.286669,-2.207425 4.100436,-4.205967 4.872537,-5.360911 l 0.585938,-0.862675 0.09252,-2.218309 c 0.06033,-1.2149 0.08821,-3.274524 0.06168,-4.590664 -0.02654,-1.316141 -0.03271,-5.215348 -0.03084,-8.657564 l 0,-6.254395 0.52426,-2.772885 c 0.756813,-4.063182 1.27966,-8.072177 1.048521,-8.072177 z M 5.6743147,28.776412 5.3042486,30.347714 c -0.7274628,3.022196 -0.9864965,5.527538 -0.986843,9.15052 -1.947e-4,2.035734 0.033168,2.444522 0.2158719,2.803695 0.300037,0.58983 0.4913679,0.589806 0.585938,0.03081 0.1321817,-0.781311 0.1905429,-0.893484 0.4317438,-0.893484 0.1735834,0 0.2252746,0.117567 0.2775496,0.462147 0.1884805,1.242406 0.2242721,1.324823 0.6167768,1.324823 0.3618982,0 0.374356,0.0077 0.3392273,-0.554578 -0.038041,-0.608898 0.085867,-0.797267 0.4625826,-0.677816 0.180229,0.05715 0.2425867,0.234639 0.3083885,0.801056 0.074846,0.644271 0.1335424,0.764823 0.4009049,0.831866 0.3883006,0.09737 0.5979456,-0.124393 0.3392273,-0.338908 -0.1042006,-0.0864 -0.185033,-0.270868 -0.185033,-0.431339 0,-0.48214 0.3979764,-0.367419 0.770971,0.246479 0.3641815,0.599394 0.939163,0.957048 1.8811697,1.109154 l 0.52426,0.09243 -0.06168,-0.708626 c -0.05698,-0.55153 -0.05256,-0.677817 0.09252,-0.677817 0.274691,0 0.725515,0.517494 0.863488,1.016725 0.142514,0.515655 0.305582,0.562894 0.986843,0.215669 l 0.462583,-0.246479 0.986843,0.369718 c 0.764864,0.294683 0.963798,0.433825 0.863488,0.554576 -0.336165,0.404675 -3.058793,0.575243 -4.995893,0.3081 C 9.7297418,45.032251 6.6095908,44.278657 4.5949553,43.719181 4.3459688,43.650036 4.2553932,43.715701 3.854823,44.581856 3.2942401,45.794008 2.1710641,49.174914 1.9119759,50.435724 1.6362411,51.777542 1.436133,54.968934 1.511071,56.78255 c 0.03486,0.843679 0.1694383,2.376665 0.3083884,3.389082 0.1389501,1.012415 0.3163917,2.207993 0.3700661,2.680455 0.08821,0.776455 0.1074516,0.88717 0.3700661,0.924294 0.468225,0.06619 0.5348755,-0.118362 0.3392273,-1.139963 -0.2126888,-1.110578 -0.2453913,-2.635753 -0.061678,-3.296652 0.1703177,-0.612712 0.5725819,-0.644627 1.0176818,-0.06162 0.3775861,0.494575 0.4095,0.705793 0.092516,1.84859 -0.2816264,1.015328 -0.3026981,1.203346 -0.1233553,1.84859 0.1843843,0.663383 0.8777906,1.360722 1.757814,1.78697 0.831234,0.402618 4.1326042,1.266545 5.6743476,1.478872 0.999638,0.137669 13.298091,1.012377 24.424363,1.756161 3.377898,0.225808 6.219299,0.422957 6.321963,0.431337 0.165412,0.01348 0.196911,-0.161244 0.06168,-1.602111 -0.53565,-5.707161 -0.442203,-16.652508 0.24671,-26.373216 0.236777,-3.340974 0.454668,-6.409885 0.493422,-6.839783 l 0.09252,-0.770246 -0.431745,0.06162 c -0.22227,0.04487 -3.230265,0.115313 -6.692029,0.154049 l -6.291123,0.06162 -0.431744,0.492958 c -0.549277,0.607412 -0.876259,1.31306 -1.110198,2.433977 -0.220895,1.058423 -0.32464,1.245815 -0.956004,1.602111 -0.666864,0.37633 -2.296896,0.447653 -4.440794,0.184859 -0.880978,-0.107987 -1.874447,-0.184859 -2.220396,-0.184859 -0.543208,0 -0.697266,-0.06251 -0.956005,-0.369718 -0.178316,-0.211717 -0.32246,-0.577327 -0.370065,-0.924295 -0.09824,-0.71608 -0.252485,-0.924295 -0.709294,-0.924295 -0.417954,0 -0.426204,-0.08892 -0.154194,-1.170773 0.254237,-1.011165 0.645771,-1.399979 1.171876,-1.201584 0.418797,0.157928 0.563343,0.0527 0.370066,-0.308098 -0.07306,-0.136384 -0.168504,-0.246479 -0.185033,-0.246479 -0.01653,0 -0.693487,-0.08373 -1.511103,-0.184859 C 16.102024,32.087386 14.9531,31.75042 11.842083,30.532573 8.9935404,29.417475 7.6657561,28.992695 6.5069634,28.868842 l -0.8326487,-0.09243 z m 1.0485206,16.144352 c 0.037576,-0.02687 0.1065537,-0.01612 0.2467108,0 0.2645136,0.03042 0.3395628,0.104864 0.3700661,0.369719 0.064423,0.559367 -0.400097,0.420713 -0.6167769,-0.184859 -0.033157,-0.09268 -0.037576,-0.157981 0,-0.18486 z m 1.1410372,0.338909 c 0.1614018,-0.03739 0.5085767,0.102658 0.9868429,0.431337 0.357148,0.245443 0.9244305,0.531418 1.2335536,0.616197 0.309123,0.08478 0.752488,0.255377 1.017682,0.369717 0.265194,0.114343 0.839972,0.300371 1.264392,0.431339 0.424422,0.130966 0.792031,0.304056 0.832649,0.369718 0.114187,0.184584 -0.712913,0.104327 -1.942847,-0.154049 C 9.8014154,47.01833 9.2145216,46.812518 8.7890378,46.368826 8.5960128,46.167542 8.2976775,45.999108 8.1414221,45.999108 c -0.1562555,0 -0.2766283,-0.04181 -0.2775496,-0.09243 -9.217e-4,-0.05062 -0.020942,-0.217855 -0.061678,-0.369718 -0.042447,-0.158239 -0.035163,-0.254847 0.061678,-0.277284 z M 5.1808933,61.835362 c 0.044459,0.0087 0.1031695,0.07891 0.185033,0.184859 0.1399432,0.181121 0.1523635,0.362725 0.092516,0.770246 -0.044603,0.303726 -0.092167,0.59639 -0.1233554,0.647006 -0.070237,0.114 -0.2306837,0.139252 -0.3392272,0.03081 -0.1277025,-0.127581 -0.075963,-1.304174 0.061678,-1.509682 0.053221,-0.07945 0.078896,-0.131957 0.1233554,-0.123239 z M 7.0929014,64.1461 c 0.1145458,0 0.1483817,0.107367 0.1233554,0.277288 -0.04251,0.288622 -0.2520484,0.437255 -0.3700661,0.246479 C 6.7347451,64.489712 6.8905707,64.1461 7.0929014,64.1461 z"
     id="path3750"
     inkscape:connector-curvature="0" />
  <path
     style="color:#000000;fill:#d38d5f;fill-opacity:1;fill-rule:nonzero;stroke:#d38d5f;stroke-width:0.04340748;stroke-linecap:round;stroke-linejoin:round;stroke-miterlimit:4;stroke-opacity:1;stroke-dasharray:none;stroke-dashoffset:0;marker:none;visibility:visible;display:inline;overflow:visible;enable-background:accumulate"
     d="M 71.254525,50.069116 C 70.85,49.293572 70.314272,48.249028 70.064019,47.747908 69.166927,45.951526 67.884886,43.864953 66.86505,42.541462 65.083145,40.228995 63.53673,38.815173 61.434867,37.576876 59.680328,36.543201 58.420373,35.171686 57.510023,33.30451 56.863881,31.97924 56.5867,30.889245 56.571065,29.612118 c -0.01197,-0.977912 0.190554,-2.183382 0.387219,-2.304814 0.04199,-0.02593 0.191842,0.140375 0.332999,0.369562 0.694386,1.127431 0.919076,1.450628 1.620056,2.330306 1.230953,1.544756 2.204064,2.593878 6.520255,7.029565 l 2.705982,2.780899 1.09719,2.286335 c 1.690592,3.52287 2.208121,4.917257 2.56175,6.902161 0.179865,1.009572 0.322924,2.473063 0.241747,2.473063 -0.02654,0 -0.379214,-0.634536 -0.783738,-1.410079 z"
     id="path3763"
     inkscape:connector-curvature="0" />
  <path
     style="color:#000000;fill:#d38d5f;fill-opacity:1;fill-rule:nonzero;stroke:#d38d5f;stroke-width:0.04340748;stroke-linecap:round;stroke-linejoin:round;stroke-miterlimit:4;stroke-opacity:1;stroke-dasharray:none;stroke-dashoffset:0;marker:none;visibility:visible;display:inline;overflow:visible;enable-background:accumulate"
     d="m 64.462728,61.05393 c -2.467907,-0.199032 -2.903448,-0.292527 -4.596732,-0.986751 -1.701127,-0.697441 -2.905892,-1.104835 -3.591634,-1.214519 -1.065593,-0.170441 -0.974923,-0.101649 -0.974923,-0.739686 0,-0.31084 0.05876,-0.705668 0.13058,-0.877393 0.119615,-0.28601 0.15432,-0.308378 0.413301,-0.266392 0.155495,0.02521 1.200889,0.39693 2.323097,0.826044 5.846595,2.235648 8.20725,2.596585 11.438156,1.748865 1.140767,-0.299314 1.191504,-0.304627 1.084491,-0.113586 -0.130091,0.232238 -0.993435,1.072545 -1.290238,1.255805 -0.477214,0.294658 -1.470247,0.426147 -3.098052,0.410217 -0.819843,-0.008 -1.646962,-0.02719 -1.838046,-0.0426 z"
     id="path3765"
     inkscape:connector-curvature="0" />
  <path
     style="color:#000000;fill:#ff5555;fill-opacity:1;fill-rule:nonzero;stroke:#ff5555;stroke-width:0.01534686;stroke-linecap:round;stroke-linejoin:round;stroke-miterlimit:4;stroke-opacity:1;stroke-dasharray:none;stroke-dashoffset:0;marker:none;visibility:visible;display:inline;overflow:visible;enable-background:accumulate"
     d="m 23.168598,33.731383 c -0.211119,-0.03283 -0.743137,-0.118947 -1.182264,-0.191377 l -0.798413,-0.131691 0.0022,-0.858233 c 0.0019,-0.749153 0.01106,-0.908924 0.07206,-1.257065 0.149263,-0.852009 0.401596,-1.388193 0.702674,-1.493115 0.196073,-0.06834 0.649135,-0.04525 1.188406,0.06056 0.871973,0.171085 1.370324,0.226011 2.68812,0.296276 0.94044,0.05014 1.116333,0.08368 1.276129,0.243327 0.174222,0.174059 0.207425,0.479843 0.118186,1.088422 -0.07631,0.520421 -0.250286,1.287727 -0.326956,1.442033 -0.09342,0.18802 -0.195405,0.2325 -0.669309,0.291913 -0.452369,0.05671 -0.808948,0.145667 -1.520054,0.379193 -0.479658,0.157518 -0.548215,0.172166 -0.844475,0.180435 -0.209978,0.0058 -0.456314,-0.01182 -0.706288,-0.05068 z"
     id="path3771"
     inkscape:connector-curvature="0" />
  <path
     style="color:#000000;fill:#ff5555;fill-opacity:1;fill-rule:nonzero;stroke:#ff5555;stroke-width:0.01534686;stroke-linecap:round;stroke-linejoin:round;stroke-miterlimit:4;stroke-opacity:1;stroke-dasharray:none;stroke-dashoffset:0;marker:none;visibility:visible;display:inline;overflow:visible;enable-background:accumulate"
     d="m 23.076475,35.17291 c -1.456278,-0.05712 -2.622614,-0.287115 -3.153361,-0.621845 -0.196909,-0.124187 -0.213247,-0.159732 -0.115164,-0.250547 0.117032,-0.108359 0.333283,-0.165323 0.778104,-0.204967 0.706484,-0.06296 1.584949,0.04705 2.110578,0.264303 0.391838,0.161957 0.688029,0.234096 1.055422,0.257056 0.617362,0.03858 1.114256,-0.02644 1.780665,-0.232964 0.660431,-0.204683 0.771253,-0.22835 1.091682,-0.233144 0.348696,-0.0052 0.474843,0.04209 0.474843,0.178083 0,0.08764 -0.09021,0.157689 -0.40005,0.310675 -0.620778,0.306508 -1.303846,0.468714 -2.179436,0.517546 -0.655476,0.03656 -0.857643,0.03876 -1.443283,0.01581 z"
     id="path3773"
     inkscape:connector-curvature="0" />
  <path
     style="color:#000000;fill:#ff5555;fill-opacity:1;fill-rule:nonzero;stroke:#ff5555;stroke-width:0.01534686;stroke-linecap:round;stroke-linejoin:round;stroke-miterlimit:4;stroke-opacity:1;stroke-dasharray:none;stroke-dashoffset:0;marker:none;visibility:visible;display:inline;overflow:visible;enable-background:accumulate"
     d="m 23.598513,37.057355 c -1.755768,-0.04155 -2.937177,-0.235383 -3.113956,-0.510906 -0.105725,-0.164779 -0.08452,-0.634918 0.03063,-0.679064 0.09405,-0.03606 0.451451,-0.01755 1.095373,0.05673 1.123163,0.129546 1.51097,0.152601 2.571409,0.152869 1.109181,2.8e-4 1.394271,-0.02254 1.955884,-0.156523 0.28447,-0.06787 0.351948,-0.07517 0.39153,-0.04234 0.05858,0.04856 0.06105,0.205886 0.01193,0.760772 l -0.03598,0.406501 -0.742219,0 c -0.408221,0 -0.968982,0.0049 -1.246132,0.01089 -0.277152,0.006 -0.690465,0.0065 -0.918473,0.0011 l 0,0 z"
     id="path3775"
     inkscape:connector-curvature="0" />
  <path
     style="color:#000000;fill:#80e5ff;fill-opacity:1;fill-rule:nonzero;stroke:#80e5ff;stroke-width:0.04340748;stroke-linecap:round;stroke-linejoin:round;stroke-miterlimit:4;stroke-opacity:1;stroke-dasharray:none;stroke-dashoffset:0;marker:none;visibility:visible;display:inline;overflow:visible;enable-background:accumulate"
     d="m 46.719912,28.126013 c -0.06463,-0.104472 0.762252,-0.750724 6.680286,-5.221019 2.866242,-2.165069 7.341488,-5.560968 9.944991,-7.546445 2.603502,-1.985477 5.37507,-4.09411 6.159037,-4.68585 l 1.425395,-1.0758925 0.297856,0.3424097 c 0.488616,0.5617068 0.57118,0.7733128 0.417544,1.0701328 -0.365388,0.705919 -3.342448,2.924374 -9.559241,7.123388 -6.613335,4.46685 -8.700651,5.973585 -11.103877,8.015365 -1.559548,1.324992 -2.208693,1.750869 -2.923339,1.917878 -0.625101,0.146083 -1.267595,0.174896 -1.338652,0.06003 l 0,0 z"
     id="path3777"
     inkscape:connector-curvature="0" />
  <path
     style="color:#000000;fill:#80e5ff;fill-opacity:1;fill-rule:nonzero;stroke:#80e5ff;stroke-width:0.04340748;stroke-linecap:round;stroke-linejoin:round;stroke-miterlimit:4;stroke-opacity:1;stroke-dasharray:none;stroke-dashoffset:0;marker:none;visibility:visible;display:inline;overflow:visible;enable-background:accumulate"
     d="m 44.880563,26.920562 c 0.151068,-1.483356 1.242789,-6.981678 1.636143,-8.240241 l 0.195593,-0.625814 1.997685,-1.545615 c 6.169579,-4.773426 9.508992,-7.2614752 13.419224,-9.9980691 3.232091,-2.2619943 4.589003,-3.1518102 4.726137,-3.0992368 0.314353,0.120516 2.645865,3.4346073 3.182626,4.5238975 0.260976,0.5296203 0.269614,0.5764948 0.142066,0.7709747 -0.219938,0.335353 -2.869332,2.3138697 -2.96563,2.2146757 -0.01713,-0.01764 -0.210646,-0.276141 -0.430028,-0.574428 -0.330449,-0.4492987 -0.442151,-0.5423377 -0.651127,-0.5423377 -0.202712,0 -0.270258,0.051605 -0.343938,0.2627667 -0.104337,0.29902 -0.05045,0.5182 0.127414,0.5182 0.07081,0 0.120991,0.08902 0.120991,0.214614 0,0.118038 0.08394,0.387233 0.186542,0.59821 0.226267,0.465289 0.183574,0.602975 -0.256526,0.827286 -0.306284,0.156106 -0.357006,0.160199 -0.525367,0.04238 -0.102492,-0.07172 -0.186351,-0.189765 -0.186351,-0.262319 0,-0.186538 -0.475587,-0.63921 -0.671565,-0.63921 -0.09009,0 -0.234481,0.05164 -0.32088,0.114757 -0.150231,0.109748 -0.150465,0.127739 -0.0053,0.412176 0.08345,0.163582 0.282625,0.477227 0.442616,0.696991 l 0.290893,0.399572 -0.671267,0.478115 c -0.850032,0.605444 -1.14691,0.794116 -1.183267,0.751996 -0.01588,-0.01839 -0.136095,-0.274927 -0.267148,-0.570065 -0.131053,-0.295138 -0.295199,-0.558439 -0.364773,-0.585111 -0.17622,-0.06756 -0.636627,0.186172 -0.636627,0.350842 0,0.07468 0.175883,0.341466 0.39085,0.592853 0.214969,0.251385 0.390853,0.501829 0.390853,0.556538 0,0.160106 -1.383837,1.140042 -1.609934,1.140042 -0.23455,0 -0.600096,-0.425149 -0.69616,-0.809669 -0.07411,-0.29664 -0.238862,-0.373893 -0.52226,-0.244888 -0.304761,0.138727 -0.264701,0.358678 0.18479,1.014611 0.218016,0.318145 0.384129,0.588675 0.369138,0.601181 -0.247505,0.206463 -1.765413,1.198681 -2.015444,1.317443 l -0.337928,0.160513 -0.183207,-0.252763 c -0.760213,-1.048839 -0.791891,-1.075876 -1.044419,-0.891396 -0.250609,0.183076 -0.188907,0.532783 0.198938,1.12751 0.197054,0.302167 0.35828,0.570428 0.35828,0.596138 0,0.06425 -0.841918,0.617361 -1.278196,0.839724 l -0.357274,0.182097 -0.17104,-0.289616 c -0.231229,-0.391536 -0.739883,-0.768027 -0.989814,-0.73263 -0.310447,0.04397 -0.291141,0.349148 0.06199,0.980014 0.174362,0.311497 0.303955,0.603964 0.287982,0.64993 -0.01598,0.04597 -0.29952,0.274412 -0.630107,0.507661 L 53.674672,20.88495 53.25292,20.37864 c -0.231965,-0.27847 -0.518732,-0.530627 -0.637263,-0.560348 -0.218538,-0.0548 -0.648525,0.150529 -0.648525,0.309685 0,0.04415 0.195427,0.314876 0.43428,0.601617 0.238853,0.286741 0.43428,0.5553 0.43428,0.596797 0,0.136388 -0.381166,0.43106 -0.980904,0.758317 -0.579504,0.316217 -0.593249,0.319081 -0.768989,0.160186 -0.09842,-0.08898 -0.276316,-0.327786 -0.39533,-0.530679 -0.171386,-0.292174 -0.266068,-0.368896 -0.455243,-0.368896 -0.230328,0 -0.526345,0.226531 -0.526345,0.402795 0,0.04697 0.16121,0.352456 0.358243,0.678834 0.352583,0.584041 0.355514,0.595605 0.185544,0.7321 -0.09498,0.07628 -0.441847,0.357979 -0.770808,0.626 -0.328959,0.268022 -0.684408,0.532095 -0.789887,0.586828 -0.227272,0.117934 -0.279484,0.04634 -0.493545,-0.676765 -0.07658,-0.258701 -0.198898,-0.561325 -0.271811,-0.672499 -0.158235,-0.241271 -0.479528,-0.264387 -0.675029,-0.04856 -0.166878,0.184225 -0.112419,0.4911 0.230221,1.297284 0.126164,0.296847 0.229389,0.614318 0.229389,0.70549 0,0.102284 -0.340944,0.460806 -0.890273,0.936174 -1.346035,1.164808 -1.866861,1.593286 -1.936675,1.593286 -0.03481,0 -0.03644,-0.263576 -0.0037,-0.585726 l 0,0 z"
     id="path3779"
     inkscape:connector-curvature="0" />
  <path
     style="color:#000000;fill:#ffdd55;fill-opacity:1;fill-rule:nonzero;stroke:#ffdd55;stroke-width:0.04340748;stroke-linecap:round;stroke-linejoin:round;stroke-miterlimit:4;stroke-opacity:1;stroke-dasharray:none;stroke-dashoffset:0;marker:none;visibility:visible;display:inline;overflow:visible;enable-background:accumulate"
     d="m 47.460297,15.966328 c 0,-0.127287 0.579369,-1.38181 1.043031,-2.258502 0.293829,-0.555571 0.583529,-0.932759 1.173989,-1.52853 0.854158,-0.86184 1.332055,-1.162841 1.840028,-1.158936 0.368409,0.0029 1.523057,0.437637 1.502403,0.565759 -0.01391,0.0863 -5.133574,4.243006 -5.404128,4.387667 -0.103047,0.05509 -0.155323,0.05259 -0.155323,-0.0075 z"
     id="path3781"
     inkscape:connector-curvature="0" />
</svg>
