<?xml version="1.0" encoding="UTF-8" standalone="no"?>
<!-- Created with Inkscape (http://www.inkscape.org/) -->

<svg
   xmlns:dc="http://purl.org/dc/elements/1.1/"
   xmlns:cc="http://creativecommons.org/ns#"
   xmlns:rdf="http://www.w3.org/1999/02/22-rdf-syntax-ns#"
   xmlns:svg="http://www.w3.org/2000/svg"
   xmlns="http://www.w3.org/2000/svg"
   xmlns:sodipodi="http://sodipodi.sourceforge.net/DTD/sodipodi-0.dtd"
   xmlns:inkscape="http://www.inkscape.org/namespaces/inkscape"
   id="svg2"
   version="1.1"
   inkscape:version="0.48.5 r10040"
   width="70"
   height="60"
   sodipodi:docname="trunk2.svg">
  <metadata
     id="metadata8">
    <rdf:RDF>
      <cc:Work
         rdf:about="">
        <dc:format>image/svg+xml</dc:format>
        <dc:type
           rdf:resource="http://purl.org/dc/dcmitype/StillImage" />
        <dc:title />
      </cc:Work>
    </rdf:RDF>
  </metadata>
  <defs
     id="defs6" />
  <sodipodi:namedview
     pagecolor="#ffffff"
     bordercolor="#666666"
     borderopacity="1"
     objecttolerance="10"
     gridtolerance="10"
     guidetolerance="10"
     inkscape:pageopacity="0"
     inkscape:pageshadow="2"
     inkscape:window-width="1366"
     inkscape:window-height="740"
     id="namedview4"
     showgrid="false"
     inkscape:zoom="5.3400704"
     inkscape:cx="46.773527"
     inkscape:cy="14.381222"
     inkscape:window-x="0"
     inkscape:window-y="36"
     inkscape:window-maximized="1"
     inkscape:current-layer="svg2" />
  <path
     style="fill:#464646;fill-opacity:1"
     d="m 25.66571,59.599364 c 9.007262,-0.85295 15.039032,-1.17848 18.980357,-1.02435 2.239978,0.0876 5.93865,0.013 8.258629,-0.16658 2.310968,-0.17889 6.083701,-0.44119 8.383857,-0.5829 3.728881,-0.22973 4.301314,-0.33279 5.282207,-0.95093 0.605061,-0.3813 1.215591,-0.69327 1.356732,-0.69327 0.592504,0 2.074869,-4.9264 2.072508,-6.88765 -8.69e-4,-0.82297 -0.653353,-3.0515 -1.901528,-6.49575 -1.045009,-2.88363 -3.195923,-8.84234 -4.779803,-13.24156 l -2.879784,-7.998589 0,-3.88335 c 0,-2.68182 -0.112074,-4.0231 -0.362221,-4.33501 -0.30051,-0.37472 -1.201509,-0.47918 -5.288421,-0.61306 -2.70941,-0.0887 -5.855117,-0.2288 -6.990457,-0.31121 l -2.064258,-0.14983 0.03582,-4.6411907 c 0.05155,-6.67875996 0.399013,-6.45215 -11.427276,-7.45290996 -1.682769,-0.14241 -3.312762,-0.20944 -3.622205,-0.14896 -0.309446,0.0605 -2.089293,0.17334 -3.955217,0.2508 -6.110398,0.25369 -6.158744,0.34684 -5.159009,9.94075066 0.251239,2.41102 0.239502,3.05794 -0.05875,3.23815 -0.204993,0.12385 -1.424841,0.2271 -2.710777,0.22942 -1.285933,0.002 -2.984624,0.18706 -3.774862,0.41054 -0.790241,0.22347 -2.327095,0.52638 -3.415228,0.67313 -2.584084,0.34848 -2.964878,0.70515 -3.209227,3.0059 -0.22893,2.15562 -1.396839,7.85812 -2.017324,9.84994 -0.236398,0.75885 -0.697699,2.559399 -1.025112,4.001219 -0.771538,3.39757 -2.439016,9.16852 -3.508251,12.14164 -1.33504097,3.71221 -2.07243097,7.72442 -1.84541097,10.04104 0.23147,2.36196 0.731632,3.47973 2.05049397,4.58243 1.230788,1.02907 2.057143,1.04715 4.471755,0.0978 2.547194,-1.00144 4.705051,-0.99166 7.221926,0.0328 1.913098,0.77864 5.518986,1.53023 7.099523,1.47977 0.478133,-0.0152 2.629723,-0.19446 4.781315,-0.39821 z m -3.132911,-2.38323 c 0.745425,-2.24204 0.601921,-6.91342 -0.324253,-10.55495 -1.549029,-6.09047 -3.010305,-11.52701 -3.782735,-14.07326 -1.152034,-3.7976 -3.192056,-12.435179 -3.192056,-13.515359 l 0,-0.88681 3.839539,-0.85034 c 5.705455,-1.26357 15.799914,-2.07868 26.152327,-2.11174 6.447015,-0.0206 11.833499,0.43091 12.511481,1.04874 0.187479,0.17085 0.878909,1.80074 1.53651,3.62198 3.130916,8.671169 4.728413,13.047339 6.245431,17.108679 3.653993,9.78241 3.978911,10.87428 3.818392,12.83149 -0.08091,0.98651 -0.423697,2.62405 -0.761756,3.63896 -0.598351,1.79637 -0.6571,1.86444 -2.215001,2.56627 -1.012105,0.45595 -2.474444,0.81335 -3.978402,0.97231 -4.422928,0.46752 -14.303431,0.84787 -19.07583,0.73432 -4.662581,-0.11092 -7.977466,0.061 -14.887861,0.77232 -1.912524,0.19684 -4.148241,0.37235 -4.968258,0.38998 l -1.490941,0.0321 0.573413,-1.72467 z m 43.366083,-6.00184 c 0,-0.37942 -0.06577,-0.53464 -0.146158,-0.34493 -0.08039,0.18972 -0.08039,0.50015 0,0.68986 0.08039,0.18972 0.146158,0.0345 0.146158,-0.34493 z m -2.295334,-0.43691 c -0.01391,-0.32146 -0.08257,-0.38685 -0.175074,-0.16671 -0.08371,0.19919 -0.07341,0.43719 0.02286,0.52889 0.09629,0.0917 0.164779,-0.0713 0.152197,-0.36218 z m 2.275299,-0.833 c 0.195561,-0.19936 0.355567,-0.56398 0.355567,-0.81026 0,-0.49228 -1.886674,-3.32504 -2.419184,-3.6323 -0.183533,-0.10591 0.0056,0.23581 0.420242,0.75936 0.860184,1.08604 1.709166,2.58008 1.709166,3.00779 0,0.65183 -0.601153,0.21485 -1.326985,-0.96458 -0.424526,-0.68982 -0.835768,-1.19337 -0.913871,-1.11899 -0.0781,0.0744 0.299333,0.80713 0.838746,1.62834 0.793991,1.20877 1.048463,1.42408 1.336319,1.13064 z m -27.078371,-5.81103 c 0.12293,-0.11706 3.966071,-0.21707 8.540304,-0.22224 l 8.316793,-0.01 0.08338,-0.82784 c 0.09943,-0.98719 -1.534624,-8.42634 -3.0124,-13.71417 l -1.056415,-3.780089 -1.976471,-0.42809 c -2.275385,-0.49283 -3.858376,-0.53353 -6.587864,-0.1694 -1.066478,0.14227 -3.438647,0.4073 -5.271483,0.58893 -1.832837,0.18164 -3.54467,0.434 -3.804077,0.5608 -0.78108,0.38179 -0.790702,1.48642 -0.04129,4.738739 0.392502,1.70337 1.059679,5.39033 1.482619,8.19322 l 0.768974,5.09617 1.167203,0.0931 c 0.641966,0.0512 1.267789,-0.003 1.390722,-0.11975 z m -2.563663,-4.37083 c -0.276857,-1.97301 -0.825889,-5.07741 -1.22008,-6.89865 -0.394185,-1.82125 -0.818697,-3.78938 -0.943356,-4.37362 -0.217886,-1.021159 -0.188972,-1.077259 0.747149,-1.449719 0.933919,-0.3716 5.150386,-0.97365 9.621374,-1.37381 1.970421,-0.17636 5.896406,0.22526 6.673635,0.68269 0.375229,0.22084 2.632289,8.627969 3.550026,13.223199 0.49588,2.48295 0.589336,3.44987 0.347204,3.59238 -0.18222,0.10724 -4.368093,0.1927 -9.301943,0.18991 l -8.970635,-0.005 -0.503374,-3.5873 z m 11.338009,1.19401 c 0.101041,-0.15568 0.09633,-1.23694 -0.01046,-2.40281 l -0.194177,-2.11975 1.160636,0.10541 c 1.056441,0.0959 1.178138,0.039 1.35557,-0.63421 0.265503,-1.00736 -0.106394,-3.79822 -0.541192,-4.06133 -0.193861,-0.1173 -0.766961,-0.21518 -1.273553,-0.21751 -1.20463,-0.006 -1.754786,-0.56851 -1.985164,-2.03146 -0.103312,-0.65605 -0.287872,-1.346939 -0.410139,-1.535329 -0.277071,-0.42692 -2.327793,-0.70725 -3.363275,-0.45978 -0.763714,0.18254 -0.771608,0.2085 -0.580327,1.909399 l 0.193919,1.72436 -1.248281,0.26328 -1.24828,0.26328 -0.08627,1.56635 c -0.04745,0.86148 0.02691,1.97906 0.16529,2.4835 0.250121,0.91194 0.26076,0.9168 1.861295,0.8489 1.591061,-0.0675 1.611835,-0.0583 1.790701,0.79335 0.09953,0.4739 0.180962,1.25699 0.180962,1.74021 0,0.48321 0.162999,1.07394 0.362219,1.31274 0.430574,0.51608 3.58945,0.88449 3.87053,0.4514 z m -2.677663,-0.77632 c -0.906834,-0.004 -0.908288,-0.007 -1.115169,-1.86641 -0.113937,-1.02444 -0.340691,-2.01785 -0.503904,-2.20757 -0.163216,-0.18971 -0.917574,-0.34493 -1.676356,-0.34493 -1.532596,0 -1.725258,-0.2525 -1.733018,-2.27129 -0.0034,-0.90175 0.09496,-1.04937 0.792929,-1.18921 1.543308,-0.30922 1.671252,-0.49374 1.597065,-2.30331 l -0.06915,-1.686729 1.228259,0.004 c 0.675537,0.002 1.371405,0.0954 1.54637,0.206949 0.174964,0.11151 0.50536,0.94779 0.734209,1.85842 l 0.416092,1.65567 1.491178,0.25411 1.491175,0.25411 0.190626,1.31987 c 0.24111,1.6694 0.04539,1.95498 -1.265582,1.84663 l -1.057603,-0.0874 0.09576,2.45252 c 0.09573,2.45168 0.09553,2.45246 -0.579554,2.28032 -0.37142,-0.0947 -1.083921,-0.17389 -1.583326,-0.17596 z m -31.546951,17.77326 c -3.047888,-1.03829 -3.530369,-1.06266 -6.085305,-0.30737 -3.9953,1.18109 -3.796975,1.15398 -4.631849,0.63306 -1.104446,-0.68912 -1.65209097,-2.15519 -1.81444297,-4.8573 -0.179302,-2.9842 0.37988397,-5.8648 2.24022697,-11.54029 1.377586,-4.2027 2.227615,-7.30605 2.914058,-10.63884 0.183645,-0.89163 0.562947,-2.25757 0.842894,-3.035409 0.279948,-0.77785 0.747633,-2.62499 1.039303,-4.10474 0.291672,-1.47977 0.627416,-2.69048 0.746097,-2.69048 0.118678,0 0.298054,0.71401 0.398614,1.58669 0.100557,0.87268 0.365827,2.76636 0.589489,4.20818 0.223661,1.441819 0.614842,4.297859 0.869288,6.346759 0.254449,2.0489 0.574505,4.12766 0.711234,4.61946 0.154445,0.55552 0.131837,1.18876 -0.05969,1.67195 -0.417844,1.05416 -0.07022,2.59349 0.783874,3.47108 0.553867,0.56911 0.975688,0.72348 1.977013,0.72348 1.415022,0 2.02116,-0.4453 2.541684,-1.8672 0.407185,-1.1123 -0.130055,-3.75669 -0.915091,-4.50426 -0.517814,-0.4931 -0.553627,-1.01216 -0.553627,-8.02375 0,-4.123089 0.05809,-7.441219 0.129092,-7.373599 0.071,0.0676 0.863063,2.85122 1.760132,6.185789 5.768986,21.44441 6.10599,22.94325 5.763042,25.63126 -0.275457,2.15905 -0.97397,4.26519 -1.514072,4.56522 -0.268156,0.14897 -1.46555,0.27459 -2.660875,0.27916 -1.773785,0.007 -2.706047,-0.17317 -5.07109,-0.97885 z m 1.583575,-15.27537 c 0.455818,-0.81105 0.358972,-2.45937 -0.197172,-3.35591 -0.273427,-0.44078 -0.607123,-0.80142 -0.741541,-0.80142 -0.134421,0 -0.163809,-0.12418 -0.06531,-0.27595 0.367505,-0.56626 1.057212,-0.24535 1.46367,0.681 0.561988,1.28084 0.543381,3.30117 -0.03549,3.8524 -0.615781,0.58639 -0.78724,0.54592 -0.424162,-0.10012 z m -2.863029,-0.58745 c -0.675479,-1.14449 -0.67386,-2.77382 0.0032,-3.17226 1.103395,-0.64939 2.829111,1.38023 2.437359,2.86659 -0.464334,1.76175 -1.504259,1.89201 -2.440513,0.30567 z m -0.438566,-5.84644 c -0.10951,-0.94857 -0.666833,-4.70489 -1.238493,-8.347379 -0.571663,-3.64249 -1.099583,-7.73229 -1.173156,-9.08845 -0.148585,-2.73885 0.09548,-3.19115 1.721954,-3.19115 0.882021,0 1.032104,0.30226 0.43551,0.87711 -0.702287,0.67669 -0.716173,1.19869 -0.186119,6.99733 0.290838,3.18169 0.668672,7.399179 0.839633,9.372199 0.170959,1.97301 0.371343,3.92878 0.445295,4.34615 0.09132,0.51536 0.0093,0.75885 -0.255523,0.75885 -0.263967,0 -0.454335,-0.55732 -0.589101,-1.72466 z m 1.282008,0.82784 c -8.68e-4,-0.18971 -0.123897,-2.33175 -0.273682,-4.76008 -0.522789,-8.475509 -0.658794,-15.236539 -0.318674,-15.841729 0.341925,-0.6084 1.58669,-1.31409 3.039876,-1.72337 0.48744,-0.13728 5.377883,-0.61639 10.867648,-1.06467 7.52327,-0.61433 11.733706,-0.81747 17.096811,-0.82488 7.969914,-0.0111 15.648687,0.44818 16.098492,0.96267 0.411851,0.47108 0.189844,4.06462 -0.242751,3.92935 -0.185243,-0.0579 -0.402002,-0.71375 -0.48169,-1.4574 l -0.144889,-1.35209 -1.303993,-0.23183 c -2.782698,-0.49468 -21.762954,0.0707 -31.006084,0.92362 -1.673459,0.15442 -3.955448,0.3367 -5.071087,0.40504 -2.24385,0.13748 -6.093366,0.738 -6.36031,0.9922 -0.09399,0.0895 -0.243645,4.55823 -0.332552,9.93049 -0.08891,5.372259 -0.212686,9.922969 -0.275064,10.112679 -0.06237,0.18971 -0.3783,0.34493 -0.702058,0.34493 -0.323755,0 -0.589251,-0.15522 -0.589993,-0.34493 z M 23.6367,13.064735 c -2.89e-4,-0.18972 -0.189296,-2.08341 -0.419953,-4.2081802 -0.38128,-3.5122905 -0.297283,-6.9969605 0.179605,-7.4510905 0.08609,-0.082 1.989987,-0.27879 4.230874,-0.43733996 3.28006,-0.23208 5.13838,-0.20205 9.532378,0.15407996 6.014898,0.48751 7.185736,0.73265 7.677367,1.60743 0.357086,0.63538 0.432675,7.3011407 0.09919,8.7470307 -0.105192,0.45606 -0.360764,0.82921 -0.567947,0.82921 -0.280028,0 -0.430186,-0.95119 -0.58517,-3.7067802 l -0.208486,-3.7067705 -1.058014,-0.48322 c -0.921699,-0.42095 -2.041166,-0.48556 -8.688506,-0.5014 l -7.630493,-0.0182 -0.578583,0.67836 c -0.523108,0.61333 -0.573778,1.04987 -0.528496,4.5531105 0.02755,2.1311102 0.03785,3.9678902 0.02288,4.0817102 -0.04704,0.35796 -1.476052,0.22444 -1.476655,-0.13796 z m -1.158533,-0.0247 c 0,-0.20327 -0.192636,-2.28447 -0.428081,-4.6248807 -0.458257,-4.55523 -0.351148,-6.59391 0.346545,-6.59591 0.124532,-3.5e-4 0.189691,0.962 0.144794,2.13858 -0.0449,1.17658 0.09043,3.78456 0.30073,5.7955305 0.311401,2.9777302 0.313104,3.6562902 0.0092,3.6562902 -0.205245,0 -0.373173,-0.16633 -0.373173,-0.36961 z m 3.662655,-0.74854 c -0.09728,-0.46322 -0.262664,-2.18716 -0.367505,-3.8310002 l -0.190623,-2.9887805 0.769983,-0.48043 c 0.691734,-0.43161 1.473468,-0.46863 7.692467,-0.36422 5.174575,0.0868 7.039332,0.20857 7.385266,0.48197 0.378245,0.29892 0.462782,0.98966 0.462782,3.7812805 l 0,3.4155402 -1.955993,0.006 c -2.12621,0.007 -5.836592,0.21842 -9.490178,0.54147 -4.207197,0.37202 -4.107292,0.38505 -4.306199,-0.56201 z M 42.53627,8.7649948 c -0.04666,-1.9258105 0.0328,-3.3578005 0.186327,-3.3578005 0.486516,0 0.619477,0.83897 0.619477,3.9088205 0,2.3057802 -0.08711,3.0082802 -0.362221,2.9213002 -0.257155,-0.0813 -0.38582,-1.08849 -0.443583,-3.4723202 z"
     id="path2987"
     inkscape:connector-curvature="0" />
  <path
     style="color:#000000;fill:#ff8080;fill-opacity:1;fill-rule:nonzero;stroke:#000000;stroke-width:0.06620762;stroke-linecap:round;stroke-linejoin:round;stroke-miterlimit:4;stroke-opacity:1;stroke-dasharray:none;stroke-dashoffset:0;marker:none;visibility:visible;display:inline;overflow:visible;enable-background:accumulate"
     d="m 46.996119,40.306038 c 0.05017,-0.06045 0.07745,-0.382415 0.07715,-0.910355 -6.23e-4,-1.081889 -0.07203,-3.426646 -0.110015,-3.612189 l -0.0301,-0.147054 0.950438,0.04105 c 0.845267,0.03651 0.972951,0.02775 1.153894,-0.07914 0.267233,-0.157858 0.379572,-0.546077 0.320533,-1.107689 -0.08199,-0.779932 -0.249119,-1.870491 -0.293445,-1.914804 -0.02437,-0.02437 -0.684514,-0.153111 -1.466978,-0.286097 -0.782463,-0.132986 -1.436888,-0.25602 -1.454277,-0.273409 -0.01739,-0.01739 -0.171372,-0.558998 -0.342184,-1.203575 -0.330936,-1.248823 -0.508569,-1.772735 -0.715334,-2.109813 -0.169057,-0.275606 -0.512038,-0.343748 -1.851805,-0.367913 l -1.019312,-0.01839 0.0262,0.926907 c 0.01441,0.509799 0.01989,1.190342 0.01219,1.512318 -0.02402,1.003459 -0.23825,1.233298 -1.408347,1.510934 -0.821937,0.195025 -0.898147,0.270954 -0.958715,0.955175 -0.05809,0.656219 0.06001,1.771308 0.216414,2.043429 0.195914,0.340858 0.505183,0.441623 1.541317,0.502185 1.100807,0.06434 1.540343,0.185646 1.684785,0.464966 0.1556,0.300897 0.341241,1.192343 0.494459,2.374388 0.144278,1.113078 0.237978,1.4231 0.450499,1.490552 0.06651,0.02111 0.491398,0.06858 0.944185,0.105485 0.452787,0.03691 0.957319,0.09493 1.121183,0.128944 0.420246,0.08723 0.568212,0.0814 0.657273,-0.02591 l 0,0 z"
     id="path3776"
     inkscape:connector-curvature="0" />
  <path
     style="color:#000000;fill:#cccccc;fill-opacity:1;fill-rule:nonzero;stroke:#000000;stroke-width:0.06620762;stroke-linecap:round;stroke-linejoin:round;stroke-miterlimit:4;stroke-opacity:1;stroke-dasharray:none;stroke-dashoffset:0;marker:none;visibility:visible;display:inline;overflow:visible;enable-background:accumulate"
     d="m 50.245096,43.310526 c 4.21271,-0.04878 4.734055,-0.07749 4.835065,-0.266223 0.237213,-0.443237 -0.368808,-3.659349 -1.664831,-8.835154 -0.923382,-3.687624 -1.633593,-6.217392 -2.05692,-7.326746 -0.176215,-0.461782 -0.216748,-0.51662 -0.451184,-0.610422 -0.729815,-0.292015 -2.738662,-0.555953 -4.667691,-0.61328 -1.446251,-0.04298 -3.062219,0.08674 -6.389036,0.512857 -3.982081,0.510051 -5.476613,0.858206 -5.799513,1.351012 -0.137421,0.209732 -0.132283,0.243386 0.444117,2.909168 0.905795,4.189202 1.435354,7.143094 2.008485,11.203384 0.129334,0.91625 0.235152,1.683431 0.235152,1.704847 0,0.04862 8.333483,0.03045 13.506356,-0.02944 z m -5.362818,-2.348895 c -1.271957,-0.276046 -1.411415,-0.463976 -1.561695,-2.1045 -0.116981,-1.277016 -0.249251,-1.907357 -0.435533,-2.075563 -0.1232,-0.111245 -0.265253,-0.122737 -1.517163,-0.122737 l -1.381235,0 -0.16587,-0.165519 c -0.105532,-0.105307 -0.218865,-0.358196 -0.31155,-0.69518 -0.13064,-0.474983 -0.145612,-0.686859 -0.145041,-2.052436 3.31e-4,-0.837527 0.02104,-1.63 0.04597,-1.761051 l 0.04534,-0.238276 1.223717,-0.252852 c 0.999316,-0.206485 1.223718,-0.273172 1.223718,-0.36366 0,-0.06094 -0.05933,-0.644359 -0.131835,-1.296478 -0.172961,-1.555534 -0.172258,-1.839113 0.005,-2.004224 0.424423,-0.395409 2.274423,-0.423709 3.368417,-0.05153 0.55307,0.188157 0.607611,0.284894 0.89509,1.587607 0.410764,1.861371 0.64455,2.106035 2.164761,2.26548 0.467881,0.04907 0.932192,0.128284 1.0318,0.176025 0.407585,0.19535 0.69298,1.400355 0.702276,2.965174 0.0064,1.083474 -0.07609,1.495947 -0.339279,1.695765 -0.137526,0.104411 -0.735917,0.114753 -1.569132,0.02712 -0.326156,-0.0343 -0.606262,-0.04912 -0.622457,-0.03293 -0.01619,0.0162 0.01994,0.588521 0.08029,1.271837 0.167869,1.900543 0.1973,2.478402 0.146811,2.882503 -0.04013,0.3212 -0.07023,0.380364 -0.224175,0.440605 -0.252486,0.0988 -1.924384,0.03586 -2.52819,-0.09518 z"
     id="path3778"
     inkscape:connector-curvature="0" />
  <path
     style="color:#000000;fill:#cccccc;fill-opacity:1;fill-rule:nonzero;stroke:#000000;stroke-width:0.04681586;stroke-linecap:round;stroke-linejoin:round;stroke-miterlimit:4;stroke-opacity:1;stroke-dasharray:none;stroke-dashoffset:0;marker:none;visibility:visible;display:inline;overflow:visible;enable-background:accumulate"
     d="m 13.706672,43.102001 c 0.231687,-0.114684 0.391215,-0.311114 0.577203,-0.710725 0.290733,-0.624663 0.339187,-1.05294 0.18662,-1.649474 -0.245365,-0.959367 -1.100242,-1.85259 -1.846802,-1.929642 -0.296145,-0.03056 -0.622481,0.09939 -0.769155,0.306286 -0.335757,0.473625 -0.366927,1.446563 -0.07394,2.307982 0.26833,0.788924 0.811965,1.49793 1.30721,1.704857 0.222366,0.09291 0.387821,0.08508 0.618864,-0.02928 z"
     id="path3784"
     inkscape:connector-curvature="0" />
  <path
     style="color:#000000;fill:#cccccc;fill-opacity:1;fill-rule:nonzero;stroke:#000000;stroke-width:0.04681586;stroke-linecap:round;stroke-linejoin:round;stroke-miterlimit:4;stroke-opacity:1;stroke-dasharray:none;stroke-dashoffset:0;marker:none;visibility:visible;display:inline;overflow:visible;enable-background:accumulate"
     d="m 15.013423,43.066337 c 0.336009,-0.244347 0.522862,-0.49659 0.63707,-0.860018 0.09524,-0.303071 0.107304,-0.436196 0.107304,-1.184145 0,-0.893912 -0.04232,-1.169971 -0.285519,-1.862479 -0.205623,-0.585513 -0.633746,-1.109258 -0.960088,-1.174527 -0.180766,-0.03615 -0.41853,0.0629 -0.548943,0.228695 -0.139052,0.176776 -0.127752,0.244618 0.05335,0.320287 0.362364,0.151405 0.888915,0.969377 1.065578,1.655324 0.05164,0.200498 0.106286,0.59628 0.12144,0.879516 0.03435,0.641894 -0.05131,1.13485 -0.285129,1.640917 -0.242291,0.524407 -0.225052,0.589127 0.09494,0.35643 l 0,0 z"
     id="path3786"
     inkscape:connector-curvature="0" />
  <path
     style="color:#000000;fill:#c8b7b7;fill-opacity:1;fill-rule:nonzero;stroke:#000000;stroke-width:0.06620762;stroke-linecap:round;stroke-linejoin:round;stroke-miterlimit:4;stroke-opacity:1;stroke-dasharray:none;stroke-dashoffset:0;marker:none;visibility:visible;display:inline;overflow:visible;enable-background:accumulate"
     d="m 13.967778,37.28805 c 0.177298,-0.111484 0.212612,-0.180462 0.247631,-0.483691 0.04053,-0.35099 0.134857,-3.578753 0.20671,-7.073738 0.196018,-9.534604 0.30541,-12.632181 0.449403,-12.725486 0.318219,-0.206202 3.065673,-0.660169 5.311609,-0.877648 1.970549,-0.190813 10.247405,-0.824018 12.546345,-0.959835 10.730962,-0.633965 22.334288,-0.818719 24.896301,-0.396411 0.490364,0.08083 0.899427,0.153231 0.909031,0.160894 0.0096,0.0077 0.06255,0.413253 0.117651,0.90131 0.14419,1.277077 0.414259,2.08615 0.625667,1.874375 0.255139,-0.25558 0.439572,-2.664094 0.267482,-3.493046 -0.09609,-0.462853 -0.181752,-0.513113 -1.133716,-0.665169 C 54.760108,12.96631 44.91564,12.702153 37.297803,12.98305 c -4.477249,0.165092 -13.890409,0.87748 -19.663666,1.488147 -1.976128,0.209024 -2.177201,0.243322 -2.879291,0.491129 -1.333732,0.470749 -2.32337,1.14574 -2.481146,1.692288 -0.235658,0.81633 -0.127171,6.41494 0.265568,13.704979 0.326446,6.05953 0.378583,6.799112 0.486949,6.907478 0.159873,0.159873 0.70148,0.171941 0.941561,0.02098 z"
     id="path3804"
     inkscape:connector-curvature="0" />
  <path
     style="color:#000000;fill:#c8b7b7;fill-opacity:1;fill-rule:nonzero;stroke:#000000;stroke-width:0.06620762;stroke-linecap:round;stroke-linejoin:round;stroke-miterlimit:4;stroke-opacity:1;stroke-dasharray:none;stroke-dashoffset:0;marker:none;visibility:visible;display:inline;overflow:visible;enable-background:accumulate"
     d="m 25.044472,13.283954 c 0.05749,-0.06927 0.07403,-1.031002 0.06405,-3.7241794 -0.01436,-3.8775394 0.0051,-4.1750898 0.306724,-4.6901178 0.08531,-0.1456568 0.29344,-0.4212461 0.462522,-0.6124206 l 0.307421,-0.34759 5.705274,0.00175 c 6.210966,0.0019 8.828093,0.064322 9.701974,0.2314072 0.473802,0.09059 1.797122,0.5997991 1.940954,0.7468725 0.02485,0.025406 0.108048,1.1485504 0.184892,2.4958756 0.201297,3.5293895 0.334974,4.6758345 0.567732,4.8690055 0.05784,0.048 0.140121,0.01779 0.286129,-0.105066 0.461861,-0.38863 0.567032,-1.480348 0.518262,-5.379742 C 45.055326,3.9648841 44.993486,3.0681551 44.810771,2.7148254 44.406426,1.9329076 43.203712,1.6580919 38.324021,1.2326272 34.290234,0.88091767 32.523657,0.8040824 30.02819,0.87180957 27.787217,0.93262977 23.883347,1.2455462 23.487385,1.3960908 c -0.324137,0.1232366 -0.489402,1.2407123 -0.489232,3.3080518 1.32e-4,1.5909673 0.05699,2.4643439 0.364199,5.5945444 0.30653,3.123242 0.261864,2.872242 0.531148,2.984756 0.298297,0.124636 1.047682,0.124972 1.150972,5.3e-4 l 0,-1.4e-5 z"
     id="path3806"
     inkscape:connector-curvature="0" />
  <path
     style="color:#000000;fill:#c8b7b7;fill-opacity:1;fill-rule:nonzero;stroke:#000000;stroke-width:0.06620762;stroke-linecap:round;stroke-linejoin:round;stroke-miterlimit:4;stroke-opacity:1;stroke-dasharray:none;stroke-dashoffset:0;marker:none;visibility:visible;display:inline;overflow:visible;enable-background:accumulate"
     d="m 23.021433,13.22837 c 0.07767,-0.289809 0.0395,-1.087498 -0.154115,-3.221151 -0.249192,-2.746118 -0.333302,-4.296459 -0.334399,-6.1637805 -0.001,-1.7195562 -0.02856,-1.9862288 -0.205177,-1.9862288 -0.173392,0 -0.335882,0.2814145 -0.434707,0.7528627 -0.101238,0.4829576 -0.113204,2.4810335 -0.02206,3.6830484 0.212968,2.8085639 0.617928,6.7998872 0.703652,6.9352492 0.05431,0.08576 0.160644,0.148967 0.250611,0.148967 0.106092,0 0.16909,-0.04783 0.196193,-0.148967 z"
     id="path3808"
     inkscape:connector-curvature="0" />
  <path
     style="color:#000000;fill:#c8b7b7;fill-opacity:1;fill-rule:nonzero;stroke:#000000;stroke-width:0.06620762;stroke-linecap:round;stroke-linejoin:round;stroke-miterlimit:4;stroke-opacity:1;stroke-dasharray:none;stroke-dashoffset:0;marker:none;visibility:visible;display:inline;overflow:visible;enable-background:accumulate"
     d="m 12.443962,37.862633 c 0.06859,-0.110975 0.04794,-0.561495 -0.06925,-1.511249 -0.09607,-0.778595 -0.611588,-6.375103 -1.234975,-13.407045 -0.34039,-3.839681 -0.377527,-5.375767 -0.142294,-5.88575 0.08227,-0.17837 0.265099,-0.449622 0.406277,-0.602782 0.545838,-0.592165 0.432129,-0.786164 -0.475364,-0.811017 -1.029466,-0.02819 -1.447833,0.210338 -1.643538,0.937065 -0.095,0.352759 -0.09284,1.974778 0.004,2.985895 0.19096,1.994455 0.639093,5.287569 1.333427,9.798729 0.218583,1.420153 0.572062,3.7932 0.78551,5.273438 0.42146,2.92278 0.51562,3.30045 0.822859,3.30045 0.09093,0 0.186954,-0.03498 0.213377,-0.07773 z"
     id="path3810"
     inkscape:connector-curvature="0" />
  <g
     id="g2993"
     style="fill:#2ad4ff">
    <path
       inkscape:connector-curvature="0"
       id="path3812"
       d="m 25.569153,58.752444 c 0.463477,-0.038 2.612325,-0.241182 4.775218,-0.451524 2.982912,-0.290088 6.261363,-0.420644 13.5766,-0.540652 11.972645,-0.196413 17.808392,-0.519143 20.581272,-1.138189 1.137056,-0.253849 2.648043,-0.904458 3.157448,-1.359551 0.516742,-0.461648 1.237317,-2.664638 1.559078,-4.766516 0.374482,-2.446271 0.428969,-2.264929 -5.721844,-19.043148 -4.690907,-12.795879 -4.748456,-12.950083 -5.293834,-14.184829 -0.544001,-1.231628 -0.589778,-1.252808 -3.608103,-1.669404 -2.362846,-0.326126 -15.863763,-0.325553 -20.786243,8.82e-4 -3.772574,0.250178 -9.401728,0.815561 -11.582327,1.163308 -2.225177,0.354857 -6.671195,1.331584 -6.853814,1.505687 -0.438011,0.417581 0.946431,6.729441 3.446357,15.712413 3.515085,12.630738 3.941497,14.550665 4.075973,18.352166 0.0895,2.530101 0.0535,3.095294 -0.280281,4.400691 -0.210632,0.823768 -0.441605,1.645229 -0.513273,1.82547 -0.117635,0.29585 0.0036,0.32453 1.247392,0.294994 0.757734,-0.01799 1.756904,-0.0638 2.220381,-0.101798 z m 40.133719,-7.578398 c 0.05978,-0.149386 0.104153,-0.105014 0.113139,0.113139 0.0081,0.197406 -0.03613,0.308009 -0.09835,0.245783 -0.06223,-0.06223 -0.06888,-0.223742 -0.01478,-0.358922 l 0,0 z m -0.860456,-1.97797 c -0.748206,-1.030631 -1.135862,-1.730266 -1.021874,-1.844253 0.04399,-0.044 0.435413,0.426698 0.869818,1.045986 0.434406,0.619288 0.868715,1.125978 0.965131,1.125978 0.43649,0 0.09063,-0.975615 -0.863606,-2.436092 -0.926903,-1.418644 -0.96126,-1.503776 -0.318674,-0.789639 0.39613,0.440239 0.965276,1.253423 1.26477,1.807079 0.473271,0.874902 0.515502,1.070366 0.322689,1.493542 -0.122015,0.267796 -0.300744,0.4869 -0.397175,0.4869 -0.09643,0 -0.465917,-0.400275 -0.821079,-0.889501 l 0,0 z M 36.330977,44.083724 c -0.06686,-0.108177 -0.408322,-2.025286 -0.75881,-4.260244 -0.350488,-2.234955 -0.986573,-5.884201 -1.413524,-8.109434 -0.892114,-4.649617 -0.883813,-5.253295 0.07685,-5.588587 0.929396,-0.32438 9.929114,-1.316801 11.958844,-1.318731 1.446947,-0.0014 5.322962,0.559568 5.506416,0.796899 0.07496,0.09697 2.158346,8.019053 2.523209,9.594506 0.866199,3.740188 1.317818,6.060304 1.430721,7.35009 l 0.118845,1.35766 -7.003041,0.0186 c -3.851674,0.01022 -7.719325,0.08144 -8.594782,0.158269 -2.460209,0.215896 -3.711704,0.216218 -3.844725,9.36e-4 l 0,4e-5 z"
       style="color:#000000;fill:#2ad4ff;fill-opacity:1;fill-rule:nonzero;stroke:#000000;stroke-width:0.18726344000000000;stroke-linecap:round;stroke-linejoin:round;stroke-miterlimit:4;stroke-opacity:1;stroke-dasharray:none;stroke-dashoffset:0;marker:none;visibility:visible;display:inline;overflow:visible;enable-background:accumulate" />
    <path
       inkscape:connector-curvature="0"
       id="path3814"
       d="m 20.65184,58.76579 c 0.570737,-0.124717 0.930105,-0.684062 1.365906,-2.125992 0.554161,-1.833543 0.712526,-3.434198 0.51638,-5.219238 -0.246679,-2.244909 -3.756188,-16.114381 -6.63912,-26.237593 l -0.718974,-2.524629 -0.14958,1.307416 c -0.08227,0.719079 -0.101634,3.911819 -0.04303,7.094978 0.0836,4.540948 0.164781,5.892192 0.376913,6.273325 0.6537,1.174495 0.904979,1.874856 1.08339,3.019613 0.168538,1.081411 0.146156,1.32349 -0.193315,2.09092 -0.512634,1.158895 -1.142772,1.548684 -2.503629,1.548684 -0.937667,0 -1.155847,-0.07197 -1.648229,-0.543705 -0.890958,-0.853592 -1.221374,-1.934978 -1.019644,-3.337101 0.114545,-0.796148 0.09366,-1.676811 -0.06547,-2.760805 C 10.884923,36.476206 10.355373,32.726255 9.836661,29.018439 9.317949,25.310623 8.845103,22.121002 8.785893,21.930393 8.594407,21.313964 8.377761,21.854063 7.785951,24.423227 7.466583,25.809667 6.955329,27.802072 6.64983,28.850794 6.344331,29.899515 5.795059,32.009495 5.429226,33.539637 5.063393,35.069779 4.130758,38.386293 3.356702,40.909668 1.406378,47.267622 1.044677,48.832955 0.91072503,51.49515 c -0.222815,4.428333 0.77025197,7.017282 2.69168397,7.017282 0.352894,0 1.666098,-0.29494 2.91823,-0.655422 2.994883,-0.862211 3.730227,-0.849608 6.883784,0.117974 2.227742,0.683523 2.770919,0.779739 4.674192,0.827959 1.184441,0.03001 2.342393,0.0133 2.573225,-0.03715 l 0,0 z"
       style="color:#000000;fill:#2ad4ff;fill-opacity:1;fill-rule:nonzero;stroke:#000000;stroke-width:0.18726344000000000;stroke-linecap:round;stroke-linejoin:round;stroke-miterlimit:4;stroke-opacity:1;stroke-dasharray:none;stroke-dashoffset:0;marker:none;visibility:visible;display:inline;overflow:visible;enable-background:accumulate" />
  </g>
  <path
     style="color:#000000;fill:#c8b7b7;fill-opacity:1;fill-rule:nonzero;stroke:#000000;stroke-width:0.04681586;stroke-linecap:round;stroke-linejoin:round;stroke-miterlimit:4;stroke-opacity:1;stroke-dasharray:none;stroke-dashoffset:0;marker:none;visibility:visible;display:inline;overflow:visible;enable-background:accumulate"
     d="m 43.16547,12.085398 c 0.123779,-0.325565 0.155824,-0.9451 0.152052,-2.939697 -0.0048,-2.5530207 -0.07224,-3.2499707 -0.348308,-3.6009309 -0.130194,-0.165514 -0.279658,-0.1460956 -0.330398,0.042925 -0.07945,0.295968 -0.12069,1.9760102 -0.08234,3.3541539 0.05403,1.94157 0.139444,2.81405 0.307545,3.141547 0.08662,0.168752 0.237667,0.169755 0.301447,0.002 l 0,-2e-6 z"
     id="path3816"
     inkscape:connector-curvature="0" />
</svg>
