<?xml version="1.0" encoding="UTF-8" standalone="no"?>
<!-- Created with Inkscape (http://www.inkscape.org/) -->

<svg
   xmlns:dc="http://purl.org/dc/elements/1.1/"
   xmlns:cc="http://creativecommons.org/ns#"
   xmlns:rdf="http://www.w3.org/1999/02/22-rdf-syntax-ns#"
   xmlns:svg="http://www.w3.org/2000/svg"
   xmlns="http://www.w3.org/2000/svg"
   xmlns:sodipodi="http://sodipodi.sourceforge.net/DTD/sodipodi-0.dtd"
   xmlns:inkscape="http://www.inkscape.org/namespaces/inkscape"
   id="svg2"
   version="1.1"
   inkscape:version="0.48.5 r10040"
   width="80"
   height="140"
   sodipodi:docname="trunk12.svg">
  <metadata
     id="metadata8">
    <rdf:RDF>
      <cc:Work
         rdf:about="">
        <dc:format>image/svg+xml</dc:format>
        <dc:type
           rdf:resource="http://purl.org/dc/dcmitype/StillImage" />
        <dc:title />
      </cc:Work>
    </rdf:RDF>
  </metadata>
  <defs
     id="defs6" />
  <sodipodi:namedview
     pagecolor="#ffffff"
     bordercolor="#666666"
     borderopacity="1"
     objecttolerance="10"
     gridtolerance="10"
     guidetolerance="10"
     inkscape:pageopacity="0"
     inkscape:pageshadow="2"
     inkscape:window-width="1680"
     inkscape:window-height="974"
     id="namedview4"
     showgrid="false"
     inkscape:zoom="5.6568542"
     inkscape:cx="48.79591"
     inkscape:cy="12.213372"
     inkscape:window-x="1366"
     inkscape:window-y="24"
     inkscape:window-maximized="1"
     inkscape:current-layer="svg2" />
  <path
     style="fill:#464646;fill-opacity:1"
     d="m 52.19154,138.67282 c -1.295112,-0.834 -2.547248,-2.34445 -2.968936,-3.58138 l -0.72924,-2.13907 -14.43106,-2.01446 c -7.937093,-1.10795 -15.69766,-2.22111 -17.245719,-2.4737 l -2.814649,-0.45923 0.765932,1.61004 c 1.089532,2.2903 -0.677652,4.81833 -3.368192,4.81833 -2.732157,0 -6.599175,-3.34592 -6.599175,-5.70993 0,-0.9852 -0.296615,-1.96684 -0.659145,-2.18143 -0.362528,-0.21459 -0.659143,-1.37771 -0.659143,-2.58471 0,-1.207 -0.412769,-2.82374 -0.917265,-3.59278 C 2.060454,119.59549 1.458055,117.67439 1.226294,116.09544 0.25364701,109.46894 -0.33621399,80.53233 0.20731001,66.10705 1.10283,42.33953 2.197047,36.89427 7.134562,31.63448 c 4.173612,-4.44604 7.316957,-5.52846 18.466247,-6.35884 5.095914,-0.37955 10.064209,-0.69009 11.040658,-0.69009 l 1.775366,0 0,-7.18295 c 0,-4.9567 -0.306442,-7.8854097 -0.988719,-9.4493597 -1.219955,-2.796478 -1.234541,-3.637572 -0.08912,-5.137895 1.126505,-1.475525 9.773486,-2.74937599 19.06946,-2.80925999 6.00561,-0.03868 6.56963,0.06664 8.07451,1.50798499 1.88182,1.802351 2.21051,5.6657 0.65015,7.64157 -0.71837,0.9096597 -0.97316,3.1109997 -0.98872,8.5422997 l -0.021,7.31682 2.67987,0.8471 c 3.3855,1.07012 8.18851,5.08557 9.87885,8.25898 1.463,2.74664 1.75124,5.46454 2.70452,25.50238 0.8241,17.32242 0.82227,19.39438 -0.033,37.24723 -0.90026,18.79239 -1.62494,24.82526 -3.37716,28.11487 l -1.40373,2.63536 1.36676,0.9169 c 2.60408,1.74694 1.09591,5.89873 -2.14082,5.8934 -0.78979,-0.002 -2.37556,-0.55106 -3.52393,-1.22172 -2.06345,-1.20505 -2.12729,-1.20503 -5.445,0.002 -1.84639,0.67196 -3.89575,1.22173 -4.55413,1.22173 -0.94002,0 -1.13809,0.38483 -0.92244,1.79213 0.56824,3.70813 -3.202791,4.99678 -7.161696,2.44735 z m 3.710401,-1.13663 c 0.559173,-1.68742 -1.948392,-4.36546 -4.087553,-4.36546 -2.129688,0 -2.019696,2.15348 0.211136,4.13366 2.134273,1.89444 3.302305,1.96428 3.876417,0.2318 z m -44.551146,-5.55444 c 0.52123,-0.93281 0.3253,-1.53943 -0.909349,-2.81536 -0.865547,-0.89451 -2.34054,-1.81071 -3.277763,-2.036 -1.443255,-0.34694 -1.704039,-0.19849 -1.704039,0.96999 0,1.40132 3.285337,5.07035 4.54011,5.07035 0.377663,0 0.985631,-0.53503 1.351041,-1.18898 z m 62.351289,-0.13718 c 0.68601,-2.07019 -0.63761,-2.84046 -2.67927,-1.55921 -1.65194,1.03669 -1.67787,1.13325 -0.52822,1.9677 1.71666,1.246 2.70075,1.12066 3.20749,-0.40849 z m -11.4515,-1.20211 c 3.30859,-3.16888 2.59835,-3.4502 -9.196228,-3.64252 l -10.631037,-0.17335 -1.103819,1.6135 c -0.607095,0.88743 -0.950099,1.76072 -0.762231,1.94065 0.187862,0.17994 3.564961,0.49281 7.504655,0.69527 3.939688,0.20245 7.608001,0.60591 8.151785,0.89657 1.915775,1.02394 4.075955,0.548 6.036875,-1.33012 z m 3.5463,-1.30697 c 1.79154,-3.31816 2.17686,-7.36974 2.39278,-25.15879 l 0.21782,-17.94615 -2.14202,-0.83712 -2.14203,-0.83714 0,-4.9529 0,-4.95288 2.63658,-0.99194 2.63657,-0.99194 -0.0338,-15.99134 c -0.045,-21.24363 -0.36552,-23.84989 -3.29592,-26.79748 -3.72369,-3.74551 -5.55214,-4.18544 -17.102236,-4.1149 -5.62,0.0343 -15.342914,0.45932 -21.606481,0.94443 -9.636075,0.74631 -11.866321,1.11763 -14.495078,2.4133 -5.975165,2.94509 -8.680917,8.09043 -10.064499,19.13901 -1.129508,9.01966 -1.549226,43.30626 -0.699115,57.11059 0.783735,12.72655 1.406784,15.17021 3.86982,15.17783 3.469884,0.0107 6.114804,1.3712 7.416376,3.81474 0.730885,1.37216 1.693617,2.49488 2.139409,2.49493 0.445799,7e-5 5.824129,0.71862 11.951845,1.59679 l 11.141316,1.59666 1.783393,-2.04601 1.783393,-2.04601 10.466933,-0.13472 c 6.534794,-0.0841 10.779444,0.11368 11.298824,0.52654 1.13674,0.90357 1.04789,3.33691 -0.15682,4.2945 -0.54379,0.43225 -0.98872,1.07 -0.98872,1.41722 0,0.97468 1.95544,-0.80789 2.99174,-2.72722 z m 10.20323,-9.1624 c 0.88325,-4.07491 1.87252,-30.56426 1.14141,-30.56331 -0.27189,3.3e-4 -0.49435,1.84111 -0.49435,4.09058 l 0,4.08998 -1.71715,-0.74934 c -1.62801,-0.71044 -1.69703,-0.93096 -1.32957,-4.24781 0.21317,-1.92415 0.57342,-4.56378 0.80054,-5.86585 0.33473,-1.91888 0.21198,-2.36741 -0.64785,-2.36741 -0.91841,0 -1.06374,1.08063 -1.0825,8.04918 -0.0398,14.75956 -1.14258,31.41071 -2.24828,33.9453 -1.50306,3.4454 -1.27766,3.46068 1.92308,0.13031 2.23795,-2.32857 3.06891,-3.80913 3.65467,-6.51163 z m -5.90704,-2.42875 c 0.28943,-4.18902 0.67911,-12.63481 0.86595,-18.76842 0.28473,-9.34658 0.18576,-11.20861 -0.61136,-11.50157 -0.80659,-0.29645 -0.95976,1.44574 -1.00827,11.46767 -0.0632,13.06398 -0.7973,26.91021 -1.53018,28.86258 -0.26069,0.69445 0.0282,0.42866 0.64183,-0.59062 0.76807,-1.27568 1.27981,-4.22687 1.64203,-9.46964 z m -57.469665,6.97333 c -0.805981,-1.69423 -3.123991,-2.9105 -5.546918,-2.9105 -1.349689,0 -1.616847,0.30665 -1.616847,1.85581 0,1.67959 0.234701,1.87934 2.471789,2.10346 5.660371,0.56709 5.479864,0.60744 4.691976,-1.04877 z M 75.988024,92.52758 c 0,-2.36745 0.54335,-4.51839 1.79408,-7.10223 2.51959,-5.20511 2.47333,-9.9563 -0.14668,-15.06988 -1.06742,-2.08332 -2.12303,-5.2083 -2.34579,-6.94441 l -0.40502,-3.15655 -0.10743,3.25169 c -0.0759,2.29742 0.37135,4.24148 1.52405,6.62442 2.63927,5.45602 2.69818,7.61174 0.39612,14.49486 -2.00415,5.99231 -2.64681,11.29801 -1.36847,11.29801 0.36253,0 0.65914,-1.52817 0.65914,-3.39591 z m -4.614,-12.77002 c 0,-6.12712 -0.098,-6.65823 -1.15351,-6.24852 -0.63442,0.24627 -1.96919,0.7306 -2.96614,1.07627 -1.7387,0.60285 -1.81265,0.80605 -1.81265,4.98093 l 0,4.35244 2.47179,1.19879 c 1.35948,0.65933 2.69425,1.22973 2.96615,1.26758 0.27189,0.0378 0.49436,-2.94454 0.49436,-6.62749 z m 3.29572,0.015 c 0,-4.63587 -1.56174,-4.41599 -1.8471,0.26006 -0.15939,2.61192 0.006,3.26474 0.82393,3.26474 0.80262,-2e-5 1.02317,-0.7598 1.02317,-3.52482 z m 2.52453,-1.84135 c -0.0107,-1.38888 -0.25685,-3.23546 -0.5471,-4.10351 -0.35433,-1.05966 -0.53411,0.18501 -0.54711,3.78785 -0.0128,3.53611 0.17381,4.93555 0.54711,4.10352 0.31157,-0.69444 0.55777,-2.39898 0.5471,-3.78786 z m -2.53463,-5.52395 c -0.006,-1.82291 -0.29762,-3.74051 -0.64906,-4.26135 -0.44747,-0.66317 -0.64197,0.33003 -0.64904,3.31438 -0.006,2.42647 0.27372,4.26133 0.64904,4.26133 0.36253,0 0.65461,-1.49146 0.64906,-3.31436 z m -3.28562,-18.8066 c 0,-17.06935 -0.0906,-18.50323 -1.31444,-20.80082 -1.27378,-2.39138 -4.23387,-5.68902 -5.10669,-5.68902 -0.23591,0 0.50092,0.92329 1.63738,2.05176 1.13647,1.12846 2.38112,2.85149 2.76589,3.82895 0.43546,1.10626 0.69957,8.79266 0.69957,20.35972 0,11.96747 0.23464,18.58252 0.65914,18.58252 0.4243,0 0.65915,-6.53191 0.65915,-18.33311 z m 6.20113,10.59957 c -0.1256,-1.47568 -0.36386,-7.98325 -0.52948,-14.46127 -0.31973,-12.50644 -0.53458,-13.4443 -4.13516,-18.05115 -2.25783,-2.88884 -2.94949,-2.55009 -1.28901,0.63131 1.25396,2.40256 1.42287,3.95361 1.61556,14.83578 l 0.21518,12.15268 1.59747,0 c 1.51302,0 1.59746,0.20022 1.59746,3.78786 0,2.08333 0.26018,3.78786 0.57817,3.78786 0.318,0 0.47541,-1.20738 0.34981,-2.68307 z M 41.053405,17.58854 c 0,-5.31633 -0.197907,-6.93414 -0.823926,-6.73528 -0.563092,0.17887 -0.881325,2.13686 -1.005218,6.18489 -0.189378,6.18784 0.01766,7.5474 1.149319,7.5474 0.426115,0 0.679825,-2.61126 0.679825,-6.99701 z m 19.115169,-0.5787 c 0,-4.25207 -0.26907,-7.5757097 -0.6133,-7.5757097 -0.33731,0 -0.70809,-0.6392 -0.82393,-1.42045 -0.20232,-1.36445 -0.50292,-1.42748 -7.625996,-1.59894 l -7.415364,-0.17851 0,1.91461 c 0,1.05303 -0.29662,1.9145997 -0.659148,1.9145997 -0.399354,0 -0.659141,2.72855 -0.659141,6.92304 l 0,6.92304 7.085797,0.20294 c 3.897184,0.11161 7.901492,0.26327 8.898442,0.33701 l 1.81264,0.13408 0,-7.57571 z m 3.29572,0 c 0,-6.31309 -0.16479,-7.5757097 -0.98872,-7.5757097 -0.82392,0 -0.98871,1.2626197 -0.98871,7.5757097 0,6.3131 0.16479,7.57571 0.98871,7.57571 0.82393,0 0.98872,-1.26261 0.98872,-7.57571 z M 42.252753,8.0136803 c -0.140615,-0.94829 -0.594045,-1.35878 -1.364133,-1.23493 -0.684097,0.11001 -1.153498,-0.21113 -1.153498,-0.78914 0,-0.835601 1.419303,-0.974642 9.948866,-0.974642 9.247876,0 9.972116,0.08519 10.278996,1.209152 0.40982,1.50097 3.47892,2.3633 4.25262,1.19486 0.96029,-1.4502 0.60902,-3.434681 -0.82727,-4.673577 -1.19025,-1.026671 -2.37168,-1.192952 -8.074505,-1.13645 -7.695441,0.07625 -15.846793,1.247063 -16.865278,2.422445 -1.093562,1.262012 0.944747,5.402732 2.659543,5.402732 1.028465,0 1.304494,-0.34254 1.144659,-1.42045 z"
     id="path2987"
     inkscape:connector-curvature="0" />
  <path
     style="color:#000000;fill:#55ddff;fill-opacity:1;fill-rule:nonzero;stroke:#55ddff;stroke-width:0.07071068;stroke-linecap:round;stroke-linejoin:round;stroke-miterlimit:4;stroke-opacity:1;stroke-dasharray:none;stroke-dashoffset:0;marker:none;visibility:visible;display:inline;overflow:visible;enable-background:accumulate"
     d="m 62.904136,132.04606 c 0,-0.0913 0.329953,-0.54726 0.73323,-1.01321 0.403277,-0.46595 0.8408,-1.10463 0.972272,-1.41929 0.486399,-1.16411 0.152315,-2.75952 -0.693969,-3.31402 -0.706238,-0.46275 -5.958965,-0.65134 -14.391742,-0.51671 l -7.458189,0.11907 -1.734199,2.00563 c -0.95381,1.1031 -1.795364,2.00582 -1.870119,2.00604 -0.07476,1.8e-4 -3.755138,-0.51661 -8.178625,-1.14853 -4.423489,-0.63192 -9.555299,-1.34634 -11.404022,-1.58759 -1.848724,-0.24125 -3.51343,-0.52004 -3.699348,-0.61955 -0.185917,-0.0995 -0.852547,-0.96371 -1.481401,-1.92046 -1.944989,-2.95917 -3.413013,-3.76795 -7.6166258,-4.1962 C 4.7763366,120.30829 4.2268917,119.79106 3.6978245,118.19746 2.1343102,113.48799 1.3729572,92.244933 1.9160923,68.484086 2.3657036,48.814687 3.1825128,42.272364 5.9215843,36.401661 c 1.4260066,-3.056387 3.348867,-5.121094 6.3071767,-6.772449 1.925108,-1.074613 3.265609,-1.497979 6.02796,-1.90379 7.964175,-1.17 29.831495,-2.208951 37.222793,-1.768514 3.896466,0.232185 5.316427,0.503895 7.023641,1.343974 1.550326,0.762879 4.036941,3.036796 4.794778,4.384646 1.61832,2.878261 1.784937,5.051005 1.91455,24.966169 l 0.103619,15.92155 -1.747575,0.669595 c -0.961167,0.368277 -2.165211,0.826159 -2.675654,1.017518 l -0.928077,0.347925 0,5.002151 0,5.002151 2.177668,0.840198 2.177666,0.840199 -0.05902,5.326075 c -0.126864,11.449171 -0.427971,25.605771 -0.598324,28.130271 -0.367802,5.45053 -0.987406,8.01657 -2.471476,10.23544 -1.079038,1.6133 -2.287179,2.70212 -2.287179,2.06129 z"
     id="path3750"
     inkscape:connector-curvature="0" />
  <path
     style="color:#000000;fill:#55ddff;fill-opacity:1;fill-rule:nonzero;stroke:#55ddff;stroke-width:0.03535534;stroke-linecap:round;stroke-linejoin:round;stroke-miterlimit:4;stroke-opacity:1;stroke-dasharray:none;stroke-dashoffset:0;marker:none;visibility:visible;display:inline;overflow:visible;enable-background:accumulate"
     d="M 70.608822,71.578752 C 70.308668,69.961034 70.205745,66.416924 70.1128,54.498478 70.00751,40.997028 69.893008,36.618682 69.575372,33.948187 c -0.170427,-1.432849 -0.993565,-2.736818 -3.253338,-5.153756 -0.962125,-1.02904 -1.384983,-1.544533 -1.320156,-1.60936 0.02243,-0.02243 0.235482,0.08268 0.473438,0.233588 1.302703,0.82615 3.656484,3.693944 4.63374,5.645644 0.941986,1.881262 1.032592,2.782268 1.168826,11.623068 0.08156,5.292806 0.08099,8.584283 -0.0026,14.805048 -0.10565,7.864202 -0.178513,10.108334 -0.375244,11.557243 -0.107888,0.794587 -0.208168,0.976769 -0.291231,0.52909 l 0,0 z"
     id="path3752"
     inkscape:connector-curvature="0" />
  <path
     style="color:#000000;fill:#55ddff;fill-opacity:1;fill-rule:nonzero;stroke:#55ddff;stroke-width:0.03535534;stroke-linecap:round;stroke-linejoin:round;stroke-miterlimit:4;stroke-opacity:1;stroke-dasharray:none;stroke-dashoffset:0;marker:none;visibility:visible;display:inline;overflow:visible;enable-background:accumulate"
     d="m 77.10994,66.676448 c -0.245134,-0.468317 -0.352407,-1.523106 -0.447662,-4.401756 -0.0769,-2.324067 -0.146987,-2.653567 -0.610158,-2.868701 -0.132314,-0.06146 -0.755313,-0.131413 -1.397045,-0.156871 L 73.496837,59.20317 73.43775,55.878552 C 73.217194,43.468798 73.10139,39.188588 72.935283,37.306944 c -0.202399,-2.29275 -0.522773,-3.537032 -1.319481,-5.124659 -0.761313,-1.517093 -0.99065,-2.307086 -0.687794,-2.369237 0.334561,-0.06866 2.401413,2.347983 3.669722,4.290777 1.110809,1.701536 1.694639,3.565842 1.958053,6.252517 0.187082,1.908126 0.276091,3.89777 0.49427,11.048543 0.121628,3.986315 0.280922,8.495919 0.353987,10.021343 0.07306,1.525424 0.132623,3.195964 0.132352,3.712311 -6.54e-4,1.240752 -0.201971,1.966769 -0.426452,1.537909 z"
     id="path3754"
     inkscape:connector-curvature="0" />
  <path
     style="color:#000000;fill:#55ddff;fill-opacity:1;fill-rule:nonzero;stroke:#55ddff;stroke-width:0.07071068;stroke-linecap:round;stroke-linejoin:round;stroke-miterlimit:4;stroke-opacity:1;stroke-dasharray:none;stroke-dashoffset:0;marker:none;visibility:visible;display:inline;overflow:visible;enable-background:accumulate"
     d="m 69.707455,128.77228 c 0,-0.10258 0.193625,-0.66303 0.430278,-1.24543 0.772309,-1.90067 1.131793,-4.06415 1.59996,-9.62905 0.470533,-5.59301 0.809223,-13.5408 0.96802,-22.715803 0.169809,-9.811242 0.221579,-10.294957 1.112805,-10.397469 0.323023,-0.03716 0.524076,0.04022 0.596773,0.229662 0.0603,0.157133 -0.139603,2.131311 -0.444223,4.387062 -0.579038,4.28785 -0.682461,6.266024 -0.359181,6.870077 0.169356,0.316445 2.561434,1.562319 2.999653,1.562319 0.09832,0 0.171172,-1.326577 0.17717,-3.226175 0.0056,-1.774396 0.07252,-3.544373 0.148715,-3.933281 l 0.138528,-0.707107 0.142164,0.512235 c 0.290092,1.045233 -0.242312,17.62518 -0.800972,24.94361 -0.476217,6.23843 -1.150557,7.96708 -4.500924,11.538 -1.525139,1.62553 -2.208766,2.18616 -2.208766,1.81135 z"
     id="path3756"
     inkscape:connector-curvature="0" />
  <path
     style="color:#000000;fill:#55ddff;fill-opacity:1;fill-rule:nonzero;stroke:#55ddff;stroke-width:0.05;stroke-linecap:round;stroke-linejoin:round;stroke-miterlimit:4;stroke-opacity:1;stroke-dasharray:none;stroke-dashoffset:0;marker:none;visibility:visible;display:inline;overflow:visible;enable-background:accumulate"
     d=""
     id="path3758"
     inkscape:connector-curvature="0" />
  <path
     style="color:#000000;fill:#55ddff;fill-opacity:1;fill-rule:nonzero;stroke:#55ddff;stroke-width:0.05;stroke-linecap:round;stroke-linejoin:round;stroke-miterlimit:4;stroke-opacity:1;stroke-dasharray:none;stroke-dashoffset:0;marker:none;visibility:visible;display:inline;overflow:visible;enable-background:accumulate"
     d="m 67.992941,127.3901 c 0.689507,-3.91579 1.112939,-11.91035 1.317503,-24.875 0.197539,-12.519386 0.324084,-14.798918 0.83075,-14.964764 0.223877,-0.07328 0.525065,0.304607 0.698705,0.87664 0.342564,1.128525 0.0984,12.226654 -0.532696,24.213124 -0.52717,10.01257 -1.03145,13.37331 -2.250756,15 -0.109339,0.14587 -0.123439,0.0904 -0.06351,-0.25 l 0,0 z"
     id="path3760"
     inkscape:connector-curvature="0" />
  <path
     style="color:#000000;fill:#55ddff;fill-opacity:1;fill-rule:nonzero;stroke:#55ddff;stroke-width:0.05;stroke-linecap:round;stroke-linejoin:round;stroke-miterlimit:4;stroke-opacity:1;stroke-dasharray:none;stroke-dashoffset:0;marker:none;visibility:visible;display:inline;overflow:visible;enable-background:accumulate"
     d="m 56.436952,132.0255 c -1.325078,-0.45043 -3.046556,-0.65104 -9.1875,-1.07065 -4.809085,-0.3286 -6.416708,-0.49396 -6.6018,-0.67905 -0.15893,-0.15893 0.296686,-1.10958 1.115475,-2.32746 l 0.711465,-1.05824 0.57493,5.1e-4 c 0.316212,2.8e-4 3.640555,0.0567 7.38743,0.12528 10.30453,0.18873 12.615408,0.37559 13.221218,1.0691 l 0.283719,0.32479 -0.283719,0.50572 c -0.156045,0.27814 -0.748809,0.94615 -1.317254,1.48446 -2.028375,1.92084 -3.689645,2.37824 -5.903964,1.62554 z"
     id="path3762"
     inkscape:connector-curvature="0" />
  <path
     style="color:#000000;fill:#55ddff;fill-opacity:1;fill-rule:nonzero;stroke:#55ddff;stroke-width:0.05;stroke-linecap:round;stroke-linejoin:round;stroke-miterlimit:4;stroke-opacity:1;stroke-dasharray:none;stroke-dashoffset:0;marker:none;visibility:visible;display:inline;overflow:visible;enable-background:accumulate"
     d="m 9.0005173,125.8137 c -3.3514515,-0.34756 -3.4853191,-0.43617 -3.4183295,-2.2627 0.056906,-1.5516 0.1086339,-1.59998 1.7035882,-1.59336 2.5024735,0.0104 4.539175,1.19649 5.42672,3.16032 0.372623,0.82448 0.287863,0.89985 -0.990371,0.88065 -0.60372,-0.009 -1.8284434,-0.0923 -2.7216077,-0.18491 z"
     id="path3764"
     inkscape:connector-curvature="0" />
  <path
     style="color:#000000;fill:#d35f5f;fill-opacity:1;fill-rule:nonzero;stroke:#d35f5f;stroke-width:0.0125;stroke-linecap:round;stroke-linejoin:round;stroke-miterlimit:4;stroke-opacity:1;stroke-dasharray:none;stroke-dashoffset:0;marker:none;visibility:visible;display:inline;overflow:visible;enable-background:accumulate"
     d="M 40.914718,9.3965469 C 39.965991,9.2370397 38.784353,7.726059 38.315094,6.0723631 c -0.196096,-0.6910534 -0.19139,-1.4267 0.01167,-1.8247349 0.250248,-0.4905276 1.274429,-0.9093943 3.253107,-1.3304475 2.936474,-0.6248676 6.952513,-1.0569127 11.5625,-1.2438928 1.276451,-0.051773 5.797773,-0.052706 6.625,-0.00137 1.784562,0.1107518 2.588668,0.3249008 3.358235,0.8943623 1.328728,0.9832285 1.922678,2.6583726 1.442814,4.069232 -0.328431,0.9656278 -0.769499,1.3044519 -1.688907,1.2974003 -1.108695,-0.0085 -2.30236,-0.6087778 -2.74852,-1.3821853 -0.04567,-0.079163 -0.11758,-0.24551 -0.159806,-0.3696597 C 59.799614,5.6766197 59.5629,5.4770528 58.95254,5.3222784 57.931031,5.0632456 56.385573,5.0099981 49.892373,5.0101187 c -6.248636,1.25e-4 -8.130308,0.05769 -9.216218,0.2819913 -0.710656,0.14679 -0.949702,0.3334712 -0.944019,0.737225 0.0048,0.3419578 0.180812,0.593249 0.499579,0.7133025 0.146528,0.055185 0.230533,0.062137 0.671875,0.055599 0.529764,-0.00785 0.583864,0.0025 0.808303,0.1545704 0.133801,0.090658 0.29917,0.3233353 0.38503,0.5417443 0.158895,0.4041888 0.218786,1.0728785 0.124522,1.3902975 -0.05635,0.1897394 -0.227318,0.3659097 -0.421592,0.4344107 -0.111372,0.03927 -0.653905,0.118815 -0.71998,0.1055615 -0.0086,-0.00173 -0.08291,-0.014447 -0.165155,-0.028274 l 0,0 z"
     id="path3770"
     inkscape:connector-curvature="0" />
  <path
     style="color:#000000;fill:#d35f5f;fill-opacity:1;fill-rule:nonzero;stroke:#d35f5f;stroke-width:0.025;stroke-linecap:round;stroke-linejoin:round;stroke-miterlimit:4;stroke-opacity:1;stroke-dasharray:none;stroke-dashoffset:0;marker:none;visibility:visible;display:inline;overflow:visible;enable-background:accumulate"
     d="m 62.113257,24.389512 c -0.458719,-0.489689 -0.57588,-1.988048 -0.575451,-7.359375 5.03e-4,-6.303221 0.158465,-7.5625002 0.948628,-7.5625002 0.767134,0 0.924642,1.2933802 0.923706,7.5850582 -8.09e-4,5.443522 -0.110305,6.840448 -0.574948,7.335037 -0.181636,0.193343 -0.541656,0.19423 -0.721935,0.0018 l 0,-2e-6 z"
     id="path3772"
     inkscape:connector-curvature="0" />
  <path
     style="color:#000000;fill:#d35f5f;fill-opacity:1;fill-rule:nonzero;stroke:#d35f5f;stroke-width:0.025;stroke-linecap:round;stroke-linejoin:round;stroke-miterlimit:4;stroke-opacity:1;stroke-dasharray:none;stroke-dashoffset:0;marker:none;visibility:visible;display:inline;overflow:visible;enable-background:accumulate"
     d="m 39.886134,24.399229 c -0.229456,-0.18049 -0.37878,-0.499588 -0.509064,-1.087842 -0.09149,-0.413093 -0.115754,-0.907376 -0.139601,-2.84375 -0.04249,-3.450584 0.131492,-6.818415 0.427217,-8.269564 0.150233,-0.737205 0.245597,-0.985702 0.460906,-1.201011 0.203942,-0.203941 0.354003,-0.135723 0.499091,0.226888 0.199227,0.497918 0.288613,1.431079 0.352616,3.681187 0.122041,4.290589 -0.06669,8.497889 -0.420916,9.383181 -0.0846,0.211447 -0.12232,0.241819 -0.300291,0.241819 -0.11196,0 -0.278413,-0.0589 -0.369958,-0.130908 l 0,0 z"
     id="path3774"
     inkscape:connector-curvature="0" />
  <path
     style="color:#000000;fill:#d35f5f;fill-opacity:1;fill-rule:nonzero;stroke:#d35f5f;stroke-width:0.05;stroke-linecap:round;stroke-linejoin:round;stroke-miterlimit:4;stroke-opacity:1;stroke-dasharray:none;stroke-dashoffset:0;marker:none;visibility:visible;display:inline;overflow:visible;enable-background:accumulate"
     d="m 69.740197,85.870382 c -0.446875,-0.193946 -1.59145,-0.724869 -2.5435,-1.17983 l -1.731001,-0.827201 0.04895,-3.784439 c 0.05215,-4.032102 0.09869,-4.354423 0.706999,-4.896385 0.25198,-0.224499 4.110734,-1.700553 4.445648,-1.700553 0.370767,0 0.488855,0.693364 0.574797,3.375 0.08481,2.646305 -0.02762,7.620289 -0.198487,8.78125 -0.104397,0.709325 -0.174986,0.721897 -1.303406,0.232158 z"
     id="path3776"
     inkscape:connector-curvature="0" />
  <path
     style="color:#000000;fill:#d35f5f;fill-opacity:1;fill-rule:nonzero;stroke:#d35f5f;stroke-width:0.03535534;stroke-linecap:round;stroke-linejoin:round;stroke-miterlimit:4;stroke-opacity:1;stroke-dasharray:none;stroke-dashoffset:0;marker:none;visibility:visible;display:inline;overflow:visible;enable-background:accumulate"
     d="m 75.078789,95.735479 c -0.531381,-0.531381 -0.450607,-2.686779 0.217527,-5.804536 0.336494,-1.570205 0.732675,-3.008244 1.52194,-5.524272 1.300601,-4.146071 1.545162,-5.294488 1.543465,-7.247845 -0.0018,-2.086224 -0.393516,-3.51269 -1.82196,-6.635041 -1.187953,-2.596675 -1.466691,-3.528104 -1.699935,-5.680485 -0.03074,-0.283625 -0.02595,-1.277994 0.01063,-2.209709 l 0.06651,-1.694027 0.202711,1.502602 c 0.231865,1.718703 0.291551,2.005954 0.707085,3.402952 0.414334,1.392969 0.934699,2.753391 1.555203,4.065864 1.563894,3.307903 2.062119,5.031468 2.161099,7.47612 0.110243,2.722814 -0.362804,4.820732 -1.802031,7.991841 -1.287666,2.837169 -1.663868,4.324485 -1.795726,7.099417 -0.04661,0.980986 -0.101572,1.863161 -0.12213,1.960388 -0.208187,0.984634 -0.278021,1.210061 -0.412582,1.331837 -0.143205,0.129598 -0.169935,0.12677 -0.331812,-0.03511 l 0,0 z"
     id="path3778"
     inkscape:connector-curvature="0" />
  <path
     style="color:#000000;fill:#d35f5f;fill-opacity:1;fill-rule:nonzero;stroke:#d35f5f;stroke-width:0.03535534;stroke-linecap:round;stroke-linejoin:round;stroke-miterlimit:4;stroke-opacity:1;stroke-dasharray:none;stroke-dashoffset:0;marker:none;visibility:visible;display:inline;overflow:visible;enable-background:accumulate"
     d="m 76.347724,81.688729 c -0.164639,-0.419509 -0.254385,-3.61029 -0.160539,-5.707673 0.09958,-2.225509 0.168698,-2.651682 0.361452,-2.228632 0.19142,0.420122 0.452659,1.941098 0.531939,3.097043 0.115618,1.685771 -0.03682,3.453169 -0.394516,4.574097 -0.141553,0.443593 -0.238494,0.519569 -0.338336,0.265165 l 0,0 z"
     id="path3780"
     inkscape:connector-curvature="0" />
  <path
     style="color:#000000;fill:#d35f5f;fill-opacity:1;fill-rule:nonzero;stroke:#d35f5f;stroke-width:0.03535534;stroke-linecap:round;stroke-linejoin:round;stroke-miterlimit:4;stroke-opacity:1;stroke-dasharray:none;stroke-dashoffset:0;marker:none;visibility:visible;display:inline;overflow:visible;enable-background:accumulate"
     d="m 73.265544,83.157519 c -0.317645,-0.184643 -0.411563,-0.624029 -0.411563,-1.925463 0,-2.075812 0.355137,-4.110528 0.800971,-4.589074 0.236413,-0.25376 0.352968,-0.216574 0.547252,0.174594 0.281023,0.565807 0.366903,1.309404 0.371181,3.213872 0.0045,2.026048 -0.08172,2.612659 -0.44127,3.000624 -0.222631,0.240224 -0.580096,0.291971 -0.866571,0.125447 l 0,0 z"
     id="path3782"
     inkscape:connector-curvature="0" />
  <path
     style="color:#000000;fill:#d35f5f;fill-opacity:1;fill-rule:nonzero;stroke:#d35f5f;stroke-width:0.03535534;stroke-linecap:round;stroke-linejoin:round;stroke-miterlimit:4;stroke-opacity:1;stroke-dasharray:none;stroke-dashoffset:0;marker:none;visibility:visible;display:inline;overflow:visible;enable-background:accumulate"
     d="m 73.79641,75.312764 c -0.3056,-0.763771 -0.471819,-3.549755 -0.330194,-5.534365 0.106703,-1.495241 0.150507,-1.723573 0.330662,-1.723573 0.488303,0 0.961666,3.496314 0.754242,5.570912 -0.106366,1.063842 -0.333413,1.948443 -0.514925,2.006203 -0.05468,0.0174 -0.162583,-0.12623 -0.239785,-0.319177 z"
     id="path3784"
     inkscape:connector-curvature="0" />
  <path
     style="color:#000000;fill:#ffd42a;fill-opacity:1;fill-rule:nonzero;stroke:#ffdd55;stroke-width:0.07071068000000000;stroke-linecap:round;stroke-linejoin:round;stroke-miterlimit:4;stroke-opacity:1;stroke-dasharray:none;stroke-dashoffset:0;marker:none;visibility:visible;display:inline;overflow:visible;enable-background:accumulate"
     d="m 54.1356,138.55815 c -0.749978,-0.20324 -2.523145,-1.66402 -3.127641,-2.57664 -1.72368,-2.60228 0.859452,-3.76128 3.36409,-1.50939 1.030167,0.92621 1.437075,1.63809 1.437075,2.51416 0,0.71346 -0.437661,1.50653 -0.896134,1.62386 -0.165619,0.0424 -0.515445,0.019 -0.77739,-0.052 l 0,0 z"
     id="path3786"
     inkscape:connector-curvature="0" />
  <path
     style="color:#000000;fill:#ffd42a;fill-opacity:1;fill-rule:nonzero;stroke:#ffdd55;stroke-width:0.07071068;stroke-linecap:round;stroke-linejoin:round;stroke-miterlimit:4;stroke-opacity:1;stroke-dasharray:none;stroke-dashoffset:0;marker:none;visibility:visible;display:inline;overflow:visible;enable-background:accumulate"
     d="m 70.963708,132.40664 c -1.282774,-0.80594 -1.357169,-0.97516 -0.661863,-1.5055 0.890343,-0.6791 2.219105,-1.21677 2.705402,-1.09471 0.582509,0.1462 0.834543,0.69866 0.695143,1.52376 -0.268504,1.58926 -1.285948,1.98917 -2.738682,1.07645 z"
     id="path3788"
     inkscape:connector-curvature="0" />
  <path
     style="color:#000000;fill:#ffd42a;fill-opacity:1;fill-rule:nonzero;stroke:#ffdd55;stroke-width:0.07071068;stroke-linecap:round;stroke-linejoin:round;stroke-miterlimit:4;stroke-opacity:1;stroke-dasharray:none;stroke-dashoffset:0;marker:none;visibility:visible;display:inline;overflow:visible;enable-background:accumulate"
     d="m 9.2532672,132.73913 c -1.344528,-0.71072 -3.6950017,-3.75066 -3.6925708,-4.77573 0.00182,-0.76809 0.2332884,-0.9476 1.0528866,-0.81654 1.0721952,0.17145 2.2838775,0.84169 3.452476,1.90972 1.324422,1.21045 1.620499,1.87126 1.218235,2.71897 -0.266296,0.56118 -1.020187,1.32582 -1.2881918,1.30657 -0.059808,-0.004 -0.3940841,-0.15865 -0.742835,-0.34299 z"
     id="path3790"
     inkscape:connector-curvature="0" />
</svg>
