<?xml version="1.0" encoding="UTF-8" standalone="no"?>
<!-- Created with Inkscape (http://www.inkscape.org/) -->

<svg
   xmlns:dc="http://purl.org/dc/elements/1.1/"
   xmlns:cc="http://creativecommons.org/ns#"
   xmlns:rdf="http://www.w3.org/1999/02/22-rdf-syntax-ns#"
   xmlns:svg="http://www.w3.org/2000/svg"
   xmlns="http://www.w3.org/2000/svg"
   xmlns:sodipodi="http://sodipodi.sourceforge.net/DTD/sodipodi-0.dtd"
   xmlns:inkscape="http://www.inkscape.org/namespaces/inkscape"
   id="svg2"
   version="1.1"
   inkscape:version="0.48.5 r10040"
   width="95"
   height="85"
   sodipodi:docname="trunk8.svg">
  <metadata
     id="metadata8">
    <rdf:RDF>
      <cc:Work
         rdf:about="">
        <dc:format>image/svg+xml</dc:format>
        <dc:type
           rdf:resource="http://purl.org/dc/dcmitype/StillImage" />
        <dc:title />
      </cc:Work>
    </rdf:RDF>
  </metadata>
  <defs
     id="defs6" />
  <sodipodi:namedview
     pagecolor="#ffffff"
     bordercolor="#666666"
     borderopacity="1"
     objecttolerance="10"
     gridtolerance="10"
     guidetolerance="10"
     inkscape:pageopacity="0"
     inkscape:pageshadow="2"
     inkscape:window-width="1680"
     inkscape:window-height="974"
     id="namedview4"
     showgrid="false"
     inkscape:zoom="3.9915433"
     inkscape:cx="84.353115"
     inkscape:cy="37.176242"
     inkscape:window-x="1366"
     inkscape:window-y="24"
     inkscape:window-maximized="1"
     inkscape:current-layer="svg2" />
  <path
     style="fill:#464646;fill-opacity:1"
     d="m 17.799322,84.560616 c -1.12263,-0.42804 -2.85695,-1.86852 -2.85695,-2.37291 0,-0.13576 -0.34684,-0.64548 -0.77075,-1.13272 -1.49574,-1.71918 -5.1791202,-7.32449 -9.5109002,-14.47354 l -1.03552,-1.70899 0.21328,-2.2306 0.21329,-2.23061 -1.13019,-1.49205 c -2.36656,-3.12429 -3.04657,-4.90941 -2.90345,-7.62196 0.0718,-1.36036 0.19251,-1.84241 0.72086,-2.8779 0.34906,-0.68411 1.06565,-1.66615 1.59244,-2.18231 l 0.95779,-0.93847 1.12093,0.29052 1.12093,0.29052 0.44051,-3.33935 c 0.95637,-7.24988 2.07587,-11.21763 3.96915,-14.06748 3.1883002,-4.7992 5.2997502,-6.04426 14.4007102,-8.49159 4.40795,-1.18533 4.75169,-1.23427 9.69119,-1.37984 3.90157,-0.11499 4.42012,-0.16719 4.41809,-0.44489 -0.001,-0.17304 -0.31581,-1.61932 -0.699,-3.21396 -1.55998,-6.4919697 -1.8127,-7.8631997 -1.81683,-9.8577797 -0.003,-1.62805 0.0679,-2.08658 0.45215,-2.90737 0.25088,-0.53597 0.67826,-1.11927 0.94973,-1.29620998 1.15102,-0.75025 9.02006,-1.08435 17.74859,-0.75359 6.12307,0.23204 6.85227,0.38036 9.07035,1.84495998 2.10003,1.38665 4.04518,4.09976 4.6814,6.52967 0.15569,0.59461 0.40964,1.33014 0.56433,1.6345297 0.15468,0.30438 0.55786,1.38698 0.89595,2.40577 l 0.61471,1.85236 1.41449,0 c 2.01517,0 2.86897,0.47673 5.03399,2.81077 1.68231,1.81365 3.01877,2.8579 4.03342,3.15154 1.66339,0.4814 4.74607,1.95412 5.53338,2.64352 2.15159,1.88404 3.54354,4.92695 3.97412,8.68779 0.11397,0.99541 0.41949,3.11455 0.67893,4.70919 0.25945,1.59464 0.61873,3.81264 0.79841,4.92889 0.17968,1.11625 0.81674,4.46499 1.41568,7.44165 1.37779,6.84737 1.51514,9.14696 0.71351,11.94478 -1.49686,5.22423 -5.34262,8.49617 -12.04537,10.24808 -1.87201,0.48931 -8.45965,1.79562 -11.26957,2.23476 -4.45367,0.696 -6.60968,1.01411 -9.90946,1.46209 -4.53109,0.61516 -6.96426,1.10011 -10.49236,2.09128 -1.49614,0.42031 -3.15743,0.87587 -3.69176,1.01236 -0.53433,0.13649 -3.28858,0.95009 -6.12055,1.80801 -6.70841,2.03225 -6.68572,2.02524 -10.88097,3.35587 -5.27255,1.67231 -7.13219,2.08592 -9.32654,2.07436 -1.4225,-0.008 -2.10421,-0.10821 -2.97214,-0.43915 z m 6.38539,-0.98898 c 1.07579,-0.25928 3.43657,-0.94598 5.24618,-1.52601 3.18314,-1.02028 7.4948,-2.34429 9.89651,-3.03899 0.6412,-0.18547 2.60852,-0.77173 4.37182,-1.30282 7.55904,-2.27668 11.95648,-3.37019 14.86418,-3.69624 8.29559,-0.93023 21.76746,-3.36858 25.93946,-4.69493 2.93629,-0.9335 6.23707,-3.21484 7.17568,-4.95949 0.15888,-0.29533 -0.0957,-0.19196 -1.00406,0.40771 -2.92279,1.9295 -3.39115,2.22104 -4.03429,2.51117 -1.0628,0.47946 -4.96789,1.65571 -6.89776,2.07767 -2.92665,0.63992 -11.28207,2.26016 -14.47558,2.80704 -5.5802,0.9556 -8.04217,1.46327 -13.2126,2.72452 -9.77055,2.38337 -22.20957,5.73624 -23.67799,6.38225 -0.59335,0.26104 -1.94303,0.69663 -2.99929,0.96797 -4.6015,1.18209 -7.34531,0.32068 -8.22337,-2.58168 -0.31001,-1.0247 -0.34507,-3.27807 -0.0685,-4.40094 0.40103,-1.62804 0.98398,-9.10717 1.2806,-16.42962 0.0689,-1.70095 0.17934,-3.6541 0.24542,-4.34034 l 0.12015,-1.24769 3.49745,-0.42679 c 3.59458,-0.43865 5.11586,-0.57197 14.25122,-1.24895 6.62372,-0.49086 10.97113,-1.11251 14.60278,-2.08808 3.01999,-0.81127 7.63264,-1.89319 9.24694,-2.16892 0.54398,-0.0929 2.42386,-0.47825 4.17751,-0.85631 1.75366,-0.37806 3.93167,-0.81135 4.84004,-0.96286 3.5234,-0.58773 10.18909,-2.62903 17.2561,-5.28452 2.3222,-0.87257 2.36851,-0.90538 2.36851,-1.67776 0,-0.78415 -0.12698,-0.81265 -1.11133,-0.24943 -2.82436,1.61604 -6.37988,2.9234 -11.42122,4.19956 -0.85493,0.21641 -3.08456,0.79506 -4.95473,1.28588 -1.87016,0.4908 -3.8812,1.00353 -4.46897,1.13938 -0.58776,0.13585 -3.03598,0.73109 -5.44048,1.32276 -5.63648,1.38696 -10.37739,2.21988 -18.45879,3.24299 -1.7633,0.22324 -4.12408,0.57043 -5.24618,0.77153 -3.21525,0.57625 -14.71591,1.52839 -18.52255,1.53348 l -0.74381,9.7e-4 0.0673,-4.68728 c 0.0648,-4.51342 0.0865,-4.74019 0.58745,-6.11392 0.28611,-0.78464 0.8461,-1.91539 1.24442,-2.51276 2.6745,-4.01101 8.61949,-7.1309 16.29856,-8.55335 1.17553,-0.21776 2.33406,-0.43321 2.57451,-0.47879 0.27821,-0.0527 0.43719,-0.22211 0.43719,-0.46577 0,-0.45854 0.0872,-0.45433 -1.84588,-0.0893 -4.83722,0.91329 -7.29853,1.59938 -10.67584,2.97584 -2.87717,1.17263 -4.81453,2.40272 -6.7234,4.26891 -2.44792,2.39318 -2.8027,3.23277 -3.20102,7.57525 -0.16878,1.84012 -0.38727,6.69439 -0.48553,10.7873 -0.0983,4.09291 -0.26629,8.26796 -0.37341,9.27791 -0.10712,1.00993 -0.4165,4.09773 -0.68751,6.86177 -0.27101,2.76405 -0.57709,5.70024 -0.68019,6.52487 -0.43717,3.49676 0.86394,5.87035 3.68805,6.72802 1.02223,0.31044 3.39532,0.18145 5.35628,-0.29116 z m 1.17635,-2.40394 c 1.05575,-0.306 2.37671,-0.73889 2.93545,-0.96198 0.94536,-0.37746 3.38079,-1.08175 6.84819,-1.98043 0.79865,-0.207 2.02276,-0.54521 2.72024,-0.7516 1.69347,-0.5011 6.86766,-1.82885 13.51354,-3.46771 4.79296,-1.18193 12.71271,-2.78462 16.41297,-3.32142 4.68962,-0.68032 14.70305,-2.94985 17.29263,-3.91934 1.45921,-0.54631 4.33276,-2.20876 5.86236,-3.39159 1.80776,-1.39794 1.88831,-4.3212 0.33319,-12.09268 -0.10636,-0.53154 -0.40863,-1.96672 -0.67171,-3.18928 -0.26308,-1.22256 -0.70563,-3.35358 -0.98345,-4.7356 -0.27782,-1.38202 -0.56017,-2.61437 -0.62746,-2.73855 -0.0857,-0.15821 -0.79102,0.0306 -2.35682,0.63124 -2.84943,1.09287 -9.67506,3.38608 -11.94964,4.01474 -1.92316,0.53153 -3.31584,0.837 -9.8123,2.15228 -6.75164,1.36695 -10.5948,2.21805 -12.824,2.84004 -3.99484,1.11462 -8.96466,1.88649 -14.66988,2.27841 -1.603,0.11012 -3.35173,0.24432 -3.88606,0.29823 -0.53434,0.0539 -2.28306,0.18346 -3.88606,0.28792 -1.603,0.10446 -4.50347,0.37645 -6.44547,0.60445 l -3.53092,0.41453 -0.11427,1.56679 c -0.0628,0.86173 -0.207,3.64444 -0.32035,6.18381 -0.24079,5.39442 -0.8402,12.48621 -1.13718,13.45428 -0.33755,1.10031 -0.25052,3.46526 0.16009,4.3503 0.43,0.92682 1.12822,1.60256 1.89043,1.82959 1.20032,0.35752 3.26792,0.21706 5.24648,-0.35643 z m -11.28764,-2.33425 c -0.0631,-0.10152 0.0187,-1.2975 0.18162,-2.65774 0.28609,-2.38804 0.8966,-8.51685 1.28608,-12.9108 0.10366,-1.16941 0.26882,-5.25749 0.36702,-9.08462 0.19435,-7.57366 0.60671,-13.27469 1.05072,-14.52658 2.03619,-5.74107 9.57716,-9.94409 21.27848,-11.85973 l 1.43588,-0.23507 -0.13313,-2.04848 c -0.0732,-1.12667 -0.1701,-2.08526 -0.21529,-2.13022 -0.0452,-0.045 -1.7681,0.19846 -3.82869,0.54092 -3.91992,0.65145 -7.69232,1.71391 -12.87877,3.62717 l -2.52594,0.93181 -0.0561,1.68761 -0.0562,1.68761 -1.82406,0 c -1.58002,0 -1.83378,-0.0453 -1.89667,-0.33825 -0.0572,-0.26646 -0.14,-0.21518 -0.39013,0.24161 -0.17465,0.31893 -0.54951,0.82348 -0.83302,1.12122 -0.28351,0.29775 -0.46722,0.66647 -0.40823,0.81938 0.059,0.15292 -0.31748,1.21448 -0.83659,2.35902 -1.05338,2.3225 -1.735,4.24262 -2.33258,6.57092 -0.50644,1.97318 -0.50992,1.92883 0.16283,2.07581 0.34916,0.0763 0.7565,0.39912 1.06823,0.84661 l 0.50387,0.72329 -0.28119,3.46945 c -0.15466,1.9082 -0.33635,4.6002 -0.40376,5.98222 -0.0674,1.38203 -0.15311,2.61267 -0.19046,2.73477 -0.0476,0.15552 -0.54126,0.0891 -1.64828,-0.22161 -0.8692102,-0.244 -1.6404202,-0.50345 -1.7138102,-0.57656 -0.0734,-0.0731 -0.10238,-1.16935 -0.0644,-2.43611 0.0428,-1.42684 -0.004,-2.30319 -0.122,-2.30319 -0.10506,0 -0.51415,0.1343 -0.90908,0.29846 -0.87138,0.36218 -1.37607,0.23057 -1.7512,-0.4567 -0.15703,-0.2877 -0.28646,-0.38928 -0.29091,-0.22834 -0.004,0.15947 -0.26708,2.92765 -0.58371,6.15153 l -0.57569,5.86159 0.96453,1.54705 c 0.5305,0.85088 0.96454,1.58717 0.96454,1.63621 0,0.0491 0.16485,0.32483 0.36632,0.61288 0.20147,0.28805 1.0676,1.66438 1.92473,3.05853 2.2379102,3.64005 4.9133502,7.6129 5.1267602,7.6129 0.10062,0 0.13135,-0.0831 0.0683,-0.18457 z m 79.89484,-20.94884 c 0.11442,-2.00739 0.0814,-2.24403 -1.3677,-9.79294 -0.5816,-3.02982 -1.20379,-6.42205 -1.38264,-7.5383 -0.94674,-5.90864 -1.25623,-7.93614 -1.372,-8.98797 -0.52607,-4.7796 -2.86205,-8.24276 -6.2119,-9.20931 -0.6935,-0.20009 -8.74327,-0.20266 -10.01213,-0.003 -0.77807,0.12231 -0.86856,0.18883 -0.8216,0.60395 0.029,0.25658 0.0817,0.49534 0.11717,0.53057 0.0354,0.0352 0.66745,-0.0863 1.40451,-0.26989 1.03942,-0.25905 2.21202,-0.33579 5.22616,-0.34207 3.61032,-0.008 3.95216,0.0223 4.81755,0.4197 1.93341,0.88794 2.51481,1.53952 3.4989,3.92122 1.10137,2.66558 1.82902,6.30364 1.98669,9.93294 0.12696,2.92265 0.23828,3.96698 0.57918,5.43359 1.5379,6.61629 2.74644,13.13955 2.93888,15.86285 0.16216,2.29496 0.45159,2.02379 0.59893,-0.56115 z m -89.6409802,0.0165 c 0.0632,-0.3455 0.20823,-2.06336 0.32239,-3.81746 0.11416,-1.75411 0.24434,-3.29801 0.2893,-3.4309 0.20079,-0.59348 -0.3255,-0.14668 -1.02456,0.8698 -0.62896,0.91457 -0.86432,1.11314 -1.32877,1.12109 l -0.56443,0.01 0.0136,1.2596 c 0.0106,0.98788 0.14212,1.52784 0.60939,2.5031 0.57967,1.20984 1.19251,2.10556 1.44416,2.11074 0.0683,9.9e-4 0.17578,-0.28012 0.23893,-0.62563 z m 7.0156602,-0.77315 c 0.0441,-0.13289 0.21706,-2.19868 0.38442,-4.59064 0.16735,-2.39196 0.34186,-4.71364 0.38778,-5.15928 0.0627,-0.60826 -0.014,-0.93353 -0.30747,-1.3047 -0.4206,-0.53192 -0.7502,-0.64255 -0.75326,-0.25283 -9.8e-4,0.13289 -0.22097,0.70976 -0.48872,1.28194 -0.45982,0.98261 -0.49359,1.28407 -0.6088002,5.4351 l -0.12198,4.3948 0.5621202,0.20334 c 0.75756,0.27406 0.85271,0.27328 0.94591,-0.008 z m -9.3013702,-5.55708 c 0.53959,0 0.73476,-0.13551 1.23328,-0.85631 0.32573,-0.47097 0.59224,-0.96171 0.59224,-1.09052 0,-0.12883 0.35735,-0.7971 0.7941,-1.48504 0.43675,-0.68794 0.72092,-1.31662 0.63149,-1.39706 -0.0894,-0.0805 -0.50676,-0.19823 -0.92738,-0.26175 -0.70181,-0.106 -0.82403,-0.0535 -1.48467,0.63733 -1.05179,1.09989 -1.75273,2.65304 -1.85221,4.10417 -0.0698,1.01853 -0.0461,1.14746 0.14428,0.78408 0.16624,-0.31733 0.40114,-0.4349 0.86887,-0.4349 z m 5.99419,0.44849 c 0.95949,-0.45517 1.08451,-1.23272 0.42768,-2.65995 -0.27197,-0.59096 -0.61524,-1.07446 -0.76282,-1.07446 -0.14758,0 -0.47128,0.2149 -0.71933,0.47755 -0.37643,0.3986 -0.40978,0.52696 -0.20172,0.77635 0.1371,0.16433 0.46601,0.27562 0.73091,0.24728 0.54736,-0.0586 0.95036,0.40932 0.76545,0.88867 -0.1563,0.40519 -1.10569,0.42775 -1.10569,0.0263 0,-0.15946 -0.14233,-0.28994 -0.31628,-0.28994 -0.26215,0 -0.2942,0.13748 -0.18721,0.80305 0.20542,1.27793 0.28,1.32179 1.36901,0.80518 z m 23.8429702,-2.07605 c 5.11226,-0.52508 7.93443,-1.00928 7.93443,-1.36131 0,-0.12646 -0.0952,-1.18006 -0.21155,-2.34135 -0.17032,-1.69999 -0.29908,-2.22644 -0.66081,-2.70163 -1.0866,-1.42743 -1.05591,-3.27094 0.0784,-4.71217 0.54115,-0.68754 0.54314,-0.7011 0.66237,-4.50709 l 0.11959,-3.81746 -0.6255,0.003 c -0.34404,0.002 -1.45616,0.17569 -2.47139,0.38673 -8.18786,1.70201 -13.86392,4.97208 -16.00843,9.2227 -0.87174,1.72786 -1.08422,3.09428 -1.08737,6.99262 l -0.003,3.55803 3.83749,-0.12492 c 2.11062,-0.0687 5.90664,-0.33743 8.4356,-0.59718 z m 11.43188,-1.52553 1.45727,-0.22948 -0.049,-1.54632 c -0.0546,-1.72218 -0.20972,-3.58978 -0.36524,-4.39734 l -0.10237,-0.53155 -1.90681,0 c -1.51738,0 -1.92969,0.0594 -2.01886,0.29052 -0.0616,0.15978 0.0162,1.6167 0.17294,3.2376 0.15675,1.6209 0.28526,3.05581 0.28558,3.1887 7.7e-4,0.2941 0.60008,0.29123 2.52651,-0.0121 z m -33.23539,-3.47814 c 0.005,-0.51104 0.10523,-1.33735 0.22214,-1.83625 0.30074,-1.28327 1.72223,-5.63751 2.04406,-6.26126 0.45447,-0.88079 0.28768,-0.87067 -0.50792,0.0308 -0.41836,0.47405 -0.79266,0.82197 -0.83177,0.77315 -0.71223,-0.88905 -1.8884602,-2.50409 -1.8884602,-2.59297 0,-0.0646 1.2332402,-1.37031 2.7405402,-2.90157 2.49679,-2.53649 2.78193,-2.76846 3.206,-2.60807 0.38398,0.14523 0.46546,0.11529 0.46546,-0.17106 0,-0.19542 0.55702,-0.79114 1.27456,-1.36315 l 1.27456,-1.01605 0.91135,0.22495 c 0.86721,0.21405 1.0337,0.18128 3.43729,-0.67652 6.28813,-2.24411 9.42917,-3.12871 13.01831,-3.66626 4.02982,-0.60355 3.7015,-0.47558 3.62653,-1.41363 -0.0359,-0.44888 -0.12974,-1.05559 -0.20858,-1.34826 l -0.14335,-0.53211 -4.45469,0.0648 c -4.8077,0.0699 -5.57161,0.17248 -9.69882,1.30223 -3.74854,1.0261 -7.01774,2.14971 -8.5514,2.93907 -2.87258,1.47849 -5.92477,5.41263 -7.1563402,9.2242 -0.40668,1.25862 -1.17619,4.87804 -1.58214,7.44165 -0.38857,2.45386 -0.84239,6.93094 -0.71536,7.0573 0.0504,0.05 0.18702,0.0174 0.30372,-0.0726 0.5202,-0.40133 1.11144,-0.37282 1.62879,0.0785 l 0.52642,0.45927 0.52477,-1.1035 c 0.3343,-0.70299 0.5282402,-1.44075 0.5343302,-2.03268 z m 39.25879,2.65551 c 5.94552,-0.90077 8.38959,-1.40552 15.64139,-3.23021 1.49613,-0.37646 2.96643,-0.73881 3.26733,-0.80522 l 0.54708,-0.12075 -0.12775,-1.58777 c -0.0703,-0.87328 -0.33822,-2.45758 -0.59546,-3.52068 -0.61196,-2.5291 -0.60805,-3.51005 0.0177,-4.42726 0.60195,-0.88241 0.63097,-1.97754 0.15285,-5.76876 -0.24211,-1.9198 -0.40714,-2.65774 -0.59435,-2.65774 -0.14254,0 -3.38038,0.60938 -7.1952,1.35417 -3.81482,0.7448 -8.68476,1.68185 -10.82209,2.08233 l -3.88606,0.72815 -0.0974,4.24791 c -0.0727,3.16865 -0.0357,4.38053 0.14572,4.76987 0.31858,0.68382 0.29609,2.37535 -0.0442,3.32534 -0.26024,0.72647 -0.25052,3.74581 0.0177,5.49397 0.0951,0.62 0.12457,0.6393 0.81568,0.53448 0.39435,-0.0598 1.63508,-0.24783 2.75718,-0.41783 z m -9.79397,-5.30218 -0.12888,-0.96645 1.70685,-0.01 c 0.93876,-0.005 2.05876,-0.0547 2.48887,-0.10964 0.75294,-0.0961 0.7914,-0.074 1.03376,0.5927 0.13845,0.38088 0.31808,0.65172 0.39916,0.60187 0.31311,-0.19251 0.65441,-2.17643 0.4694,-2.72855 -0.23579,-0.70367 -0.64417,-0.84776 -0.64417,-0.22728 0,0.44565 -0.0771,0.47745 -1.43361,0.59152 -0.78849,0.0662 -1.92516,0.17802 -2.52594,0.24827 l -1.09232,0.12771 -0.006,-0.75145 -0.006,-0.75145 -0.57721,0.63124 c -0.72459,0.79241 -0.79618,2.06332 -0.17276,3.06677 0.22245,0.35805 0.4523,0.651 0.51079,0.651 0.0585,0 0.0483,-0.4349 -0.0225,-0.96644 z m 32.22274,0.36093 c 0.86221,-0.22671 1.6495,-0.48645 1.74954,-0.57719 0.11209,-0.10165 0.0609,-0.70378 -0.13334,-1.56899 -0.17337,-0.77222 -0.37155,-1.8283 -0.4404,-2.34687 -0.19624,-1.47816 -0.19103,-1.47328 -1.57197,-1.47328 -1.55556,0 -2.01936,0.36623 -2.01945,1.59464 -1.1e-4,1.41952 0.46436,4.78392 0.66043,4.78392 0.10314,0 0.89297,-0.1855 1.75519,-0.41223 z m 5.03273,-1.34118 c 4.77002,-1.20355 7.51133,-2.23157 10.89027,-4.08396 l 1.14273,-0.62646 -0.11393,-1.45536 c -0.23286,-2.97436 -1.42701,-7.3049 -2.50406,-9.08088 -1.14764,-1.89239 -3.03615,-2.45234 -7.58599,-2.24928 -2.20628,0.0985 -5.28474,0.52315 -5.52506,0.76221 -0.0322,0.032 0.0747,1.0952 0.2375,2.36258 0.16283,1.26739 0.38271,3.02874 0.48861,3.91413 0.11003,0.91987 0.37063,1.95537 0.60806,2.41613 0.26463,0.51354 0.44839,1.30733 0.50609,2.18612 0.0782,1.19086 0.0215,1.52992 -0.41392,2.47608 l -0.50452,1.09628 0.32362,1.34139 c 0.20795,0.86194 0.42016,1.3414 0.59371,1.3414 0.14855,0 0.98415,-0.18017 1.85689,-0.40038 z m -32.61413,-1.94774 c 0.48798,-0.48543 0.61053,-6.09803 0.29689,-13.59828 -0.24931,-5.96202 -0.75048,-8.6497 -2.7427,-14.70841 -1.42528,-4.3345797 -1.49856,-5.5512297 -0.40386,-6.7055097 0.99491,-1.04905 2.03378,-1.18186 7.80799,-0.99817 6.37363,0.20277 7.15036,0.18289 8.52098,-0.21801 0.60336,-0.1765 1.69824,-0.33225 2.43306,-0.34614 l 1.33604,-0.0253 0.90331,1.00304 c 1.58218,1.75684 2.95772,4.76089 4.21192,9.1984197 1.30693,4.62406 2.64531,13.06294 2.97108,18.73351 0.17097,2.9761 0.32702,3.24937 1.85285,3.24481 1.28445,-0.004 1.49923,-0.16149 1.60931,-1.18119 0.1246,-1.15418 -0.78198,-8.59564 -1.48056,-12.15284 -0.99903,-5.0871 -1.66432,-7.57572 -2.73869,-10.24435 -0.40659,-1.00994 -0.79927,-2.1279997 -0.87262,-2.4846097 -0.36137,-1.75679 -2.05256,-4.41203 -3.52014,-5.52678 -0.48696,-0.36988 -1.46719,-0.95552 -2.17829,-1.30143 -1.21695,-0.59196 -1.46416,-0.63769 -4.20746,-0.77828 -4.53557,-0.23244 -15.10723,-0.22728 -17.58443,0.009 -2.10505,0.20043 -2.26452,0.24584 -2.75301,0.78407 -0.95825,1.05581 -0.98111,3.76058 -0.0648,7.66421 0.27338,1.1646097 0.75774,3.2047097 1.07636,4.5335897 1.68574,7.0308 2.03312,10.23718 1.98873,18.3562 -0.0275,5.02196 0.0213,6.7013 0.19816,6.82109 0.26536,0.17975 3.14839,0.11218 3.33985,-0.0783 z m 30.21844,-2.47519 c 0.26086,-0.93414 0.23767,-2.13463 -0.0522,-2.69973 -0.37578,-0.73266 -0.68853,-0.69925 -0.83726,0.0894 -0.15908,0.84354 -0.73172,1.1491 -2.53352,1.35189 -1.32704,0.14935 -1.75334,-0.0905 -1.95646,-1.10085 -0.13031,-0.64814 -0.44083,-0.62996 -0.78758,0.0462 -0.33131,0.64597 -0.30468,1.48461 0.0828,2.60804 l 0.32856,0.95256 0.20577,-0.77356 c 0.32473,-1.22075 0.38231,-1.25788 1.91739,-1.23671 2.09141,0.0289 2.28387,0.12001 2.6113,1.23707 0.26195,0.89368 0.29922,0.93291 0.55526,0.58458 0.15095,-0.20537 0.3606,-0.68184 0.46588,-1.05883 z m -61.02741,-2.91659 c 1.84551,-2.37206 2.22225,-3.09268 1.7641,-3.37436 -0.10696,-0.0658 -0.87203,0.52063 -1.70015,1.30308 -0.82813,0.78246 -1.97296,1.85725 -2.54407,2.38845 l -1.0383802,0.96581 0.6308702,0.70886 c 0.34697,0.38987 0.69796,0.66761 0.77997,0.61719 0.082,-0.0504 1.03045,-1.22448 2.10766,-2.60903 z m -2.57449,1.59098 c -0.29915,-0.32883 -0.27083,-0.39663 0.46359,-1.11003 0.64552,-0.62705 0.81424,-0.70939 0.96558,-0.47126 0.26912,0.42346 0.24031,0.5378 -0.31948,1.2679 -0.58591,0.76415 -0.67637,0.7897 -1.10969,0.31339 z m 8.22481,-6.02833 c 0,-1.27513 -0.0252,-1.35286 -0.43718,-1.35015 -0.24045,0.002 -0.77742,0.28923 -1.19326,0.63923 -0.74328,0.62559 -0.75207,0.64843 -0.51926,1.35015 0.23034,0.69429 0.26294,0.7138 1.19325,0.7138 l 0.95645,0 0,-1.35303 z m 31.18564,-1.76169 c 2.35107,-0.44433 7.2475,-1.38674 10.88097,-2.09425 6.18941,-1.20521 6.61022,-1.3132 6.66839,-1.71122 0.042,-0.28761 -0.0392,-0.42482 -0.25153,-0.42482 -0.25997,0 -6.23419,1.14055 -12.73171,2.43063 -0.8015,0.15914 -3.16228,0.61675 -5.24618,1.01692 -3.48982,0.67015 -3.79381,0.76114 -3.851,1.15278 -0.0342,0.23386 0.01,0.42803 0.0971,0.43151 0.0876,0.004 2.08284,-0.35723 4.43391,-0.80155 z m 1.30691,-2.20034 c 16.31051,-3.15502 15.88787,-3.06247 15.88882,-3.47962 9.7e-4,-0.42404 -0.59654,-3.82513 -0.69088,-3.93261 -0.0323,-0.0367 -1.57313,0.28196 -3.42417,0.70823 -3.42009,0.7876 -9.245,2.0308 -14.78083,3.15463 l -3.06028,0.62128 0,1.99538 c 0,1.6305 0.0525,1.99539 0.28682,1.99539 0.15776,0 2.75899,-0.4782 5.78052,-1.06268 z m -3.20984,-4.54104 c 7.0668,-1.42147 17.9219,-3.79207 18.07881,-3.94816 0.0506,-0.0503 0.0124,-0.42246 -0.085,-0.82691 -0.17175,-0.71353 -0.19979,-0.73352 -0.94475,-0.6732 -0.42226,0.0342 -2.60391,0.36499 -4.84811,0.73512 -2.2442,0.37014 -4.95473,0.79766 -6.02339,0.95005 -1.82691,0.26052 -6.96449,1.05208 -8.79222,1.35465 -0.45418,0.0752 -0.82579,0.22719 -0.82579,0.33778 0,0.37065 0.42765,2.64886 0.49723,2.64886 0.0378,0 1.36223,-0.26018 2.94318,-0.57819 z m 29.48121,0.0196 2.51319,-0.11794 -1.17323,-0.71923 c -0.64527,-0.39558 -1.58624,-1.20015 -2.09103,-1.78793 l -0.9178,-1.0687 -1.68513,0.0193 c -0.92682,0.0105 -1.90372,0.0821 -2.17089,0.15886 -0.55558,0.15966 -0.55923,0.28664 -0.0718,2.49689 l 0.31285,1.41863 1.38532,-0.14095 c 0.76193,-0.0775 2.51627,-0.19403 3.89852,-0.2589 z m -31.73971,-3.50196 c 1.23786,-0.22764 5.53094,-0.89484 8.06999,-1.25419 0.97417,-0.13787 4.01635,-0.62204 6.76038,-1.07594 l 4.98916,-0.82525 -0.13129,-0.59463 c -0.70248,-3.1817 -2.82084,-7.9597097 -4.22838,-9.5372097 -0.51001,-0.57159 -1.90898,-0.58251 -4.07685,-0.0318 -1.4424,0.36641 -1.86084,0.38839 -4.59849,0.24161 -1.65643,-0.0888 -4.49812,-0.16129 -6.31485,-0.16107 -2.78437,3.5e-4 -3.40143,0.0538 -3.92888,0.34026 -1.40157,0.76121 -1.38318,1.42498 0.17527,6.3278197 0.99311,3.12431 1.71097,5.68372 1.71222,6.10473 0.002,0.71693 0.08,0.73999 1.57172,0.46567 z m 28.83792,-1.23894 c 0.10686,-0.0284 -0.17382,-0.2393 -0.62375,-0.46871 -0.98186,-0.5006 -2.97086,-0.59632 -2.97086,-0.14296 0,0.75333 0.16903,0.82279 1.80558,0.742 0.8771,-0.0433 1.68216,-0.10194 1.78903,-0.13033 z"
     id="path2987"
     inkscape:connector-curvature="0" />
  <path
     style="color:#000000;fill:#00d455;fill-opacity:1;fill-rule:nonzero;stroke:#00d455;stroke-width:0.06263242;stroke-linecap:round;stroke-linejoin:round;stroke-miterlimit:4;stroke-opacity:1;stroke-dasharray:none;stroke-dashoffset:0;marker:none;visibility:visible;display:inline;overflow:visible;enable-background:accumulate"
     d="M 67.6875 25.65625 C 67.629426 25.598176 64.782785 26.068598 61.375 26.71875 C 57.967216 27.368901 53.106012 28.326654 50.5625 28.8125 C 48.018989 29.298346 45.88383 29.70997 45.84375 29.75 C 45.803672 29.790027 45.77478 31.599506 45.75 33.78125 C 45.710931 37.221229 45.709778 37.900302 45.90625 38.90625 C 46.130529 40.054577 46.150983 40.108749 45.875 41.8125 C 45.721666 42.759096 45.59185 43.839824 45.59375 44.21875 C 45.597659 45.002574 45.82098 47.575844 45.90625 47.8125 C 45.984719 48.030272 46.139466 48.027443 48.9375 47.59375 C 54.915382 46.667179 57.341832 46.164574 64.25 44.46875 L 68.6875 43.375 L 68.65625 42.6875 C 68.608319 41.697921 68.30432 39.769474 67.9375 38.09375 C 67.761359 37.289091 67.60235 36.176166 67.59375 35.625 C 67.579501 34.716438 67.627898 34.569632 68 33.875 C 68.279539 33.35316 68.42498 32.876991 68.46875 32.375 C 68.573357 31.175408 67.96957 25.93832 67.6875 25.65625 z M 39.375 30.5625 C 38.404403 30.565053 34.997674 31.317189 32.6875 32.03125 C 26.332721 33.995474 22.064159 37.061366 20.5 40.78125 C 19.885673 42.242244 19.76121 43.115301 19.6875 47 L 19.625 50.625 L 21.5625 50.5625 C 29.495883 50.220847 37.312984 49.446006 39.21875 48.8125 L 39.65625 48.65625 L 39.59375 47.53125 C 39.53637 45.590342 39.291853 44.356722 38.71875 43.3125 C 37.845509 41.721408 37.874957 40.436412 38.84375 38.9375 C 39.461191 37.982198 39.53367 37.620744 39.65625 33.53125 L 39.75 30.5625 L 39.375 30.5625 z "
     id="path3028" />
  <path
     style="color:#000000;fill:#00d455;fill-opacity:1;fill-rule:nonzero;stroke:#00d455;stroke-width:0.06263242;stroke-linecap:round;stroke-linejoin:round;stroke-miterlimit:4;stroke-opacity:1;stroke-dasharray:none;stroke-dashoffset:0;marker:none;visibility:visible;display:inline;overflow:visible;enable-background:accumulate"
     d="m 74.541534,40.781308 c -0.462369,-1.496978 -0.460672,-1.588418 0.05304,-2.857244 0.456164,-1.126692 0.466869,-1.189392 0.393574,-2.305201 -0.05354,-0.815127 -0.199885,-1.5228 -0.505768,-2.445782 -0.236734,-0.714327 -0.521551,-1.947021 -0.632927,-2.739321 -0.316581,-2.252062 -0.688416,-5.677989 -0.627043,-5.777293 0.198395,-0.321009 4.055693,-0.756515 6.754962,-0.762665 3.090402,-0.007 4.26398,0.285757 5.453787,1.360675 0.918273,0.829606 1.916887,3.300649 2.675247,6.619829 0.273821,1.198456 0.380989,1.919903 0.627774,4.226105 l 0.0501,0.46816 -1.960789,0.989631 c -2.454457,1.238789 -3.903233,1.850723 -5.946216,2.511565 -1.799367,0.582039 -5.370495,1.512563 -5.804854,1.512563 -0.239106,0 -0.322194,-0.125368 -0.530883,-0.801022 l 0,0 z"
     id="path3033"
     inkscape:connector-curvature="0" />
  <path
     style="color:#000000;fill:#00d455;fill-opacity:1;fill-rule:nonzero;stroke:#00d455;stroke-width:0.06263242;stroke-linecap:round;stroke-linejoin:round;stroke-miterlimit:4;stroke-opacity:1;stroke-dasharray:none;stroke-dashoffset:0;marker:none;visibility:visible;display:inline;overflow:visible;enable-background:accumulate"
     d="m 20.580093,81.544714 c -1.523495,-0.325898 -2.325842,-1.373293 -2.577145,-3.364239 -0.125425,-0.99367 -0.109909,-1.343421 0.12969,-2.923474 0.49584,-3.269844 0.76536,-6.59144 1.217395,-15.003299 0.175655,-3.268742 0.346746,-5.97054 0.380201,-6.003996 0.159742,-0.159742 6.827127,-0.829536 12.583867,-1.264155 11.532122,-0.870644 13.455909,-1.13731 20.4808,-2.838946 2.135765,-0.517346 7.359068,-1.667254 11.607338,-2.555351 4.248272,-0.888098 8.306852,-1.761482 9.019068,-1.940854 2.66764,-0.671847 5.944686,-1.738398 13.045479,-4.245797 1.088936,-0.38452 2.085691,-0.699127 2.215009,-0.699127 0.12932,0 0.264642,0.09865 0.300717,0.219214 0.207241,0.692631 1.873342,8.548136 2.450886,11.55568 0.802029,4.17656 1.0367,6.979753 0.711614,8.50037 -0.35,1.637158 -0.829901,2.180081 -3.261106,3.689371 -1.561578,0.969429 -3.5097,1.931098 -4.632864,2.286966 -3.056611,0.968468 -10.27354,2.575702 -15.987285,3.560422 -4.402097,0.758668 -9.700327,1.790578 -13.259976,2.582579 -7.033924,1.565007 -22.103643,5.545877 -27.136582,7.168494 -1.515704,0.488663 -3.122226,0.974541 -3.570047,1.079731 -1.016192,0.238696 -3.023538,0.344765 -3.717059,0.196411 l 0,0 z"
     id="path3035"
     inkscape:connector-curvature="0" />
  <path
     style="color:#000000;fill:#00d455;fill-opacity:1;fill-rule:nonzero;stroke:#00d455;stroke-width:0.06263242;stroke-linecap:round;stroke-linejoin:round;stroke-miterlimit:4;stroke-opacity:1;stroke-dasharray:none;stroke-dashoffset:0;marker:none;visibility:visible;display:inline;overflow:visible;enable-background:accumulate"
     d="M 13.631232,78.440522 C 12.783905,77.431947 8.4392369,70.676278 5.7701499,66.217062 l -1.0376046,-1.733515 0.5156369,-5.40658 c 0.2836003,-2.97362 0.5482686,-5.622768 0.5881518,-5.886998 l 0.072515,-0.480417 0.3778442,0.386469 c 0.4464328,0.456622 0.7767464,0.484088 1.7587148,0.146241 l 0.6982295,-0.240225 0.086631,0.629883 c 0.047647,0.346436 0.04764,1.097961 -1.48e-5,1.670057 -0.047655,0.572094 -0.047771,1.351318 -2.631e-4,1.731607 0.081093,0.64905 0.1143616,0.702615 0.542728,0.87385 0.8195414,0.327604 2.7762574,0.75857 2.8956564,0.637767 0.06238,-0.06311 0.259539,-2.25678 0.438126,-4.874815 0.178586,-2.618035 0.37838,-5.343265 0.443987,-6.056068 0.08403,-0.912958 0.0787,-1.371836 -0.01802,-1.552569 -0.278758,-0.520864 -1.139237,-1.334035 -1.494125,-1.411983 -0.201222,-0.04419 -0.397636,-0.131773 -0.436476,-0.194617 -0.0961,-0.155499 0.453617,-2.395874 1.010715,-4.119152 0.251081,-0.776672 0.837653,-2.321852 1.303493,-3.433733 0.818674,-1.954037 1.035593,-2.543835 1.182476,-3.215124 0.03811,-0.174167 0.328579,-0.650581 0.645488,-1.058697 0.316909,-0.408116 0.627975,-0.829308 0.691258,-0.935981 0.099,-0.166878 0.131552,-0.168816 0.233206,-0.01389 0.09082,0.138415 0.540438,0.192768 1.943896,0.234991 l 1.825751,0.05493 0,-0.560225 c 0,-0.308124 0.03683,-1.079062 0.08184,-1.713197 0.09638,-1.357866 -0.363888,-1.042526 3.550839,-2.432739 5.540117,-1.967427 8.988222,-2.857562 13.896754,-3.587476 0.925889,-0.137683 1.693484,-0.237498 1.705768,-0.221813 0.03411,0.04355 0.306896,3.36607 0.306479,3.732828 -3.76e-4,0.318256 -0.02455,0.326289 -1.996701,0.663173 -2.522973,0.430975 -6.024282,1.29615 -8.123207,2.007249 -4.328036,1.466305 -7.345902,3.160603 -9.618718,5.400164 -1.567672,1.544735 -2.542332,3.040147 -2.983473,4.577516 -0.406239,1.41574 -0.732238,6.085397 -1.014047,14.525371 -0.270859,8.112002 -0.390175,9.795946 -1.322474,18.66446 -0.206415,1.963526 -0.416499,4.074348 -0.466853,4.690718 l -0.09155,1.12067 -0.331571,-0.394669 z"
     id="path3037"
     inkscape:connector-curvature="0" />
  <path
     style="color:#000000;fill:#00d455;fill-opacity:1;fill-rule:nonzero;stroke:#00d455;stroke-width:0.06263242;stroke-linecap:round;stroke-linejoin:round;stroke-miterlimit:4;stroke-opacity:1;stroke-dasharray:none;stroke-dashoffset:0;marker:none;visibility:visible;display:inline;overflow:visible;enable-background:accumulate"
     d="m 45.548858,25.517115 c -0.04425,-0.568389 -0.08079,-1.430938 -0.0812,-1.916775 l -7.51e-4,-0.883341 4.728747,-0.973525 c 2.600811,-0.535439 7.310085,-1.538164 10.465054,-2.228278 3.154968,-0.690115 5.807576,-1.227405 5.894684,-1.193978 0.159451,0.06119 0.347306,0.892552 0.63849,2.825664 l 0.157779,1.047471 -0.41114,0.171786 c -0.226127,0.09448 -1.641215,0.422298 -3.144641,0.72848 -4.921306,1.002254 -17.73851,3.455931 -18.052652,3.455931 -0.06266,0 -0.150125,-0.465046 -0.194371,-1.033435 z"
     id="path3039"
     inkscape:connector-curvature="0" />
  <path
     style="color:#000000;fill:#00d455;fill-opacity:1;fill-rule:nonzero;stroke:#00d455;stroke-width:0.06263242;stroke-linecap:round;stroke-linejoin:round;stroke-miterlimit:4;stroke-opacity:1;stroke-dasharray:none;stroke-dashoffset:0;marker:none;visibility:visible;display:inline;overflow:visible;enable-background:accumulate"
     d="m 72.285123,20.13308 c -0.442472,-2.074002 -0.458365,-2.304239 -0.169724,-2.458715 0.136516,-0.07306 1.067938,-0.171571 2.069826,-0.21891 l 1.821615,-0.08607 0.419454,0.48816 c 0.77546,0.90248 1.790902,1.807444 2.731054,2.433921 l 0.933687,0.622169 -0.683157,0.0011 c -0.843744,0.0013 -5.925214,0.345595 -6.458938,0.437572 l -0.389392,0.0671 -0.274425,-1.286316 z"
     id="path3041"
     inkscape:connector-curvature="0" />
  <path
     style="color:#000000;fill:#00d455;fill-opacity:1;fill-rule:nonzero;stroke:#00d455;stroke-width:0.06263242;stroke-linecap:round;stroke-linejoin:round;stroke-miterlimit:4;stroke-opacity:1;stroke-dasharray:none;stroke-dashoffset:0;marker:none;visibility:visible;display:inline;overflow:visible;enable-background:accumulate"
     d="m 45.248458,20.819684 c -0.262895,-1.321305 -0.312179,-1.877228 -0.173992,-1.962633 0.116234,-0.07184 4.687207,-0.800297 16.217662,-2.584555 1.779856,-0.275421 3.567983,-0.535453 3.973614,-0.57785 0.81179,-0.08485 0.847776,-0.05301 1.033039,0.913869 0.07408,0.386591 0.06476,0.3952 -0.639011,0.590277 -1.46531,0.406171 -19.822155,4.341165 -20.251641,4.341165 -0.009,0 -0.08085,-0.324123 -0.159671,-0.720273 z"
     id="path3043"
     inkscape:connector-curvature="0" />
  <path
     style="color:#000000;fill:#00d455;fill-opacity:1;fill-rule:nonzero;stroke:#00d455;stroke-width:0.03131621;stroke-linecap:round;stroke-linejoin:round;stroke-miterlimit:4;stroke-opacity:1;stroke-dasharray:none;stroke-dashoffset:0;marker:none;visibility:visible;display:inline;overflow:visible;enable-background:accumulate"
     d="m 71.713125,16.389587 c -0.218303,-0.0427 -0.35546,-0.24626 -0.361319,-0.536246 l -0.0054,-0.265117 0.344479,-0.08717 c 0.27669,-0.07001 0.467729,-0.07381 0.970802,-0.01927 0.772326,0.08372 1.319112,0.249569 1.839798,0.55804 l 0.399253,0.23653 -0.931628,0.07279 c -0.921847,0.07202 -1.996151,0.09128 -2.256027,0.04045 z"
     id="path3047"
     inkscape:connector-curvature="0" />
  <path
     style="color:#000000;fill:#00d455;fill-opacity:1;fill-rule:nonzero;stroke:#00d455;stroke-width:0.06263242;stroke-linecap:round;stroke-linejoin:round;stroke-miterlimit:4;stroke-opacity:1;stroke-dasharray:none;stroke-dashoffset:0;marker:none;visibility:visible;display:inline;overflow:visible;enable-background:accumulate"
     d="M 8.7509679,47.757065 C 8.5243592,47.484018 7.9471992,47.196323 7.6260332,47.196323 c -0.144634,0 -0.4380187,0.09052 -0.6519659,0.201157 l -0.388995,0.201158 0.08274,-1.171961 c 0.3224135,-4.566757 1.6760085,-11.928509 2.6095171,-14.19229 1.6937246,-4.107324 4.5424786,-7.316431 7.7317796,-8.709809 2.189238,-0.95646 7.911812,-2.693697 10.972459,-3.330977 1.326775,-0.276258 2.035851,-0.329883 6.042218,-0.456952 2.496472,-0.07918 4.571965,-0.111039 4.612205,-0.0708 0.04024,0.04024 0.158129,0.565516 0.261975,1.167278 0.157503,0.912694 0.161069,1.121855 0.02151,1.261419 -0.0943,0.0943 -1.467389,0.387072 -3.146697,0.670944 -4.28293,0.723991 -6.630131,1.360101 -12.2362,3.316105 -3.613609,1.260818 -3.63878,1.266412 -4.636707,1.030485 -0.94728,-0.223952 -0.838623,-0.270225 -2.292756,0.976389 -0.537611,0.460889 -1.031125,0.979091 -1.096698,1.15156 -0.09948,0.26166 -0.176576,0.300984 -0.46561,0.237502 -0.28942,-0.06357 -0.479877,0.03419 -1.158069,0.59438 -0.742242,0.613102 -4.5797869,4.543977 -4.7807687,4.897037 -0.097084,0.170545 1.7156587,2.707247 1.9346157,2.707247 0.07641,0 0.410406,-0.281659 0.742219,-0.625908 0.331813,-0.34425 0.603296,-0.599379 0.603296,-0.566953 0,0.03243 -0.168116,0.482164 -0.373591,0.999417 -0.346062,0.871161 -1.447509,4.363701 -1.739967,5.517199 -0.06987,0.275583 -0.185751,1.040856 -0.25751,1.700608 -0.088882,0.817177 -0.2526102,1.495736 -0.5136358,2.12873 -0.4530709,1.098707 -0.5298175,1.193592 -0.7504257,0.927776 z"
     id="path3049"
     inkscape:connector-curvature="0" />
  <path
     style="color:#000000;fill:#2ad4ff;fill-opacity:1;fill-rule:nonzero;stroke:#55ddff;stroke-width:0.06263242;stroke-linecap:round;stroke-linejoin:round;stroke-miterlimit:4;stroke-opacity:1;stroke-dasharray:none;stroke-dashoffset:0;marker:none;visibility:visible;display:inline;overflow:visible;enable-background:accumulate"
     d="m 18.685169,83.717191 c -1.735895,-0.542508 -3.054971,-2.056068 -3.423244,-3.927964 -0.202476,-1.029166 -0.151138,-1.780554 0.677781,-9.919969 0.706198,-6.934387 0.758159,-7.777363 1.084832,-17.599709 0.236451,-7.109557 0.576884,-11.124028 1.069562,-12.612522 0.48182,-1.455693 2.48913,-3.706363 4.745393,-5.320712 2.329389,-1.66667 6.398394,-3.368314 10.591095,-4.42916 1.152986,-0.29173 5.82769,-1.250027 6.097809,-1.250027 0.279399,0 0.186287,0.497848 -0.116413,0.62243 -0.155015,0.0638 -1.183752,0.290028 -2.286083,0.502729 -5.981436,1.15415 -10.302562,2.888872 -13.660417,5.483993 -1.781504,1.376837 -2.784062,2.570145 -3.687812,4.389462 -0.950296,1.913022 -1.015063,2.283135 -1.133208,6.47583 -0.05824,2.06687 -0.109156,4.20166 -0.113142,4.743976 l -0.0072,0.98603 2.22345,-0.085 c 6.28275,-0.240172 14.04651,-0.984612 20.324219,-1.948818 0.861196,-0.132272 2.862302,-0.414108 4.446902,-0.626301 5.277888,-0.706762 9.921797,-1.505439 13.465969,-2.31593 4.725959,-1.080747 14.449714,-3.519399 18.789725,-4.712337 3.948928,-1.085442 7.024035,-2.223662 9.494864,-3.514428 0.778405,-0.40664 1.468928,-0.706191 1.534494,-0.665669 0.134545,0.08315 0.159466,0.685091 0.04113,0.993469 -0.117425,0.306004 -0.706188,0.564936 -3.993025,1.756096 -5.17549,1.875612 -10.786111,3.62789 -13.779132,4.303421 -0.620061,0.139949 -3.015751,0.629644 -5.323755,1.088209 -5.89164,1.170581 -9.279491,1.912482 -13.403337,2.935178 -6.289308,1.559723 -8.664994,1.878797 -21.044492,2.826445 -3.748634,0.286957 -11.663797,1.086319 -12.353527,1.247597 -0.333662,0.07802 -0.357068,0.279432 -0.611743,5.264012 -0.449778,8.80322 -0.772535,13.085487 -1.208355,16.032162 -0.192436,1.301103 -0.246765,2.174754 -0.211113,3.394811 0.04683,1.602381 0.05957,1.666228 0.5174,2.59259 0.776811,1.57177 1.865689,2.203344 3.989169,2.313807 1.933365,0.100574 3.887308,-0.305571 7.372873,-1.532519 3.225899,-1.135543 19.934075,-5.543501 27.245101,-7.187815 1.240121,-0.278914 5.326886,-1.07488 9.0817,-1.768815 12.437904,-2.298672 16.340097,-3.147692 19.837352,-4.316115 1.879689,-0.627999 1.939976,-0.658829 4.498527,-2.300541 1.017962,-0.653183 1.884292,-1.154155 1.925176,-1.11327 0.10389,0.103889 -0.690198,1.007315 -1.482921,1.687106 -1.348397,1.156303 -3.531133,2.381753 -5.299879,2.9755 -3.125108,1.049065 -15.57108,3.406894 -23.110935,4.378256 -7.369536,0.949418 -9.855013,1.590664 -29.342566,7.570291 -6.460357,1.982317 -7.668919,2.323953 -9.132041,2.581442 -1.280802,0.225403 -3.612995,0.226898 -4.330135,0.0028 l 0,6e-6 z"
     id="path3051"
     inkscape:connector-curvature="0" />
  <path
     style="color:#000000;fill:#2ad4ff;fill-opacity:1;fill-rule:nonzero;stroke:#55ddff;stroke-width:0.0221439;stroke-linecap:round;stroke-linejoin:round;stroke-miterlimit:4;stroke-opacity:1;stroke-dasharray:none;stroke-dashoffset:0;marker:none;visibility:visible;display:inline;overflow:visible;enable-background:accumulate"
     d="m 45.726974,28.505955 c -0.01624,-0.01624 -0.02953,-0.118516 -0.02953,-0.227282 0,-0.167106 0.02309,-0.219529 0.148959,-0.338242 0.266109,-0.250973 0.577728,-0.32272 5.785607,-1.332076 1.960843,-0.380037 5.34886,-1.039469 7.528927,-1.465404 4.193886,-0.819389 6.799327,-1.315053 7.80985,-1.485761 l 0.613081,-0.103568 0.08445,0.104294 c 0.09484,0.117121 0.104883,0.212127 0.04037,0.381816 -0.09858,0.259275 -0.798502,0.45466 -3.742524,1.04473 -3.664698,0.734515 -14.957338,2.89962 -17.181824,3.294221 -0.930745,0.165105 -1.009998,0.174644 -1.05737,0.127272 z"
     id="path3055"
     inkscape:connector-curvature="0" />
  <path
     style="color:#000000;fill:#2ad4ff;fill-opacity:1;fill-rule:nonzero;stroke:#55ddff;stroke-width:0.0221439;stroke-linecap:round;stroke-linejoin:round;stroke-miterlimit:4;stroke-opacity:1;stroke-dasharray:none;stroke-dashoffset:0;marker:none;visibility:visible;display:inline;overflow:visible;enable-background:accumulate"
     d="M 93.599523,59.902962 C 93.524173,59.654589 93.474959,59.299473 93.373275,58.270373 93.051462,55.013462 92.156062,50.118479 90.70015,43.656892 90.328038,42.005398 90.230813,41.514554 90.143667,40.84749 90.069737,40.281599 89.959264,38.907605 89.91933,38.057358 89.90503,37.75288 89.87344,37.164959 89.84913,36.750868 89.608371,32.65006 88.741151,28.87609 87.416854,26.166083 c -0.696856,-1.426031 -1.240459,-1.983407 -2.606891,-2.672942 -1.228509,-0.619936 -1.099684,-0.604778 -5.12162,-0.602628 -3.710265,0.002 -4.070316,0.02457 -5.580263,0.350106 -1.301721,0.28064 -1.163809,0.271699 -1.212387,0.0786 -0.126771,-0.50393 -0.10631,-0.686813 0.08809,-0.78734 0.210036,-0.108614 0.928393,-0.194558 2.054342,-0.245779 1.308239,-0.05952 7.71766,-0.02557 8.233078,0.04361 0.452411,0.06072 0.818936,0.183232 1.42521,0.476387 2.259965,1.092774 3.95401,3.459577 4.734803,6.615144 0.196527,0.794261 0.26059,1.157332 0.421109,2.386604 0.167445,1.282312 0.236922,1.742656 0.846291,5.607345 0.651279,4.130484 0.851136,5.253005 2.255147,12.666313 0.5877,3.10311 0.841976,4.567274 0.953721,5.491688 0.120031,0.992954 0.03311,3.267755 -0.157795,4.129439 -0.05534,0.249776 -0.112161,0.32559 -0.150161,0.200337 l 0,0 z"
     id="path3057"
     inkscape:connector-curvature="0" />
  <path
     style="color:#000000;fill:#2ad4ff;fill-opacity:1;fill-rule:nonzero;stroke:#55ddff;stroke-width:0.06263242;stroke-linecap:round;stroke-linejoin:round;stroke-miterlimit:4;stroke-opacity:1;stroke-dasharray:none;stroke-dashoffset:0;marker:none;visibility:visible;display:inline;overflow:visible;enable-background:accumulate"
     d="m 40.927819,48.482889 c -0.08197,-0.132637 -0.379434,-3.125342 -0.512934,-5.160571 -0.08119,-1.237791 -0.07062,-1.337973 0.147959,-1.402371 0.12947,-0.03814 1.00261,-0.107814 1.940312,-0.154821 l 1.704914,-0.08547 0.149381,1.186782 c 0.233745,1.857027 0.380806,5.157982 0.233884,5.249798 -0.124212,0.07762 -2.9667,0.485886 -3.378589,0.485262 -0.116501,-1.75e-4 -0.244719,-0.05355 -0.284927,-0.118611 l 0,0 z"
     id="path3059"
     inkscape:connector-curvature="0" />
  <path
     style="color:#000000;fill:#2ad4ff;fill-opacity:1;fill-rule:nonzero;stroke:#55ddff;stroke-width:0.06263242;stroke-linecap:round;stroke-linejoin:round;stroke-miterlimit:4;stroke-opacity:1;stroke-dasharray:none;stroke-dashoffset:0;marker:none;visibility:visible;display:inline;overflow:visible;enable-background:accumulate"
     d="m 69.995678,42.856358 c -0.130943,-0.21187 -0.452586,-2.481738 -0.526091,-3.712674 -0.118668,-1.987269 0.141799,-2.324242 1.821411,-2.356401 0.776077,-0.01486 1.052833,0.0268 1.207846,0.181813 0.177315,0.177315 0.358934,1.014462 0.995727,4.589664 0.06684,0.375286 0.03672,0.426072 -0.348108,0.586863 -0.356775,0.14907 -2.827045,0.818639 -3.020241,0.818639 -0.03512,0 -0.09386,-0.04856 -0.130544,-0.107904 z"
     id="path3061"
     inkscape:connector-curvature="0" />
  <path
     style="color:#000000;fill:#2ad4ff;fill-opacity:1;fill-rule:nonzero;stroke:#55ddff;stroke-width:0.06263242;stroke-linecap:round;stroke-linejoin:round;stroke-miterlimit:4;stroke-opacity:1;stroke-dasharray:none;stroke-dashoffset:0;marker:none;visibility:visible;display:inline;overflow:visible;enable-background:accumulate"
     d="M 40.875802,39.175001 C 40.818526,39.019985 40.73596,35.961958 40.692322,32.379383 40.648683,28.796809 40.553845,25.189182 40.48157,24.362434 40.192655,21.05759 39.648371,18.156733 38.060728,11.460157 37.285254,8.189254 37.105196,7.1715664 37.019072,5.5727095 36.897857,3.3224251 37.41173,1.9147497 38.457177,1.63324 39.619784,1.3201825 42.299859,1.2149766 49.003089,1.2192619 c 7.279797,0.00465 11.03543,0.1485917 12.088057,0.4632852 0.69667,0.2082769 2.616157,1.2701634 3.36793,1.8631853 1.247879,0.9843666 2.628318,3.1188011 3.236402,5.004127 0.205174,0.6361242 0.676224,1.9739426 1.046778,2.9729296 1.041438,2.807636 1.455969,4.294017 2.30568,8.267479 0.930904,4.353144 2.003091,12.514925 1.834803,13.967029 -0.100729,0.869162 -0.369084,1.064751 -1.460877,1.064751 -0.469002,0 -0.94398,-0.03502 -1.055507,-0.07781 C 69.916486,34.571604 69.778009,33.951875 69.53365,31.017613 68.930551,23.775636 67.600625,16.097343 66.146978,11.464742 64.935848,7.6050108 63.726436,5.1784331 62.164635,3.4745236 l -0.660202,-0.7202728 -1.146129,9.896e-4 c -0.749768,6.514e-4 -1.66597,0.1116449 -2.649309,0.3209556 l -1.503178,0.3199621 -6.075344,-0.083402 c -6.40058,-0.087871 -7.186614,-0.043897 -8.168398,0.4569718 -0.57024,0.2909145 -1.173525,1.0811841 -1.367212,1.7909713 -0.22517,0.8251577 0.05073,2.1405876 1.3305,6.3435648 2.077021,6.821273 2.296437,8.283507 2.584924,17.226435 0.147735,4.579683 0.03195,9.100742 -0.252217,9.848151 -0.155725,0.409589 -0.42585,0.474206 -1.991066,0.476287 -1.221118,0.0016 -1.2924,-0.01273 -1.391202,-0.280136 z"
     id="path3063"
     inkscape:connector-curvature="0" />
  <path
     style="color:#000000;fill:#ff5555;fill-opacity:1;fill-rule:nonzero;stroke:#ff5555;stroke-width:0.03131621000000000;stroke-linecap:round;stroke-linejoin:round;stroke-miterlimit:4;stroke-opacity:1;stroke-dasharray:none;stroke-dashoffset:0;marker:none;visibility:visible;display:inline;overflow:visible;enable-background:accumulate"
     d="m 39.326519,42.937186 c -0.673763,-0.914889 -0.83133,-1.997739 -0.41379,-2.843687 0.08633,-0.174913 0.311446,-0.487131 0.50025,-0.693818 l 0.343282,-0.375795 0.0029,0.713238 0.0029,0.713238 0.360136,-0.04252 c 0.198075,-0.02338 1.191582,-0.125359 2.207793,-0.226612 1.016211,-0.101253 1.956329,-0.201721 2.089152,-0.223262 0.308426,-0.05002 0.478512,-0.2202 0.479736,-0.480002 0.0021,-0.447033 0.21821,-0.46564 0.468784,-0.04036 0.105366,0.178829 0.124157,0.31707 0.118289,0.870242 -0.0078,0.73427 -0.208334,1.720294 -0.397364,1.953737 -0.112187,0.138545 -0.112894,0.137725 -0.39982,-0.464116 -0.174931,-0.366925 -0.333507,-0.61753 -0.405145,-0.640267 -0.06474,-0.02055 -0.439193,-0.0097 -0.832116,0.02401 -0.392923,0.03375 -1.471239,0.08095 -2.396258,0.104877 l -1.681853,0.04351 0.03701,0.231463 c 0.07802,0.487888 0.173851,1.503644 0.148923,1.578431 -0.01463,0.0439 -0.116908,-0.04499 -0.232765,-0.202307 l 0,0 z"
     id="path3065"
     inkscape:connector-curvature="0" />
  <path
     style="color:#000000;fill:#ff5555;fill-opacity:1;fill-rule:nonzero;stroke:#ff5555;stroke-width:0.03131621;stroke-linecap:round;stroke-linejoin:round;stroke-miterlimit:4;stroke-opacity:1;stroke-dasharray:none;stroke-dashoffset:0;marker:none;visibility:visible;display:inline;overflow:visible;enable-background:accumulate"
     d="m 73.627403,37.951263 c -0.05096,-0.09901 -0.152054,-0.380068 -0.224658,-0.624565 -0.175953,-0.592528 -0.35024,-0.838936 -0.724615,-1.024471 -0.292509,-0.144963 -0.384003,-0.15522 -1.604344,-0.179852 -1.423624,-0.02874 -1.647272,0.0064 -1.891867,0.297067 -0.08633,0.1026 -0.222479,0.448695 -0.33087,0.841096 -0.101296,0.366718 -0.199504,0.666877 -0.21824,0.66702 -0.04054,3.1e-4 -0.323298,-0.866154 -0.470008,-1.440285 -0.12589,-0.492652 -0.140018,-1.193436 -0.03094,-1.534494 0.108488,-0.339201 0.385248,-0.775961 0.518791,-0.818713 0.167867,-0.05374 0.219244,0.009 0.325366,0.397102 0.16724,0.611679 0.330998,0.871711 0.644567,1.023507 0.256994,0.124408 0.347335,0.132917 1.072686,0.101035 1.266337,-0.05566 2.160098,-0.305957 2.537266,-0.710551 0.09646,-0.10347 0.223146,-0.367068 0.297359,-0.618704 0.07112,-0.241135 0.16595,-0.476554 0.210742,-0.523155 0.196467,-0.2044 0.51119,0.147905 0.694053,0.77693 0.130098,0.44752 0.09628,1.68074 -0.06167,2.248878 -0.108477,0.390192 -0.425151,1.068409 -0.567824,1.216104 -0.07005,0.07251 -0.09775,0.05771 -0.1758,-0.09395 l 0,0 z"
     id="path3067"
     inkscape:connector-curvature="0" />
  <path
     style="color:#000000;fill:#ff5555;fill-opacity:1;fill-rule:nonzero;stroke:#ff5555;stroke-width:0.0221439;stroke-linecap:round;stroke-linejoin:round;stroke-miterlimit:4;stroke-opacity:1;stroke-dasharray:none;stroke-dashoffset:0;marker:none;visibility:visible;display:inline;overflow:visible;enable-background:accumulate"
     d="m 10.971813,36.392033 c -0.196049,-0.149694 -1.0486149,-1.067975 -1.0486149,-1.12944 0,-0.01639 0.1145949,-0.137471 0.2546559,-0.26906 3.769098,-3.541112 4.389483,-4.097236 4.835474,-4.334605 0.09643,-0.05132 0.116691,-0.04631 0.192797,0.04768 0.280316,0.346177 -0.24697,1.204013 -2.487988,4.047676 -1.10969,1.408104 -1.433003,1.793656 -1.504109,1.793656 -0.02092,0 -0.129916,-0.07016 -0.242215,-0.155904 z m 0.562784,-0.661267 c 0.202172,-0.202172 0.657474,-0.802476 0.775116,-1.021972 0.1201,-0.224079 0.118499,-0.39478 -0.0059,-0.631498 -0.113546,-0.216028 -0.24642,-0.27282 -0.42427,-0.181339 -0.16127,0.08295 -1.152416,1.050223 -1.230823,1.201172 -0.08979,0.172861 -0.04112,0.301386 0.212009,0.559887 0.281959,0.287944 0.442163,0.305477 0.67389,0.07375 l 0,0 z"
     id="path3069"
     inkscape:connector-curvature="0" />
  <path
     style="color:#000000;fill:#ff5555;fill-opacity:1;fill-rule:nonzero;stroke:#ff5555;stroke-width:0.0221439;stroke-linecap:round;stroke-linejoin:round;stroke-miterlimit:4;stroke-opacity:1;stroke-dasharray:none;stroke-dashoffset:0;marker:none;visibility:visible;display:inline;overflow:visible;enable-background:accumulate"
     d="m 17.48693,30.838105 c -0.278592,-0.03891 -0.403599,-0.166243 -0.541067,-0.551143 -0.245716,-0.687986 -0.231224,-0.795151 0.156909,-1.160288 0.568978,-0.535266 1.194993,-0.904746 1.533031,-0.904809 0.33165,-6.2e-5 0.341826,0.04099 0.359022,1.448346 l 0.01477,1.208887 -0.656944,-0.0059 c -0.361319,-0.0033 -0.750894,-0.01904 -0.865722,-0.03508 z"
     id="path3071"
     inkscape:connector-curvature="0" />
  <path
     style="color:#000000;fill:#ff5555;fill-opacity:1;fill-rule:nonzero;stroke:#ff5555;stroke-width:0.0221439;stroke-linecap:round;stroke-linejoin:round;stroke-miterlimit:4;stroke-opacity:1;stroke-dasharray:none;stroke-dashoffset:0;marker:none;visibility:visible;display:inline;overflow:visible;enable-background:accumulate"
     d="m 10.831098,57.251936 c -0.121791,-0.03363 -0.380875,-0.119869 -0.575741,-0.191635 L 9.9010542,56.929818 9.887045,56.603986 c -0.015619,-0.363277 0.1025285,-4.766413 0.17036,-6.348973 0.08221,-1.918108 0.131869,-2.196665 0.580274,-3.255154 0.295265,-0.696991 0.398769,-0.980449 0.456846,-1.25113 0.04799,-0.223653 0.269944,-0.129663 0.600875,0.254445 0.298582,0.346561 0.396956,0.599292 0.397468,1.021126 3.83e-4,0.315371 -0.130506,2.147958 -0.509104,7.12804 -0.216563,2.84867 -0.262905,3.17099 -0.454861,3.163664 -0.042,-0.0016 -0.176013,-0.03043 -0.297805,-0.06407 z"
     id="path3073"
     inkscape:connector-curvature="0" />
  <path
     style="color:#000000;fill:#2ad4ff;fill-opacity:1;fill-rule:nonzero;stroke:#2ad4ff;stroke-width:0.03131621000000000;stroke-linecap:round;stroke-linejoin:round;stroke-miterlimit:4;stroke-opacity:1;stroke-dasharray:none;stroke-dashoffset:0;marker:none;visibility:visible;display:inline;overflow:visible;enable-background:accumulate"
     d="m 6.9434817,52.135701 c -0.099963,-0.154825 -0.2876953,-1.066289 -0.2876953,-1.396794 0,-0.114729 0.029787,-0.227007 0.066192,-0.249507 0.1334058,-0.08245 0.3598324,0.03309 0.4236588,0.216183 0.085981,0.246644 0.2806646,0.339609 0.6289787,0.300349 0.5742933,-0.06473 0.7673275,-0.613623 0.3592953,-1.021655 -0.1783845,-0.178384 -0.2581985,-0.21295 -0.4917131,-0.21295 -0.5216204,0 -0.9237795,-0.222785 -0.9237795,-0.511747 0,-0.159681 0.5776316,-0.768168 0.8274438,-0.871643 0.1863577,-0.07719 0.2028472,-0.07131 0.3772413,0.134617 0.285148,0.336704 0.7383627,1.336346 0.8494616,1.873633 0.1734419,0.838784 -0.047294,1.239525 -0.9038544,1.640922 -0.5915516,0.277211 -0.7958483,0.29898 -0.9252294,0.09859 z"
     id="path3075"
     inkscape:connector-curvature="0" />
  <path
     style="color:#000000;fill:#2ad4ff;fill-opacity:1;fill-rule:nonzero;stroke:#2ad4ff;stroke-width:0.0156581;stroke-linecap:round;stroke-linejoin:round;stroke-miterlimit:4;stroke-opacity:1;stroke-dasharray:none;stroke-dashoffset:0;marker:none;visibility:visible;display:inline;overflow:visible;enable-background:accumulate"
     d="m 1.0165137,52.101086 c -0.045425,-0.143121 0.045921,-1.185466 0.145152,-1.65633 0.2765566,-1.312289 0.9120161,-2.476081 1.8931953,-3.467233 0.4196387,-0.423904 0.5713228,-0.509174 0.9064646,-0.509576 0.4816223,-5.78e-4 1.3309389,0.212275 1.3309389,0.333556 0,0.06201 -0.1368725,0.411744 -0.2448787,0.625703 -0.053179,0.105348 -0.257003,0.45747 -0.4529413,0.782495 -0.4900492,0.812899 -0.6357942,1.088831 -0.7436539,1.407922 -0.1068139,0.315997 -0.3865918,0.805252 -0.7068719,1.236125 -0.4323658,0.581662 -0.539852,0.64885 -1.126879,0.704403 -0.5538937,0.05242 -0.6752754,0.116415 -0.8729111,0.460245 -0.047027,0.08181 -0.090261,0.148752 -0.096076,0.148752 -0.00581,0 -0.020007,-0.02973 -0.031539,-0.06606 z"
     id="path3845"
     inkscape:connector-curvature="0" />
  <path
     style="color:#000000;fill:#2ad4ff;fill-opacity:1;fill-rule:nonzero;stroke:#2ad4ff;stroke-width:0.0442878;stroke-linecap:round;stroke-linejoin:round;stroke-miterlimit:4;stroke-opacity:1;stroke-dasharray:none;stroke-dashoffset:0;marker:none;visibility:visible;display:inline;overflow:visible;enable-background:accumulate"
     d="M 3.7407212,58.157675 C 3.3945562,57.719238 2.7287289,56.507205 2.4465108,55.801771 2.2226827,55.242289 2.0412219,54.085178 2.0398172,53.208431 L 2.0390904,52.75482 2.4972897,52.69404 c 0.2520096,-0.03343 0.5303594,-0.0994 0.6185553,-0.146602 0.088196,-0.0472 0.4539334,-0.473479 0.8127502,-0.947285 0.3588169,-0.473805 0.7182114,-0.916088 0.7986546,-0.98285 0.179466,-0.148943 0.1789997,-0.158577 0.057105,1.179962 -0.049035,0.538463 -0.1688066,2.055216 -0.2661588,3.370564 -0.1702492,2.300275 -0.2895641,3.183169 -0.4429904,3.277992 -0.039544,0.02444 -0.1900626,-0.105225 -0.3344848,-0.288144 l 0,0 z"
     id="path3847"
     inkscape:connector-curvature="0" />
</svg>
