<?xml version="1.0" encoding="UTF-8" standalone="no"?>
<!-- Created with Inkscape (http://www.inkscape.org/) -->

<svg
   xmlns:dc="http://purl.org/dc/elements/1.1/"
   xmlns:cc="http://creativecommons.org/ns#"
   xmlns:rdf="http://www.w3.org/1999/02/22-rdf-syntax-ns#"
   xmlns:svg="http://www.w3.org/2000/svg"
   xmlns="http://www.w3.org/2000/svg"
   xmlns:sodipodi="http://sodipodi.sourceforge.net/DTD/sodipodi-0.dtd"
   xmlns:inkscape="http://www.inkscape.org/namespaces/inkscape"
   id="svg2"
   version="1.1"
   inkscape:version="0.48.5 r10040"
   width="75"
   height="100"
   sodipodi:docname="trunk3.svg">
  <metadata
     id="metadata8">
    <rdf:RDF>
      <cc:Work
         rdf:about="">
        <dc:format>image/svg+xml</dc:format>
        <dc:type
           rdf:resource="http://purl.org/dc/dcmitype/StillImage" />
        <dc:title />
      </cc:Work>
    </rdf:RDF>
  </metadata>
  <defs
     id="defs6" />
  <sodipodi:namedview
     pagecolor="#ffffff"
     bordercolor="#666666"
     borderopacity="1"
     objecttolerance="10"
     gridtolerance="10"
     guidetolerance="10"
     inkscape:pageopacity="0"
     inkscape:pageshadow="2"
     inkscape:window-width="1366"
     inkscape:window-height="740"
     id="namedview4"
     showgrid="false"
     inkscape:zoom="3.8688524"
     inkscape:cx="22.115385"
     inkscape:cy="21.153762"
     inkscape:window-x="0"
     inkscape:window-y="36"
     inkscape:window-maximized="1"
     inkscape:current-layer="svg2" />
  <path
     style="fill:#464646;fill-opacity:1"
     d="m 32.606026,99.908347 c 0.495804,-0.049 1.41724,-0.20496 2.047635,-0.34661 0.630386,-0.14164 1.660807,-0.3558 2.28982,-0.47591 1.651982,-0.31543 4.389783,-1.3001 6.963277,-2.50438 1.283338,-0.60054 1.625113,-0.80937 2.694346,-1.64623 0.253396,-0.19832 0.921436,-0.5551 1.484536,-0.79284 0.5631,-0.23773 1.369356,-0.66308 1.791682,-0.9452 0.681486,-0.45526 0.955191,-0.56104 2.433134,-0.94032 2.299212,-0.59006 4.397581,-1.39137 7.935749,-3.03044 1.856146,-0.85987 2.416139,-1.21521 4.155544,-2.63683 1.389687,-1.1358 2.567581,-2.3086 5.236989,-5.21434 2.571085,-2.79872 2.743565,-3.059 3.229382,-4.87339 0.146924,-0.54872 0.511793,-1.63565 0.810819,-2.41541 1.510392,-3.93856 1.718529,-8.4527 0.660955,-14.3349 -0.114232,-0.63535 -0.371766,-1.95438 -0.572295,-2.93117 l -0.3646,-1.77599 0.211548,-1.112 c 0.696428,-3.66077 0.949467,-12.35264 0.478737,-16.44457 -0.435116,-3.78235 -1.35749,-7.53249 -2.121227,-8.62437 -0.186233,-0.26625 -0.944584,-0.97402 -1.685225,-1.57282 -1.430512,-1.15656 -1.731569,-1.48467 -2.34086,-2.55118 -0.210948,-0.36924 -0.547023,-0.85697 -0.746836,-1.08383 -0.487116,-0.55306 -2.221256,-1.88352 -3.084658,-2.36661 -0.572681,-0.32042 -0.768016,-0.50294 -1.093898,-1.02213 -0.699682,-1.11471 -1.991814,-2.68083 -2.783499,-3.37373 -0.889107,-0.77816 -2.704751,-1.74981 -4.186192,-2.24027 -2.184163,-0.7231 -4.589631,-1.01024 -7.673353,-0.91597 -1.93922,0.0593 -2.171914,0.0484 -2.228934,-0.10399 -0.03502,-0.0936 -0.01312,-2.53847 0.04867,-5.4330399 0.06178,-2.89456 0.08305,-5.5061 0.04726,-5.80342 C 46.159572,1.6905871 45.7173,0.98220712 45.147825,0.63988712 44.261826,0.10728712 43.523988,0.00201712 40.662961,1.7116166e-5 38.284826,-0.00198288 37.90628,0.02371712 36.414116,0.28437712 c -0.90096,0.1574 -1.890018,0.2988 -2.197912,0.31422 l -0.559803,0.0281 -0.373263,1.52275998 c -0.683911,2.79005 -1.92658,6.6161 -2.148861,6.6161 -0.04482,0 -0.441614,-0.4117 -0.881794,-0.9149 -1.505166,-1.72064 -2.336093,-2.57995 -2.775013,-2.86981 -0.42884,-0.2832 -0.45126,-0.28653 -0.97263,-0.14415 -0.30528,0.0834 -1.03753,0.14654 -1.71106,0.1476 -2.10581,0.003 -4.16623,0.44513 -7.11187,1.5249 -0.84666,0.31036 -1.93333,0.68374 -2.41482,0.82972 -1.53368,0.46501 -2.63518,1.39934 -3.84852,3.2644499 -1.60693,2.47013 -2.72229,5.11827 -4.77712,11.3419 -0.53397,1.61727 -1.28096,3.76751 -1.65998,4.7783 -1.23804,3.30164 -2.17727,6.43171 -2.8546,9.5132 -0.30681,1.39578 -0.51233,3.0124 -1.24711,9.81004 L 0,54.185667 l 0.0636,2.41541 c 0.19257,7.31651 1.10606,14.33836 2.41165,18.53774 0.98774,3.17704 1.23982,4.61575 1.20485,6.87651 -0.0147,0.95459 0.0292,1.33757 0.25316,2.20537 0.14906,0.5776 0.32213,1.3802 0.38458,1.78357 0.14862,0.95979 0.35897,1.42143 1.054,2.31324 0.87874,1.12752 2.45053,2.37146 4.01352,3.17638 0.33785,0.17399 1.30536,0.56377 2.15002,0.86617 2.26456,0.81076 2.86385,1.12087 3.74038,1.93547 2.2558,2.09645 5.18432,3.7764 8.85257,5.07826 1.32024,0.46856 1.34581,0.47302 3.17383,0.55413 2.306597,0.102333 4.138791,0.0956 5.303896,-0.0195 z m -3.665542,-0.82767 c -1.403254,-0.24607 -3.027234,-0.78037 -4.249074,-1.39797 -1.11588,-0.56403 -1.25607,-0.81388 -1.31329,-2.3405 -0.0433,-1.15322 0.24265,-2.92364 0.76706,-4.75036 1.14361,-3.98359 1.90772,-7.29709 2.32998,-10.10361 0.20458,-1.35971 0.48168,-2.96648 0.61581,-3.5706 0.40738,-1.83503 0.50861,-1.96158 1.05676,-1.32119 0.61849,0.72256 2.387163,3.4763 3.61681,5.6312 0.214233,0.37544 0.603407,0.93944 0.864839,1.25334 0.422253,0.50702 0.468909,0.61253 0.417922,0.94516 -0.05387,0.35136 -0.114483,2.88479 -0.205347,8.58238 l -0.03879,2.43197 0.320946,-0.11057 c 0.442628,-0.1525 0.538324,-0.24347 1.01873,-0.96852 0.738255,-1.1142 1.78647,-3.64059 2.793999,-6.73405 0.528996,-1.6242 0.961815,-3.01596 0.961815,-3.09281 0,-0.0769 0.09886,-0.52102 0.219691,-0.98703 l 0.219681,-0.84729 1.197533,-1.26021 c 1.576359,-1.65886 2.172512,-2.37996 4.297673,-5.19837 2.889994,-3.83275 4.668451,-6.11971 5.051109,-6.49535 0.414234,-0.40663 0.381108,-0.44955 0.645471,0.83628 0.21329,1.03743 0.313008,8.95197 0.14275,11.33002 -0.229417,3.20436 -0.706636,6.17398 -1.535776,9.55679 -0.55023,2.24489 -0.756015,2.7752 -1.31457,3.38772 -0.596555,0.65418 -1.577243,1.41514 -2.166364,1.68097 -0.253395,0.11434 -1.050781,0.48638 -1.771971,0.82674 -2.525032,1.1917 -6.106369,2.27022 -9.18288,2.76543 -1.346167,0.21669 -3.36186,0.1957 -4.760515,-0.0496 z m -8.355214,-2.00534 c -1.85941,-0.97239 -4.13024,-2.56421 -5.1958,-3.64218 -1.39495,-1.41121 -2.05235,-2.53065 -2.46237,-4.19304 -0.30977,-1.25592 -0.3414,-1.943 -0.16821,-3.65424 0.0876,-0.86639 0.22734,-2.33139 0.31037,-3.25554 0.0831,-0.92416 0.19706,-2.01109 0.25342,-2.41541 0.0564,-0.40432 0.17609,-1.53851 0.26606,-2.52042 0.09,-0.98192 0.31918,-3.03764 0.50938,-4.56827 0.19018,-1.53063 0.53388,-4.29522 0.76377,-6.14353 0.58891,-4.7348 1.89867,-12.49171 2.56337,-15.1813 0.70296,-2.84439 2.76584,-7.62214 4.84064,-11.21116 2.33884,-4.04576 5.78585,-7.25926 10.431931,-9.72518 2.066986,-1.09706 3.944883,-1.95918 7.447729,-3.41917 1.495235,-0.62321 3.732189,-1.59295 4.971008,-2.15496 5.672583,-2.57346 8.709065,-3.69999 11.76382,-4.36432 1.803868,-0.3923 2.10574,-0.38288 3.491067,0.10892 2.043855,0.72559 4.011002,1.77706 5.246603,2.80439 0.444693,0.36974 1.112092,1.26446 1.016408,1.36261 -0.02927,0.03 -0.644157,-0.0523 -1.366428,-0.18293 -1.286541,-0.23269 -1.37042,-0.23489 -4.128719,-0.1084 -2.277611,0.10445 -3.148013,0.18958 -4.55599,0.44559 -11.596347,2.10852 -19.006535,5.74373 -25.596472,12.55681 -1.631514,1.68676 -1.967913,2.17075 -3.209027,4.61707 -0.55202,1.08805 -1.29378,2.51871 -1.64836,3.17925 -1.1476,2.13791 -1.80616,3.84992 -2.3456,6.09774 -0.71695,2.98748 -0.83437,4.79487 -0.87331,13.44225 -0.0258,5.73854 -0.0607,7.18964 -0.19595,8.13887 -0.0905,0.63535 -0.64548,3.80163 -1.23333,7.03618 -0.58784,3.23454 -1.12894,6.32993 -1.20244,6.87865 -0.16771,1.2519 -0.1721,4.76154 -0.007,5.67095 0.31698,1.74708 0.57882,2.5961 1.16006,3.7614 0.32873,0.65906 0.5977,1.21655 0.5977,1.23886 0,0.11943 -0.33696,-0.0204 -1.44421,-0.59949 z m 1.54708,-0.56674 c -0.4178,-0.74902 -0.97495,-2.53187 -1.18179,-3.78152 -0.20931,-1.26472 -0.23353,-3.6634 -0.0552,-5.46092 0.17172,-1.73019 0.52305,-3.77948 1.23263,-7.18963 1.00061,-4.80882 1.17382,-6.08478 1.39058,-10.24329 0.0362,-0.69311 0.0819,-4.03374 0.10158,-7.4236 0.0332,-5.71751 0.0516,-6.25312 0.25229,-7.40374 0.84564,-4.84706 2.5325,-9.54777 4.715967,-13.14175 1.955662,-3.21903 4.190575,-5.62375 6.978215,-7.50842 1.319016,-0.89177 4.959119,-2.95704 6.721467,-3.81354 4.643353,-2.25667 9.512089,-3.90549 13.424936,-4.54642 2.231328,-0.36549 3.772014,-0.45974 6.296479,-0.38517 3.309062,0.0978 3.594857,0.16189 5.84855,1.31244 1.656792,0.84583 1.944172,1.03276 2.681598,1.74434 1.175526,1.13432 1.393988,1.58299 2.017266,4.14302 0.837959,3.44181 1.195901,6.67912 1.202251,10.87346 0.0042,2.76677 -0.110133,4.92861 -0.382126,7.226 -0.07391,0.62423 -0.16244,1.16376 -0.196743,1.19895 -0.231141,0.23709 -0.384161,-0.75715 -0.264908,-1.72124 0.06735,-0.54447 0.06743,-1.17791 3.07e-4,-1.8729 -0.05583,-0.5776 -0.172171,-2.23162 -0.258541,-3.67561 -0.479859,-8.02257 -1.010286,-10.87032 -2.641913,-14.18387 -0.757626,-1.53861 -1.357205,-1.9707 -3.557749,-2.56395 -1.774606,-0.47842 -2.992836,-0.56818 -5.772749,-0.42535 -2.974687,0.15284 -4.470924,0.37178 -8.247895,1.20686 -1.661145,0.36728 -3.31973,0.70027 -3.685745,0.73999 -0.366015,0.0397 -0.941912,0.18278 -1.279772,0.31792 -0.33786,0.13514 -1.253892,0.48873 -2.035626,0.78575 -2.969238,1.12817 -5.602279,2.50246 -8.243898,4.3028 -1.841899,1.25532 -2.349068,1.6654 -3.631923,2.93666 -3.539051,3.50709 -5.943278,7.8322 -7.328808,13.18424 -0.57018,2.20247 -0.72671,3.38608 -0.82633,6.24855 -0.18546,5.32849 -0.51281,9.07549 -1.27532,14.59744 -0.19541,1.41511 -0.42784,3.18477 -0.51652,3.93256 -0.0887,0.7478 -0.293,2.07102 -0.45404,2.9405 -0.16104,0.86947 -0.32178,1.91166 -0.35717,2.31598 -0.0354,0.40432 -0.17579,1.56214 -0.31197,2.57293 -0.72386,5.37236 -1.04259,8.86749 -0.9277,10.17266 0.0832,0.9449 0.4679,2.19126 0.86138,2.79051 0.44399,0.67619 0.48039,0.75971 0.23469,0.53856 -0.12408,-0.11169 -0.36068,-0.44523 -0.52576,-0.7412 z m 0.14349,-1.96997 c -0.0999,-0.31663 -0.0536,-3.30533 0.0655,-4.22696 0.0523,-0.40432 0.14341,-1.2077 0.20258,-1.7853 0.17576,-1.71584 0.37762,-2.74539 0.97957,-4.99578 0.73532,-2.749 1.31189,-4.38366 2.25339,-6.38868 0.73435,-1.56388 0.9939,-1.93613 0.76433,-1.09622 -0.0606,0.22201 -0.18064,0.99438 -0.26658,1.71638 -0.0859,0.722 -0.26618,1.92707 -0.40054,2.67795 -0.13436,0.75087 -0.27569,1.64877 -0.31405,1.99533 -0.0384,0.34656 -0.20132,1.17357 -0.3621,1.83781 -0.16079,0.66424 -0.36291,1.52672 -0.44918,1.91663 -0.0863,0.38991 -0.31231,1.16967 -0.50231,1.73279 -0.18999,0.56313 -0.37778,1.2129 -0.41733,1.44393 -0.0396,0.23104 -0.27475,1.13072 -0.52268,1.99929 -0.4237,1.48434 -0.56181,2.06927 -0.7119,3.0153 -0.0703,0.44324 -0.20721,0.5109 -0.31874,0.15753 z m 25.860991,-1.47799 c 0,-0.0187 0.111285,-0.41538 0.2473,-0.8815 0.136015,-0.46612 0.300724,-1.21876 0.366022,-1.67253 0.0653,-0.45378 0.211487,-1.20311 0.324861,-1.66518 0.23085,-0.94087 0.886686,-4.2239 1.258734,-6.30106 0.134492,-0.75088 0.338583,-1.83781 0.453537,-2.4154 0.321804,-1.61694 0.497055,-2.93988 0.78089,-5.89482 0.481645,-5.01429 0.781532,-6.96984 1.068838,-6.96984 0.109978,0 0.1977,0.61676 0.317618,2.23308 0.07512,1.01247 0.06012,2.29732 -0.05836,4.99946 -0.09566,2.18158 -0.132383,4.24609 -0.0918,5.15954 0.114572,2.57843 -0.310583,6.61171 -0.895106,8.49152 -0.817349,2.62856 -2.453653,4.94889 -3.490991,4.95034 -0.154853,2.1e-4 -0.28155,-0.0149 -0.28155,-0.0336 z m -14.675917,-1.92543 c -0.147911,-3.16351 -0.03929,-6.28858 0.292719,-8.42141 0.41997,-2.69787 0.587682,-3.56228 0.794309,-4.09384 l 0.228065,-0.5867 1.122023,-0.23461 c 0.617116,-0.12903 1.419176,-0.26724 1.782375,-0.30714 l 0.660342,-0.0725 -0.06722,1.05228 c -0.155682,2.43675 -0.623873,4.46571 -1.775004,7.69223 -0.876726,2.45738 -2.668048,6.40607 -2.906107,6.40607 -0.03544,0 -0.09461,-0.64545 -0.131498,-1.43434 z m -21.567234,0.64436 c -1.68763,-0.51312 -3.46806,-1.37492 -4.31077,-2.0866 -1.53136,-1.29324 -2.44748,-3.1304 -2.96447,-5.9449 -0.31645,-1.7227 -0.393,-6.08241 -0.15905,-9.05797 0.0919,-1.16952 0.21177,-2.71712 0.26625,-3.43912 0.14749,-1.95456 0.78661,-6.81954 1.06921,-8.13886 0.1361,-0.63536 0.41484,-2.2185 0.61945,-3.51809 0.88848,-5.64349 2.76341,-13.63742 4.39668,-18.74564 0.93079,-2.91118 2.9919,-6.64915 5.18262,-9.39908 2.31023,-2.89994 5.29858,-5.51146 8.28147,-7.23717 0.41859,-0.24217 1.06923,-0.67021 1.44587,-0.95121 2.33049,-1.73869 6.983577,-4.09868 8.081212,-4.09868 0.335966,0 0.599251,-0.10559 1.164706,-0.46709 1.175455,-0.75149 2.339863,-1.26147 4.783749,-2.09518 2.413678,-0.8234 5.661324,-1.62737 7.515979,-1.86061 1.340001,-0.16851 4.490544,-0.16923 5.528616,-10e-4 0.450481,0.0729 1.348881,0.25202 1.996445,0.39806 1.986588,0.448 4.444369,1.79833 5.476911,3.00907 0.458695,0.53786 1.032144,1.51659 0.942475,1.60857 -0.02804,0.0288 -0.439012,-0.11248 -0.913284,-0.31386 -1.385508,-0.5883 -1.331295,-0.59028 -3.660093,0.13366 -5.824324,1.81057 -11.719349,4.26412 -21.480522,8.94035 -4.481651,2.14699 -5.311065,2.61194 -7.080564,3.96917 -4.08076,3.12998 -7.46768,8.23411 -10.12462,15.25789 -1.27833,3.37936 -1.38991,3.79185 -1.8001,6.65464 -0.14067,0.98191 -0.60158,4.00642 -1.02421,6.72113 -1.328,8.53027 -1.79011,11.80385 -2.15698,15.28005 -0.0884,0.83752 -0.22771,2.01897 -0.30962,2.62544 -0.3931,2.91115 -0.61365,5.49005 -0.61066,7.1412 0.004,1.95873 0.14607,2.85989 0.72253,4.56827 0.1949,0.57759 0.38226,1.13532 0.41637,1.23938 0.0709,0.21611 0.021,0.20875 -1.2956,-0.19156 z m 39.314605,-0.21031 c 0,-0.0303 0.163915,-0.389 0.364257,-0.79707 0.475237,-0.96799 1.016316,-2.64784 1.213855,-3.76857 0.409194,-2.32155 0.482364,-3.79569 0.575542,-11.59547 0.05347,-4.47589 0.13127,-7.69812 0.187257,-7.75555 0.224575,-0.23035 2.498273,0.70315 4.262714,1.75013 1.111353,0.65945 2.938162,1.94379 3.634883,2.55552 0.239932,0.21066 0.56837,0.57011 0.729865,0.79879 0.262507,0.37171 0.293431,0.50035 0.291804,1.2139 -0.0024,1.07965 -0.124433,2.20855 -0.577005,5.34032 -0.240987,1.66762 -0.347185,2.68802 -0.28613,2.74928 0.0534,0.0536 0.219364,0.12836 0.368808,0.1662 0.468393,0.11859 0.94318,-0.69533 2.267482,-3.88707 1.206352,-2.90748 1.971137,-5.17657 2.345066,-6.95773 0.165268,-0.78723 0.307263,-1.16118 0.645172,-1.69911 2.359531,-3.75621 4.123437,-8.10536 5.093707,-12.55922 0.12613,-0.57897 0.273774,-1.06682 0.328098,-1.0841 0.165373,-0.0526 0.442626,0.96231 0.873297,3.19679 0.46956,2.43623 0.671445,4.06779 0.771961,6.23871 0.173857,3.75493 -0.638775,8.68862 -1.842186,11.18438 -0.757558,1.57109 -1.612539,2.6123 -4.859685,5.91817 -3.745761,3.81349 -4.827849,4.68995 -7.458198,6.04091 -2.058992,1.05751 -3.993479,1.76542 -6.934119,2.53748 -1.768059,0.4642 -1.996445,0.51149 -1.996445,0.41331 z m -18.40327,-10.26285 c -0.118241,-0.12996 -0.331932,-0.44895 -0.474868,-0.70886 -0.290467,-0.52824 -1.216428,-1.91752 -3.170174,-4.75641 -1.805233,-2.6231 -2.216443,-3.35781 -2.215173,-3.95786 9.8e-4,-0.58266 0.39689,-1.49599 0.75127,-1.73416 0.37996,-0.25537 3.591064,-1.26756 4.801533,-1.51352 0.577403,-0.11732 1.744125,-0.33161 2.592716,-0.4762 1.81049,-0.30849 3.198265,-0.66647 5.726214,-1.4771 3.405293,-1.09196 6.92297,-2.07272 7.863517,-2.19243 0.485007,-0.0617 0.494141,-0.0574 0.639886,0.30036 0.318834,0.78272 0.08884,1.88983 -0.597972,2.87847 -1.077155,1.55052 -5.970765,8.15115 -6.738547,9.08914 -1.187139,1.4503 -3.12632,3.48894 -3.224673,3.39006 -0.0449,-0.0451 -0.01969,-0.54136 0.05604,-1.10269 0.248359,-1.84102 0.248383,-1.84513 0.01217,-2.06441 -0.29559,-0.27439 -1.164821,-0.33494 -1.860834,-0.12961 -0.303592,0.0896 -0.943601,0.23273 -1.422237,0.31815 -1.005051,0.17936 -1.423772,0.32485 -1.474604,0.51239 -0.01981,0.0731 -0.209708,0.97168 -0.421997,1.99691 -0.235376,1.13674 -0.433044,1.86406 -0.506616,1.86406 -0.06634,0 -0.217388,-0.10633 -0.335638,-0.23629 z m 29.811273,-2.39274 c 0.373597,-1.88752 0.48754,-3.55368 0.504894,-7.38293 0.01842,-4.06333 -0.09304,-3.62964 1.075352,-4.18408 0.779242,-0.36978 1.51824,-0.48292 1.788845,-0.27388 0.152453,0.11777 0.198382,0.34406 0.244655,1.20544 0.05136,0.95599 0.03104,1.13653 -0.206245,1.83282 -0.144768,0.42481 -0.288252,1.12681 -0.318853,1.56001 -0.09892,1.40022 -0.508176,2.66054 -1.823162,5.61445 -0.555136,1.24703 -1.414587,2.92381 -1.469671,2.8673 -0.01878,-0.0193 0.07311,-0.57687 0.204185,-1.23913 z M 23.95978,78.197537 c 0.11188,-0.6727 0.23328,-1.53028 0.26976,-1.90572 0.0365,-0.37543 0.18213,-1.38901 0.32367,-2.25238 0.14156,-0.86337 0.29707,-1.87941 0.34559,-2.25787 0.0486,-0.37847 0.17711,-1.01892 0.28577,-1.42324 0.10864,-0.40432 0.2497,-1.37311 0.31345,-2.15286 0.0638,-0.77976 0.15879,-1.86669 0.21121,-2.41541 0.0525,-0.54871 0.14487,-2.32088 0.20544,-3.93815 0.18077,-4.82635 0.28953,-6.10932 0.72997,-8.61145 0.22368,-1.27071 0.50066,-2.66482 0.6155,-3.09802 0.2555,-0.96377 1.196042,-3.48841 1.778623,-4.77422 2.397387,-5.2912 7.464968,-9.90647 14.191571,-12.92488 1.14157,-0.51225 4.233345,-1.62413 4.516186,-1.62413 0.197742,0 0.598526,0.83501 0.903386,1.88215 0.233959,0.80361 1.094391,5.46546 1.47958,8.01642 0.608541,4.03012 0.974042,8.47718 0.776825,9.45162 -0.06714,0.33173 -0.139095,0.60315 -0.159902,0.60315 -0.09856,0 -7.775835,2.5338 -7.822591,2.58176 -0.09595,0.0984 0.409173,0.95805 0.980294,1.66827 0.709209,0.88194 1.784383,1.74993 3.637778,2.93676 1.782071,1.14116 2.744708,1.85913 3.376284,2.51818 0.559729,0.58407 0.644927,0.56921 1.286055,-0.22434 0.638685,-0.79053 1.081087,-1.56206 2.480661,-4.32612 0.718947,-1.41987 1.775719,-3.38496 2.348382,-4.36688 0.800712,-1.37293 1.034531,-1.85807 1.012304,-2.10035 -0.02827,-0.30817 -0.04232,-0.31567 -0.643193,-0.34313 -0.503709,-0.023 -0.826239,0.0496 -1.791681,0.40316 -1.910693,0.69981 -2.579707,0.91015 -3.140096,0.98724 -0.455319,0.0626 -0.543666,0.0454 -0.631646,-0.12322 -0.05626,-0.10782 -0.223406,-1.47041 -0.371441,-3.02796 -0.604395,-6.35917 -1.275766,-10.72535 -2.362743,-15.36583 -0.194158,-0.82888 -0.327784,-1.54893 -0.296945,-1.60011 0.08666,-0.14382 1.322636,-0.49212 2.400454,-0.67644 0.534945,-0.0915 1.233506,-0.23478 1.552358,-0.31845 0.318852,-0.0837 1.00993,-0.1786 1.535726,-0.21095 0.525799,-0.0323 1.670109,-0.14886 2.542914,-0.25891 2.657058,-0.33501 4.160261,-0.44501 6.194098,-0.45328 2.222141,-0.009 3.033782,0.14794 4.436024,0.85796 0.805238,0.40773 1.925985,1.38152 2.398148,2.08369 0.479485,0.71306 1.045785,3.31037 1.72084,7.89255 0.262981,1.78508 0.608283,6.78735 0.607567,8.80161 -5.12e-4,1.52234 -0.111674,2.81495 -0.254623,2.96158 -0.03115,0.032 -0.134212,-0.0572 -0.229023,-0.19811 -0.329634,-0.48992 -0.730029,-0.83378 -0.966827,-0.83031 -0.14596,0.002 -0.495993,0.24759 -0.903716,0.6337 -1.938532,1.8358 -3.469623,2.95934 -9.418759,6.91166 -1.076494,0.71517 -2.582603,1.78823 -3.346909,2.38458 -0.864166,0.67426 -1.854722,1.33161 -2.619548,1.73838 -1.406852,0.74823 -2.310923,1.52418 -2.580227,2.21457 -0.133374,0.34191 -0.179123,0.85779 -0.202458,2.28293 -0.02184,1.33353 -0.117331,2.49272 -0.346343,4.2041 -0.173906,1.29959 -0.364615,2.8591 -0.423794,3.46558 -0.181306,1.85803 -0.327721,2.98622 -0.406735,3.13405 -0.102435,0.19166 -0.20904,-1.85216 -0.210034,-4.0267 -4.09e-4,-0.98191 -0.05645,-2.32877 -0.124435,-2.993 -0.152395,-1.4888 -0.152577,-2.92597 -5.12e-4,-3.63114 0.09013,-0.41783 0.08293,-0.7358 -0.03329,-1.47025 -0.08156,-0.51542 -0.148467,-1.11155 -0.148682,-1.32474 -2.05e-4,-0.21319 -0.04729,-0.41735 -0.104617,-0.45369 -0.05732,-0.0363 -0.414382,0.0775 -0.793459,0.25296 -0.379077,0.17548 -1.495488,0.55457 -2.480912,0.84243 -0.985426,0.28786 -3.017463,0.90019 -4.515641,1.36073 -1.498178,0.46054 -3.410158,1.00748 -4.248845,1.21541 -0.838691,0.20794 -2.28507,0.56668 -3.214184,0.7972 -0.929115,0.23053 -2.449484,0.53319 -3.378599,0.67259 -2.361172,0.35425 -3.213398,0.64753 -3.970338,1.36637 -0.34433,0.327 -0.71756,0.81367 -0.8862,1.15558 -0.27207,0.55157 -0.28556,0.6373 -0.20379,1.29509 0.0482,0.38743 0.0859,1.05886 0.0839,1.49206 -0.006,1.25762 -0.20677,1.82248 -2.14812,6.03851 l -0.29015,0.6301 -0.0365,-0.40466 c -0.02,-0.22257 0.0552,-0.95507 0.16703,-1.62778 z M 3.49825,73.273687 c -0.2907,-0.96537 -0.46585,-2.10964 -0.71152,-4.64815 -0.42294,-4.37019 -0.53863,-7.0526 -0.48687,-11.28939 0.0597,-4.88644 0.35174,-8.6254 0.99248,-12.70713 0.1088,-0.69312 0.22812,-1.52013 0.26512,-1.83781 0.24651,-2.11548 1.71034,-7.96182 2.70819,-10.81604 0.27274,-0.78018 0.99912,-2.90713 1.61416,-4.72656 1.8813,-5.56532 2.7754,-7.80142 4.35984,-10.90375 0.83437,-1.63368 1.32699,-2.46707 1.73041,-2.92745 l 0.20279,-0.23142 0.42173,0.21833 c 1.20576,0.62422 3.25784,2.21572 3.53032,2.73797 0.17743,0.34006 -0.0591,1.02936 -0.74786,2.17982 -0.9084,1.51727 -1.43773,2.588 -2.51797,5.09336 -3.62527,8.40795 -5.52775,15.24197 -6.34612,22.79627 -0.22387,2.06656 -0.36665,2.85584 -1.21448,6.71367 -0.91893,4.18147 -2.16395,10.67135 -2.37472,12.37883 -0.11388,0.92249 -0.27195,1.99373 -0.35127,2.38054 -0.0794,0.3868 -0.1705,1.02845 -0.20261,1.42587 -0.13987,1.73119 -0.51651,4.87079 -0.58433,4.87079 -0.0409,0 -0.17008,-0.31849 -0.28729,-0.70775 z m -0.72303,0.4853 c -0.14493,-0.27777 -0.7186,-2.87994 -1.00439,-4.55585 -0.62879,-3.68735 -1.13915,-10.20622 -1.13915,-14.55042 0,-2.05826 1.14946,-12.66716 1.68909,-15.58963 0.84225,-4.56112 1.70713,-7.71163 2.94065,-10.7118 0.28498,-0.69311 1.12837,-3.15052 1.87421,-5.46091 1.86451,-5.77572 2.68742,-7.84728 4.08447,-10.28219 0.62133,-1.08288 1.89622,-2.8698899 2.38939,-3.3491499 0.59463,-0.57786 6.51855,-2.55004 8.88071,-2.95654 1.25758,-0.21642 3.87832,-0.36797 4.53152,-0.26205 0.64283,0.10423 0.79404,0.20583 1.495364,1.00481 2.088872,2.37972 3.755648,5.7758799 4.728388,9.6344099 l 0.287528,1.14051 -0.248736,0.19724 c -0.136813,0.10848 -1.469649,0.83613 -2.961865,1.61701 -1.492216,0.78087 -3.265979,1.72585 -3.941699,2.09995 -0.67572,0.3741 -1.34376,0.68133 -1.48454,0.68274 -0.34758,0.003 -1.79027,-1.52948 -4.0853,-4.34091 -2.85032,-3.49164 -4.17472,-4.8281 -5.96604,-6.02036 -0.51041,-0.33971 -0.78491,-0.45486 -1.08438,-0.45486 l -0.40097,0 -0.27382,0.85249 c -0.15059,0.46888 -0.68282,1.73303 -1.18272,2.80922 -1.40443,3.02348 -2.48278,5.69599 -4.66679,11.56584 -2.77003,7.44486 -4.37131,14.18305 -5.22844,22.00118 -0.41291,3.76631 -0.54743,6.11862 -0.55253,9.66162 -0.007,4.89918 0.39667,8.98205 1.50315,15.2013 0.0612,0.34436 -0.0222,0.37463 -0.1831,0.0663 z m 59.375242,-2.35721 c -0.170308,-0.0903 -0.709364,-0.47116 -1.197902,-0.84628 -0.64703,-0.49682 -1.69973,-1.09231 -3.876376,-2.19278 -1.643468,-0.83091 -3.296073,-1.71025 -3.672455,-1.95407 -0.789039,-0.51116 -0.966862,-0.82877 -0.966862,-1.72697 0,-0.57625 0.01286,-0.60271 0.55023,-1.13231 0.302627,-0.29825 0.913079,-0.75221 1.356559,-1.0088 0.44348,-0.25659 1.336154,-0.85176 1.983718,-1.32262 1.568612,-1.14055 2.895349,-2.04296 5.477426,-3.7256 4.264852,-2.77924 6.538497,-4.37398 8.105709,-5.68536 0.403821,-0.33791 0.780101,-0.61437 0.836179,-0.61437 0.144983,0 0.897835,1.18487 1.046566,1.64713 0.179577,0.55813 0.06212,3.06627 -0.210158,4.48777 -0.375637,1.96109 -1.253956,4.7367 -2.153086,6.80407 -0.609004,1.40028 -1.672583,3.33417 -2.114868,3.84544 -0.404806,0.46794 -0.442595,0.42953 -0.755044,-0.76753 -0.120853,-0.46301 -0.291384,-0.92454 -0.37896,-1.02562 -0.285418,-0.32943 -0.69457,-0.209 -2.291569,0.67446 l -1.5514,0.85823 0.06278,1.53092 c 0.03453,0.842 0.09332,1.70813 0.130643,1.92473 0.07653,0.44411 0.05162,0.45911 -0.381132,0.22956 z M 50.525221,59.210627 c -0.3845,-0.26863 -1.367132,-0.94914 -2.183626,-1.51224 -1.526883,-1.05304 -3.051464,-2.30674 -3.928402,-3.23044 l -0.498614,-0.5252 0.396231,-0.267 c 0.426683,-0.28753 1.924309,-0.72492 6.692712,-1.95465 1.604834,-0.41387 3.578685,-0.94186 4.386336,-1.17332 0.807652,-0.23145 1.494633,-0.39397 1.526627,-0.36115 0.07742,0.0794 -1.112677,2.51651 -2.029057,4.15517 -1.332097,2.38204 -3.288484,5.35724 -3.522732,5.35724 -0.07721,0 -0.454977,-0.21978 -0.839475,-0.48841 z M 11.23222,36.237047 c 0.15505,-0.72368 0.52065,-2.0379 0.81242,-2.92049 0.56877,-1.72045 2.59743,-7.16524 3.37418,-9.05607 0.976,-2.3759 2.78416,-5.68508 3.46056,-6.3333 l 0.24772,-0.2374 0.65772,0.71264 c 2.295,2.48658 3.96818,4.72204 3.71189,4.95924 -0.0468,0.0433 -0.57879,0.41573 -1.18219,0.8276 -2.15821,1.47311 -3.68065,2.88591 -6.07127,5.634 -1.611,1.85193 -3.09515,3.97857 -4.13967,5.93176 -0.84981,1.58912 -1.04218,1.91176 -1.10279,1.84959 -0.0278,-0.0285 0.0763,-0.64389 0.23143,-1.36757 z m 22.846496,-19.51645 c -0.08911,-0.24548 -0.35035,-1.13157 -0.580546,-1.96908 -0.254859,-0.92725 -0.644872,-2.01199 -0.997301,-2.77373 -0.509676,-1.10168 -0.578375,-1.32728 -0.575549,-1.89032 0.0018,-0.3516399 0.107142,-1.0135799 0.234167,-1.4709699 0.2308,-0.83107 1.388441,-3.80754 1.552415,-3.99152 0.193809,-0.21744 0.403354,0.76912 0.670038,3.15466 0.228507,2.04399 0.281488,2.9851799 0.286065,5.0815599 0.0054,2.44883 -0.14616,4.30572 -0.351323,4.30572 -0.04177,0 -0.148863,-0.20085 -0.237966,-0.44632 z m 1.27282,-4.20071 c -0.0048,-3.5222599 -0.03996,-4.7306299 -0.156633,-5.3821499 -0.08276,-0.46208 -0.222773,-1.24183 -0.311169,-1.73279 -0.222323,-1.23489 -0.484379,-3.45524 -0.420329,-3.56153 0.07939,-0.13176 1.933439,-0.71014 2.921035,-0.91121998 0.901871,-0.18364 1.218026,-0.18007 4.660674,0.0525 1.68721,0.11398998 2.403781,0.34106998 3.042302,0.96411998 l 0.420287,0.4101 -0.08026,5.17238 c -0.04414,2.8447999 -0.109115,5.4543699 -0.144375,5.7990399 l -0.06411,0.62666 -0.921436,0.35057 c -1.454876,0.55353 -8.382294,2.72122 -8.769942,2.74424 -0.155672,0.009 -0.170374,-0.36929 -0.176036,-4.53192 z"
     id="path2987"
     inkscape:connector-curvature="0" />
  <path
     style="color:#000000;fill:#c8b7b7;fill-opacity:1;fill-rule:nonzero;stroke:#000000;stroke-width:0.09138456;stroke-linecap:round;stroke-linejoin:round;stroke-miterlimit:4;stroke-opacity:1;stroke-dasharray:none;stroke-dashoffset:0;marker:none;visibility:visible;display:inline;overflow:visible;enable-background:accumulate"
     d="m 34.136357,91.654106 c 0.834943,-1.626357 2.014371,-4.46243 2.730933,-6.566847 0.708336,-2.080257 1.233621,-4.492812 1.353006,-6.21415 0.03137,-0.452354 0.079,-0.962096 0.105828,-1.132761 l 0.04879,-0.310299 -0.577789,0.06077 c -0.317784,0.03343 -1.131654,0.17306 -1.808598,0.3103 l -1.230809,0.249526 -0.211222,0.618393 c -0.21896,0.641043 -0.743366,3.56786 -0.953488,5.321604 -0.154683,1.291036 -0.170855,8.139464 -0.01982,8.394538 0.08728,0.14741 0.161916,0.05053 0.563176,-0.731077 l 0,0 z"
     id="path3778"
     inkscape:connector-curvature="0" />
  <path
     style="color:#000000;fill:#c8b7b7;fill-opacity:1;fill-rule:nonzero;stroke:#000000;stroke-width:0.09138456;stroke-linecap:round;stroke-linejoin:round;stroke-miterlimit:4;stroke-opacity:1;stroke-dasharray:none;stroke-dashoffset:0;marker:none;visibility:visible;display:inline;overflow:visible;enable-background:accumulate"
     d="m 63.283369,78.492337 c 1.595154,-3.291794 2.152278,-4.861704 2.443073,-6.884301 0.07588,-0.527746 0.221101,-1.247268 0.322722,-1.598939 0.1878,-0.649901 0.230195,-1.436463 0.12475,-2.314509 -0.0804,-0.669488 -0.28334,-0.80267 -0.997256,-0.654462 -0.755916,0.156928 -1.642356,0.580857 -1.837657,0.878837 -0.15143,0.231044 -0.171758,0.58839 -0.225222,3.959134 -0.0603,3.801507 -0.124859,4.768481 -0.453245,6.788408 -0.104093,0.64029 -0.174263,1.209158 -0.155932,1.26415 0.01833,0.05499 0.368776,-0.592251 0.778767,-1.438318 l 0,0 z"
     id="path3780"
     inkscape:connector-curvature="0" />
  <path
     style="color:#000000;fill:#de8787;fill-opacity:1;fill-rule:nonzero;stroke:#000000;stroke-width:0.18276912;stroke-linecap:round;stroke-linejoin:round;stroke-miterlimit:4;stroke-opacity:1;stroke-dasharray:none;stroke-dashoffset:0;marker:none;visibility:visible;display:inline;overflow:visible;enable-background:accumulate"
     d="m 51.894953,59.042435 c 1.600366,-2.10251 5.085425,-8.386728 4.806009,-8.666143 -0.139683,-0.139683 -10.190218,2.486389 -11.751253,3.070447 -0.540002,0.202041 -0.981822,0.433864 -0.981822,0.515162 0,0.408266 6.797649,5.674534 7.324634,5.674534 0.08266,0 0.353758,-0.2673 0.602432,-0.594 z"
     id="path3782"
     inkscape:connector-curvature="0" />
  <path
     style="color:#000000;fill:#de8787;fill-opacity:1;fill-rule:nonzero;stroke:#000000;stroke-width:0.18276912;stroke-linecap:round;stroke-linejoin:round;stroke-miterlimit:4;stroke-opacity:1;stroke-dasharray:none;stroke-dashoffset:0;marker:none;visibility:visible;display:inline;overflow:visible;enable-background:accumulate"
     d="m 32.985126,99.272278 c 3.004456,-0.438609 6.637491,-1.484233 9.589173,-2.759861 2.851347,-1.232265 4.143351,-2.159591 4.7401,-3.402175 0.720647,-1.500567 1.790033,-6.404237 2.218958,-10.175029 0.400143,-3.517766 0.182464,-13.953093 -0.300898,-14.424821 -0.145133,-0.14164 -0.646713,0.469264 -4.415374,5.377749 -1.775141,2.31203 -3.981381,5.030306 -4.902755,6.040615 -1.17064,1.283635 -1.713924,2.026822 -1.803706,2.467383 -0.444898,2.183118 -2.841213,8.930849 -3.67973,10.36167 -0.544108,0.928449 -1.075258,1.50909 -1.380464,1.50909 -0.154954,0 -0.17457,-1.435149 -0.07601,-5.561352 l 0.132836,-5.561354 -1.066293,-1.66021 c -2.638358,-4.107904 -4.00682,-6.118407 -4.206688,-6.180333 -0.385864,-0.119556 -0.570146,0.54895 -1.422828,5.161473 -0.461881,2.498519 -1.157389,5.741895 -1.545572,7.2075 -1.300231,4.909108 -1.521369,6.084746 -1.448084,7.698494 0.063,1.387279 0.104879,1.522317 0.592751,1.911333 0.607571,0.484461 2.459331,1.230232 4.039821,1.626984 1.152899,0.289413 4.002516,0.498941 4.934767,0.362844 l 0,0 z"
     id="path3812"
     inkscape:connector-curvature="0" />
  <path
     style="color:#000000;fill:#de8787;fill-opacity:1;fill-rule:nonzero;stroke:#000000;stroke-width:0.18276912;stroke-linecap:round;stroke-linejoin:round;stroke-miterlimit:4;stroke-opacity:1;stroke-dasharray:none;stroke-dashoffset:0;marker:none;visibility:visible;display:inline;overflow:visible;enable-background:accumulate"
     d="m 33.429185,80.799 c 0.106338,-0.383189 0.286813,-1.190185 0.401055,-1.793323 0.114243,-0.603138 0.303477,-1.200151 0.420522,-1.326695 0.117044,-0.126543 0.993975,-0.398296 1.948736,-0.603895 1.34324,-0.289254 1.851548,-0.329857 2.247045,-0.179489 l 0.511117,0.194326 -0.115225,1.597568 -0.115224,1.597569 1.546574,-1.618984 c 1.479666,-1.548943 8.239005,-10.462298 8.825485,-11.637924 0.414792,-0.831471 0.501259,-1.850198 0.192098,-2.26324 -0.245268,-0.327679 -0.337672,-0.334851 -1.430382,-0.111011 -0.642497,0.131614 -3.211173,0.846712 -5.708171,1.589107 -2.496997,0.742395 -5.782263,1.596599 -7.300593,1.898231 -3.858572,0.766546 -6.641625,1.586153 -7.306057,2.151629 -0.176781,0.150455 -0.414699,0.58488 -0.528703,0.96539 -0.185394,0.618793 -0.155623,0.794147 0.281987,1.66086 0.663682,1.31447 5.448587,8.437834 5.719651,8.514938 0.119581,0.03402 0.303416,-0.25067 0.410085,-0.635057 l 0,0 z"
     id="path3814"
     inkscape:connector-curvature="0" />
  <path
     style="color:#000000;fill:#de8787;fill-opacity:1;fill-rule:nonzero;stroke:#000000;stroke-width:0.18276912;stroke-linecap:round;stroke-linejoin:round;stroke-miterlimit:4;stroke-opacity:1;stroke-dasharray:none;stroke-dashoffset:0;marker:none;visibility:visible;display:inline;overflow:visible;enable-background:accumulate"
     d="m 53.682415,91.063667 c 5.04276,-1.40429 8.064971,-2.96459 11.172803,-5.768267 2.051689,-1.850895 5.340716,-5.305161 6.510928,-6.838031 1.406749,-1.842713 2.251609,-4.458232 2.774774,-8.590149 0.425373,-3.359568 0.07299,-8.026791 -0.930979,-12.330401 -0.358339,-1.536065 -0.574633,-1.720323 -0.839484,-0.715148 -1.402794,5.32396 -2.415635,7.929762 -4.633646,11.921278 -0.610984,1.099522 -1.121755,2.308691 -1.312476,3.107075 -0.721926,3.022088 -3.604017,10.060795 -4.215622,10.295491 -0.595165,0.228387 -0.616107,-0.24645 -0.162219,-3.678101 0.250715,-1.895544 0.455846,-3.901506 0.455846,-4.45769 0,-0.968513 -0.03684,-1.046508 -0.871835,-1.845797 -0.479509,-0.459005 -1.487049,-1.257071 -2.238978,-1.773482 -2.088458,-1.434313 -5.48696,-3.043908 -5.789059,-2.741808 -0.05635,0.05635 -0.173764,3.457203 -0.260908,7.557441 -0.220613,10.379885 -0.407901,12.063585 -1.691726,15.208488 -0.263549,0.645599 -0.47918,1.20076 -0.47918,1.233692 0,0.104545 0.225855,0.05198 2.511761,-0.584591 z"
     id="path3816"
     inkscape:connector-curvature="0" />
  <path
     style="color:#000000;fill:#de8787;fill-opacity:1;fill-rule:nonzero;stroke:#000000;stroke-width:0.18276912;stroke-linecap:round;stroke-linejoin:round;stroke-miterlimit:4;stroke-opacity:1;stroke-dasharray:none;stroke-dashoffset:0;marker:none;visibility:visible;display:inline;overflow:visible;enable-background:accumulate"
     d="m 62.476214,69.683537 -0.06255,-1.964075 1.460798,-0.797199 c 1.952,-1.065262 2.172815,-1.051685 2.565191,0.157728 0.17122,0.527746 0.376236,1.030463 0.455591,1.117148 0.370644,0.404881 2.349606,-3.237494 3.444707,-6.340148 0.859861,-2.436169 1.283928,-4.281374 1.458543,-6.346426 0.195443,-2.31136 0.06454,-2.996539 -0.777398,-4.069146 -0.243528,-0.310249 -0.424575,-0.209964 -2.804631,1.553537 -1.399364,1.036858 -5.274385,3.722035 -8.611158,5.967061 -3.336774,2.245026 -6.311753,4.287929 -6.611065,4.539783 -0.453851,0.38189 -0.544204,0.593153 -0.544204,1.27244 0,0.604605 0.10759,0.922111 0.417472,1.231994 0.229611,0.22961 1.812848,1.144797 3.518306,2.033748 1.705458,0.888951 3.676556,1.998743 4.380217,2.466203 0.703661,0.467461 1.390387,0.915514 1.526057,0.995677 0.202289,0.119523 0.235419,-0.207653 0.184124,-1.818325 l 0,0 z"
     id="path3818"
     inkscape:connector-curvature="0" />
  <path
     style="color:#000000;fill:#de8787;fill-opacity:1;fill-rule:nonzero;stroke:#000000;stroke-width:0.18276912;stroke-linecap:round;stroke-linejoin:round;stroke-miterlimit:4;stroke-opacity:1;stroke-dasharray:none;stroke-dashoffset:0;marker:none;visibility:visible;display:inline;overflow:visible;enable-background:accumulate"
     d="m 49.115404,92.806201 c 0.65138,-0.397154 1.669497,-1.872987 2.343557,-3.397156 1.099731,-2.486689 1.354381,-5.072689 1.405877,-14.276837 0.0308,-5.505357 -0.01471,-7.586013 -0.169325,-7.741535 -0.295674,-0.297404 -0.504378,0.858279 -1.074351,5.949161 -0.258854,2.312029 -0.63116,5.161909 -0.827347,6.333065 -0.420141,2.508073 -2.472394,12.723544 -2.648107,13.181443 -0.163663,0.426501 0.222681,0.407319 0.969696,-0.04814 l 0,0 z"
     id="path3820"
     inkscape:connector-curvature="0" />
  <path
     style="color:#000000;fill:#de8787;fill-opacity:1;fill-rule:nonzero;stroke:#000000;stroke-width:0.18276912;stroke-linecap:round;stroke-linejoin:round;stroke-miterlimit:4;stroke-opacity:1;stroke-dasharray:none;stroke-dashoffset:0;marker:none;visibility:visible;display:inline;overflow:visible;enable-background:accumulate"
     d="m 22.464146,94.815206 c 0.01718,-0.05026 0.385176,-1.448445 0.817767,-3.107075 0.432591,-1.65863 1.088638,-4.139422 1.457883,-5.512872 0.581627,-2.163432 2.014469,-10.363565 1.842328,-10.543613 -0.247603,-0.258977 -2.14374,4.503864 -2.983151,7.49327 -0.98176,3.49636 -1.648761,8.962654 -1.32366,10.847829 0.08668,0.502615 0.171651,0.872723 0.188833,0.822461 z"
     id="path3822"
     inkscape:connector-curvature="0" />
  <path
     style="color:#000000;fill:#ffccaa;fill-opacity:1;fill-rule:nonzero;stroke:#000000;stroke-width:0.18276912;stroke-linecap:round;stroke-linejoin:round;stroke-miterlimit:4;stroke-opacity:1;stroke-dasharray:none;stroke-dashoffset:0;marker:none;visibility:visible;display:inline;overflow:visible;enable-background:accumulate"
     d="m 3.889864,73.479821 c 0.061973,-0.246919 0.242422,-1.634875 0.400998,-3.084346 0.387741,-3.544154 1.489555,-9.91941 2.81409,-16.282726 0.599887,-2.881971 1.262997,-6.541922 1.473578,-8.133226 0.523689,-3.957377 0.990638,-6.425879 1.826507,-9.655738 1.389127,-5.367689 3.689163,-11.447147 6.253692,-16.529769 0.884605,-1.753192 1.608372,-3.288728 1.608372,-3.412302 0,-0.320882 -1.797844,-1.878069 -3.026333,-2.621231 l -1.043089,-0.631006 -0.437113,0.539622 C 12.763775,14.899648 10.330772,20.124911 8.998925,23.895484 4.160817,37.592583 2.878833,43.418147 2.372758,54.005981 2.044845,60.866398 2.76294,72.116406 3.627352,73.661022 c 0.11664,0.208425 0.174798,0.168281 0.262512,-0.181201 l 0,0 z"
     id="path3824"
     inkscape:connector-curvature="0" />
  <path
     style="color:#000000;fill:#ffccaa;fill-opacity:1;fill-rule:nonzero;stroke:#000000;stroke-width:0.18276912;stroke-linecap:round;stroke-linejoin:round;stroke-miterlimit:4;stroke-opacity:1;stroke-dasharray:none;stroke-dashoffset:0;marker:none;visibility:visible;display:inline;overflow:visible;enable-background:accumulate"
     d="m 34.634523,15.63491 c 0.177593,-1.89042 -0.02456,-6.8406748 -0.367986,-9.0111082 -0.151104,-0.9549687 -0.27621,-1.7979913 -0.278013,-1.8733836 -0.0101,-0.4224358 -0.377356,-0.01285 -0.737456,0.8224611 -1.385323,3.2134857 -1.557708,4.5974777 -0.797461,6.4024267 0.263352,0.62524 0.74113,1.995151 1.061729,3.044247 0.320598,1.049096 0.673424,1.937619 0.784056,1.974497 0.127846,0.04261 0.249977,-0.452691 0.335131,-1.35914 z"
     id="path3826"
     inkscape:connector-curvature="0" />
  <path
     style="color:#000000;fill:#ffe680;fill-opacity:1;fill-rule:nonzero;stroke:#000000;stroke-width:0.18276912;stroke-linecap:round;stroke-linejoin:round;stroke-miterlimit:4;stroke-opacity:1;stroke-dasharray:none;stroke-dashoffset:0;marker:none;visibility:visible;display:inline;overflow:visible;enable-background:accumulate"
     d="M 2.93597,73.564306 C 2.93887,73.312999 2.818151,72.408292 2.667661,71.553846 1.190342,63.165931 1.156268,54.859575 2.559703,45.235092 3.819567,36.59518 6.497431,27.900433 11.405224,16.514611 c 0.851032,-1.974349 1.647527,-3.893327 1.769991,-4.264395 0.199394,-0.604167 0.273183,-0.662553 0.706147,-0.558729 1.346921,0.322989 2.98755,1.858292 7.094778,6.6393 1.75271,2.040239 3.378162,3.79674 3.612115,3.903336 0.356891,0.16261 0.67159,0.06993 1.954824,-0.575725 2.311512,-1.163023 6.903411,-3.661986 6.99075,-3.804444 0.168136,-0.274247 -1.33549,-4.658722 -2.215705,-6.460849 C 30.210011,9.1243846 28.415608,6.6275785 27.584284,6.1976839 27.087198,5.9406309 26.679288,5.9109782 25.070813,6.0149687 22.69395,6.1686367 20.606973,6.625331 17.427707,7.6875142 13.57925,8.9732716 13.527543,9.011402 11.58391,11.996866 10.302989,13.964389 9.246558,16.484819 7.251255,22.333694 6.297836,25.128468 5.068021,28.73104 4.518332,30.339408 2.670721,35.745437 1.617925,41.859697 0.741872,52.271703 c -0.284464,3.380873 -0.03009,8.941349 0.664709,14.530146 0.451806,3.634218 1.511307,8.318991 1.529389,6.762457 z"
     id="path3828"
     inkscape:connector-curvature="0" />
  <path
     style="color:#000000;fill:#ffe680;fill-opacity:1;fill-rule:nonzero;stroke:#000000;stroke-width:0.18276912;stroke-linecap:round;stroke-linejoin:round;stroke-miterlimit:4;stroke-opacity:1;stroke-dasharray:none;stroke-dashoffset:0;marker:none;visibility:visible;display:inline;overflow:visible;enable-background:accumulate"
     d="m 37.850681,16.432983 c 2.607445,-0.778701 6.961834,-2.227008 7.254519,-2.412914 0.15651,-0.09941 0.254358,-1.76116 0.347274,-5.8977403 L 45.581839,2.3629983 44.997794,1.8715569 C 44.109468,1.1240799 43.163361,0.94746519 39.952526,0.9297307 37.33982,0.9152999 36.886694,0.9599466 35.700023,1.3487324 l -1.328198,0.4351535 0.110576,0.9356149 c 0.06082,0.5145881 0.242206,1.7169529 0.403085,2.6719216 0.190688,1.1319157 0.328239,3.4488531 0.395159,6.6561446 0.06342,3.039773 0.172496,4.937662 0.285422,4.96648 0.100523,0.02565 1.1286,-0.235826 2.284614,-0.581064 z"
     id="path3830"
     inkscape:connector-curvature="0" />
  <path
     style="color:#000000;fill:#ffe680;fill-opacity:1;fill-rule:nonzero;stroke:#000000;stroke-width:0.25847459;stroke-linecap:round;stroke-linejoin:round;stroke-miterlimit:4;stroke-opacity:1;stroke-dasharray:none;stroke-dashoffset:0;marker:none;visibility:visible;display:inline;overflow:visible;enable-background:accumulate"
     d="m 13.285323,92.076665 c -0.0018,-0.05331 -0.234462,-0.83425 -0.516949,-1.735422 C 11.748798,87.088664 12.264245,80.621067 14.986145,62.513635 16.538952,52.183614 16.711763,51.331038 17.899213,48.142012 20.491946,41.17895 23.89862,35.93904 27.933928,32.707319 31.202215,30.089874 47.09311,22.765588 55.51222,19.996184 c 2.500285,-0.82245 3.839712,-0.924102 5.141904,-0.39023 0.793392,0.325275 0.515815,-0.517722 -0.521373,-1.583397 -2.942443,-3.02326 -8.823743,-4.195911 -14.829412,-2.956781 -3.127364,0.645259 -7.415058,2.05694 -9.678516,3.186557 -0.98309,0.490627 -2.136377,0.974998 -2.56286,1.07638 -1.440187,0.342354 -5.303865,2.456725 -8.865273,4.851459 -7.500322,5.04331 -11.651767,10.62648 -14.128253,19.000725 -3.714376,12.560156 -6.472214,31.632721 -5.647949,39.059877 0.314235,2.831463 1.144825,5.210176 2.307694,6.608968 0.78535,0.94468 4.270815,2.868005 5.720433,3.156608 0.462023,0.09198 0.838541,0.123625 0.836708,0.07032 l 0,0 z"
     id="path3832"
     inkscape:connector-curvature="0" />
  <path
     style="color:#000000;fill:#ffe680;fill-opacity:1;fill-rule:nonzero;stroke:#000000;stroke-width:0.25847459;stroke-linecap:round;stroke-linejoin:round;stroke-miterlimit:4;stroke-opacity:1;stroke-dasharray:none;stroke-dashoffset:0;marker:none;visibility:visible;display:inline;overflow:visible;enable-background:accumulate"
     d="m 25.146479,77.392277 c 0.898535,-2.165097 1.065907,-2.849064 1.065907,-4.355844 0,-1.433999 0.116908,-1.961119 0.591217,-2.665719 0.797234,-1.184307 1.293133,-1.383487 5.75429,-2.311228 3.747882,-0.779406 11.534144,-2.928863 15.296998,-4.222854 1.02806,-0.353534 1.922355,-0.55678 1.987323,-0.451661 0.06497,0.105122 0.191257,3.090689 0.28064,6.634595 0.150155,5.953342 0.216594,6.855718 0.482949,6.559395 0.159153,-0.17706 1.195566,-9.889576 1.195566,-11.203986 0,-0.668382 0.120918,-1.441177 0.268707,-1.717321 0.147788,-0.276146 1.456315,-1.289571 2.907839,-2.252055 5.362619,-3.555884 12.642261,-8.700523 14.031939,-9.916599 1.526497,-1.335803 1.926565,-1.478525 2.433221,-0.868041 0.593004,0.714526 0.77779,0.112165 0.776903,-2.532536 -0.0017,-5.166427 -1.267571,-14.666825 -2.192545,-16.455526 -0.476762,-0.921956 -2.214382,-2.306236 -3.44789,-2.746772 -2.400423,-0.857288 -15.61208,0.191295 -17.534298,1.391662 -0.221498,0.138319 -0.101245,1.17376 0.45691,3.934245 0.416639,2.060585 1.04543,6.130946 1.397313,9.045247 0.911547,7.549442 0.845748,7.237288 1.525535,7.237288 0.318007,0 1.433135,-0.290783 2.478061,-0.646186 2.325067,-0.790806 3.199155,-0.843495 2.988617,-0.180151 -0.428696,1.350702 -5.952934,11.165321 -6.284492,11.165321 -0.07716,0 -0.617524,-0.384481 -1.200809,-0.854404 -0.583285,-0.469922 -2.012644,-1.519497 -3.176352,-2.332389 -1.915047,-1.337727 -4.216794,-3.556865 -4.216794,-4.065453 0,-0.110357 1.657468,-0.749294 3.683263,-1.419859 2.025794,-0.670565 3.828654,-1.334177 4.006356,-1.474693 0.462423,-0.365657 0.404377,-2.532024 -0.192141,-7.170999 C 49.536431,35.939 48.399137,30.8505 47.679994,30.8505 c -0.588776,0 -3.621127,1.166684 -5.74234,2.209342 -5.663359,2.783756 -10.020664,6.742875 -12.329403,11.202701 -2.359619,4.558112 -3.257713,8.471556 -3.65458,15.924821 -0.334771,6.287097 -0.500631,8.187319 -0.91371,10.46822 -0.193093,1.066208 -0.533029,3.276166 -0.75541,4.911017 -0.222381,1.634852 -0.458252,3.29232 -0.524158,3.683263 -0.241901,1.434917 0.347447,0.645093 1.386086,-1.857587 z"
     id="path3834"
     inkscape:connector-curvature="0" />
  <path
     style="color:#000000;fill:#ffe680;fill-opacity:1;fill-rule:nonzero;stroke:#000000;stroke-width:0.18276912;stroke-linecap:round;stroke-linejoin:round;stroke-miterlimit:4;stroke-opacity:1;stroke-dasharray:none;stroke-dashoffset:0;marker:none;visibility:visible;display:inline;overflow:visible;enable-background:accumulate"
     d="m 22.082156,97.732874 c 0,-0.03898 -0.255487,-0.616828 -0.56775,-1.284118 -0.968346,-2.069306 -1.253292,-3.533722 -1.256808,-6.459085 -0.0029,-2.427899 0.08474,-3.099393 1.28835,-9.869532 l 1.291483,-7.264386 0.161504,-8.772918 c 0.08883,-4.825105 0.254364,-9.385182 0.367863,-10.133503 0.279206,-1.840867 0.993798,-4.538718 1.566787,-5.915193 0.605108,-1.453637 3.41208,-6.859974 4.240938,-8.168213 1.120008,-1.76778 5.325571,-5.644947 8.271535,-7.625646 5.157136,-3.467364 11.803055,-5.885495 19.963319,-7.263693 1.542013,-0.260432 6.268675,-0.418442 7.483063,-0.250154 1.955488,0.270989 2.03232,0.186105 0.871537,-0.962867 -1.54266,-1.526965 -5.55617,-3.453937 -7.193882,-3.453937 -0.932925,0 -4.493733,0.975979 -6.87934,1.885553 -2.994035,1.141552 -15.412709,6.551688 -17.917673,7.805748 -4.861494,2.433811 -8.202349,5.245536 -10.743547,9.041965 -1.854542,2.770599 -4.59717,8.759426 -5.489864,11.987721 -1.343695,4.859269 -3.770299,22.253007 -4.781166,34.271086 -0.170108,2.022401 -0.157537,2.582502 0.08106,3.611322 0.565382,2.437874 1.818473,4.139282 4.547302,6.174183 1.729096,1.289396 4.695287,2.960764 4.695287,2.645667 z"
     id="path3836"
     inkscape:connector-curvature="0" />
  <path
     style="color:#000000;fill:#c8b7b7;fill-opacity:1;fill-rule:nonzero;stroke:#000000;stroke-width:0.18276912;stroke-linecap:round;stroke-linejoin:round;stroke-miterlimit:4;stroke-opacity:1;stroke-dasharray:none;stroke-dashoffset:0;marker:none;visibility:visible;display:inline;overflow:visible;enable-background:accumulate"
     d="m 22.347371,96.570047 c -0.549675,-1.260915 -0.82403,-2.95708 -0.716901,-4.432151 0.171061,-2.355364 1.149826,-10.513257 1.644617,-13.707685 1.142175,-7.374032 1.731361,-13.038431 2.271794,-21.84091 0.274238,-4.466728 1.029365,-7.384668 2.932504,-11.331686 3.17783,-6.590672 8.453163,-11.08917 16.997219,-14.49424 1.911184,-0.761666 3.06135,-1.064097 7.036612,-1.850247 5.573252,-1.102169 9.552746,-1.485824 11.918544,-1.149044 1.940772,0.276277 3.759248,0.865675 4.441137,1.439447 1.215594,1.022854 2.512424,4.494217 3.025837,8.09958 0.363216,2.550627 0.99012,10.783925 0.991858,13.026347 0.0014,1.74962 0.223162,2.35912 0.43233,1.188 0.564779,-3.162164 0.587759,-10.980766 0.04312,-14.669816 -0.364491,-2.468828 -1.134955,-5.674154 -1.590435,-6.616621 -0.55236,-1.142925 -2.063164,-2.41169 -4.040265,-3.392991 -2.345096,-1.163949 -3.152684,-1.289346 -7.54582,-1.171663 -3.875055,0.103804 -5.912373,0.425994 -9.402909,1.487012 -5.506634,1.673852 -12.171058,4.939198 -16.312884,7.992773 -4.660205,3.435752 -8.276123,9.755628 -10.229554,17.879151 l -0.549372,2.284614 -0.152112,8.40738 c -0.08366,4.624059 -0.242681,9.135013 -0.35338,10.024342 -0.110698,0.889329 -0.604593,3.726819 -1.097545,6.305535 -1.208932,6.324122 -1.288991,6.933452 -1.288991,9.810666 0,1.894362 0.08782,2.837275 0.365593,3.925196 0.385252,1.508881 1.002975,3.106857 1.201004,3.106857 0.06459,0 0.05469,-0.14393 -0.022,-0.319846 z"
     id="path3838"
     inkscape:connector-curvature="0" />
</svg>
