<?xml version="1.0" encoding="UTF-8" standalone="no"?>
<!-- Created with Inkscape (http://www.inkscape.org/) -->

<svg
   xmlns:dc="http://purl.org/dc/elements/1.1/"
   xmlns:cc="http://creativecommons.org/ns#"
   xmlns:rdf="http://www.w3.org/1999/02/22-rdf-syntax-ns#"
   xmlns:svg="http://www.w3.org/2000/svg"
   xmlns="http://www.w3.org/2000/svg"
   xmlns:sodipodi="http://sodipodi.sourceforge.net/DTD/sodipodi-0.dtd"
   xmlns:inkscape="http://www.inkscape.org/namespaces/inkscape"
   id="svg2"
   version="1.1"
   inkscape:version="0.48.5 r10040"
   width="70"
   height="220"
   sodipodi:docname="trunk7.svg">
  <metadata
     id="metadata8">
    <rdf:RDF>
      <cc:Work
         rdf:about="">
        <dc:format>image/svg+xml</dc:format>
        <dc:type
           rdf:resource="http://purl.org/dc/dcmitype/StillImage" />
        <dc:title />
      </cc:Work>
    </rdf:RDF>
  </metadata>
  <defs
     id="defs6" />
  <sodipodi:namedview
     pagecolor="#ffffff"
     bordercolor="#666666"
     borderopacity="1"
     objecttolerance="10"
     gridtolerance="10"
     guidetolerance="10"
     inkscape:pageopacity="0"
     inkscape:pageshadow="2"
     inkscape:window-width="1366"
     inkscape:window-height="740"
     id="namedview4"
     showgrid="false"
     inkscape:zoom="4.2044444"
     inkscape:cx="-5.9170295"
     inkscape:cy="172.91744"
     inkscape:window-x="0"
     inkscape:window-y="36"
     inkscape:window-maximized="1"
     inkscape:current-layer="g3808" />
  <g
     id="g3808"
     transform="matrix(0.97822954,-0.03443613,0.03370782,0.99936574,-6.7931863,1.0543776)">
    <path
       inkscape:connector-curvature="0"
       id="path2987"
       d="m 0.33851786,200.6282 c 0.22571324,-2.70788 0.75040724,-11.01619 1.16598524,-18.46275 0.780156,-13.97913 1.1363235,-16.27604 2.6966797,-17.39101 0.7789042,-0.5566 0.9891787,-1.68003 1.405641,-7.5097 0.2693392,-3.77036 0.6027457,-8.29532 0.7408874,-10.05543 C 7.4142742,133.62034 8.028632,118.62712 8.032244,106.09899 8.037569,87.585983 7.1534857,76.999363 5.285277,73.205131 4.3027185,71.209619 4.348704,66.545068 5.3713238,64.480587 7.3099387,60.567006 9.064847,59.528936 14.898507,58.844956 c 3.255121,-0.381701 2.973243,0.4323 3.753593,-10.842045 0.281123,-4.061751 0.718848,-9.932894 0.972703,-13.046995 0.253867,-3.113991 0.465101,-7.131852 0.469424,-8.928594 0.01143,-4.763659 0.517266,-5.021279 9.360181,-4.767399 8.017597,0.2299 8.986117,0.5819 8.986117,3.264689 0,1.0131 -0.338077,2.334861 -0.751252,2.936672 -0.678068,0.9878 -1.15995,1.094499 -4.94655,1.096699 -4.05711,0.0024 -7.810552,0.6622 -7.81869,1.37434 -0.0023,0.190302 -0.21687,2.241472 -0.477097,4.558073 -1.066635,9.495424 -2.41449,26.4021 -2.41449,30.285651 0,4.138422 0.68268,5.610113 1.183282,2.550901 0.242768,-1.483569 1.602578,-21.068747 1.917758,-27.62134 0.08637,-1.79608 0.391905,-3.045021 0.81108,-3.315841 1.7523,-1.132011 9.096734,-0.033 13.080112,1.9591 l 1.790632,0.8954 0.232943,-2.02103 c 0.700822,-6.080472 1.268527,-16.229074 0.925732,-16.548624 -0.218152,-0.2035 -1.195447,-0.6303 -2.171782,-0.9482 -4.391498,-1.43077 -12.4395,-7.876228 -13.632442,-10.9179479 -0.736095,-1.8768202 -0.72459,-2.0996875 0.22089,-4.2803202 1.28136,-2.9552674 2.746147,-4.5281501362702 4.216777,-4.5281501362702 1.43292,0 8.503785,5.1315001362702 12.202732,8.8558803362702 1.48257,1.4927079 3.28368,3.7412099 4.00248,4.9965299 l 1.30692,2.2825 -0.948525,3.625608 c -0.613222,2.34399 -1.323075,8.411371 -2.00817,17.164844 -1.538302,19.655028 -1.665525,23.081968 -0.866482,23.340359 0.362505,0.1177 2.722177,0.794199 5.243707,1.504032 2.521545,0.709499 5.94375,1.935559 7.604925,2.72338 3.581647,1.69873 8.06475,5.844302 8.809394,8.146163 0.690075,2.133232 -0.02272,4.908862 -1.869554,7.279802 -0.75819,0.9735 -1.658588,2.79015 -2.000873,4.03733 -0.75915,2.76628 -1.094542,2.3947 6.398557,7.088188 3.119175,1.95371 5.919765,4.026 6.223553,4.60515 0.488921,0.931693 0.346151,9.403679 -0.267375,15.865079 -0.71133,7.49145 -1.490055,12.92864 -4.653863,32.49435 -2.917845,18.04473 -2.586465,16.62034 -4.340789,18.65875 -1.49805,1.74064 -6.38568,3.87321 -11.9226,5.20224 -2.701928,0.6479 -3.043178,1.22815 -1.832663,3.11289 1.941075,3.02225 1.95315,11.23099 0.03675,24.96802 -0.358875,2.57247 -0.795802,6.56041 -0.97095,8.86206 -0.175147,2.30174 -0.79152,5.62496 -1.369695,7.38506 -1.035997,3.15381 -1.0968,3.22322 -4.188097,4.78247 -5.133547,2.58951 -9.713512,3.25094 -20.449897,2.95328 -12.048166,-0.33439 -19.1712997,-1.95788 -23.0398191,-5.25271 -1.56951903,-1.33672 -1.62253578,-1.50073 -1.69948803,-5.25471 -0.0436725,-2.13114 0.10523625,-6.09037 0.33096974,-8.79823 z m 1.90769244,5.86894 c 4.7082892,0.92729 4.1333189,1.2431 5.0422567,-2.76573 2.350463,-10.36686 3.646148,-18.10349 3.760655,-22.45509 l 0.125008,-4.75101 -4.0140893,-1.4135 c -2.2077494,-0.7777 -4.0766579,-1.33617 -4.1531256,-1.24179 -0.076447,0.099 -0.51237,6.3734 -0.9686723,13.95317 -0.4562917,7.57977 -0.9219089,13.87563 -1.0347119,13.99069 -0.11279252,0.1155 -0.20508827,1.15171 -0.20508827,2.30363 0,1.93545 0.10986,2.11596 1.44776767,2.37963 z m -0.6032422,6.5726 c 1.1558505,1.34234 7.2688332,3.79512 11.9441189,4.79271 8.704094,1.85712 22.639701,1.4003 29.013546,-0.95151 3.738675,-1.37918 5.642804,-3.16965 6.424372,-6.04109 0.91911,-3.37666 0.83646,-3.50096 -2.018528,-3.03578 -4.894192,0.7975 -22.395561,1.48952 -29.558666,1.16886 -6.713109,-0.3003 -12.1036845,-0.83709 -15.3222427,-1.52372 -1.30696267,-0.27939 -1.32712567,-0.2464 -1.32712567,2.16305 0,1.62789 0.28250477,2.77431 0.84452547,3.42694 z M 5.7876517,173.6839 c 1.3700168,0.5599 2.9252721,1.1396 3.4561221,1.2881 1.8115262,0.5071 13.9859872,2.32517 17.8558442,2.66728 5.291955,0.4675 17.635762,0.429 21.595919,-0.066 l 3.25749,-0.40809 -0.0075,-2.05326 c -0.01268,-3.49966 0.01598,-3.48898 -7.366919,-2.76617 -5.153258,0.5049 -7.623735,0.5159 -11.781998,0.055 -6.099479,-0.67539 -16.561947,-3.25138 -22.182033,-5.46248 -5.113333,-2.0117 -6.6276377,-1.57346 -7.3849029,2.13752 -0.5564033,2.72667 -0.1192508,3.51428 2.5578696,4.60845 z M 6.1535557,72.184881 c 0.477231,0.586301 0.6744375,0.603901 1.016739,0.088 0.3021713,-0.454301 0.3840613,-0.3564 0.283884,0.3388 -0.31746,2.205061 9.3379563,6.036471 21.9660063,8.716401 6.58119,1.39667 8.21997,1.55958 16.01787,1.59269 7.692795,0.033 9.076432,-0.088 12.093735,-1.056 6.63777,-2.13048 9.055844,-5.2074 7.210327,-9.175102 -1.295025,-2.784211 -1.981582,-3.105412 -2.874105,-1.344532 -1.469557,2.899164 -2.85843,3.247204 -12.810532,3.209914 -10.073527,-0.033 -16.040017,-1.0351 -26.542469,-4.436193 -8.125956,-2.631532 -10.916386,-5.312673 -9.026161,-8.672734 0.722558,-1.28447 0.719183,-1.3816 -0.04798,-1.3816 -1.629728,0 -4.1322415,0.982299 -5.3036935,2.080651 -2.3899903,2.24202 -3.0739257,3.867821 -2.815358,6.692292 0.1318553,1.440341 0.5061697,2.946352 0.8318025,3.346642 z m 0.55662,92.118759 c 2.1221826,1.67222 15.0648473,5.59801 22.5333473,6.83497 4.903477,0.8118 14.731342,0.825 18.124889,0.022 l 2.412968,-0.5698 0.29415,-4.18331 c 0.161805,-2.30076 0.656002,-9.61125 1.098247,-16.24546 1.733288,-26.00225 4.627185,-47.28297 8.260875,-60.747409 0.885308,-3.280538 1.759013,-6.352288 1.941555,-6.826168 0.434108,-1.12695 -0.218355,-1.10077 -4.114695,0.165 -10.365585,3.36743 -35.004644,-0.044 -46.772903,-6.48483 -1.438732,-0.7865 -2.7306422,-1.31351 -2.870908,-1.17051 -0.1402648,0.143 0.0303,3.18868 0.378951,6.76786 1.1930378,12.246308 1.214484,33.694337 0.052725,52.787477 -0.5766635,9.4775 -1.2176323,19.22581 -1.424381,21.66297 -0.5732025,6.75653 -0.5655578,7.47318 0.085178,7.986 z M 40.15486,142.77829 c 0.08507,-0.4059 0.290348,-1.79091 0.456188,-3.07714 0.16584,-1.28623 0.460365,-2.33861 0.654502,-2.33861 0.369998,0 -0.71982,9.83247 -1.13697,10.25806 -0.255405,0.2607 -0.234457,-3.59711 0.02625,-4.84231 z m 2.791073,7.85873 c 0.113295,-0.1254 0.338152,-2.55849 0.49968,-5.4076 0.943717,-16.64543 4.662187,-42.10241 6.600847,-45.19011 0.40929,-0.652299 0.459105,-0.458699 0.22908,0.8899 -0.161678,0.9482 -0.929858,5.45479 -1.707053,10.01572 -1.802182,10.57574 -3.231202,21.89848 -3.831179,30.35606 -0.80343,11.32549 -1.127828,15.28516 -1.241048,15.14821 -0.239685,-0.2893 -0.742477,-5.6001 -0.550327,-5.8124 z m -30.709369,57.02513 4.440568,0.14079 0.539358,-2.04346 c 2.064088,-7.82024 3.850751,-18.9902 3.850751,-24.07418 0,-3.88047 0.487042,-3.46544 -5.237966,-4.46336 -1.686463,-0.2937 -3.148614,-0.451 -3.249223,-0.3476 -0.100597,0.099 -0.383069,2.49821 -0.627685,5.32355 -0.429088,4.95617 -2.2367,14.8146 -3.6500832,19.90717 -0.3757815,1.35398 -0.6434168,3.12641 -0.5947568,3.93876 l 0.088522,1.47697 4.440568,0.1408 z M 14.069676,64.318228 c 0.398132,0.156199 0.723884,0.5126 0.723884,0.792 0,0.5313 1.425653,1.80521 2.051008,1.83227 0.199072,0.0086 0.361948,-0.6281 0.361948,-1.41526 0,-1.21253 -0.165733,-1.401731 -1.085831,-1.239151 -0.856483,0.151801 -0.805515,0.066 0.241295,-0.387199 1.077916,-0.470801 1.327125,-0.8954 1.327125,-2.260612 0,-1.58807 -0.07375,-1.66276 -1.327125,-1.34365 -2.561341,0.6523 -4.082491,3.321012 -2.292304,4.021822 z m 4.70526,143.705492 c 0.597204,0.1518 3.582687,0.21119 6.6344,0.132 l 5.548567,-0.14301 0.554745,-1.73019 c 1.79271,-5.59151 3.208027,-13.88905 3.399952,-19.93279 0.11178,-3.52021 0.02835,-6.65511 -0.185445,-6.9664 -0.327,-0.4763 -8.230919,-0.957 -11.850202,-0.72051 -0.71751,0.044 -0.844537,0.56651 -0.844537,3.45268 0,3.71724 -1.278442,11.804 -3.082194,19.49631 -1.465504,6.24988 -1.460987,6.08487 -0.175286,6.41091 z m 0.725414,-139.897731 1.377433,0.727101 0.579158,-8.701664 c 0.87396,-13.131145 1.9785,-27.187831 2.296162,-29.221732 0.361043,-2.311541 1.57251,-2.779811 8.275747,-3.19814 4.62006,-0.2882 4.964333,-0.381701 4.97046,-1.342882 0.003,-0.5676 0.13182,-1.50909 0.284873,-2.0911 0.25302,-0.962501 -0.03023,-1.129811 -3.11805,-1.846239 -4.054058,-0.9405 -9.971572,-1.0175 -11.651122,-0.1518 -1.18767,0.6127 -1.215233,0.764498 -1.768088,9.716412 -0.308888,5.001812 -0.678556,10.423603 -0.821485,12.048305 -0.142938,1.6247 -0.510062,6.166492 -0.815833,10.092944 -0.305762,3.926341 -0.606262,7.194882 -0.667774,7.263302 -0.06157,0.066 -0.158433,1.441661 -0.215384,3.051621 -0.09791,2.767162 -0.02825,2.966921 1.273903,3.653872 z m 5.755618,1.692681 c 1.13031,0.1639 1.231628,-0.2178 1.803158,-6.799322 0.853972,-9.834004 1.943924,-17.564698 2.583187,-18.322048 0.556635,-0.66 1.675312,-0.8745 5.11722,-0.9845 l 4.404847,-0.140801 0,-2.215511 0,-2.21551 -2.65425,-0.907501 C 35.0503,37.734078 32.205753,37.206078 30.188913,37.060438 l -3.666967,-0.265101 -0.328193,1.665401 c -0.18051,0.9163 -0.643395,7.735093 -1.028647,15.153825 -0.385245,7.418623 -0.822525,13.612945 -0.971745,13.765185 -0.640523,0.653402 0.07493,2.296031 1.062607,2.439472 z M 28.012661,9.7276252 c 2.312924,3.3706278 11.419139,9.4564878 14.167912,9.4686978 1.255515,0.0059 1.335967,0.7689 0.623437,5.912829 -0.542347,3.915672 -1.241197,14.131265 -2.441872,35.694574 -0.271388,4.874212 -0.61713,9.556804 -0.768285,10.405893 -0.284468,1.597643 0.477802,2.651004 1.306582,1.805432 0.245018,-0.2497 0.655118,-3.099692 0.911325,-6.332923 0.256223,-3.23312 0.683265,-7.983142 0.948975,-10.555603 0.265718,-2.572461 0.594488,-5.785013 0.730605,-7.138894 0.213315,-2.12179 0.821048,-9.688253 1.957448,-24.370839 0.157177,-2.030929 0.516292,-4.625169 0.798,-5.764989 0.720449,-2.915118 0.231165,-4.288798 -2.640833,-7.41411 C 40.062513,7.5817451 31.787403,0.98449481 30.494155,0.98449481 c -1.171717,0 -2.127472,0.91959999 -3.326167,3.20022269 -0.91524,1.7413074 -0.672952,3.3312476 0.844673,5.5429077 z M 29.15062,70.86103 c 4.247393,1.160942 9.004268,2.000021 9.338303,1.647361 0.198307,-0.209 0.431407,-1.931712 0.51801,-3.827232 l 0.157447,-3.446301 -4.10202,-0.5786 c -2.256105,-0.3179 -4.792702,-0.5951 -5.63688,-0.616 -1.690762,-0.044 -1.896517,0.3927 -2.018849,4.251941 -0.0633,1.998371 -1.95e-4,2.09132 1.743989,2.568061 z m 1.166955,-7.349432 c 1.371735,0 3.88098,0.2464 5.5761,0.547799 1.695113,0.301401 3.158648,0.467501 3.252278,0.3696 0.09365,-0.099 0.24468,-0.940499 0.335647,-1.87187 0.158505,-1.623271 0.07639,-1.720181 -1.97757,-2.334531 -2.664817,-0.7975 -7.915815,-1.370931 -8.925765,-0.9757 -0.511919,0.2002 -0.754769,0.9339 -0.754769,2.280299 l 0,1.984732 2.494079,0 z m 3.41766,-4.753982 c 2.986028,0.4543 5.566088,0.8239 5.733443,0.8206 0.167355,-0.003 0.445447,-2.387441 0.617955,-5.298373 0.172522,-2.910931 0.444127,-6.732772 0.6036,-8.492883 0.280747,-3.098811 0.26115,-3.174932 -0.617955,-2.40416 -0.626093,0.548899 -2.31858,0.8932 -5.45277,1.10825 -2.499698,0.1716 -4.623983,0.3927 -4.720673,0.4917 -0.224992,0.2299 -1.46073,9.426124 -1.535865,11.430215 l -0.05692,1.51756 5.429153,0.8272 z m 3.476918,149.009464 5.045325,0 0.274777,-1.60006 c 1.109175,-6.45909 2.181908,-17.16287 2.181908,-21.77099 l 0,-5.51408 -3.98136,0.2002 c -5.05524,0.2541 -5.071628,0.2607 -4.838295,1.9305 0.375615,2.68873 -1.270283,16.62167 -2.462648,20.84689 -1.795732,6.36328 -2.08701,5.9081 3.780293,5.9081 z M 49.4215,73.741163 c 3.783427,0.077 7.583835,-0.055 8.445315,-0.2882 l 1.566367,-0.424601 -3.467077,-1.793991 c -1.906898,-0.986701 -5.558993,-2.396902 -8.115773,-3.133683 -5.435234,-1.56629 -5.629934,-1.46608 -5.432954,2.796422 l 0.12513,2.707873 6.878992,0.1364 z m -2.17374,-6.625084 c 2.455177,0.752399 6.356947,2.27634 8.6706,3.38668 3.498442,1.678822 4.331182,1.913232 4.946542,1.392273 2.869928,-2.430013 -3.821227,-7.065524 -13.942702,-9.659324 -3.672315,-0.940502 -4.11735,-0.722702 -4.131,2.02499 -0.0075,1.45068 0.103073,1.52141 4.45656,2.855381 z M 45.31741,207.09949 c 1.128053,-0.1474 2.61687,-0.2783 3.308467,-0.2926 1.210208,-0.022 1.268138,-0.15949 1.54101,-3.59446 0.411173,-5.17628 1.774463,-20.97823 1.996373,-23.13995 0.21252,-2.07042 0.0435,-2.1329 -4.174245,-1.54308 l -2.16834,0.30359 -0.317235,7.45119 c -0.174465,4.09804 -0.718365,9.999 -1.208662,13.113 -1.33863,8.50224 -1.40292,8.01801 1.022632,7.70221 z m 7.650952,-39.95905 c 5.566853,-0.9592 11.337803,-3.63397 12.376215,-5.73552 0.572362,-1.15841 5.913382,-33.01838 6.836707,-40.78196 1.77261,-14.90457 2.056133,-18.13329 1.88898,-21.510289 -0.113025,-2.2836 -0.409125,-3.84802 -0.750262,-3.96407 -0.309945,-0.11 -3.056715,-1.83876 -6.103913,-3.85198 -3.047182,-2.013228 -5.764747,-3.660368 -6.039007,-3.660368 -0.65475,0 -1.64205,3.406048 -1.428555,4.928228 0.126255,0.8998 1.054275,1.70192 3.786675,3.27118 1.99068,1.14334 4.308382,2.70171 5.150437,3.46313 l 1.531028,1.384459 -0.891885,7.38507 c -1.71918,14.23522 -6.278542,43.3112 -7.275142,46.39505 -0.748478,2.31616 -3.851453,4.79468 -7.20399,5.75443 -3.20067,0.9163 -3.46365,1.18657 -3.868065,3.97728 -0.42543,2.93568 -0.167453,3.31738 1.990777,2.94536 z M 51.7537,160.13497 c 0.447607,0.4565 5.109157,-1.0835 6.808432,-2.24906 1.810905,-1.24245 2.288948,-2.19131 3.263258,-6.47735 1.813072,-7.97577 6.135562,-36.34017 6.754739,-44.32485 0.167985,-2.16634 0.411825,-4.50142 0.54186,-5.18925 0.215303,-1.13872 -0.218197,-1.53021 -4.853977,-4.382729 -2.799727,-1.72271 -5.17326,-3.04326 -5.274532,-2.93436 -0.342473,0.3685 -4.099455,24.286029 -4.593878,29.245819 -0.26994,2.70787 -0.92814,10.46221 -1.462695,17.23195 -0.534547,6.76962 -1.048425,13.08384 -1.141957,14.0316 -0.31365,3.17834 -0.32655,4.75717 -0.04125,5.04823 z"
       style="fill:#464646;fill-opacity:1;stroke:#464646;stroke-opacity:1;stroke-width:0.60647228;stroke-miterlimit:4;stroke-dasharray:none" />
    <path
       inkscape:connector-curvature="0"
       id="path3048"
       d="m 29.44759,177.6888 c -3.331975,-0.19277 -9.0859,-0.92637 -15.648177,-1.99508 -3.698129,-0.60227 -4.6285025,-0.83324 -6.8938754,-1.71148 -3.3430084,-1.29603 -3.8857747,-1.84581 -3.7131842,-3.76117 0.2079475,-2.30775 0.9212801,-3.7357 2.1058191,-4.21545 0.8452162,-0.34232 2.4195598,-0.0104 5.8578005,1.23505 3.248296,1.17664 8.299949,2.62224 12.414129,3.55248 8.799468,1.98961 12.881416,2.329 20.35984,1.69283 6.41065,-0.54534 7.268084,-0.4958 7.706619,0.44529 0.108929,0.23376 0.198053,1.27116 0.198053,2.30533 l 0,1.88029 -1.917613,0.21105 c -4.74888,0.52265 -14.654439,0.69727 -20.469411,0.36086 z"
       style="color:#000000;fill:#ff8080;fill-opacity:1;fill-rule:nonzero;stroke:#ff8080;stroke-width:0.17638950000000000;stroke-linecap:round;stroke-linejoin:round;stroke-miterlimit:4;stroke-opacity:1;stroke-dasharray:none;stroke-dashoffset:0;marker:none;visibility:visible;display:inline;overflow:visible;enable-background:accumulate" />
    <path
       inkscape:connector-curvature="0"
       id="path3020"
       d="m 43.730755,206.97652 c -0.329403,-0.20395 -0.189587,-2.25845 0.416466,-6.11971 0.769212,-4.90078 1.363523,-11.74841 1.62955,-18.77561 l 0.119821,-3.16514 1.360433,-0.20225 c 0.748239,-0.11123 2.044131,-0.2475 2.87976,-0.30281 1.303422,-0.0863 1.555756,-0.0576 1.775693,0.20147 0.224342,0.2643 0.115728,1.9342 -0.869456,13.36742 -1.109276,12.87333 -1.250537,14.16404 -1.586079,14.49213 -0.09314,0.0911 -1.283399,0.27607 -2.64501,0.4111 -2.938774,0.29143 -2.769604,0.28631 -3.081178,0.0934 l 0,0 z"
       style="color:#000000;fill:#ffccaa;fill-opacity:1;fill-rule:nonzero;stroke:#464646;stroke-width:0.17638950000000000;stroke-linecap:round;stroke-linejoin:round;stroke-miterlimit:4;stroke-opacity:0;stroke-dasharray:none;stroke-dashoffset:0;marker:none;visibility:visible;display:inline;overflow:visible;enable-background:accumulate" />
    <path
       inkscape:connector-curvature="0"
       id="path3022"
       d="m 18.484099,207.85188 c -0.751669,-0.28794 -0.744547,-0.35796 0.702579,-6.90787 1.777273,-8.04419 2.712795,-13.96018 2.868489,-18.13953 0.110104,-2.95556 0.18459,-3.48588 0.538173,-3.8316 0.33064,-0.3233 3.753667,-0.36617 7.561514,-0.0947 3.374056,0.24053 4.071887,0.34542 4.394131,0.66051 0.43991,0.43013 0.254907,9.42155 -0.269961,13.12046 -0.74433,5.24554 -1.754746,10.01159 -2.893469,13.64826 l -0.532491,1.70058 -6.012754,-0.0122 c -3.307015,-0.007 -6.16731,-0.0715 -6.356211,-0.14382 l 0,0 z"
       style="color:#000000;fill:#ffccaa;fill-opacity:1;fill-rule:nonzero;stroke:#464646;stroke-width:0.17638950000000000;stroke-linecap:round;stroke-linejoin:round;stroke-miterlimit:4;stroke-opacity:0;stroke-dasharray:none;stroke-dashoffset:0;marker:none;visibility:visible;display:inline;overflow:visible;enable-background:accumulate" />
    <path
       inkscape:connector-curvature="0"
       id="path3024"
       d="m 3.0450476,206.55514 c -2.15001075,-0.48154 -2.19977977,-0.55547 -2.07470123,-3.08206 0.0498645,-1.00727 0.17234893,-2.53981 0.27218713,-3.40566 0.099838,-0.86583 0.504191,-6.47776 0.8985619,-12.47092 0.3943707,-5.99317 0.7702066,-11.5086 0.8351905,-12.2565 l 0.1181528,-1.35984 0.5528693,0.11519 c 0.3040781,0.0634 2.0780411,0.64196 3.9421398,1.2858 l 3.3892712,1.17062 0.05933,1.12054 c 0.09278,1.75215 -0.30816,6.92955 -0.789135,10.19031 -0.507458,3.44031 -1.2083862,7.21812 -2.207762,11.89925 -1.5614562,7.31396 -1.5230557,7.2104 -2.6645401,7.18572 -0.3527082,-0.008 -1.4019129,-0.18422 -2.3315655,-0.39245 l 0,0 z"
       style="color:#000000;fill:#ffccaa;fill-opacity:1;fill-rule:nonzero;stroke:#464646;stroke-width:0.17638950000000000;stroke-linecap:round;stroke-linejoin:round;stroke-miterlimit:4;stroke-opacity:0;stroke-dasharray:none;stroke-dashoffset:0;marker:none;visibility:visible;display:inline;overflow:visible;enable-background:accumulate" />
    <path
       inkscape:connector-curvature="0"
       id="path3026"
       d="M 38.45838,82.652505 C 33.496344,82.321574 23.634368,80.123444 16.874079,77.841596 10.791513,75.788505 7.59818,73.960063 7.59818,72.530387 7.59818,71.879742 7.499413,71.828518 7.0358285,72.238733 6.5979127,72.626235 6.2687294,72.342961 5.9281542,71.285541 5.2957364,69.322005 5.2419618,66.947263 5.797128,65.499287 c 0.4943094,-1.289251 1.9694923,-3.027868 3.262313,-3.844891 1.096873,-0.693188 2.71438,-1.280589 4.024006,-1.461325 0.91038,-0.125637 0.94845,0.01487 0.335127,1.236911 -0.974244,1.941164 -0.752682,3.131356 0.874854,4.699542 1.921378,1.851316 5.814296,3.502398 13.105227,5.558248 8.152814,2.298882 12.721495,2.881926 22.575496,2.881053 9.203803,-7.33e-4 10.143624,-0.251709 12.085695,-3.226257 0.370715,-0.567801 0.693234,-0.872092 0.924336,-0.872092 0.740823,0 2.233326,3.203917 2.229855,4.786773 -0.0054,2.476393 -2.85712,4.889192 -7.607766,6.436885 -3.004382,0.978787 -4.071467,1.074898 -11.566627,1.041825 -3.728199,-0.01643 -7.139767,-0.05405 -7.581264,-0.08345 l 0,0 z"
       style="color:#000000;fill:#ff8080;fill-opacity:1;fill-rule:nonzero;stroke:#ff8080;stroke-width:0.17638950000000000;stroke-linecap:round;stroke-linejoin:round;stroke-miterlimit:4;stroke-opacity:1;stroke-dasharray:none;stroke-dashoffset:0;marker:none;visibility:visible;display:inline;overflow:visible;enable-background:accumulate" />
    <path
       inkscape:connector-curvature="0"
       id="path3028"
       d="m 57.90209,71.273119 c -4.767258,-2.07961 -7.177005,-3.048621 -9.811046,-3.945233 -5.451211,-1.855559 -5.173097,-1.673771 -5.173097,-3.381381 0,-1.460412 0.402917,-2.110695 1.306221,-2.10816 0.76759,0.0021 3.573043,0.714156 6.209674,1.575964 6.596404,2.156097 11.457158,5.469627 10.948356,7.463391 -0.32312,1.26616 -1.244143,1.370808 -3.480108,0.395419 z"
       style="color:#000000;fill:#ff8080;fill-opacity:1;fill-rule:nonzero;stroke:#ff8080;stroke-width:0.17638950000000000;stroke-linecap:round;stroke-linejoin:round;stroke-miterlimit:4;stroke-opacity:1;stroke-dasharray:none;stroke-dashoffset:0;marker:none;visibility:visible;display:inline;overflow:visible;enable-background:accumulate" />
    <path
       inkscape:connector-curvature="0"
       id="path3030"
       d="m 35.425875,63.919079 c -1.12827,-0.171239 -3.284372,-0.369176 -4.791337,-0.439862 l -2.739936,-0.128518 0.07137,-1.737363 c 0.08783,-2.13814 0.294416,-2.392861 1.940669,-2.392861 2.535721,0 8.013995,1.010714 9.039553,1.667752 0.343681,0.220184 0.404101,0.411508 0.404101,1.279583 0,0.561379 -0.05017,1.265965 -0.111489,1.565746 -0.106545,0.520889 -0.148074,0.54399 -0.936508,0.520963 -0.453761,-0.01325 -1.74815,-0.164201 -2.876421,-0.33544 z"
       style="color:#000000;fill:#ff8080;fill-opacity:1;fill-rule:nonzero;stroke:#ff8080;stroke-width:0.17638950000000000;stroke-linecap:round;stroke-linejoin:round;stroke-miterlimit:4;stroke-opacity:1;stroke-dasharray:none;stroke-dashoffset:0;marker:none;visibility:visible;display:inline;overflow:visible;enable-background:accumulate" />
    <path
       inkscape:connector-curvature="0"
       id="path3032"
       d="m 16.127682,66.505231 c -0.65632,-0.471335 -0.987011,-0.84344 -1.267669,-1.426423 -0.13508,-0.280588 -0.472385,-0.648143 -0.80096,-0.872794 -0.501539,-0.342907 -0.572168,-0.448841 -0.606761,-0.910068 -0.08907,-1.187605 1.341519,-2.531191 3.176024,-2.982859 0.853395,-0.210112 0.96258,-0.07796 0.962337,1.164727 -2.55e-4,1.308895 -0.214393,1.735823 -1.135024,2.262909 -1.135799,0.650275 -1.147685,0.667568 -0.412682,0.600362 0.898183,-0.08213 1.043858,0.07713 1.041638,1.138746 -0.002,0.967519 -0.0943,1.378682 -0.309403,1.378682 -0.08556,0 -0.376937,-0.158977 -0.6475,-0.353282 z"
       style="color:#000000;fill:#ff8080;fill-opacity:1;fill-rule:nonzero;stroke:#ff8080;stroke-width:0.12472621000000000;stroke-linecap:round;stroke-linejoin:round;stroke-miterlimit:4;stroke-opacity:1;stroke-dasharray:none;stroke-dashoffset:0;marker:none;visibility:visible;display:inline;overflow:visible;enable-background:accumulate" />
    <path
       inkscape:connector-curvature="0"
       id="path3044"
       d="m 51.297408,166.93512 c -0.426604,-0.29217 -0.461356,-1.36975 -0.106633,-3.30659 0.373712,-2.04054 0.69148,-2.34739 3.319579,-3.20564 2.199102,-0.71815 3.445305,-1.34231 4.79545,-2.40179 2.120639,-1.66411 2.663564,-2.59503 3.31407,-5.68243 1.49028,-7.07309 5.535055,-33.82663 7.293691,-48.24298 l 0.414904,-3.40116 -0.37239,-0.41458 c -0.642647,-0.715465 -3.346362,-2.67513 -5.444065,-3.945886 -2.650131,-1.605414 -4.140275,-2.690241 -4.432324,-3.226748 -0.460079,-0.845174 0.122238,-4.285057 0.875654,-5.172699 0.258076,-0.304047 0.515152,-0.160365 6.130988,3.426735 2.35465,1.50403 4.738687,3.018811 5.297856,3.366191 0.844146,0.524414 1.056045,0.758714 1.248679,1.380683 0.35365,1.141852 0.294766,8.249514 -0.09796,11.824674 -1.26313,11.49876 -2.087309,17.619 -3.769822,27.99419 -1.751006,10.79753 -3.955828,23.33841 -4.363238,24.8178 -0.255386,0.92735 -0.868836,1.62753 -2.2008,2.51195 -3.247307,2.1562 -10.743758,4.47264 -11.903638,3.67828 l 0,0 z"
       style="color:#000000;fill:#ff8080;fill-opacity:1;fill-rule:nonzero;stroke:#ff8080;stroke-width:0.17638950000000000;stroke-linecap:round;stroke-linejoin:round;stroke-miterlimit:4;stroke-opacity:1;stroke-dasharray:none;stroke-dashoffset:0;marker:none;visibility:visible;display:inline;overflow:visible;enable-background:accumulate" />
    <path
       inkscape:connector-curvature="0"
       id="path3046"
       d="M 19.458161,218.60717 C 15.077775,218.15786 12.409563,217.59896 8.89226,216.39398 4.3359801,214.83305 1.9866431,213.59547 1.4394681,212.46801 1.0392876,211.64343 0.77938145,209.59726 0.9254906,208.4216 l 0.1162897,-0.93571 0.8242056,0.093 c 0.4533132,0.0512 1.9065896,0.25549 3.2295032,0.45402 5.4828679,0.82286 8.4203049,0.97623 18.4654739,0.96415 11.284836,-0.0136 17.675456,-0.33176 24.733249,-1.23141 1.179602,-0.15036 1.297884,0.13227 0.865333,2.06767 -0.589987,2.63982 -1.616686,4.18434 -3.67725,5.53191 -2.19358,1.43455 -5.651829,2.43602 -10.614098,3.07372 -3.048408,0.39175 -12.25124,0.49218 -15.410036,0.16817 l 0,0 z"
       style="color:#000000;fill:#ff8080;fill-opacity:1;fill-rule:nonzero;stroke:#ff8080;stroke-width:0.17638950000000000;stroke-linecap:round;stroke-linejoin:round;stroke-miterlimit:4;stroke-opacity:1;stroke-dasharray:none;stroke-dashoffset:0;marker:none;visibility:visible;display:inline;overflow:visible;enable-background:accumulate" />
    <path
       inkscape:connector-curvature="0"
       id="path3050"
       d="M 26.905554,170.3584 C 16.989072,168.25398 6.3868695,164.60812 6.4101647,163.31051 6.4163147,162.96793 6.884393,156.24967 7.4503382,148.38105 8.7775625,129.92798 9.288371,97.55884 8.4495823,85.060501 8.1156028,80.084056 7.9356913,75.92115 8.0497783,75.809596 c 0.114087,-0.111555 1.8894877,0.552728 3.9453347,1.476178 13.65319,6.132764 35.32418,8.719172 46.11946,5.504305 1.387492,-0.413204 2.670775,-0.753676 2.85174,-0.756617 0.180963,-0.0029 -0.0015,1.049158 -0.406026,2.337984 -4.608268,14.690962 -8.652194,45.170754 -10.567238,79.647174 -0.281078,5.06025 -0.503778,6.33121 -1.158641,6.61242 -0.445875,0.19147 -4.556908,0.42181 -9.13563,0.51186 -6.784408,0.13344 -9.151808,-0.0117 -12.793224,-0.7845 z m 17.588955,-23.00715 c 1.332249,-15.58823 3.815375,-34.86601 5.826838,-45.23672 0.265219,-1.36741 0.384344,-2.581908 0.264721,-2.698875 -0.577823,-0.564982 -1.875854,3.285545 -2.809265,8.333515 -3.322181,17.96666 -6.172473,50.52638 -4.259346,48.65577 0.121998,-0.11929 0.561672,-4.19345 0.977052,-9.05369 l 0,0 z m -3.566775,-2.54684 c 0.184878,-1.56016 0.467333,-3.89114 0.627678,-5.17997 0.441094,-3.54544 -0.646073,-2.89295 -1.300298,0.78041 -0.67001,3.76197 -0.722788,7.23621 -0.109929,7.23621 0.245524,0 0.597671,-1.27649 0.782549,-2.83665 z"
       style="color:#000000;fill:#ffccaa;fill-opacity:1;fill-rule:nonzero;stroke:#ffccaa;stroke-width:0.49890485000000001;stroke-linecap:round;stroke-linejoin:round;stroke-miterlimit:4;stroke-opacity:1;stroke-dasharray:none;stroke-dashoffset:0;marker:none;visibility:visible;display:inline;overflow:visible;enable-background:accumulate" />
    <path
       inkscape:connector-curvature="0"
       id="path3052"
       d="m 32.635185,206.63298 c 0,-0.38557 0.449972,-2.55356 0.999937,-4.81775 1.105291,-4.55045 2.531859,-15.50958 2.531859,-19.45015 l 0,-2.52845 1.892034,-0.30579 c 1.040618,-0.16818 2.889176,-0.30823 4.107904,-0.31121 l 2.21587,-0.005 -0.270348,7.76995 c -0.148692,4.27348 -0.665961,10.60044 -1.149486,14.05991 l -0.879137,6.28997 -4.724316,0 c -3.746367,0 -4.724317,-0.14512 -4.724317,-0.70105 z"
       style="color:#000000;fill:#ffccaa;fill-opacity:1;fill-rule:nonzero;stroke:#464646;stroke-width:0.49890485000000001;stroke-linecap:round;stroke-linejoin:round;stroke-miterlimit:4;stroke-opacity:0;stroke-dasharray:none;stroke-dashoffset:0;marker:none;visibility:visible;display:inline;overflow:visible;enable-background:accumulate" />
    <path
       inkscape:connector-curvature="0"
       id="path3054"
       d="m 8.035556,205.88314 c 0,-0.89483 0.55638,-4.07361 1.2364013,-7.06396 1.2508277,-5.50043 2.2739327,-11.55767 3.0542147,-18.08233 0.403861,-3.37706 0.473151,-3.57558 1.247997,-3.57558 1.458285,0 6.302787,1.01638 6.811279,1.42901 1.278122,1.03718 -0.25545,14.2218 -2.923012,25.1301 l -0.926755,3.78973 -4.250063,0 -4.250062,0 0,-1.62697 z"
       style="color:#000000;fill:#ffccaa;fill-opacity:1;fill-rule:nonzero;stroke:#464646;stroke-width:0.35277900000000001;stroke-linecap:round;stroke-linejoin:round;stroke-miterlimit:4;stroke-opacity:0;stroke-dasharray:none;stroke-dashoffset:0;marker:none;visibility:visible;display:inline;overflow:visible;enable-background:accumulate" />
    <path
       inkscape:connector-curvature="0"
       id="path3062"
       d="m 40.00965,72.632859 c -0.213836,-0.338307 -0.254823,-1.659361 -0.09108,-2.935686 0.163739,-1.276319 0.754338,-9.868535 1.312441,-19.093812 0.558104,-9.225277 1.238655,-18.961241 1.512337,-21.635473 0.757052,-7.397397 0.669172,-9.67254 -0.385346,-9.976345 -2.144724,-0.617891 -6.480435,-3.007934 -9.467339,-5.218831 -3.686899,-2.729032 -5.795067,-5.4370063 -5.795067,-7.4438531 0,-1.6895309 1.98338,-4.797451 3.066888,-4.8057588 2.01945,-0.015484 12.845848,9.0128939 15.1175,12.6068239 1.086276,1.718573 1.08776,1.759657 0.297852,8.24704 -0.436624,3.585925 -1.034199,9.738843 -1.327944,13.673152 -0.935333,12.527475 -3.077486,34.736025 -3.471346,35.988817 -0.262358,0.834507 -0.500536,1.018485 -0.768893,0.593926 z"
       style="color:#000000;fill:#b3b3b3;fill-opacity:1;fill-rule:nonzero;stroke:#b3b3b3;stroke-width:0.70755100000000004;stroke-linecap:round;stroke-linejoin:round;stroke-miterlimit:4;stroke-opacity:1;stroke-dasharray:none;stroke-dashoffset:0;marker:none;visibility:visible;display:inline;overflow:visible;enable-background:accumulate" />
    <path
       inkscape:connector-curvature="0"
       id="path3064"
       d="m 19.532006,67.978599 c -0.401465,-0.250981 -0.825434,-0.603614 -0.942155,-0.78363 -0.354706,-0.547056 -0.252657,-2.833746 0.530305,-11.882832 0.412636,-4.769057 1.095697,-13.665981 1.517912,-19.770943 0.422216,-6.104963 0.888713,-11.462611 1.036662,-11.905884 0.476456,-1.427522 1.310747,-1.664002 5.77694,-1.63748 5.645929,0.03353 9.78131,0.973375 9.665902,2.196766 -0.1851,1.962168 -0.398732,2.808956 -0.741063,2.937402 -0.21174,0.07945 -2.391591,0.315416 -4.844114,0.524376 -5.922725,0.504631 -7.080628,0.843621 -7.620041,2.230858 -0.388246,0.998471 -2.236974,23.485842 -2.923627,35.562112 -0.110867,1.949844 -0.270237,3.015252 -0.449298,3.003617 -0.152618,-0.0099 -0.605959,-0.22338 -1.007423,-0.474362 l 0,0 z"
       style="color:#000000;fill:#cccccc;fill-opacity:1;fill-rule:nonzero;stroke:#cccccc;stroke-width:0.24945243;stroke-linecap:round;stroke-linejoin:round;stroke-miterlimit:4;stroke-opacity:1;stroke-dasharray:none;stroke-dashoffset:0;marker:none;visibility:visible;display:inline;overflow:visible;enable-background:accumulate" />
    <path
       inkscape:connector-curvature="0"
       id="path3066"
       d="m 24.692197,69.226153 c -0.286029,-0.279672 -0.519122,-0.591745 -0.517983,-0.693494 0.0011,-0.10175 0.111309,-1.128493 0.244822,-2.281653 0.133515,-1.153159 0.535165,-6.979314 0.892558,-12.947009 0.675266,-11.275512 0.994364,-15.277669 1.275156,-15.993141 0.141452,-0.360427 0.406193,-0.399532 1.839499,-0.271714 3.138162,0.279853 6.235257,0.82906 8.434232,1.495638 l 2.195662,0.665575 0,2.143741 0,2.143741 -3.97327,0.131901 c -4.201687,0.139486 -5.157024,0.338272 -5.61091,1.167518 -0.594493,1.086134 -1.571335,8.012712 -2.525596,17.908444 -0.288946,2.996385 -0.613808,5.771368 -0.721915,6.166629 -0.243334,0.889674 -0.847692,1.033175 -1.532255,0.363824 l 0,0 z"
       style="color:#000000;fill:#808080;fill-opacity:1;fill-rule:nonzero;stroke:#808080;stroke-width:0.24945243;stroke-linecap:round;stroke-linejoin:round;stroke-miterlimit:4;stroke-opacity:1;stroke-dasharray:none;stroke-dashoffset:0;marker:none;visibility:visible;display:inline;overflow:visible;enable-background:accumulate" />
    <path
       inkscape:connector-curvature="0"
       id="path3079"
       d="m 45.209385,73.543016 -2.585781,-0.09818 0,-2.79782 c 0,-3.462796 0.09004,-3.584917 2.31232,-3.136112 1.805165,0.364565 6.536444,1.921427 8.661477,2.850123 2.392798,1.045715 5.171559,2.462808 5.171559,2.637355 0,0.08774 -0.312186,0.226716 -0.693746,0.308828 -0.927153,0.199526 -9.623631,0.358916 -12.865829,0.235804 z"
       style="color:#000000;fill:#ffccaa;fill-opacity:1;fill-rule:nonzero;stroke:#ffccaa;stroke-width:0.24945243000000000;stroke-linecap:round;stroke-linejoin:round;stroke-miterlimit:4;stroke-opacity:1;stroke-dasharray:none;stroke-dashoffset:0;marker:none;visibility:visible;display:inline;overflow:visible;enable-background:accumulate" />
    <path
       inkscape:connector-curvature="0"
       id="path3081"
       d="m 34.110809,71.867078 c -1.560181,-0.316863 -3.630505,-0.811869 -4.600719,-1.100013 -2.077841,-0.6171 -2.179133,-0.808525 -1.918116,-3.624933 0.207858,-2.242818 0.317027,-2.541385 1.025547,-2.804778 0.759699,-0.282419 10.482289,0.833292 10.468563,1.201314 -0.05513,1.478239 -0.521514,6.214251 -0.642243,6.521875 -0.212258,0.540844 -0.859753,0.511935 -4.333032,-0.193465 z"
       style="color:#000000;fill:#ffccaa;fill-opacity:1;fill-rule:nonzero;stroke:#ffccaa;stroke-width:0.24945243000000000;stroke-linecap:round;stroke-linejoin:round;stroke-miterlimit:4;stroke-opacity:1;stroke-dasharray:none;stroke-dashoffset:0;marker:none;visibility:visible;display:inline;overflow:visible;enable-background:accumulate" />
  </g>
</svg>
