<svg xmlns="http://www.w3.org/2000/svg" width="900" height="85"><title>Balance</title><path d="M78.72 5.798L32.02 32.65 1 39.791l1.99 33.445 43.787.49 36.398-14.994 735.542 2.693L843.942 74l53.237-.013L899 39.863l-23.776-4.661-35.168-28.424c-254.584 0-506.755 1.219-761.335-.98z" fill="#fff" stroke="#464646" stroke-width="2" stroke-linecap="round" stroke-linejoin="round" transform="matrix(.99977 0 0 1.21398 .102 -5.936)"/><path d="M12.993 81.74l-8.808-.41-.615-10.755c-.337-5.916-.857-14.445-1.155-18.954l-.541-8.199 11.997-3.318c6.598-1.826 13.48-3.785 15.293-4.354 1.813-.57 13.48-8.141 25.926-16.826L77.72 3.132l381.208.393 381.208.392 17.346 17.037 17.346 17.036 11.58 2.789 11.58 2.788-.644 11.83c-.355 6.506-.648 15.302-.65 19.545l-.006 7.716h-52.9l-12.44-7.578-12.44-7.578-367.833-1.705L83.24 64.092l-18.59 9.283-18.592 9.283-12.129-.254c-6.67-.14-16.093-.438-20.937-.663z" style="marker:none" color="#000" fill="#d7d7d7" overflow="visible"/></svg>