<svg xmlns="http://www.w3.org/2000/svg" width="415" height="125"><g transform="matrix(2.0988 0 0 .9991 -2.376 -927.266)" stroke-width="1.039" fill="#fff" stroke="#464646"><path d="M77.007 979.308v37.782c.24 3.08 1.61 6.28 5.864 5.598l41.955-.387c3.295-.013 4.967-1.725 4.94-5.211l.113-37.782H77.007zM111.288 1052.46l-.587-29.17H98.238l.587 29.17M7.129 942.998l.183 14.44 15.461 20.896 152.894.106 17.494-20.763.465-14.767-186.497.088zM6.416 957.726h185.65" stroke-linecap="round" stroke-linejoin="round"/><ellipse cx="155" cy="233" rx="110" ry="24" transform="matrix(.89553 0 0 .89851 -38.808 741.064)" stroke-width="1.158"/></g><path style="marker:none" d="M174.33 42.482C89.045 40.798 23.604 34.289 6.3 25.77c-5.099-2.51-5.436-3.884-1.519-6.18C17.95 11.874 67.21 5.916 142.655 2.915c23.851-.949 105.865-.949 129.716 0 75.618 3.008 125.313 9.036 138.048 16.746 3.713 2.248 3.328 3.636-1.694 6.11-15.02 7.394-65.51 13.255-136.655 15.863-16.994.622-81.023 1.178-97.74.848z" color="#000" fill="#e6e6e6" stroke="#e6e6e6" stroke-width=".241" stroke-linecap="round" stroke-linejoin="round" overflow="visible"/><path style="marker:none" d="M164.627 92.924c-1.022-.323-2.38-1.163-3.016-1.866-1.08-1.193-1.17-2.527-1.333-19.92l-.176-18.64h109.363l-.432 18.854c-.237 10.37-.567 19.085-.732 19.368-1.171 2.005-3.75 2.125-52.988 2.46-30.998.21-49.505.117-50.686-.256z" color="#000" fill="#e9afaf" stroke="#b3b3b3" stroke-width=".241" stroke-linecap="round" stroke-linejoin="round" overflow="visible"/><path style="marker:none" d="M105.669 49.029l-60.215-.157-12.351-7.926c-6.794-4.36-12.27-8.008-12.169-8.109.1-.1 1.261.067 2.58.372 3.909.904 21.106 3.504 29.546 4.467 73.935 8.438 202.398 9.397 286.826 2.143 17.5-1.504 36.405-3.82 46.795-5.734 4.302-.793 7.883-1.38 7.958-1.304.075.075-6.466 3.863-14.536 8.418l-14.673 8.282-99.774-.148c-54.875-.081-126.87-.218-159.987-.304z" color="#000" fill="#ccc" stroke="#ccc" stroke-width=".241" stroke-linecap="round" stroke-linejoin="round" overflow="visible"/><path d="M231.442 124.467h-26.557" fill="none" stroke="#000"/><path style="marker:none" d="M205.795 123.449c0-.576-1.04-25.406-1.113-26.584l-.058-.933h24.515l.056.453c.056.458 1.14 26.348 1.134 27.09l-.003.4h-24.531v-.426z" color="#000" fill="#fca" stroke="#fca" stroke-width=".043" stroke-linecap="round" stroke-linejoin="round" overflow="visible"/></svg>