<svg xmlns="http://www.w3.org/2000/svg" width="120" height="130"><g fill="#faa" stroke-width="1.016"><path d="M347.815 347.803L336.463 187.19c-7.098-24.156-32.691-21.292-40.823.967L285 347.406" transform="matrix(1.87854 0 0 .72087 -534.383 -121.722)" stroke="#464646" stroke-width=".859" stroke-linecap="round" stroke-linejoin="round"/><path d="M1017.383 497.367l-5.505 33.626h67.896l-6.042-34.623c-13.846-16.53-53.814-8.233-56.349.997z" fill="#5fbcd3" stroke="#464646" stroke-width="1.032" stroke-linecap="round" stroke-linejoin="round" transform="matrix(.98038 0 0 .98879 -964.07 -475.374)"/><path d="M1046.126 487.186v11.68" stroke="#464646" stroke-width="3.706" transform="matrix(.98038 0 0 .98879 -964.07 -475.374)"/><path d="M1026.065 490.743l2.524 11.405" stroke="#464646" stroke-width="3.047" transform="matrix(.98038 0 0 .98879 -964.07 -475.374)"/><path d="M1065.934 490.416l-2.474 12.053" stroke="#464646" stroke-width="3.102" transform="matrix(.98038 0 0 .98879 -964.07 -475.374)"/><path d="M68.964 89.606c0-4.388-3.73-7.945-8.33-7.945s-8.329 3.557-8.329 7.945 3.73 7.945 8.33 7.945 8.329-3.557 8.329-7.945z" style="marker:none" color="#000" fill="#916f6f" overflow="visible"/></g><path d="M.982 128.929h118.304" fill="none" stroke="#000"/></svg>