<?xml version="1.0" encoding="UTF-8" standalone="no"?>
<svg
   xmlns:dc="http://purl.org/dc/elements/1.1/"
   xmlns:cc="http://creativecommons.org/ns#"
   xmlns:rdf="http://www.w3.org/1999/02/22-rdf-syntax-ns#"
   xmlns:svg="http://www.w3.org/2000/svg"
   xmlns="http://www.w3.org/2000/svg"
   xmlns:sodipodi="http://sodipodi.sourceforge.net/DTD/sodipodi-0.dtd"
   xmlns:inkscape="http://www.inkscape.org/namespaces/inkscape"
   width="900"
   height="85"
   id="svg2"
   version="1.1"
   inkscape:version="0.48.5 r10040"
   sodipodi:docname="base.svg">
  <defs
     id="defs34" />
  <sodipodi:namedview
     pagecolor="#ffffff"
     bordercolor="#666666"
     borderopacity="1"
     objecttolerance="10"
     gridtolerance="10"
     guidetolerance="10"
     inkscape:pageopacity="0"
     inkscape:pageshadow="2"
     inkscape:window-width="1680"
     inkscape:window-height="974"
     id="namedview32"
     showgrid="false"
     inkscape:zoom="0.98333331"
     inkscape:cx="446.08604"
     inkscape:cy="138.88396"
     inkscape:window-x="1366"
     inkscape:window-y="24"
     inkscape:window-maximized="1"
     inkscape:current-layer="svg2">
    <inkscape:grid
       type="xygrid"
       id="grid3011"
       empspacing="5"
       visible="true"
       enabled="true"
       snapvisiblegridlinesonly="true" />
  </sodipodi:namedview>
  <title
     id="title4">Balance</title>
  <metadata
     id="metadata5512">image/svg+xmlBalance2011-03-22lmproulx<rdf:RDF>
  <cc:Work
     rdf:about="">
    <dc:format>image/svg+xml</dc:format>
    <dc:type
       rdf:resource="http://purl.org/dc/dcmitype/StillImage" />
  </cc:Work>
</rdf:RDF>
</metadata>
  <g
     id="g3778"
     transform="matrix(0.99977388,0,0,1.2139835,0.10175807,-5.9364103)">
    <path
       sodipodi:nodetypes="cccccccccccccc"
       style="fill:#ffffff;stroke:#464646;stroke-width:2.00011706;stroke-linecap:round;stroke-linejoin:round;stroke-miterlimit:4;stroke-opacity:1;stroke-dasharray:none;stroke-dashoffset:0"
       inkscape:connector-curvature="0"
       d="M 78.720637,5.7978372 32.019832,32.650994 1.0002172,39.790904 2.9897973,73.235836 46.777168,73.725294 83.175272,58.731829 818.71693,61.424584 843.94164,73.999903 897.17923,73.987088 899.00002,39.862506 875.22375,35.20196 840.05631,6.7777844 c -254.58447,0 -506.75534,1.2191929 -761.335673,-0.9799767 z"
       id="path5515"
       stroke-miterlimit="4" />
    <path
       inkscape:connector-curvature="0"
       id="path3005"
       d=""
       style="color:#000000;fill:#c8b7b7;fill-opacity:1;fill-rule:nonzero;stroke:#c8b7b7;stroke-width:3.05102611;stroke-linecap:butt;stroke-linejoin:miter;stroke-miterlimit:4;stroke-opacity:1;stroke-dasharray:none;stroke-dashoffset:0;marker:none;visibility:visible;display:inline;overflow:visible;enable-background:accumulate" />
    <path
       inkscape:connector-curvature="0"
       id="path3776"
       d="M 12.893928,72.222631 4.0837227,71.884969 3.4694229,63.024972 C 3.1315579,58.151973 2.6115063,51.126028 2.3137525,47.41176 L 1.7723821,40.658545 13.772156,37.92472 c 6.599876,-1.503604 13.483437,-3.117446 15.296801,-3.586316 1.813364,-0.468869 13.482856,-6.706031 25.932204,-13.86036 L 77.636339,7.4701747 458.93029,7.7935173 l 381.29393,0.3233424 17.35014,14.0334173 17.35013,14.033417 11.58283,2.297165 11.58283,2.297165 -0.64536,9.744323 c -0.35495,5.359377 -0.64773,12.604492 -0.65063,16.100255 l -0.005,6.355932 -26.45632,0 -26.45631,0 L 831.43428,66.735948 818.99229,60.493362 451.07518,59.089038 83.158068,57.684714 64.562898,65.331623 45.967727,72.978534 33.835931,72.769414 C 27.163443,72.654397 17.739542,72.408345 12.893928,72.222631 z"
       style="color:#000000;fill:#d7d7d7;fill-opacity:1;fill-rule:nonzero;stroke:none;stroke-width:1;marker:none;visibility:visible;display:inline;overflow:visible;enable-background:accumulate" />
  </g>
</svg>
