<svg xmlns="http://www.w3.org/2000/svg" width="90" height="90"><path style="marker:none" d="M30.15 87.296c4.893-1.704 6.29-2.327 6.73-2.999.454-.69.564-3.161.161-3.606-.161-.179-2.35-1.339-4.863-2.578-2.514-1.24-4.541-2.282-4.507-2.317.035-.034 2.07.824 4.523 1.909 2.453 1.084 4.619 1.988 4.814 2.009.288.03.377-.09.48-.644.068-.374.129-1.11.134-1.634.014-1.339.198-2.54.373-2.433.08.05.147 2.079.147 4.508 0 3.8.036 4.43.26 4.515.556.214 5.155-1.657 6.505-2.647.901-.66 1.147-1.216.818-1.851-.233-.451-.228-.459.295-.458.712 0 .75-.216.772-4.506.023-4.16-.2-6.96-.678-8.569-.257-.862-.323-1.415-.245-2.045.07-.575-.004-1.402-.226-2.478a66.675 66.675 0 0 1-.617-3.741c-.157-1.17-.43-2.46-.609-2.87a4.68 4.68 0 0 1-.324-1.561c0-1.565-1.951-10.183-2.702-11.936-.186-.432-.495-.943-.688-1.136-.193-.193-.35-.527-.35-.743 0-1.076-1.67-2.669-2.797-2.669-1.098 0-3.548 1.34-4.071 2.226-.388.655-.341 1.77.169 4.045.456 2.033.79 2.911 1.108 2.911.1 0 .405-.159.678-.353l.496-.353-.444.82c-.417.77-.438.922-.345 2.423.077 1.249.171 1.68.425 1.956.208.224.397.82.519 1.629.105.701.372 1.887.592 2.635.31 1.054.402 1.782.408 3.23.007 1.756.51 5.847.892 7.27.176.65.443.796.802.436.273-.272.385-.121.262.35-.056.213-.282.456-.503.54-.36.138-.4.254-.39 1.135.015 1.144.22 2.715.374 2.87.059.059.321.03.583-.065 1.187-.43 1.181-.43.712-.01-.244.219-.687.53-.985.691-.532.29-.54.31-.5 1.451.038 1.112-.064 1.571-.35 1.571-.073 0-.182-1.243-.243-2.763-.11-2.764-.627-7.016-.984-8.096-.202-.614-.802-.946-4.984-2.757-.929-.402-1.605-.759-1.503-.793.102-.034 1.42.401 2.927.967 1.507.566 2.93 1.03 3.16 1.03.394 0 .42-.056.419-.893-.005-2.25-1.687-11.097-2.403-12.632-.176-.378-.533-.813-.793-.967-.26-.154-2.153-.93-4.206-1.724-4.532-1.754-5.548-2.176-5.457-2.267.039-.038 1.972.616 4.297 1.455 4.4 1.587 5.513 1.942 5.652 1.803.165-.166-.539-3.44-1.126-5.232-.48-1.467-.744-1.996-1.311-2.623-.695-.767-.739-.786-1.974-.892-1.099-.095-1.208-.133-.839-.29.234-.1.578-.212.765-.247.204-.039.363-.227.398-.47.054-.379.015-.4-.597-.318-1.325.178-5.962 2.268-7.792 3.512-2.434 1.654-4.105 3.958-4.763 6.567-.361 1.43-.65 5.602-.539 7.79.097 1.925.298 2.499.744 2.129.708-.588 1.031-1.96 1.657-7.029.446-3.618.844-5.843 1.154-6.461.49-.975 2.112-2.256 4.17-3.295 1.223-.617 3.139-1.402 3.222-1.319.034.034-.786.504-1.821 1.044-3.204 1.671-3.91 2.275-3.39 2.9.176.213.09.245-.597.219-.893-.034-1.106.148-1.11.95-.001.274-.156.816-.344 1.204-.244.504-.486 1.864-.849 4.772-.645 5.172-.739 5.605-1.474 6.811-1.44 2.361-1.61 3.502-.732 4.887.457.72.472.781.132.543-.474-.332-1.051-.344-1.313-.029-.155.187-.122.365.148.808.196.322.347.865.348 1.25v.68l-.483-1.021c-.265-.561-.607-1.123-.76-1.25-.25-.206-.219-.282.314-.784.544-.514.59-.634.587-1.557-.005-1.836-.502-1.883-1.473-.138-.309.555-.563 1.238-.565 1.519-.002.323-.222.785-.6 1.261-.33.414-.645.937-.701 1.163-.128.506.395 1.269.978 1.427 1.798.487 1.935.564 2.505 1.42.311.467.617.869.68.892.062.023.327-.337.588-.801.482-.859.893-1.302.683-.738-.062.169-.296.586-.52.928-.728 1.113-.97 2.451-1.29 7.115-.03.421-.069.115-.088-.68-.058-2.428-.345-5.8-.544-6.405-.44-1.33-2.88-1.588-3.758-.396-.582.788-1.334 7.703-1.333 12.252 0 1.931.05 2.366.318 2.806.315.517 3.282 2.625 3.694 2.625.281 0 .377-.332.755-2.606l.316-1.9-.09 2.72-.09 2.721 2.097 1.204c3.172 1.82 5.179 2.615 6.612 2.62.938.003 1.186-.298 1.62-1.968l.395-1.515-.099 1.742c-.055.959-.07 1.734-.035 1.723.036-.011 2.016-.7 4.4-1.531zm9.225-4.687c.163-.043.431-.043.595 0 .164.043.03.078-.298.078-.327 0-.46-.035-.297-.078zm-27.036-1.18c-.618-.166-.44-.403.303-.403.784 0 .999-.293.699-.951-.263-.577-.633-.676-1.315-.351-.495.236-.58.24-.58.028 0-.365.773-.814 1.178-.686.932.296 1.354 1.716.655 2.205-.426.299-.418.297-.94.158zm14.116-2.401c.035-.444.063-.081.063.807 0 .889-.028 1.252-.063.808a12.428 12.428 0 0 1 0-1.615zm17.79.758c.294-.294.406-.015.167.417-.196.357-.226.365-.285.082-.036-.174.017-.398.118-.499zm-28.83-1.183c.047-.117.086-.022.086.212 0 .234-.04.33-.086.213a.656.656 0 0 1 0-.425zm28.945-2.606c-.287-.287-.347-.873-.125-1.223.213-.335 1.21-.567 1.58-.368.447.24.399.944-.099 1.441-.48.48-.971.535-1.356.15zm-5.028-.497c.117-.14.337-.253.489-.25.232.004.224.045-.054.255-.43.325-.706.321-.435-.005zm-13.41-1.446c.005-.62.032-.684.137-.337.072.236.178.81.235 1.276.103.829.1.836-.137.336-.133-.28-.239-.854-.235-1.275zm-13.208-3.818c-.761-.761-.4-2.303.54-2.303h.43l-.524.44c-.57.48-.688 1.14-.301 1.669.36.494.99.279 1.445-.494l.4-.68-.1.584c-.205 1.186-1.112 1.563-1.89.784zm12.725-.815c.041-.21.074-.039.074.382s-.033.593-.074.383c-.04-.21-.04-.555 0-.765zm19.272.204c-.535.203-.592.098-.092-.17.379-.203 1.345.065 1.345.373 0 .084-.181.035-.402-.11-.306-.2-.51-.223-.85-.093zM25.1 63.642c.04-.212.076-.079.078.295.001.374-.032.547-.074.385a1.857 1.857 0 0 1-.004-.68zm1.807-4.888c-.955-.372-2.013-.727-2.35-.787-.76-.137-1.037-.349-1.037-.793 0-.318.024-.325.298-.078.163.148.91.492 1.657.766 1.275.466 3.541 1.543 3.286 1.561-.064.004-.898-.297-1.854-.669zm-3.786-3.823c-.053-.138-.023-.295.066-.35.09-.056.163.057.163.25 0 .41-.095.451-.23.1zm14.247-.181c.367-.278.945-.335.945-.094 0 .201-.315.325-.85.335-.41.008-.413 0-.095-.241zm4.856-1.1c0-.229.113-.34.346-.34.293 0 .318.052.164.34-.1.187-.256.34-.346.34-.09 0-.164-.153-.164-.34zm-20.464-3.48c-.052-.138-.022-.295.067-.35.09-.056.163.057.163.25 0 .41-.095.451-.23.1zm12.54-9.074c.334-.333.373-.018.067.535-.189.343-.21.347-.271.054-.037-.175.056-.44.205-.59zm4.293-.969c.116-.3.723-.664.867-.52.138.138-.473.78-.743.78-.13 0-.182-.108-.124-.26z" color="#000" fill="#abc837" stroke="#464646" stroke-width=".17" stroke-linecap="round" stroke-linejoin="round" overflow="visible"/><path d="M17.987 88.375c-1.379-.962-3.51-2.232-4.735-2.823-3.795-1.83-7.253-4.27-9.44-6.662C.37 75.125-.018 74.173.001 69.52c.014-3.406.295-4.982 1.7-9.528 2.335-7.548 4.156-10.638 9.83-16.673 4.937-5.252 5.69-5.84 8.883-6.949 1.543-.535 2.975-1.363 3.418-1.976.42-.581 1.215-1.481 1.766-2 .775-.73 1.117-1.81 1.505-4.752.648-4.92 1.702-7.793 4.929-13.44C37.929 3.877 41.852.564 48.8.04 55.643-.478 59.634 3.998 64 17.089c1.999 5.993 3.318 8.376 5.1 9.214.575.27 1.52 1.153 2.098 1.961.578.809 1.82 1.902 2.76 2.43 3.566 2.005 9.923 12.092 12.205 19.37.652 2.077 1.577 5.033 2.055 6.568.479 1.535.87 3.226.87 3.758s.206.968.456.968.456.347.456.772c0 .821-3.124 3.953-3.944 3.953-.866 0-6.59 2.594-9.453 4.284-5.426 3.204-14.753 7.008-31.162 12.71-2.323.807-5.22 1.943-6.438 2.525-3.67 1.753-11.9 4.062-15.32 4.3-3.163.22-3.21.207-5.696-1.527zm7.11-.13c.135-.33.428-1.538.652-2.684.392-2.011.398-1.992.179.557l-.227 2.64 4.706-1.61c6.436-2.201 6.584-2.292 6.83-4.196.116-.892.133-1.825.038-2.073s-2.417-1.495-5.158-2.77c-2.742-1.275-4.909-2.39-4.815-2.478.093-.088 2.29.82 4.882 2.018 2.591 1.198 4.867 2.178 5.056 2.178.19 0 .346-1.16.346-2.577s.173-2.577.384-2.577c.212 0 .292 2.126.179 4.725-.136 3.114-.044 4.724.269 4.724.261 0 1.77-.515 3.353-1.146 3.337-1.329 4.703-2.578 3.872-3.544-.44-.511-.392-.573.26-.343.708.25.804-.044.846-2.604.1-5.97-.124-9.314-.711-10.638-.334-.751-.445-1.612-.249-1.911.197-.3.17-1.148-.059-1.884s-.52-2.305-.646-3.486c-.313-2.912-.403-3.35-.815-3.973-.196-.295-.263-.682-.148-.859.232-.358-1.54-8.74-2.451-11.597-.32-1.004-.755-1.825-.966-1.825-.211 0-.384-.297-.384-.66 0-1.288-1.434-2.777-2.673-2.775-1.583.002-4.003 1.422-4.392 2.577-.17.505.041 2.267.47 3.915.77 2.963.79 2.988 1.707 2.224.919-.764.92-.761.196.302-.402.59-.655 1.46-.561 1.933.093.473.186 1.305.205 1.851.019.545.197.897.395.782.198-.115.391.53.43 1.433.038.903.366 2.313.73 3.133.363.82.517 1.709.342 1.976-.175.267-.139 1.791.08 3.387.803 5.827.795 5.796 1.467 5.27.497-.389.572-.31.377.393-.134.484-.448.76-.697.615-.287-.167-.36.422-.2 1.616.14 1.033.265 2.03.278 2.216.013.186.485.106 1.049-.177.93-.467.967-.449.4.2-.344.392-.867.714-1.162.714-.345 0-.47.537-.35 1.503.119.96-.007 1.504-.347 1.504-.293 0-.435-.149-.316-.33.427-.652-.658-10.626-1.206-11.085-.303-.254-1.973-1.016-3.71-1.692-1.738-.677-2.95-1.296-2.694-1.377.256-.08 1.819.426 3.473 1.126 1.916.81 3.07 1.098 3.177.794.22-.62-.778-6.96-1.73-10.99-.706-2.994-.826-3.183-2.412-3.777-5.864-2.196-9.64-3.743-9.487-3.887.097-.092 2.48.722 5.297 1.809 2.816 1.087 5.222 1.88 5.347 1.761.126-.118-.136-1.725-.582-3.572-.966-4.002-2.104-5.466-3.974-5.114-.782.148-1.17.077-1-.182.152-.233.572-.423.934-.423.36 0 .656-.193.656-.43 0-.751-1.093-.472-4.837 1.234-5.117 2.332-7.224 4.469-8.314 8.43-.73 2.655-.833 10.094-.14 10.094.822 0 1.46-2.396 1.9-7.13.254-2.718.743-5.579 1.088-6.357.63-1.419 2.566-2.804 5.925-4.238 2.865-1.223 2.298-.636-.891.923-2.812 1.373-3.588 2.289-2.365 2.79.313.129.006.124-.684-.01-1.2-.234-1.525.1-1.283 1.312.043.215-.133.513-.392.664-.258.15-.667 2.393-.908 4.984-.474 5.092-.662 5.825-1.935 7.558-1.055 1.437-1.072 3.257-.04 4.403.718.796.72.828.02.319-.925-.675-2.088-.23-1.313.5.273.257.478.96.457 1.563-.039 1.07-.049 1.066-.437-.157-.218-.689-.656-1.403-.973-1.588-.434-.252-.382-.405.208-.619.53-.191.785-.759.785-1.741 0-.802-.154-1.456-.342-1.455-.522.005-1.974 2.6-1.694 3.026.135.207-.176.774-.692 1.26-1.187 1.12-.544 2.584 1.134 2.584.74 0 1.322.383 1.75 1.151l.64 1.152.723-1.259c.398-.692.732-1.06.742-.818.01.243-.34.92-.78 1.504-.574.765-.87 2.262-1.057 5.357l-.259 4.295-.082-4.646c-.046-2.555-.295-5.019-.555-5.476-.57-1.005-2.807-1.121-3.629-.188-.564.641-1.3 7.502-1.345 12.528-.023 2.621-.005 2.66 1.89 3.973 1.052.729 2.046 1.326 2.21 1.326.163 0 .514-1.692.78-3.759l.485-3.758-.228 4.168-.229 4.169 2.434 1.458c3.86 2.313 6.989 3.083 7.493 1.845zm1.253-8.418c0-2.008.079-2.83.175-1.825a23.186 23.186 0 0 1 0 3.65c-.096 1.005-.175.183-.175-1.825zm12.973 2.713c.33-.124.722-.108.874.034.151.143-.118.245-.598.226-.531-.02-.64-.122-.276-.26zM11.86 81.156c-.14-.214.155-.288.657-.165.624.154.912.014.912-.444 0-.955-.836-1.313-1.625-.696-.556.435-.624.404-.387-.178.158-.387.547-.705.866-.705.86 0 1.743 1.183 1.44 1.928-.291.713-1.458.876-1.863.26zm32.106-.874c0-.222.203-.522.451-.666.258-.15.335.021.18.404-.304.744-.63.88-.63.262zm.187-4.483c-.37-.906.148-1.555 1.24-1.555.688 0 .88.239.77.962-.17 1.122-1.62 1.55-2.01.593zm1.637-.482c0-.354-.308-.644-.684-.644-.376 0-.684.29-.684.644 0 .355.308.645.684.645.376 0 .684-.29.684-.645zm-19.77-.016c-.157-.384-.261-1.214-.232-1.844.039-.859.141-.715.407.572.378 1.825.295 2.427-.175 1.272zm13.267.178c.31-.294.677-.426.817-.293.14.132-.112.372-.562.533-.65.233-.702.184-.255-.24zm-26.735-5.277c-.717-.814-.21-2.401.767-2.401.632 0 .616.085-.105.582-.517.356-.733.856-.557 1.289.406.995 1.18.876 1.694-.26.431-.955.435-.953.327.102-.127 1.24-1.304 1.621-2.126.688zm12.816-.468c.01-.71.112-.947.227-.53.116.419.108.999-.016 1.29-.125.29-.22-.052-.21-.76zm18.789.214c.071-.92 1.831-.815 1.922.116.051.532.009.564-.141.108-.26-.788-1.373-.866-1.64-.116-.11.308-.17.263-.141-.108zm-19.21-6.013c0-1.063.09-1.498.198-.966.109.531.109 1.401 0 1.933-.108.531-.197.096-.197-.967zm1.928-5.154c-1.003-.457-2.182-.837-2.621-.845-.464-.008-.783-.328-.762-.766.022-.449.129-.535.266-.215.127.296.47.544.762.553.681.02 5.242 2.079 4.634 2.093-.251.006-1.277-.364-2.28-.82zm-3.838-4.116c.022-.5.13-.602.275-.26.132.31.115.68-.036.823-.151.143-.26-.11-.24-.563zm14.093.237c0-.23.307-.416.683-.416.376 0 .684.076.684.169 0 .092-.308.28-.684.416-.376.136-.683.06-.683-.17zm5.013-1.275c0-.237.218-.43.483-.43s.356.193.201.43c-.155.236-.372.43-.483.43-.11 0-.2-.194-.2-.43zM21.67 49.94c.022-.5.13-.602.276-.26.131.31.115.681-.036.824-.152.142-.26-.111-.24-.564zm12.27-8.314c0-.223.203-.523.45-.667.26-.15.336.022.18.404-.303.744-.63.88-.63.263zm4.558-1.272c0-.446.867-1.092 1.124-.837.083.083-.135.4-.486.704-.351.305-.638.365-.638.133zM9.787 77.358c.002-1.831.119-4.392.26-5.692.236-2.187.204-2.298-.445-1.503-1.405 1.725-1.663 1.898-2.42 1.625-.484-.175-.567-.343-.224-.45.352-.112.546-1.197.546-3.06 0-3.325 1.209-6.08 3.866-8.815 1.803-1.854 1.86-1.97.966-1.97-.351 0-1.684 1.078-2.963 2.396-1.279 1.319-2.325 2.273-2.325 2.122 0-.151 1.058-1.328 2.35-2.616 2.336-2.328 2.347-2.35 1.823-3.997-.872-2.743-.711-4.072 1.255-10.362l.47-1.503-1.821 1.933c-2.131 2.261-5.446 8.455-7.331 13.7-1.772 4.928-2.525 10.644-1.817 13.79.487 2.164.805 2.588 3.792 5.047 1.793 1.476 3.43 2.683 3.637 2.683.207 0 .379-1.498.381-3.328zM4.805 67.98c.022-.5.13-.602.276-.26.132.31.115.68-.036.824-.152.142-.26-.111-.24-.564zm1.332-4.449c0-.222.203-.522.45-.667.259-.15.335.022.18.405-.303.744-.63.88-.63.262zm43.207 16.562c.677-.326 3.781-1.403 6.898-2.392 8.022-2.546 8.16-2.627 7.823-4.58l-.275-1.596-6.483-2.237c-3.565-1.23-7.268-2.425-8.23-2.654l-1.747-.418.005 7.235c.002 3.98.179 7.235.392 7.235.213 0 .94-.267 1.618-.593zm20.789-7.84l4.37-1.992-.031-4.344c-.018-2.39-.172-4.667-.342-5.063-.237-.548-1.412.58-4.982 4.784-3.986 4.694-4.672 5.729-4.672 7.053 0 1.05.209 1.553.643 1.553.354 0 2.61-.896 5.014-1.992zM9.091 70.055c.174-.414.837-2.105 1.473-3.759.636-1.653 1.746-4.112 2.466-5.464 1.454-2.726 1.509-2.911.856-2.911-.648 0-5.926 10.517-5.926 11.81 0 1.238.665 1.43 1.13.324zm54.644-1.322c-.484-3.517-1.578-9.817-1.904-10.968-.318-1.12-.846-1.39-6.03-3.08-3.125-1.02-6.865-2.283-8.31-2.809-1.447-.525-2.741-.85-2.877-.722-.136.128.175 2.332.691 4.896.517 2.565.94 5.05.942 5.522.002.472.21 1.562.464 2.421.44 1.493.627 1.612 4.213 2.678 2.064.613 5.6 1.768 7.855 2.565 2.256.798 4.343 1.366 4.638 1.262.334-.117.453-.78.318-1.765zm4.142-2.437a369.31 369.31 0 0 0 4.462-5.3l1.88-2.293-.551-3.03c-.303-1.667-.445-3.132-.314-3.255.131-.123.238.198.238.715 0 .775.19.894 1.09.68 1.25-.295 2.019.493 1.213 1.246-.407.381-.456.307-.206-.31.239-.593.154-.754-.315-.599-.354.117-.614.528-.58.913.035.392-.15.577-.42.42-.304-.177-.369-.005-.176.47.168.412.306 1.102.306 1.533 0 .598.243.727 1.025.543l1.026-.241-1.004.818c-.873.712-.956 1.053-.635 2.624.203.994.267 2.813.141 4.043-.193 1.895-.12 2.197.478 1.981.624-.226.632-.122.068.897-.878 1.586-.803 2.066.19 1.219.458-.391 1.125-.712 1.481-.713.94-.002 3.61-1.62 3.61-2.185 0-.265-.318-.367-.707-.226-.406.146-.588.074-.429-.17.153-.233.543-.424.865-.424.38 0 .587-.6.587-1.702 0-1.027-.181-1.597-.456-1.437-.25.146-.319.055-.15-.2.168-.257.11-.581-.13-.72-.24-.14-.647.088-.905.507-.444.718-.47.719-.484.009-.013-.712.45-.932 1.66-.792.294.034.629-.281.745-.7.115-.42.235.01.265.955l.055 1.718 1.12-1.289c.617-.708 1.488-2.109 1.936-3.112.448-1.003.968-1.825 1.156-1.826.918-.005-.79-8.516-1.928-9.607-.215-.207-.732.27-1.164 1.073a22.527 22.527 0 0 1-1.821 2.763c-1.008 1.27-1.023 1.408-.41 3.866.578 2.311.882 5.923.33 3.912-.136-.499-.471-.69-.923-.527-.56.203-.598.132-.184-.338.287-.327.433-1.25.323-2.05-.11-.8-.214-1.709-.231-2.018-.017-.309-.226-.449-.463-.31-.238.138-.359-.107-.27-.545.28-1.363-.464-3.748-1.123-3.605-.503.109-.505.014-.01-.547.818-.93.297-1.296-.618-.434-.406.383-.738.498-.738.257s.321-.608.713-.815c.93-.49.41-2.842-.552-2.494-.497.18-.536.053-.18-.576.373-.655.31-.786-.33-.696-.435.06-.516.024-.181-.081.412-.13.512-.561.31-1.335-.547-2.09-2.602-6.022-3.276-6.265-.365-.132-.533-.438-.375-.68.16-.243-.146-1.105-.679-1.917-.85-1.297-1.103-1.428-2.083-1.077-1.305.468-1.45.129-.317-.74.728-.56.689-.597-.456-.43-1.463.214-1.703-.345-.296-.692 1.398-.345.6-1.158-1.098-1.12-2.115.047-4.622 1.006-4.793 1.832-.22 1.065 1.015 1.297 2.656.497.798-.389 1.568-.597 1.71-.463.143.135-.389.458-1.182.718-.792.26-1.44.616-1.44.79 0 .648.618.866 1.19.418.746-.583 1.56-.136 1.491.818-.048.655-.073.652-.261-.026-.115-.413-.387-.751-.604-.751-.596 0-.978.766-.516 1.035.223.13.533.84.69 1.58.256 1.209.411 1.317 1.54 1.07.833-.183 1.044-.143.627.12-.365.229-.479.622-.272.938.233.354.173.437-.17.237-.723-.421-.678-.257.547 2.025.59 1.099 1.239 1.856 1.44 1.684.203-.173.232-.088.064.187-.587.967.52 2.72 1.715 2.72.618 0 1.25.192 1.403.425.154.235-.011.32-.37.19-.798-.288-1.168.872-.875 2.749.176 1.13.332 1.291.856.882.51-.4.586-.366.369.166-.15.368-.001.753.331.858.332.105.244.14-.194.078-.478-.068-.81.173-.83.599-.017.391-.334-.255-.705-1.436-.37-1.182-.774-2.425-.897-2.763-.14-.386-1.009.495-2.33 2.362-1.158 1.638-3.12 4.13-4.36 5.54-2.173 2.468-2.244 2.633-1.939 4.51.24 1.473 1.375 8.896 1.576 10.302.038.27.481-.2 3.428-3.63zm8.684-2.861c.193-.477.012-.782-.543-.917-.712-.173-.721-.21-.06-.252 1.018-.066 1.521.755.849 1.383-.407.381-.466.33-.246-.214zm-1.146-3.965c0-.093.318-.284.707-.424.406-.147.589-.075.43.168-.268.408-1.137.604-1.137.256zm-5.013-17.884c0-.23.307-.416.683-.416.376 0 .684.076.684.168 0 .093-.308.28-.684.417-.376.135-.683.06-.683-.17zm3.19-.333c0-.224.308-.648.684-.942.376-.294.683-.401.683-.237 0 .164-.307.588-.683.942-.376.355-.684.461-.684.237zM71.313 36.9c0-.222.203-.522.45-.667.259-.15.335.022.18.404-.303.745-.63.88-.63.263zM11.45 60.208c-.25-.235-2.464 2.923-3.009 4.292-.264.665-.47 1.631-.455 2.148.015.548.774-.563 1.827-2.674.99-1.986 1.727-3.68 1.637-3.766zm73.5 4.958c2.87-1.52 3.266-1.936 3.005-3.16-.101-.475-.31-1.78-.465-2.903-.154-1.122-.422-2.039-.594-2.037-.173.002-.798.823-1.39 1.826a55.91 55.91 0 0 1-2.175 3.362c-1.354 1.897-2.145 4.258-1.426 4.258.275 0 1.646-.606 3.045-1.346zm-70.837-8.103c.155-.236.064-.43-.201-.43s-.483.194-.483.43.09.43.201.43c.11 0 .328-.194.483-.43zm1.408-2.038c-.498-.47-.84.277-.482 1.053.339.736.363.735.552-.015.109-.432.077-.9-.07-1.038zm49.447-.886c2.88-3.374 5.89-7.646 5.89-8.362 0-.327-1.038-2.54-2.305-4.918-2.09-3.92-2.44-4.344-3.76-4.552-1.573-.247-1.388-.402-5.01 4.178-1.086 1.371-1.657 2.51-1.53 3.048.11.472.326 1.536.478 2.362.219 1.187.194 1.273-.116.405-.552-1.54-1.477-3.13-2.069-3.56-.314-.226-.223-.279.242-.14.53.159 1.482-.751 3.336-3.19l2.592-3.414-1.17-1.311c-.645-.721-1.172-1.575-1.172-1.898 0-.322-.16-.679-.355-.793-.582-.339-17.81 2.567-18.408 3.104-.847.763-.725 3.487.292 6.502.598 1.772 1.325 4.352 1.618 5.733l.53 2.51 2.579 1.048c1.418.576 2.988 1.22 3.49 1.433 1.89.802 10.738 3.567 10.894 3.405.09-.093-.325-1.705-.922-3.582-.596-1.876-1.069-3.712-1.049-4.08.02-.368.102-.475.183-.239.08.236.708 2.17 1.393 4.295 1.371 4.252 1.488 4.521 1.947 4.486.173-.013 1.254-1.125 2.402-2.47zM53.766 41.8c-1.14-.517-1.178-.576-.228-.357 1.291.297 2.743.994 2.05.985-.25-.004-1.07-.286-1.822-.627zm-4.102-1.257c-1.76-.76-.942-.77 1.14-.016.876.319 1.287.585.91.592-.375.008-1.298-.252-2.05-.576zM13.2 52.156c.763-7.627 3.183-12 7.694-13.9.721-.305 1.193-.665 1.049-.802-.428-.403-6.1 2.773-7.105 3.978-2.183 2.616-4.163 11.646-3.094 14.115.577 1.335 1.106.103 1.456-3.39zm.677 3.081c-.006-.781-.091-.843-.449-.322-.57.833-.57 1.289 0 1.289.251 0 .453-.435.45-.967zm1.129-3.415c-.107-.52.056-1.092.362-1.27.34-.198.16-.295-.464-.251-1.152.082-1.266.345-.473 1.092.425.401.4.517-.114.522-.562.006-.559.069.023.423.906.552.887.567.666-.516zm67.41-3.401c1.408-2.291 1.433-2.182-1.682-7.358-1.94-3.224-2.362-3.683-2.96-3.222-.604.465-.631.424-.202-.308.373-.634.339-1.134-.135-1.997-.639-1.165-4.15-4.244-4.84-4.244-.789 0-.311 1.855 1.21 4.703 1.507 2.819 2.519 4.046 2.519 3.053 0-.25.206-.454.46-.454.277 0 .241.328-.09.83-.457.687-.27 1.624 1.095 5.476.905 2.555 1.777 5.206 1.938 5.89.335 1.418.393 1.367 2.687-2.369zm-66.709.65c0-.093-.307-.169-.683-.169-.376 0-.684.187-.684.416 0 .229.308.305.684.169.376-.136.683-.323.683-.416zm0-1.672c0-.327-.203-.712-.45-.856-.259-.15-.335.022-.18.404.15.367.034.666-.26.666-.292 0-.402.197-.245.437.368.561 1.135.121 1.135-.651zm.057-2.048c-.45-.42-.503-.371-.255.24.17.424.426.663.566.53.14-.132 0-.478-.311-.77zm1.173-1.514c.36-.215.4-.542.12-.96-.361-.538-.425-.526-.431.083-.004.394-.264.814-.577.933-.313.119-.365.229-.114.244.25.015.701-.12 1.002-.3zm16.217-5.077c.154-.145-.148-.808-.67-1.474-.799-1.018-.9-1.565-.638-3.43.243-1.725.18-2.18-.279-2.038-.923.285-1.666 2.914-1.23 4.349.586 1.922 2.075 3.293 2.817 2.593zm3.397-2.078c1.82-.626 2.588-1.325 1.034-.94-1.447.357-3.147.638-2.393.395 1.266-.408.508-1.036-.912-.754-1.94.385-2.688 1.053-1.23 1.097.614.019.859.132.544.251-.315.12-.448.408-.296.64.152.232.615.286 1.028.12.414-.166 1.415-.53 2.225-.809zm3.777-2.793c-.296-.673-1.034-1.663-1.64-2.2-1.032-.913-1.103-.923-1.089-.15.008.455.316 1.202.684 1.66.368.459.669 1.338.669 1.955 0 .616.254 1.36.564 1.652.881.83 1.493-1.367.812-2.917zM25.566 36.18c.97-.382 2.254-.87 2.853-1.086.599-.214.98-.493.847-.618s-1.007.073-1.942.441c-2.148.846-2.216.84-1.247-.121.439-.435.933-.725 1.097-.643.62.304 2.13-.545 3.29-1.852 1.041-1.174 1.153-1.572.838-3l-.363-1.648-1.493 2.459c-.82 1.352-1.364 2.653-1.207 2.893.156.239-.035.434-.426.434-.39 0-.717-.338-.725-.751-.011-.594-.255-.494-1.163.479-.631.677-1.077 1.546-.99 1.932.087.387-.261.937-.774 1.224-1.321.74-.665.673 1.405-.143zm40.278-.395c0-.128-.82-.99-1.823-1.916-1.257-1.16-1.826-2.057-1.83-2.882-.004-.66-.198-1.482-.43-1.828-.337-.502-.526-.374-.93.627-1.008 2.5 1.47 6.154 4.215 6.213.439.01.798-.087.798-.214zm-27.926-.887c-.152-.143-.545-.158-.874-.034-.363.137-.255.239.276.26.48.018.75-.083.598-.226zm-4.207-1.03c.155-.235-.038-.429-.428-.429-.391 0-.711.194-.711.43s.193.43.429.43.555-.194.71-.43zm11.544-.198c1.744-.346 4.475-.828 6.069-1.072 1.594-.243 3.41-.548 4.037-.678.627-.13 1.96-.4 2.962-.6l1.824-.364-1.79-.047c-2.721-.071-19.272 3.238-16.813 3.362.297.015 1.967-.256 3.711-.601zm-8.325-2.153c.163-.821.07-2.722-.207-4.223-.278-1.502-.45-3.197-.458-3.769-.095-5.951.333.574.683 2.544.666 3.74 1.877 5.512 3.372 4.932 1.54-.596 6.45-1.438 11.167-1.914 2.757-.277 5.063-.538 5.124-.579.061-.04-.306-2.862-.816-6.269s-.808-6.674-.792-7.269c.052-1.916.517 1.825.983 5.369.467 3.544.998 6.703 1.18 7.02.212.371.707-.37 1.382-2.073l1.052-2.65-.992-4.068c-.283-1.163-2.466-5.025-2.983-6.922-.86-3.158-1.88-4.147-1.144-1.726.233.767.4 1.975.37 2.685 1.027 5.958-.464.545-.465-1.053 0-2.988-2.157-6.35-3.729-7.75-.663-.59-1.209-1.254-1.213-1.476.07-.593 2.778 2.06 4.628 4.61.994 1.369 2.388 3.882 3.098 5.584 1.18 2.83 1.725 4.793 3.167 11.414.613 2.813 1.7 5.06 2.606 5.388.647.234 4.268-1.228 4.268-1.724 0-.132-.695-1.53-1.545-3.105-.85-1.576-2.306-5.282-3.235-8.234-2.11-6.707-3.747-9.972-6.268-12.5-2.625-2.63-4.487-3.192-8.46-2.55-3.43.555-5.81 1.811-8.522 4.5-2.918 2.894-4.47 5.293-5.825 9.008-.696 1.911-2.11 6.62-1.016 2.293.503-1.993-.219-1.315-1.787 1.933-1.618 3.351-3.182 9.61-2.925 11.704.153 1.248.208 1.207 1.722-1.288 1.132-1.866 1.619-3.259 1.764-5.047.319-3.933.77-2.862.816 1.935.022 2.42.274 4.932.558 5.582.442 1.009.782 1.18 2.33 1.18 1.71 0 1.832-.085 2.112-1.492zm-3.127.792c-.176-.166-.306-.704-.29-1.196.027-.843.053-.837.451.099.541 1.27 1.5.76 1.214-.647-.137-.676-.056-.908.224-.644.647.61.243 2.416-.573 2.562-.389.07-.85-.008-1.026-.174zm29.484-4.636c-.415-1.019.172-2.047 1.074-1.884.505.092.8.537.8 1.208 0 1.224-1.44 1.743-1.874.676zm1.417-1.106c-.22-.336-.482-.361-.786-.075-.25.236-.307.657-.125.934.22.336.482.361.786.075.251-.236.307-.657.125-.934zm-32.929-6.658c.005-.944.609-2.98.208-.746-.097.537.105 1.307-.01 1.718-1.282 3.769-.203-.027-.198-.972zm4.549-.214c0-.827.094-1.165.208-.752.115.413.064 1.08 0 1.503-.445 2.969-.208.076-.208-.751zm.342-2.064a23.33 23.33 0 0 1 .915-3.006c1.92-4.845.632-1.001-.496 2.58-.535 1.699-.947 2.833-.42.426zm1.661-5.054c0-1.143 4.035-7.31 5.315-7.977 4.094-2.132.504-.012-.609 1.073-.889.867-2.186 2.637-2.883 3.933-1.145 2.131-1.823 3.633-1.823 2.971zm6.551-8.556c0-.294 4.444-1.91 4.652-1.713.099.093-2.083.803-3.063 1.196-.89.357-1.589.626-1.589.517zm-1.131 28.572c-.329-.5 1.63-1.026 3.954-1.061.971-.015 1.514-.186 1.284-.405-.502-.476-7.662.537-8.057 1.14-.185.28.146.336.92.153.714-.169 1.207-.107 1.207.152 0 .24.217.438.483.438.265 0 .36-.188.209-.417zm27.887-1.921c-.289-1.675-2.013-4.105-2.913-4.105-.916 0-.717.817.541 2.226.627.702 1.14 1.616 1.14 2.03 0 .84.384 1.328 1.047 1.328.246 0 .327-.65.185-1.48zm-17.223-.494c.105-.096-.562-.175-1.48-.175-.92 0-1.672.177-1.672.392 0 .363 2.725.175 3.152-.217zm12.458-.445c.94-.148 1.71-.438 1.71-.644 0-.6-1.436-.393-3.647.524-1.128.468-1.538.747-.911.62a83.42 83.42 0 0 1 2.848-.5zm-7.178-.16c.772-.312.702-.365-.456-.348a15.14 15.14 0 0 0-2.735.349c-1.306.313-1.286.328.456.348 1.003.011 2.233-.145 2.735-.348zm.86-1.21c.128-.194-.044-1.209-.38-2.256l-.612-1.902-.5 1.2c-1.166 2.797-1.15 3.31.1 3.31.639 0 1.266-.159 1.393-.353z" fill="#464646"/><path style="marker:none" d="M9.647 80.048c.055-.35.177-2.474.271-4.719.094-2.244.217-4.328.274-4.632.214-1.156-.041-1.149-1.17.031-1.043 1.09-1.459 1.29-1.99.953-.213-.134-.204-.205.06-.498.25-.274.338-.798.456-2.688.26-4.173.933-5.71 4.015-9.18 1.199-1.349 1.405-1.66 1.182-1.785-.448-.251-1.245.295-3.176 2.179-1.966 1.917-2.741 2.418-1.083.7.565-.585 1.461-1.545 1.993-2.135 1.119-1.24 1.156-1.451.627-3.519-.575-2.25-.417-3.588.957-8.133.42-1.388.736-2.603.703-2.7-.113-.341-2.603 2.572-3.688 4.315-2.26 3.631-4.395 8.141-5.642 11.92-1.067 3.235-1.52 5.736-1.626 8.966-.143 4.397.286 5.7 2.534 7.688 1.994 1.765 4.764 3.875 5.087 3.875.063 0 .16-.287.216-.638zM4.815 68.069c0-.275.05-.324.19-.185.103.104.137.273.074.374-.176.285-.264.222-.264-.189zm1.36-4.398c0-.284.336-.84.508-.84.088 0 .079.22-.023.511-.171.49-.485.704-.485.329zM63.706 70.235c.2-.52.118-1.312-.563-5.448-.907-5.503-1.269-7.185-1.663-7.714-.188-.253-.842-.66-1.506-.939-1.46-.612-13.949-4.806-14.77-4.96l-.6-.112v.669c0 .368.271 2.155.603 3.972.332 1.817.754 4.28.938 5.474.355 2.301.714 3.6 1.125 4.064.35.396 1.159.687 8.386 3.028 6.752 2.187 7.862 2.458 8.05 1.966zM63.767 55.463c1.362-1.397 2.806-3.163 4.664-5.703 1.706-2.333 2.4-3.497 2.4-4.025 0-.844-3.866-8.11-4.715-8.863-.583-.517-2.15-.829-2.679-.533-.861.481-4.203 4.583-4.89 6.002-.42.867-.426.626.096 3.487.043.234-.141-.034-.41-.595a12.453 12.453 0 0 0-1.106-1.828c-.618-.806-.618-.807-.198-.807.552 0 1.773-1.28 4.055-4.251l1.763-2.296-.357-.44-1.077-1.328c-.395-.489-.8-1.186-.897-1.55-.098-.365-.256-.71-.35-.769-.414-.256-13.723 1.866-17.28 2.755-1.544.386-1.671.592-1.654 2.67.013 1.506.107 2.034.742 4.188.971 3.297 1.64 5.809 1.888 7.097.112.582.29 1.125.395 1.206.333.254 6.915 2.864 8.863 3.514 2.86.954 7.373 2.296 7.72 2.296.393 0 .339-.303-.714-3.995-1.43-5.015-1.294-5.21.288-.412 1.41 4.28 1.767 5.207 2.04 5.312.128.05.74-.44 1.413-1.132zM53.7 41.68c-.551-.318-.463-.304.891.14.49.162.933.361.984.444.128.207-1.247-.221-1.875-.584zm-3.965-1.16c-.497-.185-.866-.374-.82-.42.103-.103 1.705.373 2.405.714l.51.25-.595-.104c-.328-.057-1.002-.255-1.5-.44z" color="#000" fill="#abc837" stroke="#464646" stroke-width=".17" stroke-linecap="round" stroke-linejoin="round" overflow="visible"/><path style="marker:none" d="M65.916 68.57c1.122-1.235 5.83-6.778 7.66-9.019l.663-.81-.361-2.163c-.199-1.19-.392-2.584-.429-3.098-.037-.514-.032-.706.01-.426.12.779.34.948 1.082.83 1.24-.199 2.054.343 1.419.944-.26.246-.274.231-.176-.19.06-.251.031-.504-.062-.562-.246-.152-1.022.687-1.022 1.104 0 .201-.095.334-.218.305-.287-.066-.323.137-.188 1.056.213 1.457.314 1.584 1.176 1.487l.763-.086-.791.737-.792.737.138.9c.076.495.15 2.24.163 3.876l.026 2.976.457.054c.56.066.563.148.033 1.076-.384.672-.569 1.505-.333 1.505.051 0 .377-.193.722-.429.346-.236 1.135-.58 1.753-.765 1.143-.342 2.077-.873 2.908-1.655.546-.512.477-.721-.237-.721-.444 0-.49-.038-.31-.255a.782.782 0 0 1 .526-.256c.473 0 .665-.532.665-1.85 0-.846-.07-1.233-.239-1.33-.131-.074-.265-.32-.297-.547-.088-.615-.43-.618-.997-.01l-.507.543v-.437c0-.536.426-.79 1.328-.79.503 0 .737-.095.937-.382.253-.362.268-.312.276.935.005.737.082 1.318.175 1.318.321 0 1.871-2.148 2.93-4.06.588-1.063 1.166-1.97 1.282-2.015.139-.054.213-.448.212-1.127-.001-2.822-1.593-8.526-2.379-8.526-.14 0-.998 1.11-1.907 2.465-1.917 2.859-1.886 2.712-1.237 5.866.23 1.123.42 2.345.421 2.716.002.67 0 .672-.272.284-.205-.291-.378-.365-.68-.29-.482.122-.481.128-.13-.574.224-.45.253-.839.155-2.091-.142-1.808-.2-2-.598-2-.257 0-.313-.205-.381-1.403-.087-1.518-.487-2.605-1.019-2.774-.303-.097-.302-.121.03-.66.19-.307.346-.608.346-.667 0-.228-.458-.089-1.065.324-.777.528-.856.203-.104-.424.443-.37.529-.56.52-1.151-.013-.994-.274-1.407-.887-1.407-.584 0-.59-.019-.238-.701.252-.488.248-.52-.075-.604-.278-.073-.307-.146-.157-.386.426-.682-1.788-5.787-3.061-7.06-.416-.416-.599-.762-.624-1.18-.044-.72-1.015-2.373-1.569-2.67-.305-.162-.612-.173-1.248-.043-1.007.206-1.141-.043-.333-.618.766-.546.645-.722-.405-.59-1.196.149-1.374-.135-.365-.581 1.485-.657.605-1.335-1.492-1.15-2.663.235-4.556 1.215-4.302 2.226.179.713.82.739 2.618.103.87-.307 1.626-.515 1.68-.46.084.084-1.695.962-1.95.962-.052 0-.231.124-.399.276-.232.21-.265.353-.135.595.21.393.486.4 1.254.034.566-.27.616-.268.941.027.19.17.341.47.337.667-.006.314-.036.301-.26-.112-.281-.517-.765-.608-1.1-.205-.18.218-.156.372.137.893.194.347.445.991.556 1.433.265 1.053.494 1.224 1.462 1.09.682-.093.756-.074.573.147-.116.14-.174.444-.13.677.073.378.037.412-.34.318-.408-.103-.396-.058.382 1.449.442.855 1.027 1.794 1.3 2.086.326.35.462.64.397.845-.055.172.052.654.236 1.07.365.827.883 1.183 1.984 1.366.901.15 1.369.43.723.434-.778.004-1.04.618-.946 2.222.09 1.568.254 1.846.907 1.549.407-.186.433-.174.33.149-.06.192-.018.46.094.596.164.198.153.247-.059.247-.145 0-.387.124-.539.276-.151.151-.302.247-.336.212-.033-.034-.338-.904-.678-1.933a395.33 395.33 0 0 0-.692-2.087c-.15-.428-.78.203-2.593 2.597a179.23 179.23 0 0 1-3.692 4.676c-2.323 2.823-2.516 3.125-2.516 3.937 0 .914 1.634 11.536 1.775 11.536.064 0 .69-.63 1.39-1.402zm10.698-5.21c.1-.38-.01-.574-.47-.835-.327-.186-.327-.193-.012-.198.367-.006.948.455.948.752 0 .187-.33.603-.479.603-.039 0-.033-.145.013-.321zm-1.064-3.91c0-.18.421-.361.821-.353.245.004.239.04-.046.255-.369.278-.775.33-.775.097zm-5.06-17.915c.039-.117.332-.233.652-.258.55-.043.563-.031.252.212-.4.313-1.001.343-.904.046zm3.19-.453c0-.212 1.04-1.071 1.156-.955.108.108-.81 1.11-1.018 1.11-.076 0-.139-.07-.139-.155zm-2.206-4.446c.162-.302.505-.46.505-.233 0 .267-.378.75-.519.663-.101-.063-.096-.224.014-.43zM49.79 79.992c.935-.37 4.148-1.482 7.141-2.469 5.59-1.843 6.772-2.351 7.087-3.043.218-.48.04-2.485-.255-2.858-.325-.413-15.3-5.39-16.216-5.39-.224 0-.247.847-.186 6.93.039 3.81.13 7.062.205 7.226.18.397.256.383 2.223-.396z" color="#000" fill="#abc837" stroke="#464646" stroke-width=".17" stroke-linecap="round" stroke-linejoin="round" overflow="visible"/><path style="marker:none" d="M66.283 73.895c1.12-.4 3.593-1.464 6.121-2.632l2.04-.942.047-2.649c.056-3.118-.166-6.643-.434-6.911-.265-.265-2.083 1.523-4.788 4.706-4.222 4.97-4.761 5.809-4.768 7.405-.005 1.412.263 1.567 1.782 1.023zM83.844 65.727c2.328-1.12 3.898-2.166 4.094-2.729.174-.499-.493-4.986-.837-5.628l-.194-.362-.384.404c-.628.659-3.845 5.743-4.378 6.919-.481 1.06-.582 2.07-.219 2.183.094.03.957-.325 1.918-.787zM80.598 51.23c.406-.444 1.874-2.774 2.41-3.825.452-.887.456-1.333.02-2.352-.496-1.155-3.434-5.99-4.125-6.787-.54-.622-.62-.66-1.024-.476l-.438.2.242-.685c.284-.806.092-1.437-.77-2.525-.603-.761-3.14-2.948-3.844-3.313-1.339-.695-1.086 1.034.634 4.331.562 1.077 1.284 2.32 1.606 2.764.57.785 1.091 1.053 1.091.56 0-.254.305-.527.439-.393.041.042-.044.362-.19.713-.223.533-.235.791-.07 1.586.266 1.278 3.34 10.48 3.522 10.54.08.026.303-.126.497-.338z" color="#000" fill="#abc837" stroke="#464646" stroke-width=".17" stroke-linecap="round" stroke-linejoin="round" overflow="visible"/><path style="marker:none" d="M33.093 38.815c.18-.217.028-.613-.589-1.538-.798-1.196-.845-1.421-.658-3.164.215-1.994.194-2.312-.154-2.312-.314 0-.616.31-.935.96-.957 1.956-.618 4.158.864 5.603.573.56 1.218.757 1.472.451zM40.263 36.733c.435-.517.494-1.716.132-2.685-.317-.846-1.278-2.077-2.142-2.744-.262-.202-.517-.343-.566-.313-.049.03-.088.26-.088.509 0 .466-.017.427.952 2.267.181.344.285.715.37 1.329.136.967.218 1.224.516 1.615.27.353.541.36.826.022z" color="#000" fill="#59f" stroke="#59f" stroke-width=".085" stroke-linecap="round" stroke-linejoin="round" overflow="visible"/><path style="marker:none" d="M65.441 35.972c.226-.032.348-.095.367-.191.017-.093-.402-.561-1.18-1.318-1.246-1.214-2.125-2.28-2.277-2.765-.048-.154-.127-.605-.175-1.002a9.141 9.141 0 0 0-.178-1.039c-.115-.4-.477-.839-.64-.776-.186.071-.623 1.029-.725 1.588-.228 1.245.413 2.968 1.529 4.113.993 1.018 2.218 1.537 3.279 1.39zM71.639 32.007c.028-.074.052-.397.052-.719 0-1.204-.823-2.936-1.92-4.045-.636-.641-.94-.785-1.336-.634-.535.203-.346.746.725 2.09.759.95 1.14 1.635 1.218 2.182.089.624.21.91.46 1.089.29.207.728.227.801.037zM64.58 27.496c.296-.296.308-.772.027-1.036-.257-.242-.411-.233-.684.04-.296.295-.308.771-.027 1.036.257.242.412.233.684-.04z" color="#000" fill="#59f" stroke="#464646" stroke-width=".085" stroke-linecap="round" stroke-linejoin="round" overflow="visible"/><path style="marker:none" d="M26.05 36.032c2.557-.97 3.186-1.259 3.186-1.46 0-.258-.348-.193-2.03.38-.874.298-1.624.542-1.667.542-.142 0 .865-.978 1.173-1.14.166-.088.503-.159.75-.159.245 0 .703-.124 1.016-.276.823-.398 2.369-1.92 2.758-2.715l.32-.654-.277-1.436c-.152-.79-.309-1.435-.348-1.434-.129.004-2.186 3.59-2.493 4.347-.172.421-.272.853-.233 1.006.052.207.006.285-.2.339-.367.096-.776-.203-.871-.638-.044-.2-.132-.396-.195-.435-.173-.107-1.478 1.287-1.772 1.894-.142.294-.259.685-.259.869 0 .488-.314.942-.914 1.322-1.106.7-.393.577 2.056-.352zM12.556 55.668c.243-.52.378-1.245.755-4.059.516-3.847 1.024-5.775 2.106-8 1.142-2.347 2.716-3.924 5.169-5.178.712-.364 1.327-.749 1.368-.854.343-.894-5.41 2.173-6.906 3.681-1.765 1.779-3.53 7.746-3.541 11.97-.004 1.569.026 1.866.236 2.284.309.618.574.67.813.156z" color="#000" fill="#59f" stroke="#59f" stroke-width=".12" stroke-linecap="round" stroke-linejoin="round" overflow="visible"/><path style="marker:none" d="M8.554 66.257c.68-.938 2.893-5.52 2.883-5.966-.011-.498-1.91 2.019-2.702 3.58a7.328 7.328 0 0 0-.725 2.312c-.104.721.06.743.544.074zM8.769 70.571c.14-.148.604-1.163 1.033-2.254 1.29-3.287 2.046-5.01 3.316-7.565.665-1.34 1.21-2.505 1.21-2.592 0-.232-.364-.33-.576-.155-.514.424-2.363 3.764-4.045 7.306-1.68 3.539-2.005 4.635-1.565 5.264.234.334.31.333.627-.003z" color="#000" fill="#59f" stroke="#464646" stroke-width=".12" stroke-linecap="round" stroke-linejoin="round" overflow="visible"/><path style="marker:none" d="M34.202 37.535c.106-.03.43-.145.723-.255.292-.11.885-.325 1.318-.479.927-.328 1.509-.579 1.854-.799.259-.165.312-.217.313-.307.001-.096-.407-.059-1.098.099-.847.193-1.62.343-1.943.375l-.253.026.192-.085c.295-.132.397-.198.484-.314.077-.102.078-.112.008-.22-.129-.195-.33-.252-.875-.249a3.576 3.576 0 0 0-1.022.135c-.821.203-1.522.5-1.588.673-.083.217.067.29.722.352.495.046.72.104.677.175-.015.023-.054.043-.086.043-.033 0-.137.073-.232.163-.219.208-.233.382-.045.558.19.178.481.215.851.109zM33.193 34.263c.192-.068.433-.246.526-.388.166-.253-.1-.474-.52-.43-.422.043-.666.25-.622.525.017.106.208.312.289.312.03 0 .08.008.11.019a.488.488 0 0 0 .217-.038zM37.794 35.1c.37-.09.133-.31-.331-.307-.439.001-.794.218-.494.301.118.034.699.038.825.007zM43.758 32.955c.065-.064.066-.211.002-.35-.078-.171.009-.3.3-.447.69-.348 1.67-.51 3.83-.636.894-.051 1.245-.171 1.112-.379-.06-.093-.339-.133-.942-.133-1.862-.002-5.828.622-6.86 1.079-.285.125-.396.292-.26.39.112.083.241.076.93-.05.84-.156 1.133-.104 1.192.211.04.212.236.366.466.366.099 0 .202-.023.23-.05zM41.918 34.253c.515-.066 1.588-.252 3.874-.674 1.454-.268 3.749-.67 5.102-.891 1.352-.222 2.793-.462 3.202-.532 1.127-.195 5.925-1.156 5.97-1.197.042-.036-1.218-.063-1.995-.042-.921.025-2.715.265-5.314.712-5.251.903-10.933 2.15-11.393 2.502-.073.055-.075.07-.02.107.062.041.313.048.574.015zM52.949 30.558c.058-.01.25-.038.425-.062.508-.072 1.063-.249 1.063-.34 0-.149-1.93-.201-2.566-.07-.525.11-.756.292-.53.419.096.054 1.355.095 1.608.053zM57.816 29.9c1.117-.073 2.009-.286 2.35-.561.11-.089-.052-.115-.713-.115-1.025 0-2.19.151-3.295.43-.494.123-.62.174-.546.218.074.043 1.672.064 2.204.029z" color="#000" fill="#59f" stroke="#000" stroke-width=".043" stroke-linecap="round" stroke-linejoin="round" overflow="visible"/><path style="marker:none" d="M59.882 28.658c.61-.12.717-.216.717-.647 0-.412-.44-2.13-.821-3.21-.223-.63-.24-.647-.356-.36-.768 1.886-1.131 2.918-1.188 3.38-.06.486-.034.577.213.75.292.205.705.23 1.435.087z" color="#000" fill="#59f" stroke="#59f" stroke-width=".12" stroke-linecap="round" stroke-linejoin="round" overflow="visible"/><path style="marker:none" d="M16.423 44.072c.297-.091.661-.31.755-.454.153-.232-.036-.78-.361-1.05-.09-.074-.11-.074-.158 0a.742.742 0 0 0-.055.303c-.002.47-.21.815-.617 1.023-.124.064-.226.142-.226.175 0 .068.44.07.662.003z" color="#000" fill="#59f" stroke="#000" stroke-width=".06" stroke-linecap="round" stroke-linejoin="round" overflow="visible"/><path style="marker:none" d="M16.073 46.119c.112-.125.033-.4-.185-.643-.137-.152-.448-.414-.492-.414-.095 0 .091.569.28.853.083.125.247.259.318.259.016 0 .051-.025.079-.055zM15.244 48.245c.277-.138.458-.468.458-.839 0-.347-.188-.712-.442-.862-.252-.147-.321-.024-.201.356.143.452.064.662-.266.705-.334.045-.391.305-.123.558a.473.473 0 0 0 .574.082zM14.914 49.524c.347-.094.788-.346.788-.451 0-.09-.185-.144-.543-.158-.31-.011-.363-.006-.504.055-.279.12-.396.364-.244.506.108.1.256.114.503.048zM15.095 52.69c.051-.051.044-.217-.024-.57-.089-.456-.102-.653-.062-.885.055-.316.128-.455.347-.657.254-.235.24-.267-.136-.282-.518-.02-1.08.083-1.22.222-.165.165-.067.374.408.869.42.436.408.495-.104.52-.2.01-.335.032-.368.058-.049.038-.045.048.057.139.143.128.984.623 1.058.623a.18.18 0 0 0 .044-.036zM13.527 56.185c.088-.038.21-.204.267-.364.072-.202.1-.536.074-.874-.036-.462-.102-.487-.364-.136a3.074 3.074 0 0 0-.435.755c-.107.295-.09.475.056.57.088.058.316.086.402.05zM13.688 57.484c.174-.066.51-.48.51-.63a.255.255 0 0 0-.073-.146c-.087-.087-.297-.101-.435-.03a.612.612 0 0 0-.262.307c-.027.107.04.38.112.456.063.068.074.071.148.043zM15.442 56.552c.072-.141.17-.534.202-.807.052-.464-.06-.769-.315-.853-.182-.06-.345.062-.412.31-.046.167-.014.536.063.735.082.213.266.579.324.645.063.072.088.066.138-.03z" color="#000" fill="#59f" stroke="#000" stroke-width=".03" stroke-linecap="round" stroke-linejoin="round" overflow="visible"/><path style="marker:none" d="M28.173 31.195c.32-.374 1.395-2.143 1.848-3.04.425-.844.768-1.797.928-2.577.054-.265.152-.995.218-1.623.067-.629.215-1.63.33-2.225.114-.595.248-1.433.296-1.863.094-.847.171-1.252.452-2.388.21-.853.288-1.512.185-1.575-.151-.094-.663.651-1.385 2.018-1.351 2.557-2.629 6.511-3.221 9.97-.283 1.654-.264 3.476.037 3.534.056.01.19-.089.312-.231z" color="#000" fill="#59f" stroke="#000" stroke-width=".06" stroke-linecap="round" stroke-linejoin="round" overflow="visible"/><path style="marker:none" d="M57.513 27.317c.309-.308.558-.836 1.492-3.156l.61-1.516-.552-2.262c-.633-2.592-.736-2.973-1.196-4.428-.661-2.089-1.3-3.732-1.957-5.039-.734-1.459-1.35-2.386-1.564-2.355-.167.023-.145.297.1 1.283.244.986.35 1.627.385 2.332.021.438.231 1.938.415 2.961.092.517.366 2.436.573 4.022.567 4.33 1.119 7.714 1.332 8.158.086.18.183.18.362 0z" color="#000" fill="#59f" stroke="#000" stroke-width=".044" stroke-linecap="round" stroke-linejoin="round" overflow="visible"/><path style="marker:none" d="M35.964 32.97c.33-.07.55-.247.713-.573.434-.865.442-2.647.025-5.34-.409-2.637-.415-2.72-.401-5.219.006-1.255.04-2.45.073-2.656.281-1.72.813-3.553 1.569-5.406.231-.568.424-1.135.428-1.261.027-.886 2.531-4.953 4.282-6.955.615-.703.792-.835 1.9-1.41 1.442-.749 3.638-1.59 4.722-1.81.324-.067.38-.062.55.045.654.414 2.268 2.069 3.42 3.507 2.104 2.624 4.028 6.367 5.099 9.92.37 1.23.98 3.682 1.569 6.307.59 2.632.654 2.886.974 3.85.498 1.495 1.212 2.789 1.76 3.185.308.224.573.236 1.26.06 1.13-.289 2.716-.99 3.147-1.392.242-.225.327-.014-1.245-3.109-1.153-2.27-2.145-4.78-3.458-8.75-1.147-3.47-1.7-4.954-2.484-6.656-1.08-2.349-2.18-3.996-3.69-5.522-1.502-1.518-2.607-2.236-4.032-2.618-.552-.148-.717-.163-1.826-.167-2.827-.009-5.608.71-7.776 2.007-1.427.854-3.143 2.351-4.7 4.1-2.462 2.762-3.641 4.963-5.248 9.794l-.613 1.843-.013 1.094c-.012 1.05-.02 1.114-.202 1.601-.184.49-.187.518-.104.844.112.434.204 1.864.25 3.868.04 1.784.114 2.969.258 4.125.202 1.628.498 2.267 1.19 2.573.247.11.447.132 1.328.15.57.011 1.144-.002 1.275-.03zm-1.983-.594c-.158-.067-.232-.153-.307-.36a2.82 2.82 0 0 1-.113-1.24l.047-.282.262.54c.45.932.942 1.185 1.221.63.146-.29.17-.573.095-1.151-.08-.63-.03-.786.192-.585.497.45.365 1.83-.225 2.348-.186.163-.26.187-.588.187-.206 0-.469-.04-.584-.087zm29.67-4.285c-.286-.175-.41-.458-.441-1.003-.023-.405-.006-.507.123-.747.372-.693 1.247-.733 1.633-.074.147.251.204.86.108 1.152-.22.665-.904.988-1.423.672z" color="#000" fill="#59f" stroke="#464646" stroke-width=".8" stroke-linecap="round" stroke-linejoin="round" overflow="visible"/><path style="marker:none" d="M45.44 75.888a.744.744 0 0 0 .296-.34.633.633 0 0 0-.378-.83c-.767-.269-1.314.772-.6 1.141.298.154.414.159.682.03z" color="#000" fill="#abc837" stroke="#464646" stroke-width=".027" stroke-linecap="round" stroke-linejoin="round" overflow="visible"/></svg>