<svg xmlns="http://www.w3.org/2000/svg" width="95" height="85"><path d="M17.8 84.56c-1.123-.427-2.858-1.868-2.858-2.372 0-.136-.346-.646-.77-1.133-1.496-1.72-5.18-7.325-9.511-14.474l-1.036-1.709.213-2.23.214-2.23-1.13-1.493C.555 55.795-.125 54.01.018 51.297c.072-1.36.193-1.842.721-2.878.35-.684 1.066-1.666 1.592-2.182l.958-.938 1.121.29 1.121.29.44-3.339c.957-7.25 2.076-11.217 3.97-14.067 3.188-4.8 5.3-6.044 14.4-8.492 4.408-1.185 4.752-1.234 9.692-1.38 3.901-.115 4.42-.167 4.418-.445-.001-.173-.316-1.619-.7-3.214-1.56-6.491-1.812-7.863-1.816-9.857-.003-1.628.068-2.087.452-2.908.25-.536.678-1.119.95-1.296 1.15-.75 9.02-1.084 17.748-.753 6.123.232 6.853.38 9.07 1.844 2.1 1.387 4.046 4.1 4.682 6.53.156.595.41 1.33.564 1.635.155.304.558 1.387.896 2.405l.615 1.853h1.415c2.015 0 2.869.477 5.034 2.81 1.682 1.814 3.018 2.858 4.033 3.152 1.663.482 4.746 1.954 5.533 2.644 2.152 1.884 3.544 4.927 3.975 8.687.113.996.419 3.115.678 4.71.26 1.594.62 3.812.799 4.929.18 1.116.817 4.465 1.416 7.441 1.377 6.848 1.515 9.147.713 11.945-1.497 5.224-5.343 8.496-12.045 10.248-1.872.49-8.46 1.796-11.27 2.235-4.454.696-6.61 1.014-9.91 1.462-4.53.615-6.964 1.1-10.492 2.091-1.496.42-3.157.876-3.691 1.013-.535.136-3.29.95-6.121 1.808-6.708 2.032-6.686 2.025-10.881 3.355-5.273 1.673-7.132 2.086-9.327 2.075-1.422-.008-2.104-.108-2.972-.44zm6.385-.988c1.076-.26 3.436-.946 5.246-1.526a434.87 434.87 0 0 1 9.896-3.04c.642-.185 2.609-.771 4.372-1.302 7.56-2.277 11.957-3.37 14.864-3.696 8.296-.93 21.768-3.369 25.94-4.695 2.936-.934 6.237-3.215 7.176-4.96.158-.295-.096-.192-1.005.408-2.922 1.93-3.39 2.22-4.034 2.511-1.063.48-4.968 1.656-6.898 2.078-2.926.64-11.282 2.26-14.475 2.807-5.58.955-8.042 1.463-13.213 2.724-9.77 2.384-22.21 5.737-23.678 6.383-.593.26-1.943.696-2.999.967-4.602 1.183-7.345.321-8.223-2.581-.31-1.025-.345-3.278-.069-4.401.401-1.628.984-9.107 1.28-16.43.07-1.7.18-3.654.246-4.34l.12-1.248 3.498-.427c3.594-.438 5.116-.572 14.25-1.249 6.625-.49 10.972-1.112 14.604-2.088 3.02-.81 7.632-1.893 9.247-2.169.544-.092 2.424-.478 4.177-.856 1.754-.378 3.932-.811 4.84-.963 3.524-.587 10.19-2.629 17.256-5.284 2.323-.873 2.369-.906 2.369-1.678 0-.784-.127-.813-1.112-.25-2.824 1.617-6.38 2.924-11.42 4.2-.856.217-3.085.795-4.955 1.286-1.87.49-3.882 1.004-4.47 1.14-.587.135-3.035.73-5.44 1.322-5.636 1.387-10.377 2.22-18.459 3.243-1.763.223-4.124.57-5.246.772-3.215.576-14.716 1.528-18.522 1.533l-.744.001.067-4.687c.065-4.514.087-4.74.588-6.114.286-.785.846-1.915 1.244-2.513 2.674-4.01 8.62-7.13 16.298-8.553 1.176-.218 2.335-.433 2.575-.479.278-.053.437-.222.437-.466 0-.458.087-.454-1.846-.089-4.837.913-7.298 1.6-10.676 2.976-2.877 1.172-4.814 2.403-6.723 4.269-2.448 2.393-2.803 3.232-3.2 7.575-.17 1.84-.388 6.694-.486 10.787-.099 4.093-.267 8.268-.374 9.278a1293.8 1293.8 0 0 0-.687 6.862c-.271 2.764-.577 5.7-.68 6.525-.438 3.497.863 5.87 3.687 6.728 1.023.31 3.396.181 5.357-.291zm1.176-2.404c1.056-.306 2.377-.74 2.936-.962.945-.378 3.38-1.082 6.848-1.98a100.67 100.67 0 0 0 2.72-.752c1.693-.501 6.868-1.83 13.513-3.468 4.793-1.182 12.713-2.785 16.413-3.321 4.69-.68 14.704-2.95 17.293-3.92 1.46-.546 4.333-2.209 5.862-3.391 1.808-1.398 1.889-4.322.334-12.093a315.04 315.04 0 0 0-.672-3.19 433.15 433.15 0 0 1-.984-4.735c-.277-1.382-.56-2.614-.627-2.738-.086-.159-.791.03-2.357.63-2.85 1.094-9.675 3.387-11.95 4.015-1.923.532-3.315.837-9.812 2.153-6.751 1.367-10.595 2.218-12.824 2.84-3.995 1.114-8.964 1.886-14.67 2.278-1.603.11-3.351.245-3.886.298-.534.054-2.283.184-3.886.288-1.603.105-4.503.377-6.445.605l-3.531.414-.114 1.567c-.063.862-.207 3.645-.32 6.184-.242 5.394-.841 12.486-1.138 13.454-.337 1.1-.25 3.465.16 4.35.43.927 1.128 1.603 1.89 1.83 1.2.358 3.269.217 5.247-.356zm-11.288-2.335c-.063-.101.02-1.297.182-2.657.286-2.388.897-8.517 1.286-12.911.104-1.17.269-5.258.367-9.085.194-7.573.607-13.274 1.05-14.526 2.037-5.741 9.578-9.944 21.28-11.86l1.435-.235-.133-2.049c-.073-1.126-.17-2.085-.215-2.13-.045-.045-1.768.199-3.829.541-3.92.652-7.692 1.714-12.879 3.627l-2.526.932-.056 1.688-.056 1.687h-1.824c-1.58 0-1.834-.045-1.897-.338-.057-.266-.14-.215-.39.242-.174.319-.55.823-.833 1.12-.283.299-.467.667-.408.82.059.153-.317 1.215-.837 2.36-1.053 2.322-1.735 4.242-2.332 6.57-.507 1.973-.51 1.93.163 2.076.349.076.756.4 1.068.847l.504.723-.281 3.47c-.155 1.908-.337 4.6-.404 5.982-.068 1.382-.153 2.612-.19 2.734-.048.156-.542.09-1.649-.221-.87-.244-1.64-.504-1.714-.577-.073-.073-.102-1.17-.064-2.436.043-1.427-.004-2.303-.122-2.303-.105 0-.514.134-.91.298-.87.363-1.375.23-1.75-.456-.157-.288-.287-.39-.291-.229-.004.16-.267 2.928-.584 6.152l-.576 5.861.965 1.547c.53.851.964 1.588.964 1.637 0 .049.165.325.367.613.201.288 1.067 1.664 1.924 3.058 2.238 3.64 4.914 7.613 5.127 7.613.1 0 .131-.083.068-.185zm79.895-20.948c.115-2.008.082-2.244-1.367-9.793-.582-3.03-1.204-6.422-1.383-7.539-.947-5.908-1.256-7.936-1.372-8.988-.526-4.78-2.862-8.242-6.212-9.209-.693-.2-8.743-.203-10.012-.003-.778.122-.869.189-.822.604.03.257.082.495.117.53.036.036.668-.086 1.405-.27 1.04-.258 2.212-.335 5.226-.341 3.61-.008 3.952.022 4.818.42 1.933.887 2.514 1.539 3.499 3.92 1.101 2.666 1.829 6.304 1.986 9.934.127 2.922.239 3.966.58 5.433 1.537 6.616 2.746 13.14 2.938 15.863.162 2.295.452 2.024.6-.561zm-89.64.016c.062-.345.208-2.063.322-3.817.114-1.754.244-3.298.289-3.431.2-.594-.326-.147-1.025.87-.629.914-.864 1.113-1.328 1.12l-.565.01.014 1.26c.01.988.142 1.528.61 2.503.579 1.21 1.192 2.106 1.443 2.111.069.001.176-.28.24-.626zm7.015-.773c.044-.133.217-2.199.384-4.59.168-2.393.342-4.714.388-5.16.063-.608-.014-.933-.307-1.305-.42-.532-.75-.642-.754-.252 0 .132-.22.71-.488 1.281-.46.983-.494 1.285-.61 5.436l-.121 4.394.562.204c.758.274.853.273.946-.008zm-9.301-5.557c.54 0 .734-.136 1.233-.856.326-.471.592-.962.592-1.091s.357-.797.794-1.485c.437-.688.721-1.317.632-1.397-.09-.08-.507-.198-.928-.262-.702-.106-.824-.053-1.484.638-1.052 1.1-1.753 2.653-1.853 4.104-.07 1.018-.046 1.147.145.784.166-.318.4-.435.869-.435zm5.994.448c.96-.455 1.084-1.232.427-2.66-.272-.59-.615-1.074-.762-1.074-.148 0-.472.215-.72.478-.376.398-.41.526-.201.776.137.164.466.275.73.247.548-.058.95.41.766.889-.156.405-1.106.428-1.106.026 0-.16-.142-.29-.316-.29-.262 0-.294.138-.187.803.205 1.278.28 1.322 1.369.805zm23.843-2.076c5.112-.525 7.934-1.009 7.934-1.361 0-.126-.095-1.18-.211-2.341-.17-1.7-.3-2.227-.661-2.702-1.087-1.427-1.056-3.27.078-4.712.541-.688.543-.701.663-4.507l.12-3.818-.626.003c-.344.002-1.456.176-2.472.387-8.188 1.702-13.864 4.972-16.008 9.223-.872 1.728-1.084 3.094-1.088 6.992l-.003 3.558 3.838-.125c2.11-.068 5.907-.337 8.436-.597zm11.432-1.525l1.457-.23-.05-1.546c-.054-1.722-.209-3.59-.364-4.397l-.103-.532h-1.907c-1.517 0-1.93.06-2.018.29-.062.16.016 1.617.173 3.238.156 1.621.285 3.056.285 3.189 0 .294.6.291 2.527-.012zM10.075 44.94c.005-.511.105-1.338.222-1.837.301-1.283 1.723-5.637 2.044-6.26.455-.882.288-.872-.507.03-.419.474-.793.822-.832.773-.712-.889-1.889-2.504-1.889-2.593 0-.064 1.234-1.37 2.74-2.901 2.498-2.537 2.783-2.769 3.207-2.609.384.146.465.116.465-.17 0-.196.557-.792 1.275-1.364l1.274-1.016.912.225c.867.214 1.033.181 3.437-.676 6.288-2.244 9.43-3.13 13.018-3.667 4.03-.603 3.702-.475 3.627-1.413a9.306 9.306 0 0 0-.209-1.349l-.143-.532-4.455.065c-4.807.07-5.571.173-9.699 1.302-3.748 1.027-7.017 2.15-8.551 2.94-2.873 1.478-5.925 5.412-7.156 9.224-.407 1.258-1.176 4.878-1.582 7.441-.389 2.454-.843 6.931-.716 7.058.05.05.187.017.304-.073.52-.401 1.111-.373 1.629.079l.526.459.525-1.104c.334-.703.528-1.44.534-2.032zm39.259 2.655c5.946-.9 8.39-1.405 15.641-3.23 1.497-.377 2.967-.739 3.268-.805l.547-.121-.128-1.588c-.07-.873-.338-2.457-.595-3.52-.612-2.53-.608-3.51.017-4.428.602-.882.631-1.977.153-5.768-.242-1.92-.407-2.658-.594-2.658-.143 0-3.38.61-7.195 1.354-3.815.745-8.685 1.682-10.822 2.082l-3.887.728-.097 4.248c-.073 3.169-.036 4.38.146 4.77.318.684.296 2.376-.044 3.326-.26.726-.25 3.745.017 5.494.095.62.125.639.816.534l2.757-.418zm-9.794-5.302l-.129-.966 1.707-.01c.939-.005 2.059-.055 2.489-.11.753-.096.791-.074 1.034.593.138.38.318.651.399.601.313-.192.654-2.176.47-2.728-.237-.704-.645-.848-.645-.227 0 .445-.077.477-1.434.591-.788.066-1.925.178-2.526.248l-1.092.128-.006-.751-.006-.752-.577.631c-.725.793-.796 2.064-.173 3.067.223.358.452.651.511.651.058 0 .048-.435-.023-.966zm32.223.36c.862-.226 1.65-.486 1.75-.576.111-.102.06-.704-.134-1.57a33.741 33.741 0 0 1-.44-2.346c-.197-1.478-.191-1.473-1.572-1.473-1.556 0-2.02.366-2.02 1.594 0 1.42.465 4.784.66 4.784.104 0 .894-.185 1.756-.412zm5.033-1.34c4.77-1.204 7.51-2.232 10.89-4.084l1.143-.627-.114-1.455c-.233-2.974-1.427-7.305-2.504-9.08-1.148-1.893-3.037-2.453-7.586-2.25-2.207.098-5.285.523-5.526.762-.032.032.075 1.095.238 2.363.163 1.267.383 3.028.489 3.914.11.92.37 1.955.608 2.416.264.513.448 1.307.506 2.186.078 1.19.021 1.53-.414 2.476l-.505 1.096.324 1.342c.208.862.42 1.341.594 1.341.148 0 .984-.18 1.857-.4zM44.18 39.365c.488-.485.61-6.098.297-13.598-.249-5.962-.75-8.65-2.742-14.709-1.426-4.334-1.499-5.55-.404-6.705.995-1.05 2.033-1.182 7.808-.998 6.373.202 7.15.183 8.52-.218.604-.177 1.699-.333 2.434-.347l1.336-.025.903 1.003c1.582 1.757 2.958 4.761 4.212 9.199C67.852 17.59 69.19 26.03 69.516 31.7c.171 2.976.327 3.25 1.853 3.245 1.284-.004 1.5-.162 1.61-1.181.124-1.154-.783-8.596-1.481-12.153-1-5.087-1.665-7.576-2.739-10.244-.407-1.01-.8-2.128-.873-2.485-.361-1.757-2.052-4.412-3.52-5.527-.487-.37-1.467-.955-2.178-1.301-1.217-.592-1.464-.638-4.208-.779-4.535-.232-15.107-.227-17.584.01-2.105.2-2.264.245-2.753.784-.958 1.055-.981 3.76-.065 7.664.274 1.164.758 3.204 1.077 4.533 1.685 7.031 2.033 10.238 1.988 18.357-.027 5.021.022 6.7.199 6.82.265.18 3.148.113 3.34-.078zM74.4 36.89c.26-.934.237-2.135-.052-2.7-.376-.733-.689-.7-.838.09-.159.843-.731 1.149-2.533 1.351-1.327.15-1.753-.09-1.957-1.1-.13-.649-.44-.63-.787.046-.332.646-.305 1.484.083 2.608l.328.952.206-.773c.325-1.221.382-1.258 1.917-1.237 2.092.029 2.284.12 2.612 1.237.262.894.299.933.555.585.15-.206.36-.682.466-1.06zm-61.028-2.917c1.846-2.372 2.223-3.092 1.765-3.374-.107-.066-.873.52-1.7 1.303a555.55 555.55 0 0 1-2.545 2.388l-1.038.966.63.709c.348.39.699.668.78.617.083-.05 1.031-1.224 2.108-2.609zm-2.574 1.591c-.3-.329-.27-.396.464-1.11.645-.627.814-.71.965-.471.27.423.24.538-.32 1.268-.585.764-.676.79-1.11.313zm8.225-6.028c0-1.275-.025-1.353-.437-1.35-.24.002-.778.289-1.194.639-.743.626-.752.648-.519 1.35.23.694.263.714 1.193.714h.957v-1.353zm31.185-1.762c2.351-.444 7.248-1.387 10.881-2.094 6.19-1.205 6.61-1.313 6.669-1.711.042-.288-.04-.425-.252-.425-.26 0-6.234 1.14-12.732 2.43-.801.16-3.162.617-5.246 1.017-3.49.67-3.793.762-3.85 1.153-.035.234.01.428.096.432.088.004 2.083-.358 4.434-.802zm1.307-2.2c16.31-3.155 15.888-3.063 15.89-3.48 0-.424-.597-3.825-.692-3.932-.032-.037-1.573.282-3.424.708-3.42.787-9.245 2.03-14.78 3.154l-3.061.622v1.995c0 1.63.052 1.996.287 1.996.158 0 2.759-.479 5.78-1.063zm-3.21-4.541c7.067-1.422 17.922-3.792 18.08-3.948.05-.05.012-.423-.086-.827-.171-.714-.2-.734-.944-.673-.423.034-2.604.365-4.849.735-2.244.37-4.954.797-6.023.95-1.827.26-6.964 1.052-8.792 1.354-.454.076-.826.228-.826.338 0 .37.428 2.649.497 2.649.038 0 1.362-.26 2.943-.578zm29.482.02l2.513-.119-1.173-.719c-.646-.395-1.587-1.2-2.091-1.788l-.918-1.068-1.685.019c-.927.01-1.904.082-2.171.159-.556.16-.56.286-.072 2.497l.313 1.418 1.385-.14c.762-.078 2.516-.195 3.899-.26zm-31.74-3.503c1.238-.227 5.53-.894 8.07-1.254.974-.138 4.016-.622 6.76-1.076l4.99-.825-.132-.595c-.702-3.181-2.82-7.96-4.228-9.537-.51-.571-1.91-.582-4.077-.032-1.442.367-1.86.389-4.599.242a142.87 142.87 0 0 0-6.314-.161c-2.785 0-3.402.054-3.93.34-1.4.761-1.382 1.425.176 6.328.993 3.124 1.711 5.684 1.712 6.105.002.717.08.74 1.572.465zm28.838-1.239c.107-.028-.174-.239-.624-.468-.982-.5-2.97-.597-2.97-.143 0 .753.168.823 1.805.742.877-.043 1.682-.102 1.789-.13z" fill="#464646"/><path style="marker:none" d="M67.688 25.656c-.059-.058-2.905.413-6.313 1.063-3.408.65-8.269 1.608-10.813 2.093-2.543.486-4.678.898-4.718.938-.04.04-.07 1.85-.094 4.031-.04 3.44-.04 4.12.156 5.125.225 1.149.245 1.203-.031 2.907-.153.946-.283 2.027-.281 2.406.004.784.227 3.357.312 3.593.079.218.233.215 3.032-.218 5.977-.927 8.404-1.43 15.312-3.125l4.438-1.094-.032-.688c-.048-.99-.352-2.918-.719-4.593-.176-.805-.335-1.918-.343-2.469-.014-.909.034-1.055.406-1.75.28-.522.425-.998.469-1.5.104-1.2-.5-6.437-.781-6.719zm-28.313 4.907c-.97.002-4.377.754-6.688 1.468-6.354 1.964-10.623 5.03-12.187 8.75-.614 1.461-.739 2.334-.813 6.219l-.062 3.625 1.938-.063c7.933-.341 15.75-1.116 17.656-1.75l.437-.156-.062-1.125c-.058-1.94-.302-3.174-.875-4.218-.873-1.592-.844-2.877.125-4.376.617-.955.69-1.316.812-5.406l.094-2.968h-.375zM74.542 40.781c-.463-1.497-.461-1.588.053-2.857.456-1.127.466-1.19.393-2.305-.053-.815-.2-1.523-.506-2.446a18.885 18.885 0 0 1-.633-2.74c-.316-2.251-.688-5.677-.627-5.777.199-.32 4.056-.756 6.755-.762 3.09-.007 4.264.286 5.454 1.36.918.83 1.917 3.301 2.675 6.62.274 1.199.381 1.92.628 4.226l.05.469-1.96.99c-2.455 1.238-3.904 1.85-5.947 2.51-1.8.583-5.37 1.513-5.805 1.513-.239 0-.322-.125-.53-.8zM20.58 81.545c-1.523-.326-2.326-1.374-2.577-3.365-.125-.993-.11-1.343.13-2.923.495-3.27.765-6.591 1.217-15.003.176-3.269.347-5.97.38-6.004.16-.16 6.827-.83 12.584-1.264 11.532-.871 13.456-1.138 20.48-2.84 2.137-.517 7.36-1.667 11.608-2.555 4.249-.888 8.307-1.761 9.02-1.94 2.667-.672 5.944-1.739 13.045-4.246 1.089-.385 2.085-.7 2.215-.7.13 0 .264.1.3.22.208.692 1.874 8.548 2.451 11.555.802 4.177 1.037 6.98.712 8.5-.35 1.638-.83 2.18-3.261 3.69-1.562.97-3.51 1.931-4.633 2.287-3.057.969-10.273 2.576-15.987 3.56-4.402.76-9.7 1.791-13.26 2.583-7.034 1.565-22.104 5.546-27.137 7.169-1.516.488-3.122.974-3.57 1.08-1.016.238-3.023.344-3.717.196z" color="#000" fill="#00d455" stroke="#00d455" stroke-width=".063" stroke-linecap="round" stroke-linejoin="round" overflow="visible"/><path style="marker:none" d="M13.631 78.44c-.847-1.008-5.192-7.764-7.86-12.223l-1.038-1.733.515-5.407c.284-2.974.548-5.623.588-5.887l.073-.48.378.386c.446.457.776.484 1.758.146l.699-.24.086.63c.048.346.048 1.098 0 1.67-.047.572-.048 1.351 0 1.732.081.649.114.702.543.873.82.328 2.776.759 2.895.638.063-.063.26-2.257.439-4.875.178-2.618.378-5.343.443-6.056.085-.913.08-1.372-.018-1.552-.278-.521-1.139-1.334-1.494-1.412-.2-.044-.397-.132-.436-.195-.096-.155.453-2.396 1.01-4.119.252-.777.838-2.322 1.304-3.434.819-1.954 1.036-2.544 1.183-3.215.038-.174.328-.65.645-1.059.317-.408.628-.829.691-.936.1-.166.132-.168.234-.013.09.138.54.192 1.943.235l1.826.054v-.56c0-.308.037-1.079.082-1.713.096-1.358-.364-1.042 3.55-2.433 5.54-1.967 8.99-2.857 13.898-3.587.925-.138 1.693-.238 1.705-.222.034.044.307 3.366.307 3.733 0 .318-.025.326-1.997.663-2.523.431-6.024 1.296-8.123 2.007-4.328 1.467-7.346 3.16-9.619 5.4-1.567 1.545-2.542 3.04-2.983 4.578-.407 1.416-.733 6.085-1.014 14.525-.271 8.112-.39 9.796-1.323 18.665a322.853 322.853 0 0 0-.467 4.69l-.091 1.121-.332-.394zM45.549 25.517c-.044-.568-.08-1.43-.081-1.917l-.001-.883 4.729-.974c2.6-.535 7.31-1.538 10.465-2.228 3.155-.69 5.807-1.227 5.894-1.194.16.061.348.893.639 2.826l.158 1.047-.411.172c-.227.095-1.642.422-3.145.729-4.921 1.002-17.739 3.456-18.053 3.456-.062 0-.15-.465-.194-1.034zM72.285 20.133c-.442-2.074-.458-2.304-.17-2.459.137-.073 1.068-.171 2.07-.219l1.822-.086.42.489a14.19 14.19 0 0 0 2.73 2.433l.934.623h-.683c-.844.002-5.925.346-6.46.438l-.388.067-.275-1.286zM45.248 20.82c-.262-1.322-.312-1.878-.174-1.963.117-.072 4.688-.8 16.218-2.585 1.78-.275 3.568-.535 3.974-.577.812-.085.848-.053 1.033.914.074.386.065.395-.64.59-1.465.406-19.821 4.341-20.25 4.341-.01 0-.082-.324-.16-.72z" color="#000" fill="#00d455" stroke="#00d455" stroke-width=".063" stroke-linecap="round" stroke-linejoin="round" overflow="visible"/><path style="marker:none" d="M71.713 16.39c-.218-.043-.355-.247-.361-.537l-.006-.265.345-.087c.277-.07.468-.074.97-.02.773.085 1.32.25 1.84.559l.4.236-.932.073c-.922.072-1.996.091-2.256.04z" color="#000" fill="#00d455" stroke="#00d455" stroke-width=".031" stroke-linecap="round" stroke-linejoin="round" overflow="visible"/><path style="marker:none" d="M8.751 47.757c-.227-.273-.804-.56-1.125-.56-.145 0-.438.09-.652.2l-.389.202.083-1.172c.322-4.567 1.676-11.929 2.61-14.193 1.693-4.107 4.542-7.316 7.731-8.71 2.19-.956 7.912-2.693 10.973-3.33 1.326-.277 2.035-.33 6.042-.457 2.496-.08 4.572-.111 4.612-.071.04.04.158.565.262 1.167.157.913.161 1.122.021 1.262-.094.094-1.467.387-3.146.67-4.283.724-6.63 1.36-12.236 3.317-3.614 1.26-3.64 1.266-4.637 1.03-.947-.224-.839-.27-2.293.976-.537.461-1.031.98-1.097 1.152-.1.262-.176.301-.465.238-.29-.064-.48.034-1.158.594-.743.613-4.58 4.544-4.781 4.897-.097.17 1.716 2.707 1.935 2.707.076 0 .41-.281.742-.626.332-.344.603-.6.603-.567 0 .033-.168.482-.373 1-.347.87-1.448 4.363-1.74 5.517-.07.276-.186 1.04-.258 1.7-.089.818-.253 1.496-.514 2.13-.453 1.098-.53 1.193-.75.927z" color="#000" fill="#00d455" stroke="#00d455" stroke-width=".063" stroke-linecap="round" stroke-linejoin="round" overflow="visible"/><path style="marker:none" d="M18.685 83.717c-1.736-.542-3.055-2.056-3.423-3.928-.203-1.029-.151-1.78.678-9.92.706-6.934.758-7.777 1.085-17.6.236-7.109.576-11.123 1.07-12.612.48-1.456 2.488-3.706 4.744-5.32 2.33-1.667 6.399-3.369 10.592-4.43 1.153-.292 5.827-1.25 6.097-1.25.28 0 .187.498-.116.623-.155.063-1.184.29-2.286.502-5.982 1.154-10.303 2.89-13.66 5.484-1.782 1.377-2.785 2.57-3.688 4.39-.95 1.913-1.015 2.283-1.134 6.476-.058 2.066-.109 4.201-.113 4.744l-.007.986 2.224-.085c6.282-.24 14.046-.985 20.324-1.95a304.54 304.54 0 0 1 4.447-.626c5.278-.706 9.921-1.505 13.466-2.315 4.726-1.081 14.45-3.52 18.79-4.713 3.948-1.085 7.023-2.223 9.494-3.514.779-.407 1.47-.706 1.535-.666.134.083.16.685.04.994-.117.306-.705.564-3.992 1.756-5.176 1.875-10.786 3.628-13.78 4.303-.62.14-3.015.63-5.323 1.088-5.892 1.17-9.28 1.913-13.403 2.935-6.29 1.56-8.665 1.88-21.045 2.827-3.749.287-11.664 1.086-12.353 1.248-.334.078-.357.279-.612 5.264-.45 8.803-.773 13.085-1.208 16.032-.193 1.3-.247 2.174-.212 3.394.047 1.603.06 1.667.518 2.593.777 1.572 1.865 2.203 3.989 2.314 1.933.1 3.887-.306 7.373-1.533 3.226-1.135 19.934-5.543 27.245-7.187 1.24-.28 5.327-1.075 9.082-1.77 12.438-2.298 16.34-3.147 19.837-4.315 1.88-.628 1.94-.66 4.499-2.3 1.017-.654 1.884-1.155 1.925-1.114.104.104-.69 1.007-1.483 1.687-1.349 1.156-3.531 2.382-5.3 2.975-3.125 1.05-15.571 3.407-23.111 4.379-7.37.95-9.855 1.59-29.343 7.57-6.46 1.982-7.669 2.324-9.132 2.581-1.28.226-3.613.227-4.33.003z" color="#000" fill="#2ad4ff" stroke="#5df" stroke-width=".063" stroke-linecap="round" stroke-linejoin="round" overflow="visible"/><path style="marker:none" d="M45.727 28.506c-.016-.016-.03-.119-.03-.227 0-.167.024-.22.15-.339.266-.25.577-.322 5.785-1.332 1.96-.38 5.349-1.04 7.529-1.465 4.194-.82 6.8-1.315 7.81-1.486l.613-.103.084.104c.095.117.105.212.04.382-.098.259-.798.454-3.742 1.044-3.665.735-14.957 2.9-17.182 3.295-.93.165-1.01.174-1.057.127zM93.6 59.903c-.076-.248-.125-.604-.227-1.633-.322-3.257-1.217-8.152-2.673-14.613-.372-1.652-.47-2.142-.556-2.81a45.831 45.831 0 0 1-.225-2.79c-.014-.304-.046-.892-.07-1.306-.24-4.1-1.108-7.875-2.432-10.585-.697-1.426-1.24-1.983-2.607-2.673-1.229-.62-1.1-.605-5.122-.602-3.71.002-4.07.024-5.58.35-1.302.28-1.164.271-1.212.078-.127-.504-.107-.687.088-.787.21-.109.928-.195 2.054-.246 1.308-.06 7.718-.025 8.233.044.453.06.82.183 1.425.476 2.26 1.093 3.954 3.46 4.735 6.615.197.795.26 1.158.421 2.387.168 1.282.237 1.743.847 5.607.65 4.13.85 5.253 2.255 12.667.587 3.103.842 4.567.953 5.491.12.993.034 3.268-.157 4.13-.056.25-.112.325-.15.2z" color="#000" fill="#2ad4ff" stroke="#5df" stroke-width=".022" stroke-linecap="round" stroke-linejoin="round" overflow="visible"/><path style="marker:none" d="M40.928 48.483c-.082-.133-.38-3.125-.513-5.16-.081-1.238-.07-1.339.148-1.403.13-.038 1.002-.108 1.94-.155l1.705-.085.15 1.186c.233 1.857.38 5.158.233 5.25-.124.078-2.966.486-3.378.485-.117 0-.245-.053-.285-.118zM69.996 42.856c-.131-.212-.453-2.481-.526-3.712-.12-1.988.141-2.325 1.821-2.357.776-.015 1.053.027 1.208.182.177.177.359 1.015.996 4.59.066.375.036.426-.349.587-.356.149-2.827.818-3.02.818-.035 0-.094-.048-.13-.108zM40.876 39.175c-.057-.155-.14-3.213-.184-6.796-.043-3.582-.138-7.19-.21-8.017-.29-3.304-.834-6.205-2.421-12.902-.776-3.27-.956-4.288-1.042-5.887-.121-2.25.393-3.658 1.438-3.94 1.163-.313 3.843-.418 10.546-.414 7.28.005 11.036.149 12.088.464.697.208 2.616 1.27 3.368 1.863 1.248.984 2.628 3.119 3.236 5.004.206.636.677 1.974 1.047 2.973 1.042 2.807 1.456 4.294 2.306 8.267.93 4.353 2.003 12.515 1.835 13.967-.101.87-.37 1.065-1.461 1.065-.47 0-.944-.035-1.056-.078-.45-.172-.588-.792-.832-3.726-.603-7.242-1.933-14.92-3.387-19.553-1.211-3.86-2.42-6.287-3.982-7.99l-.66-.72h-1.147c-.75 0-1.666.112-2.649.321l-1.503.32-6.076-.083c-6.4-.088-7.186-.044-8.168.457-.57.29-1.173 1.08-1.367 1.79-.225.826.05 2.141 1.33 6.344 2.077 6.822 2.297 8.284 2.585 17.227.148 4.58.032 9.1-.252 9.848-.156.41-.426.474-1.991.476-1.221.002-1.292-.013-1.391-.28z" color="#000" fill="#2ad4ff" stroke="#5df" stroke-width=".063" stroke-linecap="round" stroke-linejoin="round" overflow="visible"/><path style="marker:none" d="M39.327 42.937c-.674-.915-.832-1.998-.414-2.844a3.77 3.77 0 0 1 .5-.693l.343-.376.003.713.003.713.36-.042c.198-.024 1.192-.126 2.208-.227a90.625 90.625 0 0 0 2.09-.223c.308-.05.478-.22.479-.48.002-.447.218-.466.469-.04.105.178.124.317.118.87-.008.734-.208 1.72-.397 1.954-.113.138-.113.137-.4-.465-.175-.366-.334-.617-.405-.64-.065-.02-.44-.01-.832.024a56.38 56.38 0 0 1-2.397.105l-1.682.044.037.231c.078.488.174 1.504.15 1.578-.015.044-.118-.044-.233-.202zM73.627 37.951a4.956 4.956 0 0 1-.224-.624c-.176-.593-.35-.84-.725-1.025-.292-.145-.384-.155-1.604-.18-1.424-.028-1.647.007-1.892.297-.086.103-.223.45-.331.842-.101.366-.2.666-.218.667-.04 0-.323-.867-.47-1.44-.126-.493-.14-1.194-.031-1.535.108-.34.385-.776.519-.819.168-.054.219.01.325.397.167.612.331.872.645 1.024.257.124.347.133 1.072.1 1.267-.055 2.16-.305 2.538-.71.096-.103.223-.367.297-.619.071-.24.166-.476.21-.523.197-.204.512.148.695.777.13.448.096 1.681-.062 2.25-.108.39-.425 1.068-.568 1.215-.07.073-.098.058-.176-.094z" color="#000" fill="#f55" stroke="#f55" stroke-width=".031" stroke-linecap="round" stroke-linejoin="round" overflow="visible"/><path style="marker:none" d="M10.972 36.392c-.196-.15-1.049-1.068-1.049-1.13 0-.016.115-.137.255-.268 3.769-3.542 4.39-4.098 4.835-4.335.097-.051.117-.046.193.048.28.346-.247 1.204-2.488 4.047-1.11 1.408-1.433 1.794-1.504 1.794-.02 0-.13-.07-.242-.156zm.563-.661c.202-.202.657-.803.775-1.022.12-.224.118-.395-.006-.632-.114-.216-.247-.273-.424-.181-.162.083-1.153 1.05-1.231 1.201-.09.173-.041.302.212.56.282.288.442.305.674.074zM17.487 30.838c-.279-.039-.404-.166-.541-.551-.246-.688-.231-.795.157-1.16.569-.536 1.195-.905 1.533-.905.331 0 .342.04.359 1.448l.015 1.21-.657-.007c-.362-.003-.751-.019-.866-.035zM10.831 57.252a9.272 9.272 0 0 1-.576-.192l-.354-.13-.014-.326c-.016-.363.103-4.766.17-6.349.083-1.918.132-2.197.58-3.255.296-.697.4-.98.458-1.251.048-.224.27-.13.6.254.299.347.397.6.398 1.021 0 .316-.13 2.148-.51 7.128-.216 2.849-.262 3.171-.454 3.164a2.038 2.038 0 0 1-.298-.064z" color="#000" fill="#f55" stroke="#f55" stroke-width=".022" stroke-linecap="round" stroke-linejoin="round" overflow="visible"/><path style="marker:none" d="M6.943 52.136c-.1-.155-.287-1.067-.287-1.397 0-.115.03-.227.066-.25.133-.082.36.033.424.217.086.246.28.34.629.3.574-.065.767-.614.359-1.022-.178-.178-.258-.213-.492-.213-.521 0-.924-.222-.924-.511 0-.16.578-.769.828-.872.186-.077.203-.071.377.135.285.336.738 1.336.85 1.873.173.839-.048 1.24-.904 1.641-.592.277-.796.3-.926.099z" color="#000" fill="#2ad4ff" stroke="#2ad4ff" stroke-width=".031" stroke-linecap="round" stroke-linejoin="round" overflow="visible"/><path style="marker:none" d="M1.017 52.101c-.046-.143.045-1.185.145-1.656.276-1.313.912-2.476 1.893-3.467.42-.424.571-.51.906-.51.482 0 1.331.212 1.331.334 0 .062-.137.411-.245.625-.053.106-.257.458-.453.783-.49.813-.635 1.089-.743 1.408-.107.316-.387.805-.707 1.236-.432.581-.54.649-1.127.704-.554.053-.675.117-.873.46a.913.913 0 0 1-.096.15c-.006 0-.02-.03-.031-.067z" color="#000" fill="#2ad4ff" stroke="#2ad4ff" stroke-width=".016" stroke-linecap="round" stroke-linejoin="round" overflow="visible"/><path style="marker:none" d="M3.74 58.158c-.345-.439-1.011-1.65-1.293-2.356-.224-.56-.406-1.717-.407-2.594v-.453l.457-.061c.252-.033.53-.1.619-.147.088-.047.454-.473.813-.947.358-.474.718-.916.798-.983.18-.149.18-.158.057 1.18a284.61 284.61 0 0 0-.266 3.37c-.17 2.301-.29 3.184-.443 3.279-.04.024-.19-.105-.334-.288z" color="#000" fill="#2ad4ff" stroke="#2ad4ff" stroke-width=".044" stroke-linecap="round" stroke-linejoin="round" overflow="visible"/></svg>