<svg xmlns="http://www.w3.org/2000/svg" width="50" height="50"><path d="M12.58 49.793c-2.187-.394-4.722-1.278-6.744-2.354-2.194-1.167-4.426-2.907-5.29-4.124L0 42.546l.012-1.517c.013-1.78.213-2.655 1.937-8.494 1.916-6.488 2.512-9.057 2.549-10.977.012-.65-.137-1.733-.463-3.358-.897-4.475-1.124-6.933-.716-7.75.343-.687 1.663-1.338 4.874-2.407 1.713-.57 6.429-1.857 8.257-2.255 1.287-.28 1.58-.403 1.215-.511a9.082 9.082 0 0 0-.735-.16c-.68-.122-1.567-1.045-1.766-1.837-.398-1.58.576-3.098 2.094-3.265 1.235-.135 2.345.651 2.64 1.87.1.414.315.613 1.656 1.531l1.541 1.056 1.097-.187c4.615-.788 10.571-.912 12.185-.254.127.052.184-.155.223-.813.09-1.487.928-2.34 2.3-2.34 1.303 0 2.192.844 2.296 2.181.032.406.021.894-.024 1.084-.118.5-.816 1.291-1.347 1.527l-.457.203.678.729.677.728 2.282.086c4.236.16 4.822.445 5.192 2.529.285 1.608-.112 5.952-.837 9.147-.37 1.633-.623 2.34-.98 2.745-.25.282-.248.292.212 1.441 1.342 3.355 2.714 7.435 3.155 9.38.373 1.65.337 2.61-.13 3.391-.668 1.121-2.418 2.395-5.297 3.858-2.081 1.057-3.607 1.69-5.028 2.083-1.405.39-1.405.39-2.778 1.702-.568.543-1.285 1.144-1.594 1.337-1.211.754-2.919.89-5.68.453l-1.597-.253-1.048.85c-1.69 1.372-3.205 2.225-5.238 2.949-2.53.9-6.235 1.223-8.777.765zm6.151-1.228c1.67-.354 2.79-.768 4.493-1.658 1.48-.773 3.68-2.354 3.676-2.64-.001-.053-.347-.272-.768-.486-.737-.377-2.332-1.766-2.197-1.915.036-.04.406.225.821.589 1.28 1.12 1.866 1.384 3.881 1.746 1.121.201 2.367.328 3.267.334 1.308.007 1.521-.027 2.129-.343.37-.194 1.168-.823 1.771-1.398s1.387-1.246 1.742-1.49c1.04-.718 2.2-2.304 3.163-4.328.234-.49.45-.815.48-.723.115.358-1.378 3.057-2.295 4.146-.223.265-.337.498-.257.527.324.114 3.797-1.298 5.745-2.337 2.14-1.14 3.9-2.426 4.345-3.173.326-.549.259-1.417-.254-3.305-.853-3.137-3.524-10.334-3.883-10.458-.15-.053-.168.185-.11 1.407.054 1.107.034 1.432-.077 1.313-.292-.31-.167-3.332.21-5.077.748-3.462 1.058-7.105.7-8.223-.22-.682-.672-.805-2.993-.814-7.26-.029-21.431 2.187-24.653 3.854-2.37 1.227-4.698 4.95-6.425 10.275l-.473 1.46.21 1.28c.22 1.345.195 2.892-.053 3.349-.11.201-.125.003-.066-.84.074-1.067-.153-3.495-.326-3.482-.046.003-.49.15-.986.325l-.903.317-.22 2.863c-.467 6.106-.717 7.798-1.64 11.085-.393 1.403-.466 1.819-.343 1.957.086.097 1.284 1.057 2.663 2.133 2.354 1.838 2.927 2.425 2.355 2.416-.129-.002-1.251-.807-2.493-1.788-3.37-2.663-2.925-2.418-4.828-2.654-1.672-.207-2.065-.348-1.79-.64.103-.11.587-.097 1.78.044l1.637.194.115-.322c.278-.776 1.166-4.432 1.338-5.506.286-1.794.84-7.842.843-9.215.002-.548-.038-.644-.288-.702a3.286 3.286 0 0 1-.5-.16c-.165-.075-.28.094-.548.805-.187.495-.34 1.008-.341 1.139a.957.957 0 0 1-.14.444c-.242.363-.008-.911.33-1.797l.313-.815-.295-.674c-.161-.371-.434-1.17-.605-1.777-.303-1.076-.504-1.4-.504-.813 0 .923-.882 4.403-2.574 10.165-1.296 4.412-1.801 6.468-1.893 7.7-.067.901-.047 1.003.319 1.605.685 1.127 3.227 3.05 5.517 4.174 2.09 1.026 4.506 1.792 6.63 2.103 1.108.163 4.086.051 5.248-.196zm26.173-17.208c-.487-1.58-1.124-2.527-1.965-2.926-.27-.128-1.187-.312-2.039-.41l-1.548-.177.929-.23c.51-.128 1.153-.232 1.428-.232.736 0 1.64.373 2.105.868.505.537 1.095 1.821 1.285 2.793.2 1.026.083 1.215-.195.314zm-21.486-1.308c0-.078.286-.638.637-1.242 1.023-1.767 1.97-2.518 3.174-2.52.597-.001 1.801.367 2.482.76.335.193.493.31.351.26-.141-.05-.807-.18-1.478-.289-.97-.157-1.349-.165-1.848-.037-.952.242-2.29 1.44-3.027 2.712-.16.274-.29.435-.29.356zm5.521-4.53c.457-.708 1.892-2.05 2.56-2.395 1.324-.685 2.826-.282 4.107 1.1.352.38.579.691.503.691-.075 0-.247-.13-.382-.289-.135-.159-.594-.478-1.02-.71-.65-.354-.92-.422-1.677-.42-1.303.005-2.406.574-3.924 2.026l-.441.421.274-.424zm-20.662-.04c.167-.695.147-.867-.528-4.447-1.174-6.227-1.396-8.422-.91-9.004.354-.425 1.289-.845 3.494-1.573C18.263 7.84 30.487 5.71 34.45 6.253c.828.114 1.185.115 1.31.005.28-.247.092-.36-.892-.537-.911-.163-3.517-.115-4.87.09-.398.06-.54.044-.452-.053.071-.078.88-.216 1.8-.307 1.645-.162 2.888-.113 4.117.165.52.117.661.105.829-.074.183-.194.171-.226-.127-.347-1.314-.53-6.192-.543-10.038-.024-1.17.158-2.207.317-2.304.354-.114.045-.147.184-.096.401.137.578-.388 1.065-1.226 1.14-.78.068-1.945-.235-2.332-.607-.279-.268-.599-.22-4.041.59-5.841 1.377-10.805 3.012-11.709 3.855-.3.28-.29.989.04 3.39.508 3.683 1.757 9.212 2.454 10.862.335.794.716 1.177 1.073 1.08.064-.018.195-.359.29-.757zM6.2 18.05c-.15-.445-.975-5.528-.975-6.003 0-.597.166-.79 1.097-1.282.728-.385 2.121-.841 2.226-.73.038.04-.012.1-.11.13-1.544.49-2.87 1.165-3.002 1.527-.078.216.14 1.77.64 4.57.18 1.006.296 1.863.258 1.904-.039.04-.1-.012-.134-.117zm2.957 7.929c.798-2.568 2.715-7.288 3.679-9.057.562-1.03.606-1.214.349-1.44-.357-.315-3.164 5.857-4.082 8.975-.217.737-.394 1.419-.394 1.516 0 .227.378.232.448.005zm.927-.23c.27-.176.438-.417.5-.72.328-1.61 2.159-5.822 3.376-7.766 1.566-2.503 2.948-3.566 5.716-4.396 4.908-1.471 16.21-3.026 22.321-3.07 3.702-.027 3.851.09 3.862 3.059.006 1.615-.275 3.95-.759 6.305-.29 1.41-.328 1.918-.145 1.918.065 0 .18-.2.254-.445.291-.955.912-3.87 1.053-4.94.082-.618.194-1.372.25-1.673l.102-.548.014.633c.019.844-.282 2.65-.828 4.975-.246 1.049-.427 1.93-.402 1.956.465.493 1.76-6.503 1.76-9.51 0-1.02-.213-2.161-.44-2.362-.228-.2-1.192-.376-2.689-.493-1.1-.085-1.258-.07-1.258.12 0 .12-.105.277-.235.35-.129.074-1.711.232-3.516.352-1.804.12-3.435.253-3.623.296-.267.06-.437-.018-.768-.353-.39-.396-.477-.425-1.076-.359-.359.04-1.581.17-2.716.288-2.973.31-5.907.708-8.129 1.102-2.827.5-2.832.502-2.88.849-.062.457-.6.823-1.77 1.202-1.082.35-1.332.503-2.513 1.536-.698.61-1.137.723-1.465.375-.175-.186-.23-.168-.525.17-.361.413-.396.526-.201.654.295.194.07.911-1.006 3.202-1.12 2.388-2.654 6.264-2.814 7.117-.096.51-.01.537.55.175zm-.596-3.985c1.197-3.224 2.829-6.496 3.83-7.68 1.04-1.228 2.42-2.162 4.324-2.922 2.25-.9 7.522-1.8 14.53-2.48 1.088-.105 1.993-.212 2.01-.236l.583-.794.55-.75-.433-.123c-.61-.173-5.433-.005-7.206.25-7.536 1.088-16.584 3.31-19.838 4.874l-.806.388v.865c0 1.27 1.196 8.817 1.635 10.321.08.274.08.274.184 0l.637-1.713zm5.93-7.874c.88-.865 1.41-1.189 2.656-1.623 1.159-.403 1.667-.758 1.437-1.002-.296-.315-3.929 1.36-4.864 2.243-.51.48-.557.573-.402.772.233.297.598.176 1.173-.39zm24.705-4.74c2.074-.131 2.729-.276 2.208-.489-.392-.16-5.588.155-5.811.352-.364.32-.21.407.607.34.443-.035 1.792-.127 2.996-.203zm-4.369-.055c.247-.184 2.569-3.544 2.656-3.843.021-.075-.059-.156-.178-.18-.146-.03-.434.283-.881.957a31.188 31.188 0 0 0-.773 1.207c-.06.112-.15.162-.198.11-.048-.051.234-.579.628-1.172.746-1.125.898-1.473.646-1.473-.141 0-2.69 3.355-2.845 3.744-.11.28.189.848.447.848.128 0 .352-.09.498-.198zm1.766-.965c.014-.075-.076-.156-.2-.182-.141-.029-.226.039-.226.18 0 .238.382.24.426.002zm2.284-.04c0-.06-.341-.467-.758-.905l-.758-.797-.358.499-.358.498.366.405c.323.359.453.406 1.116.406.412 0 .75-.048.75-.107zM23.042 6.294l.297-.256-1.154-.793c-2.969-2.04-2.928-2.015-3.041-1.825-.21.352-.103.494 1.113 1.478.674.545 1.225 1.055 1.225 1.133 0 .094-.054.096-.16.006-2.09-1.755-2.931-2.295-2.777-1.783.096.318 2.203 2.004 2.669 2.136.781.222 1.502.184 1.828-.096zm16.73-2.11c.582-.575.238-1.837-.568-2.082-.37-.113-.82.489-.82 1.098 0 .346.099.534.42.803.23.193.364.351.297.352-.067.001-.285-.164-.484-.366a1.213 1.213 0 0 1-.222-1.435c.224-.444-.004-.493-.344-.074-.471.581-.43 1.335.097 1.807.34.304.487.35.871.275.254-.05.593-.22.752-.377zm-21.999-.823c.281-.727.281-.736-.032-1.16-.142-.191-.258-.494-.258-.672 0-.44-.29-.413-.802.073-.346.328-.418.496-.418.973s.072.645.418.974c.582.552.822.51 1.092-.188zm.733.087c.407-.55.36-1.343-.11-1.843-.234-.248-.454-.369-.58-.317-.286.116-.256.298.14.85.357.496.357.472-.02 1.43-.15.383.262.295.57-.12z" fill="#464646"/><path style="marker:none" d="M17.908 3.724c0-.049.075-.308.166-.577l.167-.488-.107-.189a55.008 55.008 0 0 0-.329-.564c-.215-.364-.219-.38-.136-.506.05-.076.135-.13.202-.13.288 0 .752.508.874.956.072.268.031.739-.085.968-.212.422-.752.802-.752.53z" color="#000" fill="#ffb380" stroke="#000" stroke-width=".052" stroke-linecap="round" stroke-linejoin="round" overflow="visible"/><path style="marker:none" d="M17 3.82c-.249-.153-.629-.592-.7-.81-.097-.292-.044-.854.101-1.09.155-.25.702-.703.85-.703.155 0 .241.094.241.262 0 .204.099.456.303.776.22.345.225.489.035.988-.245.64-.472.798-.83.577zM21.749 6.507c-.632-.075-1.216-.426-2.42-1.457-.568-.485-.798-.738-.798-.876 0-.3.664.113 2.206 1.371.37.303.683.526.693.496.028-.085-.144-.25-1.174-1.122-1.205-1.022-1.29-1.127-1.146-1.441.07-.154.144-.164.367-.048.4.206 3.829 2.547 3.829 2.613 0 .068-.318.32-.493.393-.234.096-.629.123-1.064.07zM35.058 9.184c-.15-.15-.28-.434-.28-.61 0-.196.873-1.437 2.053-2.919.689-.864.829-1.005.916-.917.079.078-.102.462-.528 1.125-.347.54-.832 1.378-.832 1.438 0 .138.147-.024.448-.49.665-1.031.826-1.26 1.06-1.505.13-.136.274-.248.318-.248.119 0 .211.136.174.254-.076.24-2.081 3.166-2.483 3.623-.155.176-.497.376-.649.379-.037 0-.126-.058-.197-.13zM38.3 4.42c-.358-.272-.527-.554-.554-.92-.012-.172.007-.42.044-.55.083-.297.506-.782.638-.731.08.03.077.058-.028.333-.223.587-.127 1.073.293 1.48.36.348.436.333.099-.021-.472-.495-.537-.876-.247-1.452.285-.565.727-.612 1.156-.123.249.284.332.522.34.97.004.361-.009.417-.15.622-.213.307-.71.563-1.095.563-.229 0-.31-.027-.497-.17z" color="#000" fill="#ffb380" stroke="#000" stroke-width=".052" stroke-linecap="round" stroke-linejoin="round" overflow="visible"/><path style="marker:none" d="M9.498 25.93c-.158-.256 1.126-3.669 2.67-7.09 1.258-2.79 1.447-3.376 1.165-3.61-.128-.106-.083-.278.146-.553.306-.369.421-.427.571-.29.16.146.321.223.464.222.225 0 .638-.244 1.163-.686 1.05-.882 1.287-1.022 2.45-1.447 1.177-.43 1.488-.638 1.668-1.115.062-.165.148-.286.244-.342.35-.203 4.498-.908 7.727-1.311 1.39-.174 5.235-.595 5.794-.635.246-.018.51-.017.584.002.075.02.291.174.48.345.188.171.399.325.467.343.069.017.504-.006.968-.051a71.835 71.835 0 0 1 1.647-.138c1.503-.105 4.017-.315 4.41-.369.416-.057.606-.17.636-.376.03-.21.226-.247 1.01-.19 1.556.116 2.649.307 2.92.51.162.12.29.514.401 1.23.097.622.07 2.224-.058 3.374-.387 3.512-1.2 7.293-1.567 7.293-.102 0-.094-.051.347-2.05.548-2.486.735-3.577.802-4.671.042-.691-.043-.59-.153.18-.317 2.222-1.018 5.628-1.294 6.288-.211.505-.389.281-.294-.37.031-.214.161-.95.289-1.635.482-2.586.66-4.175.667-5.97.009-2.149-.154-2.582-1.082-2.863-.283-.086-.533-.094-2.725-.091-1.997.003-2.665.023-3.867.118-5.298.42-10.72 1.168-15.131 2.089-4.148.866-5.787 1.528-7.264 2.933-1.113 1.06-2.185 2.75-3.355 5.29-.813 1.764-1.354 3.156-1.71 4.4-.202.705-.3.865-.679 1.107-.272.174-.455.22-.51.13z" color="#000" fill="#ffb380" stroke="#000" stroke-width=".052" stroke-linecap="round" stroke-linejoin="round" overflow="visible"/><path style="marker:none" d="M36.362 9.295c-.082-.098.193-.329.438-.367l.348-.053c.37-.054 2.21-.183 3.387-.237 1.552-.07 2.01-.03 1.932.174-.06.156-.703.235-3.434.425-2.17.151-2.587.16-2.671.058zM7.49 26.083c-.365-.3-.763-1.246-1.21-2.876-.931-3.386-1.84-8.217-2.057-10.923-.072-.903-.021-1.174.267-1.435.68-.614 4.094-1.84 8.171-2.935 2.043-.549 4.966-1.25 6.177-1.48.873-.168 1.112-.156 1.422.068.648.47 2.064.69 2.761.429.31-.116.578-.355.67-.597.032-.085.044-.27.027-.416-.016-.144-.01-.291.013-.326.052-.077.544-.171 1.803-.347 2.492-.348 3.598-.42 6.41-.418 2.237.002 2.469.011 3.155.119.806.126 1.189.242 1.278.388.048.078.032.117-.088.221-.183.159-.393.163-1.126.022a12.092 12.092 0 0 0-3.02-.166c-1.309.09-2.586.276-2.586.378 0 .06-.09.064.843-.04 1.042-.116 4.032-.13 4.581-.021.483.095.909.256.909.343 0 .123-.263.285-.462.285-.103 0-.514-.034-.914-.077-2.952-.314-8.76.388-15.52 1.874-5.443 1.197-10.637 2.794-11.889 3.655-.319.22-.437.488-.475 1.078-.073 1.143.239 3.304 1.331 9.224.454 2.458.478 2.719.315 3.374-.161.647-.222.753-.431.753-.11 0-.234-.053-.356-.154zm-1.315-9.115c-.073-.455-.226-1.376-.34-2.047-.246-1.443-.415-2.666-.415-3.01 0-.218.024-.271.195-.44.238-.233 1.521-.868 2.31-1.143.308-.106.572-.215.587-.24.119-.191-1.319.266-2.132.678-.965.49-1.115.66-1.115 1.255 0 .656.806 5.674.974 6.066.089.207.056-.373-.064-1.119zM38.56 8.18c-.26-.046-.468-.19-.77-.537l-.235-.267.158-.211c.086-.117.243-.334.348-.483.105-.15.206-.273.225-.273.053 0 1.224 1.246 1.377 1.468.08.116.117.215.09.241-.066.062-.936.107-1.193.062z" color="#000" fill="#ffb380" stroke="#000" stroke-width=".052" stroke-linecap="round" stroke-linejoin="round" overflow="visible"/><path style="marker:none" d="M14.285 14.329a.375.375 0 0 1-.103-.225c0-.246.569-.758 1.427-1.283.95-.582 2.839-1.426 3.491-1.56.291-.06.335-.059.412.02.218.217-.202.513-1.382.975-1.33.52-1.695.733-2.495 1.452-.243.218-.544.47-.67.56-.27.194-.524.217-.68.06zM8.76 26.08c-.047-.046-.073-.122-.06-.169.013-.047.098-.365.187-.708.522-1.992 1.765-5.156 3.038-7.734.563-1.14.891-1.712 1.085-1.892l.136-.127.11.11c.165.165.106.346-.527 1.61-.954 1.906-2.367 5.33-3.228 7.825-.4 1.158-.509 1.318-.742 1.085z" color="#000" fill="#ffb380" stroke="#000" stroke-width=".052" stroke-linecap="round" stroke-linejoin="round" overflow="visible"/><path style="marker:none" d="M37.236 8.3c-.1-.024-.154-.101-.142-.206.008-.074.044-.12.11-.144.046-.016.064-.016.122-.001.074.018.171.077.184.111a.184.184 0 0 1-.017.145c-.043.07-.166.116-.257.095z" color="#000" fill="#afdde9" stroke="#000" stroke-width=".013" stroke-linecap="round" stroke-linejoin="round" overflow="visible"/><path style="marker:none" d="M8.685 23.565c-.244-.767-.83-4.042-1.29-7.203-.257-1.773-.334-2.484-.356-3.304l-.02-.771.472-.227c1.772-.849 3.9-1.553 7.447-2.466 4.597-1.184 10.965-2.427 13.727-2.682 1.61-.148 4.671-.254 5.597-.193.579.038 1.028.125 1.028.198 0 .034-.952 1.353-1.063 1.472-.081.088-.227.108-2.258.32-5.237.547-8.534 1.018-11.287 1.615-1.996.433-3.157.821-4.4 1.471-1.617.847-2.744 1.85-3.6 3.209-.715 1.133-1.694 3.096-2.461 4.937a83.154 83.154 0 0 0-1.08 2.78c-.198.53-.372.963-.389.963-.016 0-.047-.053-.067-.119z" color="#000" fill="#c8b7b7" stroke="#000" stroke-width=".037" stroke-linecap="round" stroke-linejoin="round" overflow="visible"/><path style="marker:none" d="M13.627 48.785c-2.081-.256-4.806-1.133-7.092-2.28-1.834-.92-4.266-2.732-4.997-3.721-.595-.806-.658-1.136-.468-2.442.202-1.384.56-2.775 2.06-8.001 1.47-5.125 2.178-7.88 2.28-8.883.023-.222.058-.486.08-.587.036-.178.04-.18.142-.04.058.08.255.617.438 1.195.183.578.446 1.321.586 1.651l.253.601-.214.554c-.267.693-.536 1.733-.5 1.94.018.11.052.059.115-.175.282-1.038.655-1.99.82-2.093.144-.088.813.19.896.372.097.212-.007 2.132-.273 5.024-.372 4.05-.528 5.04-1.257 7.965-.504 2.025-.67 2.533-.831 2.533-.075 0-.56-.048-1.079-.106-1.765-.199-2.03-.21-2.19-.088-.314.235-.029.327 1.856.595 1.525.218 1.782.332 3.135 1.4 2.522 1.99 3.95 3.043 4.13 3.043.05 0 .091-.062.091-.139 0-.189-.748-.845-3.175-2.786-1.855-1.483-2.037-1.648-2.037-1.85 0-.12.229-1.136.509-2.255.629-2.517.76-3.192.992-5.14.16-1.34.514-5.3.671-7.528l.051-.723.302-.13c.65-.278 1.585-.546 1.657-.475.132.133.23 1.086.274 2.665.033 1.196.062 1.536.124 1.432.144-.243.09-2.652-.08-3.623l-.149-.843.495-1.48c1.85-5.534 4.132-9.142 6.518-10.305 3.265-1.592 15.955-3.627 23.651-3.794 3.82-.082 3.977.002 4.026 2.152.04 1.777-.17 3.565-.826 7.038-.333 1.761-.449 4.586-.198 4.824.083.079.091-.105.05-1.156-.066-1.662.004-1.843.406-1.048.326.647 1.368 3.315 2.1 5.381 1.893 5.34 2.295 7.267 1.682 8.068-.916 1.2-3.627 2.9-6.836 4.288-1.497.647-2.775 1.112-3.065 1.114-.208 0-.15-.15.284-.734.794-1.07 2.005-3.203 2.1-3.7.066-.342-.1-.096-.712 1.058-1.006 1.897-1.736 2.85-2.901 3.788a48.12 48.12 0 0 0-1.508 1.283c-1.166 1.04-1.656 1.419-2.14 1.656l-.426.21-1.505-.002c-1.596-.002-2.598-.11-4.128-.444-1.228-.27-1.718-.509-2.835-1.389-.538-.424-.993-.771-1.01-.771-.018 0 .023.084.09.186.192.293 1.353 1.233 2.044 1.656.83.507.847.53.583.813-.357.382-1.687 1.339-2.689 1.934-2.033 1.209-3.932 1.91-5.966 2.204-.884.128-3.687.197-4.404.108zm31.39-17.924c-.164-.682-.365-1.195-.735-1.88-.41-.756-.982-1.212-1.83-1.458-.516-.15-1.304-.102-2.289.141l-.697.172.514.055c.915.098 2.339.332 2.733.45.483.144 1.126.722 1.493 1.342.144.244.408.835.587 1.312.368.983.476.917.224-.134zm-21.195-1.38c.608-.984 1.98-2.203 2.78-2.469.465-.154 1.657-.105 2.66.11.364.078.674.128.69.112.068-.067-1.28-.636-1.842-.778-1.167-.295-2.022-.068-2.845.755-.448.447-1.062 1.32-1.442 2.047-.409.782-.41.885-.001.224zm6.431-4.954c.58-.426 1.148-.72 1.73-.893.582-.173 1.706-.175 2.161-.003.437.166 1.133.593 1.535.943.177.154.338.266.356.248.06-.06-.526-.708-.97-1.072-1.287-1.058-2.699-1.21-3.855-.415-.785.54-2.346 2.105-2.35 2.356 0 .036.205-.131.457-.373.253-.242.674-.598.936-.79z" color="#000" fill="#ccc" stroke="#000" stroke-width=".073" stroke-linecap="round" stroke-linejoin="round" overflow="visible"/></svg>