<svg xmlns="http://www.w3.org/2000/svg" width="70" height="220"><path d="M.339 200.628c.225-2.708.75-11.016 1.166-18.463.78-13.979 1.136-16.276 2.696-17.39.78-.557.99-1.68 1.406-7.51.27-3.77.603-8.296.74-10.056 1.067-13.589 1.682-28.582 1.685-41.11.006-18.513-.879-29.1-2.747-32.894-.982-1.995-.936-6.66.086-8.724 1.939-3.914 3.694-4.952 9.528-5.636 3.255-.382 2.973.432 3.753-10.842.281-4.062.719-9.933.973-13.047.254-3.114.465-7.132.47-8.929.01-4.763.516-5.021 9.36-4.767 8.017.23 8.986.582 8.986 3.265 0 1.013-.339 2.334-.752 2.936-.678.988-1.16 1.095-4.946 1.097-4.057.002-7.81.662-7.819 1.374-.002.19-.217 2.242-.477 4.558-1.067 9.496-2.415 26.402-2.415 30.286 0 4.138.683 5.61 1.184 2.55.242-1.483 1.602-21.068 1.917-27.62.087-1.796.392-3.045.812-3.316 1.752-1.132 9.096-.033 13.08 1.959l1.79.895.233-2.02c.701-6.081 1.269-16.23.926-16.55-.218-.203-1.195-.63-2.172-.948-4.391-1.43-12.44-7.876-13.632-10.918-.736-1.876-.725-2.1.22-4.28C27.673 1.573 29.138 0 30.608 0c1.433 0 8.504 5.131 12.203 8.856 1.483 1.493 3.284 3.741 4.003 4.996l1.307 2.283-.949 3.626c-.613 2.344-1.323 8.41-2.008 17.164-1.538 19.655-1.666 23.082-.867 23.34.363.118 2.723.795 5.244 1.505 2.522.71 5.944 1.935 7.605 2.723 3.582 1.699 8.065 5.844 8.81 8.146.69 2.134-.023 4.91-1.87 7.28-.758.974-1.659 2.79-2.001 4.037-.76 2.767-1.095 2.395 6.399 7.089 3.119 1.953 5.92 4.026 6.223 4.605.489.931.346 9.403-.267 15.865-.712 7.491-1.49 12.928-4.654 32.494-2.918 18.045-2.587 16.62-4.34 18.659-1.499 1.74-6.387 3.873-11.924 5.202-2.701.648-3.043 1.228-1.832 3.113 1.94 3.022 1.953 11.231.037 24.968-.36 2.573-.796 6.56-.971 8.862-.176 2.302-.792 5.625-1.37 7.385-1.036 3.154-1.097 3.223-4.188 4.783-5.134 2.59-9.714 3.25-20.45 2.953-12.048-.334-19.171-1.958-23.04-5.253-1.57-1.336-1.622-1.5-1.7-5.254-.043-2.132.106-6.09.332-8.799zm1.907 5.87c4.708.926 4.134 1.242 5.042-2.767 2.35-10.366 3.647-18.103 3.761-22.455l.125-4.75-4.014-1.414c-2.208-.778-4.077-1.336-4.153-1.242-.077.099-.512 6.373-.969 13.953-.456 7.58-.922 13.876-1.034 13.99-.113.116-.206 1.153-.206 2.305 0 1.935.11 2.115 1.448 2.38zm-.603 6.572c1.156 1.342 7.269 3.795 11.944 4.792 8.704 1.858 22.64 1.4 29.014-.951 3.738-1.38 5.642-3.17 6.424-6.041.92-3.377.836-3.501-2.019-3.036-4.894.798-22.395 1.49-29.558 1.169-6.713-.3-12.104-.837-15.322-1.524-1.307-.28-1.328-.246-1.328 2.163 0 1.628.283 2.775.845 3.427zm4.145-39.386c1.37.56 2.925 1.14 3.456 1.288 1.811.507 13.986 2.325 17.856 2.667 5.292.468 17.635.43 21.596-.066l3.257-.408-.007-2.053c-.013-3.5.016-3.489-7.367-2.766-5.154.505-7.624.516-11.782.055-6.1-.676-16.562-3.252-22.182-5.463-5.114-2.011-6.628-1.573-7.385 2.138-.557 2.726-.12 3.514 2.558 4.608zm.366-101.5c.477.587.674.605 1.016.089.302-.454.384-.357.284.339-.317 2.205 9.338 6.036 21.966 8.716 6.581 1.397 8.22 1.56 16.018 1.593 7.693.033 9.076-.088 12.094-1.056 6.638-2.13 9.056-5.208 7.21-9.175-1.295-2.785-1.981-3.106-2.874-1.345-1.47 2.9-2.858 3.247-12.81 3.21-10.074-.033-16.04-1.035-26.543-4.436-8.126-2.632-10.916-5.313-9.026-8.673.722-1.284.719-1.381-.048-1.381-1.63 0-4.132.982-5.304 2.08-2.39 2.242-3.074 3.868-2.815 6.692.132 1.44.506 2.947.832 3.347zm.556 92.12c2.122 1.672 15.065 5.598 22.534 6.835 4.903.811 14.73.825 18.124.022l2.413-.57.295-4.184c.161-2.3.656-9.61 1.098-16.245 1.733-26.002 4.627-47.283 8.26-60.747.886-3.28 1.76-6.353 1.942-6.827.434-1.126-.218-1.1-4.114.165-10.366 3.368-35.005-.044-46.773-6.484-1.44-.787-2.731-1.314-2.871-1.17-.14.142.03 3.188.379 6.767 1.193 12.246 1.214 33.694.052 52.787-.576 9.478-1.217 19.226-1.424 21.663-.573 6.757-.566 7.474.085 7.986zm33.445-21.526c.085-.406.29-1.79.456-3.077.166-1.286.46-2.338.655-2.338.37 0-.72 9.832-1.137 10.258-.256.26-.235-3.598.026-4.843zm2.79 7.859c.114-.125.34-2.558.5-5.408.944-16.645 4.663-42.102 6.601-45.19.41-.652.46-.458.23.89l-1.708 10.016c-1.802 10.576-3.23 21.898-3.83 30.356-.804 11.325-1.129 15.285-1.242 15.148-.24-.29-.742-5.6-.55-5.812zm-30.708 57.025l4.44.14.54-2.043c2.064-7.82 3.85-18.99 3.85-24.074 0-3.88.487-3.465-5.238-4.463-1.686-.294-3.148-.451-3.249-.348-.1.1-.383 2.499-.628 5.324-.429 4.956-2.236 14.814-3.65 19.907-.375 1.354-.643 3.126-.594 3.939l.088 1.477 4.44.14zM14.07 64.318c.398.156.724.513.724.792 0 .532 1.425 1.805 2.05 1.832.2.01.363-.628.363-1.415 0-1.212-.166-1.401-1.086-1.239-.857.152-.806.066.241-.387 1.078-.47 1.327-.896 1.327-2.26 0-1.589-.074-1.663-1.327-1.344-2.561.652-4.083 3.32-2.292 4.021zm4.705 143.706c.597.152 3.583.21 6.634.132l5.549-.143.555-1.73c1.792-5.592 3.208-13.89 3.4-19.933.111-3.52.028-6.655-.186-6.967-.327-.476-8.23-.957-11.85-.72-.718.044-.845.566-.845 3.452 0 3.718-1.278 11.804-3.082 19.497-1.465 6.25-1.46 6.085-.175 6.41zM19.5 68.126l1.378.727.579-8.702c.874-13.13 1.978-27.187 2.296-29.221.361-2.312 1.573-2.78 8.276-3.198 4.62-.289 4.964-.382 4.97-1.343.003-.568.132-1.51.285-2.091.253-.963-.03-1.13-3.118-1.847-4.054-.94-9.971-1.017-11.651-.151-1.188.612-1.215.764-1.768 9.716-.309 5.002-.679 10.424-.822 12.048-.142 1.625-.51 6.167-.815 10.093-.306 3.927-.607 7.195-.668 7.263-.062.066-.159 1.442-.216 3.052-.097 2.767-.028 2.967 1.274 3.654zm5.756 1.693c1.13.164 1.232-.218 1.803-6.8.854-9.834 1.944-17.564 2.583-18.322.557-.66 1.676-.874 5.118-.984l4.404-.141v-4.431l-2.654-.908c-1.46-.499-4.304-1.027-6.321-1.173l-3.667-.265-.328 1.666c-.18.916-.644 7.735-1.029 15.154-.385 7.418-.822 13.613-.972 13.765-.64.653.075 2.296 1.063 2.44zm2.757-60.091c2.313 3.37 11.419 9.456 14.168 9.468 1.255.006 1.336.77.623 5.913-.542 3.916-1.241 14.131-2.442 35.695-.271 4.874-.617 9.557-.768 10.406-.285 1.597.478 2.65 1.306 1.805.245-.25.656-3.1.912-6.333s.683-7.983.949-10.555c.265-2.573.594-5.785.73-7.14.214-2.121.821-9.688 1.958-24.37.157-2.031.516-4.625.798-5.765.72-2.915.231-4.289-2.641-7.414C40.063 7.582 31.787.984 30.494.984c-1.172 0-2.127.92-3.326 3.2-.915 1.742-.673 3.332.845 5.544zM29.15 70.86c4.247 1.161 9.004 2 9.338 1.647.198-.209.431-1.931.518-3.827l.157-3.446-4.102-.579c-2.256-.318-4.792-.595-5.637-.616-1.69-.044-1.896.393-2.018 4.252-.064 1.999 0 2.092 1.744 2.568zm1.167-7.35c1.371 0 3.88.247 5.576.548 1.695.302 3.158.468 3.252.37.094-.099.245-.94.336-1.872.158-1.623.076-1.72-1.978-2.334-2.665-.798-7.916-1.371-8.926-.976-.512.2-.755.934-.755 2.28v1.985h2.495zm3.417-4.753c2.986.454 5.566.824 5.734.82.167-.003.445-2.387.618-5.298.172-2.911.444-6.733.603-8.493.281-3.099.261-3.175-.618-2.404-.626.549-2.318.893-5.452 1.108-2.5.172-4.624.393-4.721.492-.225.23-1.46 9.426-1.536 11.43l-.057 1.518 5.43.827zm3.477 149.01h5.045l.275-1.601c1.11-6.46 2.182-17.163 2.182-21.771v-5.514l-3.981.2c-5.055.254-5.072.26-4.838 1.93.375 2.69-1.27 16.622-2.463 20.848-1.796 6.363-2.087 5.908 3.78 5.908zM49.422 73.74c3.783.077 7.583-.055 8.445-.288l1.566-.425-3.467-1.794c-1.907-.986-5.559-2.397-8.116-3.133-5.435-1.567-5.63-1.466-5.433 2.796l.126 2.708 6.878.136zm-2.174-6.625c2.455.752 6.357 2.276 8.67 3.387 3.499 1.679 4.332 1.913 4.947 1.392 2.87-2.43-3.821-7.065-13.943-9.66-3.672-.94-4.117-.722-4.13 2.026-.008 1.45.102 1.521 4.456 2.855zM45.318 207.1c1.127-.147 2.616-.278 3.308-.292 1.21-.022 1.268-.16 1.54-3.595.412-5.176 1.775-20.978 1.997-23.14.213-2.07.044-2.132-4.174-1.543l-2.168.304-.318 7.451c-.174 4.098-.718 10-1.208 13.113-1.339 8.502-1.403 8.018 1.022 7.702zm7.65-39.959c5.567-.959 11.338-3.634 12.377-5.735.572-1.158 5.913-33.018 6.836-40.782 1.773-14.905 2.056-18.133 1.89-21.51-.114-2.284-.41-3.848-.751-3.964-.31-.11-3.057-1.84-6.104-3.852-3.047-2.014-5.765-3.66-6.039-3.66-.655 0-1.642 3.405-1.428 4.927.126.9 1.054 1.702 3.786 3.272 1.99 1.143 4.309 2.701 5.15 3.463l1.532 1.384-.892 7.385c-1.72 14.236-6.279 43.312-7.275 46.395-.749 2.317-3.852 4.795-7.204 5.755-3.201.916-3.464 1.186-3.868 3.977-.426 2.936-.168 3.317 1.99 2.945zm-1.214-7.005c.447.456 5.109-1.084 6.808-2.25 1.811-1.242 2.29-2.19 3.263-6.476 1.813-7.976 6.136-36.34 6.755-44.325.168-2.167.412-4.502.542-5.19.215-1.138-.218-1.53-4.854-4.382-2.8-1.723-5.173-3.044-5.275-2.935-.342.369-4.099 24.286-4.593 29.246-.27 2.708-.929 10.462-1.463 17.232-.535 6.77-1.049 13.084-1.142 14.032-.314 3.178-.327 4.757-.041 5.048z" fill="#464646" stroke="#464646" stroke-width=".606" transform="matrix(.97823 -.03444 .0337 .99937 -6.793 1.054)"/><path d="M29.448 177.689c-3.332-.193-9.086-.927-15.649-1.995-3.698-.603-4.628-.834-6.893-1.712-3.343-1.296-3.886-1.846-3.714-3.76.208-2.309.922-3.737 2.106-4.216.845-.343 2.42-.01 5.858 1.235 3.248 1.176 8.3 2.622 12.414 3.552 8.8 1.99 12.882 2.33 20.36 1.693 6.41-.545 7.268-.496 7.707.445.108.234.198 1.271.198 2.306v1.88l-1.918.21c-4.749.524-14.654.698-20.47.362z" style="marker:none" color="#000" fill="#ff8080" stroke="#ff8080" stroke-width=".176" stroke-linecap="round" stroke-linejoin="round" overflow="visible" transform="matrix(.97823 -.03444 .0337 .99937 -6.793 1.054)"/><path d="M42.962 206.394c-.329-.193-.261-2.25.201-6.13.588-4.925.938-11.788.962-18.82l.01-3.168 1.324-.249a41.401 41.401 0 0 1 2.807-.401c1.272-.131 1.52-.111 1.744.14.228.256.178 1.929-.4 13.389-.651 12.903-.746 14.198-1.063 14.537-.088.095-1.246.32-2.574.502-2.865.393-2.7.382-3.01.2zM18.295 208.138c-.745-.262-.74-.332.454-6.928 1.468-8.1 2.183-14.045 2.195-18.227.008-2.957.063-3.49.397-3.847.313-.335 3.66-.495 7.394-.355 3.308.124 3.995.205 4.32.508.445.415.567 9.407.179 13.122-.552 5.268-1.38 10.066-2.37 13.74l-.464 1.717-5.883.195c-3.235.107-6.035.14-6.222.075zM3.148 207.374c-2.12-.408-2.17-.48-2.133-3.009.014-1.008.083-2.544.151-3.413.069-.869.275-6.49.459-12.494.184-6.003.365-11.528.404-12.277l.07-1.363.544.096c.3.053 2.055.57 3.9 1.149l3.355 1.053.096 1.118c.15 1.748-.068 6.936-.429 10.21-.38 3.457-.939 7.256-1.759 11.969-1.28 7.363-1.246 7.258-2.364 7.273-.345.004-1.377-.136-2.294-.312z" style="marker:none" color="#000" fill="#fca" overflow="visible"/><path d="M38.458 82.653c-4.962-.331-14.824-2.53-21.584-4.811-6.082-2.053-9.276-3.882-9.276-5.312 0-.65-.099-.701-.562-.291-.438.387-.767.104-1.108-.953-.632-1.964-.686-4.339-.13-5.787.493-1.289 1.969-3.028 3.261-3.845 1.097-.693 2.715-1.28 4.024-1.46.91-.127.949.014.336 1.236-.975 1.941-.753 3.131.874 4.7 1.922 1.85 5.815 3.502 13.106 5.558 8.152 2.299 12.721 2.882 22.575 2.88 9.204 0 10.144-.25 12.086-3.225.37-.568.693-.873.924-.873.741 0 2.234 3.204 2.23 4.787-.005 2.477-2.857 4.89-7.608 6.437-3.004.979-4.071 1.075-11.566 1.042-3.729-.016-7.14-.054-7.582-.083z" style="marker:none" color="#000" fill="#ff8080" stroke="#ff8080" stroke-width=".176" stroke-linecap="round" stroke-linejoin="round" overflow="visible" transform="matrix(.97823 -.03444 .0337 .99937 -6.793 1.054)"/><path d="M57.902 71.273c-4.767-2.08-7.177-3.049-9.811-3.945-5.451-1.856-5.173-1.674-5.173-3.381 0-1.46.403-2.111 1.306-2.109.768.002 3.573.715 6.21 1.576 6.596 2.156 11.457 5.47 10.948 7.464-.323 1.266-1.244 1.37-3.48.395zM35.426 63.92c-1.128-.172-3.284-.37-4.791-.44l-2.74-.13.071-1.737c.088-2.138.294-2.393 1.94-2.393 2.536 0 8.015 1.011 9.04 1.668.344.22.404.412.404 1.28 0 .561-.05 1.266-.111 1.566-.107.52-.148.544-.937.52-.453-.013-1.748-.164-2.876-.335z" style="marker:none" color="#000" fill="#ff8080" stroke="#ff8080" stroke-width=".176" stroke-linecap="round" stroke-linejoin="round" overflow="visible" transform="matrix(.97823 -.03444 .0337 .99937 -6.793 1.054)"/><path d="M16.128 66.505c-.657-.471-.987-.843-1.268-1.426-.135-.28-.472-.648-.8-.873-.502-.343-.573-.449-.608-.91-.089-1.188 1.342-2.531 3.176-2.983.854-.21.963-.078.963 1.165 0 1.309-.215 1.736-1.135 2.263-1.136.65-1.148.667-.413.6.898-.082 1.044.077 1.042 1.139-.002.967-.095 1.379-.31 1.379-.085 0-.377-.16-.647-.354z" style="marker:none" color="#000" fill="#ff8080" stroke="#ff8080" stroke-width=".125" stroke-linecap="round" stroke-linejoin="round" overflow="visible" transform="matrix(.97823 -.03444 .0337 .99937 -6.793 1.054)"/><path d="M51.297 166.935c-.426-.292-.46-1.37-.106-3.306.373-2.041.691-2.348 3.32-3.206 2.198-.718 3.445-1.342 4.795-2.402 2.12-1.664 2.663-2.595 3.314-5.682 1.49-7.073 5.535-33.827 7.294-48.243l.414-3.401-.372-.415c-.643-.716-3.346-2.675-5.444-3.946-2.65-1.605-4.14-2.69-4.432-3.227-.46-.845.122-4.285.875-5.172.258-.304.515-.16 6.131 3.426a919.26 919.26 0 0 0 5.298 3.367c.844.524 1.056.758 1.249 1.38.354 1.142.295 8.25-.098 11.825-1.263 11.499-2.087 17.619-3.77 27.994-1.75 10.798-3.956 23.338-4.363 24.818-.256.927-.869 1.627-2.201 2.512-3.247 2.156-10.744 4.472-11.904 3.678zM19.458 218.607c-4.38-.45-7.048-1.008-10.566-2.213-4.556-1.561-6.905-2.799-7.453-3.926-.4-.825-.66-2.87-.514-4.046l.117-.936.824.093c.453.051 1.907.255 3.23.454 5.482.823 8.42.976 18.465.964 11.285-.014 17.675-.332 24.733-1.231 1.18-.15 1.298.132.866 2.067-.59 2.64-1.617 4.185-3.678 5.532-2.193 1.435-5.652 2.436-10.614 3.074-3.048.392-12.251.492-15.41.168z" style="marker:none" color="#000" fill="#ff8080" stroke="#ff8080" stroke-width=".176" stroke-linecap="round" stroke-linejoin="round" overflow="visible" transform="matrix(.97823 -.03444 .0337 .99937 -6.793 1.054)"/><path d="M26.906 170.358c-9.917-2.104-20.52-5.75-20.496-7.047.006-.343.474-7.061 1.04-14.93 1.328-18.453 1.838-50.822 1-63.32-.334-4.977-.514-9.14-.4-9.251.114-.112 1.89.552 3.945 1.476 13.653 6.133 35.324 8.719 46.12 5.504 1.387-.413 2.67-.754 2.851-.757.181-.002-.001 1.05-.406 2.338-4.608 14.691-8.652 45.171-10.567 79.648-.281 5.06-.504 6.33-1.159 6.612-.445.192-4.557.422-9.135.512-6.785.133-9.152-.012-12.793-.785zm17.589-23.007c1.332-15.588 3.815-34.866 5.826-45.236.266-1.368.385-2.582.265-2.7-.578-.564-1.876 3.286-2.81 8.334-3.321 17.967-6.172 50.527-4.259 48.656.122-.12.562-4.194.978-9.054zm-3.567-2.547c.185-1.56.467-3.89.627-5.18.442-3.545-.646-2.893-1.3.78-.67 3.763-.723 7.237-.11 7.237.246 0 .598-1.276.783-2.837z" style="marker:none" color="#000" fill="#fca" stroke="#fca" stroke-width=".499" stroke-linecap="round" stroke-linejoin="round" overflow="visible" transform="matrix(.97823 -.03444 .0337 .99937 -6.793 1.054)"/><path d="M32.097 206.432c-.013-.385.354-2.567.815-4.849.928-4.585 1.954-15.587 1.822-19.525l-.086-2.527 1.84-.37c1.013-.204 2.817-.408 4.009-.453l2.167-.081-.002 7.774c-.002 4.276-.294 10.617-.65 14.09l-.649 6.317-4.621.163c-3.665.129-4.627.017-4.645-.538zM8.007 206.53c-.03-.894.407-4.09.972-7.102 1.038-5.54 1.835-11.628 2.378-18.176.281-3.389.342-3.59 1.1-3.616 1.427-.05 6.2.799 6.711 1.193 1.286.993.23 14.222-2.012 25.215l-.779 3.82-4.157.146-4.158.146-.055-1.626z" style="marker:none" color="#000" fill="#fca" overflow="visible"/><path d="M40.01 72.633c-.214-.338-.255-1.66-.091-2.936.163-1.276.754-9.868 1.312-19.094.558-9.225 1.239-18.96 1.512-21.635.757-7.398.67-9.673-.385-9.976-2.145-.618-6.48-3.008-9.467-5.22-3.687-2.728-5.795-5.436-5.795-7.443 0-1.69 1.983-4.798 3.066-4.806 2.02-.015 12.846 9.013 15.118 12.607 1.086 1.718 1.088 1.76.298 8.247-.437 3.586-1.034 9.739-1.328 13.673-.935 12.528-3.078 34.736-3.471 35.989-.263.834-.501 1.018-.77.594z" style="marker:none" color="#000" fill="#b3b3b3" stroke="#b3b3b3" stroke-width=".708" stroke-linecap="round" stroke-linejoin="round" overflow="visible" transform="matrix(.97823 -.03444 .0337 .99937 -6.793 1.054)"/><path d="M19.532 67.979c-.401-.251-.825-.604-.942-.784-.355-.547-.253-2.834.53-11.883.413-4.769 1.096-13.666 1.518-19.77.422-6.106.889-11.463 1.037-11.907.476-1.427 1.31-1.664 5.777-1.637 5.646.033 9.781.973 9.666 2.197-.186 1.962-.4 2.809-.741 2.937-.212.08-2.392.315-4.845.524-5.922.505-7.08.844-7.62 2.231-.388.999-2.237 23.486-2.923 35.562-.111 1.95-.27 3.016-.45 3.004-.152-.01-.606-.223-1.007-.474z" style="marker:none" color="#000" fill="#ccc" stroke="#ccc" stroke-width=".249" stroke-linecap="round" stroke-linejoin="round" overflow="visible" transform="matrix(.97823 -.03444 .0337 .99937 -6.793 1.054)"/><path d="M24.692 69.226c-.286-.28-.519-.592-.518-.693.001-.102.112-1.129.245-2.282.134-1.153.535-6.98.893-12.947.675-11.276.994-15.278 1.275-15.993.141-.36.406-.4 1.84-.272 3.137.28 6.235.83 8.433 1.496l2.196.665v4.288l-3.973.132c-4.202.14-5.157.338-5.611 1.167-.595 1.086-1.571 8.013-2.526 17.909-.289 2.996-.613 5.771-.722 6.166-.243.89-.847 1.034-1.532.364z" style="marker:none" color="#000" fill="gray" stroke="gray" stroke-width=".249" stroke-linecap="round" stroke-linejoin="round" overflow="visible" transform="matrix(.97823 -.03444 .0337 .99937 -6.793 1.054)"/><path d="M45.21 73.543l-2.586-.098v-2.798c0-3.463.09-3.585 2.312-3.136 1.805.364 6.536 1.921 8.661 2.85 2.393 1.046 5.172 2.463 5.172 2.637 0 .088-.312.227-.694.31-.927.199-9.623.358-12.866.235zM34.11 71.867c-1.56-.317-3.63-.812-4.6-1.1-2.078-.617-2.179-.808-1.918-3.625.208-2.243.317-2.541 1.026-2.805.76-.282 10.482.834 10.468 1.202-.055 1.478-.521 6.214-.642 6.522-.212.54-.86.511-4.333-.194z" style="marker:none" color="#000" fill="#fca" stroke="#fca" stroke-width=".249" stroke-linecap="round" stroke-linejoin="round" overflow="visible" transform="matrix(.97823 -.03444 .0337 .99937 -6.793 1.054)"/></svg>