<svg xmlns="http://www.w3.org/2000/svg" width="75" height="100"><path d="M32.606 99.908a20.823 20.823 0 0 0 2.048-.346 87.66 87.66 0 0 1 2.29-.476c1.651-.316 4.39-1.3 6.963-2.505 1.283-.6 1.625-.809 2.694-1.646.254-.198.922-.555 1.485-.793.563-.237 1.369-.663 1.791-.945.682-.455.956-.56 2.433-.94 2.3-.59 4.398-1.392 7.936-3.03 1.856-.86 2.416-1.216 4.156-2.637 1.39-1.136 2.567-2.309 5.237-5.215 2.57-2.798 2.743-3.059 3.23-4.873.146-.549.51-1.636.81-2.416 1.51-3.938 1.718-8.452.66-14.334-.113-.636-.37-1.955-.571-2.932l-.365-1.776.212-1.112c.696-3.66.949-12.352.478-16.444-.435-3.783-1.357-7.533-2.12-8.625-.187-.266-.946-.974-1.686-1.572-1.43-1.157-1.732-1.485-2.341-2.552a8.037 8.037 0 0 0-.747-1.083c-.487-.553-2.221-1.884-3.085-2.367-.572-.32-.768-.503-1.093-1.022-.7-1.115-1.992-2.681-2.784-3.374-.889-.778-2.705-1.75-4.186-2.24-2.184-.723-4.59-1.01-7.673-.916-1.94.06-2.172.048-2.23-.104-.034-.094-.013-2.539.05-5.433.061-2.895.082-5.506.047-5.804-.085-.705-.528-1.414-1.097-1.756-.886-.533-1.624-.638-4.485-.64-2.378-.002-2.757.024-4.249.284-.9.158-1.89.3-2.198.315l-.56.028-.373 1.522c-.684 2.79-1.926 6.617-2.149 6.617-.045 0-.441-.412-.882-.915-1.505-1.721-2.336-2.58-2.775-2.87-.428-.283-.45-.287-.972-.144-.305.083-1.038.146-1.711.147-2.106.003-4.166.445-7.112 1.525-.847.31-1.933.684-2.415.83-1.534.465-2.635 1.4-3.848 3.264-1.607 2.47-2.723 5.119-4.778 11.342a160.61 160.61 0 0 1-1.66 4.779c-1.238 3.301-2.177 6.431-2.854 9.513-.307 1.396-.512 3.012-1.247 9.81L0 54.186.064 56.6C.256 63.918 1.17 70.94 2.475 75.14c.988 3.177 1.24 4.616 1.205 6.876-.015.955.03 1.338.253 2.206.15.577.322 1.38.385 1.783.148.96.359 1.422 1.054 2.314.879 1.127 2.45 2.371 4.013 3.176.338.174 1.306.564 2.15.866 2.265.81 2.864 1.12 3.74 1.936 2.257 2.096 5.185 3.776 8.853 5.078 1.32.468 1.346.473 3.174.554 2.307.102 4.139.096 5.304-.02zm-3.666-.827c-1.403-.246-3.027-.78-4.249-1.398-1.115-.564-1.256-.814-1.313-2.34-.043-1.154.243-2.924.767-4.751 1.144-3.984 1.908-7.297 2.33-10.104.205-1.36.482-2.966.616-3.57.407-1.835.509-1.962 1.057-1.322.618.723 2.387 3.477 3.617 5.632.214.375.603.94.864 1.253.423.507.47.613.418.945-.054.352-.114 2.885-.205 8.583l-.039 2.431.321-.11c.443-.153.538-.244 1.019-.969.738-1.114 1.786-3.64 2.794-6.734.529-1.624.962-3.016.962-3.092 0-.077.099-.521.22-.987l.219-.848 1.198-1.26c1.576-1.659 2.172-2.38 4.297-5.198 2.89-3.833 4.669-6.12 5.051-6.496.415-.406.381-.45.646.837.213 1.037.313 8.952.143 11.33-.23 3.204-.707 6.174-1.536 9.556-.55 2.245-.756 2.776-1.315 3.388-.596.654-1.577 1.415-2.166 1.681-.254.114-1.05.486-1.772.827-2.525 1.192-6.106 2.27-9.183 2.765-1.346.217-3.362.196-4.76-.05zm-8.355-2.006c-1.86-.972-4.13-2.564-5.196-3.642-1.394-1.411-2.052-2.53-2.462-4.193-.31-1.256-.341-1.943-.168-3.654.087-.867.227-2.332.31-3.256.083-.924.197-2.01.254-2.415a76.28 76.28 0 0 0 .266-2.52c.09-.982.319-3.038.51-4.569l.763-6.143c.589-4.735 1.899-12.492 2.563-15.182.703-2.844 2.766-7.622 4.84-11.21 2.34-4.047 5.787-7.26 10.433-9.726 2.067-1.097 3.945-1.96 7.448-3.42a213.209 213.209 0 0 0 4.97-2.154c5.673-2.574 8.71-3.7 11.764-4.364 1.804-.393 2.106-.383 3.491.109 2.044.725 4.011 1.777 5.247 2.804.445.37 1.112 1.264 1.016 1.363-.029.03-.644-.053-1.366-.183-1.287-.233-1.37-.235-4.129-.109-2.277.105-3.148.19-4.556.446-11.596 2.108-19.006 5.744-25.596 12.557-1.632 1.686-1.968 2.17-3.21 4.617a196.947 196.947 0 0 1-1.648 3.179c-1.147 2.138-1.806 3.85-2.345 6.098-.717 2.987-.834 4.795-.873 13.442-.026 5.738-.061 7.19-.196 8.139-.09.635-.646 3.801-1.234 7.036-.588 3.235-1.129 6.33-1.202 6.879-.168 1.252-.172 4.761-.007 5.67.317 1.748.579 2.597 1.16 3.762.329.659.598 1.217.598 1.239 0 .12-.337-.02-1.445-.6zm1.547-.566c-.417-.75-.975-2.532-1.181-3.782-.21-1.265-.234-3.663-.056-5.46.172-1.731.523-3.78 1.233-7.19 1-4.81 1.174-6.085 1.39-10.244.037-.693.082-4.034.102-7.423.033-5.718.052-6.253.252-7.404.846-4.847 2.533-9.548 4.716-13.142 1.956-3.219 4.191-5.624 6.979-7.508 1.319-.892 4.959-2.957 6.721-3.814 4.643-2.256 9.512-3.905 13.425-4.546 2.231-.366 3.772-.46 6.297-.385 3.309.097 3.594.161 5.848 1.312 1.657.846 1.944 1.033 2.682 1.744 1.175 1.135 1.394 1.583 2.017 4.143.838 3.442 1.196 6.68 1.202 10.874.004 2.767-.11 4.928-.382 7.226-.074.624-.162 1.164-.197 1.199-.23.237-.384-.757-.265-1.721a8.687 8.687 0 0 0 0-1.873c-.055-.578-.171-2.232-.258-3.676-.48-8.023-1.01-10.87-2.642-14.184-.757-1.538-1.357-1.97-3.558-2.564-1.774-.478-2.992-.568-5.772-.425-2.975.153-4.471.372-8.248 1.207-1.661.367-3.32.7-3.686.74a5.85 5.85 0 0 0-1.28.318c-.338.135-1.254.488-2.035.785a38.703 38.703 0 0 0-8.244 4.303c-1.842 1.256-2.35 1.666-3.632 2.937-3.54 3.507-5.943 7.832-7.329 13.184-.57 2.203-.727 3.386-.826 6.249-.186 5.328-.513 9.075-1.276 14.597a272.663 272.663 0 0 0-.516 3.933 55.706 55.706 0 0 1-.454 2.94c-.161.87-.322 1.912-.357 2.316a80.176 80.176 0 0 1-.312 2.573c-.724 5.372-1.043 8.868-.928 10.173.083.945.468 2.191.861 2.79.444.676.48.76.235.539-.124-.112-.36-.445-.526-.741zm.144-1.97c-.1-.317-.054-3.306.065-4.227.053-.405.144-1.208.203-1.786.176-1.715.378-2.745.98-4.995.735-2.75 1.311-4.384 2.253-6.39.734-1.563.994-1.935.764-1.095-.06.222-.18.994-.266 1.716a55.986 55.986 0 0 1-.4 2.678c-.135.75-.277 1.649-.315 1.995-.038.347-.201 1.174-.362 1.838-.16.664-.363 1.527-.45 1.917a20.99 20.99 0 0 1-.502 1.733c-.19.563-.377 1.212-.417 1.444-.04.23-.275 1.13-.523 1.999-.423 1.484-.561 2.07-.711 3.015-.07.443-.208.511-.32.158zm25.86-1.478c0-.02.112-.416.248-.882s.3-1.219.366-1.672a21.05 21.05 0 0 1 .325-1.666c.23-.94.887-4.223 1.259-6.3.134-.752.338-1.838.453-2.416.322-1.617.497-2.94.781-5.895.482-5.014.782-6.97 1.069-6.97.11 0 .198.617.318 2.233.075 1.013.06 2.298-.059 5-.095 2.181-.132 4.246-.092 5.16.115 2.578-.31 6.611-.895 8.49-.817 2.63-2.453 4.95-3.49 4.951-.155 0-.282-.015-.282-.033zm-14.675-1.926c-.148-3.163-.04-6.288.293-8.421.42-2.698.587-3.562.794-4.094l.228-.587 1.122-.234c.617-.13 1.42-.268 1.782-.307l.66-.073-.066 1.052c-.156 2.437-.624 4.466-1.775 7.693-.877 2.457-2.669 6.406-2.907 6.406-.035 0-.094-.646-.131-1.435zm-21.567.645c-1.688-.514-3.468-1.375-4.311-2.087-1.531-1.293-2.448-3.13-2.965-5.945-.316-1.723-.393-6.082-.159-9.058.092-1.17.212-2.717.267-3.439.147-1.955.786-6.82 1.069-8.139.136-.635.415-2.218.62-3.518.888-5.643 2.763-13.637 4.396-18.746.93-2.91 2.992-6.649 5.183-9.399 2.31-2.9 5.298-5.511 8.281-7.237.419-.242 1.07-.67 1.446-.951 2.33-1.739 6.984-4.099 8.081-4.099.336 0 .6-.105 1.165-.467 1.175-.751 2.34-1.261 4.784-2.095 2.413-.823 5.66-1.627 7.516-1.86 1.34-.17 4.49-.17 5.528-.002.45.073 1.35.252 1.997.398 1.986.448 4.444 1.799 5.477 3.01.458.537 1.032 1.516.942 1.608-.028.029-.439-.112-.913-.314-1.386-.588-1.332-.59-3.66.134-5.825 1.81-11.72 4.264-21.48 8.94-4.483 2.147-5.312 2.612-7.081 3.97-4.081 3.13-7.468 8.233-10.125 15.257-1.278 3.38-1.39 3.792-1.8 6.655-.14.982-.602 4.006-1.024 6.721-1.328 8.53-1.79 11.804-2.157 15.28-.089.838-.228 2.02-.31 2.626-.393 2.91-.614 5.49-.61 7.14.003 1.96.145 2.86.722 4.569.195.578.382 1.135.416 1.24.071.215.021.208-1.295-.192zm39.314-.21c0-.031.164-.39.365-.798.475-.968 1.016-2.648 1.213-3.768.41-2.322.483-3.796.576-11.596.053-4.476.131-7.698.187-7.755.225-.23 2.498.703 4.263 1.75 1.111.66 2.938 1.944 3.635 2.555.24.21.568.57.73.799.262.372.293.5.291 1.214-.002 1.08-.124 2.208-.577 5.34-.24 1.668-.347 2.688-.286 2.75.054.053.22.128.37.166.468.118.942-.696 2.267-3.887 1.206-2.908 1.97-5.177 2.345-6.958.165-.787.307-1.161.645-1.7 2.36-3.755 4.123-8.105 5.094-12.558.126-.58.273-1.067.328-1.084.165-.053.442.962.873 3.196.47 2.437.671 4.068.772 6.239.174 3.755-.639 8.689-1.842 11.184-.758 1.571-1.613 2.613-4.86 5.919-3.746 3.813-4.828 4.69-7.458 6.04-2.06 1.058-3.994 1.766-6.934 2.538-1.768.464-1.997.511-1.997.413zM32.805 81.305a4.64 4.64 0 0 1-.475-.708c-.29-.529-1.216-1.918-3.17-4.757-1.805-2.623-2.216-3.358-2.215-3.958 0-.582.397-1.496.751-1.734.38-.255 3.591-1.267 4.802-1.513a103.87 103.87 0 0 1 2.592-.477c1.81-.308 3.199-.666 5.727-1.477 3.405-1.092 6.923-2.072 7.863-2.192.485-.062.494-.058.64.3.319.783.089 1.89-.598 2.879-1.077 1.55-5.97 8.15-6.739 9.089-1.187 1.45-3.126 3.489-3.224 3.39-.045-.045-.02-.541.056-1.103.248-1.84.248-1.845.012-2.064-.296-.275-1.165-.335-1.86-.13-.304.09-.944.233-1.423.318-1.005.18-1.424.325-1.475.513-.02.073-.21.971-.422 1.997-.235 1.136-.433 1.864-.506 1.864-.067 0-.218-.107-.336-.237zm29.811-2.392c.374-1.888.488-3.554.505-7.383.019-4.064-.093-3.63 1.076-4.184.779-.37 1.518-.483 1.788-.274.153.118.199.344.245 1.205.051.956.031 1.137-.206 1.833a7.464 7.464 0 0 0-.32 1.56c-.098 1.4-.507 2.66-1.822 5.614-.555 1.248-1.415 2.924-1.47 2.868-.019-.02.073-.577.204-1.24zm-38.656-.716c.112-.673.233-1.53.27-1.906.036-.376.182-1.39.323-2.253.142-.863.297-1.879.346-2.257.048-.379.177-1.02.286-1.424.108-.404.25-1.373.313-2.153.064-.78.159-1.866.211-2.415.053-.549.145-2.32.206-3.938.18-4.826.29-6.11.73-8.612.223-1.27.5-2.664.615-3.098.256-.963 1.196-3.488 1.779-4.774 2.397-5.291 7.465-9.906 14.191-12.925 1.142-.512 4.234-1.624 4.517-1.624.197 0 .598.835.903 1.882.234.804 1.094 5.466 1.48 8.017.608 4.03.974 8.477.776 9.451-.067.332-.139.604-.16.604-.098 0-7.775 2.533-7.822 2.581-.096.099.409.958.98 1.669.71.882 1.784 1.75 3.638 2.936 1.782 1.141 2.745 1.86 3.376 2.519.56.584.645.569 1.286-.225.639-.79 1.081-1.562 2.48-4.326.72-1.42 1.777-3.385 2.35-4.367.8-1.373 1.034-1.858 1.012-2.1-.029-.308-.043-.316-.644-.343-.503-.023-.826.05-1.791.403-1.911.7-2.58.91-3.14.987-.456.063-.544.045-.632-.123-.056-.108-.223-1.47-.371-3.028-.605-6.36-1.276-10.725-2.363-15.366-.194-.829-.328-1.549-.297-1.6.086-.144 1.322-.492 2.4-.676a23.18 23.18 0 0 0 1.553-.319c.318-.084 1.01-.179 1.535-.21a51.06 51.06 0 0 0 2.543-.26c2.657-.335 4.16-.445 6.194-.453 2.223-.01 3.034.148 4.436.858.806.408 1.926 1.381 2.399 2.084.479.713 1.045 3.31 1.72 7.892.263 1.785.609 6.787.608 8.802 0 1.522-.112 2.815-.255 2.961-.03.032-.134-.057-.229-.198-.33-.49-.73-.834-.967-.83-.145.002-.496.248-.903.634-1.939 1.835-3.47 2.959-9.419 6.911-1.076.715-2.583 1.789-3.347 2.385-.864.674-1.855 1.331-2.62 1.738-1.406.748-2.31 1.524-2.58 2.215-.133.342-.179.858-.202 2.283-.022 1.333-.117 2.492-.346 4.204-.174 1.3-.365 2.859-.424 3.465-.182 1.858-.328 2.987-.407 3.134-.102.192-.209-1.852-.21-4.026 0-.982-.056-2.329-.124-2.993-.153-1.489-.153-2.926-.001-3.631.09-.418.083-.736-.033-1.47-.082-.516-.149-1.112-.149-1.325 0-.214-.047-.418-.105-.454-.057-.036-.414.077-.793.253-.38.175-1.496.554-2.48.842-.986.288-3.018.9-4.517 1.361-1.498.46-3.41 1.008-4.248 1.215l-3.215.798c-.929.23-2.45.533-3.378.672-2.361.355-3.214.648-3.97 1.367-.345.327-.718.813-.887 1.155-.272.552-.285.638-.204 1.295.049.388.086 1.06.084 1.492-.006 1.258-.206 1.823-2.148 6.039l-.29.63-.036-.405c-.02-.222.055-.955.167-1.627zM3.498 73.274c-.29-.966-.466-2.11-.711-4.648-.423-4.37-.539-7.053-.487-11.29.06-4.886.352-8.625.992-12.707.11-.693.228-1.52.265-1.838.247-2.115 1.71-7.962 2.709-10.816.272-.78.999-2.907 1.614-4.726 1.881-5.566 2.775-7.802 4.36-10.904.834-1.634 1.327-2.467 1.73-2.928l.203-.231.422.218c1.205.625 3.257 2.216 3.53 2.738.177.34-.06 1.03-.748 2.18-.908 1.517-1.438 2.588-2.518 5.093-3.625 8.408-5.528 15.242-6.346 22.797-.224 2.066-.367 2.856-1.215 6.713-.918 4.182-2.163 10.672-2.374 12.38-.114.922-.272 1.993-.352 2.38a14.32 14.32 0 0 0-.202 1.426c-.14 1.73-.517 4.87-.584 4.87-.041 0-.17-.318-.288-.707zm-.723.485c-.145-.278-.718-2.88-1.004-4.556C1.142 65.516.63 58.997.63 54.653c0-2.059 1.15-12.667 1.69-15.59.842-4.561 1.707-7.712 2.94-10.712.285-.693 1.129-3.15 1.875-5.46C9 17.114 9.823 15.042 11.22 12.607c.621-1.083 1.896-2.87 2.39-3.349.594-.578 6.518-2.55 8.88-2.957 1.258-.216 3.879-.367 4.532-.262.643.105.794.206 1.495 1.005 2.089 2.38 3.756 5.776 4.728 9.635l.288 1.14-.249.197c-.137.109-1.47.837-2.962 1.617-1.492.781-3.266 1.726-3.941 2.1-.676.374-1.344.682-1.485.683-.347.003-1.79-1.53-4.085-4.34-2.85-3.492-4.175-4.829-5.966-6.021-.51-.34-.785-.455-1.085-.455h-.4l-.274.852c-.15.47-.683 1.734-1.183 2.81-1.404 3.023-2.483 5.696-4.667 11.566-2.77 7.444-4.371 14.183-5.228 22-.413 3.767-.548 6.12-.553 9.662-.007 4.9.397 8.982 1.503 15.202.062.344-.022.374-.183.066zm59.375-2.357c-.17-.09-.709-.471-1.197-.847-.647-.496-1.7-1.092-3.877-2.192-1.643-.831-3.296-1.71-3.672-1.954-.79-.512-.967-.83-.967-1.727 0-.577.013-.603.55-1.133.303-.298.913-.752 1.357-1.008.443-.257 1.336-.852 1.983-1.323 1.569-1.14 2.896-2.043 5.478-3.726 4.265-2.779 6.538-4.374 8.106-5.685.403-.338.78-.614.836-.614.145 0 .898 1.184 1.046 1.647.18.558.062 3.066-.21 4.488-.376 1.96-1.254 4.736-2.153 6.804-.609 1.4-1.673 3.334-2.115 3.845-.405.468-.442.43-.755-.768-.12-.463-.291-.924-.379-1.025-.285-.33-.694-.21-2.291.674l-1.552.859.063 1.53c.034.842.093 1.709.13 1.925.077.444.052.46-.38.23zM50.525 59.21c-.384-.269-1.367-.95-2.183-1.513-1.527-1.053-3.052-2.306-3.929-3.23l-.498-.525.396-.267c.426-.288 1.924-.725 6.693-1.955a226.53 226.53 0 0 0 4.386-1.173c.808-.232 1.494-.394 1.526-.361.078.079-1.112 2.516-2.029 4.155-1.332 2.382-3.288 5.357-3.522 5.357-.078 0-.455-.22-.84-.488zM11.232 36.237c.155-.724.52-2.038.813-2.92.568-1.72 2.597-7.166 3.374-9.057.976-2.375 2.784-5.685 3.46-6.333l.248-.237.658.712c2.295 2.487 3.968 4.722 3.712 4.96-.047.043-.58.415-1.182.827-2.159 1.473-3.681 2.886-6.072 5.634-1.61 1.852-3.095 3.979-4.14 5.932-.85 1.59-1.042 1.912-1.102 1.85-.028-.029.076-.644.231-1.368zM34.08 16.721c-.09-.246-.35-1.132-.58-1.97a19.601 19.601 0 0 0-.998-2.773c-.51-1.102-.579-1.327-.576-1.89.002-.352.107-1.014.234-1.472.231-.83 1.389-3.807 1.553-3.991.194-.217.403.77.67 3.155.228 2.044.281 2.985.286 5.081.005 2.449-.146 4.306-.351 4.306-.042 0-.15-.2-.238-.446zm1.273-4.201c-.005-3.522-.04-4.73-.157-5.382l-.311-1.733c-.223-1.235-.485-3.455-.42-3.562.079-.131 1.933-.71 2.92-.91.902-.184 1.218-.18 4.661.052 1.687.114 2.404.34 3.042.964l.42.41-.08 5.172c-.044 2.845-.109 5.455-.144 5.8l-.064.626-.921.35c-1.455.554-8.383 2.722-8.77 2.745-.156.009-.17-.37-.176-4.532z" fill="#464646"/><path style="marker:none" d="M34.136 91.654c.835-1.626 2.015-4.462 2.731-6.567.709-2.08 1.234-4.493 1.353-6.214.032-.452.08-.962.106-1.133l.049-.31-.578.06a26.38 26.38 0 0 0-1.808.311l-1.231.25-.212.618c-.218.641-.743 3.568-.953 5.322-.155 1.29-.17 8.14-.02 8.394.087.148.162.05.563-.73zM63.283 78.492c1.596-3.291 2.153-4.861 2.443-6.884a14.69 14.69 0 0 1 .323-1.599c.188-.65.23-1.436.125-2.314-.08-.67-.283-.803-.997-.655-.756.157-1.643.581-1.838.879-.151.231-.172.588-.225 3.96-.06 3.8-.125 4.768-.453 6.788-.105.64-.175 1.209-.156 1.264.018.055.368-.593.778-1.439z" color="#000" fill="#c8b7b7" stroke="#000" stroke-width=".091" stroke-linecap="round" stroke-linejoin="round" overflow="visible"/><path style="marker:none" d="M51.895 59.042c1.6-2.102 5.085-8.386 4.806-8.666-.14-.14-10.19 2.487-11.751 3.07-.54.203-.982.435-.982.516 0 .408 6.798 5.674 7.325 5.674.082 0 .353-.267.602-.594zM32.985 99.272c3.005-.438 6.638-1.484 9.59-2.76 2.85-1.232 4.143-2.16 4.74-3.402.72-1.5 1.79-6.404 2.218-10.175.4-3.518.183-13.953-.3-14.425-.146-.141-.647.47-4.416 5.378-1.775 2.312-3.981 5.03-4.903 6.04-1.17 1.284-1.714 2.028-1.803 2.468-.445 2.183-2.842 8.931-3.68 10.362-.544.928-1.075 1.509-1.38 1.509-.156 0-.175-1.435-.077-5.561l.133-5.562-1.066-1.66c-2.638-4.108-4.007-6.118-4.207-6.18-.386-.12-.57.549-1.423 5.161-.461 2.499-1.157 5.742-1.545 7.208-1.3 4.909-1.521 6.084-1.448 7.698.063 1.387.105 1.522.593 1.911.607.485 2.459 1.23 4.04 1.627 1.152.29 4.002.5 4.934.363z" color="#000" fill="#de8787" stroke="#000" stroke-width=".183" stroke-linecap="round" stroke-linejoin="round" overflow="visible"/><path style="marker:none" d="M33.43 80.799c.106-.383.286-1.19.4-1.793.114-.603.304-1.2.42-1.327.118-.127.995-.398 1.95-.604 1.343-.29 1.851-.33 2.247-.18l.51.195-.115 1.597-.115 1.598 1.547-1.619c1.48-1.549 8.239-10.462 8.825-11.638.415-.831.502-1.85.192-2.263-.245-.328-.337-.335-1.43-.111-.643.132-3.211.847-5.708 1.589-2.497.742-5.782 1.597-7.3 1.898-3.86.767-6.642 1.586-7.307 2.152-.177.15-.415.585-.529.965-.185.62-.155.794.282 1.661.664 1.315 5.449 8.438 5.72 8.515.12.034.304-.25.41-.635zM53.682 91.064c5.043-1.405 8.065-2.965 11.173-5.769 2.052-1.85 5.34-5.305 6.511-6.838 1.407-1.842 2.252-4.458 2.775-8.59.425-3.36.073-8.027-.931-12.33-.358-1.536-.575-1.72-.84-.715-1.402 5.324-2.415 7.93-4.633 11.92-.611 1.1-1.122 2.31-1.313 3.108-.722 3.022-3.604 10.06-4.215 10.296-.595.228-.616-.247-.163-3.679.251-1.895.456-3.901.456-4.457 0-.969-.037-1.047-.871-1.846-.48-.46-1.488-1.257-2.24-1.774-2.088-1.434-5.486-3.043-5.789-2.741-.056.056-.173 3.457-.26 7.557-.221 10.38-.408 12.064-1.692 15.209-.264.645-.48 1.2-.48 1.233 0 .105.227.052 2.512-.584z" color="#000" fill="#de8787" stroke="#000" stroke-width=".183" stroke-linecap="round" stroke-linejoin="round" overflow="visible"/><path style="marker:none" d="M62.476 69.684l-.062-1.965 1.46-.797c1.952-1.065 2.173-1.051 2.566.158.17.528.376 1.03.455 1.117.37.405 2.35-3.237 3.445-6.34.86-2.436 1.284-4.281 1.458-6.346.196-2.312.065-2.997-.777-4.07-.243-.31-.424-.21-2.805 1.554-1.399 1.037-5.274 3.722-8.61 5.967-3.337 2.245-6.312 4.288-6.612 4.54-.454.382-.544.593-.544 1.272 0 .605.108.922.418 1.232.23.23 1.812 1.145 3.518 2.034 1.705.889 3.676 1.999 4.38 2.466.704.468 1.39.916 1.526.996.202.12.236-.208.184-1.818zM49.115 92.806c.652-.397 1.67-1.873 2.344-3.397 1.1-2.487 1.354-5.073 1.406-14.277.03-5.505-.015-7.586-.17-7.741-.295-.298-.504.858-1.074 5.949-.259 2.312-.631 5.162-.827 6.333-.42 2.508-2.473 12.723-2.648 13.181-.164.427.222.408.97-.048zM22.464 94.815c.017-.05.385-1.448.818-3.107.433-1.658 1.089-4.14 1.458-5.513.581-2.163 2.014-10.363 1.842-10.543-.247-.26-2.144 4.504-2.983 7.493-.982 3.496-1.649 8.963-1.324 10.848.087.502.172.872.19.822z" color="#000" fill="#de8787" stroke="#000" stroke-width=".183" stroke-linecap="round" stroke-linejoin="round" overflow="visible"/><path style="marker:none" d="M3.89 73.48c.062-.247.242-1.635.4-3.085.389-3.544 1.49-9.919 2.815-16.282.6-2.882 1.263-6.542 1.474-8.133.523-3.958.99-6.426 1.826-9.656 1.39-5.368 3.69-11.447 6.254-16.53.884-1.753 1.608-3.289 1.608-3.412 0-.321-1.798-1.878-3.026-2.622l-1.043-.63-.437.54c-.997 1.23-3.43 6.455-4.762 10.225-4.838 13.698-6.12 19.523-6.626 30.111-.328 6.86.39 18.11 1.254 19.655.117.208.175.168.263-.181zM34.635 15.635c.177-1.89-.025-6.84-.368-9.011a56.364 56.364 0 0 1-.278-1.874c-.01-.422-.378-.012-.738.823-1.385 3.213-1.558 4.597-.797 6.402.263.626.74 1.995 1.061 3.045.32 1.049.674 1.937.784 1.974.128.043.25-.453.336-1.36z" color="#000" fill="#fca" stroke="#000" stroke-width=".183" stroke-linecap="round" stroke-linejoin="round" overflow="visible"/><path style="marker:none" d="M2.936 73.564c.003-.251-.118-1.156-.268-2.01C1.19 63.166 1.156 54.86 2.56 45.235c1.26-8.64 3.937-17.335 8.845-28.72.851-1.975 1.648-3.894 1.77-4.265.2-.604.273-.662.706-.559 1.347.323 2.988 1.859 7.095 6.64 1.753 2.04 3.378 3.797 3.612 3.903.357.163.672.07 1.955-.576 2.312-1.163 6.903-3.662 6.99-3.804.169-.274-1.335-4.659-2.215-6.46-1.108-2.27-2.902-4.766-3.734-5.196-.497-.257-.905-.287-2.513-.183-2.377.154-4.464.61-7.643 1.673-3.849 1.285-3.9 1.323-5.844 4.309-1.281 1.967-2.337 4.488-4.333 10.337l-2.733 8.005c-1.847 5.406-2.9 11.52-3.776 21.933-.285 3.38-.03 8.941.665 14.53.451 3.634 1.51 8.319 1.529 6.762zM37.85 16.433c2.608-.779 6.963-2.227 7.255-2.413.157-.1.255-1.761.347-5.898l.13-5.759-.584-.491c-.889-.748-1.835-.925-5.045-.942-2.613-.015-3.066.03-4.253.419l-1.328.435.11.936c.061.514.243 1.716.403 2.671.191 1.132.329 3.45.396 6.657.063 3.04.172 4.937.285 4.966.1.026 1.129-.236 2.285-.581z" color="#000" fill="#ffe680" stroke="#000" stroke-width=".183" stroke-linecap="round" stroke-linejoin="round" overflow="visible"/><path style="marker:none" d="M13.285 92.077c-.001-.054-.234-.835-.517-1.736-1.02-3.252-.504-9.72 2.218-27.827 1.553-10.33 1.726-11.183 2.913-14.372 2.593-6.963 6-12.203 10.035-15.435 3.268-2.617 19.16-9.941 27.578-12.71 2.5-.823 3.84-.925 5.142-.391.794.325.516-.518-.521-1.583-2.943-3.024-8.824-4.196-14.83-2.957-3.127.645-7.415 2.057-9.678 3.186-.983.491-2.137.975-2.563 1.077-1.44.342-5.304 2.456-8.865 4.851-7.5 5.043-11.652 10.627-14.129 19C6.354 55.742 3.596 74.815 4.42 82.24c.315 2.832 1.145 5.211 2.308 6.61.786.944 4.271 2.868 5.72 3.156.463.092.84.124.837.07z" color="#000" fill="#ffe680" stroke="#000" stroke-width=".258" stroke-linecap="round" stroke-linejoin="round" overflow="visible"/><path style="marker:none" d="M25.146 77.392c.899-2.165 1.066-2.849 1.066-4.356 0-1.434.117-1.96.592-2.665.797-1.185 1.293-1.384 5.754-2.312 3.748-.779 11.534-2.928 15.297-4.222 1.028-.354 1.922-.557 1.987-.452.065.105.191 3.09.28 6.635.151 5.953.217 6.855.484 6.559.159-.177 1.195-9.89 1.195-11.204 0-.668.121-1.441.27-1.717.147-.276 1.455-1.29 2.907-2.252 5.363-3.556 12.642-8.7 14.032-9.917 1.526-1.336 1.926-1.479 2.433-.868.593.714.778.112.777-2.533-.002-5.166-1.268-14.666-2.193-16.455-.476-.922-2.214-2.306-3.447-2.747-2.4-.857-15.613.191-17.535 1.392-.221.138-.101 1.174.457 3.934.417 2.06 1.046 6.131 1.397 9.045.912 7.55.846 7.238 1.526 7.238.318 0 1.433-.291 2.478-.647 2.325-.79 3.2-.843 2.989-.18-.429 1.35-5.953 11.166-6.285 11.166-.077 0-.617-.385-1.2-.855-.584-.47-2.013-1.52-3.177-2.332-1.915-1.338-4.217-3.557-4.217-4.066 0-.11 1.658-.749 3.683-1.42 2.026-.67 3.83-1.334 4.007-1.474.462-.366.404-2.532-.192-7.171-.975-7.577-2.112-12.665-2.831-12.665-.589 0-3.621 1.166-5.742 2.209-5.664 2.784-10.021 6.743-12.33 11.203-2.36 4.558-3.257 8.471-3.654 15.924-.335 6.287-.501 8.188-.914 10.469a142.078 142.078 0 0 0-.755 4.91 212.366 212.366 0 0 1-.525 3.684c-.242 1.435.348.645 1.386-1.858z" color="#000" fill="#ffe680" stroke="#000" stroke-width=".258" stroke-linecap="round" stroke-linejoin="round" overflow="visible"/><path style="marker:none" d="M22.082 97.733c0-.04-.255-.617-.568-1.284-.968-2.07-1.253-3.534-1.256-6.46-.003-2.427.084-3.099 1.288-9.869l1.291-7.264.162-8.773c.089-4.825.254-9.385.368-10.134.279-1.84.994-4.538 1.567-5.915.605-1.453 3.412-6.86 4.24-8.168 1.12-1.768 5.326-5.645 8.272-7.626 5.157-3.467 11.803-5.885 19.963-7.263 1.542-.26 6.27-.419 7.483-.25 1.956.27 2.033.186.872-.963-1.543-1.527-5.556-3.454-7.194-3.454-.933 0-4.494.976-6.88 1.885-2.993 1.142-15.412 6.552-17.917 7.806-4.861 2.434-8.202 5.245-10.743 9.042-1.855 2.77-4.598 8.76-5.49 11.988-1.344 4.859-3.77 22.253-4.781 34.27-.17 2.023-.158 2.583.08 3.612.566 2.438 1.819 4.14 4.548 6.174 1.729 1.29 4.695 2.961 4.695 2.646z" color="#000" fill="#ffe680" stroke="#000" stroke-width=".183" stroke-linecap="round" stroke-linejoin="round" overflow="visible"/><path style="marker:none" d="M22.347 96.57c-.55-1.26-.824-2.957-.717-4.432.172-2.355 1.15-10.513 1.645-13.708 1.142-7.374 1.731-13.038 2.272-21.84.274-4.467 1.03-7.385 2.932-11.332 3.178-6.591 8.454-11.09 16.998-14.495 1.91-.761 3.061-1.064 7.036-1.85 5.573-1.102 9.553-1.486 11.919-1.149 1.94.276 3.759.866 4.44 1.44 1.216 1.022 2.513 4.494 3.027 8.1.363 2.55.99 10.783.992 13.025.001 1.75.223 2.36.432 1.188.565-3.162.588-10.98.043-14.67-.364-2.468-1.135-5.674-1.59-6.616-.553-1.143-2.064-2.412-4.04-3.393-2.346-1.164-3.153-1.29-7.546-1.172-3.876.104-5.913.426-9.403 1.487-5.507 1.674-12.171 4.94-16.313 7.993-4.66 3.436-8.276 9.756-10.23 17.88l-.55 2.284-.151 8.407c-.084 4.624-.243 9.135-.354 10.025-.11.889-.604 3.726-1.097 6.305-1.21 6.324-1.29 6.934-1.29 9.81 0 1.895.089 2.838.366 3.926.386 1.509 1.003 3.107 1.201 3.107.065 0 .055-.144-.022-.32z" color="#000" fill="#c8b7b7" stroke="#000" stroke-width=".183" stroke-linecap="round" stroke-linejoin="round" overflow="visible"/></svg>