<svg xmlns="http://www.w3.org/2000/svg" width="80" height="140"><path d="M52.192 138.673c-1.296-.834-2.548-2.345-2.97-3.582l-.729-2.139-14.43-2.014c-7.938-1.108-15.698-2.221-17.246-2.474l-2.815-.459.766 1.61c1.09 2.29-.678 4.818-3.368 4.818-2.732 0-6.6-3.346-6.6-5.71 0-.985-.296-1.966-.659-2.181-.362-.215-.659-1.378-.659-2.585s-.413-2.823-.917-3.593c-.505-.769-1.107-2.69-1.339-4.269C.254 109.47-.336 80.532.207 66.107c.896-23.767 1.99-29.213 6.928-34.473 4.173-4.446 7.317-5.528 18.466-6.358 5.096-.38 10.064-.69 11.04-.69h1.776v-7.183c0-4.957-.307-7.886-.989-9.45-1.22-2.796-1.234-3.637-.089-5.138C38.465 1.34 47.112.066 56.409.006c6.005-.039 6.57.067 8.074 1.508 1.882 1.802 2.21 5.666.65 7.642-.718.91-.973 3.11-.989 8.542l-.02 7.317 2.68.847c3.385 1.07 8.188 5.085 9.878 8.259 1.463 2.746 1.751 5.464 2.705 25.502.824 17.323.822 19.395-.033 37.247-.9 18.793-1.625 24.826-3.378 28.115l-1.403 2.636 1.367.917c2.604 1.747 1.095 5.898-2.141 5.893-.79-.002-2.376-.551-3.524-1.222-2.064-1.205-2.128-1.205-5.445.002-1.847.672-3.896 1.222-4.554 1.222-.94 0-1.138.385-.923 1.792.568 3.708-3.203 4.997-7.162 2.447zm3.71-1.137c.56-1.687-1.948-4.365-4.088-4.365-2.13 0-2.02 2.153.212 4.133 2.134 1.895 3.302 1.965 3.876.232zm-44.551-5.554c.521-.933.325-1.54-.91-2.816-.865-.894-2.34-1.81-3.277-2.036-1.444-.347-1.704-.198-1.704.97 0 1.402 3.285 5.07 4.54 5.07.377 0 .985-.534 1.35-1.188zm62.351-.137c.686-2.07-.638-2.84-2.68-1.56-1.651 1.037-1.677 1.134-.527 1.968 1.716 1.246 2.7 1.12 3.207-.408zm-11.451-1.203c3.308-3.168 2.598-3.45-9.197-3.642l-10.63-.173-1.104 1.613c-.608.888-.95 1.76-.763 1.94.188.18 3.565.494 7.505.696 3.94.202 7.608.606 8.152.897 1.915 1.024 4.076.548 6.037-1.33zm3.546-1.307c1.791-3.318 2.177-7.37 2.393-25.158l.217-17.946-2.142-.838-2.142-.837V74.651l2.637-.992 2.637-.992-.034-15.992c-.045-21.243-.366-23.85-3.296-26.797-3.724-3.746-5.552-4.186-17.102-4.115-5.62.034-15.343.46-21.607.944-9.636.747-11.866 1.118-14.495 2.414C6.888 32.066 4.183 37.21 2.8 48.26c-1.13 9.02-1.55 43.306-.7 57.11.784 12.727 1.407 15.17 3.87 15.178 3.47.01 6.115 1.371 7.417 3.815.73 1.372 1.693 2.495 2.14 2.495.445 0 5.823.718 11.95 1.597l11.142 1.596 1.784-2.046 1.783-2.046 10.467-.135c6.535-.084 10.78.114 11.299.527 1.137.904 1.048 3.337-.157 4.294-.544.433-.989 1.07-.989 1.418 0 .974 1.956-.808 2.992-2.728zM76 120.173c.883-4.075 1.873-30.564 1.142-30.563-.272 0-.495 1.84-.495 4.09v4.09l-1.717-.749c-1.628-.71-1.697-.931-1.33-4.248.214-1.924.574-4.564.801-5.866.335-1.919.212-2.367-.648-2.367-.918 0-1.064 1.08-1.082 8.05-.04 14.759-1.143 31.41-2.249 33.944-1.503 3.446-1.277 3.461 1.923.13 2.238-2.328 3.07-3.808 3.655-6.51zm-5.907-2.429c.29-4.189.68-12.634.866-18.768.285-9.347.186-11.209-.611-11.502-.807-.296-.96 1.446-1.009 11.468-.063 13.064-.797 26.91-1.53 28.863-.26.694.028.428.642-.591.768-1.276 1.28-4.227 1.642-9.47zm-57.47 6.974c-.806-1.695-3.124-2.91-5.547-2.91-1.35 0-1.616.306-1.616 1.855 0 1.68.234 1.88 2.471 2.103 5.66.568 5.48.608 4.692-1.048zm63.365-32.19c0-2.368.543-4.519 1.794-7.103 2.52-5.205 2.473-9.956-.147-15.07-1.067-2.083-2.123-5.208-2.345-6.944l-.405-3.156-.108 3.251c-.076 2.298.372 4.242 1.524 6.625 2.64 5.456 2.698 7.611.396 14.494-2.004 5.993-2.646 11.298-1.368 11.298.362 0 .659-1.528.659-3.395zm-4.614-12.77c0-6.128-.098-6.659-1.153-6.249-.635.246-1.97.73-2.967 1.076-1.738.603-1.812.806-1.812 4.981v4.353l2.472 1.198c1.359.66 2.694 1.23 2.966 1.268.272.038.494-2.944.494-6.627zm3.296.015c0-4.636-1.562-4.416-1.847.26-.16 2.612.006 3.264.824 3.264.802 0 1.023-.76 1.023-3.524zm2.524-1.842c-.01-1.389-.257-3.235-.547-4.103-.354-1.06-.534.185-.547 3.788-.013 3.536.174 4.935.547 4.103.312-.694.558-2.399.547-3.788zm-2.534-5.524c-.006-1.823-.298-3.74-.65-4.261-.447-.663-.641.33-.648 3.314-.006 2.427.273 4.262.649 4.262.362 0 .654-1.492.649-3.315zm-3.286-18.806c0-17.07-.09-18.504-1.314-20.801-1.274-2.392-4.234-5.69-5.107-5.69-.236 0 .5.924 1.637 2.053 1.137 1.128 2.381 2.851 2.766 3.829.436 1.106.7 8.792.7 20.36 0 11.967.234 18.582.659 18.582.424 0 .659-6.532.659-18.333zm6.201 10.6c-.125-1.476-.364-7.984-.53-14.462-.32-12.506-.534-13.444-4.134-18.051-2.258-2.889-2.95-2.55-1.29.631 1.254 2.403 1.423 3.954 1.616 14.836l.215 12.153h1.598c1.513 0 1.597.2 1.597 3.787 0 2.084.26 3.788.578 3.788.318 0 .476-1.207.35-2.683zM41.053 17.588c0-5.317-.198-6.935-.824-6.736-.563.18-.88 2.137-1.005 6.185-.19 6.188.018 7.548 1.15 7.548.426 0 .68-2.612.68-6.997zm19.116-.58c0-4.251-.27-7.575-.614-7.575-.337 0-.708-.64-.824-1.42-.202-1.365-.503-1.428-7.626-1.6l-7.415-.178v1.915c0 1.053-.297 1.914-.66 1.914-.399 0-.658 2.729-.658 6.923v6.924l7.085.202c3.898.112 7.902.264 8.899.337l1.813.135V17.01zm3.295 0c0-6.312-.164-7.575-.988-7.575s-.99 1.263-.99 7.576.166 7.576.99 7.576.988-1.263.988-7.576zM42.253 8.015c-.14-.949-.594-1.36-1.364-1.235-.684.11-1.154-.211-1.154-.79 0-.835 1.42-.974 9.949-.974 9.248 0 9.972.085 10.279 1.21.41 1.5 3.479 2.362 4.253 1.194.96-1.45.609-3.435-.828-4.674-1.19-1.026-2.371-1.193-8.074-1.136-7.696.076-15.847 1.247-16.865 2.422-1.094 1.262.944 5.403 2.66 5.403 1.028 0 1.304-.342 1.144-1.42z" fill="#464646"/><path style="marker:none" d="M62.904 132.046c0-.091.33-.547.733-1.013.404-.466.841-1.105.973-1.42.486-1.164.152-2.759-.694-3.313-.707-.463-5.96-.652-14.392-.517l-7.458.119-1.734 2.006c-.954 1.103-1.796 2.005-1.87 2.006-.075 0-3.756-.517-8.18-1.149a1344.56 1344.56 0 0 0-11.403-1.588c-1.849-.24-3.514-.52-3.7-.62-.185-.099-.852-.963-1.481-1.92-1.945-2.959-3.413-3.768-7.617-4.196-1.305-.133-1.854-.65-2.383-2.244-1.564-4.709-2.325-25.952-1.782-49.713.45-19.67 1.267-26.212 4.006-32.082 1.426-3.057 3.348-5.121 6.307-6.773 1.925-1.074 3.265-1.498 6.028-1.904 7.964-1.17 29.831-2.209 37.223-1.768 3.896.232 5.316.504 7.023 1.344 1.55.763 4.037 3.037 4.795 4.385 1.618 2.878 1.785 5.05 1.914 24.966l.104 15.921-1.747.67c-.962.368-2.166.826-2.676 1.017l-.928.348V84.613l2.177.84 2.178.84-.059 5.326c-.127 11.45-.428 25.606-.598 28.13-.368 5.45-.988 8.017-2.472 10.236-1.079 1.613-2.287 2.702-2.287 2.061z" color="#000" fill="#5df" stroke="#5df" stroke-width=".071" stroke-linecap="round" stroke-linejoin="round" overflow="visible"/><path style="marker:none" d="M70.609 71.579c-.3-1.618-.403-5.162-.496-17.08-.105-13.502-.22-17.88-.538-20.55-.17-1.434-.993-2.738-3.253-5.155-.962-1.029-1.385-1.544-1.32-1.609.022-.022.235.083.473.234 1.303.826 3.657 3.694 4.634 5.645.942 1.882 1.033 2.783 1.169 11.623.081 5.293.08 8.585-.003 14.805-.105 7.865-.178 10.109-.375 11.558-.108.794-.208.976-.291.529zM77.11 66.676c-.245-.468-.352-1.523-.448-4.401-.077-2.324-.147-2.654-.61-2.869-.132-.061-.755-.131-1.397-.157l-1.158-.046-.06-3.324c-.22-12.41-.336-16.69-.502-18.572-.202-2.293-.522-3.537-1.32-5.125-.76-1.517-.99-2.307-.687-2.369.335-.069 2.401 2.348 3.67 4.29 1.11 1.702 1.694 3.567 1.958 6.253.187 1.908.276 3.898.494 11.049.122 3.986.281 8.496.354 10.021.073 1.526.133 3.196.132 3.713 0 1.24-.202 1.966-.426 1.537z" color="#000" fill="#5df" stroke="#5df" stroke-width=".035" stroke-linecap="round" stroke-linejoin="round" overflow="visible"/><path style="marker:none" d="M69.707 128.772c0-.102.194-.663.43-1.245.773-1.9 1.133-4.064 1.6-9.63.471-5.592.81-13.54.969-22.715.17-9.811.221-10.295 1.113-10.397.323-.038.524.04.596.23.06.156-.14 2.13-.444 4.386-.579 4.288-.682 6.266-.36 6.87.17.317 2.562 1.563 3 1.563.099 0 .172-1.327.178-3.227.005-1.774.072-3.544.148-3.933l.139-.707.142.512c.29 1.046-.242 17.626-.8 24.944-.477 6.238-1.151 7.967-4.502 11.538-1.525 1.625-2.209 2.186-2.209 1.811z" color="#000" fill="#5df" stroke="#5df" stroke-width=".071" stroke-linecap="round" stroke-linejoin="round" overflow="visible"/><path style="marker:none" d="M67.993 127.39c.69-3.916 1.113-11.91 1.317-24.875.198-12.52.325-14.799.831-14.965.224-.073.525.305.699.877.342 1.129.098 12.227-.533 24.213-.527 10.013-1.031 13.373-2.25 15-.11.146-.124.09-.064-.25zM56.437 132.025c-1.325-.45-3.047-.65-9.188-1.07-4.809-.329-6.416-.494-6.601-.68-.16-.158.296-1.109 1.115-2.327l.712-1.058h.575c.316 0 3.64.057 7.387.126 10.304.189 12.615.375 13.221 1.069l.284.325-.284.506c-.156.278-.749.946-1.317 1.484-2.028 1.92-3.69 2.378-5.904 1.626zM9 125.814c-3.35-.348-3.485-.436-3.418-2.263.057-1.552.109-1.6 1.704-1.593 2.502.01 4.539 1.196 5.426 3.16.373.824.288.9-.99.88a38.637 38.637 0 0 1-2.721-.184z" color="#000" fill="#5df" stroke="#5df" stroke-width=".05" stroke-linecap="round" stroke-linejoin="round" overflow="visible"/><path style="marker:none" d="M40.915 9.397c-.949-.16-2.13-1.67-2.6-3.325-.196-.69-.191-1.426.012-1.824.25-.49 1.274-.91 3.253-1.33 2.936-.626 6.952-1.058 11.562-1.245 1.277-.051 5.798-.052 6.625-.001 1.785.11 2.589.325 3.359.894 1.328.984 1.922 2.659 1.442 4.07-.328.965-.77 1.304-1.688 1.297-1.11-.009-2.303-.609-2.749-1.382a2.563 2.563 0 0 1-.16-.37c-.171-.504-.408-.704-1.018-.859-1.022-.259-2.567-.312-9.06-.312-6.25 0-8.13.058-9.217.282-.71.147-.95.334-.944.737a.73.73 0 0 0 .5.714c.146.055.23.062.672.055.53-.008.583.003.808.155.134.09.3.323.385.542.159.404.219 1.072.124 1.39a.7.7 0 0 1-.421.434c-.112.04-.654.12-.72.106a16.514 16.514 0 0 0-.165-.028z" color="#000" fill="#d35f5f" stroke="#d35f5f" stroke-width=".013" stroke-linecap="round" stroke-linejoin="round" overflow="visible"/><path style="marker:none" d="M62.113 24.39c-.458-.49-.576-1.989-.575-7.36 0-6.303.158-7.562.948-7.562.768 0 .925 1.293.924 7.585 0 5.443-.11 6.84-.575 7.335-.181.193-.541.194-.722.002zM39.886 24.4c-.23-.181-.379-.5-.509-1.089-.091-.413-.116-.907-.14-2.843-.042-3.45.132-6.819.428-8.27.15-.737.245-.986.46-1.2.205-.205.355-.137.5.226.199.498.288 1.431.352 3.681.122 4.29-.066 8.498-.42 9.383-.085.212-.123.242-.3.242a.701.701 0 0 1-.37-.13z" color="#000" fill="#d35f5f" stroke="#d35f5f" stroke-width=".025" stroke-linecap="round" stroke-linejoin="round" overflow="visible"/><path style="marker:none" d="M69.74 85.87c-.447-.194-1.591-.724-2.543-1.18l-1.731-.827.049-3.784c.052-4.032.098-4.355.707-4.896.252-.225 4.11-1.701 4.445-1.701.371 0 .49.693.575 3.375.085 2.646-.028 7.62-.198 8.781-.105.71-.175.722-1.304.232z" color="#000" fill="#d35f5f" stroke="#d35f5f" stroke-width=".05" stroke-linecap="round" stroke-linejoin="round" overflow="visible"/><path style="marker:none" d="M75.079 95.735c-.532-.53-.45-2.686.217-5.804.337-1.57.733-3.008 1.522-5.524 1.3-4.146 1.545-5.295 1.544-7.248-.002-2.086-.394-3.513-1.822-6.635-1.188-2.597-1.467-3.528-1.7-5.68-.03-.284-.026-1.279.01-2.21l.067-1.694.203 1.502c.232 1.719.291 2.006.707 3.403a28.582 28.582 0 0 0 1.555 4.066c1.564 3.308 2.062 5.031 2.161 7.476.11 2.723-.363 4.82-1.802 7.992-1.288 2.837-1.664 4.324-1.796 7.1-.046.98-.101 1.863-.122 1.96-.208.984-.278 1.21-.412 1.332-.144.13-.17.126-.332-.036z" color="#000" fill="#d35f5f" stroke="#d35f5f" stroke-width=".035" stroke-linecap="round" stroke-linejoin="round" overflow="visible"/><path style="marker:none" d="M76.348 81.689c-.165-.42-.255-3.61-.16-5.708.099-2.225.168-2.652.36-2.229.192.42.453 1.942.533 3.097.115 1.686-.037 3.454-.395 4.575-.141.443-.238.52-.338.265zM73.266 83.158c-.318-.185-.412-.625-.412-1.926 0-2.076.355-4.11.801-4.589.236-.254.353-.217.547.175.281.565.367 1.309.371 3.213.005 2.026-.081 2.613-.44 3.001a.698.698 0 0 1-.867.126zM73.796 75.313c-.305-.764-.471-3.55-.33-5.535.107-1.495.15-1.723.33-1.723.49 0 .963 3.496.755 5.57-.106 1.065-.333 1.95-.515 2.007-.054.017-.162-.126-.24-.32z" color="#000" fill="#d35f5f" stroke="#d35f5f" stroke-width=".035" stroke-linecap="round" stroke-linejoin="round" overflow="visible"/><path style="marker:none" d="M54.136 138.558c-.75-.203-2.524-1.664-3.128-2.576-1.724-2.603.86-3.762 3.364-1.51 1.03.926 1.437 1.638 1.437 2.514 0 .714-.438 1.507-.896 1.624-.166.043-.515.02-.777-.052zM70.964 132.407c-1.283-.806-1.357-.976-.662-1.506.89-.679 2.219-1.217 2.705-1.095.583.147.835.7.695 1.524-.268 1.59-1.286 1.99-2.738 1.077zM9.253 132.74c-1.344-.712-3.695-3.752-3.692-4.777.002-.768.233-.947 1.053-.816 1.072.171 2.283.842 3.452 1.91 1.324 1.21 1.62 1.87 1.218 2.719-.266.56-1.02 1.325-1.288 1.306-.06-.004-.394-.159-.743-.343z" color="#000" fill="#ffd42a" stroke="#fd5" stroke-width=".071" stroke-linecap="round" stroke-linejoin="round" overflow="visible"/></svg>