<svg xmlns="http://www.w3.org/2000/svg" width="70" height="60"><path d="M25.666 59.6c9.007-.854 15.039-1.18 18.98-1.025 2.24.088 5.939.013 8.259-.167 2.31-.178 6.083-.44 8.384-.582 3.728-.23 4.3-.333 5.282-.951.605-.382 1.215-.694 1.356-.694.593 0 2.075-4.926 2.073-6.887 0-.823-.653-3.052-1.902-6.496a8490.635 8490.635 0 0 1-4.78-13.242l-2.88-7.998v-3.884c0-2.681-.111-4.023-.361-4.335-.3-.374-1.202-.479-5.289-.613-2.71-.088-5.855-.228-6.99-.31l-2.064-.15.035-4.642c.052-6.679.4-6.452-11.427-7.453C32.66.03 31.03-.039 30.72.022c-.31.06-2.09.174-3.955.251-6.11.254-6.16.347-5.16 9.94.252 2.412.24 3.059-.058 3.239-.205.124-1.425.227-2.71.23-1.287.001-2.986.186-3.776.41-.79.223-2.327.526-3.415.673-2.584.349-2.965.705-3.21 3.006-.228 2.156-1.396 7.858-2.017 9.85-.236.759-.697 2.56-1.025 4.001-.771 3.398-2.439 9.169-3.508 12.142C.551 47.476-.186 51.488.041 53.804c.231 2.363.731 3.48 2.05 4.583 1.231 1.03 2.057 1.047 4.472.098 2.547-1.001 4.705-.992 7.222.033 1.913.778 5.519 1.53 7.1 1.48.478-.016 2.63-.195 4.78-.399zm-3.133-2.384c.745-2.242.602-6.913-.324-10.555-1.55-6.09-3.01-11.527-3.783-14.073-1.152-3.798-3.192-12.435-3.192-13.515v-.887l3.84-.85c5.705-1.264 15.8-2.08 26.152-2.112 6.447-.02 11.833.43 12.511 1.048.188.171.879 1.801 1.537 3.622 3.13 8.672 4.728 13.048 6.245 17.11 3.654 9.781 3.979 10.873 3.818 12.83-.08.987-.423 2.625-.761 3.64-.599 1.796-.657 1.864-2.215 2.566-1.012.456-2.475.813-3.979.972-4.423.468-14.303.848-19.076.734-4.662-.11-7.977.061-14.887.773-1.913.197-4.149.372-4.969.39l-1.49.032.573-1.725zm43.366-6.002c0-.38-.066-.534-.146-.345-.08.19-.08.5 0 .69.08.19.146.035.146-.345zm-2.295-.437c-.014-.321-.083-.386-.176-.166-.083.199-.073.437.023.529.097.091.165-.072.153-.363zm2.275-.833c.195-.199.355-.564.355-.81 0-.492-1.886-3.325-2.419-3.632-.183-.106.006.236.42.76.86 1.085 1.71 2.58 1.71 3.007 0 .652-.602.215-1.327-.965-.425-.69-.836-1.193-.914-1.119-.078.075.3.808.839 1.629.794 1.209 1.048 1.424 1.336 1.13zM38.8 44.134c.123-.118 3.967-.218 8.54-.223l8.318-.01.083-.828c.1-.987-1.535-8.426-3.012-13.714l-1.057-3.78-1.976-.428c-2.276-.493-3.859-.534-6.588-.17-1.067.143-3.439.408-5.272.59-1.833.181-3.544.433-3.804.56-.78.382-.79 1.487-.041 4.739.392 1.703 1.06 5.39 1.483 8.193l.769 5.096 1.167.093c.642.052 1.268-.003 1.39-.12zm-2.563-4.371a115.238 115.238 0 0 0-1.22-6.9c-.394-1.82-.819-3.789-.944-4.373-.218-1.02-.189-1.077.748-1.45.933-.371 5.15-.973 9.62-1.373 1.971-.177 5.897.225 6.675.682.375.221 2.632 8.628 3.55 13.224.495 2.483.589 3.45.347 3.592-.182.107-4.368.193-9.302.19l-8.97-.005-.504-3.587zm11.338 1.194c.1-.156.096-1.237-.01-2.403l-.195-2.12 1.16.105c1.057.096 1.179.04 1.356-.634.266-1.007-.106-3.798-.54-4.061-.195-.117-.768-.215-1.274-.218-1.205-.006-1.755-.568-1.986-2.031-.103-.656-.287-1.347-.41-1.535-.277-.427-2.327-.708-3.363-.46-.764.182-.772.208-.58 1.91l.194 1.724-1.249.263-1.248.263-.086 1.566c-.048.862.027 1.98.165 2.484.25.912.26.917 1.861.849 1.591-.068 1.612-.058 1.791.793.1.474.181 1.257.181 1.74 0 .484.163 1.074.362 1.313.43.516 3.59.885 3.87.452zm-2.678-.777c-.907-.004-.908-.007-1.115-1.866-.114-1.025-.34-2.018-.504-2.208-.163-.19-.917-.345-1.676-.345-1.533 0-1.726-.252-1.733-2.271-.004-.902.095-1.05.793-1.19 1.543-.308 1.67-.493 1.597-2.303l-.07-1.686 1.229.004c.675.002 1.371.095 1.546.207.175.111.506.948.734 1.858l.416 1.656 1.492.254 1.49.254.191 1.32c.242 1.67.046 1.955-1.265 1.847l-1.058-.088.096 2.453c.096 2.451.096 2.452-.58 2.28-.37-.095-1.083-.174-1.583-.176zM13.35 57.953c-3.048-1.038-3.53-1.062-6.085-.307-3.995 1.181-3.797 1.154-4.632.633C1.53 57.59.981 56.124.82 53.422c-.18-2.984.38-5.865 2.24-11.54 1.377-4.203 2.227-7.306 2.914-10.64.184-.89.563-2.257.843-3.035s.747-2.625 1.04-4.104c.29-1.48.627-2.69.745-2.69.119 0 .298.713.399 1.586.1.872.366 2.766.59 4.208.223 1.442.614 4.298.869 6.347.254 2.049.574 4.127.71 4.62.155.555.133 1.188-.059 1.671-.418 1.054-.07 2.594.784 3.471.554.57.976.724 1.977.724 1.415 0 2.021-.446 2.542-1.867.407-1.113-.13-3.757-.915-4.505-.518-.493-.554-1.012-.554-8.024 0-4.123.058-7.44.13-7.373.07.067.862 2.851 1.76 6.186 5.768 21.444 6.105 22.943 5.762 25.63-.275 2.16-.974 4.266-1.514 4.566-.268.15-1.465.275-2.66.28-1.774.006-2.707-.174-5.072-.98zm1.584-15.275c.456-.81.359-2.46-.197-3.356-.274-.44-.608-.801-.742-.801s-.164-.124-.065-.276c.367-.566 1.057-.246 1.463.68.562 1.282.544 3.302-.035 3.853-.616.587-.787.546-.424-.1zm-2.863-.587c-.676-1.145-.674-2.774.003-3.173 1.103-.649 2.83 1.38 2.437 2.867-.464 1.762-1.504 1.892-2.44.306zm-.439-5.847c-.11-.948-.667-4.705-1.238-8.347-.572-3.643-1.1-7.732-1.173-9.089-.149-2.738.095-3.19 1.721-3.19.883 0 1.033.301.436.876-.702.677-.716 1.199-.186 6.998.29 3.181.669 7.399.84 9.372.17 1.973.37 3.929.445 4.346.091.515.01.759-.256.759-.264 0-.454-.557-.589-1.725zm1.282.828c0-.19-.124-2.332-.273-4.76-.523-8.476-.66-15.237-.32-15.842.343-.608 1.588-1.314 3.04-1.723.488-.137 5.379-.617 10.868-1.065 7.524-.614 11.734-.817 17.097-.825 7.97-.01 15.649.449 16.099.963.412.471.19 4.065-.243 3.93-.185-.059-.402-.714-.482-1.458l-.145-1.352-1.304-.232c-2.782-.495-21.763.07-31.006.924-1.673.154-3.955.336-5.07.405-2.245.137-6.094.738-6.361.992-.094.09-.244 4.558-.333 9.93-.089 5.373-.212 9.923-.275 10.113-.062.19-.378.345-.702.345-.324 0-.59-.155-.59-.345zm10.723-24.007c0-.19-.19-2.084-.42-4.208-.382-3.513-.298-6.997.18-7.452.085-.082 1.99-.278 4.23-.437 3.28-.232 5.139-.202 9.533.154 6.015.488 7.185.733 7.677 1.608.357.635.433 7.3.1 8.747-.106.456-.362.829-.569.829-.28 0-.43-.951-.585-3.707l-.208-3.707-1.058-.483c-.922-.42-2.042-.485-8.689-.501l-7.63-.018-.579.678c-.523.613-.574 1.05-.529 4.553.028 2.131.038 3.968.023 4.082-.047.358-1.476.224-1.476-.138zm-1.159-.025c0-.203-.192-2.284-.428-4.625-.458-4.555-.351-6.594.347-6.596.124 0 .19.962.144 2.139-.044 1.176.09 3.784.301 5.795.312 2.978.313 3.657.01 3.657a.372.372 0 0 1-.374-.37zm3.663-.749c-.097-.463-.263-2.187-.368-3.83l-.19-2.99.77-.48c.691-.431 1.473-.468 7.692-.364 5.175.087 7.04.209 7.385.482.379.299.463.99.463 3.781v3.416l-1.956.006c-2.126.007-5.836.218-9.49.541-4.207.372-4.107.385-4.306-.562zm16.395-3.526c-.046-1.926.033-3.358.187-3.358.486 0 .62.84.62 3.909 0 2.306-.088 3.008-.363 2.921-.257-.081-.386-1.088-.444-3.472z" fill="#464646"/><path style="marker:none" d="M46.996 40.306c.05-.06.078-.382.077-.91 0-1.082-.072-3.427-.11-3.613l-.03-.147.95.041c.846.037.974.028 1.154-.079.268-.158.38-.546.321-1.107-.082-.78-.25-1.87-.293-1.915-.025-.025-.685-.153-1.467-.286-.783-.133-1.437-.256-1.455-.274-.017-.017-.171-.559-.342-1.203-.33-1.249-.508-1.773-.715-2.11-.17-.276-.512-.344-1.852-.368l-1.02-.018.027.927c.014.51.02 1.19.012 1.512-.024 1.003-.238 1.233-1.408 1.51-.822.196-.898.272-.959.956-.058.656.06 1.771.216 2.043.196.341.506.442 1.542.503 1.1.064 1.54.185 1.685.465.155.3.34 1.192.494 2.374.144 1.113.238 1.423.45 1.49.067.022.492.07.945.106.452.037.957.095 1.12.129.421.087.57.081.658-.026z" color="#000" fill="#ff8080" stroke="#000" stroke-width=".066" stroke-linecap="round" stroke-linejoin="round" overflow="visible"/><path style="marker:none" d="M50.245 43.31c4.213-.048 4.734-.077 4.835-.266.237-.443-.369-3.659-1.665-8.835-.923-3.687-1.633-6.217-2.057-7.327-.176-.461-.216-.516-.45-.61-.73-.292-2.74-.556-4.668-.613-1.447-.043-3.063.086-6.39.513-3.982.51-5.476.858-5.799 1.35-.137.21-.132.244.444 2.91.906 4.189 1.435 7.143 2.009 11.203.129.916.235 1.684.235 1.705 0 .049 8.333.03 13.506-.03zm-5.363-2.348c-1.272-.276-1.411-.464-1.561-2.105-.117-1.277-.25-1.907-.436-2.075-.123-.112-.265-.123-1.517-.123h-1.381l-.166-.166c-.106-.105-.22-.358-.312-.695-.13-.475-.145-.687-.145-2.052 0-.838.021-1.63.046-1.761l.046-.239 1.223-.252c1-.207 1.224-.274 1.224-.364 0-.061-.06-.645-.132-1.297-.173-1.555-.172-1.839.005-2.004.425-.395 2.275-.424 3.369-.051.553.188.607.285.895 1.587.41 1.862.644 2.106 2.164 2.266.468.049.933.128 1.032.176.408.195.693 1.4.702 2.965.007 1.083-.076 1.496-.339 1.696-.137.104-.736.114-1.569.027-.326-.035-.606-.05-.622-.033-.017.016.02.588.08 1.272.168 1.9.197 2.478.147 2.882-.04.321-.07.38-.224.44-.253.1-1.925.037-2.529-.094z" color="#000" fill="#ccc" stroke="#000" stroke-width=".066" stroke-linecap="round" stroke-linejoin="round" overflow="visible"/><path style="marker:none" d="M13.707 43.102c.231-.115.39-.311.577-.71.29-.625.34-1.054.186-1.65-.245-.96-1.1-1.853-1.846-1.93-.296-.03-.623.1-.77.306-.335.474-.366 1.447-.073 2.308.268.79.812 1.498 1.307 1.705.222.093.388.085.619-.029z" color="#000" fill="#ccc" stroke="#000" stroke-width=".047" stroke-linecap="round" stroke-linejoin="round" overflow="visible"/><path style="marker:none" d="M15.013 43.066c.336-.244.523-.496.637-.86.096-.303.108-.436.108-1.184 0-.894-.043-1.17-.286-1.862-.205-.586-.633-1.11-.96-1.175-.18-.036-.418.063-.549.229-.139.177-.128.244.054.32.362.152.889.97 1.065 1.655.052.201.106.597.122.88.034.642-.052 1.135-.286 1.64-.242.525-.225.59.095.357z" color="#000" fill="#ccc" stroke="#000" stroke-width=".047" stroke-linecap="round" stroke-linejoin="round" overflow="visible"/><path style="marker:none" d="M13.968 37.288c.177-.111.212-.18.247-.484.04-.35.135-3.578.207-7.073.196-9.535.306-12.633.45-12.726.318-.206 3.065-.66 5.311-.878 1.97-.19 10.248-.824 12.546-.96 10.731-.633 22.335-.818 24.897-.396.49.081.9.153.909.161.01.008.062.413.117.901.145 1.278.415 2.087.626 1.875.255-.256.44-2.664.268-3.493-.096-.463-.182-.513-1.134-.665-3.652-.584-13.496-.848-21.114-.567-4.477.165-13.89.878-19.664 1.488-1.976.21-2.177.244-2.88.491-1.333.471-2.323 1.146-2.48 1.693-.236.816-.127 6.415.265 13.705.327 6.06.379 6.799.487 6.907.16.16.702.172.942.021zM25.044 13.284c.058-.07.075-1.031.065-3.724-.015-3.878.005-4.175.306-4.69.086-.146.294-.422.463-.613l.307-.347 5.705.001c6.211.002 8.829.065 9.702.232.474.09 1.798.6 1.941.747.025.025.108 1.148.185 2.496.202 3.529.335 4.675.568 4.869.058.048.14.017.286-.106.462-.388.567-1.48.518-5.38-.035-2.804-.097-3.7-.28-4.054-.404-.782-1.606-1.057-6.486-1.482-4.034-.352-5.8-.429-8.296-.361-2.24.06-6.145.374-6.54.524-.325.123-.49 1.24-.49 3.308 0 1.591.057 2.464.364 5.595.307 3.123.262 2.872.531 2.984.299.125 1.048.125 1.151.001zM23.021 13.228c.078-.29.04-1.087-.154-3.22-.249-2.747-.333-4.297-.334-6.165-.001-1.72-.029-1.986-.205-1.986-.174 0-.336.282-.435.753-.101.483-.113 2.481-.022 3.683.213 2.809.618 6.8.704 6.935.054.086.16.15.25.15.106 0 .17-.048.196-.15zM12.444 37.863c.069-.111.048-.562-.07-1.512-.095-.778-.61-6.375-1.234-13.407-.34-3.84-.378-5.375-.143-5.885a2.81 2.81 0 0 1 .407-.603c.546-.592.432-.786-.476-.811-1.03-.028-1.447.21-1.643.937-.095.353-.093 1.975.004 2.986.19 1.994.639 5.287 1.333 9.798.219 1.42.572 3.794.786 5.274.421 2.923.515 3.3.823 3.3.09 0 .187-.035.213-.077z" color="#000" fill="#c8b7b7" stroke="#000" stroke-width=".066" stroke-linecap="round" stroke-linejoin="round" overflow="visible"/><g fill="#2ad4ff" color="#000" stroke="#000" stroke-width=".187" stroke-linecap="round" stroke-linejoin="round"><path d="M25.57 58.752c.463-.038 2.611-.24 4.774-.451 2.983-.29 6.262-.42 13.577-.54 11.973-.197 17.808-.52 20.581-1.139 1.137-.254 2.648-.904 3.158-1.36.516-.461 1.237-2.664 1.559-4.766.374-2.446.429-2.265-5.722-19.043-4.691-12.796-4.749-12.95-5.294-14.185-.544-1.232-.59-1.253-3.608-1.67-2.363-.325-15.864-.325-20.786.002-3.773.25-9.402.815-11.583 1.163-2.225.355-6.67 1.331-6.853 1.506-.438.417.946 6.729 3.446 15.712 3.515 12.63 3.941 14.55 4.076 18.352.09 2.53.053 3.095-.28 4.4-.211.825-.442 1.646-.514 1.826-.117.296.004.325 1.248.295a48.737 48.737 0 0 0 2.22-.102zm40.133-7.578c.06-.15.104-.105.113.113.008.198-.036.308-.098.246-.063-.062-.07-.224-.015-.359zm-.86-1.978c-.749-1.03-1.136-1.73-1.022-1.844.044-.044.435.427.87 1.046.434.62.868 1.126.964 1.126.437 0 .091-.976-.863-2.436-.927-1.419-.961-1.504-.319-.79.396.44.965 1.253 1.265 1.807.473.875.515 1.07.323 1.494-.122.267-.301.487-.398.487-.096 0-.465-.4-.82-.89zM36.33 44.084c-.067-.108-.408-2.026-.759-4.26-.35-2.235-.986-5.885-1.413-8.11-.892-4.65-.884-5.253.076-5.589.93-.324 9.93-1.316 11.96-1.318 1.446-.002 5.322.56 5.506.797.075.097 2.158 8.019 2.523 9.594.866 3.74 1.318 6.06 1.43 7.35l.12 1.358-7.004.018c-3.851.01-7.719.082-8.594.159-2.46.216-3.712.216-3.845 0z" style="marker:none" overflow="visible"/><path d="M20.652 58.766c.57-.125.93-.684 1.366-2.126.554-1.834.712-3.434.516-5.22-.247-2.244-3.756-16.114-6.639-26.237l-.719-2.525-.15 1.308c-.082.719-.101 3.912-.043 7.095.084 4.54.165 5.892.377 6.273.654 1.175.905 1.875 1.084 3.02.168 1.081.146 1.323-.194 2.09-.512 1.16-1.142 1.55-2.503 1.55-.938 0-1.156-.073-1.648-.544-.891-.854-1.222-1.935-1.02-3.338.114-.796.094-1.676-.066-2.76-.128-.876-.658-4.626-1.176-8.334-.52-3.707-.992-6.897-1.051-7.088-.192-.616-.408-.076-1 2.493a98.505 98.505 0 0 1-1.136 4.428 123.739 123.739 0 0 0-1.22 4.689c-.367 1.53-1.3 4.846-2.073 7.37-1.95 6.358-2.312 7.923-2.446 10.585-.223 4.428.77 7.017 2.691 7.017.353 0 1.667-.295 2.919-.655 2.995-.862 3.73-.85 6.883.118 2.228.684 2.771.78 4.675.828 1.184.03 2.342.013 2.573-.037z" style="marker:none" overflow="visible"/></g><path style="marker:none" d="M43.165 12.085c.124-.325.156-.945.153-2.94-.005-2.552-.073-3.25-.349-3.6-.13-.166-.28-.146-.33.043-.08.296-.12 1.976-.083 3.354.055 1.941.14 2.814.308 3.141.087.17.238.17.301.002z" color="#000" fill="#c8b7b7" stroke="#000" stroke-width=".047" stroke-linecap="round" stroke-linejoin="round" overflow="visible"/></svg>