<svg xmlns="http://www.w3.org/2000/svg" width="50" height="85"><path d="M10.735 77.755c-7.316-5.888-9.006-7.374-9.15-8.043-.096-.452-.311-5.447-.477-11.1C.942 52.96.625 43.182.403 36.884L0 25.434l2.552-5.823c1.403-3.203 2.64-6.016 2.747-6.251.61-1.338 2.333-1.988 20.089-7.583C35.194 2.687 43.413.1 43.65.025c.775-.24 2.576 1.307 2.854 2.451.138.569.603 2.551 1.033 4.406l.782 3.372-.574.235c-.315.13-2.057.714-3.871 1.298-1.814.584-3.337 1.101-3.384 1.149-.047.047 2.073 6.612 4.711 14.589L50 42.027l-.283 4.296a858.773 858.773 0 0 0-.56 9.577c-.151 2.905-.338 5.822-.414 6.482l-.138 1.201-14.052 10.325c-7.729 5.678-14.184 10.502-14.346 10.719-.161.217-.34.385-.396.372-.057-.012-4.14-3.272-9.076-7.244zm23.07-4.186c7.502-5.514 13.778-10.17 13.947-10.35.198-.21.513-4.004.893-10.77l.586-10.446-4.723-14.319c-2.598-7.876-4.843-14.326-4.988-14.334-.658-.035-32.888 10.722-32.888 10.977 0 .158 2.982 7.082 6.627 15.385l6.627 15.097-.034 14.392c-.018 7.916.044 14.393.14 14.393.094 0 6.31-4.511 13.812-10.025zM12.5 39.73c-7.19-16.417-7.093-16.14-7.417-21.08l-.168-2.562-2.082 4.703-2.082 4.704.717 21.984c.395 12.09.75 22.018.79 22.06.038.043 1.9-.085 4.138-.285l4.067-.363.07-7.176.07-7.176-2.758-13.663C6.328 33.36 5.138 27.157 5.2 27.09c.062-.067.168-.062.235.011.067.073 1.375 6.336 2.906 13.919l2.783 13.786v14.257l3.896 7.115 3.897 7.115.222-13.951.222-13.951-6.86-15.663zm5.193 42.366c-.315-.637-6.842-12.58-6.937-12.692-.108-.128-7.806.66-7.948.814-.119.128 14.816 12.483 15.126 12.513.042.004-.067-.282-.241-.635zm6.69-64.992c8.239-2.687 15.178-4.885 15.422-4.885.493 0 7.266-2.213 7.48-2.444.074-.08-.257-1.874-.737-3.985-.827-3.643-.917-3.868-1.765-4.434l-.894-.597-18.298 5.757C10.123 11.38 7.182 12.389 6.58 13.03l-.713.758.523 4.14c.288 2.277.572 4.29.63 4.474.081.252.39.242 1.247-.04.626-.205 7.879-2.572 16.117-5.259zm-18.517 2.52c-.244-.66-.258-.664-.274-.077-.009.34.07.854.174 1.142.157.43.205.444.274.077.046-.245-.032-.76-.174-1.142z" fill="#464646"/><path style="marker:none" d="M20.007 82.79c-.04-.323-.071-6.764-.072-14.315V54.747l-2.967-6.752C11.045 34.512 6.764 24.616 6.764 24.409c0-.147 3.543-1.39 13.45-4.72 6.492-2.183 16.204-5.366 17.988-5.896l1.27-.377.175.409c.505 1.173 1.891 5.221 5.524 16.133l4.01 12.04-.284 5.036c-.49 8.717-.937 15.063-1.117 15.878-.035.157-1.316 1.182-3.71 2.968-8.434 6.295-23.764 17.495-23.944 17.495-.027 0-.08-.263-.12-.586zM7.152 22.432c-.087-.14-.684-4.26-1.005-6.936l-.197-1.64.323-.386c.178-.212.556-.516.84-.675 1.23-.69 5.575-2.144 20.02-6.696l11.998-3.782L43.874.82l.66.457c.764.528.978.837 1.288 1.859.502 1.65 1.49 6.454 1.358 6.594-.216.227-3.734 1.371-9.053 2.945-2.583.764-11.393 3.591-23.409 7.513-3.759 1.227-6.981 2.263-7.16 2.302-.2.044-.357.021-.406-.058z" color="#000" fill="#fca" stroke="#fca" stroke-width=".056" stroke-linecap="round" stroke-linejoin="round" overflow="visible"/><path style="marker:none" d="M14.99 75.98l-3.761-6.87V55.027l-1.503-7.45c-3.4-16.862-4.19-20.564-4.382-20.564-.078 0-.142.106-.142.235 0 .488.86 4.97 3.072 16.013l2.283 11.393-.073 7.106c-.066 6.383-.091 7.106-.25 7.107-.097 0-1.583.125-3.302.278-1.719.153-3.457.278-3.863.278l-.739.001-.072-1.479c-.154-3.143-.683-18.538-1.255-36.524l-.188-5.915 1.99-4.491c1.094-2.47 2.01-4.472 2.033-4.448.024.024.116 1.04.204 2.26.36 4.998.032 4.126 10.71 28.498l3.545 8.09-.195 13.45c-.107 7.398-.23 13.57-.272 13.717-.065.22-.726-.916-3.84-6.603z" color="#000" fill="#fca" stroke="#fca" stroke-width=".056" stroke-linecap="round" stroke-linejoin="round" overflow="visible"/><path style="marker:none" d="M16.865 81.844C11.902 77.826 6.51 73.362 4.093 71.273L2.93 70.266l.774-.13c.923-.154 5.14-.575 6.237-.622l.776-.034 3.052 5.58c1.68 3.07 3.279 5.995 3.555 6.502.276.506.462.92.413.918-.05-.002-.441-.288-.87-.636z" color="#000" fill="#fca" stroke="#fca" stroke-width=".056" stroke-linecap="round" stroke-linejoin="round" overflow="visible"/><path style="marker:none" d="M5.823 20.764a3.812 3.812 0 0 1-.2-1.242l.004-.38.11.236c.215.463.338 1.193.253 1.51-.038.138-.082.106-.167-.124z" color="#000" fill="#ffb380" stroke="#ffb380" stroke-width=".02" stroke-linecap="round" stroke-linejoin="round" overflow="visible"/><path style="marker:none" d="M20.089 74.093c-.081-4.98-.148-11.428-.148-14.33v-5.278l-3.81-8.693C9.205 29.993 6.963 24.653 7.168 24.448c.384-.384 18.526-6.52 31.911-10.794.152-.048.381.11.51.35s2.29 6.583 4.802 14.094c4.01 11.986 4.569 13.828 4.569 15.06 0 1.645-.813 14.683-1.098 17.601-.196 2.007-.196 2.009-1.19 2.902-.99.889-14.677 11.02-22.398 16.578l-4.037 2.907-.148-9.053z" color="#000" fill="#ffb380" stroke="#464646" stroke-width=".6" stroke-linecap="round" stroke-linejoin="round" overflow="visible"/><path style="marker:none" d="M18.02 81.185a1324.38 1324.38 0 0 1-3.74-6.753l-3.044-5.525V54.411L8.668 41.85C6.158 29.577 5.56 26.943 5.284 26.943c-.283 0 .23 2.919 2.61 14.85l2.45 12.283v7.165c0 5.466-.067 7.218-.28 7.386-.346.273-7.342.793-7.545.56-.082-.092-.475-9.961-.873-21.931L.92 25.492l1.864-4.13c2.112-4.677 1.905-4.639 2.393-.436.355 3.054 1.175 5.152 9.283 23.763l4.765 10.937-.198 11.385c-.109 6.26-.224 12.288-.256 13.393l-.058 2.009-.694-1.228z" color="#000" fill="#ffb380" stroke="#464646" stroke-width=".4" stroke-linecap="round" stroke-linejoin="round" overflow="visible"/><path style="marker:none" d="M10.151 76.131c-3.817-3.16-6.917-5.767-6.89-5.794.094-.09 7.343-.797 7.4-.722.34.453 6.583 12.11 6.518 12.174-.048.049-3.21-2.498-7.028-5.658zM7.343 22.276c-.071-.115-.392-2.03-.713-4.257l-.583-4.047.511-.544c.693-.738 2.416-1.371 12.937-4.754 17.447-5.61 24.117-7.652 24.551-7.514.88.28 1.492 1.377 2.085 3.746.323 1.286.65 2.886.73 3.555l.142 1.215-1.31.474c-.72.261-2.967.99-4.992 1.62-5.146 1.602-32.892 10.513-33.077 10.624-.083.05-.21-.002-.281-.118z" color="#000" fill="#ffb380" stroke="#464646" stroke-width=".6" stroke-linecap="round" stroke-linejoin="round" overflow="visible"/></svg>