<svg xmlns="http://www.w3.org/2000/svg" width="100" height="100"><path d="M12.362 93.273L2.15 86.553l-.116-2.88C1.918 80.77 1.764 76.51.928 53.066.678 46.02.346 36.92.191 32.843c-.154-4.077-.23-7.497-.17-7.6.06-.103.223-.187.361-.187.138 0 8.48-2.022 18.536-4.494 10.056-2.47 18.326-4.493 18.378-4.493.052 0 .117-2.12.143-4.712l.049-4.713 13.908-3.322L65.304 0l1.189.499c1.798.754 1.823.793 1.844 2.933.01 1.009.071 2.53.136 3.38l.119 1.545 4.837-1.193 4.837-1.193 10.26 3.786 10.259 3.787.121.737c.067.405.213 6.802.324 14.216.221 14.752.482 29.708.657 37.778l.113 5.178-5.518 2.026c-4.884 1.793-42.115 15.45-63.542 23.308-4.302 1.577-7.849 2.947-7.882 3.044-.034.097-.156.173-.273.169-.117-.005-4.807-3.031-10.423-6.727zm9.938 4.965c0-.4-.107-3.435-.817-23.374-.15-4.207-.477-13.413-.726-20.459a6419.28 6419.28 0 0 0-.572-15.799l-.12-2.988-5.172-2.525c-2.845-1.389-5.207-2.49-5.247-2.447-.064.067.241 8.903 1.013 29.304.352 9.306.712 19.298.913 25.334.11 3.313.237 6.195.281 6.406.055.256 1.74 1.465 5.128 3.677 2.775 1.812 5.108 3.297 5.183 3.298.075.002.136-.19.136-.427zm9.91-2.776l8.728-3.203-.047-1.432c-1.548-46.616-2.026-60.085-2.136-60.2-.088-.093-17.43 4.56-17.735 4.758-.129.084-.128 1.708.002 5.173.17 4.51.432 11.864 1.371 38.417.151 4.259.355 9.851.453 12.428.098 2.576.179 5.265.18 5.975.001.905.07 1.29.229 1.29.125-.002 4.155-1.444 8.955-3.206zM43.96 91.2c1.142-.427 2.134-.836 2.205-.908.07-.073.05-2.971-.043-6.441-.21-7.749-.632-24.598-.988-39.387-.265-11.029-.412-15.213-.538-15.345-.073-.076-4.866 1.261-4.991 1.392-.082.086.14 6.933 1.522 46.965.25 7.22.454 13.437.454 13.815 0 .377.068.687.15.687.084 0 1.087-.35 2.23-.778zm-32.855-1.182c-.052-.763-.214-4.828-.36-9.035-.257-7.418-1.117-30.981-1.61-44.13-.161-4.276-.314-6.539-.451-6.683-.115-.12-1.906-1.047-3.982-2.06L.928 26.27.87 27.528c-.031.691.115 5.99.324 11.773a117080.615 117080.615 0 0 1 1.477 40.918c.114 3.154.263 5.8.332 5.879.189.217 7.908 5.291 8.062 5.3.074.002.091-.618.04-1.38zm54.092-6.663l15.34-5.62-.112-2.295c-.062-1.263-.232-6.168-.378-10.9a21421.31 21421.31 0 0 0-1.09-34.416c-.148-4.522-.27-8.674-.27-9.226 0-.686-.074-1.004-.233-1.004-.297 0-32.9 8.761-33.002 8.869-.042.044.013 3.423.122 7.508.388 14.565.722 27.882 1.016 40.506.163 7.046.328 12.917.366 13.047.05.172.457.088 1.484-.306.78-.298 8.32-3.071 16.757-6.163zM85.52 71.71a3932.5 3932.5 0 0 1-.376-15.583c-.638-28.253-.86-37.67-.89-37.705-.017-.02-1.133.24-2.48.579l-2.45.616.05 1.907c.054 2.094.478 15.635.77 24.66l.45 13.863c.145 4.47.314 10.105.375 12.523.061 2.42.141 4.5.177 4.624.045.155.769-.028 2.279-.573l2.212-.8-.117-4.11zm7.093 1.597c3.347-1.225 6.196-2.322 6.33-2.438.206-.176.206-2.461 0-14.073-.134-7.624-.353-20.207-.487-27.961-.133-7.755-.28-14.139-.326-14.187-.046-.048-3.022.704-6.614 1.672l-6.53 1.759.035 3.154c.019 1.735.079 4.488.133 6.118.106 3.188.498 20.613.81 35.946.188 9.234.305 12.237.478 12.237.047 0 2.824-1.002 6.171-2.227zm-63.538-41.01c4.777-1.285 8.683-2.385 8.68-2.445-.008-.131-9.239-4.711-9.42-4.674-1.141.236-17.803 4.555-17.892 4.638-.139.13 9.245 4.792 9.674 4.806.15.005 4.182-1.041 8.958-2.325zm15.014-3.888c.029-.03-4.035-2.001-9.032-4.383l-9.084-4.329-2.2.519c-1.21.285-2.14.584-2.064.662.075.08 4.065 2.113 8.867 4.52l8.73 4.376 2.365-.656c1.301-.36 2.389-.68 2.418-.71zm-25.953-1.35c4.741-1.212 8.765-2.266 8.942-2.342.233-.1-.651-.621-3.228-1.9l-3.549-1.76-8.959 2.192c-4.928 1.206-9.103 2.257-9.279 2.335-.233.104.65.618 3.274 1.903 1.977.969 3.726 1.765 3.886 1.769.161.004 4.172-.985 8.913-2.197zm43.148-3.467c8.821-2.383 16.095-4.383 16.164-4.445.132-.12-8.452-4.309-8.707-4.25-.082.02-.15.416-.15.88 0 .465-.081.93-.181 1.034-.32.331-3.927 1.204-4.156 1.006-.115-.1-.76-.413-1.432-.696l-1.223-.514-8.236 2.122c-4.53 1.167-8.297 2.122-8.372 2.122-.075 0-.136.508-.136 1.13v1.13l-1.969.495c-1.082.272-2.098.495-2.257.495-.16 0-.943-.295-1.742-.654-1.327-.597-1.522-.636-2.245-.452-.435.111-.857.264-.937.34-.144.134 8.834 4.555 9.3 4.578.132.006 7.458-1.938 16.279-4.321zm-21.28-7.683l-.12-7.3-.973-.555-.972-.554.047 7.457.048 7.456 1 .445c.55.245 1.02.424 1.045.399.025-.026-.009-3.332-.075-7.348zm2.247 7.131c.682-.162 1.383-.34 1.558-.395.293-.092.318-.514.32-5.297.002-2.859.064-5.294.137-5.411.175-.28 19.785-5.31 20.141-5.167.234.094.274.845.274 5.183 0 5.806-.208 5.292 1.91 4.722l1.273-.343-.07-6.545c-.039-3.6-.12-6.784-.182-7.075l-.112-.53-13.369 3.276-13.369 3.275-.055 6.107c-.048 5.397.04 8.496.24 8.496.036 0 .623-.133 1.304-.296zm-4.854-3.58c0-2.436-.026-2.643-.318-2.549-.175.056-2.444.625-5.041 1.265-2.598.64-4.759 1.2-4.803 1.247-.044.046.199.207.54.358.34.15 1.956.912 3.59 1.693l2.971 1.42 1.53-.392 1.531-.392v-2.65zM53.42 17.98c4.503-1.157 8.224-2.103 8.269-2.103.045 0 .082-.986.082-2.192 0-2.043-.027-2.207-.389-2.41-.32-.18-1.813.13-8.458 1.76l-8.07 1.978v2.535c0 1.628.068 2.535.19 2.535.104 0 3.873-.946 8.376-2.103zm27.964.395c1.133-.303 2.092-.585 2.13-.626.053-.055-13.946-6.658-14.847-7.003-.092-.035-.166.651-.166 1.54v1.603l5.229 2.52c2.876 1.387 5.311 2.52 5.411 2.52.1 0 1.11-.25 2.243-.554zm9.515-2.817c3.394-.911 6.106-1.716 6.028-1.788-.078-.071-2.333-.931-5.01-1.91l-4.87-1.78-5.499 1.397c-3.024.768-5.616 1.461-5.76 1.54-.183.1.006.264.637.551.493.225 2.412 1.13 4.262 2.01 1.851.88 3.518 1.61 3.704 1.62.186.01 3.115-.728 6.508-1.64zm-26.863-3.362c-.071-2.55-.155-4.667-.187-4.706-.032-.038-.41.048-.84.192-.544.18-.78.362-.769.595.009.184.03 2.04.046 4.124l.03 3.789.591.31c.326.17.741.314.925.32.317.013.327-.205.204-4.624zm-10.884-.047c4.484-1.105 8.217-2.008 8.295-2.008.078 0 .142-.479.142-1.064 0-.926-.042-1.051-.319-.962-.175.057-3.869 1.012-8.21 2.121-4.34 1.11-7.961 2.063-8.048 2.12-.152.098-.232 1.8-.085 1.8.04 0 3.741-.903 8.225-2.007zm27.14-1.07c2.935-.751 5.268-1.43 5.185-1.507-.212-.198-6.955-2.681-7.28-2.681-.23 0-6.691 1.546-8.923 2.135-1.385.366-1.06.71 2.091 2.209 1.576.75 3.029 1.328 3.229 1.286a589.2 589.2 0 0 0 5.699-1.442zM53.586 4.874c7.153-1.743 13.128-3.217 13.279-3.276.177-.07-.047-.258-.642-.539l-.914-.432L51.99 3.805C44.664 5.553 38.67 7.047 38.67 7.125c0 .182 1.283.894 1.637.907.15.006 6.126-1.415 13.278-3.158z" fill="#464646"/><path style="marker:none" d="M35.367 27.813c-9.278-4.651-13.676-6.884-13.676-6.944 0-.053.352-.19.917-.357.774-.228 3.276-.82 3.385-.8.129.024 14.11 6.703 16.597 7.93 1.381.68 1.487.735 1.487.76 0 .044-1.372.446-3.9 1.142l-.875.241-3.935-1.972z" color="#000" fill="#fff" stroke="#000" stroke-width=".036" stroke-linecap="round" stroke-linejoin="round" overflow="visible"/><path style="marker:none" d="M19.937 34.596c-1.567-.615-9.334-4.517-9.474-4.76-.017-.03.321-.148.752-.264 3.881-1.039 12.964-3.39 15.89-4.115l1.255-.31.459.206c1.456.656 6.65 3.23 8.153 4.042.768.414.825.459.664.523-.865.348-17.278 4.766-17.554 4.725a.998.998 0 0 1-.145-.047zM8.535 29.008a85.46 85.46 0 0 1-2.134-.987c-2.79-1.33-4.372-2.19-4.372-2.374 0-.119 3.207-.935 15.205-3.87l3.069-.751 2.423 1.205c3.623 1.802 4.643 2.392 4.34 2.507-.563.214-13.405 3.506-16.36 4.194a99 99 0 0 0-1.402.332c-.058.017-.404-.098-.77-.256z" color="#000" fill="#fff" stroke="#000" stroke-width=".073" stroke-linecap="round" stroke-linejoin="round" overflow="visible"/><path style="marker:none" d="M21.86 98.533a187.39 187.39 0 0 0-2.176-1.394c-2.98-1.893-7-4.614-7.46-5.049l-.406-.385-.1-1.971c-.054-1.084-.322-8.204-.594-15.822-.273-7.618-.695-19.268-.94-25.89-.244-6.622-.473-13.253-.509-14.736L9.61 30.59l.437.183c1.068.45 9.877 4.7 9.998 4.824.069.071.153 2.227.826 21.055.982 27.486 1.441 40.94 1.414 41.437-.031.568-.118.658-.425.444zM9.741 90.605c-1.2-.756-4.488-2.92-6.11-4.02-.34-.231-.639-.492-.662-.58-.136-.507-.235-2.963-1.192-29.566C.853 30.724.727 26.426.896 26.314c.135-.09 7.474 3.543 7.782 3.852.244.245.357 2.754 1.312 29.096.406 11.222.83 22.705.943 25.517.113 2.813.191 5.464.174 5.892l-.03.777-1.336-.843zM44.925 19.815c-.088-.355-.075-4.875.014-4.875.042 0 1.544-.362 3.339-.804 5.002-1.233 11.22-2.697 12.04-2.834.886-.148 1.238-.073 1.367.292.148.42.123 4.15-.029 4.273-.068.055-.747.257-1.508.448-.762.19-4.407 1.11-8.1 2.043-3.694.933-6.794 1.696-6.89 1.696-.096 0-.2-.106-.233-.24zM39.415 7.699c-1.006-.56-.999-.57.877-1.058 2.264-.59 10.771-2.655 18.47-4.483 3.483-.828 6.38-1.521 6.439-1.542.149-.053 1.724.757 1.724.886 0 .14.566-.01-7.074 1.867-13.691 3.364-19.12 4.65-19.598 4.64-.158-.002-.535-.142-.838-.31z" color="#000" fill="#fff" stroke="#000" stroke-width=".103" stroke-linecap="round" stroke-linejoin="round" overflow="visible"/><path style="marker:none" d="M40.842 23.233c-.047-.078-.099-3.378-.116-7.334l-.03-7.191 13.378-3.276C61.433 3.63 67.475 2.18 67.502 2.209c.027.029.085.328.129.665.11.858.309 13.362.213 13.452-.043.041-.627.223-1.297.404-1.425.386-1.632.355-1.792-.266-.064-.246-.11-1.936-.117-4.294-.007-2.139-.04-4.2-.075-4.581l-.062-.693-.446.016c-1.082.038-19.672 4.805-19.796 5.076-.006.012-.041 2.324-.078 5.136-.048 3.549-.103 5.183-.183 5.337-.091.177-.368.28-1.381.516-.697.162-1.362.317-1.478.346-.117.028-.25-.012-.297-.09zM38.966 22.865l-.9-.376-.064-1.447c-.036-.796-.065-4.176-.065-7.51V7.467l.977.55.976.55.062 2.574c.033 1.415.09 4.719.125 7.34.053 4.024.042 4.768-.074 4.764-.075-.002-.542-.174-1.037-.38zM73.733 12.275c-1.583-.576-4.626-2.069-5.016-2.46-.255-.256-.268-.48-.036-.613.207-.119 4.605-1.227 7.468-1.882l2.051-.47.978.313c1.001.32 5.255 1.9 5.91 2.195.246.11.33.198.262.271-.175.19-4.015 1.242-10.21 2.798-.562.141-.616.135-1.407-.152zM83.694 16.97c-.577-.225-3.932-1.773-6.283-2.9-.985-.471-1.632-.84-1.632-.93 0-.195.31-.285 6.282-1.82l4.996-1.286 4.156 1.538c4.817 1.783 5.688 2.12 5.688 2.201 0 .25-11.677 3.425-12.488 3.397-.124-.004-.447-.095-.72-.2zM77.014 17.998a591.38 591.38 0 0 1-5.316-2.525l-3.19-1.535V12.41c0-1.229.027-1.538.142-1.585.209-.086 15.002 6.812 14.877 6.937-.056.056-2.188.666-3.148.9a39.84 39.84 0 0 0-1.09.277c-.082.026-1.106-.398-2.275-.942zM81.131 77.148c-.052-.178-.103-1.586-.358-9.948-.109-3.575-.352-11.342-.541-17.26-.803-25.17-.949-30.24-.873-30.317.044-.045.993-.303 2.109-.573 1.115-.27 2.198-.534 2.405-.586.269-.068.387-.06.41.028.018.068.196 7.292.396 16.052s.493 21.226.652 27.702c.159 6.475.29 12.19.29 12.701l.002.929-1.85.645c-2.103.733-2.578.846-2.642.627zM86.37 75.43c-.157-.55-.304-5.484-.648-21.761-.168-7.957-.427-19.329-.75-32.883l-.064-2.73 5.428-1.449c5.197-1.387 7.748-2.028 7.806-1.963.074.081.266 9.174.59 27.838.417 24.064.45 28.12.23 28.342-.162.164-1.224.602-3.792 1.567-1.952.733-8.664 3.172-8.728 3.172-.019 0-.05-.06-.072-.133zM47.006 89.867c-.025-.044-.074-.44-.11-.88-.081-1.031-1.328-50.627-1.409-56.103l-.062-4.165 1.425-.39c4.726-1.296 24.233-6.547 27.593-7.428 3.16-.828 4.033-1.022 4.13-.92.088.095.163 1.507.274 5.19.651 21.643 1.58 50.08 1.687 51.673l.06.908-5.77 2.113c-3.175 1.162-10.336 3.792-15.913 5.844-12.272 4.514-11.798 4.349-11.905 4.158zM41.559 91.305c-.03-.366-.124-2.919-.21-5.673-.084-2.754-.44-13.47-.791-23.813-.896-26.413-.932-27.545-.948-29.512l-.014-1.758.252-.135c.304-.164 3.758-1.157 4.363-1.254l.432-.07.058.73c.09 1.128.155 2.941.314 8.826.24 8.93 1.123 44.482 1.196 48.183l.067 3.434-.554.265c-.617.293-3.792 1.443-3.987 1.443-.08 0-.143-.235-.178-.666zM23.112 98.497c-.05-.103-.142-1.865-.205-3.916-.063-2.05-.18-5.479-.26-7.617-.64-17.218-1.643-46-1.687-48.424-.03-1.641-.017-3.035.028-3.099.106-.15 2.682-.885 9.48-2.704 5.733-1.535 8.257-2.178 8.306-2.117.043.055.234 4.203.406 8.825.264 7.122 1.8 52.79 1.775 52.822-.069.09-17.479 6.416-17.658 6.416-.052 0-.135-.084-.185-.186z" color="#000" fill="#fff" stroke="#000" stroke-width=".103" stroke-linecap="round" stroke-linejoin="round" overflow="visible"/><path style="marker:none" d="M43.972 27.521c-2.162-.951-7.698-3.716-8.098-4.044l-.232-.19.578-.197c.896-.305 1.31-.25 2.805.373.78.326 1.48.553 1.682.546.19-.006 1.192-.215 2.226-.464l1.88-.454.029-1.064c.015-.586.06-1.1.1-1.142.04-.043 2.52-.7 5.512-1.46 2.992-.761 6.723-1.716 8.293-2.122l2.853-.74 1.104.479c.607.263 1.234.55 1.392.638.337.188 1.121.085 2.73-.356 1.641-.45 1.622-.433 1.733-1.585.04-.41.09-.78.113-.823.06-.11.962.275 3.513 1.502 2.973 1.43 5.084 2.516 5.166 2.658.04.07-.08.157-.308.22l-2.303.653c-5.075 1.443-29.49 7.995-29.76 7.988-.038-.001-.491-.188-1.008-.416zM30.764 21.242c-1.904-.917-3.454-1.715-3.444-1.774.02-.112 1.45-.503 6.65-1.814 2.335-.588 3.234-.776 3.314-.69.071.077.12.986.14 2.647l.031 2.53-1.564.395c-.86.218-1.587.391-1.614.385-.028-.006-1.608-.762-3.513-1.679z" color="#000" fill="#fff" stroke="#000" stroke-width=".103" stroke-linecap="round" stroke-linejoin="round" overflow="visible"/><path style="marker:none" d="M62.877 16.5l-.616-.315-.027-3.974c-.026-3.94-.025-3.977.186-4.208.273-.3 1.315-.642 1.417-.464.128.224.365 8.277.26 8.878-.059.341-.105.396-.336.396-.147 0-.545-.141-.884-.314z" color="#000" fill="#b3b3b3" stroke="#000" stroke-width=".103" stroke-linecap="round" stroke-linejoin="round" overflow="visible"/><path style="marker:none" d="M40.918 23.2c-.062-.107-.11-3.534-.127-9.098l-.016-5.352 5.169-1.266c13.034-3.193 21.47-5.225 21.51-5.183.155.163.266 3.675.337 10.715l.033 3.259-.332.11c-.489.163-1.697.475-1.996.516-.358.05-.528-.035-.633-.315-.1-.267-.164-2.182-.17-5.123-.004-1.947-.068-4.213-.126-4.463-.032-.136-.05-.145-.313-.145-.154 0-.48.038-.725.084-2.351.441-16.965 4.19-18.977 4.867l-.329.11-.029.972c-.016.535-.053 2.53-.083 4.435-.05 3.326-.104 4.91-.17 5.093-.06.17-.246.233-1.694.582-1.18.284-1.274.298-1.33.202zM39.464 22.995a28.48 28.48 0 0 1-.872-.352l-.451-.192-.032-.3c-.085-.791-.177-14.55-.097-14.55.017 0 .43.222.916.493.632.352.891.523.906.599.024.123.103 4.477.178 9.829.051 3.706.037 4.635-.071 4.633-.031 0-.246-.073-.477-.16zM39.71 7.767c-.415-.194-.89-.483-.89-.542 0-.077.162-.147.725-.311 1.124-.33 9.91-2.468 23.335-5.681l2.368-.567.23.092c.4.161 1.4.728 1.357.77-.057.057-.825.256-4.295 1.113-10.72 2.648-19.266 4.705-21.394 5.15-.803.167-1.032.164-1.435-.024z" color="#000" fill="#b3b3b3" stroke="#000" stroke-width=".051" stroke-linecap="round" stroke-linejoin="round" overflow="visible"/><path style="marker:none" d="M63.352 16.639a9.495 9.495 0 0 1-.674-.298l-.349-.173-.037-2.849a177.64 177.64 0 0 1-.015-3.937c.025-1.279.025-1.28.55-1.558.313-.166.893-.329.95-.267.09.097.22 3.407.252 6.436.029 2.682.025 2.73-.229 2.757-.067.008-.269-.043-.448-.111z" color="#000" fill="#b3b3b3" stroke="#000" stroke-width=".051" stroke-linecap="round" stroke-linejoin="round" overflow="visible"/><path style="marker:none" d="M23.189 98.306c-.124-.583-2.154-58.283-2.154-61.22v-1.61l1.074-.339c3.078-.971 16.464-4.496 16.572-4.363.151.184 2.267 61.279 2.128 61.418-.125.125-9.763 3.664-15.652 5.748-1.883.666-1.904.67-1.968.366zM47.014 89.156c-.133-1.234-1.461-54.266-1.461-58.332v-2.078l13.607-3.66c16.027-4.311 18.63-4.995 19.034-4.996.466 0 .367-1.994 1.153 23.269.226 7.275.575 17.954.775 23.73.205 5.902.312 10.552.245 10.614-.066.06-3.735 1.433-8.154 3.05L56.11 86.652c-4.438 1.626-8.283 3.016-8.544 3.088l-.475.131-.077-.714zM86.355 74.409c-.209-2.5-1.396-56.111-1.245-56.254.12-.113 6.482-1.831 10.76-2.906l2.105-.53.086.92c.175 1.886.95 44.135.952 51.924.001 2.696-.02 2.965-.259 3.203-.339.339-2.486 1.166-10.838 4.175l-1.472.53-.089-1.062zM80.133 15.247c-2.119-.983-3.947-1.866-4.063-1.962-.184-.153-.17-.19.113-.297.33-.124 5.374-1.469 8.925-2.38l1.953-.5 4.119 1.53c5.086 1.888 5.566 2.09 5.307 2.235-.698.391-11.273 3.172-12.033 3.165-.301-.003-1.842-.642-4.32-1.791zM73.072 11.92c-1.722-.699-4.005-1.869-4.314-2.21-.225-.25-.224-.27.016-.397.359-.19 2.368-.72 6.129-1.616l3.244-.774.911.294c.713.23 4.408 1.58 5.863 2.144.44.17.257.294-.97.658-1.28.381-8.4 2.235-9.106 2.371-.3.058-.795-.074-1.773-.47zM41.257 26.139c-1.942-.936-3.965-1.944-4.494-2.24l-.963-.54.409-.174c.597-.255 1.213-.224 2.108.104.436.16 1.152.407 1.59.55l.796.26 2.043-.455 2.043-.454.117-1.1c.064-.605.129-1.112.143-1.127.054-.057 3.828-1.053 10.092-2.663l6.474-1.664 1.368.619c.753.34 1.485.618 1.629.618.566-.001 3.392-.801 3.649-1.033.183-.166.302-.514.364-1.065.085-.749.118-.81.386-.733.572.165 8.12 3.933 8.12 4.054 0 .161-31.686 8.762-32.225 8.747-.064-.002-1.706-.769-3.649-1.704zM44.997 17.458c0-1.371.037-2.493.082-2.493.044 0 2.522-.588 5.505-1.307 9.46-2.278 10.732-2.531 10.95-2.179.162.262.25 2.012.159 3.118l-.1 1.185-.645.212c-.764.25-15.554 3.957-15.79 3.957-.117 0-.161-.685-.161-2.493zM18.659 33.947c-1.729-.793-5.938-2.894-7.17-3.58-.752-.417-.848-.512-.623-.607.244-.104 16.212-4.254 17.164-4.462.351-.076 1.13.265 5.055 2.217l4.64 2.307-.623.19c-1.836.563-10.32 2.855-16.573 4.478-.367.095-.67.007-1.87-.543zM8.016 28.691c-1.402-.627-5.04-2.445-5.509-2.752-.3-.196-.308-.229-.092-.35.131-.073 4.2-1.117 9.04-2.319l8.803-2.185 2.847 1.434c3.357 1.69 4.042 2.091 3.747 2.197-.67.24-15.41 4.006-17.382 4.44-.152.034-.807-.175-1.454-.465zM30.87 21.188c-2.385-1.174-3.332-1.705-3.186-1.783.209-.113 5.566-1.506 8.064-2.097.741-.175 1.392-.273 1.448-.218.055.055.126 1.209.158 2.563l.058 2.463-1.436.323a45.37 45.37 0 0 0-1.575.372c-.076.026-1.665-.704-3.532-1.623zM19.492 96.919c-3.681-2.397-5.497-3.62-6.56-4.422l-.969-.73-.098-1.04c-.054-.57-.194-3.718-.312-6.994-.117-3.275-.491-13.653-.832-23.06-.973-26.918-1.07-29.8-1-29.87.067-.067 2.547 1.083 7.456 3.457l2.721 1.315.084.533c.136.856 2.161 58.161 2.161 61.134 0 .683-.055 1.242-.123 1.242s-1.205-.704-2.528-1.565zM7.185 88.847c-2.02-1.332-3.784-2.536-3.923-2.674-.32-.318-.368-1.189-.925-16.429C1.044 34.31.812 26.457 1.056 26.464c.302.009 6.89 3.314 7.346 3.686.292.238.327.422.45 2.336.13 2.049.846 20.619 1.648 42.798l.495 13.678c.046 1.276.034 2.317-.028 2.314-.062-.004-1.764-1.097-3.782-2.429z" color="#000" fill="#e9c6af" stroke="#000" stroke-width=".139" stroke-linecap="round" stroke-linejoin="round" overflow="visible"/><path style="marker:none" d="M41.633 91.137c-.065-.852-.014.601-.796-22.893-.349-10.477-.725-21.694-.837-24.926-.112-3.232-.212-7.436-.221-9.343l-.018-3.466.881-.281c.808-.258 3.74-1.06 3.88-1.061.084-.001.171 1.465.284 4.75.129 3.746 1.37 53.784 1.37 55.219v1.113l-.27.123c-.838.382-3.873 1.475-4.098 1.475-.08 0-.14-.244-.175-.71zM31.627 25.895c-4.204-2.12-8.147-4.123-8.761-4.45-1.114-.59-1.117-.593-.828-.705.41-.157 2.296-.649 3.2-.833L26 19.75l3.698 1.753c6.023 2.855 13.776 6.594 13.976 6.74.102.075.164.159.136.186-.04.04-4.445 1.329-4.519 1.322-.01 0-3.46-1.737-7.664-3.857zM79.083 18.814c-.737-.264-7.409-3.385-9.681-4.527l-.798-.401v-1.468c0-1.025.033-1.468.11-1.468.37 0 12.125 5.441 14.381 6.657l.241.13-.24.09c-.271.102-3.773 1.06-3.83 1.048a2.654 2.654 0 0 1-.183-.06zM81.197 76.985c-.048-.154-.843-24.863-1.473-45.762-.132-4.39-.266-8.766-.298-9.724l-.058-1.741.323-.134c.512-.212 4.395-1.158 4.465-1.088.07.07.2 5.117.798 30.708.218 9.345.441 18.777.495 20.959.054 2.181.098 4.345.098 4.809v.843l-1.983.652c-1.09.358-2.057.651-2.148.65-.09 0-.189-.078-.219-.172z" color="#000" fill="#ac9d93" stroke="#000" stroke-width=".098" stroke-linecap="round" stroke-linejoin="round" overflow="visible"/></svg>