<svg xmlns="http://www.w3.org/2000/svg" width="120" height="90"><path d="M23.012 89.725c-1.784-.588-5.173-2.38-7.774-4.11C9.814 82.005 2.4 75.59 1.35 73.597-.886 69.357-.336 61.81 2.938 51.79c1.141-3.492 1.44-4.788 1.64-7.097.395-4.567 2.078-9.271 3.986-11.144 1.425-1.399 7.99-3.47 13.781-4.348 2.137-.324 2.87-.542 3.374-1.005.76-.697 1.823-1.129 2.787-1.131.906-.002 4.197-2.403 8.038-5.863 4.58-4.125 6.232-5.941 7.83-8.614.81-1.353 1.786-2.825 2.17-3.272.383-.446 1.045-1.502 1.47-2.346.621-1.233.942-1.589 1.63-1.807.632-.2 1.114-.673 1.852-1.819.814-1.264 1.178-1.598 1.98-1.82C54.67 1.194 64.477.3 69.312.079c3.254-.148 3.595-.12 4.656.384 1.223.581 1.971 1.613 2.54 3.504.27.895.486 1.128 1.379 1.478 3.833 1.504 8.331 6.021 11.374 11.421.535.949.987 1.747 1.005 1.773.018.026.893.224 1.945.44 2.807.574 5.274 1.578 7.472 3.04 1.07.713 2.426 1.435 3.015 1.606 1.534.446 3.417 1.768 4.397 3.089.465.626 1.375 1.81 2.022 2.632 6.072 7.714 11.863 24.486 10.743 31.117-.365 2.161-1.28 4.076-2.538 5.311-1.287 1.263-3.796 2.425-5.639 2.612-1.222.124-1.5.249-1.793.806a4.758 4.758 0 0 1-.868 1.121c-1.272 1.13-29.011 8.35-42.521 11.066-6.618 1.331-16.977 3.843-24.408 5.92-5.85 1.634-7.856 1.949-8.904 1.398-.362-.19-.995-.087-2.483.403-2.424.799-6.102 1.05-7.694.526zm7.217-1.855c.993-.354 2.296-.67 2.896-.7 2.009-.104 2.13-.39 2.13-4.996 0-3.912-.018-4.053-.736-5.464-1.865-3.66-3.8-11.28-5.314-20.928-1.146-7.3-2.387-11.282-4.53-14.538-2.601-3.949-6.202-5.83-11.166-5.83-2.178 0-4.265.54-5.177 1.338-.954.834-1.889 4.02-2.333 7.948-.29 2.57-.628 4.102-1.4 6.356C2.221 57.984 1.383 62.49 1.54 67.487c.147 4.708.43 5.322 4.005 8.672 6.05 5.67 13.692 10.896 17.982 12.299 1.447.473 4.473.207 6.701-.588zm7.922-1.164c.757-.957 1.965-4.059 2.751-7.06 1.765-6.746 3.073-18.116 3.534-30.737l.175-4.774-1.65-.977c-1.162-.69-3.435-2.747-7.705-6.978-3.332-3.3-6.31-6.133-6.62-6.293-.671-.347-1.942-.383-2.286-.064-.134.125-1.287.36-2.56.523-1.274.163-2.361.34-2.415.393-.055.053.234.168.64.255 5.143 1.1 8.028 3.108 10.028 6.98 1.227 2.375 1.822 4.964 2.408 10.47.719 6.748.766 7.324 1.19 14.548.21 3.548.5 8.216.645 10.373.416 6.158.45 13.064.065 13.445-.555.55-.354.793.516.624.46-.09 1.038-.417 1.284-.728zm4.141-.773c2.284-.654 2.514-.89 3.792-3.89 4.145-9.735 6.143-28.738 5.807-55.225-.144-11.335-.392-14.127-1.42-15.972l-.707-1.27-.717.836c-.899 1.048-1.485 2.38-2.045 4.641-.361 1.46-.477 3.935-.666 14.29-.368 20.083-.903 30.244-2.077 39.468-.913 7.174-2.265 13.115-3.717 16.338-.34.755-.538 1.37-.44 1.366.1-.004 1.085-.265 2.19-.582zm11.909-3.07c3.686-.896 9.543-2.21 13.016-2.922 12.265-2.512 32.587-7.713 33.164-8.487.47-.631.693-2.965.516-5.407-.3-4.152-1.808-9.975-4.32-16.684-1.307-3.491-4.298-10.634-4.593-10.967-.088-.1-.912.05-1.831.335-1.31.406-2.839.568-7.084.75-6.973.3-12.976.91-14.798 1.502-.792.257-2.542.89-3.889 1.404-2.237.856-2.76.954-6.057 1.133-1.985.108-3.986.332-4.446.498l-.838.301v2.067c0 4.326-.868 14.742-1.69 20.275-.968 6.524-2.599 12.86-4.223 16.412-.785 1.715-.787 1.736-.212 1.577.32-.088 3.599-.893 7.285-1.788zM34.644 68.86c-.223-3.297-.528-7.988-.678-10.423-.376-6.134-1.22-13.638-1.811-16.125-1.655-6.953-6.148-10.17-14.223-10.183-2.506-.004-2.992.077-5.274.878-1.527.535-2.771 1.144-3.168 1.55l-.654.668.644-.168c5.267-1.368 10.447-.187 13.855 3.158 3.688 3.62 5.295 8.06 7.154 19.767.37 2.325 1.07 5.911 1.558 7.97 1.026 4.325 2.708 9.715 2.883 9.233.066-.18-.063-3.027-.286-6.325zm71.472 1.077c.511-.48.463-4.905-.086-7.831-1.683-8.981-7.028-22.749-15.225-39.216-3.768-7.567-6.157-11.03-9.47-13.719-1.283-1.041-3.787-2.6-4.178-2.6-.099 0-.143.313-.098.696.058.495.247.719.653.776 1.128.157 2.074 1.647 4.446 7.004.74 1.67 2.83 5.94 4.647 9.488 8.721 17.036 13.795 30.038 15.223 39.011.173 1.086.26 3.224.197 4.837l-.112 2.89 1.82-.496c1-.274 1.983-.652 2.183-.84zm2.575-1.465c.905-2.816 2.167-9.348 2.181-11.3.02-2.712-.509-11.115-.869-13.789-1.375-10.226-1.86-12.91-2.443-13.535a7.522 7.522 0 0 1-.987-1.407c-.805-1.569-3.691-3.642-5.081-3.651-.217 0-1.029-.475-1.804-1.053-1.76-1.31-4.605-2.626-6.727-3.112-.892-.204-1.66-.332-1.709-.285-.238.234 1.128 2.414 1.662 2.653 1.062.475 3.198 2.62 3.833 3.85.759 1.471 1.17 4.013.907 5.607-.166 1.005-.098 1.427.402 2.487 1.345 2.848 4.78 11.495 6.122 15.409 2.565 7.482 3.927 13.874 3.72 17.465-.073 1.27-.018 1.669.219 1.58.174-.066.432-.48.574-.92zm5.622-2.22c1.868-.879 2.956-2.057 3.715-4.02.479-1.237.523-1.756.4-4.68-.206-4.869-1.79-10.655-4.742-17.331-1.391-3.146-3.333-6.831-3.6-6.831-.076 0-.07.37.013.822.6 3.254 1.521 11.197 1.74 14.99l.396 6.958c.119 2.113.023 2.911-.79 6.604-.509 2.31-.925 4.284-.925 4.387 0 .367 2.222-.16 3.793-.899zM55.589 42.756c.764-.141 2.388-.259 3.609-.26 2.284-.005 2.72-.118 8.063-2.115 2.128-.795 6.464-1.302 15.293-1.787 7.233-.397 9.042-.76 8.75-1.751-.387-1.32-8.918-17.874-9.21-17.874-.91 0-4.884.562-6.242.882-.85.201-4.794.934-8.764 1.629-6.729 1.178-13.734 2.61-13.862 2.832-.031.053-.022 4.344.02 9.535.07 8.755.108 9.428.516 9.302.241-.075 1.063-.251 1.827-.393zm-10.743-8.164c.063-4.626.069-8.466.014-8.533-.055-.067-2.325.327-5.045.874-2.79.562-6.462 1.113-8.426 1.265l-3.48.27.903.472c.496.26 3.628 3.173 6.96 6.475 5.189 5.142 8.02 7.59 8.777 7.59.1 0 .234-3.786.297-8.413zm51.932-4.353c-.085-.9-.404-2.123-.708-2.72-.528-1.037-2.467-3.236-2.852-3.236-.1 0 .644 1.707 1.655 3.795 1.011 2.087 1.888 3.795 1.95 3.795.06 0 .04-.736-.045-1.634zm-62.863-4.33c.495-.75.516-.856.13-.643-.256.141-.813.543-1.238.892l-.773.636.644.006c.459.005.815-.253 1.237-.892zm9.653-1.127l1.482-.282V18.457l-1.966 1.534c-1.081.844-2.676 2.006-3.544 2.582-1.587 1.055-4.284 3.403-4.284 3.73 0 .096 1.537-.144 3.415-.532 1.878-.389 4.082-.834 4.897-.99zm15.272-3.134c2.41-.493 5.54-1.098 6.957-1.346l2.575-.45.445-2.276c.245-1.251.524-3.367.62-4.701.143-2.024.109-2.45-.212-2.57-.553-.21-16.048 1.362-16.349 1.658-.21.207-.192.779.15 4.476.147 1.6.27 3.69.27 4.645.002 1.672.024 1.73.583 1.597.318-.076 2.551-.541 4.961-1.033zM41.313 19.59c3.832-2.934 3.98-3.1 4.395-4.923.206-.904.488-1.9.626-2.213.473-1.07.085-.57-1.275 1.644-.999 1.626-2.156 2.984-4.357 5.113-3.1 2.997-2.939 3.097.61.379zm31.43-.45c1.37-.28 1.55-.39 1.735-1.064.283-1.037 1.115-7.923.974-8.055-.064-.058-1.101-.033-2.306.056l-2.191.163-.164 2.53c-.148 2.291-.552 5.109-.898 6.262-.163.542.586.57 2.85.108zm6.475-1.224c1.339-.162 2.434-.39 2.434-.508 0-.333-2.534-5.775-3.25-6.978-.558-.94-1.39-1.46-1.39-.87 0 .112-.23 2.02-.512 4.237-.282 2.218-.514 4.118-.516 4.223-.004.253.374.24 3.234-.104zm-17.059-8.43c3.385-.35 7.213-.646 8.506-.656 3.628-.03 4.6-.233 4.811-1.007.272-1-.207-3.741-.855-4.894-.958-1.707-1.569-1.802-8.36-1.306-9.53.695-12.46 1.051-12.98 1.578-.25.253-.808 1.112-1.241 1.907l-.788 1.446.634 1.337c.349.735.635 1.517.637 1.737 0 .22.09.49.196.597.21.213.387.2 9.44-.739zM49.303 8.09c.088-.139.037-.253-.113-.253s-.273.114-.273.253c0 .14.05.253.113.253s.186-.114.273-.253z" fill="#464646"/><path style="marker:none" d="M52.605 10.042c-.053-.18-.355-.96-.67-1.732-.315-.773-.581-1.537-.592-1.7-.028-.427 1.584-3.175 2.038-3.474.745-.49 3.974-.895 11.693-1.469 7.394-.55 8.645-.402 9.495 1.118.747 1.337 1.27 4.609.845 5.279-.298.468-1.371.66-4.629.824-3.423.173-6.897.465-13.287 1.119-4.433.453-4.768.455-4.893.035z" color="#000" fill="#faa" stroke="#000" stroke-width=".187" stroke-linecap="round" stroke-linejoin="round" overflow="visible"/><path style="marker:none" d="M40.168 86.225c0-.185.258-.96.574-1.72 1.101-2.652 2.377-8.14 3.152-13.556 1.31-9.155 1.839-18.161 2.36-40.168.346-14.588.45-15.783 1.611-18.49.385-.898 1.633-2.67 1.88-2.67.325 0 1.323 2.484 1.572 3.91.982 5.622.764 31.969-.368 44.497-1.015 11.238-3.003 20.494-5.448 25.374-.886 1.767-1.267 2.033-4 2.79-1.271.353-1.333.354-1.333.033zM102.105 67.355c-.07-3.033-.179-4.311-.494-5.769-1.996-9.236-5.582-18.218-14.617-36.61a4106.876 4106.876 0 0 1-6.26-12.784c-1.246-2.574-2.315-4.07-2.91-4.07-.466 0-.765-.38-.765-.973 0-.653.21-.656 1.294-.022 5.265 3.082 7.676 6.205 12.986 16.825 8.132 16.264 13.844 31.43 14.94 39.668.117.876.184 2.617.15 3.868-.056 2.012-.106 2.306-.435 2.547-.365.266-2.055.84-3.212 1.089l-.587.127-.09-3.896z" color="#000" fill="#b3b3b3" stroke="#000" stroke-width=".187" stroke-linecap="round" stroke-linejoin="round" overflow="visible"/><path style="marker:none" d="M38.557 21.392c0-.056.87-.965 1.935-2.02 2.44-2.42 3.556-3.749 4.865-5.791.976-1.525 1.293-1.93 1.084-1.39-.05.127-.298 1.006-.552 1.952-.26.965-.604 1.923-.783 2.18-.43.616-1.695 1.698-4.2 3.592-1.955 1.478-2.349 1.726-2.349 1.477z" color="#000" fill="#b3b3b3" stroke="#000" stroke-width=".132" stroke-linecap="round" stroke-linejoin="round" overflow="visible"/><path style="marker:none" d="M70.144 19.434c-.307-.1-.317-.156-.15-.853.365-1.529.7-4.285.866-7.108.028-.477.062-.952.075-1.057l.023-.191 1.134-.08c2.584-.185 3.199-.205 3.328-.11.075.055.077.108.03.667-.17 2.027-.686 6.058-.911 7.126-.175.83-.346.986-1.34 1.222-1.246.295-2.747.484-3.055.384zM32.057 26.79c.049-.14 1.79-1.45 2.112-1.59.113-.048.13-.045.13.026-.001.155-.44.82-.793 1.197-.27.29-.475.37-1.005.396-.32.016-.457.007-.444-.028z" color="#000" fill="#b3b3b3" stroke="#000" stroke-width=".047" stroke-linecap="round" stroke-linejoin="round" overflow="visible"/><path style="marker:none" d="M22.996 88.3c-4.517-1.683-12.271-7.149-18.057-12.728-2.724-2.628-3.086-3.356-3.352-6.749-.37-4.705.297-9.264 2.276-15.58 1.44-4.595 1.572-5.134 2.06-8.404.75-5.01 1.472-7.355 2.51-8.147 1.312-1 3.867-1.454 6.716-1.192 3.016.278 5.222 1.226 7.275 3.126 2.615 2.422 4.295 5.677 5.58 10.808.207.828.842 4.115 1.412 7.303C31.32 67.38 32.58 72.314 34.44 76.393l.769 1.685.079 2.849c.145 5.284-.107 6.065-2.035 6.295-.562.067-1.907.382-2.988.7-2.642.778-5.76.94-7.27.377zM110.547 67.17c-.041-.077.209-1.447.556-3.043 1.175-5.398 1.209-5.826.895-11.219-.39-6.698-.95-12.325-1.69-16.964-.147-.927-.268-1.885-.268-2.13-.001-.846.52-.057 2.134 3.228 2.854 5.807 4.653 10.77 5.669 15.637.418 2.001.496 2.87.512 5.643.017 3.168 0 3.312-.476 4.33-.977 2.083-2.578 3.404-5.087 4.197-1.51.477-2.114.563-2.245.321z" color="#000" fill="#faa" stroke="#000" stroke-width=".187" stroke-linecap="round" stroke-linejoin="round" overflow="visible"/><path style="marker:none" d="M107.917 69.246c-.069-.07-.125-1.072-.125-2.229 0-3.697-1.07-8.668-3.345-15.551-1.35-4.086-4.14-11.303-5.854-15.148l-1.003-2.247.053-1.799c.058-1.991-.281-4.012-.866-5.156-.597-1.165-1.868-2.602-3.106-3.511-.633-.466-1.326-1.082-1.539-1.37-.409-.553-1.007-1.643-1.007-1.836 0-.195 1.714.126 3.14.589 1.678.544 3.51 1.456 5.393 2.686.79.516 1.785 1.03 2.21 1.144 2.642.704 5.73 4.043 6.371 6.889 1.274 5.65 2.537 17.429 2.592 24.18.025 3.125-.222 4.873-1.39 9.818-.763 3.227-1.086 3.979-1.524 3.54zM46.557 84.542c0-.1.338-1.031.75-2.068 2.324-5.83 3.904-13.438 4.872-23.444.443-4.578.742-9.396.743-11.976l.002-2.748.608-.185c1.046-.318 1.47-.377 4.26-.592 3.777-.292 4.557-.454 7.686-1.59 4.452-1.615 5.482-1.758 19-2.626 2.93-.188 4.756-.396 5.711-.65.773-.204 1.499-.373 1.614-.375.25-.004.885 1.39 3.11 6.832 4.274 10.457 6.45 19.024 6.039 23.778-.19 2.205-.405 2.6-1.657 3.07-3.136 1.172-17.27 4.734-29.466 7.426-10.03 2.213-13.802 3.077-19.246 4.412-4.142 1.015-4.026.994-4.026.736zM36.163 87.114c.59-1.82.464-7.79-.472-22.51-.7-10.995-1.416-18.474-2.08-21.717-1.323-6.455-4.59-10.042-10.544-11.582-.882-.228-1.604-.468-1.604-.534s.914-.26 2.03-.432c1.118-.172 2.415-.428 2.883-.57 1.107-.332 1.996-.13 2.905.66.387.337 3.02 2.845 5.853 5.574 5.607 5.403 7.065 6.688 8.577 7.556l.993.57-.108 2.18c-1.009 20.28-2.235 29.847-4.706 36.702-1.148 3.185-2.154 4.524-3.401 4.524-.395 0-.443-.061-.326-.421z" color="#000" fill="#faa" stroke="#000" stroke-width=".187" stroke-linecap="round" stroke-linejoin="round" overflow="visible"/><path style="marker:none" d="M34.667 74.941a89.609 89.609 0 0 0-.466-1.264c-1.173-3.128-2.547-8.92-3.835-16.166-1.564-8.799-2.34-11.765-3.862-14.786-2.042-4.049-4.916-6.52-8.915-7.662-1.785-.51-5.387-.562-7.408-.106-.695.157-1.264.216-1.264.13 0-.303 1.267-1.113 2.635-1.683 2.29-.953 3.933-1.3 6.15-1.295 4.897.009 8.32 1.09 10.802 3.412 3.588 3.356 4.492 7.583 5.78 27.014.578 8.723.761 12.64.592 12.64-.07 0-.165-.105-.209-.234zM53.505 42.988c-.089-.138-.187-4.401-.218-9.474l-.057-9.224.431-.161c.844-.316 7.377-1.598 19.72-3.869 4.686-.862 8.5-1.42 8.743-1.278.507.295 9.14 17.259 9.14 17.96 0 .957-1.368 1.204-9.831 1.771-10.936.733-11.603.843-17.51 2.895-1.602.557-2.398.717-4.306.863-2.546.196-4.918.475-5.55.654-.24.068-.466.012-.562-.137z" color="#000" fill="#faa" stroke="#000" stroke-width=".187" stroke-linecap="round" stroke-linejoin="round" overflow="visible"/><path style="marker:none" d="M95.161 28.645c-1.713-3.43-2.104-4.353-1.843-4.353.32 0 2.271 2.34 2.724 3.267.52 1.063.895 2.815.798 3.718-.057.525-.265.199-1.679-2.632z" color="#000" fill="#ff8080" stroke="#000" stroke-width=".187" stroke-linecap="round" stroke-linejoin="round" overflow="visible"/><path style="marker:none" d="M42.657 41.832c-.825-.653-3.646-3.25-6.268-5.772-5.81-5.588-6.812-6.512-7.736-7.131l-.721-.483 1.283-.116c.705-.063 2.42-.246 3.81-.407 2.12-.244 4.054-.56 11.283-1.845l.515-.091-.001 6.97c-.001 7.534-.115 10.061-.453 10.061-.116 0-.887-.534-1.712-1.186z" color="#000" fill="#faa" stroke="#000" stroke-width=".187" stroke-linecap="round" stroke-linejoin="round" overflow="visible"/></svg>