<svg xmlns="http://www.w3.org/2000/svg" width="75" height="70"><path d="M37.74 69.397c-.414-.038-3.04-.336-5.835-.662-2.795-.325-6.437-.635-8.093-.688-1.78-.056-3.32-.202-3.765-.357-.423-.146-1.946-.302-3.482-.356-2.589-.09-4.501-.392-7.593-1.197-2.077-.54-7.93-2.428-8.118-2.618-.204-.205-.37-3.746-.36-7.718.007-3.027.283-5.188.96-7.523.264-.915.546-2.11.624-2.656.095-.659.402-1.402.911-2.207 1.131-1.788 1.267-2.339.851-3.439-.464-1.226-.392-2.963.305-7.317.779-4.87.798-4.675-.52-5.382-1.44-.772-1.728-1.389-1.867-4-.183-3.423.536-6.445 2.785-11.707a971.676 971.676 0 0 0 1.801-4.243c.771-1.835.642-1.769 4.445-2.28 4.28-.577 8.534-.394 17.728.762 8.28 1.04 12.274 1.263 16.165.9 2.675-.25 6.152.287 9.434 1.457 1.035.37 2.01.709 2.164.755.163.05 1.24-.743 2.541-1.867a132.206 132.206 0 0 1 3.953-3.28C64.562 2.373 67.477.493 67.862.493c.125 0 .338.404.473.899.142.523 1.046 2.119 2.163 3.82 1.684 2.563 3.424 5.672 3.252 5.812-.032.026-.85.59-1.816 1.253-2.836 1.945-9.457 6.8-13.902 10.193l-.601.459.293 1.013c.926 3.204 2.481 5.254 7.591 10.008 2.689 2.502 4.285 4.233 5.295 5.74.984 1.47 2.245 4.634 2.451 6.152.101.744.437 2.116.746 3.048 1.019 3.074.933 5.407-.31 8.458-.702 1.72-1.378 2.535-2.703 3.261-2.36 1.293-5.392 1.687-8.41 1.094-1.126-.221-4.783-1.39-6.785-2.167-.115-.045-1.124.754-2.24 1.776a79.732 79.732 0 0 1-7.713 6.2c-1.035.731-1.993 1.484-2.128 1.674-.217.304-.536.342-2.636.313-1.314-.018-2.728-.064-3.142-.102zm4.9-2.718c-.349-3.599-.435-6.513-.372-12.521.038-3.617.122-7.315.187-8.22l.554-7.638c.24-3.297.423-6.006.407-6.02-.016-.012-.495.047-1.064.132-.57.085-3.601.161-6.738.169l-5.702.014-.472.485c-.58.597-.94 1.45-1.114 2.655-.109.749-.241.983-.724 1.282-.934.578-1.83.644-4.195.308-1.213-.173-2.412-.273-2.664-.224-.577.114-1.166-.459-1.166-1.134 0-.792-.338-1.283-.783-1.138-.31.1-.365.055-.285-.233.054-.196.152-.631.217-.966.151-.772.662-1.276 1.043-1.028.443.288.591.218.527-.249-.056-.399-.192-.446-1.64-.57-1.842-.156-3.386-.608-6.537-1.913-2.455-1.016-4.078-1.504-5.253-1.58l-.738-.046-.407 1.577c-.67 2.598-1.014 5.607-1.014 8.886 0 2.56.05 3.1.311 3.397.457.519.6.439.666-.372.04-.489.15-.725.34-.725.204 0 .299.257.34.919.054.858.091.918.574.918.482 0 .511-.046.438-.695-.068-.597-.03-.686.273-.624.273.055.352.244.352.84 0 .696.05.775.517.83.506.06.705-.21.33-.447-.247-.157-.243-.677.005-.677.106 0 .271.213.368.473.232.628.943 1.085 1.892 1.215l.773.107-.128-.704c-.07-.387-.062-.704.019-.704.325 0 .835.667.835 1.093 0 .533.46.604 1.07.166.342-.247.491-.25 1.03-.029.346.143.799.322 1.006.398.367.135.367.143.019.344-.197.114-1.086.249-1.977.3-1.847.106-3.916-.232-6.956-1.136-1.072-.319-1.972-.553-2-.52-.559.652-1.99 4.587-2.449 6.732-.492 2.3-.585 7.07-.18 9.186.184.957.358 2.263.387 2.9.03.639.059 1.226.064 1.306.012.163.835.2.986.045.053-.054-.017-.552-.157-1.105-.3-1.191-.328-2.63-.065-3.342.221-.597.492-.557 1.002.145.35.481.352.543.059 1.297-.475 1.22-.406 2.377.185 3.099.695.848 1.683 1.312 3.71 1.74.964.204 1.959.458 2.21.564.25.107 1.981.29 3.844.406 2.988.186 11.535.8 14.682 1.053 1.695.136 11.13.75 13.148.856l.536.029-.126-1.306zM7.342 64.032c0-.166.085-.302.188-.302.104 0 .188.082.188.182 0 .1-.084.236-.188.302-.103.065-.188-.017-.188-.182zm-1.882-1.74c0-.486.075-.883.168-.883.255 0 .369.449.26 1.03-.163.878-.428.786-.428-.148zM12.8 46.97c-2.158-.35-3.225-.699-3.514-1.152-.168-.263-.42-.434-.56-.379-.14.056-.255.067-.255.026 0-.041-.051-.213-.114-.38-.185-.497.341-.36 1.105.286.385.326.782.54.883.476.101-.064.504.05.896.254.392.204 1.009.435 1.371.513.754.163 1.43.488.941.453a11.024 11.024 0 0 1-.752-.097zM7.354 44.8c-.171-.33-.159-.408.065-.408.373 0 .578.372.34.617-.131.134-.26.067-.405-.21zm38.674 21.574c2.294-1.87 6.364-6.07 7.219-7.448l.76-1.227-.016-2.012c-.01-1.215.067-2.114.194-2.27.153-.19.15-.847-.012-2.467-.12-1.214-.225-4.861-.232-8.106-.012-5.872-.01-5.911.586-8.992.789-4.085 1.37-8.799 1.086-8.799-.07 0-.623.47-1.227 1.046-1.862 1.77-3.909 2.51-6.865 2.479-.938-.01-1.826-.046-1.975-.08-.216-.049-.299.384-.415 2.163-.08 1.223-.354 4.182-.609 6.575-.254 2.393-.515 5.309-.579 6.479-.063 1.17-.298 2.867-.52 3.77-.6 2.443-.545 6.862.142 11.41.28 1.862.558 4.581.617 6.044.058 1.462.16 2.659.226 2.659s.795-.55 1.62-1.224zm23.56-5.96c.569-.178 1.876-1.455 1.687-1.649-.047-.049-.538.048-1.09.217-3.07.936-6.016.48-11.759-1.82-2.192-.878-2.35-.915-2.524-.581-.102.195-.185.666-.185 1.045 0 .632.045.69.548.69.663 0 2.198.5 4.346 1.417 1.413.604 1.884.703 4.046.854 2.592.18 3.948.133 4.932-.174zm.447-2.597c.562-.168 1.128-.445 1.257-.617.293-.389.31-2.748.03-4.145-.113-.564-.567-1.808-1.01-2.765-.443-.957-.87-1.958-.949-2.224-.286-.966-1.104-2.443-1.981-3.578-1.01-1.305-1.683-1.969-4.513-4.447-3.35-2.933-4.93-4.812-5.823-6.917-.225-.53-.381-.717-.444-.529-.054.16-.233 1.857-.398 3.771-.306 3.538-.25 5.438.269 9.364.477 3.601.44 6.239-.123 8.946-.1.48-.045.536.712.736.45.12 2.09.646 3.643 1.17 1.553.524 3.331 1.078 3.952 1.23 1.543.38 4.116.381 5.378.005zm2.439-8.547c-.292-2.26-.87-3.956-2.475-7.247l-1.344-2.756-4.015-4.103c-4.015-4.104-5.97-6.392-6.679-7.819-.207-.417-.45-.712-.538-.656-.089.056-.253.647-.365 1.312-.536 3.194 1.688 7.47 4.708 9.05 3.469 1.816 6.635 5.7 9.441 11.583.733 1.535 1.367 2.687 1.408 2.558.042-.129-.022-.994-.141-1.922zm-45.4-13.364c.058-.635.045-.648-.471-.485-.684.216-2.814.217-4.437.004-1.27-.167-1.27-.167-1.27.311 0 .424.113.502.987.677.544.11 1.92.187 3.059.173l2.07-.026.061-.653zm-.472-1.492c.484-.17.928-.388.987-.485.216-.359-.554-.417-1.4-.106-1.08.398-2.258.41-2.967.03-.585-.314-2.45-.389-2.87-.115-.209.136-.183.212.13.384 1.16.637 4.657.804 6.12.292zm-1.195-1.352c.463-.166 1.108-.316 1.433-.335.568-.033.602-.084.818-1.197.298-1.541.173-1.83-.807-1.86-1.485-.045-2.482-.147-3.311-.339-.528-.122-.955-.125-1.166-.009-.418.23-.723 1.332-.725 2.618v.988l1.175.193c1.663.274 1.652.274 2.583-.059zm14.643-1.608c.18-.096.99-.26 1.803-.366.812-.106 1.55-.268 1.64-.36.09-.093.296-1.603.458-3.357.382-4.131.77-6.874 1.245-8.792 1.002-4.052 2.915-7.08 5.647-8.937l.792-.538-1.112-.216-1.112-.216-1.066 1.12c-1.626 1.707-2.917 4.285-3.73 7.448-.216.84-.686 3.355-1.046 5.589-.822 5.113-1.335 7.32-1.799 7.752-.435.405-.436.61.019-2.917.82-6.362 1.342-9.109 2.274-11.972.672-2.062 1.956-4.665 2.993-6.065.416-.561.755-1.061.755-1.112 0-.051-.614-.093-1.364-.094-.75 0-2.593-.134-4.094-.298-3.491-.381-6.447-.382-8.47-.003-3.337.626-4.27.729-5.922.653-1.432-.065-1.858-.166-2.69-.632-1.086-.61-1.19-.788-.58-.986.725-.237-.005-.434-2.865-.775-3.272-.39-8.073-.3-11.142.208l-2.023.335L7.927 8.3c-3.884 7.3-5.012 11.122-4.54 15.383.33 2.973.14 2.774 3.447 3.59 4.175 1.03 6.731 1.786 8.274 2.447.75.322 1.859.66 2.465.75.606.092 1.255.309 1.443.484.188.174.539.288.78.253.396-.057.452-.193.567-1.387.07-.728.171-1.369.225-1.424.053-.055.638-.004 1.3.115.66.118 2.253.216 3.539.218 1.286.002 2.43.067 2.545.145.38.26.64.98.64 1.77v.784l5.505.054c3.028.03 5.528.075 5.555.1.027.025.197-.033.377-.13zm8.885-3.908c.383-.118 1.24-.692 1.904-1.275 2.827-2.484 4.612-3.785 11.654-8.497 2.847-1.905 5.896-4.019 6.776-4.698 3.343-2.58 3.394-2.65 2.588-3.567l-.423-.482-2.73 2.059a2111.015 2111.015 0 0 0-9.035 6.89c-3.468 2.658-7.703 5.863-9.41 7.123-1.709 1.26-3.135 2.375-3.17 2.476-.084.251.99.234 1.846-.029zm-2.294-1.453a74.422 74.422 0 0 0 1.511-1.325c.203-.193.17-.398-.178-1.136-.317-.67-.372-.956-.213-1.119.35-.359.747-.051.88.68.07.378.21.74.311.804.102.064.607-.245 1.123-.688l.937-.806-.377-.544c-.207-.299-.377-.63-.377-.735 0-.27.638-.49.717-.246.036.111.212.388.39.615l.326.412.777-.407c1.04-.545 1.127-.755.543-1.311-.578-.551-.615-.753-.169-.93.23-.09.473.058.821.496l.496.623.637-.453c.351-.249.67-.477.707-.505.038-.03-.123-.37-.357-.76-.35-.582-.379-.736-.162-.873.259-.166.954.41 1.128.934.049.149.39.02.967-.367l.892-.597-.343-.51c-.576-.857-.6-.942-.314-1.185.227-.194.345-.114.675.461.22.383.481.697.58.697.099 0 .685-.353 1.302-.783l1.122-.783-.508-.683c-.407-.55-.456-.715-.247-.848.309-.196.56-.073.56.274 0 .137.165.4.365.587.349.324.399.313 1.223-.27.473-.334.86-.664.86-.732 0-.07-.22-.362-.49-.65-.486-.522-.487-.527-.098-.74.349-.193.422-.14.676.485l.285.702.532-.359c.292-.197.729-.506.971-.688l.44-.329-.49-.662c-.271-.364-.44-.716-.375-.783.247-.254.787-.104.896.25.205.662.537.794 1.032.41.442-.343.446-.366.13-.862-.179-.28-.266-.607-.194-.727.08-.133.046-.164-.086-.08-.136.086-.218-.003-.218-.24 0-.207.124-.426.276-.485.237-.094.469.146 1.143 1.184.08.123 2.944-1.98 3.097-2.274.12-.231-.04-.654-.586-1.541-1.144-1.858-2.654-3.877-2.9-3.877-.224 0-6.674 4.48-9.876 6.861-1.822 1.354-9.953 7.583-10.213 7.823-.399.369-2.216 9.682-1.89 9.682.038 0 .637-.49 1.333-1.087zm4.836-13.205l2.254-1.834-.79-.354c-1.025-.46-1.519-.319-2.691.764-.67.62-1.16 1.33-1.691 2.458-.411.873-.748 1.656-.748 1.74 0 .177.543-.234 3.666-2.774z" fill="#464646" stroke="#464646" stroke-width=".986"/><path style="marker:none" d="M15.42 6.809c-1.754.05-3.538.183-5.274.431l-1.912.278-1.789 3.574c-2.013 4.062-2.993 6.835-3.361 9.427-.259 1.823-.148 4.122.277 5.515.266.87.28.871 4.256 1.91 1.351.354 3.974 1.14 5.798 1.726 5.247 1.684 5.943 1.888 6.075 1.756.069-.068.176-.638.247-1.263.07-.626.244-1.203.4-1.263.564-.216 7.294.352 7.649.647.2.165.37.736.37 1.263v.924l3.361.093c4.431.118 8.437.04 8.974-.185.278-.117.432-.468.432-.955 0-1.029 1.145-8.965 1.604-11.092.722-3.352 2.38-7.437 3.855-9.52.268-.38.423-.748.339-.832-.085-.085-2.427-.32-5.212-.524-4.834-.354-5.214-.363-8.172.093-4.174.643-7.215.641-8.512-.031-.538-.279-.987-.674-.987-.863 0-.555-.327-.637-3.423-.955-1.524-.157-3.242-.203-4.996-.154zm33.552 2.434l-.863.924c-1.499 1.566-2.604 3.475-3.393 5.885-.57 1.74-.802 2.844-1.603 7.487-.74 4.28-1.211 6.506-1.542 7.178-.1.203-.345.49-.525.647-.273.24-.266.267-.061.216.135-.033.439-.08.71-.123 1.198-.191 1.265-.225 1.418-1.202.076-.487.233-1.98.37-3.296.521-5.038.93-7.42 1.603-9.428 1.071-3.193 2.79-5.69 4.904-7.179.479-.337.86-.667.863-.708.003-.042-.407-.128-.925-.216l-.956-.185zm6.106 16.514c-.063 0-.463.29-.863.647-2.422 2.16-3.872 2.688-7.31 2.68-1.695-.003-1.948.006-2.004.185-.034.113-.395 3.892-.801 8.38-.512 5.66-.844 8.706-1.08 9.983-.32 1.734-.318 2.056-.308 5.176.01 2.942.03 3.646.37 6.316.38 2.99.564 4.837.71 7.179.041.675.121 1.333.153 1.448.087.31 1.701-1.006 3.979-3.204 2.286-2.208 4.1-4.206 4.872-5.361l.586-.863.093-2.218c.06-1.215.088-3.275.061-4.59-.026-1.317-.033-5.216-.03-8.658v-6.255l.524-2.773c.756-4.063 1.28-8.072 1.048-8.072zm-49.404 3.02l-.37 1.57c-.727 3.023-.986 5.528-.987 9.151 0 2.036.034 2.445.216 2.804.3.59.492.59.586.03.132-.78.19-.893.432-.893.174 0 .225.118.278.462.188 1.243.224 1.325.616 1.325.362 0 .375.008.34-.554-.039-.61.085-.798.462-.678.18.057.243.234.308.8.075.645.134.766.401.833.389.097.598-.125.34-.34a.61.61 0 0 1-.185-.43c0-.483.398-.368.77.246.365.6.94.957 1.882 1.11l.524.092-.062-.71c-.057-.55-.052-.677.093-.677.275 0 .725.518.863 1.017.143.516.306.563.987.216l.463-.247.987.37c.764.294.963.434.863.554-.336.405-3.059.576-4.996.308-.755-.104-3.875-.857-5.89-1.417-.249-.069-.34-.003-.74.863-.56 1.212-1.684 4.593-1.943 5.854-.276 1.342-.476 4.533-.4 6.347.034.843.169 2.376.307 3.389.14 1.012.317 2.208.37 2.68.089.777.108.887.37.924.469.067.535-.118.34-1.14-.213-1.11-.246-2.635-.062-3.296.17-.613.573-.645 1.018-.062.377.495.41.706.092 1.849-.281 1.015-.302 1.203-.123 1.848.184.664.878 1.361 1.758 1.787.831.403 4.132 1.267 5.674 1.48 1 .137 13.298 1.012 24.425 1.755 3.377.226 6.219.423 6.321.432.166.013.197-.162.062-1.602-.535-5.708-.442-16.653.247-26.374.237-3.34.455-6.41.493-6.84l.093-.77-.432.062c-.222.045-3.23.115-6.692.154l-6.291.062-.432.493c-.55.607-.876 1.313-1.11 2.434-.22 1.058-.325 1.245-.956 1.602-.667.376-2.297.447-4.44.185-.882-.108-1.875-.185-2.221-.185-.543 0-.697-.063-.956-.37-.179-.212-.323-.577-.37-.924-.099-.716-.253-.925-.71-.925-.418 0-.426-.089-.154-1.17.254-1.012.646-1.4 1.172-1.202.419.158.563.053.37-.308-.073-.137-.168-.247-.185-.247-.016 0-.693-.083-1.511-.184-1.877-.233-3.026-.57-6.137-1.787-2.848-1.116-4.176-1.54-5.335-1.664l-.833-.093zM6.723 44.92c.037-.027.106-.016.247 0 .264.03.34.105.37.37.064.559-.4.42-.617-.185-.033-.093-.038-.158 0-.185zm1.14.339c.162-.038.51.102.988.431.357.245.924.531 1.233.616.31.085.753.256 1.018.37.265.114.84.3 1.264.431.425.131.792.304.833.37.114.185-.713.104-1.943-.154-1.455-.306-2.041-.511-2.467-.955-.193-.201-.491-.37-.648-.37-.156 0-.276-.042-.277-.092-.001-.05-.021-.218-.062-.37-.042-.158-.035-.255.062-.277zM5.182 61.835c.044.01.103.08.185.185.14.181.152.363.092.77-.044.304-.092.597-.123.647-.07.114-.23.14-.34.031-.127-.127-.075-1.304.063-1.51.053-.079.078-.131.123-.123zm1.912 2.311c.114 0 .148.107.123.277-.042.289-.252.438-.37.247-.111-.18.045-.524.247-.524z" color="#000" fill="#fd5" stroke="#fd5" stroke-width=".123" stroke-linecap="round" stroke-linejoin="round" overflow="visible"/><path style="marker:none" d="M71.255 50.07c-.405-.776-.94-1.821-1.191-2.322-.897-1.796-2.18-3.883-3.199-5.207-1.782-2.312-3.328-3.726-5.43-4.964-1.755-1.034-3.015-2.405-3.925-4.272-.646-1.326-.923-2.416-.939-3.693-.012-.978.19-2.183.387-2.305.042-.026.192.14.333.37.695 1.127.92 1.45 1.62 2.33 1.231 1.545 2.204 2.594 6.52 7.03l2.707 2.78 1.097 2.287c1.69 3.523 2.208 4.917 2.562 6.902.18 1.01.322 2.473.241 2.473-.026 0-.379-.634-.783-1.41zM64.463 61.054c-2.468-.2-2.904-.293-4.597-.987-1.701-.697-2.906-1.105-3.592-1.214-1.065-.17-.975-.102-.975-.74 0-.31.06-.706.131-.877.12-.286.154-.309.413-.267.156.025 1.201.397 2.323.826 5.847 2.236 8.208 2.597 11.439 1.75 1.14-.3 1.191-.306 1.084-.114-.13.232-.993 1.072-1.29 1.255-.477.295-1.47.426-3.098.41a47.905 47.905 0 0 1-1.838-.042z" color="#000" fill="#d38d5f" stroke="#d38d5f" stroke-width=".043" stroke-linecap="round" stroke-linejoin="round" overflow="visible"/><path style="marker:none" d="M23.169 33.731a176.17 176.17 0 0 1-1.183-.191l-.798-.132.002-.858c.002-.75.011-.909.072-1.257.15-.852.402-1.388.703-1.493.196-.068.649-.045 1.188.06.872.172 1.37.226 2.688.297.94.05 1.117.083 1.277.243.174.174.207.48.118 1.088-.077.52-.25 1.288-.327 1.443-.094.188-.196.232-.67.291-.452.057-.809.146-1.52.38-.48.157-.548.172-.844.18a4.01 4.01 0 0 1-.706-.05zM23.076 35.173c-1.456-.057-2.622-.287-3.153-.622-.197-.124-.213-.16-.115-.25.117-.109.333-.166.778-.205.707-.063 1.585.047 2.11.264.392.162.689.234 1.056.257.617.038 1.114-.027 1.78-.233.661-.205.772-.228 1.092-.233.35-.005.475.042.475.178 0 .088-.09.158-.4.31-.62.307-1.304.47-2.18.518-.655.037-.857.039-1.443.016zM23.599 37.057c-1.756-.041-2.938-.235-3.114-.51-.106-.165-.085-.635.03-.68.094-.036.452-.017 1.096.057 1.123.13 1.51.153 2.571.153 1.11 0 1.394-.023 1.956-.157.284-.067.352-.075.391-.042.059.049.061.206.012.76l-.036.407h-.742a72.1 72.1 0 0 0-1.246.011c-.277.006-.69.007-.918.001z" color="#000" fill="#f55" stroke="#f55" stroke-width=".015" stroke-linecap="round" stroke-linejoin="round" overflow="visible"/><path style="marker:none" d="M46.72 28.126c-.065-.104.762-.75 6.68-5.221 2.866-2.165 7.342-5.561 9.945-7.546 2.604-1.986 5.375-4.095 6.16-4.686l1.425-1.076.297.342c.49.562.572.774.418 1.07-.365.706-3.342 2.925-9.56 7.124-6.613 4.467-8.7 5.973-11.103 8.015-1.56 1.325-2.209 1.751-2.923 1.918-.626.146-1.268.175-1.34.06zM44.88 26.92c.152-1.483 1.243-6.981 1.637-8.24l.195-.625 1.998-1.546c6.17-4.774 9.509-7.262 13.42-9.998 3.231-2.262 4.588-3.152 4.725-3.1.315.121 2.646 3.435 3.183 4.524.26.53.27.577.142.771-.22.336-2.87 2.314-2.966 2.215-.017-.018-.21-.276-.43-.574-.33-.45-.442-.543-.65-.543-.203 0-.271.052-.345.263-.104.3-.05.518.128.518.07 0 .12.09.12.215 0 .118.085.387.187.598.227.465.184.603-.256.827-.307.157-.357.16-.526.043-.102-.072-.186-.19-.186-.262 0-.187-.476-.64-.672-.64a.648.648 0 0 0-.32.115c-.15.11-.15.128-.006.412.084.164.283.477.443.697l.29.4-.67.478c-.85.605-1.147.794-1.184.752a8.773 8.773 0 0 1-.267-.57c-.131-.295-.295-.559-.365-.585-.176-.068-.636.186-.636.35 0 .075.176.342.39.593.216.252.391.502.391.557 0 .16-1.383 1.14-1.61 1.14-.234 0-.6-.425-.696-.81-.074-.296-.239-.374-.522-.245-.305.14-.265.36.185 1.015.218.318.384.589.369.601-.248.207-1.765 1.199-2.015 1.318l-.338.16-.184-.253c-.76-1.048-.791-1.075-1.044-.891-.25.183-.189.533.199 1.128.197.302.358.57.358.596 0 .064-.842.617-1.278.84l-.357.182-.171-.29c-.232-.392-.74-.768-.99-.733-.31.044-.291.35.062.98.174.312.304.604.288.65-.016.046-.3.275-.63.508l-.601.424-.422-.506c-.232-.279-.519-.531-.637-.56-.219-.056-.649.15-.649.309 0 .044.196.315.434.602.24.286.435.555.435.596 0 .137-.381.431-.981.759-.58.316-.593.319-.77.16a2.803 2.803 0 0 1-.395-.53c-.17-.293-.266-.37-.455-.37-.23 0-.526.227-.526.403 0 .047.161.353.358.679.353.584.356.596.186.732l-.771.626c-.33.268-.685.532-.79.587-.227.118-.28.046-.494-.677-.076-.259-.198-.561-.271-.672a.419.419 0 0 0-.675-.049c-.167.184-.113.491.23 1.297.126.297.23.615.23.706 0 .102-.342.46-.891.936-1.346 1.165-1.867 1.593-1.937 1.593-.035 0-.036-.263-.003-.585z" color="#000" fill="#80e5ff" stroke="#80e5ff" stroke-width=".043" stroke-linecap="round" stroke-linejoin="round" overflow="visible"/><path style="marker:none" d="M47.46 15.966c0-.127.58-1.381 1.043-2.258.294-.556.584-.933 1.174-1.529.854-.862 1.332-1.163 1.84-1.159.369.003 1.523.438 1.503.566-.014.086-5.134 4.243-5.404 4.388-.103.055-.156.052-.156-.008z" color="#000" fill="#fd5" stroke="#fd5" stroke-width=".043" stroke-linecap="round" stroke-linejoin="round" overflow="visible"/></svg>